<?xml version="1.0" encoding="UTF-8" standalone="no"?>
<!-- Created with Inkscape (http://www.inkscape.org/) -->

<svg
   width="1000"
   height="1000"
   viewBox="0 0 1000 1000"
   version="1.1"
   id="svg756"
   inkscape:version="1.1 (c68e22c387, 2021-05-23)"
   sodipodi:docname="u30cd.svg"
   xmlns:inkscape="http://www.inkscape.org/namespaces/inkscape"
   xmlns:sodipodi="http://sodipodi.sourceforge.net/DTD/sodipodi-0.dtd"
   xmlns="http://www.w3.org/2000/svg"
   xmlns:svg="http://www.w3.org/2000/svg"
   xmlns:rdf="http://www.w3.org/1999/02/22-rdf-syntax-ns#"
   xmlns:cc="http://creativecommons.org/ns#"
   xmlns:dc="http://purl.org/dc/elements/1.1/">
  <defs
     id="defs750" />
  <sodipodi:namedview
     id="base"
     pagecolor="#ffffff"
     bordercolor="#666666"
     borderopacity="1.0"
     inkscape:pageopacity="0.0"
     inkscape:pageshadow="2"
     inkscape:zoom="0.5"
     inkscape:cx="861"
     inkscape:cy="690"
     inkscape:document-units="px"
     inkscape:current-layer="layer1"
     showgrid="true"
     units="px"
     inkscape:window-width="1118"
     inkscape:window-height="864"
     inkscape:window-x="577"
     inkscape:window-y="48"
     inkscape:window-maximized="0"
     showguides="true"
     inkscape:guide-bbox="true"
     inkscape:pagecheckerboard="0">
    <inkscape:grid
       type="xygrid"
       id="grid758" />
    <sodipodi:guide
       position="240,200"
       orientation="0,1"
       id="guide8"
       inkscape:locked="false" />
  </sodipodi:namedview>
  <metadata
     id="metadata753">
    <rdf:RDF>
      <cc:Work
         rdf:about="">
        <dc:format>image/svg+xml</dc:format>
        <dc:type
           rdf:resource="http://purl.org/dc/dcmitype/StillImage" />
        <dc:title />
      </cc:Work>
    </rdf:RDF>
  </metadata>
  <g
     inkscape:label="Layer 1"
     inkscape:groupmode="layer"
     id="layer1"
     transform="translate(0,-32.41664)"
     style="display:inline">
    <path
       style="display:inline;fill:#000000;stroke-width:15.8326"
       d="M 44,952.41664 C 33.425492,911.28497 47.840377,883.56391 160.16858,729.01462 410.93389,383.99442 489.83803,270.24243 481.82819,265.29499 c -4.56345,-2.81871 -39.45676,17.17368 -77.74527,37.23099 -67.32786,35.26953 -122.04863,28.61915 -127.47323,-12.00168 -1.47848,-11.07124 45.43998,-25.77065 91.45545,-54.47552 64.9967,-40.54562 90.09299,-54.90495 136.61129,-56.93985 41.32599,-1.80781 59.37404,5.11305 65.85093,25.25163 11.6265,36.15004 -24.04173,111.31749 -83.34655,192.20816 l -52.94493,72.21592 68.57414,61.57397 c 35.554,31.9246 83.70982,83.23913 106.78021,114.29289 23.07037,31.05356 55.01207,62.89655 70.98149,70.76212 35.09932,17.2878 51.54317,67.56862 21.91534,79.45522 -51.76004,20.76577 -82.94899,-1.30552 -152.33351,-107.80052 -42.7044,-65.54489 -79.78326,-93.26325 -92.65591,-103.7168 -15.17802,19.80946 -51.46767,84.76263 -82.72062,183.61842 -10.53698,33.32955 -68.79279,-18.62138 -75.26987,-67.12338 l -6.76123,-50.62995 -54.16837,77.47041 C 208.78499,769.29574 164.97414,840.03964 141.22018,883.89568 100.76924,958.57909 54.049692,991.50723 44,952.41664 Z M 390.79566,573.4074 c 8.36011,-17.23987 14.24166,-23.61775 15.9931,-30.12424 -1.75144,-2.84943 -11.22027,-5.61355 -20.5705,-14.96945 -15.89538,22.45418 -32.72578,46.77955 -42.07601,60.81341 1.69358,12.68209 11.9081,56.06614 16.54088,51.88434 4.63276,-4.18181 17.85658,-42.33039 30.11253,-67.60406 z M 413.19118,129.00725 C 313.59774,110.95457 273.81517,104.34235 270.0357,76.040583 c -4.78001,-35.793672 38.53927,-55.067893 78.61627,-34.97911 17.09264,8.56775 63.94939,18.155751 104.12608,21.306606 84.88179,6.656913 132.41598,40.522271 93.49255,66.608051 -31.39773,21.04219 -63.92307,12.56668 -133.07942,0.0311 z"
       id="path851"
       inkscape:connector-curvature="0"
       sodipodi:nodetypes="sscsssssscssscscsscsssscccssssssss" />
  </g>
</svg>
