<?xml version="1.0" encoding="UTF-8" standalone="no"?>
<!-- Created with Inkscape (http://www.inkscape.org/) -->

<svg
   width="1000"
   height="1000"
   viewBox="0 0 1000 1000"
   version="1.1"
   id="svg756"
   inkscape:version="1.1 (c68e22c387, 2021-05-23)"
   sodipodi:docname="uff6c.svg"
   xmlns:inkscape="http://www.inkscape.org/namespaces/inkscape"
   xmlns:sodipodi="http://sodipodi.sourceforge.net/DTD/sodipodi-0.dtd"
   xmlns="http://www.w3.org/2000/svg"
   xmlns:svg="http://www.w3.org/2000/svg"
   xmlns:rdf="http://www.w3.org/1999/02/22-rdf-syntax-ns#"
   xmlns:cc="http://creativecommons.org/ns#"
   xmlns:dc="http://purl.org/dc/elements/1.1/">
  <defs
     id="defs750" />
  <sodipodi:namedview
     id="base"
     pagecolor="#ffffff"
     bordercolor="#666666"
     borderopacity="1.0"
     inkscape:pageopacity="0.0"
     inkscape:pageshadow="2"
     inkscape:zoom="0.5"
     inkscape:cx="889"
     inkscape:cy="664"
     inkscape:document-units="px"
     inkscape:current-layer="layer1"
     showgrid="true"
     units="px"
     inkscape:window-width="1118"
     inkscape:window-height="864"
     inkscape:window-x="375"
     inkscape:window-y="92"
     inkscape:window-maximized="0"
     showguides="true"
     inkscape:guide-bbox="true"
     inkscape:pagecheckerboard="0">
    <inkscape:grid
       type="xygrid"
       id="grid758" />
    <sodipodi:guide
       position="240,200"
       orientation="0,1"
       id="guide8"
       inkscape:locked="false" />
  </sodipodi:namedview>
  <metadata
     id="metadata753">
    <rdf:RDF>
      <cc:Work
         rdf:about="">
        <dc:format>image/svg+xml</dc:format>
        <dc:type
           rdf:resource="http://purl.org/dc/dcmitype/StillImage" />
        <dc:title />
      </cc:Work>
    </rdf:RDF>
  </metadata>
  <g
     inkscape:label="Layer 1"
     inkscape:groupmode="layer"
     id="layer1"
     transform="translate(0,-32.41664)"
     style="display:inline">
    <path
       style="fill:#000000;stroke-width:18.2771"
       d="M 111.20598,808.9722 C 99.928577,797.69479 96.706967,744.87666 96.706967,691.59861 c 0,-73.92118 -2.284645,-90.3417 -3.59016,-108.61889 -30.026844,7.5067 -57.051004,12.01073 -57.246831,-6.52755 -0.106184,-10.05192 6.673561,-26.45487 14.812478,-32.30563 13.908852,-9.99854 17.14417,-15.48274 41.441367,-24.22319 -1.777065,-21.28639 7.377595,-76.36268 28.347039,-79.75402 17.64228,-2.85325 36.04965,54.22472 36.71903,72.24731 22.26648,0.97755 45.39516,4.70534 58.04048,8.10154 30.38072,8.15947 63.22176,51.57216 64.8978,99.4193 1.67606,47.84713 -17.02549,101.23109 -32.1229,107.51629 -70.99956,29.55786 -51.51033,-25.43908 -43.05344,-59.49555 11.06819,-44.57228 9.77369,-84.9785 -42.77328,-84.9785 0,30.02684 -0.10776,19.65021 4.54867,110.01671 6.25594,121.40615 -11.98604,159.51097 -55.52124,115.97577 z"
       id="path39"
       sodipodi:nodetypes="sscsscscsssscss" />
  </g>
</svg>
