<?xml version="1.0" encoding="UTF-8" standalone="no"?>
<!-- Created with Inkscape (http://www.inkscape.org/) -->

<svg
   width="1000"
   height="1000"
   viewBox="0 0 1000 1000"
   version="1.1"
   id="svg756"
   inkscape:version="1.1 (c68e22c387, 2021-05-23)"
   sodipodi:docname="uff96.svg"
   xmlns:inkscape="http://www.inkscape.org/namespaces/inkscape"
   xmlns:sodipodi="http://sodipodi.sourceforge.net/DTD/sodipodi-0.dtd"
   xmlns="http://www.w3.org/2000/svg"
   xmlns:svg="http://www.w3.org/2000/svg"
   xmlns:rdf="http://www.w3.org/1999/02/22-rdf-syntax-ns#"
   xmlns:cc="http://creativecommons.org/ns#"
   xmlns:dc="http://purl.org/dc/elements/1.1/">
  <defs
     id="defs750" />
  <sodipodi:namedview
     id="base"
     pagecolor="#ffffff"
     bordercolor="#666666"
     borderopacity="1.0"
     inkscape:pageopacity="0.0"
     inkscape:pageshadow="2"
     inkscape:zoom="0.49497475"
     inkscape:cx="881.86317"
     inkscape:cy="682.86312"
     inkscape:document-units="px"
     inkscape:current-layer="layer1"
     showgrid="true"
     units="px"
     inkscape:window-width="1118"
     inkscape:window-height="864"
     inkscape:window-x="375"
     inkscape:window-y="92"
     inkscape:window-maximized="0"
     showguides="true"
     inkscape:guide-bbox="true"
     inkscape:pagecheckerboard="0">
    <inkscape:grid
       type="xygrid"
       id="grid758" />
    <sodipodi:guide
       position="240,200"
       orientation="0,1"
       id="guide8"
       inkscape:locked="false" />
  </sodipodi:namedview>
  <metadata
     id="metadata753">
    <rdf:RDF>
      <cc:Work
         rdf:about="">
        <dc:format>image/svg+xml</dc:format>
        <dc:type
           rdf:resource="http://purl.org/dc/dcmitype/StillImage" />
        <dc:title />
      </cc:Work>
    </rdf:RDF>
  </metadata>
  <g
     inkscape:label="Layer 1"
     inkscape:groupmode="layer"
     id="layer1"
     transform="translate(0,-32.41664)"
     style="display:inline">
    <path
       style="fill:#000000;stroke-width:19.4908"
       d="M 281.14159,830.11719 C 135.53805,820.24396 72.593865,828.14905 76.488741,784.11344 78.397059,762.53792 104.09541,755.7605 193.43322,755.7605 c 38.9815,0 91.70025,0.50598 116.94448,0 0.6185,-16.30479 0.86032,-46.42348 0,-69.61131 -0.86268,-23.25175 -1.96779,-50.14437 -5.17253,-69.61133 -22.65798,0.07 -64.76926,4.17759 -97.15389,6.2664 -80.73156,5.20716 -102.32642,0.10118 -102.32642,-22.96975 0,-21.05058 25.92089,-30.89937 92.58105,-35.17673 45.10408,-2.89417 85.7777,-5.29266 101.05205,-6.24114 -3.87942,-19.39704 -5.17254,-32.32841 -8.471,-62.95102 -4.81364,-44.6896 -13.2121,-86.4219 -22.7786,-93.56572 -9.13792,-6.82376 -51.20807,-4.45486 -98.92314,6.26599 -83.661556,18.7975 -131.67798,11.06627 -131.67798,-21.20177 0,-24.98715 126.48009,-59.75285 217.88907,-59.89141 70.99589,-0.10723 71.90696,0.90807 91.68559,102.21774 30.34691,155.44218 47.49019,389.98665 28.70341,398.52879 -9.1744,4.17149 -51.76408,5.20558 -94.64372,2.29795 z"
       id="path39"
       sodipodi:nodetypes="ssscscssscsssscsss" />
  </g>
</svg>
