<?xml version="1.0" encoding="UTF-8" standalone="no"?>
<!-- Created with Inkscape (http://www.inkscape.org/) -->

<svg
   width="1000"
   height="1000"
   viewBox="0 0 1000 1000"
   version="1.1"
   id="svg756"
   inkscape:version="1.1 (c68e22c387, 2021-05-23)"
   sodipodi:docname="u4e0b.svg"
   xmlns:inkscape="http://www.inkscape.org/namespaces/inkscape"
   xmlns:sodipodi="http://sodipodi.sourceforge.net/DTD/sodipodi-0.dtd"
   xmlns="http://www.w3.org/2000/svg"
   xmlns:svg="http://www.w3.org/2000/svg"
   xmlns:rdf="http://www.w3.org/1999/02/22-rdf-syntax-ns#"
   xmlns:cc="http://creativecommons.org/ns#"
   xmlns:dc="http://purl.org/dc/elements/1.1/">
  <defs
     id="defs750" />
  <sodipodi:namedview
     id="base"
     pagecolor="#ffffff"
     bordercolor="#666666"
     borderopacity="1.0"
     inkscape:pageopacity="0.0"
     inkscape:pageshadow="2"
     inkscape:zoom="0.5"
     inkscape:cx="841"
     inkscape:cy="610"
     inkscape:document-units="px"
     inkscape:current-layer="layer1"
     showgrid="true"
     units="px"
     inkscape:window-width="1118"
     inkscape:window-height="864"
     inkscape:window-x="910"
     inkscape:window-y="73"
     inkscape:window-maximized="0"
     showguides="true"
     inkscape:guide-bbox="true"
     inkscape:pagecheckerboard="0">
    <inkscape:grid
       type="xygrid"
       id="grid758" />
    <sodipodi:guide
       position="240,200"
       orientation="0,1"
       id="guide8"
       inkscape:locked="false" />
  </sodipodi:namedview>
  <metadata
     id="metadata753">
    <rdf:RDF>
      <cc:Work
         rdf:about="">
        <dc:format>image/svg+xml</dc:format>
        <dc:type
           rdf:resource="http://purl.org/dc/dcmitype/StillImage" />
        <dc:title />
      </cc:Work>
    </rdf:RDF>
  </metadata>
  <g
     inkscape:label="Layer 1"
     inkscape:groupmode="layer"
     id="layer1"
     transform="translate(0,-32.41664)"
     style="display:inline">
    <path
       style="fill:#000000;stroke-width:12.4293"
       d="m 300,832.41664 c -18.72123,-43.90567 -38.21563,-192.61133 -45.5089,-351.5804 -4.23546,-92.31922 -5.68583,-155.95143 9.19008,-187.95831 14.8759,-32.00687 34.27982,-34.14386 71.98309,-8.7389 21.8159,14.69983 22.86779,21.05547 8.56965,51.77789 -9.51656,20.44824 -10.84165,126.78551 -7.3482,224.58503 3.49343,97.79949 11.80537,187.06124 21.56289,173.35841 6.17716,-8.67479 11.32199,-40.1251 11.43296,-69.88955 0.28062,-75.28336 40.56529,-112.82156 97.66604,-102.69498 53.33806,9.45925 221.99326,101.1458 215.29582,119.31102 -8.79333,23.84986 -71.68511,22.55489 -136.09258,-2.80224 -33.79317,-13.30433 -68.86234,-24.18966 -77.93146,-24.18966 -17.3462,0 -34.26761,31.87847 -60.5155,114.00609 -16.99158,53.16529 -48.29619,97.06213 -76.90321,97.06213 -9.70797,0 -23.83827,-14.51093 -31.40068,-32.24653 z M 56.024506,197.70628 c -9.691811,-5.46758 -15.620554,-22.53609 -13.175,-37.92999 3.75002,-23.60504 15.79624,-30.08448 76.908924,-41.36779 39.85435,-7.35836 113.9637,-27.711626 164.68743,-45.229473 61.63724,-21.28691 127.82088,-33.901284 199.55018,-38.033583 127.45891,-7.342851 175.93714,0.959105 175.93714,30.129463 0,17.508527 -19.71958,17.31601 -119.0085,29.82331 -107.87249,13.588563 -172.5942,29.478613 -318.63689,85.884463 -52.69458,20.35215 -137.657459,32.86143 -166.263284,16.7236 z"
       id="path39"
       sodipodi:nodetypes="ssssssssssssssssssssssss" />
  </g>
</svg>
