<?xml version="1.0" encoding="UTF-8" standalone="no"?>
<!-- Created with Inkscape (http://www.inkscape.org/) -->

<svg
   width="1000"
   height="1000"
   viewBox="0 0 1000 1000"
   version="1.1"
   id="svg756"
   inkscape:version="1.1 (c68e22c387, 2021-05-23)"
   sodipodi:docname="u4e16.svg"
   xmlns:inkscape="http://www.inkscape.org/namespaces/inkscape"
   xmlns:sodipodi="http://sodipodi.sourceforge.net/DTD/sodipodi-0.dtd"
   xmlns="http://www.w3.org/2000/svg"
   xmlns:svg="http://www.w3.org/2000/svg"
   xmlns:rdf="http://www.w3.org/1999/02/22-rdf-syntax-ns#"
   xmlns:cc="http://creativecommons.org/ns#"
   xmlns:dc="http://purl.org/dc/elements/1.1/">
  <defs
     id="defs750" />
  <sodipodi:namedview
     id="base"
     pagecolor="#ffffff"
     bordercolor="#666666"
     borderopacity="1.0"
     inkscape:pageopacity="0.0"
     inkscape:pageshadow="2"
     inkscape:zoom="0.5"
     inkscape:cx="877"
     inkscape:cy="587"
     inkscape:document-units="px"
     inkscape:current-layer="layer1"
     showgrid="true"
     units="px"
     inkscape:window-width="1118"
     inkscape:window-height="773"
     inkscape:window-x="303"
     inkscape:window-y="120"
     inkscape:window-maximized="0"
     showguides="true"
     inkscape:guide-bbox="true"
     inkscape:pagecheckerboard="0">
    <inkscape:grid
       type="xygrid"
       id="grid758" />
    <sodipodi:guide
       position="240,200"
       orientation="0,1"
       id="guide8"
       inkscape:locked="false" />
  </sodipodi:namedview>
  <metadata
     id="metadata753">
    <rdf:RDF>
      <cc:Work
         rdf:about="">
        <dc:format>image/svg+xml</dc:format>
        <dc:type
           rdf:resource="http://purl.org/dc/dcmitype/StillImage" />
        <dc:title />
      </cc:Work>
    </rdf:RDF>
  </metadata>
  <g
     inkscape:label="Layer 1"
     inkscape:groupmode="layer"
     id="layer1"
     transform="translate(0,-32.41664)"
     style="display:inline">
    <path
       style="fill:#000000;stroke-width:9.03591"
       d="m 380,864.41664 c -93.67501,-18.60313 -169.51553,-71.427 -169.51553,-158.2138 0,-21.10828 1.05658,-82.14776 12.86182,-135.6433 14.6804,-63.95566 29.73413,-119.65459 38.21389,-184.58399 -23.31748,3.30986 -12.15505,2.59761 -30.38315,4.89641 -30.07635,3.79303 -60.97984,10.86429 -68.67444,15.7139 -24.75722,15.6036 -84.260304,13.68363 -106.452894,-6.59102 C 18.934461,366.08719 44.953074,336.97818 171.44473,325.85507 232.62774,320.47492 262.17189,313.59991 274,311.41664 c 4.49882,-29.37049 16.93156,-72.04417 -8.48367,-185.63089 -4.66071,-20.82987 18.53316,-41.242598 44.40245,-39.995511 35.35589,1.704407 48.98544,27.580471 49.35319,135.860941 0.13465,39.64866 -6.17377,79.7131 -5.47966,86.49448 12.39452,0 13.48537,-0.21739 24.55962,-1.09164 1.07528,-16.37457 5.38151,-71.60405 5.50718,-84.296 0.13805,-13.94358 1.13653,-50.49396 1.1463,-83.49597 0.0258,-86.961302 16.33455,-107.225627 43.84216,-103.450021 17.4188,2.390848 31.50314,7.886101 30.48386,27.559962 -0.70022,13.515515 -2.14106,73.229169 -3.15634,132.697809 l -1.88323,110.30742 c 27.93213,-1.3232 61.82606,-4.86894 88.70814,-5.96058 -1.07529,-17.4662 -5.05451,-35.75322 -12.77295,-70.47938 C 524.11655,202.44545 517.2642,168.93061 509.3134,135.00007 498.33841,88.163711 512.63568,64.590749 524.55413,58.102893 535,52.41664 545,52.41664 552.49868,63.347172 c 8.59016,12.521546 18.06657,26.996846 18.54894,34.965661 1.79181,29.600487 15.8884,72.907277 19.45749,84.477737 27.6906,0 87.56982,39.36912 102.65023,57.58731 20.25447,24.46881 44.00258,47.24666 38.88384,69.35991 -3.8139,16.47627 -27.54317,37.6862 -60.59874,41.49971 -26.13811,3.01546 -37.92401,4.3904 -51.01042,5.34116 2.33358,12.1489 4.53576,30.84124 9.22408,79.89922 5.3459,55.93876 1.11928,72.48415 -16.25011,98.2663 -9.99549,14.83675 -31.65171,32.11968 -87.65854,45.12263 -36.77137,8.53711 -65.34957,11.19636 -71.55593,10.23234 -8.8476,12.97204 -19.09721,13.89357 -29.59638,13.89357 -30.35861,0 -53.05896,-32.58269 -51.53876,-144.45398 0.75698,-55.7055 3.36639,-67.59852 2.07164,-83.16971 -6.45169,1.09163 -15.80679,2.18327 -31.93603,3.27491 -6.27865,44.39338 -23.09234,110.52912 -34.67364,165.37197 -38.83393,183.89683 -22.15444,219.65696 75.74135,246.90477 58.62419,16.31715 142.86988,11.91327 190.94307,3.40193 31.43358,-5.56529 66.11955,-20.25215 95.52386,-34.62555 38.0616,-18.60526 71.08063,-41.21966 97.42627,-70.53758 26.27119,-29.23507 39.77362,-9.66848 40.16779,-3.22597 0.39417,6.44252 -12.31991,27.76096 -38.48175,58.02963 C 721.41942,800.98115 658.17035,836.3874 586.57262,858.93797 545.40842,871.90313 428.87168,874.12217 380,864.41664 Z M 494.37548,386.8019 c 1.97776,32.86609 -0.85329,41.62608 -3.36104,62.43094 -5.15266,42.74754 -11.5876,62.928 -14.16686,70.88188 34.74442,-12.04998 58.62442,-14.07169 76.93099,-40.06341 7.60317,-10.795 7.72,-38.55776 3.54479,-71.81449 -2.26912,-18.07416 -4.32391,-31.86779 -6.80736,-46.22249 -42.83273,3.62289 -61.41289,7.71563 -99.22131,9.6798 -1.32918,30.87421 -0.87453,46.25487 -1.79459,73.38255 11.21823,-19.94248 14.59465,-25.40869 29.82142,-57.18315 6.22096,-12.98159 14.74719,-6.18942 15.05396,-1.09163 z M 662.36146,282.80911 c 0.28487,-11.15867 -52.62821,-63.64479 -67.55522,-65.08612 7.04342,20.96977 13.97868,57.85681 19.35509,79.68957 11.97083,0.33421 47.87552,-1.88852 48.20013,-14.60345 z"
       id="path259"
       sodipodi:nodetypes="ssccsssscsssccsssssccssssscssscssscssccssssssssssscsscccsssccs" />
  </g>
</svg>
