<?xml version="1.0" encoding="UTF-8" standalone="no"?>
<!-- Created with Inkscape (http://www.inkscape.org/) -->

<svg
   width="1000"
   height="1000"
   viewBox="0 0 1000 1000"
   version="1.1"
   id="svg756"
   inkscape:version="1.1 (c68e22c387, 2021-05-23)"
   sodipodi:docname="u4eca.svg"
   xmlns:inkscape="http://www.inkscape.org/namespaces/inkscape"
   xmlns:sodipodi="http://sodipodi.sourceforge.net/DTD/sodipodi-0.dtd"
   xmlns="http://www.w3.org/2000/svg"
   xmlns:svg="http://www.w3.org/2000/svg"
   xmlns:rdf="http://www.w3.org/1999/02/22-rdf-syntax-ns#"
   xmlns:cc="http://creativecommons.org/ns#"
   xmlns:dc="http://purl.org/dc/elements/1.1/">
  <defs
     id="defs750" />
  <sodipodi:namedview
     id="base"
     pagecolor="#ffffff"
     bordercolor="#666666"
     borderopacity="1.0"
     inkscape:pageopacity="0.0"
     inkscape:pageshadow="2"
     inkscape:zoom="0.52836681"
     inkscape:cx="806.38603"
     inkscape:cy="597.95746"
     inkscape:document-units="px"
     inkscape:current-layer="layer1"
     showgrid="true"
     units="px"
     inkscape:window-width="1118"
     inkscape:window-height="864"
     inkscape:window-x="721"
     inkscape:window-y="129"
     inkscape:window-maximized="0"
     showguides="true"
     inkscape:guide-bbox="true"
     inkscape:pagecheckerboard="0">
    <inkscape:grid
       type="xygrid"
       id="grid758" />
    <sodipodi:guide
       position="240,200"
       orientation="0,1"
       id="guide8"
       inkscape:locked="false" />
  </sodipodi:namedview>
  <metadata
     id="metadata753">
    <rdf:RDF>
      <cc:Work
         rdf:about="">
        <dc:format>image/svg+xml</dc:format>
        <dc:type
           rdf:resource="http://purl.org/dc/dcmitype/StillImage" />
        <dc:title />
      </cc:Work>
    </rdf:RDF>
  </metadata>
  <g
     inkscape:label="Layer 1"
     inkscape:groupmode="layer"
     id="layer1"
     transform="translate(0,-32.41664)"
     style="display:inline">
    <path
       id="path39"
       style="fill:#000000;stroke-width:15.875"
       d="m 396.67293,25.752331 c -9.25597,0.255547 -16.25653,1.073468 -23.99243,2.949258 -7.74095,1.877018 -14.90889,7.138647 -21.07015,10.493692 -8.87219,4.831243 -16.36475,11.657741 -23.60414,18.541493 -12.56979,12.315149 -23.05269,23.232539 -33.73765,35.040068 -20.97525,23.113928 -41.28236,47.025488 -61.20898,71.115078 -29.93284,36.24786 -59.05582,73.09832 -87.46907,110.49782 -20.25084,26.72727 -40.15883,53.70145 -59.231104,81.2775 -9.720623,14.11586 -19.320798,28.42625 -28.099591,43.07044 -4.289982,7.25786 -8.375642,14.68084 -11.885752,22.39237 -2.970318,6.52562 -3.816256,12.31078 -3.378079,18.69202 0.456109,6.64238 6.671725,17.63951 10.943921,22.92404 4.275567,5.18755 10.60758,8.80316 17.409242,9.462 7.073989,0.90498 14.255031,-0.78176 20.619592,-3.79665 6.471406,-3.05712 12.397931,-7.11335 18.064381,-11.41932 3.78038,-2.92734 7.39415,-6.05893 10.8569,-9.34302 3.73729,-3.6546 7.06846,-7.11777 10.27514,-10.7545 2.26048,-2.58067 4.55851,-5.39475 6.58392,-7.9997 6.94515,-8.9856 13.10068,-18.69073 18.20854,-28.72413 1.9091,-3.74073 3.6919,-7.56542 5.34877,-11.48139 1.65346,-3.8984 3.10269,-7.75657 4.48747,-11.78022 1.99277,-5.0648 4.7405,-9.79979 7.4132,-14.53959 11.8915,-20.47713 25.85693,-39.7034 40.30969,-58.49252 12.73623,-16.5127 26.08393,-32.56736 39.96139,-48.16661 22.17442,-25.0631 43.71278,-50.75 67.50093,-74.3402 7.85903,-7.79364 15.38086,-15.17912 22.0632,-23.12686 2.0852,-2.48005 8.04267,-10.33341 8.36134,-12.11657 0.65357,-4.86129 -11.06944,-3.10343 -15.4739,-5.40938 -0.76814,-0.4344 -1.53628,-0.8688 -2.3044,-1.30321 5.02951,-5.5589 10.16504,-11.02879 15.59476,-16.21456 4.49069,-4.29378 9.07528,-8.51159 14.00777,-12.31573 0.2954,0.20449 1.07669,-0.61937 1.55989,-0.81237 0.7001,-0.43994 1.40019,-0.87986 2.10029,-1.31978 -1.0409,-0.0946 0.14814,-0.52683 0.46045,-0.80979 1.25106,-0.77564 2.55807,-1.75667 4.05488,-1.87451 2.74041,0.20897 7.29119,-0.57263 8.46948,-0.73248 11.17807,-1.51645 21.864,-6.104362 30.97931,-12.636146 6.21979,-4.49216 11.44668,-10.47064 14.35701,-17.544642 3.24148,-7.41962 6.10203,-15.300789 5.8664,-23.490169 -0.13172,-5.319686 -1.58416,-10.703236 -4.79713,-15.046734 -3.42567,-4.898132 -9.00564,-8.042803 -14.87417,-9.193157 -3.19367,-0.649527 -11.47888,-1.761638 -14.73132,-1.671841 z M 530.9008,52.930845 c -6.65856,0.35212 -13.29847,1.049753 -19.87645,2.119413 -6.3707,1.035953 -13.19812,2.525364 -18.87385,4.000345 -16.41995,4.291863 -28.98722,10.728258 -44.03757,18.451738 -7.70998,3.875816 -15.13756,10.090818 -21.81307,15.955487 -2.79627,2.45662 -7.19973,6.215499 -9.45166,8.544942 -3.1388,3.24684 -8.85467,8.65827 -6.34445,12.45121 2.37484,3.78208 11.96118,3.72751 15.94456,3.86089 4.70484,0.15753 6.82203,0.16472 10.34562,0.25042 8.87043,0.21574 17.67002,-0.15781 26.51496,-0.46991 22.60507,-0.84019 45.21961,-2.4674 67.85103,-1.64317 5.34815,0.26682 10.75464,0.46933 15.97931,1.71686 1.67761,0.50025 3.42223,1.12133 4.71657,2.32193 1.28055,1.42781 1.80105,3.3301 2.47814,5.0748 1.67068,5.35853 2.45866,10.93397 3.27927,16.46594 1.12052,8.87506 3.01965,17.85235 6.99835,25.98955 3.20348,6.61452 7.82039,12.75541 14.13505,16.7878 5.84564,3.85557 13.13009,5.75021 20.1409,4.60944 7.97425,-1.29754 15.00927,-5.98885 20.16703,-11.95896 6.95393,-8.04918 11.11852,-18.07422 13.54393,-28.26394 1.18163,-4.96436 1.95432,-9.27091 2.38119,-13.95299 1.21791,-13.35866 -1.10325,-27.10484 -7.26823,-39.112584 -0.39408,-0.76757 -0.94699,-1.794457 -1.4306,-2.650795 C 621.10502,84.314471 613.65156,76.474926 604.90504,70.49688 590.7969,60.854283 573.98438,55.459117 557.00545,53.706203 547.81895,52.757784 539.41618,52.48053 530.9008,52.930845 Z M 498.93149,302.77475 c -15.16514,0.67729 -29.82304,6.37912 -42.11858,14.98396 -5.41465,3.74166 -10.29876,8.16776 -14.83037,12.8968 -8.9232,8.69268 -19.27336,15.83269 -29.96876,22.25254 -13.9539,8.27492 -28.69815,15.27824 -43.99316,20.81371 -13.40229,4.77206 -27.28648,8.32981 -41.42697,10.17923 -6.61028,0.79193 -13.32842,1.36035 -19.96575,0.5505 -3.209,-0.42962 -6.2704,-1.54262 -9.46341,-2.06573 -6.49435,-1.23589 -13.16984,-1.67262 -19.75986,-1.01041 -0.79779,0.0863 -1.90498,0.21708 -2.8186,0.35673 -9.5489,1.40189 -18.8748,5.45345 -25.64857,12.32566 -6.76081,6.61852 -10.28001,16.50466 -8.51931,25.79288 1.43545,7.51341 6.18099,14.06521 12.09558,18.87607 5.38762,4.45305 11.7651,7.51341 18.07244,10.48601 4.61097,2.11887 9.50597,4.04188 14.23745,5.57518 8.40548,2.66717 17.20664,4.56413 26.08387,4.26716 7.34187,-0.33576 16.401,-0.93261 23.26178,-3.27843 12.88053,-4.63446 27.5215,-8.12542 39.90898,-13.895 24.08088,-11.33796 47.76086,-23.73869 71.01245,-36.72179 19.28546,-10.83686 36.22573,-24.16219 54.58879,-36.46165 6.96259,-4.66518 11.61863,-9.56546 18.08911,-14.87436 3.63959,-2.83469 7.45447,-7.82404 9.74838,-11.88991 4.1545,-7.13918 5.32543,-16.08403 2.46468,-23.88122 -2.31245,-6.36116 -8.02006,-11.11241 -14.41272,-13.29485 -5.32171,-1.82568 -11.04457,-2.17021 -16.63745,-1.98308 z M 360,492.41653 c -5.85361,1.81234 -7.5103,3.16774 -11.27667,4.8331 -4.0243,1.77941 -7.9019,3.86226 -11.6876,6.08471 -1.40721,0.82613 -3.00669,1.79522 -4.46831,2.70973 -13.36438,8.37282 -25.95007,17.8843 -38.19249,27.75819 -8.24894,6.76958 -16.4202,13.79929 -22.96217,22.23354 -3.41152,4.54387 -6.61042,9.46073 -7.89984,15.03468 -0.94341,4.19366 -0.74292,8.72645 1.16494,12.64215 2.11662,4.56598 5.75125,8.49489 10.35418,10.7274 5.02846,2.65988 10.71739,3.88139 16.38577,4.20357 0.44844,0.0158 1.13292,0.066 1.6409,0.0758 2.68096,0.0997 5.3647,0.0405 8.04473,-0.0573 1.09979,-0.0586 2.48894,-0.1109 3.70015,-0.19238 4.06897,-0.23816 8.19289,-0.54198 12.1654,-0.96678 15.42623,-1.63537 30.77599,-4.51654 45.99651,-7.72202 18.80268,-4.09987 37.87027,-7.12073 57.21912,-6.78948 12.88464,0.22058 27.63844,0.91192 40.81692,3.41295 14.44693,2.74177 24.42444,5.04055 36.58467,9.92324 6.66893,2.67778 11.18926,5.53447 17.17784,9.5133 2.64318,1.75613 6.66821,6.31422 7.60786,9.44175 1.28376,4.27286 1.8737,6.4603 1.54499,10.84862 -0.61471,8.2066 -2.09638,16.32784 -3.74289,24.38968 -4.24632,19.87273 -11.48921,39.06864 -20.78772,57.18044 -7.96199,15.40081 -17.42744,30.11884 -28.83596,43.28898 -7.33647,8.37705 -15.3978,16.28202 -24.78772,22.42699 -5.42337,3.54917 -11.41641,6.70593 -17.96326,7.45838 -5.55042,0.63793 -16.55163,-1.435 -21.74432,-2.33611 -8.17786,-1.41914 -21.65355,-5.58709 -29.54696,-2.75957 -6.20129,2.22141 -6.16101,15.68929 -6.16101,20.9681 0,7.66088 2.15798,11.9426 5.63011,18.16986 3.39127,6.08225 8.37169,11.17367 13.81915,15.51075 7.50092,5.97196 16.9797,9.07387 26.47735,10.23288 1.07147,0.13075 2.51376,0.28147 3.74585,0.37924 1.11176,0.0883 2.43707,0.15922 3.41903,0.198 3.34566,0.13214 6.78697,0.0737 10.03488,-0.10132 3.79247,-0.20437 7.74722,-0.57953 11.39906,-1.09795 16.37541,-2.32467 32.34435,-7.67951 46.58752,-15.98282 0.69881,-0.41504 1.68028,-0.99135 2.47363,-1.49293 12.99404,-8.04835 23.95626,-18.87108 33.65944,-30.48378 10.461,-12.59735 19.49679,-26.27957 27.67871,-40.3945 8.66221,-15.01274 16.33446,-30.75247 22.82096,-46.85339 3.23817,-8.03586 6.24393,-16.32658 8.88226,-24.63543 0.8341,-2.60133 1.66127,-5.37428 2.42836,-7.98195 1.98558,-6.90344 3.7629,-13.86684 5.23212,-20.8946 0.2864,-1.41922 0.60515,-3.0835 0.85576,-4.60684 0.70536,-4.179 1.20259,-8.28035 1.4948,-12.5377 0.10391,-1.52352 0.17841,-2.97231 0.21988,-4.43068 0.20101,-6.54859 -0.16416,-13.11755 -1.17269,-19.59535 -0.13316,-0.78742 -0.31065,-1.89672 -0.48617,-2.80295 -2.63896,-14.34451 -8.82848,-28.12025 -18.32521,-39.36197 -9.37241,-11.21785 -21.78758,-19.63401 -35.00811,-25.91332 -5.00576,-2.37551 -10.29639,-4.48383 -15.45527,-6.2622 -3.90462,-1.33911 -7.87963,-2.54898 -11.80293,-3.60588 -3.91599,-1.05519 -7.78261,-1.97547 -11.71643,-2.80303 -5.12956,-1.08252 -10.26565,-1.97747 -15.48759,-2.74922 -4.59527,-0.67171 -9.39136,-1.2563 -14.02062,-1.72096 -13.17115,-1.31473 -26.41403,-1.86014 -39.70166,-1.90989 -15.85074,-0.0287 -31.73779,-0.3868 -47.49135,-2.22724 -3.76863,-0.42838 -7.50618,-1.06981 -11.234,-1.7543 1.39684,-3.75024 2.82323,-7.66901 2.4261,-11.73125 -0.32552,-4.96388 -0.2325,-15.92934 -4.83543,-18.05817 -4.94851,-0.32185 -8.35424,1.76155 -12.89457,3.16728 z"
       sodipodi:nodetypes="sssccccccsscccccccccccccsscccccccccscccccsssccsscssccccccccsssssssssccccccccccccccccccccccccccssccccccccccccsssssscccsssssssssssscccccccccccccccccccccccccc" />
  </g>
</svg>
