<?xml version="1.0" encoding="UTF-8" standalone="no"?>
<!-- Created with Inkscape (http://www.inkscape.org/) -->

<svg
   width="1000"
   height="1000"
   viewBox="0 0 1000 1000"
   version="1.1"
   id="svg756"
   inkscape:version="1.1 (c68e22c387, 2021-05-23)"
   sodipodi:docname="u4ed8.svg"
   xmlns:inkscape="http://www.inkscape.org/namespaces/inkscape"
   xmlns:sodipodi="http://sodipodi.sourceforge.net/DTD/sodipodi-0.dtd"
   xmlns="http://www.w3.org/2000/svg"
   xmlns:svg="http://www.w3.org/2000/svg"
   xmlns:rdf="http://www.w3.org/1999/02/22-rdf-syntax-ns#"
   xmlns:cc="http://creativecommons.org/ns#"
   xmlns:dc="http://purl.org/dc/elements/1.1/">
  <defs
     id="defs750" />
  <sodipodi:namedview
     id="base"
     pagecolor="#ffffff"
     bordercolor="#666666"
     borderopacity="1.0"
     inkscape:pageopacity="0.0"
     inkscape:pageshadow="2"
     inkscape:zoom="0.5"
     inkscape:cx="891"
     inkscape:cy="684"
     inkscape:document-units="px"
     inkscape:current-layer="layer1"
     showgrid="true"
     units="px"
     inkscape:window-width="1118"
     inkscape:window-height="864"
     inkscape:window-x="678"
     inkscape:window-y="136"
     inkscape:window-maximized="0"
     showguides="true"
     inkscape:guide-bbox="true"
     inkscape:pagecheckerboard="0">
    <inkscape:grid
       type="xygrid"
       id="grid758" />
    <sodipodi:guide
       position="240,200"
       orientation="0,1"
       id="guide8"
       inkscape:locked="false" />
  </sodipodi:namedview>
  <metadata
     id="metadata753">
    <rdf:RDF>
      <cc:Work
         rdf:about="">
        <dc:format>image/svg+xml</dc:format>
        <dc:type
           rdf:resource="http://purl.org/dc/dcmitype/StillImage" />
        <dc:title />
      </cc:Work>
    </rdf:RDF>
  </metadata>
  <g
     inkscape:label="Layer 1"
     inkscape:groupmode="layer"
     id="layer1"
     transform="translate(0,-32.41664)"
     style="display:inline">
    <path
       style="fill:#000000;stroke-width:8.31204"
       d="M 520,852.41664 C 510.89618,843.31282 502.63314,819.27508 497.08321,780.68026 487.74294,715.72696 455,607.41664 446.03219,579.87655 435.87081,577.194 413.0693,568.41932 376.64741,564.18681 c -58.3461,-6.78025 -79.36825,-20.08375 -80.94797,-51.22648 -0.95953,-18.91603 27.07314,-26.94447 81.19919,-23.2551 19.57889,1.33455 47.36767,7.56898 52.80914,7.56898 -1.30304,-13.15554 -7.33354,-78.2314 -8.59449,-143.14125 -1.74924,-90.04638 -4.46504,-104.0604 -4.46504,-111.98117 -32.64884,6.22346 -79.34263,25.27137 -119.62493,47.07914 -40.2823,21.80775 -82.79788,44.57551 -92.59254,51.36475 -1.08829,18.10462 -4.07587,26.78866 -12.8495,325.93764 C 186.11753,852.82697 180,837.41664 143.97253,829.64034 c -33.9502,-7.32793 -30.55304,-35.81806 -29.71691,-143.03053 1.02793,-131.80605 17.25941,-397.53877 19.436,-416.77493 -4.35318,6.78923 -6.52977,10.18385 -23.77856,40.33062 C 86.304617,351.42739 79.857116,354.09037 55.798218,329.20053 30.811593,303.3509 33.517735,249.56322 63.888334,168.40016 100.15464,71.481297 122.67864,41.7326 159.79374,41.7326 c 9.96446,0 27.00679,-0.217952 29.89336,2.263078 6.03732,5.189108 -0.57491,29.257813 -5.03731,43.156641 -6.33809,19.740951 -11.77956,33.319421 -17.22103,45.766351 8.70635,1.13154 20.59155,2.96263 27.34001,5.61879 12.23798,4.8168 17.26367,15.22599 15.55289,54.08559 -1.20733,27.42412 -1.53771,47.79182 -1.53771,54.58105 4.10527,-1.18299 44.06692,-21.12588 72.80376,-33.792 28.73685,-12.66611 70.94211,-29.47291 93.78946,-37.34843 20.50457,-7.06795 33.653,-10.33037 43.44765,-12.59345 0.62017,-11.11935 0.74347,-25.08215 5.44858,-47.84847 11.81848,-57.185387 39.58427,-85.226146 76.3519,-81.281598 14.7006,1.577128 33.29657,9.810075 37.98641,19.170245 6.82145,13.614554 0.0926,20.422085 -20.03832,40.01019 -13.34211,12.982313 -18.47964,50.578293 -18.47964,57.502703 15.23612,-1.13154 23.94248,-2.26308 36.32623,-3.44434 5.70336,-0.54403 52.77029,-8.19677 111.9114,-7.91868 111.66069,0.52502 134.59966,12.96391 134.59966,41.32524 0,27.93726 -13.88535,40.32829 -54.51582,31.09208 -43.72876,-9.94051 -166.28868,-2.74043 -231.58636,10.83804 -0.42766,15.91122 2.17659,81.99696 6.3893,178.62161 3.07701,70.57541 8.13612,104.82122 12.43543,126.85812 17.089,9.61425 30.14853,31.11349 31.76392,34.23488 6.11805,11.82187 -1.61539,30.82478 -17.93981,30.82478 4.1523,14.78247 19.58466,53.85638 35.56789,110.01329 C 594.07301,805.45584 595,852.41664 564.73819,856.51671 537.94988,860.14617 525,857.41664 520,852.41664 Z"
       id="path39"
       sodipodi:nodetypes="sscssscscscssscsssssscsscsscsssscsssscscscsss" />
  </g>
</svg>
