<?xml version="1.0" encoding="UTF-8" standalone="no"?>
<!-- Created with Inkscape (http://www.inkscape.org/) -->

<svg
   width="1000"
   height="1000"
   viewBox="0 0 1000 1000"
   version="1.1"
   id="svg756"
   inkscape:version="1.1 (c68e22c387, 2021-05-23)"
   sodipodi:docname="u4ed6.svg"
   xmlns:inkscape="http://www.inkscape.org/namespaces/inkscape"
   xmlns:sodipodi="http://sodipodi.sourceforge.net/DTD/sodipodi-0.dtd"
   xmlns="http://www.w3.org/2000/svg"
   xmlns:svg="http://www.w3.org/2000/svg"
   xmlns:rdf="http://www.w3.org/1999/02/22-rdf-syntax-ns#"
   xmlns:cc="http://creativecommons.org/ns#"
   xmlns:dc="http://purl.org/dc/elements/1.1/">
  <defs
     id="defs750" />
  <sodipodi:namedview
     id="base"
     pagecolor="#ffffff"
     bordercolor="#666666"
     borderopacity="1.0"
     inkscape:pageopacity="0.0"
     inkscape:pageshadow="2"
     inkscape:zoom="0.5"
     inkscape:cx="907"
     inkscape:cy="658"
     inkscape:document-units="px"
     inkscape:current-layer="layer1"
     showgrid="true"
     units="px"
     inkscape:window-width="1118"
     inkscape:window-height="864"
     inkscape:window-x="463"
     inkscape:window-y="62"
     inkscape:window-maximized="0"
     showguides="true"
     inkscape:guide-bbox="true"
     inkscape:pagecheckerboard="0">
    <inkscape:grid
       type="xygrid"
       id="grid758" />
    <sodipodi:guide
       position="240,200"
       orientation="0,1"
       id="guide8"
       inkscape:locked="false" />
  </sodipodi:namedview>
  <metadata
     id="metadata753">
    <rdf:RDF>
      <cc:Work
         rdf:about="">
        <dc:format>image/svg+xml</dc:format>
        <dc:type
           rdf:resource="http://purl.org/dc/dcmitype/StillImage" />
        <dc:title />
      </cc:Work>
    </rdf:RDF>
  </metadata>
  <g
     inkscape:label="Layer 1"
     inkscape:groupmode="layer"
     id="layer1"
     transform="translate(0,-32.41664)"
     style="display:inline">
    <path
       style="fill:#000000;stroke-width:5.71952"
       d="m 479.37055,835.18245 c -50.35281,0.39335 -96.97027,-13.79042 -121.90894,-28.65303 -44.0621,-26.25963 -82.55029,-81.0319 -95.16892,-160.60749 -6.73432,-42.46801 -4.29271,-74.96706 4.65828,-202.71288 2.22158,-31.70573 5.15402,-46.79192 6.16322,-62.9391 -2.87491,1.07981 -17.53396,6.58725 -23.66966,7.25045 -7.61551,0.82314 -1.57634,-33.86792 -0.17717,-38.33337 1.64445,-5.24825 14.76404,-36.47823 26.87443,-44.55182 1.71413,-37.69127 4.51025,-73.54937 4.12243,-121.04216 -0.0684,-8.38149 -2.10403,-10.20891 -0.27711,-19.14378 -6.87292,8.93487 -10.72272,16.98168 -17.8412,28.1718 -31.41808,49.38861 -46.55606,64.52659 -79.94444,126.35865 -17.18083,31.81724 -40.55115,75.88954 -53.71669,97.0045 -13.16554,21.11497 -29.430317,47.23554 -36.143943,58.04572 -10.462621,16.84678 -25.768048,14.75166 -34.473617,9.55374 -13.203172,-7.88335 -32.018891,-41.66569 4.87396,-100.66547 15.730789,-25.15702 42.7919,-73.99733 60.13578,-108.53404 16.39531,-32.64783 48.82209,-83.0536 81.23594,-129.19876 45.11092,-64.221006 75.93067,-109.974004 92.0085,-108.553313 8.8786,0.784543 35.50165,58.154328 24.85127,75.487033 -8.49971,13.83265 -14.97449,24.29715 -17.58251,28.97064 9.0828,1.5138 52.94126,-0.67551 52.68361,24.03427 -0.58273,55.88701 -2.57785,63.62743 -3.67677,112.72058 32.54091,-13.14614 26.03405,-10.09264 59.98666,-18.62337 1.0092,-12.11039 2.88911,-15.75737 7.31287,-44.05137 4.79752,-30.68455 9.84993,-54.4115 14.13989,-71.09013 4.28996,-16.67862 8.10186,-40.06405 8.47089,-51.967636 0.88105,-28.419838 54.66938,-36.732848 62.98739,-8.631836 4.61004,15.574232 4.4764,34.776692 -0.43351,62.293132 -10.466,58.65417 -15.85199,93.28226 -16.86119,100.34665 46.71225,-4.81793 82.71483,-1.73129 119.26114,21.93483 35.61732,23.06454 68.76427,63.7623 78.71397,127.66768 7.76138,49.85015 1.77271,89.43049 -10.29635,117.17685 -15.33294,35.2499 -45.0893,54.26836 -72.72306,63.28285 -16.63893,5.42789 -38.26494,-1.87754 -50.00275,-6.37199 -26.0068,-9.9581 -7.3038,-43.78065 12.18716,-42.94317 13.77229,0.5918 31.04022,-14.4131 34.85181,-23.47749 10.36201,-24.64202 17.25915,-39.35615 18.82781,-65.75599 1.65979,-27.9335 -2.24765,-55.11434 -18.99567,-80.28141 -40.43654,-60.76355 -69.60052,-49.64237 -121.91605,-38.62502 -1.24974,9.74549 -3.84556,42.30779 -5.97064,58.55683 -2.12507,16.24905 -1.62941,51.61508 -1.91609,89.45009 -0.28669,37.835 -0.70098,70.3604 -2.02193,72.1686 -1.32097,1.80813 -52.9102,10.4478 -57.99325,9.35403 -16.48152,-3.54657 -22.1067,-73.5793 -10.65366,-178.92654 2.59944,-23.91012 2.97574,-30.35775 3.94843,-36.49262 -7.02789,1.08888 -34.99992,11.04857 -52.55194,18.18398 -1.0092,10.09199 -1.99635,6.33944 -8.88511,112.53797 -8.40807,129.62046 -9.29054,163.2979 5.8941,209.40867 16.63433,50.51299 36.63371,58.6823 63.41762,70.15484 26.78392,11.47253 54.35237,24.24828 138.56644,15.3118 38.98801,-4.13726 58.77592,-13.91066 90.92605,-31.42325 12.27557,-6.68665 30.56218,-21.66533 33.56174,-26.63827 2.84546,-4.7175 1.63697,-9.24869 -1.96366,-28.26692 -9.04884,-47.79525 4.66587,-45.19536 11.76724,-46.301 6.36578,-0.99111 25.41501,3.00034 33.88438,34.28221 10.89261,40.23221 20.4212,59.43717 19.80342,71.81322 -0.61778,12.37606 -23.49232,32.05198 -37.03799,44.96851 -13.35696,12.73659 -54.53629,36.65675 -84.56005,44.06986 -46.4968,11.48043 -91.73426,13.89155 -136.75256,14.24324 z M 168.81184,779.09379 c -1.63994,-10.53304 -1.86686,-52.82561 -0.50427,-93.9835 3.47511,-104.96782 4.00035,-182.69422 1.6196,-239.66926 -3.82133,-91.45063 -3.11537,-105.28425 5.7656,-112.9801 4.7745,-4.13739 49.30723,-15.04429 58.33975,-5.11831 3.76407,4.1364 10.13567,135.71569 9.49968,223.83795 -0.28753,39.84023 -0.47233,96.80748 -0.41064,126.59394 0.0617,29.78646 -1.06636,55.77034 -2.50679,57.74201 -1.44043,1.97168 0.52587,6.36331 4.36955,9.75913 10.96708,9.68933 -28.94596,48.90299 -43.47075,51.16441 -9.407,1.46461 -30.28191,-1.80409 -32.70173,-17.34627 z"
       id="path39"
       sodipodi:nodetypes="sssscsscscsssssssssscsccssssscssssssssscsssssccssssssssssssssssssssssss" />
  </g>
</svg>
