<?xml version="1.0" encoding="UTF-8" standalone="no"?>
<!-- Created with Inkscape (http://www.inkscape.org/) -->

<svg
   width="1000"
   height="1000"
   viewBox="0 0 1000 1000"
   version="1.1"
   id="svg756"
   inkscape:version="1.1 (c68e22c387, 2021-05-23)"
   sodipodi:docname="u4f11.svg"
   xmlns:inkscape="http://www.inkscape.org/namespaces/inkscape"
   xmlns:sodipodi="http://sodipodi.sourceforge.net/DTD/sodipodi-0.dtd"
   xmlns="http://www.w3.org/2000/svg"
   xmlns:svg="http://www.w3.org/2000/svg"
   xmlns:rdf="http://www.w3.org/1999/02/22-rdf-syntax-ns#"
   xmlns:cc="http://creativecommons.org/ns#"
   xmlns:dc="http://purl.org/dc/elements/1.1/">
  <defs
     id="defs750" />
  <sodipodi:namedview
     id="base"
     pagecolor="#ffffff"
     bordercolor="#666666"
     borderopacity="1.0"
     inkscape:pageopacity="0.0"
     inkscape:pageshadow="2"
     inkscape:zoom="0.5"
     inkscape:cx="742.51863"
     inkscape:cy="656.05723"
     inkscape:document-units="px"
     inkscape:current-layer="layer1"
     showgrid="true"
     units="px"
     inkscape:window-width="1118"
     inkscape:window-height="864"
     inkscape:window-x="476"
     inkscape:window-y="85"
     inkscape:window-maximized="0"
     showguides="true"
     inkscape:guide-bbox="true"
     inkscape:pagecheckerboard="0"
     inkscape:rotation="-1">
    <inkscape:grid
       type="xygrid"
       id="grid758" />
    <sodipodi:guide
       position="240,200"
       orientation="0,1"
       id="guide8"
       inkscape:locked="false" />
  </sodipodi:namedview>
  <metadata
     id="metadata753">
    <rdf:RDF>
      <cc:Work
         rdf:about="">
        <dc:format>image/svg+xml</dc:format>
        <dc:type
           rdf:resource="http://purl.org/dc/dcmitype/StillImage" />
        <dc:title />
      </cc:Work>
    </rdf:RDF>
  </metadata>
  <g
     inkscape:label="Layer 1"
     inkscape:groupmode="layer"
     id="layer1"
     transform="translate(0,-32.41664)"
     style="display:inline">
    <path
       style="fill:#000000;stroke-width:4.70333"
       d="m 509.21221,832.41664 c -8.09081,-6.96143 -11.00914,-16.45583 -16.81746,-54.71355 -7.05062,-46.44048 -6.5805,-54.67846 5.79677,-104.88395 3.27614,-13.2888 5.31737,-26.25833 5.31737,-30.78374 -6.58406,-2.15541 -40.26435,-13.19482 -76.09417,-17.13814 -19.0827,-2.10018 -42.24566,-5.86292 -52.98452,-5.48892 -17.9276,11.31354 -28.68416,18.66732 -50.72039,31.95755 -17.13318,10.33317 -30.37326,18.00336 -34.31132,20.50075 -3.23178,2.04954 -12.28584,7.02205 -19.61509,11.20261 -7.08651,4.04212 -20.56753,10.45962 -30.29421,13.42551 -16.8591,5.14067 -18.03412,4.71438 -25.16497,-9.12978 -8.9648,-17.40467 -13.97812,-30.41106 5.39926,-53.93359 20.91409,-25.38795 47.14114,-49.09499 78.08157,-57.8751 14.23638,-4.03994 32.40375,-8.19018 49.13617,-10.45289 17.92759,-22.62706 53.02066,-69.1827 74.8246,-108.08254 4.81632,-8.59269 13.09124,-13.83737 27.62889,-17.51128 19.6628,-4.96916 18.40799,-3.76347 31.17952,6.27785 12.17811,9.57473 25.4344,24.58172 27.71536,24.28232 0,-11.31353 0.17814,-18.10165 -0.029,-27.82947 -0.0693,-3.25471 -0.0414,-13.00544 -0.0807,-18.80703 -0.0708,-10.43702 -0.35103,-30.27663 -1.58647,-52.91499 -0.67764,-12.41709 -0.69427,-27.16005 -1.88944,-36.21088 -17.9276,5.65677 -84.85577,35.18434 -106.12067,49.99837 -38.28753,26.67278 -95.13983,-4.26259 -68.80194,-31.80347 12.74745,-13.32967 52.56878,-40.92229 69.08742,-47.87136 7.22531,-3.03957 27.64684,-12.99579 45.38118,-22.12498 17.73431,-9.12919 28.18433,-13.81703 31.76985,-14.94838 4.00506,-1.26373 14.34208,-6.78811 20.31793,-9.05082 0,-6.78812 -2.42225,-49.1824 -10.08633,-107.44963 -11.32407,-86.0935 -12.18891,-100.643736 -6.33332,-106.54982 5.37961,-5.425957 18.83063,-5.039974 31.22742,-3.003343 l 29.92644,6.786526 9.83663,47.344517 c 4.09554,28.52845 7.63433,54.56639 7.8641,57.86209 1.55129,17.47904 3.13672,35.59871 4.31196,50.22878 1.40423,17.51667 1.37801,17.44623 2.57318,25.36569 15.53725,-7.91946 17.37907,-9.08564 35.66899,-18.50001 26.54954,-13.66371 53.37264,-31.44518 56.2769,-40.62282 0.69186,-2.18635 -7.85289,-11.0474 -19.38185,-19.81881 -26.65957,-20.28306 -30.89759,-36.86828 -10.11794,-39.59585 16.3161,-2.14169 56.44337,8.88314 66.01511,16.25989 10.05573,7.74974 22.33828,16.36611 27.17916,22.92167 11.65948,15.78935 4.06981,44.83432 -0.0141,54.56466 -2.83569,6.75624 -14.18567,22.01487 -21.88901,29.08735 -13.66239,12.54352 -31.22254,25.84007 -49.81985,32.77305 -9.81663,3.65959 -18.9161,10.11634 -26.44642,13.86461 -7.07875,3.52349 -13.31582,6.93391 -25.14307,12.63549 -12.67044,6.10805 -12.00998,6.57467 -23.96171,12.23143 1.19517,18.10165 1.01021,25.63135 1.74195,45.47751 1.00236,27.18571 2.00226,66.50294 2.45642,69.98336 0.58232,4.46255 0.68346,27.57384 1.67908,52.52101 1.57737,39.52434 2.18997,49.07221 0.71012,80.70118 -0.305,6.51884 -0.2088,52.16253 -0.6117,55.6509 4.78069,2.26271 11.66699,4.97051 18.93388,7.06532 30.08215,8.67169 30.21399,11.53655 37.52728,13.39803 9.20172,2.34213 21.95505,4.17631 31.77951,6.22945 14.2487,2.97773 44.33045,8.27485 47.22374,14.07695 1.35814,2.72362 -1.973,7.81871 -7.40254,11.32234 -13.43867,8.67195 -53.92108,26.66865 -82.85321,16.04222 -11.83314,-4.34622 -43.09716,-16.12576 -47.59901,-17.22343 -1.19517,5.65677 -3.4871,13.2818 -5.79375,29.22193 -2.30672,15.94018 -5.79753,29.2106 -6.93085,36.01106 -1.13334,6.80046 1.3466,30.42107 5.51094,52.49022 6.49888,34.44115 6.5236,41.80534 0.17452,51.98129 -9.12052,14.6179 -48.74905,13.42422 -61.35822,2.57509 z m -0.92262,-241.29212 c 0,-7.91947 0.52589,-26.20627 0.66319,-41.99396 0.13735,-15.78767 0.37521,-37.29788 0.52854,-47.80042 l 0.27883,-19.09548 -20.33879,16.53919 c -11.18629,9.0966 -31.76153,28.5784 -45.72269,43.29297 l -27.43742,29.82469 27.53054,3.97855 c 44.36506,6.41134 51.35089,10.72905 64.4978,15.25446 z M 115.63102,870.03318 c -7.83645,-14.26715 -37.760737,-62.63789 -33.070937,-90.29522 8.937434,-52.70708 6.3953,-151.40361 -6.581652,-255.52888 -11.048484,-88.65141 -11.681765,-92.8202 -27.379342,-180.23493 -7.46866,-41.59052 -12.47032,-79.57432 -11.114842,-84.40843 1.355492,-4.83411 7.23006,-9.41483 13.054594,-10.17937 16.331956,-2.14377 71.471989,-55.06832 88.455979,-72.50506 15.66925,-16.08697 31.9328,-32.40009 44.53425,-46.56663 49.72158,-55.896998 66.29996,-65.425247 94.24653,-79.627389 14.76629,-7.504061 63.74933,-13.781094 65.02823,-13.948962 1.27887,-0.167869 6.41035,4.448107 11.40327,10.257719 8.32612,9.688024 8.60712,11.634395 3.39254,23.49885 -3.12703,7.114762 -10.78621,18.684373 -16.3907,26.013968 -6.21946,8.133884 -19.91791,22.222164 -33.89216,36.137964 -13.54482,13.48814 -30.4446,26.81157 -36.7527,31.78105 -15.9489,12.56445 -34.08691,22.96693 -48.14633,33.72808 -11.66416,8.92782 -24.87318,19.62209 -31.23803,25.15896 -11.08536,9.64333 -15.32971,14.48438 -43.55551,36.19106 -9.40022,7.22912 -18.42447,17.12133 -20.05389,21.98271 -4.51277,13.46389 -0.52076,61.11045 14.53145,173.43977 16.4502,122.76191 24.37407,231.61756 21.93535,301.34039 -0.5036,14.39782 1.05894,38.82946 3.47231,54.29258 3.86315,24.75212 2.95689,30.56754 -7.57731,48.62311 -14.02996,24.04725 -35.08078,27.63521 -44.3011,10.84866 z"
       id="path57"
       sodipodi:nodetypes="ssscscssssssscssscssscssssscsssccccccsssssssssscsssscsssssscsssssscsscsscscssssssssssssssssssssssss" />
  </g>
</svg>
