<?xml version="1.0" encoding="UTF-8" standalone="no"?>
<!-- Created with Inkscape (http://www.inkscape.org/) -->

<svg
   width="1000"
   height="1000"
   viewBox="0 0 1000 1000"
   version="1.1"
   id="svg756"
   inkscape:version="1.1 (c68e22c387, 2021-05-23)"
   sodipodi:docname="u4f5c.svg"
   xmlns:inkscape="http://www.inkscape.org/namespaces/inkscape"
   xmlns:sodipodi="http://sodipodi.sourceforge.net/DTD/sodipodi-0.dtd"
   xmlns="http://www.w3.org/2000/svg"
   xmlns:svg="http://www.w3.org/2000/svg"
   xmlns:rdf="http://www.w3.org/1999/02/22-rdf-syntax-ns#"
   xmlns:cc="http://creativecommons.org/ns#"
   xmlns:dc="http://purl.org/dc/elements/1.1/">
  <defs
     id="defs750" />
  <sodipodi:namedview
     id="base"
     pagecolor="#ffffff"
     bordercolor="#666666"
     borderopacity="1.0"
     inkscape:pageopacity="0.0"
     inkscape:pageshadow="2"
     inkscape:zoom="0.5"
     inkscape:cx="875"
     inkscape:cy="654"
     inkscape:document-units="px"
     inkscape:current-layer="layer1"
     showgrid="true"
     units="px"
     inkscape:window-width="1118"
     inkscape:window-height="864"
     inkscape:window-x="662"
     inkscape:window-y="144"
     inkscape:window-maximized="0"
     showguides="true"
     inkscape:guide-bbox="true"
     inkscape:pagecheckerboard="0">
    <inkscape:grid
       type="xygrid"
       id="grid758" />
    <sodipodi:guide
       position="240,200"
       orientation="0,1"
       id="guide8"
       inkscape:locked="false" />
  </sodipodi:namedview>
  <metadata
     id="metadata753">
    <rdf:RDF>
      <cc:Work
         rdf:about="">
        <dc:format>image/svg+xml</dc:format>
        <dc:type
           rdf:resource="http://purl.org/dc/dcmitype/StillImage" />
        <dc:title />
      </cc:Work>
    </rdf:RDF>
  </metadata>
  <g
     inkscape:label="Layer 1"
     inkscape:groupmode="layer"
     id="layer1"
     transform="translate(0,-32.41664)"
     style="display:inline">
    <path
       style="fill:#000000;stroke-width:9.46954"
       d="m 389.33558,912.41664 c -8.18209,-11.81619 -9.16427,-75.63405 -4.25,-276.14468 C 391.34312,380.95395 376.67449,373.1719 399.27802,321.3133 413.1298,289.53361 440,272.41664 452.01596,268.10537 c 37.54301,-13.47024 46.06037,-15.18091 23.69026,-30.11223 -11.89338,-7.93844 -30.27804,-14.59885 -40.85481,-14.8009 -25.49975,-0.48712 -80.8623,49.45684 -95.4102,72.84064 -40.56483,65.20245 -101.27761,66.8533 -101.27761,15.95478 0,-17.183 1.8364,-29.57102 6.646,-45.24349 3.22236,-10.50034 13.22909,-33.6646 17.89865,-47.91929 17.05575,-52.06587 60.58012,-129.588128 71.92532,-129.588128 14.79084,0 61.28412,19.174788 43.10153,66.737138 -7.26126,18.99416 -32.15612,42.49195 -33.7351,50.44275 10,-5 23.3693,-15.6072 42.39341,-30.69631 55.53493,-44.04789 126.56248,-18.40183 190.06328,40.11995 19.73618,18.18868 19.97018,55.93669 6.0722,81.35894 -8.76978,16.04172 -29.93887,27.02333 -47.65324,31.00636 -17.80393,4.00318 -43.24765,14.28325 -58.95021,35.71826 -27.94699,38.14937 -16.1699,64.78117 -22.41801,323.25758 -2.33413,96.55975 -1.31952,104.31368 13.05972,99.80686 14.15444,-4.43636 15.0791,0.72135 10.03885,55.99599 -6.86297,75.26404 -63.00859,104.47018 -87.27042,69.43237 z M 222.19012,825.53986 C 216.63967,817.52417 210.35568,790.69941 208.22566,765.92931 196.43925,628.86293 190.5625,601.02318 181.39342,534.28584 175.50981,491.46188 157.3884,437.81173 149.67841,403.13843 c -11.99449,28.7776 -28.3067,41.9955 -29.92081,73.48576 -1.40353,27.38208 -43.92691,52.60982 -59.15685,45.60521 C 38.506327,512.06767 33.734594,469.04586 52.468531,433.30735 76,388.41664 85.81784,360.13733 98.62523,327.48971 109.69591,299.26919 142.04297,227.55899 160.63326,170.5402 193.00758,71.24404 248.56217,36.217967 273.70071,36.217967 c 6.44135,0 11.71152,8.343933 11.71152,18.542073 0,20.430336 -25.41223,87.6566 -43.54258,125.59011 -16.49821,34.51861 -35.06238,91.16888 -47.86965,124.06649 10.07982,8.08914 34.06092,106.92893 48.92507,182.81417 10.02082,51.15886 18.05147,110.12431 23.26244,153.21898 6.06305,50.14134 11.10966,101.6737 16.21529,114.50293 6.92636,17.40427 6.345,29.90541 -2.29002,49.24349 -13.2484,29.66975 -43.7316,41.83771 -57.92266,21.34365 z M 520.07161,599.12734 c -3.17156,-3.80124 -9.76648,-32.39574 -9.76648,-51.3211 0,-29.09077 -11.76056,-53.85153 16.76133,-80.9692 35.32911,-33.58975 79.23608,-56.0043 111.69346,-87.03073 27.20601,-26.00657 90.86581,-2.36688 86.19856,26.67984 -2.82961,17.6102 -66.70065,67.52851 -103.14712,80.61446 -31.09892,11.16593 -101.18333,47.19267 -95.80625,57.62031 6.92513,13.42979 104.89138,-11.22686 136.80772,-33.79664 34.9626,-24.72403 79.53908,-40.21108 85.03916,-29.54488 9.05943,17.56878 -12.33881,76.35244 -69.27533,102.82057 -56.93653,26.46813 -145.41134,30.62072 -158.50505,14.92737 z"
       id="path77"
       sodipodi:nodetypes="sssssssssssscsssssssssssscsssssssscssssssssssssssss" />
  </g>
</svg>
