<?xml version="1.0" encoding="UTF-8" standalone="no"?>
<!-- Created with Inkscape (http://www.inkscape.org/) -->

<svg
   width="1000"
   height="1000"
   viewBox="0 0 1000 1000"
   version="1.1"
   id="svg756"
   inkscape:version="1.1 (c68e22c387, 2021-05-23)"
   sodipodi:docname="u4f55.svg"
   xmlns:inkscape="http://www.inkscape.org/namespaces/inkscape"
   xmlns:sodipodi="http://sodipodi.sourceforge.net/DTD/sodipodi-0.dtd"
   xmlns="http://www.w3.org/2000/svg"
   xmlns:svg="http://www.w3.org/2000/svg"
   xmlns:rdf="http://www.w3.org/1999/02/22-rdf-syntax-ns#"
   xmlns:cc="http://creativecommons.org/ns#"
   xmlns:dc="http://purl.org/dc/elements/1.1/">
  <defs
     id="defs750" />
  <sodipodi:namedview
     id="base"
     pagecolor="#ffffff"
     bordercolor="#666666"
     borderopacity="1.0"
     inkscape:pageopacity="0.0"
     inkscape:pageshadow="2"
     inkscape:zoom="0.5"
     inkscape:cx="879.73275"
     inkscape:cy="649.00793"
     inkscape:document-units="px"
     inkscape:current-layer="layer1"
     showgrid="true"
     units="px"
     inkscape:window-width="1118"
     inkscape:window-height="864"
     inkscape:window-x="375"
     inkscape:window-y="92"
     inkscape:window-maximized="0"
     showguides="true"
     inkscape:guide-bbox="true"
     inkscape:pagecheckerboard="0"
     inkscape:lockguides="false">
    <inkscape:grid
       type="xygrid"
       id="grid758" />
    <sodipodi:guide
       position="240,200"
       orientation="0,1"
       id="guide8"
       inkscape:locked="false" />
  </sodipodi:namedview>
  <metadata
     id="metadata753">
    <rdf:RDF>
      <cc:Work
         rdf:about="">
        <dc:format>image/svg+xml</dc:format>
        <dc:type
           rdf:resource="http://purl.org/dc/dcmitype/StillImage" />
        <dc:title />
      </cc:Work>
    </rdf:RDF>
  </metadata>
  <g
     inkscape:label="Layer 1"
     inkscape:groupmode="layer"
     id="layer1"
     transform="translate(0,-32.41664)"
     style="display:inline">
    <path
       style="fill:#000000;stroke-width:5.67436"
       d="m 156.03557,860.71224 c -10.84195,-17.6126 -11.15972,-31.30971 -1.39415,-60.09343 17.3623,-51.17491 23.97591,-86.03557 26.31571,-186.72483 1.2917,-55.58598 -1.01801,-81.7084 -4.691,-109.80394 -3.67299,-28.09554 -4.52737,-39.5249 -17.05262,-69.86681 -5.31664,-12.87933 -22.18307,-36.76476 -24.07275,-42.47249 -10.45475,10.35515 -11.29819,11.87597 -23.49494,16.32283 -31.915221,11.63609 -66.415885,-22.53593 -71.329661,-51.80599 -2.635967,-15.70177 9.155279,-43.13531 21.569991,-53.52967 14.303863,-11.97609 40.8629,-14.85721 61.75438,-5.21911 12.90969,-12.70822 32.40972,-38.31408 60.86389,-84.89069 18.59219,-30.05155 38.02691,-61.30873 55.04819,-89.75623 6.40846,-10.71039 13.14734,-27.943467 19.5607,-40.608996 12.05077,-23.798663 25.54773,-50.131741 36.25102,-50.131741 7.9178,0 40.56206,21.420499 40.56206,40.463509 0,13.652308 -26.19137,72.703338 -37.92682,94.694628 -14.41965,27.02128 -40.39473,67.44349 -53.57452,86.48516 -21.78275,31.47086 -39.23749,62.38365 -57.26187,84.91588 7.56963,13.71082 17.58513,30.5182 25.7231,45.47167 14.2388,26.16372 23.23698,57.83557 28.66441,88.67189 6.59449,37.46707 9.63775,74.24421 10.36427,117.37065 0.72953,43.30474 -2.81747,96.66819 -10.60861,182.48814 -2.13116,23.47499 -11.74963,57.42195 -18.78908,77.5461 -1.89993,5.43146 -45.00845,18.69003 -50.35787,18.69003 -1.68266,0 -11.23842,-0.28025 -16.12383,-8.21656 z M 600,772.41664 c -10.71759,-17.41057 -17.44786,-32.07392 -8.97451,-86.59997 7.26666,-46.76099 13.06071,-138.18622 -9.75732,-417.21717 -2.15084,-26.30166 -4.93711,-31.14061 -7.02806,-42.53128 -5.22737,1.03552 -19.46722,3.02561 -36.82429,8.8796 -83.85475,28.28154 -134.88735,28.50213 -160.11524,10.90754 -7.45608,-5.20006 -13.84704,-16.67838 -13.5565,-25.99138 0.35562,-11.39953 74.23377,-36.42113 93.10956,-36.3153 7.34773,0.0412 20.96024,-2.44479 30.25002,-5.52457 92.58978,-30.69572 179.68453,-51.81461 208.06636,-50.4523 17.4217,0.83622 26.87635,1.13345 30.61226,5.43092 4.62483,5.32 3.78338,22.64504 0.44874,32.82665 -5.07222,15.48728 -8.93671,29.88964 -23.39983,30.97088 -31.36194,2.34455 -39.72573,8.55765 -51.22595,10.62868 1.04547,17.60376 7.31832,129.43946 12.06331,214.00925 0.90602,16.14799 6.28938,99.29935 7.95978,184.8893 3.19462,163.69553 -0.84724,181.00078 -22.49607,181.00078 -5.87384,0 -44.0837,-6.71024 -49.13226,-14.91163 z M 375.95915,550.42016 c -9.69048,-9.27293 -32.49913,-37.76975 -34.86206,-58.83098 -2.95214,-26.31298 -3.09709,-46.17254 18.07068,-59.34071 17.63699,-10.97172 41.84917,-10.15151 41.84917,8.07419 0,6.43496 8.38423,27.87167 16.18716,42.74824 11.5574,22.03456 31.79866,39.07593 24.64077,48.7848 C 423,557.41664 384.51781,558.61004 375.95915,550.42016 Z"
       id="path111"
       sodipodi:nodetypes="ssssscsssccsssssscsssssssssscssssssssscsssssssssss" />
  </g>
</svg>
