<?xml version="1.0" encoding="UTF-8" standalone="no"?>
<!-- Created with Inkscape (http://www.inkscape.org/) -->

<svg
   width="1000"
   height="1000"
   viewBox="0 0 1000 1000"
   version="1.1"
   id="svg756"
   inkscape:version="1.1 (c68e22c387, 2021-05-23)"
   sodipodi:docname="u5145.svg"
   xmlns:inkscape="http://www.inkscape.org/namespaces/inkscape"
   xmlns:sodipodi="http://sodipodi.sourceforge.net/DTD/sodipodi-0.dtd"
   xmlns="http://www.w3.org/2000/svg"
   xmlns:svg="http://www.w3.org/2000/svg"
   xmlns:rdf="http://www.w3.org/1999/02/22-rdf-syntax-ns#"
   xmlns:cc="http://creativecommons.org/ns#"
   xmlns:dc="http://purl.org/dc/elements/1.1/">
  <defs
     id="defs750" />
  <sodipodi:namedview
     id="base"
     pagecolor="#ffffff"
     bordercolor="#666666"
     borderopacity="1.0"
     inkscape:pageopacity="0.0"
     inkscape:pageshadow="2"
     inkscape:zoom="0.5"
     inkscape:cx="493"
     inkscape:cy="554"
     inkscape:document-units="px"
     inkscape:current-layer="layer1"
     showgrid="true"
     units="px"
     inkscape:window-width="1118"
     inkscape:window-height="864"
     inkscape:window-x="353"
     inkscape:window-y="16"
     inkscape:window-maximized="0"
     showguides="true"
     inkscape:guide-bbox="true"
     inkscape:pagecheckerboard="0">
    <inkscape:grid
       type="xygrid"
       id="grid758" />
    <sodipodi:guide
       position="240,200"
       orientation="0,1"
       id="guide8"
       inkscape:locked="false" />
  </sodipodi:namedview>
  <metadata
     id="metadata753">
    <rdf:RDF>
      <cc:Work
         rdf:about="">
        <dc:format>image/svg+xml</dc:format>
        <dc:type
           rdf:resource="http://purl.org/dc/dcmitype/StillImage" />
        <dc:title />
      </cc:Work>
    </rdf:RDF>
  </metadata>
  <g
     inkscape:label="Layer 1"
     inkscape:groupmode="layer"
     id="layer1"
     transform="translate(0,-32.41664)"
     style="display:inline">
    <path
       style="fill:#000000;stroke-width:7.59414"
       d="M 50.829105,840.72987 C 45.402091,836.10091 30.62698,816.0768 30.62698,811.5421 c 0,-16.32558 102.07045,-191.4689 112.55194,-212.84833 17.12646,-34.9334 33.46848,-60.88334 51.83797,-95.21923 61.41743,-114.80023 90.14618,-161.91282 138.54344,-159.30621 31.49268,1.69615 38.49585,33.96996 -0.62328,78.37672 -18.09005,20.53525 -29.95157,34.93044 -34.95796,42.75954 -7.6486,11.96102 -11.78253,18.22428 -17.0701,26.93411 -4.43833,7.31095 -15.0041,23.23634 -27.63674,48.3099 -12.63264,25.07355 -35.01909,68.19075 -49.74769,93.2643 -14.72858,25.07355 -37.22435,70.32747 -49.99061,103.11597 -20.78934,53.39481 -60.94995,112.21729 -76.615475,112.21729 -3.237983,0 -20.662356,-3.78733 -26.08937,-8.41629 z M 486,712.41664 C 414.7266,697.72613 369.67553,626.4799 367.05323,536.63391 c -2.57609,-88.26283 9.96894,-149.40108 29.1743,-158.16802 8.89155,-4.05885 37.75704,-4.54401 42.18681,-0.7281 6.71389,5.78352 -1.9578,32.51853 -3.31154,71.78874 -3.40021,98.63567 9.32611,163.80402 46.07325,186.14035 31.3532,19.05767 86.75318,17.89148 130.51951,3.63313 39.97979,-13.02474 70.64063,-3.60454 70.64063,4.59795 0,19.55249 -66.50841,66.18854 -116.4817,69.67477 -19.55191,1.36394 -64.58107,1.99172 -79.85449,-1.15609 z M 75.908484,389.95586 c -17.825292,-6.13497 -11.266635,-29.56721 19.124786,-52.3273 22.90359,-17.15247 36.08155,-38.41109 59.61492,-37.31536 16.61645,0.77369 39.46231,-0.99739 50.76858,-3.93572 38.43741,-9.9893 200.91367,-61.2228 216.01153,-68.11472 15.51836,-7.08389 67.26257,3.12553 75.84035,14.9637 2.3566,3.25234 0.49353,39.47162 -4.14013,49.86691 -7.88903,17.69842 -10.72423,18.60641 -44.57791,14.27627 -37.33989,-4.77605 -86.13471,14.88037 -120.05097,23.35042 -37.93852,9.47455 -84.49743,25.58547 -117.4634,35.90447 -84.62142,26.61723 -111.89707,31.32669 -135.127756,23.33133 z m 7.811619,-149.13201 c -5.427013,-4.62896 -9.867299,-42.16501 -9.867299,-45.13798 0,-5.84332 64.036726,-33.68598 117.162886,-50.21924 18.09005,-5.62975 53.2423,-19.15078 78.1161,-27.495 24.87382,-8.34423 70.92978,-23.4306 100.73995,-29.5769 29.90097,-6.16503 68.9536,-16.190956 95.12347,-21.603008 39.26618,-8.120429 171.20903,-28.860607 182.39429,-25.653619 13.49152,3.868222 13.09967,54.844947 -0.79192,71.049137 -9.22519,10.76095 -21.21741,25.22616 -71.94906,24.158 -63.73237,-1.34191 -99.22119,-5.50106 -303.44976,59.01913 -42.96386,13.57321 -91.06693,28.51488 -106.89572,33.20372 -15.8288,4.68883 -35.20483,13.34596 -43.05786,16.68636 -19.02247,8.09148 -25.78699,5.58139 -37.525077,-4.4306 z"
       id="path75"
       sodipodi:nodetypes="ssssssssssssscsssssssscssssssssscssssssssssssss" />
  </g>
</svg>
