<?xml version="1.0" encoding="UTF-8" standalone="no"?>
<!-- Created with Inkscape (http://www.inkscape.org/) -->

<svg
   width="1000"
   height="1000"
   viewBox="0 0 1000 1000"
   version="1.1"
   id="svg756"
   inkscape:version="1.1 (c68e22c387, 2021-05-23)"
   sodipodi:docname="u5165.svg"
   xmlns:inkscape="http://www.inkscape.org/namespaces/inkscape"
   xmlns:sodipodi="http://sodipodi.sourceforge.net/DTD/sodipodi-0.dtd"
   xmlns="http://www.w3.org/2000/svg"
   xmlns:svg="http://www.w3.org/2000/svg"
   xmlns:rdf="http://www.w3.org/1999/02/22-rdf-syntax-ns#"
   xmlns:cc="http://creativecommons.org/ns#"
   xmlns:dc="http://purl.org/dc/elements/1.1/">
  <defs
     id="defs750" />
  <sodipodi:namedview
     id="base"
     pagecolor="#ffffff"
     bordercolor="#666666"
     borderopacity="1.0"
     inkscape:pageopacity="0.0"
     inkscape:pageshadow="2"
     inkscape:zoom="0.49497475"
     inkscape:cx="861.66012"
     inkscape:cy="650.53824"
     inkscape:document-units="px"
     inkscape:current-layer="layer1"
     showgrid="true"
     units="px"
     inkscape:window-width="1118"
     inkscape:window-height="864"
     inkscape:window-x="375"
     inkscape:window-y="92"
     inkscape:window-maximized="0"
     showguides="true"
     inkscape:guide-bbox="true"
     inkscape:pagecheckerboard="0">
    <inkscape:grid
       type="xygrid"
       id="grid758" />
    <sodipodi:guide
       position="240,200"
       orientation="0,1"
       id="guide8"
       inkscape:locked="false" />
  </sodipodi:namedview>
  <metadata
     id="metadata753">
    <rdf:RDF>
      <cc:Work
         rdf:about="">
        <dc:format>image/svg+xml</dc:format>
        <dc:type
           rdf:resource="http://purl.org/dc/dcmitype/StillImage" />
        <dc:title />
      </cc:Work>
    </rdf:RDF>
  </metadata>
  <g
     inkscape:label="Layer 1"
     inkscape:groupmode="layer"
     id="layer1"
     transform="translate(0,-32.41664)"
     style="display:inline">
    <path
       style="fill:#000000;stroke-width:7.36682"
       d="M 47.406803,824.10311 C 30,817.41664 17.54723,804.71841 13.003347,793.4961 8.4594642,782.27379 11,758.41664 26.088158,762.33344 70.839798,773.95073 188.53874,650.45066 270.97282,522.475 326.59375,436.12571 351,368.41664 373.16401,356.19332 c 13.95904,-7.69832 23.44313,-20.74097 52.75577,-12.84174 13.0671,3.52134 14.08022,9.06506 6.79773,32.24078 -18.22445,57.99731 -58.56891,137.48031 -87.8963,168.04259 -4.65405,4.85003 -27.4065,37.64343 -50.56099,72.87423 C 252.3778,680.23556 159.80015,776.2875 106.96635,810.83192 90.369261,818.59599 63.631987,830.33569 47.406803,824.10311 Z M 640,789.81013 C 596.46254,751.2942 557.19295,665.97235 496.51995,478.06746 445.70171,320.68288 402.18948,208.33524 362.45087,131.90404 340.61033,89.897015 339.91281,81.872274 358.08565,81.682588 c 10.03265,-0.104702 63.14069,0.681591 81.81316,38.996772 35.73032,73.31722 91.64672,216.0224 115.71678,295.32273 57.81743,190.48308 109.76064,313.54186 144.26853,341.78665 6.85653,5.61218 41.88339,13.39997 55.83738,17.30628 33.92432,9.49689 -5.60155,43.21857 -39.015,46.34921 -22.46994,2.10529 -52.19092,-9.94622 -76.7065,-31.6341 z"
       id="path39"
       sodipodi:nodetypes="ssssssssscsssssssssss" />
  </g>
</svg>
