<?xml version="1.0" encoding="UTF-8" standalone="no"?>
<!-- Created with Inkscape (http://www.inkscape.org/) -->

<svg
   width="1000"
   height="1000"
   viewBox="0 0 1000 1000"
   version="1.1"
   id="svg756"
   inkscape:version="1.1 (c68e22c387, 2021-05-23)"
   sodipodi:docname="u51fa.svg"
   xmlns:inkscape="http://www.inkscape.org/namespaces/inkscape"
   xmlns:sodipodi="http://sodipodi.sourceforge.net/DTD/sodipodi-0.dtd"
   xmlns="http://www.w3.org/2000/svg"
   xmlns:svg="http://www.w3.org/2000/svg"
   xmlns:rdf="http://www.w3.org/1999/02/22-rdf-syntax-ns#"
   xmlns:cc="http://creativecommons.org/ns#"
   xmlns:dc="http://purl.org/dc/elements/1.1/">
  <defs
     id="defs750">
    <pattern
       id="EMFhbasepattern"
       patternUnits="userSpaceOnUse"
       width="6"
       height="6"
       x="0"
       y="0" />
  </defs>
  <sodipodi:namedview
     id="base"
     pagecolor="#ffffff"
     bordercolor="#666666"
     borderopacity="1.0"
     inkscape:pageopacity="0.0"
     inkscape:pageshadow="2"
     inkscape:zoom="0.5"
     inkscape:cx="482.71159"
     inkscape:cy="685.79846"
     inkscape:document-units="px"
     inkscape:current-layer="layer1"
     showgrid="true"
     units="px"
     inkscape:window-width="1118"
     inkscape:window-height="889"
     inkscape:window-x="455"
     inkscape:window-y="154"
     inkscape:window-maximized="0"
     showguides="true"
     inkscape:guide-bbox="true"
     inkscape:pagecheckerboard="0">
    <inkscape:grid
       type="xygrid"
       id="grid758" />
    <sodipodi:guide
       position="240,200"
       orientation="0,1"
       id="guide8"
       inkscape:locked="false" />
  </sodipodi:namedview>
  <metadata
     id="metadata753">
    <rdf:RDF>
      <cc:Work
         rdf:about="">
        <dc:format>image/svg+xml</dc:format>
        <dc:type
           rdf:resource="http://purl.org/dc/dcmitype/StillImage" />
        <dc:title />
      </cc:Work>
    </rdf:RDF>
  </metadata>
  <g
     inkscape:label="Layer 1"
     inkscape:groupmode="layer"
     id="layer1"
     transform="translate(0,-32.41664)"
     style="display:inline">
    <path
       id="path56"
       style="fill:#000000;stroke-width:8.03556"
       sodipodi:type="inkscape:offset"
       inkscape:radius="8.7107048"
       inkscape:original="M 255.8457 40.896484 C 215.02382 40.896484 209.26907 55.451878 220.96289 129.12305 C 251.1847 319.52075 247.44436 395.2451 250 418.43945 C 225 427.67409 129.84399 446.06353 107.3457 442.89453 C 86.582285 439.96989 82.203125 435.67268 82.203125 418.22852 C 82.203125 406.61056 86.770938 386.02003 92.353516 372.47266 C 97.936082 358.92532 106.27061 338.76811 110.875 327.67773 C 118.70669 308.81383 109.40902 289.21094 92.628906 289.21094 C 78.881292 289.21094 43.625999 358.51344 31.810547 408.76367 C 19.518639 461.04027 19.750632 463.23331 38.955078 476.60547 C 55.913296 488.41355 66.627781 489.78767 112.58594 486.04688 C 142.16749 483.63904 180.99697 477.16429 198.875 471.66016 C 216.75305 466.15606 244.686 459.99414 250 459.99414 C 248.95742 476.80489 255 686.24286 250 732.41602 C 246.56832 741.4702 236.21126 754.85078 228.19336 766.02148 C 220.19514 777.16475 194.32161 806.53711 178.13867 806.53711 C 144.50242 806.53711 125.20164 763.84973 128.23828 696.17383 C 129.36114 671.14914 136.15458 651.87497 148.19727 639.54688 C 180.48529 606.4936 170.54567 599.53203 112.96875 614.87305 C 73.350562 625.42909 68.823909 638.45511 76.767578 719.02344 C 80.976597 761.7133 89.713723 793.08725 103.54102 815.1582 C 103.54102 815.1582 120.09015 836.34269 131.92578 842.64648 C 146.40739 850.35956 155.71383 855.10585 173.86328 854.51953 C 205.70068 853.49101 214.9949 845.50177 224.62695 837.0957 C 235.35725 827.73117 241.99044 822.78314 250.72656 811.71094 C 255.00017 806.29455 264.60211 794.53961 277.16406 780.31641 C 295.00046 760.12125 314.46104 727.74445 322.28711 709.36719 C 339.9996 667.77452 360.70477 633.83532 384.51367 618.57617 C 406.90845 604.22333 411.74168 606.84278 430.41016 615.12695 C 445.00043 621.60142 457.61702 629.62823 475.54297 636.81445 C 493.46892 644.00068 516.56209 655.24857 526.85938 661.81055 C 559.345 682.5121 634.25432 709.96875 658.24805 709.96875 C 684.37171 709.96875 718.76367 687.97394 718.76367 671.26562 C 718.76367 662.33444 712.43249 661.0251 686.53125 664.60547 C 661.53137 668.06125 643.15253 664.75134 604.62109 649.85352 C 577.29811 639.28936 552.83604 629.0516 550.26172 627.10352 C 547.6874 625.15545 521.48786 611.51475 492.04102 596.78906 C 461.2795 581.40592 450.42758 569.99339 445 566.19336 C 448.33881 562.0017 459.93237 545.45929 471.28711 534.07812 C 496.25485 509.05231 507.93121 440.80872 498.42969 375.43359 C 492.37428 333.76941 490.29218 330.59766 468.99609 330.59766 C 455.48849 330.59766 437.18673 338.38593 424.41797 349.56641 C 400.21544 370.75845 317.76164 400.36582 290 409.20508 C 290 372.26655 289.99912 326.09204 272.64844 180.1582 C 263.70912 104.97101 267.67633 102.02029 286.94922 98.306641 C 310.78039 93.71468 311.20554 90.80207 292.14453 62.648438 C 282.00772 47.676099 270.69299 40.896484 255.8457 40.896484 z M 419.98633 399.57422 C 436.22939 399.57422 437.92773 405.00407 437.92773 456.9043 C 437.92773 504.69952 435.05038 510.77364 424.25586 529.0293 C 417.75834 540.01789 415 547.72435 405 556.95898 C 390 556.95898 381.97233 558.13242 363.99023 571.84375 C 346.82885 584.92927 337.48515 597.08451 330 607.75 C 322.51485 618.41548 302.73012 652.99909 295 663.15625 C 295 635.45235 294.85172 484.13319 295 450.75977 C 310 446.14245 330.50884 435.98194 353.67773 426.73438 C 376.84662 417.4868 397.20762 407.59333 398.92383 404.74805 C 400.64006 401.90275 410.1181 399.57422 419.98633 399.57422 z "
       d="m 255.8457,32.185547 c -10.72311,0 -19.7382,0.824374 -27.63867,4.083984 -7.90046,3.259611 -14.32247,9.631392 -17.5957,17.910157 -6.54646,16.557528 -4.14747,39.166786 1.74805,76.308592 15.07415,94.96732 21.66214,161.21957 24.80664,206.5957 2.66972,38.52504 2.82798,60.98637 3.68164,75.0625 -13.64187,4.13291 -39.1321,10.00076 -64.65821,14.59961 -14.72403,2.65272 -29.36494,4.91739 -41.56445,6.3086 -12.19951,1.3912 -22.43184,1.72651 -26.06445,1.21484 -9.881989,-1.39193 -14.278769,-3.30916 -15.472659,-4.48047 -1.193891,-1.1713 -2.173829,-3.56737 -2.173829,-11.56054 0,-9.33478 4.456474,-30.21722 9.492188,-42.4375 5.57863,-13.5378 13.91513,-33.69714 18.51367,-44.77344 4.79362,-11.54621 4.54872,-23.64683 -0.0684,-33.38086 C 114.23449,287.90269 104.41097,280.5 92.628906,280.5 c -5.377714,0 -8.716507,2.55191 -11.777344,5.20117 -3.060836,2.64926 -5.899784,5.9588 -8.849609,9.91992 -5.899649,7.92226 -12.114614,18.4695 -18.271484,30.57227 -12.31374,24.20554 -24.253088,54.44046 -30.398438,80.57617 -6.154961,26.17661 -9.65165,39.75872 -8.423828,51.41602 0.613911,5.82864 3.024112,11.22813 6.533203,15.2539 3.509091,4.02578 7.65112,6.91231 12.53711,10.31446 9.055072,6.30508 17.970925,10.52503 29.808593,12.04297 11.837669,1.51793 26.386265,0.81347 49.505861,-1.06836 30.22574,-2.46028 68.71265,-8.76163 88.14453,-14.74414 8.59339,-2.64565 19.92683,-5.53719 29.62695,-7.72461 3.85087,-0.86839 7.08745,-1.50886 10.14649,-2.10157 0.003,7.93168 0.11727,18.20429 0.34179,33.13086 0.342,22.73615 0.84337,51.92349 1.22071,82.01367 0.74423,59.34788 0.84867,122.69162 -1.36133,144.88282 -2.82252,6.57405 -12.41868,19.78251 -20.29492,30.75586 -3.51867,4.90227 -11.85919,14.89512 -20.78125,23.10742 -8.92207,8.2123 -19.37583,13.77734 -22.19727,13.77734 -13.13324,0 -22.98858,-7.48133 -30.76562,-24.68164 -7.77705,-17.20031 -11.9112,-43.64964 -10.4336,-76.58008 1.06132,-23.65306 7.47261,-40.6786 17.48828,-50.93164 8.33492,-8.53246 14.16073,-15.39028 17.66211,-21.93164 1.75069,-3.27068 3.08253,-6.56439 3.04102,-10.62109 -0.0415,-4.0567 -2.47361,-8.78646 -5.85156,-11.15235 -6.75591,-4.73177 -13.70805,-4.04741 -22.97852,-2.97265 -9.27047,1.07475 -20.96137,3.60649 -35.57422,7.5 -10.29533,2.74313 -18.888857,5.71377 -26.119138,10.5957 -7.230281,4.88193 -12.735387,11.95826 -15.802734,20.7832 -6.134696,17.64989 -4.697263,41.55436 -0.705079,82.04493 4.283624,43.44653 13.137963,76.08506 28.060547,99.90429 a 8.7115759,8.7115759 0 0 0 0.515625,0.73828 c 0,0 4.339159,5.55696 10.218749,11.92579 5.8796,6.36882 12.93115,13.62348 20.93555,17.88671 14.53963,7.74399 26.5527,13.53099 46.31445,12.89258 33.23768,-1.07375 46.54743,-11.13483 56.21094,-19.56836 10.53567,-9.19467 17.92642,-14.78602 27.20898,-26.55078 4.13972,-5.24669 13.6854,-16.93629 26.12891,-31.02539 18.81323,-21.30117 38.18683,-53.52942 46.60742,-73.30273 17.42299,-40.91286 38.1138,-73.53823 58.91406,-86.86914 10.75503,-6.89291 16.02919,-8.77643 19.78711,-8.83789 3.75793,-0.0615 8.48438,1.85047 17.875,6.01757 13.85223,6.14697 26.72873,14.31599 45.42383,21.81055 17.41038,6.97954 40.75277,18.44144 49.87695,24.25586 17.32994,11.04355 44.36544,23.07371 70.5625,32.67578 26.19707,9.60207 50.18832,16.84766 65.50782,16.84766 15.50649,0 31.66214,-6.08992 44.74804,-14.45899 6.54296,-4.18453 12.29969,-8.96476 16.71094,-14.32226 4.41125,-5.35751 7.76758,-11.46742 7.76758,-18.63282 0,-3.26194 -0.58735,-7.15981 -3.15234,-10.55859 -2.56499,-3.39878 -6.52573,-5.23498 -10.19922,-5.99414 -7.34699,-1.51832 -15.59651,-0.55942 -28.78516,1.26367 -23.67894,3.27319 -39.50895,0.47029 -77.57617,-14.24804 -13.59426,-5.25609 -26.48632,-10.43431 -36.23828,-14.51563 -4.87598,-2.04066 -8.97278,-3.81113 -11.92383,-5.15039 -1.47552,-0.66963 -2.67008,-1.23613 -3.4707,-1.63867 -0.80062,-0.40254 -1.47246,-0.91727 -0.61133,-0.26563 -2.41229,-1.82545 -3.78057,-2.37013 -7.13672,-4.19531 -3.35615,-1.82518 -7.8235,-4.1888 -13.12891,-6.95117 -10.61081,-5.52474 -24.55301,-12.63182 -39.31445,-20.01367 -14.97652,-7.48942 -24.9258,-13.91177 -31.80078,-18.90039 -3.40336,-2.46954 -4.81808,-3.67641 -7,-5.46485 5.34626,-7.10728 12.51288,-16.58065 20.3164,-24.40234 14.80046,-14.83488 23.89211,-39.49991 28.91797,-68.875 5.02587,-29.37509 5.56554,-63.55676 0.67969,-97.17383 -3.04362,-20.94158 -4.42452,-32.55953 -10.33984,-41.57031 -2.95767,-4.50539 -7.72609,-7.83879 -12.56641,-9.23633 -4.84032,-1.39754 -9.60819,-1.48828 -15.14844,-1.48828 -16.8559,0 -35.95236,8.54962 -50.3164,21.12695 -9.92537,8.69078 -36.6348,21.91387 -63.45117,32.94922 -21.61234,8.89381 -41.77833,16.06406 -56.62696,21.07813 -0.15679,-35.86648 -1.63225,-86.11014 -17.30273,-217.91211 -4.45025,-37.43032 -5.24697,-57.0548 -3.56445,-64.86524 0.84125,-3.90522 1.43518,-4.26191 2.44531,-4.93945 1.01013,-0.67754 3.75567,-1.56648 8.41797,-2.46484 6.12106,-1.17945 10.9652,-2.17884 15.40039,-4.12696 4.43518,-1.94812 9.41022,-6.374246 10.2539,-12.164061 0.84368,-5.789814 -1.2225,-10.248473 -3.82031,-15.177734 -2.5978,-4.929261 -6.26145,-10.516407 -11.07422,-17.625 C 288.21796,41.312339 273.34467,32.185547 255.8457,32.185547 Z M 419.98633,408.28516 c 3.57545,0 5.27889,0.48343 5.51562,0.61132 0.23674,0.1279 0.41375,-0.13371 1.23243,2.48243 1.63735,5.23226 2.48242,19.67029 2.48242,45.52539 0,23.72281 -0.78181,36.74638 -2.59961,45.33593 -1.8178,8.58956 -4.50496,13.3001 -9.85938,22.35547 -6.24106,10.55487 -8.6947,16.7116 -15.68945,23.86133 -13.61075,0.44686 -25.23561,3.40213 -42.35938,16.45899 -18.01737,13.73821 -28.18431,26.92181 -35.83984,37.83007 -4.21267,6.00257 -10.88228,17.14076 -17.7168,28.36719 -0.49633,0.81528 -0.94389,1.51579 -1.4414,2.33008 -0.0272,-47.89339 -0.10898,-143.46074 0,-176.55664 15.17785,-5.41962 33.1265,-14.0523 53.19531,-22.0625 11.76181,-4.69458 22.78617,-9.53759 31.24609,-13.64844 4.22997,-2.05542 7.80544,-3.91478 10.64063,-5.57617 1.41759,-0.8307 2.64252,-1.60019 3.78906,-2.43945 0.8554,-0.62615 1.72984,-1.31039 2.74805,-2.57227 0.49442,-0.23811 1.65982,-0.66995 3.14648,-1.03516 2.97333,-0.7304 7.26079,-1.26757 11.50977,-1.26757 z"
       transform="translate(34.66992,1.82875)" />
  </g>
</svg>
