<?xml version="1.0" encoding="UTF-8" standalone="no"?>
<!-- Created with Inkscape (http://www.inkscape.org/) -->

<svg
   width="1000"
   height="1000"
   viewBox="0 0 1000 1000"
   version="1.1"
   id="svg756"
   inkscape:version="1.1 (c68e22c387, 2021-05-23)"
   sodipodi:docname="u524d.svg"
   xmlns:inkscape="http://www.inkscape.org/namespaces/inkscape"
   xmlns:sodipodi="http://sodipodi.sourceforge.net/DTD/sodipodi-0.dtd"
   xmlns="http://www.w3.org/2000/svg"
   xmlns:svg="http://www.w3.org/2000/svg"
   xmlns:rdf="http://www.w3.org/1999/02/22-rdf-syntax-ns#"
   xmlns:cc="http://creativecommons.org/ns#"
   xmlns:dc="http://purl.org/dc/elements/1.1/">
  <defs
     id="defs750" />
  <sodipodi:namedview
     id="base"
     pagecolor="#ffffff"
     bordercolor="#666666"
     borderopacity="1.0"
     inkscape:pageopacity="0.0"
     inkscape:pageshadow="2"
     inkscape:zoom="0.5"
     inkscape:cx="839"
     inkscape:cy="644"
     inkscape:document-units="px"
     inkscape:current-layer="layer1"
     showgrid="true"
     units="px"
     inkscape:window-width="1118"
     inkscape:window-height="864"
     inkscape:window-x="607"
     inkscape:window-y="167"
     inkscape:window-maximized="0"
     showguides="true"
     inkscape:guide-bbox="true"
     inkscape:pagecheckerboard="0">
    <inkscape:grid
       type="xygrid"
       id="grid758" />
    <sodipodi:guide
       position="240,200"
       orientation="0,1"
       id="guide8"
       inkscape:locked="false" />
  </sodipodi:namedview>
  <metadata
     id="metadata753">
    <rdf:RDF>
      <cc:Work
         rdf:about="">
        <dc:format>image/svg+xml</dc:format>
        <dc:type
           rdf:resource="http://purl.org/dc/dcmitype/StillImage" />
        <dc:title />
      </cc:Work>
    </rdf:RDF>
  </metadata>
  <g
     inkscape:label="Layer 1"
     inkscape:groupmode="layer"
     id="layer1"
     transform="translate(0,-32.41664)"
     style="display:inline">
    <path
       style="fill:#000000;stroke-width:14.0342"
       d="M 45.58176,848.11133 C 41.221879,841.89927 44.189684,816.75144 52.176882,792.22727 69.59415,738.74871 69.74155,575.4188 52.45499,484.071 c -7.829254,-41.37233 -6.868007,-71.91333 2.586073,-82.16531 22.722667,-24.6404 60.132987,-18.37687 64.251397,42.27508 l 3.94611,52.11426 33.85101,-41.48858 c 67.56299,-82.80677 139.08827,-65.43865 169.52124,50.6607 19.82326,75.62413 -14.13552,234.70359 -52.85152,268.79648 -27.3182,24.05613 -87.41625,11.60962 -87.41625,-12.39707 0,-6.01887 -0.41035,-9.03452 4.92439,-14.25944 -16.00421,10.44983 -26.27358,12.40918 -33.36833,12.4225 -9.74952,0.0183 -17.84513,0.1173 -28.51461,-0.92768 -1.06694,15.67474 -1.46705,19.13625 -2.1966,28.65642 -1.27397,16.62431 -4.75187,39.35867 -9.74466,50.81605 -9.62131,22.07878 -58.505828,28.56636 -71.86148,9.53692 z M 254.15,645.59196 c 0,0 6.469,-30.78765 6.469,-51.68731 -10.66947,0 -21.33895,-3.13494 -58.11117,-2.96365 -38.0342,0.17718 -64.58774,12.3685 -64.58774,12.3685 l -5.12567,19.28158 c -4.47278,16.82556 -3.40992,74.85686 -3.40992,90.5316 10.66948,-5.22491 38.72117,0.64637 59.05847,-8.93813 26.22065,-12.35719 30.95187,-2.63111 21.79257,18.70046 -9.3573,21.79281 -8.05034,22.33969 11.52974,4.82449 12.14584,-10.86496 26.71886,-47.81785 32.38444,-82.11754 z M 235.71549,538.50137 c 12.23351,0.50102 20.63572,3.2441 22.76961,6.37905 0,-5.22492 -1.33782,-18.70287 -5.69238,-31.17772 C 237.02106,468.52044 225,472.41664 192.54849,507.85227 174.51695,527.54192 159,540.41664 149.38871,563.78008 162,547.41664 166.56656,545.86841 189.18578,540.58249 c 12.35102,-2.88633 36.73531,-2.48224 46.52971,-2.08112 z M 595.04936,784.2786 c -11.94081,-3.6787 -16.98222,-11.52035 -11.2582,-60.35819 9.71045,-82.85044 -7.04438,-92.2241 -56.19607,-31.43949 -38.96353,48.18514 -101.58093,45.79302 -130.1736,-2.82025 -14.1864,-24.11973 -14.61605,-82.77148 -7.45244,-179.25037 11.06026,-148.95892 20.02254,-191.24621 74.42402,-190.95992 19.31285,0.10168 29.96471,15.55927 21.83464,44.05392 -14.83953,52.0101 -23.20312,279.54727 -11.13529,279.54727 5.57672,0 27.12821,-17.77903 47.89218,-39.50895 43.5994,-45.62766 107.5524,-31.22643 130.70225,6.86422 8.51492,14.01042 15.48168,57.82394 15.48168,97.36336 0,70.48767 -33.59441,88.99315 -74.11917,76.5084 z M 111.56556,340.22463 c 0,-10.30408 35.28025,-49.60547 85.57281,-80.9504 53.95344,-33.62657 104.19862,-59.11866 143.50166,-75.95793 34.02161,-27.02246 52.40645,-68.89342 57.31219,-82.0171 10.04979,-26.884905 59.72369,-3.333193 59.72369,27.64685 0,7.07911 -5.00644,28.24567 -15.67591,33.47059 21.33894,-5.22492 32.00841,-5.22492 43.51471,2.82807 39.52975,27.66592 37.34104,57.25941 -28.46173,60.96771 -72.74029,4.09926 -180.71543,63.42515 -248.56832,110.74844 -60.23027,42.00697 -96.9191,31.9282 -96.9191,3.26377 z M 153.75389,173.2133 C 127.01249,151.14281 93.8853,121.76851 78.06342,102.61621 51.49737,70.458136 59.907848,49.076116 82.35114,39.236787 111.2464,26.568849 119.49127,39.0249 188.87351,102.07083 c 66.41075,60.34581 56.34406,76.37859 49.7917,85.71455 -14.22804,20.27243 -32.44068,28.73353 -84.91132,-14.57208 z"
       id="path309"
       sodipodi:nodetypes="ssssscsssscscsssccscscsssccscsscsssssssssssssssscsscssssssssss" />
  </g>
</svg>
