<?xml version="1.0" encoding="UTF-8" standalone="no"?>
<!-- Created with Inkscape (http://www.inkscape.org/) -->

<svg
   width="1000"
   height="1000"
   viewBox="0 0 1000 1000"
   version="1.1"
   id="svg756"
   inkscape:version="1.1 (c68e22c387, 2021-05-23)"
   sodipodi:docname="u52a9.svg"
   xmlns:inkscape="http://www.inkscape.org/namespaces/inkscape"
   xmlns:sodipodi="http://sodipodi.sourceforge.net/DTD/sodipodi-0.dtd"
   xmlns="http://www.w3.org/2000/svg"
   xmlns:svg="http://www.w3.org/2000/svg"
   xmlns:rdf="http://www.w3.org/1999/02/22-rdf-syntax-ns#"
   xmlns:cc="http://creativecommons.org/ns#"
   xmlns:dc="http://purl.org/dc/elements/1.1/">
  <defs
     id="defs750" />
  <sodipodi:namedview
     id="base"
     pagecolor="#ffffff"
     bordercolor="#666666"
     borderopacity="1.0"
     inkscape:pageopacity="0.0"
     inkscape:pageshadow="2"
     inkscape:zoom="2"
     inkscape:cx="259.0936"
     inkscape:cy="381.59117"
     inkscape:document-units="px"
     inkscape:current-layer="layer1"
     showgrid="true"
     units="px"
     inkscape:window-width="1118"
     inkscape:window-height="864"
     inkscape:window-x="533"
     inkscape:window-y="88"
     inkscape:window-maximized="0"
     showguides="true"
     inkscape:guide-bbox="true"
     inkscape:pagecheckerboard="0">
    <inkscape:grid
       type="xygrid"
       id="grid758" />
    <sodipodi:guide
       position="320,200"
       orientation="0,1"
       id="guide8"
       inkscape:locked="false" />
  </sodipodi:namedview>
  <metadata
     id="metadata753">
    <rdf:RDF>
      <cc:Work
         rdf:about="">
        <dc:format>image/svg+xml</dc:format>
        <dc:type
           rdf:resource="http://purl.org/dc/dcmitype/StillImage" />
        <dc:title />
      </cc:Work>
    </rdf:RDF>
  </metadata>
  <g
     inkscape:label="Layer 1"
     inkscape:groupmode="layer"
     id="layer1"
     transform="translate(0,-32.41664)"
     style="display:inline">
    <path
       style="fill:#000000;stroke-width:5.67494"
       d="m 23.49732,844.41216 c -2.930851,-4.846 -0.253057,-23.55758 4.723561,-41.0725 4.976617,-17.51491 12.252059,-33.83317 18.516504,-33.89255 16.06196,-0.15223 58.143605,-17.668 111.878025,-46.56717 29.08994,-15.64499 85.56771,-42.40809 125.26768,-60.01573 49.96082,-22.15852 54.10638,-24.2313 69.65222,-33.55879 0,-14.50946 -1.90689,-39.62923 -5.13856,-77.29696 C 345,512.41664 345.2442,509.9751 344.20781,500.64761 c -5.72044,1.41827 -30.12885,8.03969 -48.47212,20.36907 -39.75751,26.72291 -59.31235,41.81427 -82.52115,45.23678 -9.26869,1.3668 -15.1376,2.79583 -21.35594,2.79583 1.67267,17.97851 6.07535,31.73351 10.03601,48.10868 9.55231,39.49362 -42.19325,59.26271 -62.5339,45.824 -6.47047,-4.27492 -24.0237,-144.86007 -24.0237,-199.94925 0,-10.15125 -0.83751,-19.57156 -0.83751,-23.71711 -2.07278,2.07277 -2.62669,2.63438 -5.84343,4.55529 -4.52047,2.69943 -11.895992,6.69922 -19.090377,6.71829 C 82.3713,450.60829 71.826297,412.01338 70.949239,406.92442 70,401.41664 77.263746,393.39835 89.913691,379.44807 l 20.585809,-20.7019 -2.75245,-96.65444 c -1.77585,-62.36033 -6.81313,-117.66614 -8.78001,-122.99161 -5.543458,-15.00917 37.6675,-67.7577 45.92227,-67.7577 4.82658,0 14.64646,12.909314 17.11148,39.04536 2.02543,21.47494 4.71081,49.45746 5.96751,62.18335 1.25669,12.72589 4.05542,57.62805 6.21936,99.78258 2.16395,42.15451 1.1615,45.26749 1.1615,52.52221 18.60663,-11.76843 36.29482,-17.12705 51.57548,-20.39365 54.55222,-11.66183 93.85784,16.18372 93.85784,29.06786 0,6.27784 -12.40999,22.76541 -47.32334,27.88411 -59.96187,8.79109 -67.44514,18.88772 -81.7397,29.79339 -6.19396,4.72552 -8.83308,6.18867 -12.85528,9.20532 0,10.05549 -0.17185,13.21466 -0.17185,29.74928 0,21.2717 1.59321,36.38884 3.54048,51.1495 1.73752,13.17081 3.13904,21.09902 3.40748,24.78893 3.87712,0.45564 10.66414,-2.16191 20.41126,-4.1697 20.00791,-4.12141 56.9893,-28.6274 67.70388,-37.35559 4.18098,-3.40586 22.58203,-15.71237 37.43961,-22.06429 15.39418,-6.58133 21.6125,-7.92127 27.83084,-9.99405 -1.17742,-41.99405 -27.77443,-233.31321 -36.92328,-266.89179 -17.73122,-65.07797 -14.48555,-56.61306 -41.44034,-42.49307 -26.65836,13.96473 -50.51787,-34.197189 -50.51787,-43.89658 0,-10.133149 83.70887,-44.170501 102.28083,-44.170501 23.25729,0 54.65862,60.030582 63.3104,125.406891 2.01596,15.23349 7.87084,59.6084 10.47741,70.74356 5.02432,21.46359 24.34931,171.9582 35.78621,306.96191 3.77328,44.54063 5.01568,56.5778 5.60099,61.2994 3.56025,-1.61243 9.69017,-3.9873 30.17914,-15.98281 32.82833,-19.21974 36.72656,-18.59197 54.3235,-28.82864 3.122,-9.30494 19.25049,-47.01328 39.66767,-97.88549 20.41718,-50.87223 29.84037,-74.46267 31.84318,-78.54738 -8.22115,2.01193 -18.8486,3.49132 -55.52988,13.06172 -50.34162,13.13453 -71.47062,16.23695 -86.17921,12.6539 -22.95895,-5.59287 -21.14613,-65.46025 0.65088,-64.32906 16.52499,0.8576 70.95142,-9.25657 109.98722,-21.60554 15.31049,-4.84346 31.5246,-8.07786 54.68961,-13.82373 8.39213,-23.59695 15.07984,-45.38966 19.43518,-65.30982 4.05215,-18.53338 8.53519,-38.01411 11.96812,-56.00191 4.38323,-22.96713 66.89988,-23.65974 71.23514,0.3501 2.24825,12.45136 4.40712,39.66676 -6.5153,75.27078 -8.6777,28.28689 -9.68325,28.30908 -13.70545,41.38123 9.3275,0 11.20465,0.71954 28.67853,1.36434 40.36606,1.48954 70.5697,18.00625 94.03474,40.11905 23.46503,22.11281 36.07429,55.7933 41.30834,95.756 4.83833,36.94137 -11.21796,101.60088 -30.06705,139.2748 -18.84908,37.6739 -62.92763,58.45719 -84.96933,52.70938 -18.73248,-4.88484 -45.96694,-40.12438 -24.22676,-48.2922 21.52661,-8.0876 43.33067,-15.21907 54.38316,-59.30665 12.82296,-51.14982 16.0839,-79.64649 5.55435,-105.42698 -10.52956,-25.78049 -30.82741,-46.83369 -81.21082,-46.89679 -8.58635,-0.0108 -16.67821,-0.15277 -25.75904,-0.0323 -6.465,15.42529 -12.72093,33.6465 -12.72093,33.6465 -8.27042,23.44525 -25.10708,61.65001 -37.71229,93.11698 -13.85929,34.59759 -23.14524,57.52779 -25.46985,65.033 8.29111,11.40028 4.14555,32.12806 -13.47306,46.63751 -7.12571,20.72672 -38.08038,103.36748 -41.88211,148.68572 -3.48017,41.48526 -66.35743,55.64382 -78.93826,31.21994 -8.06618,-15.65939 -1.9127,-65.70449 14.6179,-118.88374 5.00771,-16.11 4.34009,-10.60892 7.44926,-19.93643 -6.21833,3.10917 -4.71076,2.86146 -18.17143,10.13008 -17.5086,9.45444 -11.36137,8.62263 -32.37708,17.06275 -4.14556,17.61862 -37.79128,44.3797 -63.70101,28.83386 -21.62248,6.98958 -95.00542,33.50153 -215.44393,96.40296 -54.957146,28.7025 -105.075501,52.57828 -111.346939,52.18635 -9.563532,-0.59767 -10.532268,-1.98605 -14.709081,-8.8922 z"
       id="path39"
       sodipodi:nodetypes="ssssscscsscssscsssscsssssscsssscsscssscssssssscscscsssscsssscssssssssscssccssscsccssss" />
  </g>
</svg>
