<?xml version="1.0" encoding="UTF-8" standalone="no"?>
<!-- Created with Inkscape (http://www.inkscape.org/) -->

<svg
   width="1000"
   height="1000"
   viewBox="0 0 1000 1000"
   version="1.1"
   id="svg756"
   inkscape:version="1.1 (c68e22c387, 2021-05-23)"
   sodipodi:docname="u534d.svg"
   xmlns:inkscape="http://www.inkscape.org/namespaces/inkscape"
   xmlns:sodipodi="http://sodipodi.sourceforge.net/DTD/sodipodi-0.dtd"
   xmlns="http://www.w3.org/2000/svg"
   xmlns:svg="http://www.w3.org/2000/svg"
   xmlns:rdf="http://www.w3.org/1999/02/22-rdf-syntax-ns#"
   xmlns:cc="http://creativecommons.org/ns#"
   xmlns:dc="http://purl.org/dc/elements/1.1/">
  <defs
     id="defs750" />
  <sodipodi:namedview
     id="base"
     pagecolor="#ffffff"
     bordercolor="#666666"
     borderopacity="1.0"
     inkscape:pageopacity="0.0"
     inkscape:pageshadow="2"
     inkscape:zoom="0.5"
     inkscape:cx="-55"
     inkscape:cy="537"
     inkscape:document-units="px"
     inkscape:current-layer="layer1"
     showgrid="true"
     units="px"
     inkscape:window-width="1118"
     inkscape:window-height="821"
     inkscape:window-x="220"
     inkscape:window-y="68"
     inkscape:window-maximized="0"
     showguides="true"
     inkscape:guide-bbox="true"
     inkscape:pagecheckerboard="0">
    <inkscape:grid
       type="xygrid"
       id="grid758" />
    <sodipodi:guide
       position="240,200"
       orientation="0,1"
       id="guide8"
       inkscape:locked="false" />
  </sodipodi:namedview>
  <metadata
     id="metadata753">
    <rdf:RDF>
      <cc:Work
         rdf:about="">
        <dc:format>image/svg+xml</dc:format>
        <dc:type
           rdf:resource="http://purl.org/dc/dcmitype/StillImage" />
        <dc:title />
      </cc:Work>
    </rdf:RDF>
  </metadata>
  <g
     inkscape:label="Layer 1"
     inkscape:groupmode="layer"
     id="layer1"
     transform="translate(0,-32.41664)"
     style="display:inline">
    <path
       id="path39"
       style="fill:#000000;stroke-width:5.49164"
       d="m 362.85352,37.285156 c -6.14825,0.04294 -12.25563,0.232803 -18.3551,0.599503 -12.06676,0.741409 -24.20781,2.052534 -36.09116,4.562474 -6.84116,1.450599 -13.61818,3.378532 -19.96025,6.364523 -11.47592,5.280112 -22.56077,11.364663 -33.5391,17.601262 -16.02888,9.181782 -31.71946,18.955342 -47.00166,29.333172 -11.80074,8.02967 -23.48788,16.48176 -34.66727,25.34523 -8.08676,6.42196 -15.89183,13.01934 -23.4176,20.14034 -4.01627,3.76943 -7.83234,7.74444 -11.58664,11.77107 -7.1685,7.22426 -16.28412,12.12198 -25.56119,16.09062 -4.5959,1.91432 -9.28221,3.69819 -14.15385,4.77067 -0.57036,0.0356 -1.07927,0.16503 -1.34823,0.72392 -2.58212,3.53399 -4.20054,7.66355 -5.48592,11.81831 -0.1006,0.3777 -0.33744,1.14662 -0.47898,1.6777 -1.552507,5.78581 -2.49814,11.77047 -2.448867,17.76949 0.434495,2.76265 1.748657,5.29552 3.022557,7.75402 3.72009,6.98543 8.97696,13.01053 14.69116,18.43268 3.22551,3.00154 6.49842,6.00277 10.18845,8.42979 3.08444,1.94798 6.65455,3.5582 10.39097,3.1507 4.20861,-0.43307 8.10185,-2.28335 11.84595,-4.14041 2.08257,-1.08672 4.22174,-2.3895 6.11298,-3.60913 6.40136,-4.19225 12.38492,-8.98215 18.23632,-13.90234 4.68464,-3.96503 9.40966,-8.17527 13.97933,-12.38114 14.75865,-13.73599 29.95735,-27.00266 45.6703,-39.63783 16.83863,-13.5195 34.16783,-26.45975 52.30086,-38.19915 5.0741,-3.24273 10.17172,-6.46344 15.46237,-9.34378 7.29491,-3.69099 15.42177,-5.21643 23.41592,-6.56012 13.91759,-2.22203 28.02658,-3.03522 42.10861,-3.18724 13.72142,-0.0894 27.49349,0.47677 41.05699,2.66232 5.34078,0.82408 10.58462,2.14545 15.78718,3.58829 3.94773,1.08333 7.92598,2.06503 11.85488,3.21116 4.31995,1.48093 7.42767,5.83509 7.41353,10.40331 0.006,2.37167 -0.79809,4.64492 -1.20373,6.96234 -6.03156,28.21257 -12.03087,56.43321 -18.08255,84.64076 -6.9371,30.41347 -11.05456,49.88055 -18.00978,80.28897 -0.37402,1.52827 -2.15345,11.86158 -3,15 -3,2 -6.61716,4.25789 -8,5 -11.97865,6.82454 -21.39983,11.75715 -33.64235,18.09926 -22.86051,11.4796 -45.84251,22.71772 -68.88255,33.83271 -29.57396,14.20849 -59.24171,28.2319 -89.26393,41.47419 -11.73452,5.13503 -23.50858,10.19407 -35.47288,14.77221 -6.29979,2.36132 -12.70284,4.56906 -19.36134,5.66671 -5.98918,1.16264 -12.03768,2.0016 -18.11859,2.49614 -3.61388,0.32906 -7.14715,0.66167 -10.76031,1.07026 -1.00441,0.73312 -1.91979,1.9088 -2.55664,2.79102 -3.50216,5.1018 -5.75474,10.92454 -7.86524,16.70508 -4.39272,12.49665 -7.70511,25.33992 -10.832622,38.20164 -3.952039,16.2954 -7.267468,32.72579 -10.872654,49.12458 -6.66855,30.68044 -13.714845,61.27659 -20.8666,91.8485 -4.244133,18.35902 -8.641598,36.67987 -12.16929,55.20454 -1.504275,7.99787 -2.796919,15.84797 -3.716691,23.93015 -0.547524,4.7182 -0.955807,9.59081 -1.221829,14.32926 -0.449288,8.1658 -0.46046,16.35176 -0.306747,24.5606 0.18184,8.01237 0.624321,15.96361 1.603846,23.95095 0.694207,5.69877 1.725476,11.66704 3.238058,17.34978 0.39212,1.46642 0.799685,2.87804 1.282385,4.37625 2.528099,8.03802 6.403625,15.68602 11.723756,22.24189 2.522086,3.10475 5.225954,6.07635 8.171593,8.7842 4.336938,3.54479 9.258277,6.33738 14.379469,8.58131 1.327726,0.51841 2.644574,1.18945 4.050218,1.42455 3.64506,-0.98861 7.053524,-2.66719 10.262538,-4.63539 7.95253,-4.83761 15.186,-11.12367 20.27541,-18.97737 3.13748,-4.91367 5.4146,-10.59336 5.43666,-16.4888 -0.4745,-2.91933 -1.88596,-5.57849 -3.16127,-8.21377 -3.11232,-6.17128 -6.9741,-11.91729 -10.34849,-17.94053 -3.51392,-6.34183 -6.24571,-13.37643 -6.2215,-20.7238 -0.0884,-4.4462 1.23721,-8.72979 2.10373,-13.04629 3.75321,-17.64889 6.98612,-35.40391 10.82572,-53.0345 7.03232,-32.76382 15.23819,-65.25728 23.60477,-97.70239 4.41278,-17.2856 8.41765,-34.64487 12.35758,-52.04819 1.69709,-7.25826 3.24088,-14.56493 5.42166,-21.69797 1.4762,-4.4953 3.18923,-9.1755 6.71219,-12.49851 2.64434,-2.44574 6.15287,-3.94928 9.74558,-4.16285 6.15994,-1.60679 12.13377,-3.84883 17.94067,-6.4457 13.99413,-6.13562 27.73485,-12.78264 41.57735,-19.23809 25.05509,-11.77704 50.28147,-23.22544 75.94717,-33.6144 11.15339,-4.53967 22.30437,-9.203 33.18885,-14.22484 4.47739,-2.0274 8.93939,-4.11408 13.54818,-5.82809 C 357,422.41664 370,416.41664 370,416.41664 c 0,0 -3.35908,18.27132 -4.08624,21.59335 -2.44343,14.94049 -5.32136,29.80644 -8.15223,44.67715 -4.09893,21.41975 -8.4445,42.78963 -12.63609,64.19134 -5.15504,26.48338 -9.94734,53.04064 -14.08247,79.70355 -3.17513,20.67123 -5.98698,41.50843 -7.92395,62.37429 -0.58389,6.23082 -1.0813,12.52566 -1.47954,18.81805 -0.34063,5.3028 -0.60234,10.85018 -0.7762,16.15727 -0.34526,11.05623 -0.28703,22.14944 0.23095,33.15989 0.34259,5.89634 0.75416,11.8563 2.37014,17.56399 0.76039,2.70057 2.08034,5.3516 4.36525,7.07645 3.38509,2.674 7.3306,4.50332 11.1533,6.45321 2.5818,1.3879 5.32132,2.46585 8.17089,3.1601 1.82543,0.47896 3.73597,0.87669 5.49733,1.18857 3.83716,0.6925 7.74023,1.15681 11.5579,1.49189 6.00634,0.51967 12.06501,0.73142 18.1472,0.70646 6.09437,-0.0242 12.1544,-0.28771 18.25916,-0.78812 7.18808,-0.58918 14.51851,-1.47405 21.64388,-2.58523 5.82521,-0.91462 11.53232,-1.97089 17.30517,-3.22604 5.84298,-1.27799 11.88978,-2.7948 17.72932,-4.54102 3.804,-1.12943 7.57325,-2.37613 11.29607,-3.74999 1.07949,-0.40309 2.39766,-0.90657 3.55776,-1.37242 3.54194,-1.41421 6.95701,-2.99483 10.35944,-4.62466 15.01473,-7.27014 29.6866,-15.22424 44.27355,-23.31159 14.70087,-8.1874 29.24209,-16.6605 43.61124,-25.41666 13.91015,-8.33167 27.90696,-16.57187 42.51472,-23.63475 11.29097,-5.40537 23.1057,-10.14212 35.58368,-11.845 4.29755,-0.63664 8.64581,-0.6423 12.97506,-0.85571 0.66194,-0.0311 1.46629,-0.0988 2.06205,-0.13257 3.45377,-0.32823 7.00322,-0.58065 10.25068,-1.89407 2.89598,-1.2211 4.43179,-4.15289 5.87822,-6.75873 1.80445,-3.4697 3.54639,-6.96886 5.0957,-10.63538 1.46001,-3.4873 2.61534,-7.285 2.03382,-11.10251 -0.557,-4.1438 -2.32942,-7.99397 -4.03101,-11.77199 -4.09345,-8.62951 -8.87159,-16.91201 -13.67066,-25.16282 -3.25635,-5.45034 -6.49648,-10.93696 -10.33576,-16.00368 -0.6325,-0.70949 -1.15883,-1.66548 -2.06278,-2.0341 -3.05175,-0.0492 -6.14625,0.70465 -9.0625,1.24023 -2.74026,0.54328 -5.4825,1.10904 -8.11357,2.06907 -9.63458,3.31652 -19.03066,7.28462 -28.34542,11.40359 -18.95173,8.48384 -37.69624,17.75168 -56.09163,27.49104 -25.24881,13.21445 -50.64757,26.17118 -76.5537,38.05596 -14.89556,6.77952 -29.94108,13.30273 -45.461,18.53244 -8.54502,2.83902 -17.29309,5.23685 -26.25698,6.27087 -5.39687,0.5911 -11.07559,0.11902 -15.94844,-2.43954 -3.16433,-1.58882 -6.21428,-4.01272 -7.31325,-7.51234 -0.62997,-2.05669 -0.73035,-4.18738 -0.97713,-6.29705 -0.3486,-5.73641 0.22731,-11.47884 0.77848,-17.1845 1.63229,-14.9781 4.06867,-29.85393 6.54134,-44.712 5.77096,-34.04224 12.27918,-67.95667 18.8172,-101.85986 6.55654,-33.74097 13.16193,-67.4744 20.41893,-101.07197 2.59583,-11.95798 5.31554,-23.89096 8.39828,-35.73387 0.89383,-3.27439 1.04195,-5.47182 2.48384,-10.12059 11,-6 19.28723,-10.33623 28.01641,-13.85222 20.58956,-8.28427 40.98748,-17.03564 61.42853,-25.67725 32.89478,-13.95648 65.74985,-28.00704 98.67751,-41.88464 19.45249,-8.25924 38.92652,-16.52056 57.82433,-26.00026 12.0688,-6.12954 23.98693,-12.73509 34.71451,-21.04163 7.21731,-5.61839 13.86522,-12.17713 18.52308,-20.11244 2.58861,-4.29218 4.82931,-8.84955 6.83193,-13.36678 2.43517,-5.51289 4.55495,-11.08967 6.52578,-16.80724 5.31052,-15.58023 9.34658,-31.74213 12.34583,-47.98975 0.48449,-2.5678 0.90555,-5.1384 1.3367,-7.67271 1.60509,-9.91212 2.81258,-19.85234 3.54389,-29.81068 0.43805,-6.11492 0.75208,-12.36472 0.50845,-18.55898 -0.26369,-5.02702 -0.735,-10.24806 -3.13646,-14.76861 -2.05727,-3.62969 -4.84315,-6.77071 -7.21531,-10.18961 -2.21505,-3.002763 -4.06385,-6.251195 -6.20813,-9.300712 -5.27172,-7.322091 -12.7784,-13.299557 -21.57268,-15.685898 -5.64516,-1.581583 -11.9092,-1.2939 -17.18257,1.379561 -4.76985,2.347563 -8.1728,6.799708 -10.1433,11.647257 -2.80596,6.783682 -3.4219,14.205752 -3.67202,21.469312 -0.83161,20.32535 -0.16565,40.84597 -2.45913,61.1365 -1.38075,11.89168 -3.83545,23.86189 -9.26494,34.62203 -3.83433,7.62731 -9.34049,14.45767 -16.24928,19.50875 -10.20003,7.57461 -21.3098,13.81527 -32.5297,19.73283 -20.51774,10.68373 -41.6914,20.0451 -62.98232,29.06819 -31.29943,13.22254 -62.7755,26.09083 -94.87009,37.23639 C 479.20258,285.74422 464,291.41664 460,292.41664 c 0.52076,-4.84784 3.33047,-15.43588 4.06409,-19.41039 2.06117,-12.0441 5.10977,-23.88753 7.99568,-35.75223 6.72687,-27.1531 13.59223,-54.26835 20.29648,-81.4274 1.9557,-8.02864 3.88123,-16.07671 5.60955,-24.11439 1.21196,-5.71507 2.34288,-11.4279 3.16441,-17.17598 0.39897,-2.6997 0.72618,-5.41407 0.94152,-8.0678 0.11854,-1.48048 0.20643,-2.9723 0.24331,-4.36997 0.0636,-2.33369 0.008,-4.6717 -0.20566,-6.99692 -0.0683,-0.64845 -0.16486,-1.60846 -0.28204,-2.37687 -0.93336,-6.93298 -3.64918,-13.43098 -6.13825,-19.913568 -1.40488,-3.476023 -2.89652,-7.19177 -6.00314,-9.510223 -3.5481,-2.757091 -7.82958,-4.304775 -11.97523,-5.915775 -9.7203,-3.576452 -19.54785,-6.495635 -29.43806,-9.501533 -8.83899,-2.770447 -17.91269,-4.728917 -27.0461,-6.237107 -7.88854,-1.294322 -16.07707,-2.285689 -24.05494,-2.973067 -11.40062,-0.988254 -22.82276,-1.447213 -34.3181,-1.388261 z"
       sodipodi:nodetypes="ccccccccccccccccccccccccccccccccccccccccccccccccccccccccccccccccccccccccccccccccccccccccccccccsccccccccccccccccccccccccccccccccccccccccccccccccccccccccccccsccccccccccccccccc" />
  </g>
</svg>
