<?xml version="1.0" encoding="UTF-8" standalone="no"?>
<!-- Created with Inkscape (http://www.inkscape.org/) -->

<svg
   width="1000"
   height="1000"
   viewBox="0 0 1000 1000"
   version="1.1"
   id="svg756"
   inkscape:version="1.1 (c68e22c387, 2021-05-23)"
   sodipodi:docname="u53cb.svg"
   xmlns:inkscape="http://www.inkscape.org/namespaces/inkscape"
   xmlns:sodipodi="http://sodipodi.sourceforge.net/DTD/sodipodi-0.dtd"
   xmlns="http://www.w3.org/2000/svg"
   xmlns:svg="http://www.w3.org/2000/svg"
   xmlns:rdf="http://www.w3.org/1999/02/22-rdf-syntax-ns#"
   xmlns:cc="http://creativecommons.org/ns#"
   xmlns:dc="http://purl.org/dc/elements/1.1/">
  <defs
     id="defs750" />
  <sodipodi:namedview
     id="base"
     pagecolor="#ffffff"
     bordercolor="#666666"
     borderopacity="1.0"
     inkscape:pageopacity="0.0"
     inkscape:pageshadow="2"
     inkscape:zoom="0.5"
     inkscape:cx="885.64633"
     inkscape:cy="630.29801"
     inkscape:document-units="px"
     inkscape:current-layer="layer1"
     showgrid="true"
     units="px"
     inkscape:window-width="1118"
     inkscape:window-height="864"
     inkscape:window-x="688"
     inkscape:window-y="77"
     inkscape:window-maximized="0"
     showguides="true"
     inkscape:guide-bbox="true"
     inkscape:pagecheckerboard="0">
    <inkscape:grid
       type="xygrid"
       id="grid758" />
    <sodipodi:guide
       position="240,200"
       orientation="0,1"
       id="guide8"
       inkscape:locked="false" />
  </sodipodi:namedview>
  <metadata
     id="metadata753">
    <rdf:RDF>
      <cc:Work
         rdf:about="">
        <dc:format>image/svg+xml</dc:format>
        <dc:type
           rdf:resource="http://purl.org/dc/dcmitype/StillImage" />
        <dc:title />
      </cc:Work>
    </rdf:RDF>
  </metadata>
  <g
     inkscape:label="Layer 1"
     inkscape:groupmode="layer"
     id="layer1"
     transform="translate(0,-32.41664)"
     style="display:inline">
    <path
       style="fill:#000000;stroke-width:13.6681"
       d="M 101.2503,836.5092 C 51.838931,814.66745 26.460912,771.98191 48.628222,692.44884 67.096062,626.18891 147.73118,574.07405 210.39928,569.27817 c 24.59101,-1.88191 71.383,8.95068 110.18402,25.50905 37.09283,15.82905 89.10026,38.0688 103.8288,43.81945 21.10032,-27.25532 54.27162,-94.33731 41.11475,-126.11263 -9.75311,-23.5548 -27.56627,-28.96997 -144.02683,-43.78393 C 189.54293,451.92497 196.4527,452.45075 176.81379,486.3642 122.57894,580.01979 97.86829,600.28254 78.338195,597.79828 66.65573,596.31225 42.524006,583.96656 44.242749,571.35036 48.183083,542.42704 98.19976,452.71164 145.95852,380.62536 195.0453,306.53459 234.7841,244.16883 261.58113,199.51646 c 26.79704,-44.65236 34.64691,-63.05658 36.35995,-69.9413 -21.43521,0.88172 -123.41667,11.9449 -125.02678,24.60285 -0.77274,6.07497 -11.05922,9.81738 -22.85884,8.31645 C 121.88724,158.91142 113.05931,114.1483 135.41359,94.5722 152.56557,79.551808 254.5038,60.871778 327.59216,57.980375 332.4021,50.900016 338.84114,33.516921 361.69484,34.10189 383.8408,34.668744 394.51743,41.336795 404,51.828738 c 29.96177,1.514061 77.77974,5.668681 105.14077,-3.114277 38.47677,-12.351147 47.26112,-11.490571 59.04172,5.784137 25.8648,37.927335 -3.84072,63.974182 -89.35203,62.803552 -47.73289,-0.65346 -70.81917,5.16196 -93.49556,6.67653 -25.29439,56.13788 -51.4502,93.61727 -77.96062,143.47562 -24.91812,46.86369 -33.50909,61.15943 -52.6546,92.63856 -24.04819,39.54014 -34.18282,52.93703 -41.93093,67.56464 5.68013,-6.61166 90.70132,-28.64988 150.84905,-20.999 90.85665,11.5571 127.04292,24.13654 156.01703,51.75919 18.01062,17.17054 25.98067,46.99629 24.85101,71.94189 -1.12964,24.94561 -5.41022,57.97095 -31.08068,108.67786 -6.72576,13.28539 -13.17102,24.42856 -18.61887,33.16475 9.73491,5.49831 17.30881,9.97858 36.61495,18.98201 24.56255,11.45474 74.11405,28.49063 110.11443,37.85753 36.00039,9.36691 64.81618,22.05502 64.03506,28.1958 -2.89195,22.73519 -123.4111,29.76223 -198.25226,1.04222 0,0 -41.01313,-17.42848 -63.69207,-24.36268 -28.26671,24.38528 -60.70766,43.46288 -60.70766,43.46288 -102.61862,77.7522 -210.29587,90.67869 -281.66844,59.12925 z m 128.16518,-51.66978 c 54.62848,-18.69193 118.16664,-59.64038 145.92619,-86.63332 -14.72854,-5.75065 -40.12615,-22.09522 -57.0828,-28.19778 -16.95666,-6.10255 -44.45471,-26.44926 -73.56015,-40.94904 -29.10546,-14.49979 -61.71464,-24.40984 -72.46492,-22.02234 -50.91118,11.30673 -95.936474,126.30298 -63.65318,165.29485 19.84167,23.96487 71.67108,29.32973 120.83486,12.50763 z"
       id="path75"
       sodipodi:nodetypes="sssccssssssscssccscssscsscsssscsssscssscsssss" />
  </g>
</svg>
