<?xml version="1.0" encoding="UTF-8" standalone="no"?>
<!-- Created with Inkscape (http://www.inkscape.org/) -->

<svg
   width="1000"
   height="1000"
   viewBox="0 0 1000 1000"
   version="1.1"
   id="svg756"
   inkscape:version="1.1 (c68e22c387, 2021-05-23)"
   sodipodi:docname="u54b2.svg"
   xmlns:inkscape="http://www.inkscape.org/namespaces/inkscape"
   xmlns:sodipodi="http://sodipodi.sourceforge.net/DTD/sodipodi-0.dtd"
   xmlns="http://www.w3.org/2000/svg"
   xmlns:svg="http://www.w3.org/2000/svg"
   xmlns:rdf="http://www.w3.org/1999/02/22-rdf-syntax-ns#"
   xmlns:cc="http://creativecommons.org/ns#"
   xmlns:dc="http://purl.org/dc/elements/1.1/">
  <defs
     id="defs750" />
  <sodipodi:namedview
     id="base"
     pagecolor="#ffffff"
     bordercolor="#666666"
     borderopacity="1.0"
     inkscape:pageopacity="0.0"
     inkscape:pageshadow="2"
     inkscape:zoom="0.5"
     inkscape:cx="906.78737"
     inkscape:cy="666.28948"
     inkscape:document-units="px"
     inkscape:current-layer="layer1"
     showgrid="true"
     units="px"
     inkscape:window-width="1118"
     inkscape:window-height="864"
     inkscape:window-x="608"
     inkscape:window-y="24"
     inkscape:window-maximized="0"
     showguides="true"
     inkscape:guide-bbox="true"
     inkscape:pagecheckerboard="0">
    <inkscape:grid
       type="xygrid"
       id="grid758" />
    <sodipodi:guide
       position="240,200"
       orientation="0,1"
       id="guide8"
       inkscape:locked="false" />
  </sodipodi:namedview>
  <metadata
     id="metadata753">
    <rdf:RDF>
      <cc:Work
         rdf:about="">
        <dc:format>image/svg+xml</dc:format>
        <dc:type
           rdf:resource="http://purl.org/dc/dcmitype/StillImage" />
        <dc:title />
      </cc:Work>
    </rdf:RDF>
  </metadata>
  <g
     inkscape:label="Layer 1"
     inkscape:groupmode="layer"
     id="layer1"
     transform="translate(0,-32.41664)"
     style="display:inline">
    <path
       style="fill:#000000;stroke-width:9.73679"
       d="m 302.47169,820.25742 c 0,-9.49382 13.40553,-52.07512 29.79008,-94.62515 16.38456,-42.55002 24.43654,-69.93215 27.88126,-83.3464 -4.05231,-2.02616 -8.10462,-10.13077 -4.07155,-27.8208 2.83279,-12.42534 21.79197,-23.87039 25.34617,-25.87229 1.01308,-3.03923 2.02615,-8.10461 3.01216,-12.03632 -44.54832,19.12786 -63.77566,25.00952 -97.57866,47.15391 -37.13309,24.32593 -63.5119,-8.86409 -63.5119,-26.32887 0,-14.1927 79.63932,-64.89965 133.4692,-82.69561 18.53074,-6.1262 35.0599,-15.50572 44.87074,-20.30928 10.13077,-35.4577 29.37924,-146.89618 32.41847,-165.13157 -38.92562,14.07372 -47.47877,11.31754 -84.0854,23.30077 10.13077,50.65386 16.49699,80.01608 -7.23443,138.79065 -11.53918,27.16544 -62.27381,56.38017 -87.88031,68.59105 C 214.68696,579.10259 113.89284,585.56526 100.077,568.1392 94.769792,561.44516 85.176701,518.72503 78.759032,473.20555 72.341361,427.68608 60.811686,365.3151 53.137542,334.60338 45.463395,303.89165 39.184546,274.45368 39.184546,269.18567 c 0,-18.52348 60.15923,-20.55878 70.718784,4.87335 6.08812,14.66294 3.04889,7.5714 3.00149,-9.96011 -0.0676,-25.01677 28.96219,-55.22878 68.58817,-59.82862 31.75386,-3.68604 67.08765,-3.69437 87.4121,9.36121 32.36365,20.78904 49.70178,52.80276 64.89794,83.19507 10.13077,-10.13077 20.27736,-11.44365 57.59312,-24.81644 37.31575,-13.37279 42.70151,-16.71972 57.89767,-21.7851 5.06538,-15.19616 25.78459,-38.11644 32.07231,-39.45514 14.56974,-3.102 24.66001,0.95821 34.41615,15.72095 28.78366,-24.04284 47.32247,-56.79342 61.02363,-93.69474 10.10656,-27.21998 15.13918,-54.115539 12.42968,-72.576525 -3.4522,-23.52126 -1.06896,-29.389822 11.00543,-27.100368 10.85155,2.057587 43.05492,18.862316 47.84433,44.980958 4.78941,26.118635 -2.99188,59.704145 -12.64536,82.808145 -8.30654,19.88034 -20.00153,41.70209 -21.84142,43.76659 6.90528,-2.0645 20.07528,-4.09065 47.18809,-6.76213 56.02687,-5.52043 69.67202,19.92325 71.17227,31.00277 3.02263,22.32256 -32.70291,26.22441 -71.91,33.11007 -37.14039,6.52271 -85.04826,18.16101 -106.46191,25.86291 -12.97798,4.66781 -30.33857,10.96421 -38.93394,14.00344 -2.54848,13.17 -6.70618,32.32496 -14.11158,65.70975 -12.21892,55.08489 -17.44885,83.51267 -20.85537,95.36951 25.32693,-10.13077 180.57028,-66.66812 197.28944,-80.54379 14.11498,-11.7144 16.19247,44.94498 6.12021,61.24225 -6.9209,11.19822 -86.86076,45.06041 -170.07316,79.47073 -33.33649,13.78544 -31.31034,10.74621 -47.51957,18.85082 -4.05231,14.18308 -8.10462,32.41847 -11.14385,41.53617 86.11156,10.13077 101.43043,33.64159 143.57809,54.80561 122.37407,61.44891 181.42849,79.47074 216.94097,65.96891 14.63291,-5.56341 28.62713,-8.09344 31.09828,-5.62229 9.6727,9.67271 -15.60809,61.46258 -48.94268,70.6667 -41.99684,11.5959 -113.95001,-13.49572 -222.35432,-67.89348 -33.16323,-16.64145 -64.6011,-49.03621 -140.58188,-49.03621 -7.09154,23.30077 -8.10462,29.37924 -27.63989,87.7344 -13.66688,40.82526 -32.2782,78.50283 -37.27988,85.19687 -13.09021,17.51936 -66.7062,14.97385 -66.7062,-5.09049 z M 220.146,497.78368 c 55.87541,-25.36926 64.00648,-29.11763 63.05697,-96.17784 -1.28043,-90.43077 -35.91019,-136.11016 -96.12735,-130.34696 -26.54943,2.54096 -39.67878,10.37154 -47.92229,28.25104 -15.33283,33.25568 -14.23581,15.4128 -0.58875,106.2735 10.82265,72.0561 11.73848,79.17327 22.72764,92.68035 10.98917,13.50708 23.94704,15.16871 58.85378,-0.68009 z M 396.72304,224.79755 c -9.66129,-5.40673 -30.88843,-36.70772 -49.70024,-69.51799 -18.81182,-32.81026 -27.10369,-71.18211 -27.10369,-82.625932 0,-36.22508 49.13273,-27.440014 81.80858,36.762362 26.29151,51.65825 34.5215,50.56148 61.09265,45.24727 24.91332,-4.98267 22.83639,22.71617 14.18353,38.8842 -12.53513,23.42209 -59.99642,42.60183 -80.28083,31.25009 z"
       id="path39"
       sodipodi:nodetypes="sscsccsssccccssssssssscscscssssscsssscscsssccssssscsssssssssssssssss" />
  </g>
</svg>
