<?xml version="1.0" encoding="UTF-8" standalone="no"?>
<!-- Created with Inkscape (http://www.inkscape.org/) -->

<svg
   width="1000"
   height="1000"
   viewBox="0 0 1000 1000"
   version="1.1"
   id="svg756"
   inkscape:version="1.1 (c68e22c387, 2021-05-23)"
   sodipodi:docname="u5834.svg"
   xmlns:inkscape="http://www.inkscape.org/namespaces/inkscape"
   xmlns:sodipodi="http://sodipodi.sourceforge.net/DTD/sodipodi-0.dtd"
   xmlns="http://www.w3.org/2000/svg"
   xmlns:svg="http://www.w3.org/2000/svg"
   xmlns:rdf="http://www.w3.org/1999/02/22-rdf-syntax-ns#"
   xmlns:cc="http://creativecommons.org/ns#"
   xmlns:dc="http://purl.org/dc/elements/1.1/">
  <defs
     id="defs750" />
  <sodipodi:namedview
     id="base"
     pagecolor="#ffffff"
     bordercolor="#666666"
     borderopacity="1.0"
     inkscape:pageopacity="0.0"
     inkscape:pageshadow="2"
     inkscape:zoom="0.5"
     inkscape:cx="-144.52548"
     inkscape:cy="874.41259"
     inkscape:document-units="px"
     inkscape:current-layer="layer1"
     showgrid="true"
     units="px"
     inkscape:window-width="1118"
     inkscape:window-height="864"
     inkscape:window-x="666"
     inkscape:window-y="67"
     inkscape:window-maximized="0"
     showguides="true"
     inkscape:guide-bbox="true"
     inkscape:pagecheckerboard="0">
    <inkscape:grid
       type="xygrid"
       id="grid758" />
    <sodipodi:guide
       position="240,200"
       orientation="0,1"
       id="guide8"
       inkscape:locked="false" />
  </sodipodi:namedview>
  <metadata
     id="metadata753">
    <rdf:RDF>
      <cc:Work
         rdf:about="">
        <dc:format>image/svg+xml</dc:format>
        <dc:type
           rdf:resource="http://purl.org/dc/dcmitype/StillImage" />
        <dc:title />
      </cc:Work>
    </rdf:RDF>
  </metadata>
  <g
     inkscape:label="Layer 1"
     inkscape:groupmode="layer"
     id="layer1"
     transform="translate(0,-32.41664)"
     style="display:inline">
    <path
       style="fill:#000000;stroke-width:5.25136"
       d="m 431.17935,838.24552 c 2.87434,-12.08714 34.11131,-53.29666 51.41312,-87.96034 C 498,719.41664 501,708.41664 512.82769,674.72725 501,673.41664 486,670.41664 479.57566,669.06332 c -6.62034,8.29253 -17.45756,25.8052 -29.36974,46.02295 -24.85968,42.1927 -47.7105,52.20001 -68.05377,46.68885 -12.23555,-3.3147 -28.87545,-20.8346 -16.92863,-27.22834 10.62472,-5.68617 42.30357,-62.08193 50.77648,-76.13014 -11.29025,-2.08771 -23.77392,-4.20539 -34,-5 -13,10 -32,29 -46.24604,31.08856 -8.42516,1.23518 -47.89676,-8.96842 -40.76003,-22.76931 4.32849,-8.37042 13.45356,-22.00082 20.27794,-30.28972 6.82436,-8.28892 21.42475,-29.84024 32.44528,-47.89181 11.02053,-18.05157 22.9933,-30.63471 26.60613,-30.63471 11.05053,0 53.11079,17.36449 44.87784,37.06872 -4.30367,10.30019 -7.96042,15.51006 -10.14675,18.78953 19.81945,3.91895 12.70272,3.05064 30.63329,5.65213 3.79494,-5.07588 4.23376,-6.7091 5.65374,-11.18305 4.45076,-14.02309 59.27191,-9.83082 59.68068,4.18632 0.23048,7.90357 -0.86268,12.27622 -2.83969,15.89367 4.81761,0.0897 17.81761,2.08967 24.77185,2.03468 0.58637,-2.27644 1.0713,-12.24471 3.77591,-16.53027 6.39117,-10.12705 39.49688,-23.00573 52.45079,-12.42676 3.77318,3.08141 9.18846,9.47855 6.38472,19.97076 -1.23286,4.61362 -1.20398,6.15172 -2.32602,12.26575 10.93162,1.09316 38.21566,1.49875 55.51667,1.49875 48.69664,0 74.70851,17.4285 79.59258,25.88994 5.79629,10.04183 13.39898,35.6347 7.33189,64.93539 -3.20924,15.49885 -13.13825,42.72457 -17.60488,50.65871 -6.0759,10.79272 -19.42894,31.25501 -26.96491,42.47439 -19.50592,29.0401 -49.72161,53.60383 -70.13346,62.35381 -15.80298,6.77425 -51.53545,-6.8255 -64.68992,-14.23825 -10.28761,-5.79723 -15.83774,-25.49156 -14.6256,-28.02645 2.38539,-4.98839 4.63778,-6.1643 12.42247,-7.24645 18.95139,-2.63445 39.26892,-15.60886 56.1205,-34.38696 C 623.05868,771.54495 670,719.53704 656.71141,696.52053 652.9937,690.08126 633,688.41664 614.39742,686.04787 c -16.20135,-2.063 -26.78513,-2.77345 -38.04449,-3.63123 -10.5177,28.00985 -24.4943,58.10119 -40.0849,94.12535 -10.6223,24.54425 -29.26803,53.87465 -35.59728,64.32922 -15.02827,24.8235 -74.2378,17.33376 -69.4914,-2.62569 z M 48.413584,799.06615 c 1.224239,-7.75665 6.885014,-23.25988 20.644381,-37.19368 41.905215,-42.43658 106.417715,-119.16234 111.550515,-126.6476 -5.1328,-3.44635 -17.23522,-11.84686 -27.67603,-37.23999 -18.40761,-44.7693 -17.12545,-45.07477 -21.67091,-137.18515 -2.5782,-52.24504 0.28318,-79.85055 0.68887,-85.07624 -1.49886,-0.24012 -10.57663,-1.67811 -33.73882,-3.07325 -47.854595,-2.88243 -59.552098,-48.3679 -59.552098,-58.77967 0,-8.80577 0.702653,-8.89203 60.839558,-7.46925 15.90372,0.37627 16.05395,0.85043 34.59321,1.12879 4.83112,-36.07599 7.23191,-71.88767 10.94119,-112.54606 2.63806,-28.91635 6.4567,-41.4603 15.76043,-52.28772 15.44473,-17.97416 64.92216,-13.60755 58.02961,12.34176 -8.98111,33.81227 -17.05557,144.74176 -18.02869,153.30683 10.9316,0 130.11095,8.74529 156.53662,1.44922 17.04104,-4.70501 6.36916,29.1593 -0.20966,39.68594 -10.94446,17.51207 -37.14763,32.80238 -100.53066,29.48564 -27.97233,-1.46375 -37.21257,0.0372 -56.71758,-1.29198 -0.17188,13.354 -0.99469,26.78097 -1.49203,46.73041 -1.87272,75.11889 -1.82958,100.88698 13.29989,137.83736 8.25612,20.16376 11.8025,20.63069 17.00141,23.44324 15.87823,-12.91652 12.59134,-17.97648 37.98162,-25.08681 21.54236,-6.03274 47.73746,18.72901 47.73746,24.08295 0,4.6704 -25.40348,37.13979 -56.45216,72.15426 -31.0487,35.01442 -75.81822,86.79093 -99.48783,115.05886 -43.1097,51.48469 -61.124465,67.93841 -73.662809,68.14948 -17.717804,0.29826 -38.649415,-26.63335 -36.385487,-40.97734 z M 268.97309,549.78506 c -15.17424,-3.42557 -22.0065,-31.74491 -15.91445,-43.79041 4.93996,-9.76759 18.52422,-22.18547 29.35516,-24.11078 16.34036,-2.90468 24.06526,-1.99646 24.06526,5.33528 0,7.94684 6.20803,8.53799 61.70352,5.87539 33.93694,-1.62823 87.69778,-5.57653 119.46853,-8.77392 63.35996,-6.37657 192.22411,2.8037 204.97997,9.25473 C 720,507.41664 680,567.41664 654.45011,560.57292 619.79756,551.29099 523.10034,538.00774 462.30032,543.51311 c -35.15733,3.18343 -82.82731,6.13354 -105.93331,6.5558 -23.10599,0.42221 -37.73981,2.9081 -47.37059,3.0463 -10.12026,0.14522 -28.47242,-0.72254 -40.02333,-3.33015 z m 205.98897,-80.73807 c -13.74546,-3.45628 -31.06882,-41.91849 -31.06882,-50.98588 0,-5.91251 11.3259,-16.13981 24.05227,-9.55875 30.51458,15.77971 80.77448,13.24134 141.98881,-17.58568 26.76489,-13.47858 46.61037,-27.74241 59.57425,-46.5181 26.50838,-38.39231 22.14035,-61.03482 19.95403,-89.45701 -5.92158,-0.87039 -24.64275,-3.8136 -51.08545,-2.14441 -23.20115,1.46456 -56.59534,9.89965 -95.58672,16.07246 -47.23202,7.47739 -53.37632,9.02834 -74.39056,7.72904 -9.41701,-0.58226 -22.25035,-1.63737 -30.36434,-3.07334 1.55502,17.83339 1.84289,26.36038 3.38737,51.24869 3.5771,57.64263 -0.92571,71.65537 -10.54339,71.84031 -8.17183,0.15714 -46.27014,-6.31894 -47.45531,-29.72792 -2.52103,-49.79445 -17.19248,-243.66517 -20.2976,-264.02346 -2.74961,-18.027516 33.36882,-31.733986 60.69784,-26.26818 2.60283,-3.149091 8.09823,-5.762402 16.1204,-10.297098 49.46927,-27.963541 105.48377,-41.719794 159.00647,-28.376035 52.39711,13.063126 129.05638,78.361143 149.96495,141.709143 12.94907,39.2325 14.08374,117.78587 -2.35277,165.40111 -11.15482,32.3146 -40.87513,66.25771 -70.98092,87.61156 -30.10579,21.35382 -67.51328,26.5416 -108.73458,36.10571 -32.43781,7.52616 -66.70749,6.62893 -91.88593,0.29784 z M 572.09219,205.7071 c 39.50547,-7.06879 72.84043,-10.68844 110.81144,-6.67829 C 672.50595,166.62281 660,152.41664 633.25527,129.03325 611.738,110.22032 582.3328,96.060565 540.16474,95.262919 505.80841,94.613034 483.9483,106.99218 469.08868,114.46952 c -13.33919,6.71226 -28.86683,18.75852 -40.42566,23.67705 0.62723,22.4105 1.85864,20.58934 2.78796,39.53612 1.53337,31.2622 3.31429,32.84246 4.39823,39.92985 20.77007,3.27949 51.37858,3.27949 136.24298,-11.90544 z"
       id="path57"
       sodipodi:nodetypes="ssccsssccssssssccssccssscsssssssssssscssssscsscssscssscssscsscssssssssssssssssssssssscssscsssscsssssssscssscscs" />
  </g>
</svg>
