<?xml version="1.0" encoding="UTF-8" standalone="no"?>
<!-- Created with Inkscape (http://www.inkscape.org/) -->

<svg
   width="1000"
   height="1000"
   viewBox="0 0 1000 1000"
   version="1.1"
   id="svg756"
   inkscape:version="1.1 (c68e22c387, 2021-05-23)"
   sodipodi:docname="u5916.svg"
   xmlns:inkscape="http://www.inkscape.org/namespaces/inkscape"
   xmlns:sodipodi="http://sodipodi.sourceforge.net/DTD/sodipodi-0.dtd"
   xmlns="http://www.w3.org/2000/svg"
   xmlns:svg="http://www.w3.org/2000/svg"
   xmlns:rdf="http://www.w3.org/1999/02/22-rdf-syntax-ns#"
   xmlns:cc="http://creativecommons.org/ns#"
   xmlns:dc="http://purl.org/dc/elements/1.1/">
  <defs
     id="defs750" />
  <sodipodi:namedview
     id="base"
     pagecolor="#ffffff"
     bordercolor="#666666"
     borderopacity="1.0"
     inkscape:pageopacity="0.0"
     inkscape:pageshadow="2"
     inkscape:zoom="0.5"
     inkscape:cx="747"
     inkscape:cy="496"
     inkscape:document-units="px"
     inkscape:current-layer="layer1"
     showgrid="true"
     units="px"
     inkscape:window-width="1118"
     inkscape:window-height="864"
     inkscape:window-x="618"
     inkscape:window-y="23"
     inkscape:window-maximized="0"
     showguides="true"
     inkscape:guide-bbox="true"
     inkscape:pagecheckerboard="0">
    <inkscape:grid
       type="xygrid"
       id="grid758" />
    <sodipodi:guide
       position="240,200"
       orientation="0,1"
       id="guide8"
       inkscape:locked="false" />
  </sodipodi:namedview>
  <metadata
     id="metadata753">
    <rdf:RDF>
      <cc:Work
         rdf:about="">
        <dc:format>image/svg+xml</dc:format>
        <dc:type
           rdf:resource="http://purl.org/dc/dcmitype/StillImage" />
        <dc:title />
      </cc:Work>
    </rdf:RDF>
  </metadata>
  <g
     inkscape:label="Layer 1"
     inkscape:groupmode="layer"
     id="layer1"
     transform="translate(0,-32.41664)"
     style="display:inline">
    <path
       style="fill:#000000;stroke-width:11.334"
       d="M 540,872.41664 C 520.43911,849.32751 518.80287,832.22421 519.01099,653.02304 519.19843,491.61776 506.28493,432.99277 484.14974,307.19822 469.49029,223.88836 457.49619,128.30261 457.49619,94.785476 c 0,-52.367326 19.7503,-60.940265 37.36399,-60.940265 27.57581,0 28.55531,28.343546 39.8044,123.137839 17.86389,150.53599 31.17852,190.08906 33.67651,205.78914 10.54175,6.46474 45.32951,29.09131 74.49267,49.80124 48.38686,34.36145 58.61921,41.29918 106.12247,35.91143 17.74483,-2.01259 30.14326,-18.89748 43.44576,-6.7265 9.12516,8.34898 9.78876,20.34372 9.78876,32.86141 0,31.75637 -5.45091,39.67651 -35.31304,51.30954 -29.31683,11.4206 -44.57243,9.60358 -89.84362,-10.70082 -29.99182,-13.45153 -56.4739,-31.23501 -70.56109,-41.48131 -15.6743,-11.40068 -21.26511,-15.3843 -29.69851,-20.77158 0.76271,12.39451 3.16252,26.9364 6.79274,61.10715 3.2636,30.71982 9.27696,122.61326 9.52684,204.74811 0.35021,115.12181 -2.97089,152.69149 -14.49582,163.98157 C 566.72136,894.4473 556.85369,892.31027 540,872.41664 Z M 167.22283,820.84502 c -24.96663,-12.39117 -40.10187,-44.78547 -44.01772,-76.60795 -4.18264,-33.99053 -14.04748,-91.56833 -10.63567,-130.49789 3.41183,-38.92956 4.25982,-53.01798 36.37415,-77.56561 18.40061,-14.0651 19.86529,8.38579 20.91242,94.89012 0.49339,40.75897 11.74717,84.19054 14.3687,97.7357 2.62153,13.54517 6.95185,25.12098 14.29917,27.44366 3.99473,1.26284 13.83645,-4.16396 20.59719,-13.9943 14.1192,-20.52978 20.8058,-45.09447 36.4491,-88.23643 15.6433,-43.14197 33.08958,-108.3755 37.30627,-148.24138 -8.16924,-3.87873 -12.95561,-5.71948 -65.03745,-39.00498 l -55.42018,-33.98592 -29.66463,43.01863 c -30.47018,44.18681 -44.311215,42.04152 -69.157199,28.679 -44.413952,-23.88642 -49.22225,-77.5119 23.702774,-207.28354 24.268865,-43.18695 48.370455,-67.59622 55.508425,-74.86103 6.76652,-6.88676 35.38974,-17.2293 47.08419,-27.33422 5.96336,-19.09627 24.17435,-74.03913 45.64346,-121.479419 11.33192,-25.040163 23.44118,-30.148274 44.00429,-12.134217 15.39212,13.484071 16.11226,21.84249 5.40181,62.696886 -9.88104,37.6907 -19.17165,59.01458 -23.98646,72.91675 31.62525,32.32368 57.14927,67.12528 71.53993,103.93296 14.39064,36.80766 20.98725,76.74719 24.10285,96.35031 7.20508,45.3338 4.98617,151.44979 -51.36859,298.12105 -46.11047,120.009 -96.97568,150.76907 -148.00683,125.44182 z M 294.29854,383.86449 c -7.89555,-51.00024 -27.77646,-90.35238 -47.74306,-101.58871 -11.65864,16.62361 -36.75701,76.18673 -44.95884,94.81316 5.9742,2.3862 30.27664,20.56884 50.12193,33.63222 19.8453,13.06339 41.15787,23.31804 46.42875,25.47295 0.46901,-11.9149 0.0831,-26.93244 -3.84878,-52.32962 z M 138.16525,345.82733 c 6.82555,-13.68073 19.77683,-33.99847 35.58945,-71.70943 -26.35436,32.32368 -71.76837,124.67309 -69.66002,126.828 2.10835,2.15491 23.73275,-34.39809 34.07057,-55.11857 z"
       id="path57"
       sodipodi:nodetypes="sssssscssssssscssssssssssssscscsssscssscsssssccscsscss" />
  </g>
</svg>
