<?xml version="1.0" encoding="UTF-8" standalone="no"?>
<!-- Created with Inkscape (http://www.inkscape.org/) -->

<svg
   width="1000"
   height="1000"
   viewBox="0 0 1000 1000"
   version="1.1"
   id="svg756"
   inkscape:version="1.1 (c68e22c387, 2021-05-23)"
   sodipodi:docname="u591a.svg"
   xmlns:inkscape="http://www.inkscape.org/namespaces/inkscape"
   xmlns:sodipodi="http://sodipodi.sourceforge.net/DTD/sodipodi-0.dtd"
   xmlns="http://www.w3.org/2000/svg"
   xmlns:svg="http://www.w3.org/2000/svg"
   xmlns:rdf="http://www.w3.org/1999/02/22-rdf-syntax-ns#"
   xmlns:cc="http://creativecommons.org/ns#"
   xmlns:dc="http://purl.org/dc/elements/1.1/">
  <defs
     id="defs750" />
  <sodipodi:namedview
     id="base"
     pagecolor="#ffffff"
     bordercolor="#666666"
     borderopacity="1.0"
     inkscape:pageopacity="0.0"
     inkscape:pageshadow="2"
     inkscape:zoom="0.5"
     inkscape:cx="863"
     inkscape:cy="650"
     inkscape:document-units="px"
     inkscape:current-layer="layer1"
     showgrid="true"
     units="px"
     inkscape:window-width="1118"
     inkscape:window-height="864"
     inkscape:window-x="645"
     inkscape:window-y="21"
     inkscape:window-maximized="0"
     showguides="true"
     inkscape:guide-bbox="true"
     inkscape:pagecheckerboard="0">
    <inkscape:grid
       type="xygrid"
       id="grid758" />
    <sodipodi:guide
       position="240,200"
       orientation="0,1"
       id="guide8"
       inkscape:locked="false" />
  </sodipodi:namedview>
  <metadata
     id="metadata753">
    <rdf:RDF>
      <cc:Work
         rdf:about="">
        <dc:format>image/svg+xml</dc:format>
        <dc:type
           rdf:resource="http://purl.org/dc/dcmitype/StillImage" />
        <dc:title />
      </cc:Work>
    </rdf:RDF>
  </metadata>
  <g
     inkscape:label="Layer 1"
     inkscape:groupmode="layer"
     id="layer1"
     transform="translate(0,-32.41664)"
     style="display:inline">
    <path
       style="fill:#000000;stroke-width:4.95132"
       d="m 144.79098,835.0175 c -22.21679,-7.8654 -56.81882,-51.4314 -25.8061,-51.4314 37.59321,0 75.73686,-2.20007 108.69119,-24.08055 12.88734,-8.55672 49.2586,-36.46235 79.11198,-63.2054 29.85338,-26.74305 53.18888,-52.32351 55.6304,-56.22994 -6.83623,-1.9532 7.39121,4.9175 -9.62897,-4.17953 -20.73188,-11.08088 -35.34051,-17.70004 -52.90708,-29.81539 -17.56657,-12.11536 -32.13791,-23.7737 -40.88882,-33.02655 -5.62471,-5.94732 -2.93148,-4.1771 -6.8379,-7.10691 -1.95321,1.9532 -5.0692,3.59751 -8.54255,5.45638 -11.35356,6.07625 -48.70623,-28.11602 -48.70623,-34.23257 0,-5.19472 77.15404,-112.61472 97.13602,-135.24046 13.04487,-14.77078 50.99382,19.20209 50.99382,35.13142 0,4.65465 -8.18897,20.43588 -20.55829,39.00465 -17.43808,26.17796 -10.21328,21.70911 -27.5428,41.03491 7.02687,6.85166 3.30709,2.58378 8.86706,7.78208 13.38609,12.51534 24.31345,21.66106 37.60056,30.72368 13.28711,9.0626 17.12112,10.13565 39.94617,22.31848 0,0 5.10747,2.72647 20.13319,7.45994 15.69267,-15.71727 30.19384,-45.88909 36.54049,-62.24038 10.33654,-26.63066 13.34944,-33.92809 3.10525,-50.54536 -7.41778,-12.03252 -18.06685,-20.91554 -43.58979,-22.58085 -22.26074,-1.45244 -31.12013,2.64192 -37.61696,7.05815 -6.27538,4.26571 -11.34145,7.01502 -13.83066,2.9874 -1.97851,-3.20129 0.084,-20.73468 1.32981,-25.19084 2.22275,-7.9498 7.00042,-19.08046 9.73368,-21.57088 9.36773,-8.53547 34.01807,-29.4091 63.21454,-29.13407 48.82041,0.45988 89.32082,24.41997 103.3751,67.75584 10.4464,32.21114 10.02366,85.25762 -22.99374,137.56056 -6.84284,10.83972 -10.81378,16.85263 -14.06914,20.45592 11.71926,11.71926 1.90641,62.54951 -46.92382,60.5963 -4.88303,4.88302 -25.11316,27.17107 -46.83509,49.15924 -50.63424,51.25484 -110.62296,98.53938 -144.77245,108.98636 -26.56913,8.12799 -78.06988,15.29282 -103.35887,6.33977 z M 47.1643,496.53551 C 30,472.41664 37.95517,423.72231 46.439135,423.72231 c 2.389786,0 9.072001,9.20178 12.462116,13.28662 18.149919,21.86929 76.398109,-7.61996 169.273769,-90.61443 16.61063,-14.8434 23.21238,-19.9052 37.46596,-33.18671 -11.71925,-15.08963 -14.75553,-17.76304 -26.1333,-31.64453 -18.77335,-22.90448 -36.95871,-43.4263 -40.41197,-45.60404 -9.54323,-6.01831 5.90547,-35.00503 16.05866,-34.91619 12.64605,0.11067 35.62528,-12.21832 72.28773,35.56747 18.54533,24.17194 23.12271,28.30309 26.98091,32.80614 10.79087,-9.38606 32.89398,-36.08252 39.08426,-48.22306 13.09275,-25.67791 14.5057,-64.56502 -13.64096,-95.65228 -20.72756,-22.89308 -33.99737,-25.43996 -61.2255,-25.19348 -8.47618,0.0767 -11.945,6.87163 -9.97851,17.15874 2.03027,10.62064 1.15469,19.46797 -25.25028,43.9879 -17.3719,16.13173 -43.8398,37.70321 -58.81755,47.93659 -14.97775,10.23338 -36.75427,25.76312 -48.39229,34.51054 -19.03013,14.30349 -65.171886,-12.19409 -65.171886,-23.20947 0,-2.26152 11.697496,-18.01851 25.994436,-30.24103 14.29694,-12.22251 43.8192,-37.612 65.605,-56.42111 21.78583,-18.80908 44.54081,-36.83341 50.56667,-40.054028 6.30817,-3.371518 7.8691,-14.669887 6.33032,-18.679857 -4.73185,-12.331028 22.89842,-41.855297 40.82846,-43.996027 21.98167,-2.624466 62.16283,-1.601072 93.52289,11.33836 44.95893,18.550448 80.70877,81.679472 86.93739,141.271872 3.84173,36.75562 -1.94512,71.9144 -43.61868,113.04042 -13.78256,13.60149 -26.87192,24.7999 -31.75494,29.68293 11.71926,12.69586 12.68779,3.69146 15.33552,7.20444 15.91583,21.1171 -17.13065,73.38504 -26.49995,73.38504 -3.25502,0 -19.01968,-12.3028 -26.17958,-20.16419 -4.33935,-4.7645 -6.55642,-7.64184 -13.39265,-14.47807 -8.22187,7.68611 -6.99237,6.32634 -15.63279,14.56558 C 220.04932,462.54045 125,522.41664 85.78629,516.17975 65.221713,512.90898 54.938987,507.46032 47.1643,496.53551 Z"
       id="path75"
       sodipodi:nodetypes="sssscssscssssscssscssssssssssccssssssscsssscsssssssssssssssscssscsss" />
  </g>
</svg>
