<?xml version="1.0" encoding="UTF-8" standalone="no"?>
<!-- Created with Inkscape (http://www.inkscape.org/) -->

<svg
   width="1000"
   height="1000"
   viewBox="0 0 1000 1000"
   version="1.1"
   id="svg756"
   inkscape:version="1.1 (c68e22c387, 2021-05-23)"
   sodipodi:docname="u5948.svg"
   xmlns:inkscape="http://www.inkscape.org/namespaces/inkscape"
   xmlns:sodipodi="http://sodipodi.sourceforge.net/DTD/sodipodi-0.dtd"
   xmlns="http://www.w3.org/2000/svg"
   xmlns:svg="http://www.w3.org/2000/svg"
   xmlns:rdf="http://www.w3.org/1999/02/22-rdf-syntax-ns#"
   xmlns:cc="http://creativecommons.org/ns#"
   xmlns:dc="http://purl.org/dc/elements/1.1/">
  <defs
     id="defs750" />
  <sodipodi:namedview
     id="base"
     pagecolor="#ffffff"
     bordercolor="#666666"
     borderopacity="1.0"
     inkscape:pageopacity="0.0"
     inkscape:pageshadow="2"
     inkscape:zoom="0.5"
     inkscape:cx="879"
     inkscape:cy="656"
     inkscape:document-units="px"
     inkscape:current-layer="layer1"
     showgrid="true"
     units="px"
     inkscape:window-width="1118"
     inkscape:window-height="864"
     inkscape:window-x="338"
     inkscape:window-y="51"
     inkscape:window-maximized="0"
     showguides="true"
     inkscape:guide-bbox="true"
     inkscape:pagecheckerboard="0">
    <inkscape:grid
       type="xygrid"
       id="grid758" />
    <sodipodi:guide
       position="240,200"
       orientation="0,1"
       id="guide8"
       inkscape:locked="false" />
  </sodipodi:namedview>
  <metadata
     id="metadata753">
    <rdf:RDF>
      <cc:Work
         rdf:about="">
        <dc:format>image/svg+xml</dc:format>
        <dc:type
           rdf:resource="http://purl.org/dc/dcmitype/StillImage" />
        <dc:title />
      </cc:Work>
    </rdf:RDF>
  </metadata>
  <g
     inkscape:label="Layer 1"
     inkscape:groupmode="layer"
     id="layer1"
     transform="translate(0,-32.41664)"
     style="display:inline">
    <path
       style="fill:#000000;stroke-width:7.51394"
       d="m 426,666.41664 c 14.66012,-8.52737 16.95385,-8.18593 65.43067,5.37347 31.02695,8.67852 56.22916,20.58714 63.07037,29.55746 7.85349,10.29764 6.55968,22.33317 -10.6582,36.62064 -15.06914,12.50446 -16.98835,11.15591 -45.00047,7.1583 -18.31917,-2.61433 -40.11362,-7.18495 -58.56343,-19.80901 -10.08502,-6.90057 -19.763,-12.36568 -25.78637,-25.77217 C 410.10993,689.79067 416.1119,672.16826 426,666.41664 Z M 355.80963,473.38651 c -33.27501,4.95567 -79.61056,16.09679 -119.94191,30.58405 -48.86174,17.55142 -56.41197,26.75867 -78.48992,16.65872 -10.69834,-4.89415 -14.56368,-8.20272 -23.63873,-15.29325 -4.35421,4.64575 -9.68721,11.60359 -16.17314,17.41249 -17.27713,15.47359 -43.476411,23.25254 -67.318733,16.92949 -27.766915,-7.36386 10.071867,-52.53104 52.934343,-142.48358 20.33175,-42.66885 62.33032,-116.99822 67.25092,-122.30059 -12.13846,-1.85609 -44.09967,14.56299 -65.66721,-0.42134 -8.134649,-5.65166 -16.152251,-8.13828 -17.09923,-12.94039 -3.07797,-15.60828 25.51506,-41.17426 57.90091,-52.45276 14.04853,-4.89245 59.31852,-10.46506 68.89151,-13.31841 10.35971,-16.2666 29.97296,-43.52925 48.41053,-73.82507 22.82137,-37.499115 46.42145,-74.107226 57.16834,-80.8507 23.20137,-14.558406 18.84791,-6.683553 34.89827,17.278005 9.2937,13.874541 9.39958,21.252419 0.664,46.269265 -3.46426,9.92088 -37.3261,58.38951 -45.58991,71.71736 25.00731,-5.95931 50.23231,-13.80267 74.06781,-20.3962 27.3697,-7.57118 66.33777,-20.94609 92.95269,-7.16861 10.94435,5.66546 23.43769,15.20156 19.57212,26.21532 -2.73803,7.8012 4.25986,7.45796 -1.93351,15.23411 -15.08254,18.93716 -39.2045,20.28457 -60.97995,26.57982 -37.46738,10.83175 -133.18979,32.64124 -137.25041,34.25376 6.37211,4.76114 57.87723,37.56579 101.23839,64.67249 92.84822,58.04293 119.01108,68.59147 116.76194,91.82813 -2.27994,23.55507 -22.43597,27.47682 -55.11216,15.64829 -11.82111,-4.27915 -23.58546,-12.53201 -28.22085,-15.0662 8.01096,7.9992 11.12008,14.79133 15.27308,21.26036 4.97896,7.75559 6.94674,18.89382 4.37283,24.75162 -1.7262,3.92856 -4.62795,10.8053 -16.5771,13.0465 -24.0175,4.50477 -45.0899,1.22164 -78.36492,6.17732 z m 215.86548,-26.73518 c 6.91178,5.85441 11.62981,6.45926 17.0917,7.03815 14.94267,1.58373 23.44102,6.25617 17.41995,23.76234 -3.34266,9.71873 -22.67876,22.39798 -51.65681,33.8729 -25.47291,10.08692 -73.90246,30.75142 -107.62125,45.9211 -29.37461,13.21528 -64.33768,29.52388 -74.58708,34.56626 3.50841,20.24495 6.60293,53.9029 6.63357,75.50577 0.054,38.04078 -2.20435,73.05879 -5.48456,112.31539 -3.3414,39.989 -6.17995,63.11735 -18.33191,75.45858 -11.16337,11.33725 -21.0032,13.44205 -24.7055,14.01263 -14.34183,2.21031 -34.58285,-11.55195 -55.24639,-35.76021 -6.86678,-8.04472 -14.82039,-23.57144 -17.65562,-32.70547 -5.03144,-16.20937 27.90589,-8.48466 37.39172,-16.98028 12.43087,-11.13323 16.71835,-21.575 18.53302,-74.8427 1.16306,-34.14058 -3.27863,-81.07048 -3.65768,-87.23934 -9.08745,3.12264 -57.70687,21.30601 -108.26726,41.19709 C 99.253526,703.01078 68.273291,719.89 49.984883,687.41396 28.269484,648.85232 38.22393,650.25258 221.66479,572.95792 c 96.14266,-40.51068 205.951,-89.81671 267.74091,-112.61444 61.78992,-22.79772 69.87206,-24.1929 82.26941,-13.69215 z M 201.20652,838.27696 c -23.81544,30.8921 -50.20578,34.56134 -68.42132,7.36739 -14.17386,-21.16007 3.91568,-47.96425 36.94649,-92.08139 33.19007,-44.32983 54.76411,-55.76489 85.71179,-45.92176 32.10119,10.21001 22.58687,25.3986 4.14906,50.08549 -20.74586,27.77721 -39.20604,55.67102 -58.38602,80.55027 z m 78.92459,-420.76421 c 22.40629,-6.10016 58.37242,-10.57064 79.73186,-12.08947 14.01123,-0.99631 40.05582,-3.75774 62.84036,-1.22746 -12.63298,-6.56159 -47.16295,-25.77814 -56.61737,-31.98078 -39.79097,-26.10521 -80.69659,-53.93964 -121.63537,-78.76771 l -29.51791,51.98836 c -11.91712,20.98901 -48.70341,94.33923 -55.71612,108.46392 14.21218,-5.64382 35.55832,-9.0956 52.14632,-15.1185 15.41622,-5.59745 46.36193,-15.1682 68.76823,-21.26836 z"
       id="path39"
       sodipodi:nodetypes="ssssssssssscssscssscsssscssssscssscssssssssscsssssssscssscssssssssscscscss" />
  </g>
</svg>
