<?xml version="1.0" encoding="UTF-8" standalone="no"?>
<!-- Created with Inkscape (http://www.inkscape.org/) -->

<svg
   width="1000"
   height="1000"
   viewBox="0 0 1000 1000"
   version="1.1"
   id="svg756"
   inkscape:version="1.1 (c68e22c387, 2021-05-23)"
   sodipodi:docname="u5973.svg"
   xmlns:inkscape="http://www.inkscape.org/namespaces/inkscape"
   xmlns:sodipodi="http://sodipodi.sourceforge.net/DTD/sodipodi-0.dtd"
   xmlns="http://www.w3.org/2000/svg"
   xmlns:svg="http://www.w3.org/2000/svg"
   xmlns:rdf="http://www.w3.org/1999/02/22-rdf-syntax-ns#"
   xmlns:cc="http://creativecommons.org/ns#"
   xmlns:dc="http://purl.org/dc/elements/1.1/">
  <defs
     id="defs750" />
  <sodipodi:namedview
     id="base"
     pagecolor="#ffffff"
     bordercolor="#666666"
     borderopacity="1.0"
     inkscape:pageopacity="0.0"
     inkscape:pageshadow="2"
     inkscape:zoom="0.5"
     inkscape:cx="749"
     inkscape:cy="570"
     inkscape:document-units="px"
     inkscape:current-layer="layer1"
     showgrid="true"
     units="px"
     inkscape:window-width="1118"
     inkscape:window-height="864"
     inkscape:window-x="689"
     inkscape:window-y="95"
     inkscape:window-maximized="0"
     showguides="true"
     inkscape:guide-bbox="true"
     inkscape:pagecheckerboard="0">
    <inkscape:grid
       type="xygrid"
       id="grid758" />
    <sodipodi:guide
       position="240,200"
       orientation="0,1"
       id="guide8"
       inkscape:locked="false" />
  </sodipodi:namedview>
  <metadata
     id="metadata753">
    <rdf:RDF>
      <cc:Work
         rdf:about="">
        <dc:format>image/svg+xml</dc:format>
        <dc:type
           rdf:resource="http://purl.org/dc/dcmitype/StillImage" />
        <dc:title />
      </cc:Work>
    </rdf:RDF>
  </metadata>
  <g
     inkscape:label="Layer 1"
     inkscape:groupmode="layer"
     id="layer1"
     transform="translate(0,-32.41664)"
     style="display:inline">
    <path
       style="fill:#000000;stroke-width:10.3948"
       d="m 410.79708,872.41664 c -39.60146,-31.7274 -48.65322,-40.27333 -60.01365,-49.17873 -17.96047,-14.07917 -24.76691,-19.00535 -45.74862,-33.65758 -12.9624,9.31102 -27.06308,18.56391 -41.16969,27.90442 -40.98136,27.13526 -147.71077,25.60303 -187.800024,-6.62084 -35.15223,-28.25549 -36.568581,-72.77445 -34.288646,-102.64192 2.2427,-29.37972 25.316593,-74.8844 42.288646,-96.24922 -5.657347,-21.36482 0.782143,-58.59038 9.65966,-81.36345 C 134.84004,425.13824 220.96894,337.16666 276.67775,254.69111 317.9368,193.60808 384.59219,122.27643 385.43756,49.458291 c 0.31276,-26.940926 26.48824,-33.725304 67.43,-20.465193 19.38028,6.276836 25.81775,38.289567 8.84568,53.638319 -4.49401,4.064174 -5.86348,11.276011 -11.31469,23.874343 -38.64347,89.30891 -102.9638,173.35689 -154.00041,246.15667 -37.15727,53.00201 -75.68808,102.39176 -109.63218,154.11722 -12.7851,22.17108 -29.15529,51.78107 -29.15529,62.46348 16.97205,-7.47769 50.94131,-25.23014 73.54557,-34.30919 38.95253,-15.64538 66.17378,-23.58053 105.89083,-35.43691 24.90829,-7.43565 54.85766,-15.57671 71.82971,-20.91792 5.65736,-16.02361 11.60925,-34.50005 16.60558,-58.91308 5.397,-26.37075 11.68118,-39.3651 16.93444,-62.5629 2.32627,-10.27254 17.17411,-15.66584 23.8417,-15.66584 24.16192,0 52.45061,30.02092 52.45061,63.39117 0,15.86706 -14.32252,49.90751 -14.70911,53.31759 15.84058,-3.20472 22.5497,-4.40945 39.33318,-6.52898 18.71613,-2.3636 35.58741,-3.33771 36.70235,5.92255 1.11496,9.26026 -10.7529,31.56181 -27.42745,41.70793 -15.19041,9.24305 -33.11014,17.62815 -74.97454,36.85649 -16.97206,32.04723 -33.94411,65.1627 -50.49094,95.69893 -20.44603,37.732 -47.94698,75.21965 -81.25999,108.93839 16.34095,6.87442 43.67078,26.70526 66.79879,42.18525 18.07574,12.09842 28.74288,23.05719 34.44998,24.31484 2.1357,-2.87241 3.26717,-5.00889 7.79304,-13.15466 3.87644,-6.97689 9.80054,-17.36534 15.25464,-15.94604 18.68947,4.86347 9.63771,32.63774 18.00252,52.02271 10.32302,23.92309 3.0517,44.60882 -0.72564,52.91694 -5.05315,11.11419 -20.72489,21.24336 -32.90453,19.42091 -12.17964,-1.82245 -28.88598,-18.17263 -43.75433,-30.08467 z M 161.32656,721.45421 c -29.82615,-20.61893 -35.66,-26.04576 -43.58029,-35.70538 -11.10731,17.64161 -4.91217,62.98349 10.74897,73.79616 34.50985,20.2545 72.97983,10.64033 102.39806,-5.38328 -8.91105,-6.0747 -40.93499,-12.91427 -69.56674,-32.7075 z m 117.08849,-12.15863 c 28.28676,-26.70603 39.60147,-40.59316 56.57352,-64.71894 18.60928,-26.45309 33.94411,-50.6511 50.91616,-88.03954 -28.28676,8.54593 -64.4938,20.29658 -98.43791,33.17312 -50.10265,19.0062 -82.59734,30.92135 -116.28033,50.68081 5.39623,12.28777 25.64443,23.19648 39.34035,31.51611 50.00416,30.37522 52.04763,29.91075 67.88821,37.38844 z"
       id="path77"
       sodipodi:nodetypes="sscssscsssssssccsscsssscssscscscssssssscccscccscsc" />
  </g>
</svg>
