<?xml version="1.0" encoding="UTF-8" standalone="no"?>
<!-- Created with Inkscape (http://www.inkscape.org/) -->

<svg
   width="1000"
   height="1000"
   viewBox="0 0 1000 1000"
   version="1.1"
   id="svg756"
   inkscape:version="1.1 (c68e22c387, 2021-05-23)"
   sodipodi:docname="u59eb.svg"
   xmlns:inkscape="http://www.inkscape.org/namespaces/inkscape"
   xmlns:sodipodi="http://sodipodi.sourceforge.net/DTD/sodipodi-0.dtd"
   xmlns="http://www.w3.org/2000/svg"
   xmlns:svg="http://www.w3.org/2000/svg"
   xmlns:rdf="http://www.w3.org/1999/02/22-rdf-syntax-ns#"
   xmlns:cc="http://creativecommons.org/ns#"
   xmlns:dc="http://purl.org/dc/elements/1.1/">
  <defs
     id="defs750" />
  <sodipodi:namedview
     id="base"
     pagecolor="#ffffff"
     bordercolor="#666666"
     borderopacity="1.0"
     inkscape:pageopacity="0.0"
     inkscape:pageshadow="2"
     inkscape:zoom="0.35355339"
     inkscape:cx="807.32023"
     inkscape:cy="736.75915"
     inkscape:document-units="px"
     inkscape:current-layer="layer1"
     showgrid="true"
     units="px"
     inkscape:window-width="1118"
     inkscape:window-height="711"
     inkscape:window-x="541"
     inkscape:window-y="164"
     inkscape:window-maximized="0"
     showguides="true"
     inkscape:guide-bbox="true"
     inkscape:pagecheckerboard="0">
    <inkscape:grid
       type="xygrid"
       id="grid758" />
    <sodipodi:guide
       position="240,200"
       orientation="0,1"
       id="guide8"
       inkscape:locked="false" />
  </sodipodi:namedview>
  <metadata
     id="metadata753">
    <rdf:RDF>
      <cc:Work
         rdf:about="">
        <dc:format>image/svg+xml</dc:format>
        <dc:type
           rdf:resource="http://purl.org/dc/dcmitype/StillImage" />
        <dc:title />
      </cc:Work>
    </rdf:RDF>
  </metadata>
  <g
     inkscape:label="Layer 1"
     inkscape:groupmode="layer"
     id="layer1"
     transform="translate(0,-32.41664)"
     style="display:inline">
    <path
       style="fill:#000000;stroke-width:9.64654"
       d="m 367.40198,823.88216 c -20.69263,-25.51624 -54.88482,-57.01205 -74.80002,-73.87802 l -29.17706,-23.48486 -22.22207,35.62539 c -12.41227,19.89877 -36.26607,43.08955 -50.98653,52.2124 -24.50576,15.1872 -55.48696,13.08255 -85.02428,-3.23982 C 59.787229,786.02646 43.900643,750.29546 43.669887,696.82048 43.408841,636.32625 68.068713,589.8077 118.12049,544.00633 c 20.49504,-18.75461 28.20398,-30.93507 39.74673,-41.87759 0,-27.35629 1.77137,-71.12636 10.80663,-117.67548 2.79685,-14.40916 16.01781,-68.04233 28.57635,-111.60398 12.55853,-43.56163 25.14181,-106.46824 27.96285,-147.12577 5.93158,-85.487609 32.25846,-99.251003 62.44557,-92.335229 16.94893,3.882951 21.97344,11.542063 21.97344,33.495229 0,33.32115 -20.01148,145.1152 -57.16863,284.79236 -13.84664,52.05082 -22.7206,94.26899 -22.65385,110.15406 11.54275,-7.65976 20.97912,-13.90974 36.12916,-24.2662 11.86981,-8.11411 26.43339,-18.12251 36.67007,-24.44639 6.98792,-13.23487 2.96955,-28.95956 13.55327,-51.8108 22.63788,-48.87723 45.59466,-51.19528 52.35633,-20.20747 2.53201,11.60383 -2.19586,20.2482 -2.19586,31.19072 11.54274,-5.47127 19.21412,-18.80849 23.90548,-27.90563 7.4029,-14.35511 42.76866,-5.02804 42.76866,9.6237 0,6.48789 -5.46632,37.78429 -24.36961,59.76977 -19.83274,23.06647 -30.48633,21.34463 -53.61865,42.58104 -7.00843,31.05797 -17.76402,78.9553 -30.3031,122.00135 -12.53909,43.04604 -27.83156,70.06647 -29.41064,78.96397 10.15728,21.63495 105.23519,80.1139 116.77794,91.05642 C 429,732.41664 425.03045,721.28114 433.26327,545.0069 c 6.07069,-129.98091 5.44665,-193.75361 -2.3717,-242.36868 -12.47787,-77.58829 -5.73108,-100.517 21.8355,-95.8123 13.98157,2.38619 39.21793,6.69473 42.94549,29.05571 2.11494,12.6872 1.61158,16.76478 2.07746,18.98298 1.15427,-4.37701 3.94542,-10.72084 6.46681,-12.5924 8.77092,-6.51042 14.29372,-9.96326 32.35705,-13.63631 17.70632,-3.60045 65.15899,-18.62273 98.11705,-30.9384 64.57222,-24.12915 89.87616,-14.43622 89.87616,24.22053 0,16.2579 -3.29742,31.15646 -31.99281,31.15646 -15.12705,0 -21.57428,4.34215 -27.57428,6.34215 -2,8 -3.82159,11.84531 -6.08453,21.0898 -2.91547,11.9102 -5.92507,27.4024 -13.12847,56.08726 -7.2034,28.68483 -12.25117,52.95966 -11.21729,53.94407 1.03388,0.98443 16.76698,3.6445 32.51801,13.24465 41.3756,25.21818 70.4603,64.80902 25.27234,112.89534 C 675.59263,534.52066 643,547.41664 628,552.41664 c -1.12251,17.70639 -4.06867,46.91571 -4.46792,83.745 -0.40636,37.48486 1.01574,59.40874 4.46792,74.255 15,0 62.00649,-3.9905 93.03044,-10.02324 31.02396,-6.03276 67.79729,0.99545 81.7185,0.95157 21.21228,-0.0665 23.57954,2.42094 14.61778,15.36205 -20.25458,29.24835 -102.76035,56.64047 -207.80051,68.99031 -104.09949,12.23923 -176.56953,33.33928 -176.56953,58.66636 0,7.17628 -6.29364,15.94215 -13.98588,19.47971 -9.25796,4.2576 -26.70429,-9.25127 -51.60882,-39.96124 z M 189.68781,723.60252 c 16.40466,-21.4638 17.52952,-25.30668 22.31219,-37.18588 -8.28721,-13.74219 -15.55614,-28.48782 -24.01761,-48.16295 -8.46147,-19.67514 -16.3438,-40.58481 -16.63666,-52.51204 -17.02126,11.92723 -13.7498,9.42092 -33.08991,32.11616 -19.34011,22.69525 -33.32211,45.77008 -35.94658,60.74366 -3.241253,18.49259 -1.97727,37.58452 8.09076,54.44654 10.06804,16.86204 22.26187,27.57958 35.4627,27.57958 9.89914,0 27.42044,-15.56129 43.82511,-37.02507 z m 359.41306,-28.70734 c 11.48483,-29.09174 9.67351,-45.16791 10.50795,-71.06758 l 8.10569,-62.34896 -34.29401,2.34756 C 511.65221,565.22333 504,561.41664 500,556.41664 c 0,12 -1.27575,26.3192 -2.59151,78.89453 0,0 -1.40849,67.10547 -2.75889,96.24019 18.92868,-2.27568 43.67769,-9.36608 54.45127,-36.65618 z M 273.95718,545.93715 c 8.54381,-27.94386 9.56613,-32.86589 13.02896,-53.65668 -9.2342,4.37702 -10.75241,7.31029 -22.64945,15.44674 -20.64974,14.12246 -24.54297,19.58427 -31.06428,24.13483 0.74994,8.58046 1.4194,16.1698 7.89269,33.69603 6.67021,18.05941 10.8349,27.85857 13.8349,31.85857 1.98813,-3.24459 10.68044,-24.40915 18.95718,-51.47949 z M 568,497.41664 c 5,-17.6406 22.02799,-32.37547 33.48286,-31.19095 C 613,467.41664 618,472.41664 623,477.41664 c 18.27074,-5.95809 15.34949,-15.99649 13.42854,-19.08125 -4.72613,-7.58946 -36.08721,-10.95145 -67.27675,-10.41608 -31.18954,0.53537 -62.20754,6.9681 -66.2475,6.9681 C 501.75002,476.77245 502,486.00287 502,502.41664 c 18.24998,-0.65462 51,-3 66,-5 z m 9,-115 c 5,-25 17,-89 21.47691,-103.4163 -14.47691,4.4163 -19.46889,5.66629 -47.9437,16.00715 C 525.02818,304.26985 511,310.41664 503,314.41664 c 0,10 2.92724,22.66348 2.58436,40.63763 l -0.68876,36.1058 25.93579,-4.05808 C 551.70646,383.83574 562,382.41664 577,382.41664 Z"
       id="path147"
       sodipodi:nodetypes="sscssssscsssssscscsscssscsccsssscssssscssssscscscsssssscscssssssccccscsscscscscscsscccccscscsc" />
  </g>
</svg>
