<?xml version="1.0" encoding="UTF-8" standalone="no"?>
<!-- Created with Inkscape (http://www.inkscape.org/) -->

<svg
   width="1000"
   height="1000"
   viewBox="0 0 1000 1000"
   version="1.1"
   id="svg756"
   inkscape:version="1.1 (c68e22c387, 2021-05-23)"
   sodipodi:docname="u5b66.svg"
   xmlns:inkscape="http://www.inkscape.org/namespaces/inkscape"
   xmlns:sodipodi="http://sodipodi.sourceforge.net/DTD/sodipodi-0.dtd"
   xmlns="http://www.w3.org/2000/svg"
   xmlns:svg="http://www.w3.org/2000/svg"
   xmlns:rdf="http://www.w3.org/1999/02/22-rdf-syntax-ns#"
   xmlns:cc="http://creativecommons.org/ns#"
   xmlns:dc="http://purl.org/dc/elements/1.1/">
  <defs
     id="defs750" />
  <sodipodi:namedview
     id="base"
     pagecolor="#ffffff"
     bordercolor="#666666"
     borderopacity="1.0"
     inkscape:pageopacity="0.0"
     inkscape:pageshadow="2"
     inkscape:zoom="0.5"
     inkscape:cx="869"
     inkscape:cy="662"
     inkscape:document-units="px"
     inkscape:current-layer="layer1"
     showgrid="true"
     units="px"
     inkscape:window-width="1118"
     inkscape:window-height="864"
     inkscape:window-x="536"
     inkscape:window-y="7"
     inkscape:window-maximized="0"
     showguides="true"
     inkscape:guide-bbox="true"
     inkscape:pagecheckerboard="0">
    <inkscape:grid
       type="xygrid"
       id="grid758" />
    <sodipodi:guide
       position="240,200"
       orientation="0,1"
       id="guide8"
       inkscape:locked="false" />
  </sodipodi:namedview>
  <metadata
     id="metadata753">
    <rdf:RDF>
      <cc:Work
         rdf:about="">
        <dc:format>image/svg+xml</dc:format>
        <dc:type
           rdf:resource="http://purl.org/dc/dcmitype/StillImage" />
        <dc:title />
      </cc:Work>
    </rdf:RDF>
  </metadata>
  <g
     inkscape:label="Layer 1"
     inkscape:groupmode="layer"
     id="layer1"
     transform="translate(0,-32.41664)"
     style="display:inline">
    <path
       style="fill:#000000;stroke-width:12.1301"
       d="m 189.89605,842.83758 c -33.6286,-15.13419 -62.89987,-36.96953 -83.76399,-60.86734 -20.864129,-23.8978 -43.321106,-61.85807 -43.321106,-85.24213 0,-25.62205 23.229184,-58.88615 49.513046,-67.73355 26.28386,-8.8474 65.6224,-9.27809 117.84111,-1.23334 C 273.0616,634.3698 302,637.41664 307,637.41664 c 0,-17 -2.11094,-26.75797 -7.75176,-68.97114 -5.21531,-39.02886 -8.49824,-58.52886 -23.49024,-77.69486 -14.24039,-18.20513 -39.02307,-37.1217 -63.02266,-44.04716 -28.72305,-8.28849 -13.20371,-59.9013 14.86892,-59.9013 18.71963,0 44.11611,11.77377 65.5778,26.71762 21.46168,14.94385 46.12814,41.21051 54.03154,57.67555 7.7864,16.22129 20.16801,71.46011 25.36616,110.98822 4.71834,35.87952 4.42024,45.23307 5.42024,59.23307 20,1 58.75113,-6.10147 84.77894,-15.93976 55.36606,-20.92791 55.28455,-5.01738 55.28455,13.50622 0,11.55019 -13.24163,33.18568 -36.81703,43.93363 C 457.67106,693.66467 440,700.41664 413.90089,703.08573 399.13763,704.59553 393,705.41664 377,705.41664 c -1,27 -1.75,38.375 -3.06602,62.42669 -3.10089,56.67204 -7.92707,87.20004 -23.37271,92.58886 -37.82649,13.19725 -105.99215,7.01043 -160.66522,-17.59461 z M 303.9428,755.74206 C 305.18793,727.42428 306,720.41664 306,705.41664 c -15,-1 -18.89079,-2.7675 -44.94642,-5.29332 -31.06571,-3.0115 -63.46038,-12.04953 -91.3161,-13.20866 -27.85571,-1.15913 -41.17246,1.56065 -54.08232,6.06475 -28.554733,9.96243 -22.352168,26.60912 3.65962,51.58646 26.01178,24.97734 61.83279,42.28531 112.51494,53.57032 33.92718,7.55431 44.93004,9.94686 55.96381,2.4553 11.03378,-7.49157 14.74164,-12.83575 16.14927,-44.84943 z M 430.55074,388.19481 c 35.88253,-45.98879 57.9116,-64.3524 73.96095,-75.48707 28.16739,-19.54189 28.00963,-42.46614 -21.67553,-43.70535 -49.68516,-1.2392 -110.89772,5.20666 -152.83993,24.40498 -38.17096,17.4721 -80.57519,46.42685 -116.11888,75.21818 -35.54369,28.79134 -64.22682,57.41926 -74.95559,74.23771 C 129,458.41664 126.76055,464.77624 111.32234,457.07116 104,453.41664 87.760866,415.95054 91.07757,403.22803 c 2.20492,-8.45784 10.74045,-11.99337 19.43741,-25.77305 7.23502,-11.46335 31.99904,-41.43564 69.22247,-72.80396 37.22343,-31.36833 82.85325,-61.04294 116.47876,-75.8237 58.56863,-25.745 131.12992,-36.97693 190.07294,-32.01851 58.94302,4.95842 130.26779,32.1072 134.36337,63.12365 3.10684,23.52853 -11.40416,64.91008 -55.72069,93.84573 -23.98022,15.65744 -48.25553,35.12921 -74.21043,59.72746 -25.9549,24.59825 -44.61927,51.21438 -80.28796,82.4863 -18.35233,16.0901 -36.10278,-5.66556 -26.22155,-27.9575 C 400,432.41664 410.57281,413.79949 430.55074,388.19481 Z M 99.33621,228.02058 C 71.348893,192.51183 61.065864,179.57439 54.199795,170.72998 48.811549,163.7892 39.701903,150.96258 35.114333,143.66918 30.835943,136.86732 23.007201,130.0552 23.007201,122.10339 c 0,-16.92985 29.032537,-40.819398 42.54883,-32.02569 13.516292,8.79371 33.516339,30.27068 59.451359,64.07388 30.50456,39.75904 57.01274,66.28916 66.24039,66.28916 18.45827,0 26.94166,34.36993 14.86366,45.35114 -10.53574,9.57899 -37.72068,23.73797 -54.02613,14.2013 -16.30544,-9.53667 -29.73137,-22.769 -52.7491,-51.9726 z m 258.66806,-86.15469 c 4.24573,-8.44925 9.66144,-11.95527 21.38111,-11.95527 14.82062,0 31.08827,-7.75252 43.65077,-24.42129 12.5625,-16.668763 24.50721,-34.555941 13.99522,-49.787034 -4.98536,-7.22341 -25.53397,-3.103675 -28.64576,-6.82581 C 404.18094,43.847095 457,22.41664 475.53824,24.247966 c 12.63892,1.248553 25.08408,26.860326 25.12564,47.831528 0.0416,20.971206 -6.25894,46.053276 -18.9268,62.496786 -9.75664,12.6646 -24.19582,27.49408 -45.33742,36.16491 -10.5708,4.33541 -29.0149,7.54559 -38.91589,8.53741 -5.17033,0.51794 -16.66724,0.55246 -23.71423,-1.47312 -3.69413,-1.06184 -12.70108,-7.92606 -16.25169,-15.58516 -3.5506,-7.6591 -1.64485,-16.11308 0.48642,-20.35443 z m -173.68422,-8.00701 c -9.14498,-4.42652 -16.48182,-30.89963 -4.85658,-38.31016 10.97506,-6.99607 30.72463,-6.67001 57.84327,0.89708 18.76841,5.23711 30.7345,15.29668 42.88323,12.66647 12.14873,-2.63021 30.84407,-17.95021 50.34305,-31.47223 31.60495,-21.917197 51.81056,-18.569431 54.91487,-15.143515 3.55211,3.920115 -6.56921,15.323921 -27.98911,44.596165 -19.70585,26.92983 -35.95878,47.07395 -41.43931,53.39438 -5.07975,5.85823 -16.53561,12.7464 -36.8775,11.70329 C 255.9279,170.99997 245.8007,164.79792 232.16602,157.54987 218.70421,150.39371 202,142.41664 184.32005,133.85888 Z"
       id="path75"
       sodipodi:nodetypes="ssssscssssssscsssscsssscsssssssssssssssssssssssssssssssssssssssssssssssssscssssssss" />
  </g>
</svg>
