<?xml version="1.0" encoding="UTF-8" standalone="no"?>
<!-- Created with Inkscape (http://www.inkscape.org/) -->

<svg
   width="1000"
   height="1000"
   viewBox="0 0 1000 1000"
   version="1.1"
   id="svg756"
   inkscape:version="1.1 (c68e22c387, 2021-05-23)"
   sodipodi:docname="u5b64.svg"
   xmlns:inkscape="http://www.inkscape.org/namespaces/inkscape"
   xmlns:sodipodi="http://sodipodi.sourceforge.net/DTD/sodipodi-0.dtd"
   xmlns="http://www.w3.org/2000/svg"
   xmlns:svg="http://www.w3.org/2000/svg"
   xmlns:rdf="http://www.w3.org/1999/02/22-rdf-syntax-ns#"
   xmlns:cc="http://creativecommons.org/ns#"
   xmlns:dc="http://purl.org/dc/elements/1.1/">
  <defs
     id="defs750" />
  <sodipodi:namedview
     id="base"
     pagecolor="#ffffff"
     bordercolor="#666666"
     borderopacity="1.0"
     inkscape:pageopacity="0.0"
     inkscape:pageshadow="2"
     inkscape:zoom="0.5"
     inkscape:cx="895"
     inkscape:cy="662"
     inkscape:document-units="px"
     inkscape:current-layer="layer1"
     showgrid="true"
     units="px"
     inkscape:window-width="1118"
     inkscape:window-height="864"
     inkscape:window-x="693"
     inkscape:window-y="85"
     inkscape:window-maximized="0"
     showguides="true"
     inkscape:guide-bbox="true"
     inkscape:pagecheckerboard="0">
    <inkscape:grid
       type="xygrid"
       id="grid758" />
    <sodipodi:guide
       position="240,200"
       orientation="0,1"
       id="guide8"
       inkscape:locked="false" />
  </sodipodi:namedview>
  <metadata
     id="metadata753">
    <rdf:RDF>
      <cc:Work
         rdf:about="">
        <dc:format>image/svg+xml</dc:format>
        <dc:type
           rdf:resource="http://purl.org/dc/dcmitype/StillImage" />
        <dc:title />
      </cc:Work>
    </rdf:RDF>
  </metadata>
  <g
     inkscape:label="Layer 1"
     inkscape:groupmode="layer"
     id="layer1"
     transform="translate(0,-32.41664)"
     style="display:inline">
    <path
       style="fill:#000000;stroke-width:8.52079"
       d="m 271.58424,827.88544 c 2.44379,-12.88768 18.30509,-63.28192 35.24735,-111.98722 23.37552,-67.19949 46.05039,-161.15623 60.09567,-238.3131 14.04529,-77.15686 12.44025,-83.44122 13.50284,-100.58598 -20.82431,5.20606 -58.62433,25.63677 -84.83998,47.83176 -16.24609,13.75444 -18.24036,22.97089 -28.65253,33.38306 5.20608,20.8243 4.70036,18.80587 12.36839,67.93165 9.18544,58.84708 12.84167,116.92373 1.30478,173.49681 -13.9782,68.54445 -44.98769,136.17538 -64.31636,136.17538 -7.00203,0 -44.59448,2.06812 -64.72374,-30.81259 -10.71928,-17.50971 -12.98208,-52.91921 -9.34368,-56.5576 2.9823,-2.98231 17.10692,5.30888 23.95799,10.99472 16.59687,13.77419 25.07973,4.257 42.49307,-78.23534 16.41523,-77.76399 17.80791,-99.90378 -1.59668,-171.30474 -6.78156,7.66099 -29.50529,33.82491 -29.50529,33.82491 -28.8266,33.49308 -61.09971,72.64722 -71.718,87.00922 -21.433056,28.98978 -43.761237,-11.33566 -51.066406,-30.37263 -2.425338,-6.32033 15.153951,-33.48407 41.461612,-65.32898 38.253024,-46.30457 50.978204,-59.00138 90.499164,-99.88508 -2.07088,-9.21343 -8.28104,-24.73942 -14.504,-45.43886 -6.22296,-20.69943 -21.92698,-57.48397 -20.75131,-68.34558 1.07954,-9.97358 45.29433,-55.69563 54.40569,-74.17251 26.39145,-53.51906 33.09393,-122.20511 24.67996,-130.61907 -5.97184,-5.97184 -51.52572,20.94029 -112.64705,60.43049 C 60.020412,214.42297 18.970121,170.16577 54.215564,135.43934 108.21871,82.231443 259.20708,18.537762 277.85636,37.187043 c 21.87595,21.87594 17.56523,143.575117 -22.52498,222.993347 -12.54226,24.84608 -25.22639,36.18713 -27.24789,48.39249 -2.02149,12.20533 -1.71009,21.11011 3.40896,41.08364 5.88235,22.95173 8.37354,25.26018 11.84609,31.31827 4.85717,-3.97565 10.9793,-11.51349 23.66667,-24.75627 12.68736,-13.24275 46.69067,-32.34353 74.888,-45.8206 23.78797,-11.36961 36.45446,-18.77848 44.78419,-22.94333 -2.08243,-18.74189 -3.28436,-63.80454 9.80285,-74.54333 10.9082,-8.95079 39.05283,-21.81797 81.26203,-42.3957 61.45302,-29.95943 93.06406,-50.77905 106.50963,-70.14912 23.51053,-33.869955 38.14876,10.84584 38.14876,41.64011 0,31.77621 -18.95754,56.88814 -52.91546,70.09396 -63.74946,24.79138 -103.11877,55.83854 -103.18805,60.72941 -0.0407,2.87482 -7.61266,40.82696 -14.28133,97.06405 -20.96316,176.78295 -52.29391,298.56724 -109.05638,423.90837 -26.60853,58.75609 -79.35259,76.15321 -71.37521,34.0831 z m 356.05253,14.5312 c -10.36528,-5.05176 -30.07562,-20.15231 -45.37916,-53.35379 -9.0133,-19.55459 -27.03988,-58.66375 -27.03988,-58.66375 l -33.9733,42.97945 c -36.37591,46.01899 -65.85956,50.50823 -88.45285,41.83837 -20.25376,-7.77209 -19.54886,-66.33466 8.92385,-73.94943 13.47431,-3.6036 11.76185,-2.98637 16.5561,-11.35433 7.61947,-13.29915 13.32325,-100.70639 15.55976,-186.22988 2.23649,-85.52349 1.00572,-177.49295 -5.2439,-216.57595 -5.29381,-33.10556 20.62025,-42.00428 36.05384,-37.96831 13.79587,3.6077 17.31171,-0.42443 19.44266,-22.2977 1.68989,-17.34574 36.98021,-17.27941 46.66677,-19.1144 13.48098,-2.55378 8.66406,-4.09349 8.66406,82.08204 0,94.60577 23.95285,166.61265 48.09056,229.2108 24.1377,62.59816 40.13051,94.96328 82.51854,110.28558 28.88206,10.44019 51.86115,-2.98012 82.98333,-52.64989 16.40248,-26.17772 39.3614,-51.94497 43.38431,-52.17016 12.755,-0.71405 7.30157,78.86801 -18.8432,116.86814 -30.62569,44.51291 -55.75392,63.13416 -84.33434,62.49593 -68.90731,-1.53877 -136.92736,-67.20253 -173.83346,-173.90391 -12.35586,-35.72276 -18.76714,-48.62035 -22.76801,-58.6295 -1.45466,16.40247 -5.43676,57.65712 -9.04956,92.457 -2.18956,21.09083 -5.52746,51.23076 -6.56867,63.2725 9.37094,-11.00053 11.78384,-12.85671 19.75821,-22.4087 13.15768,-15.76078 33.28573,-26.97883 34.82221,-24.92903 1.53649,2.04984 13.21432,30.90527 25.95076,64.12322 25.60765,66.78745 62.72658,101.31235 82.15333,93.85761 15.26977,-5.85957 -2.55982,51.68023 -18.10488,64.53127 -12.88406,10.65122 -26.31951,5.85891 -37.93708,0.19682 z"
       id="path75"
       sodipodi:nodetypes="ssscscssssssscsssscsssssssssscsscssssssssssscssssssssssssssssscscssssss" />
  </g>
</svg>
