<?xml version="1.0" encoding="UTF-8" standalone="no"?>
<!-- Created with Inkscape (http://www.inkscape.org/) -->

<svg
   width="1000"
   height="1000"
   viewBox="0 0 1000 1000"
   version="1.1"
   id="svg756"
   inkscape:version="1.1 (c68e22c387, 2021-05-23)"
   sodipodi:docname="u5b9a.svg"
   xmlns:inkscape="http://www.inkscape.org/namespaces/inkscape"
   xmlns:sodipodi="http://sodipodi.sourceforge.net/DTD/sodipodi-0.dtd"
   xmlns="http://www.w3.org/2000/svg"
   xmlns:svg="http://www.w3.org/2000/svg"
   xmlns:rdf="http://www.w3.org/1999/02/22-rdf-syntax-ns#"
   xmlns:cc="http://creativecommons.org/ns#"
   xmlns:dc="http://purl.org/dc/elements/1.1/">
  <defs
     id="defs750" />
  <sodipodi:namedview
     id="base"
     pagecolor="#ffffff"
     bordercolor="#666666"
     borderopacity="1.0"
     inkscape:pageopacity="0.0"
     inkscape:pageshadow="2"
     inkscape:zoom="0.5"
     inkscape:cx="431"
     inkscape:cy="498"
     inkscape:document-units="px"
     inkscape:current-layer="layer1"
     showgrid="true"
     units="px"
     inkscape:window-width="1118"
     inkscape:window-height="864"
     inkscape:window-x="554"
     inkscape:window-y="130"
     inkscape:window-maximized="0"
     showguides="true"
     inkscape:guide-bbox="true"
     inkscape:pagecheckerboard="0">
    <inkscape:grid
       type="xygrid"
       id="grid758" />
    <sodipodi:guide
       position="240,200"
       orientation="0,1"
       id="guide8"
       inkscape:locked="false" />
  </sodipodi:namedview>
  <metadata
     id="metadata753">
    <rdf:RDF>
      <cc:Work
         rdf:about="">
        <dc:format>image/svg+xml</dc:format>
        <dc:type
           rdf:resource="http://purl.org/dc/dcmitype/StillImage" />
        <dc:title />
      </cc:Work>
    </rdf:RDF>
  </metadata>
  <g
     inkscape:label="Layer 1"
     inkscape:groupmode="layer"
     id="layer1"
     transform="translate(0,-32.41664)"
     style="display:inline">
    <path
       style="fill:#000000;stroke-width:6.95973"
       d="m 67.13106,841.95534 c -3.041737,-5.51817 0.64712,-38.87153 6.45459,-62.93752 16.38911,-67.91625 19.96305,-88.39659 19.96305,-114.39758 0,-20.68285 4.12213,-27.79838 16.96342,-25.96811 13.19479,1.88073 56.83955,11.35554 53.02048,49.05437 -1.31431,12.97383 -2.5326,15.71014 -3.94293,28.9215 38.00923,-3.50956 66.68226,-10.12137 100.67548,-8.76645 l 46.16339,-5.6e-4 -1.79167,-121.97425 c -1.08235,-73.68448 -2.08011,-141.33564 -2.43264,-150.33289 -0.81235,-20.73191 45.72914,-34.5983 56.00159,-24.32583 4.76391,4.76391 13.96245,7.31107 18.17037,58.95673 4.20791,51.64566 3.42519,152.38982 4.22658,185.54776 0.86566,35.81754 0.39723,40.68413 0.28313,52.37535 C 444,714.41664 508.98645,723.0312 566.60083,751.57252 600,767.41664 626.27033,771.71567 655.23778,765.36915 760,742.41664 722,810.41664 682.54152,844.57291 655.5377,867.94811 619.73894,864.96348 555.55954,834.49643 485.419,801.19954 429.44585,779.57809 272.78952,774.74913 231.75272,773.48416 200,778.41664 149.63375,772.95283 145,783.41664 143.62442,791.12614 140.61976,800.21279 130.49341,830.83672 125,839.41664 115.42062,843.81937 109.21926,846.66954 74,854.41664 67.13106,841.95534 Z M 465.70368,563.99956 c -53.26603,-7.62966 -80.03689,-17.95393 -80.03689,-30.8665 0,-17.06647 10.86437,-56.53814 56.8404,-45.69951 25.1081,5.91911 63.59334,10.4349 107.96191,10.4935 76.63099,0.10117 94.63568,42.87498 76.17409,58.19677 -12.49852,10.37283 -108.82892,15.33988 -160.93951,7.87574 z M 62.074296,443.73296 C 51.099504,414.59954 39.368579,283.19018 44.101934,242.40727 47.36341,214.30618 92.02286,185.10823 96.755636,186.44054 108.66062,197.26235 108.87366,200.31761 112,217.41664 131.76757,199.42681 150.42027,180.16138 172.50428,168.90714 206.44839,151.60888 261.57927,131.708 302.97539,125.51471 319.61345,123.02549 328.5026,120.44428 336,119.41664 330.71139,98.0194 327.90053,98.220023 327.52903,74.607164 327.21749,54.805169 371.42462,25.941766 400.54194,35.773232 411.68369,39.535244 409,62.41664 412.20298,88.006494 414.71888,108.10698 417,105.41664 420,117.41664 c 5,0 41.22966,0.89151 82.0016,4.66914 135.91939,12.5932 206.35235,69.03324 206.70022,167.03975 0.17904,50.43963 -17.81529,95.06333 -42.91082,121.36917 -22.13083,23.19819 -67.39411,9.73325 -78.37258,-10.7802 -7.65411,-14.30184 -6.43084,-25.47522 17.39933,-26.68985 19.50632,-0.99424 32.38788,-40.53492 29.23825,-79.90648 C 630,242.41664 595,215.41664 498.31228,203.34288 465.57986,199.25546 449.51671,198.2434 437,200.41664 c 1,5 2.42517,10.31055 2.42517,19.31766 0,18.90946 -69.27249,22.11987 -78.57257,1.70842 C 356.18677,211.20236 354,205.41664 353,200.41664 c -8,0 -10.69923,-0.62212 -41.53119,5.82439 -42.99554,8.98974 -78.32934,16.55563 -106.9695,29.42572 C 165,253.41664 143.46398,270.22949 118,298.41664 c 0.0679,13.0152 0.75859,31.9809 4.12749,56.22505 3.36891,24.24414 8.83349,50.10987 13.28407,69.61139 3.71546,16.28039 0.14177,33.13927 -12.53518,33.13927 -9.06735,0 -57.212993,-4.13188 -60.802084,-13.65939 z M 472.8624,404.41664 c -15.85639,-8.29859 -41.49711,-10.56496 -111.35569,-9.84266 -94.66218,0.97877 -113.31972,-43.12111 -105.61184,-63.20751 4.09196,-10.6635 14.97281,-11.61659 103.67017,-9.08085 82.44575,2.35702 104.65361,5.34478 132.15709,17.77991 18.87359,8.5333 33.05873,19.59425 33.05873,25.77776 0,13.73629 -24.21769,53.07082 -51.91846,38.57335 z"
       id="path57"
       sodipodi:nodetypes="ssssscscsssssccsssscsssssssssssccsscssscssssssscsscsscsssssssssss" />
  </g>
</svg>
