<?xml version="1.0" encoding="UTF-8" standalone="no"?>
<!-- Created with Inkscape (http://www.inkscape.org/) -->

<svg
   width="1000"
   height="1000"
   viewBox="0 0 1000 1000"
   version="1.1"
   id="svg756"
   inkscape:version="1.1 (c68e22c387, 2021-05-23)"
   sodipodi:docname="u5b9f.svg"
   xmlns:inkscape="http://www.inkscape.org/namespaces/inkscape"
   xmlns:sodipodi="http://sodipodi.sourceforge.net/DTD/sodipodi-0.dtd"
   xmlns="http://www.w3.org/2000/svg"
   xmlns:svg="http://www.w3.org/2000/svg"
   xmlns:rdf="http://www.w3.org/1999/02/22-rdf-syntax-ns#"
   xmlns:cc="http://creativecommons.org/ns#"
   xmlns:dc="http://purl.org/dc/elements/1.1/">
  <defs
     id="defs750" />
  <sodipodi:namedview
     id="base"
     pagecolor="#ffffff"
     bordercolor="#666666"
     borderopacity="1.0"
     inkscape:pageopacity="0.0"
     inkscape:pageshadow="2"
     inkscape:zoom="0.5"
     inkscape:cx="925.77358"
     inkscape:cy="684.38607"
     inkscape:document-units="px"
     inkscape:current-layer="layer1"
     showgrid="true"
     units="px"
     inkscape:window-width="1118"
     inkscape:window-height="864"
     inkscape:window-x="710"
     inkscape:window-y="120"
     inkscape:window-maximized="0"
     showguides="true"
     inkscape:guide-bbox="true"
     inkscape:pagecheckerboard="0">
    <inkscape:grid
       type="xygrid"
       id="grid758" />
    <sodipodi:guide
       position="240,200"
       orientation="0,1"
       id="guide8"
       inkscape:locked="false" />
  </sodipodi:namedview>
  <metadata
     id="metadata753">
    <rdf:RDF>
      <cc:Work
         rdf:about="">
        <dc:format>image/svg+xml</dc:format>
        <dc:type
           rdf:resource="http://purl.org/dc/dcmitype/StillImage" />
        <dc:title />
      </cc:Work>
    </rdf:RDF>
  </metadata>
  <g
     inkscape:label="Layer 1"
     inkscape:groupmode="layer"
     id="layer1"
     transform="translate(0,-32.41664)"
     style="display:inline">
    <path
       style="fill:#000000;stroke-width:7.20906"
       d="M 560,868.41664 C 526.91435,855.99617 518.12253,842.54137 438.49846,764.44009 395.69146,722.45181 353.90382,691.49587 343,685.41664 c -14,26 -23,37 -51.79877,122.54578 -7.41811,22.03525 -16.74145,42.58705 -21.14254,45.53 -11.91392,7.96661 -52.41646,-27.43119 -54.15576,-48.61389 -0.83175,-10.1296 10.25578,-43.46951 24.63894,-74.08861 12.94629,-26.37062 25.52002,-56.85297 35.64468,-80.45913 5.98273,-13.94904 20.04224,-46.96485 24.81345,-58.91415 -15,-5 -20.5877,-6.52417 -32.26212,-13.23788 -26.65656,-15.32963 -27.23772,-32.54659 -1.92236,-66.18235 C 279.42164,495.24702 295,477.41664 300,467.41664 c -5.65472,-1.39483 -20.82303,-0.35101 -33.63858,-7.72096 -11.08421,-6.37429 -20.51877,-16.04312 -20.9657,-21.48628 -1.1529,-14.04086 15.19658,-34.95772 30.3053,-46.30211 C 295,377.41664 310,367.41664 327.17067,355.24654 c 4.55371,-3.22755 10.79083,-5.72158 10.52261,-8.98818 -0.26822,-3.2666 -28.36043,-3.26212 -62.42713,-4.87894 -46.18245,-2.19184 -62.14791,-3.98803 -68.62078,-12.92251 C 201.87062,321.86633 200,312.41664 200,302.41664 c -10,10 -30,40 -37.89657,56.79573 -2.55561,5.43569 -6.30472,21.02438 -15.1028,33.41787 -8.79809,12.3935 -16.00063,28.7864 -19.94184,34.81784 -3.88173,5.94042 -10.06537,12.73336 -17.54543,13.2823 C 91.379357,442.0612 70.27699,422.18304 58.635346,408.66009 46.172253,394.18294 40.919328,379.38421 39.485386,362.5171 36.782878,330.72817 36.652947,322.92567 50.65727,317.5964 c 10.924674,-4.15734 21.425312,-0.8554 28.137336,6.00315 14.270866,14.58238 17.875157,12.55253 32.269254,-18.17329 16.21959,-34.62258 50.94857,-85.87314 110.25706,-127.62168 C 250.85998,157.01139 269,149.41664 284,141.41664 c 5,-25 12.07916,-50.765043 3.5192,-67.608676 -14.69133,-28.908484 -4.23551,-37.041938 27.87741,-39.934119 32.76541,-2.950948 52.79017,14.334396 48.62511,43.279639 C 359.1285,111.15913 351.67065,125.83368 350,139.41664 c 14,1 24.3352,2.25108 42.82628,5.75718 48.1154,9.12319 88.93001,28.25638 117.2074,57.31379 37.37203,38.40293 63.37198,76.52719 76.37206,127.89383 20.99751,82.96652 -13.62588,155.69726 -63.40574,205.0352 0,8 -1.52972,19.00776 -2.69249,27.91999 -1.98396,15.20637 -22.03067,48.78686 -35.69907,53.90811 -17.04134,6.38502 -34.3206,0.0126 -51.25056,-4.04 C 405,606.41664 380.5836,602.72079 372,601.41664 c -2,5 -3,9 -5,13 28.47772,18.79379 96.55929,80.04566 104.35226,88.99232 6.69817,7.68978 45.41656,45.61988 72.81495,67.44592 41.45569,33.0244 52.55222,41.60793 76.04317,41.23205 30.58536,-0.48948 40.46055,26.46907 25.04333,46.06496 C 634.22923,872.16438 589.5637,879.51494 560,868.41664 Z M 446.61228,523.49914 C 442.85194,500.76203 420,487.41664 405,472.41664 c -5,10 -12,50 -15,63 23,8 35,12 44.75788,10.79918 11.84814,-1.45805 14.37983,-7.44649 11.8544,-22.71668 z M 520.76537,422.4387 c 12.68902,-25.50539 9.3404,-60.04007 -4.99506,-98.1698 C 501.43485,286.13916 480.11256,256.41438 448.85423,232.52877 419.3823,210.00821 358,199.41664 327,200.41664 c -12.92015,18.13431 -50.50432,55.31062 -49.54926,66.94196 0.28477,3.46825 14.30097,8.67775 31.1471,11.57665 26.97063,4.64113 27.40216,5.48139 52.40216,8.48139 15,-25 33.09994,-37.38956 48.41013,-27.14716 8.77041,5.86733 20.58987,22.14716 24.58987,44.14716 9,3 16.92415,4.34796 30.18129,8.81593 10.28325,3.4657 21.26249,3.41662 22.32591,14.83739 0.77358,8.30797 -13.77355,29.62633 -13.77355,29.62633 -10.18967,10.10527 -17.29222,18.40115 -20.73365,24.72035 8,30 34,56 44,73 7.6287,-2.69066 17.99004,-19.35928 24.76537,-32.97794 z"
       id="path39"
       sodipodi:nodetypes="sscssscscsscssssssscsssssssssscssscssscssscccsssssccssssscsscscsssccs" />
  </g>
</svg>
