<?xml version="1.0" encoding="UTF-8" standalone="no"?>
<!-- Created with Inkscape (http://www.inkscape.org/) -->

<svg
   width="1000"
   height="1000"
   viewBox="0 0 1000 1000"
   version="1.1"
   id="svg756"
   inkscape:version="1.1 (c68e22c387, 2021-05-23)"
   sodipodi:docname="u5d29.svg"
   xmlns:inkscape="http://www.inkscape.org/namespaces/inkscape"
   xmlns:sodipodi="http://sodipodi.sourceforge.net/DTD/sodipodi-0.dtd"
   xmlns="http://www.w3.org/2000/svg"
   xmlns:svg="http://www.w3.org/2000/svg"
   xmlns:rdf="http://www.w3.org/1999/02/22-rdf-syntax-ns#"
   xmlns:cc="http://creativecommons.org/ns#"
   xmlns:dc="http://purl.org/dc/elements/1.1/">
  <defs
     id="defs750" />
  <sodipodi:namedview
     id="base"
     pagecolor="#ffffff"
     bordercolor="#666666"
     borderopacity="1.0"
     inkscape:pageopacity="0.0"
     inkscape:pageshadow="2"
     inkscape:zoom="0.5"
     inkscape:cx="907.90302"
     inkscape:cy="655.52201"
     inkscape:document-units="px"
     inkscape:current-layer="layer1"
     showgrid="true"
     units="px"
     inkscape:window-width="1118"
     inkscape:window-height="864"
     inkscape:window-x="688"
     inkscape:window-y="4"
     inkscape:window-maximized="0"
     showguides="true"
     inkscape:guide-bbox="true"
     inkscape:pagecheckerboard="0">
    <inkscape:grid
       type="xygrid"
       id="grid758" />
    <sodipodi:guide
       position="240,200"
       orientation="0,1"
       id="guide8"
       inkscape:locked="false" />
  </sodipodi:namedview>
  <metadata
     id="metadata753">
    <rdf:RDF>
      <cc:Work
         rdf:about="">
        <dc:format>image/svg+xml</dc:format>
        <dc:type
           rdf:resource="http://purl.org/dc/dcmitype/StillImage" />
        <dc:title />
      </cc:Work>
    </rdf:RDF>
  </metadata>
  <g
     inkscape:label="Layer 1"
     inkscape:groupmode="layer"
     id="layer1"
     transform="translate(0,-32.41664)"
     style="display:inline">
    <path
       style="fill:#000000;stroke-width:9.9747"
       d="m 34.564105,861.79217 c 3.893783,-23.00936 13.698721,-42.51187 17.829235,-47.88771 10.145165,-13.20387 18.020893,-40.35233 34.727065,-169.03865 7.694429,-59.26958 4.37452,-67.47839 5.29637,-83.4961 -10.700332,-0.62302 -18.051164,1.67091 -16.037168,-9.10993 2.013995,-10.78084 1.523084,-18.52072 13.452556,-39.25464 -0.974912,-27.44297 -3.506468,-32.34688 -7.117413,-50.60969 -4.561669,-23.07123 16.56227,-46.99485 22.5048,-55.72922 5.94252,-8.73433 23.11683,-10.97603 37.6635,-0.29231 6.45351,4.73972 6.59549,8.4425 11.63836,14.09321 5.84182,-8.23125 25.75808,-21.48705 35.38255,-23.47999 14.72328,-3.04873 36.95056,-5.34786 54.81367,-0.88159 26.658,6.66524 59.15143,28.65507 76.98004,61.60031 21.55738,39.83561 34.17728,95.79294 36.60236,170.62857 0.65909,20.33915 0.88208,37.52968 0.57479,42.86891 24.2543,-2.68214 37.39194,-6.62716 53.80243,-9.83148 0.46639,-26.75847 4.38045,-46.75431 3.91693,-101.7967 -0.44897,-53.31572 -6.97685,-109.5943 -9.2751,-124.75893 -3.60678,-23.7989 32.421,-24.71084 49.05544,-19.13599 14.26569,4.78098 20.50214,18.85645 24.00836,54.18618 2.60515,26.2501 5.60774,54.65228 6.67245,63.11595 1.06472,8.46364 1.54216,68.06687 1.06101,132.45161 -0.48116,64.38475 -0.50817,126.07438 -0.06,137.08808 1.08944,26.7751 -57.77618,33.43923 -69.08764,7.97857 -4.85704,-10.93258 -8.19099,-37.10667 -8.12567,-60.4003 0.0637,-22.72775 0.29917,-24.74627 0.0895,-39.7584 -24.69871,6.78324 -30.17418,12.57896 -55.24119,16.17628 -0.79893,13.88199 -5.43771,43.5773 -11.45577,63.28939 -17.58772,57.60854 -50.2014,91.0749 -79.83748,89.34941 -12.61412,-0.73444 -35.57692,-13.63761 -44.5084,-29.24544 C 195,806.41664 185,752.41664 177.49541,732.16108 c -15.43594,-11.61296 -26.31807,-22.79006 -22.94646,-44.35369 2.05297,-13.12995 14.33521,-22.82828 23.28672,-32.66046 11.62748,-12.77139 26.59152,-17.84599 32.24898,-22.87371 -6.78971,-1.36983 -15.4497,-3.57805 -19.87667,-9.54809 -5.95232,-8.02711 -11.20163,-22.26029 3.50753,-37.29606 8.92274,-9.12089 32.90161,-22.30636 54.74024,-28.40226 21.83868,-6.09592 30.63248,-7.88746 36.0441,-8.64379 -0.76276,-5.40153 -2.57368,-21.6468 -12.15039,-44.38905 C 262,479.41664 249.89145,466.35675 225.81343,464.95487 c -27.19013,-1.58307 -58.11771,10.4224 -64.69701,31.46783 -1.84371,32.03538 -1.90977,40.35707 -5.46705,96.18907 C 143.25235,787.18331 111.30611,907.26835 68.876636,905.64852 64.597858,905.48496 30.670319,884.80155 34.564105,861.79217 Z M 282.74002,780.16586 c 5.23384,-16.72844 9.06461,-38.13513 9.55626,-46.6779 -5.85693,-0.59496 -22.27086,2.80912 -51.90384,4.44041 -16.90263,0.9305 -51.36633,-3.34561 -51.36633,-3.34561 l 28.1272,45.58539 c 15.46998,25.07197 28.34847,38.98783 38.18469,37.40768 11.98211,-1.92486 20.00467,-13.76664 27.40202,-37.40997 z m 12.11573,-131.27294 c -0.31172,-18.10504 -1.57039,-25.86444 -3.15735,-35.59967 -8.25741,3.89791 -32.48278,10.99305 -54.74695,28.41026 -22.26416,17.41721 -25.38131,19.51809 -25.82508,27.2289 -0.30064,5.22456 6.10426,6.3584 34.41186,6.31355 17.15614,-0.0272 30.59286,-1.53036 50.18736,-1.34424 0.58795,-15.0824 -0.64134,-11.73684 -0.86984,-25.0088 z M 550,814.41664 c -7.68884,-10.86984 -5.65183,-26.84117 -4.7872,-39.27201 0.86466,-12.43083 9.70402,-24.35068 15.42029,-24.01785 4.51091,0.26269 3.72573,7.51853 9.34628,25.18091 4.65285,14.62132 14.17932,15.95879 22.11377,11.36131 5.56018,-3.22177 8.02625,-30.21709 10.33618,-70.35319 0,0 1.12479,-19.54413 0.61877,-66.71626 -16.15332,0.85229 -16.03897,0.48765 -28.83284,-0.25724 -25.61971,-1.49164 -47.5048,-15.81792 -57.48207,-29.87916 -9.97727,-14.06122 -10.18593,-43.63246 -0.56093,-64.65407 -10.08575,-11.30146 -13.61438,-50.57926 30.0879,-60.54136 24.50636,-5.58635 30.77743,-6.26592 40.42712,-8.103 -0.37553,-6.92698 -4.08582,-22.78543 -10.13928,-40.94135 -10.04541,-30.12876 -23.71493,-13.14035 -49.47415,-14.91438 -20.83172,-1.43425 -33.52885,-6.9145 -33.6078,-22.13928 -0.11578,-22.32077 8.12293,-49.21427 29.59767,-53.6958 10.73737,-2.24078 34.21811,-2.67849 44.18613,-1.15006 9.96803,1.52847 19.15994,2.85226 27.16711,12.96127 -4.42832,-16.32919 -2.38682,-8.10401 -14.0794,-54.66553 -6.40816,-25.51825 -3.15437,-15.97108 -8.16229,-46.12462 -14.54904,-3.12784 -30.40642,-1.77036 -45.60963,-2.65553 -33.46326,-1.9483 -67.61904,6.98806 -128.25507,33.55606 -103.63891,45.41 -158.70866,40.89628 -189.41702,17.27978 -26.25784,-20.19383 -32.08937,-92.36803 -9.90978,-135.93201 14.81777,-29.10424 65.03189,-45.08187 118.52363,-34.26176 52.64498,10.6488 49.61037,0.54421 45.07331,-60.921042 -3.63818,-49.28778 52.76045,-66.053029 74.3939,-35.512818 7.0494,9.951717 9.14716,40.18509 7.42934,69.08659 -1.71783,28.9015 -1.93957,47.33079 -15.4642,61.09536 C 415,192.41664 389.59079,193.21939 362.50708,194.34388 335.42336,195.46838 315,187.41664 298.93077,183.09314 c -19.10427,-5.14009 -26.73778,-5.6634 -38.71783,9.42608 -18.32354,23.07951 -9.42634,45.1485 10.76825,60.01059 11.77124,8.66298 30.99644,3.59094 87.27506,-20.82996 79.00342,-34.28185 132.32855,-47.48771 170.6297,-48.90411 13.0763,-0.48357 25.4451,-0.40782 40.01151,-2.12962 0.92186,-16.01769 17.84523,-18.41652 22.09235,-17.91418 4.24711,0.50236 34.95368,6.98461 40.97107,16.67674 6.95543,11.2031 11.8996,33.34262 10.98703,49.19897 -0.91256,15.85636 5.85592,57.53857 15.0411,92.62718 9.18518,35.0886 18.2377,75.2795 14.88542,89.00852 -3.85953,15.8064 -17.69364,20.60972 -22.51793,29.07307 2.73867,9.16847 7.90951,30.46038 10.50505,41.32575 18.3379,-0.25834 27.3559,3.6156 26.38674,16.96844 -0.96919,13.35287 1.75674,33.79527 -3.29156,37.85854 -6.95079,5.59454 -7.21373,3.79421 -16.01983,7.56719 2.2268,17.27244 3.23133,19.68762 3.88123,32.93339 9.12475,-1.9972 13.8243,-5.69474 24.70508,-12.68363 17.40177,-11.17745 22.86359,-16.82153 41.59285,-29.97242 25.8192,-18.1291 33.34744,-11.6471 32.67597,0.0201 -1.31339,22.82075 -26.16597,64.0924 -48.60809,82.19853 -10.3466,8.34756 -33.84021,21.85254 -48.82884,27.65315 -1.17044,51.11548 -1.6591,88.22845 -4.81176,123.09792 -3.15264,34.86946 -13.15965,58.28783 -18.59636,64.34082 -9.35189,10.41197 -42.6831,13.38574 -58.18173,11.70479 C 576.26664,840.66805 558.27128,826.1098 550,814.41659 Z m 46.67157,-259.43818 c -5.41162,0.75636 -9.60105,2.05304 -21.2065,5.38883 -7.85801,2.25866 -10.52763,12.55018 -9.9272,17.79418 0.72595,6.34022 8.73279,13.05919 15.68711,12.83531 11.26215,-0.36258 13.47901,-0.6155 19.96067,-1.30955 -0.43887,-16.72503 -2.32154,-19.31397 -4.51408,-34.70877 z"
       id="path57"
       sodipodi:nodetypes="ssscscssscssssccsssssssssccssscsscssscsscscsscscsssscssscscssssscsscscssssscscssssssssssssssscsssssccssccsssscsssscsssccs" />
  </g>
</svg>
