<?xml version="1.0" encoding="UTF-8" standalone="no"?>
<!-- Created with Inkscape (http://www.inkscape.org/) -->

<svg
   width="1000"
   height="1000"
   viewBox="0 0 1000 1000"
   version="1.1"
   id="svg756"
   inkscape:version="1.1 (c68e22c387, 2021-05-23)"
   sodipodi:docname="u5e97.svg"
   xmlns:inkscape="http://www.inkscape.org/namespaces/inkscape"
   xmlns:sodipodi="http://sodipodi.sourceforge.net/DTD/sodipodi-0.dtd"
   xmlns="http://www.w3.org/2000/svg"
   xmlns:svg="http://www.w3.org/2000/svg"
   xmlns:rdf="http://www.w3.org/1999/02/22-rdf-syntax-ns#"
   xmlns:cc="http://creativecommons.org/ns#"
   xmlns:dc="http://purl.org/dc/elements/1.1/">
  <defs
     id="defs750" />
  <sodipodi:namedview
     id="base"
     pagecolor="#ffffff"
     bordercolor="#666666"
     borderopacity="1.0"
     inkscape:pageopacity="0.0"
     inkscape:pageshadow="2"
     inkscape:zoom="1"
     inkscape:cx="582.5"
     inkscape:cy="626"
     inkscape:document-units="px"
     inkscape:current-layer="layer1"
     showgrid="true"
     units="px"
     inkscape:window-width="1118"
     inkscape:window-height="864"
     inkscape:window-x="375"
     inkscape:window-y="92"
     inkscape:window-maximized="0"
     showguides="true"
     inkscape:guide-bbox="true"
     inkscape:pagecheckerboard="0">
    <inkscape:grid
       type="xygrid"
       id="grid758" />
    <sodipodi:guide
       position="240,200"
       orientation="0,1"
       id="guide8"
       inkscape:locked="false" />
  </sodipodi:namedview>
  <metadata
     id="metadata753">
    <rdf:RDF>
      <cc:Work
         rdf:about="">
        <dc:format>image/svg+xml</dc:format>
        <dc:type
           rdf:resource="http://purl.org/dc/dcmitype/StillImage" />
        <dc:title />
      </cc:Work>
    </rdf:RDF>
  </metadata>
  <g
     inkscape:label="Layer 1"
     inkscape:groupmode="layer"
     id="layer1"
     transform="translate(0,-32.41664)"
     style="display:inline">
    <path
       style="fill:#000000;stroke-width:12.0513"
       d="m 297.81958,865.86989 c -17.7817,-6.97458 -25.77493,-16.4099 -24.41197,-25.44158 1.36296,-9.03168 12.08211,-17.65972 31.72521,-23.01975 C 316.83063,814.21657 334,806.41664 338,803.41664 c -5,1 -7.72452,0.60616 -16.41962,0.38244 -28.18186,-0.72509 -48.81303,-20.86517 -52.24593,-52.99819 C 265.90155,718.66786 298,642.41664 338,627.41664 c 3.72181,-23.42841 -0.25961,-39.70732 3.32199,-77.42336 6.6716,-70.25524 24.78539,-139.39917 63.76219,-170.27208 29.70315,-23.5274 71.9098,-24.59151 71.9098,-0.4625 0,8.04534 -42.99398,53.15794 -52.99398,88.15794 30,-30 91,-55 121.157,-63.68407 38.76525,-11.16292 84.37094,-4.06447 103.97962,3.68492 19.60867,7.74938 26.87657,21.65467 29.935,40.62028 6.26897,38.87456 -37.88048,87.90362 -76.99908,77.713 -19.01778,-4.95425 4.6065,-31.21844 11.34731,-49.45111 7.44657,-20.14169 3.74869,-24.73109 -19.92693,-24.73109 -17.04624,0 -85.38331,21.88464 -118.05591,50.25118 C 459.10071,516.00302 425,542.41664 408,557.41664 c -2,20 -2,57 -2,57 20,0 54.42973,-3.52411 90.86008,2.70334 75.62813,12.92792 111.77224,40.93265 111.77224,86.60194 0,35.95887 -64.0304,78.2122 -131.89719,113.61764 -67.8668,35.40544 -139.56998,63.963 -178.91555,48.53033 z M 485.11216,679.62584 c -18.97806,-1.89994 -76.13113,3.11981 -83.11216,1.7908 -2,26 -7.40455,34.83851 -12.96825,56.24694 C 385.09942,752.7947 380,772.41664 367,790.41664 c 20,-10 88,-38 119.12402,-56.75306 23.54743,-14.18796 40.42832,-29.41874 38.6152,-38.359 C 522.92609,686.36431 503,681.41664 485.11216,679.62584 Z M 44.879179,739.85265 c -1.93786,-2.1286 -2.497278,-29.90864 -1.837509,-72.95065 0.329885,-21.521 8.964566,-22.8575 9.884136,-50.71081 0.919571,-27.85331 2.124032,-82.22344 3.593477,-113.8117 C 67.337839,269.81585 54.93161,241.19133 105.80962,241.19133 124.03968,241.19133 128,346.41664 128,401.41664 c 12,-26 45.69012,-96.19128 70.29413,-127.46975 C 264,190.41664 310,153.41664 390,142.41664 c 0,-20 -3.77821,-25.96482 1.62359,-54.9906 C 400,42.41664 415.55057,37.042673 439.48716,34.697351 466.60011,32.04081 466.76925,43.147139 470.95586,82.97193 473,102.41664 473,124.41664 473,139.41664 c 20,0 48.73555,2.83837 68.88348,8.02264 27.11652,6.97736 70.75554,22.19549 99.90179,43.07614 41.01022,29.38012 50.98508,23.34713 44.11266,41.76745 -9.14265,24.50529 -22.25165,32.05369 -42.50119,29.69453 C 623.14721,259.61825 598,244.41664 560.05241,222.22661 528.49226,203.77166 476.41926,203.41664 472,203.41664 c -1,10 -1.10549,14.03819 -2.24908,30.3276 -4.75092,67.6724 -21.72205,67.82706 -52.24502,56.73749 -18.18434,-6.60672 -28.27081,-20.7746 -28.27081,-39.71031 0,-19.94138 0.30373,-27.52201 0.76491,-38.35478 -15,1 -51.37529,17.4611 -69.50042,32.59978 -36.25025,30.27736 -82.26552,86.98169 -113.32556,152.80679 -25.93159,54.95645 -57.8476,114.26995 -66.51393,174.05166 -22.01028,151.83074 -9.8297,175.71816 -58.880063,175.71816 -23.019746,0 -33.025128,-3.48317 -36.900848,-7.74038 z"
       id="path57"
       sodipodi:nodetypes="ssscsscssscsssssssccssssscscsssssssscscssscssssscssscsssss" />
  </g>
</svg>
