<?xml version="1.0" encoding="UTF-8" standalone="no"?>
<!-- Created with Inkscape (http://www.inkscape.org/) -->

<svg
   width="1000"
   height="1000"
   viewBox="0 0 1000 1000"
   version="1.1"
   id="svg756"
   inkscape:version="1.1 (c68e22c387, 2021-05-23)"
   sodipodi:docname="u5f53.svg"
   xmlns:inkscape="http://www.inkscape.org/namespaces/inkscape"
   xmlns:sodipodi="http://sodipodi.sourceforge.net/DTD/sodipodi-0.dtd"
   xmlns="http://www.w3.org/2000/svg"
   xmlns:svg="http://www.w3.org/2000/svg"
   xmlns:rdf="http://www.w3.org/1999/02/22-rdf-syntax-ns#"
   xmlns:cc="http://creativecommons.org/ns#"
   xmlns:dc="http://purl.org/dc/elements/1.1/">
  <defs
     id="defs750" />
  <sodipodi:namedview
     id="base"
     pagecolor="#ffffff"
     bordercolor="#666666"
     borderopacity="1.0"
     inkscape:pageopacity="0.0"
     inkscape:pageshadow="2"
     inkscape:zoom="0.5"
     inkscape:cx="899"
     inkscape:cy="676"
     inkscape:document-units="px"
     inkscape:current-layer="layer1"
     showgrid="true"
     units="px"
     inkscape:window-width="1118"
     inkscape:window-height="864"
     inkscape:window-x="568"
     inkscape:window-y="68"
     inkscape:window-maximized="0"
     showguides="true"
     inkscape:guide-bbox="true"
     inkscape:pagecheckerboard="0">
    <inkscape:grid
       type="xygrid"
       id="grid758" />
    <sodipodi:guide
       position="240,200"
       orientation="0,1"
       id="guide8"
       inkscape:locked="false" />
  </sodipodi:namedview>
  <metadata
     id="metadata753">
    <rdf:RDF>
      <cc:Work
         rdf:about="">
        <dc:format>image/svg+xml</dc:format>
        <dc:type
           rdf:resource="http://purl.org/dc/dcmitype/StillImage" />
        <dc:title />
      </cc:Work>
    </rdf:RDF>
  </metadata>
  <g
     inkscape:label="Layer 1"
     inkscape:groupmode="layer"
     id="layer1"
     transform="translate(0,-32.41664)"
     style="display:inline">
    <path
       style="fill:#000000;stroke-width:4.88"
       d="M 468.52178,862.91598 C 383.40209,842.85702 302.76012,828.63239 193.2078,828.33074 c -59.49298,-0.16382 -102.2686,0.60694 -116.353358,-9.40297 -14.084756,-10.00992 0.521353,-46.80052 15.79184,-56.08704 16.161278,-9.82825 63.545898,-13.98167 63.545898,-5.57003 0,2.92193 28.39684,4.79216 72.76315,4.79216 55.03524,0 78.04467,4.35378 135.61981,12.4004 34.39625,4.80717 54.80564,9.50577 70.73354,12.26845 15.92791,2.76268 23.03815,-3.97408 33.73322,7.70952 8.76202,9.57189 27.78176,75.14425 -0.52012,68.47475 z M 393.95185,757.00358 C 393.65812,748.83496 413.55199,667.80314 418.70191,654.7513 407,645.41664 368.93989,638.1096 233.50574,642.13259 c -104.88965,3.11563 -116.12953,0.60928 -126.7414,-6.34389 -6.60665,-4.32885 -17.634407,-42.57441 -12.012085,-54.88326 2.623872,-5.7444 50.705495,1.61944 114.158965,1.16098 63.45347,-0.45845 136.2788,-1.73921 166.39008,1.22722 30.24412,2.97951 56.09531,4.31134 57.44702,2.95957 5.12277,-5.12277 10.98126,-29.42808 13.99387,-69.79329 1.04595,-14.01443 2.75521,-37.74518 -2.36476,-43.74518 -5.22167,-6.11918 -25.90681,-11.19213 -33.86151,-12.38915 -58.88891,-8.86158 -83.51742,-1.51432 -166.91209,18.81748 C 143.77529,503.48145 69.669935,513.41365 51.085477,504.94603 28.597925,494.7 43.883179,435.26941 89.185999,433.61286 145.79089,431.54304 199.54916,413.49559 248.43203,403.05228 c 0.3928,-59.58566 0.0226,-109.32694 5.97314,-170.42872 5.35962,-55.03394 13.10181,-117.60785 14.4895,-139.079812 3.66886,-56.769522 26.99412,-60.99993 41.10958,-60.99993 10.75821,0 42.09373,2.03875 41.98772,18.299977 -0.0657,10.064986 -2.13243,27.083969 -4.59295,37.819957 C 344.93852,99.399729 339,152.41664 333.05169,203.3436 317.94755,332.65901 330,375.41664 331.1088,393.45114 c 23.8912,-8.0345 67.65474,-8.74981 112.86226,-2.76636 45.7758,6.05866 76.02894,18.73186 82.58245,43.05121 7.39022,27.42429 -11.55533,158.4917 -30.53973,216.60564 -10.27743,31.46072 -20.31293,67.08332 -22.30113,79.16131 -1.9882,12.07797 -14.62006,26.49533 -18.09994,30.49995 -7.35433,8.46332 -61.30387,6.92847 -61.66086,-2.99931 z M 384.9119,372.45656 C 371,359.41664 345.53909,336.99183 356.08342,319.0766 c 10.54432,-17.91521 29.89317,-53.2967 42.9974,-78.62555 24.44965,-47.25802 66.91918,-36.03441 87.25853,-26.97654 13.18389,5.87128 -29.72932,94.92732 -71.82663,142.87349 -13.47842,15.35108 -24.27933,21.09651 -29.60082,16.10856 z M 129.95889,358.57768 C 106.75166,345.97065 46.868222,238.38044 53.529707,221.02089 c 4.840642,-12.61451 50.753233,-44.40801 56.538693,-26.25731 9.64782,30.26807 43.77483,88.86832 56.67777,97.32266 6.84097,4.48237 21.46201,7.77163 33.72174,7.58629 24.33356,-0.36786 7.68485,48.23198 -10.78539,56.64758 -16.49157,7.51407 -43.88687,10.86068 -59.72363,2.25757 z"
       id="path39"
       sodipodi:nodetypes="ssssssssssscsssssssssssscsssssscsssssssssssssssssss" />
  </g>
</svg>
