<?xml version="1.0" encoding="UTF-8" standalone="no"?>
<!-- Created with Inkscape (http://www.inkscape.org/) -->

<svg
   width="1000"
   height="1000"
   viewBox="0 0 1000 1000"
   version="1.1"
   id="svg756"
   inkscape:version="1.1 (c68e22c387, 2021-05-23)"
   sodipodi:docname="u5f8c.svg"
   xmlns:inkscape="http://www.inkscape.org/namespaces/inkscape"
   xmlns:sodipodi="http://sodipodi.sourceforge.net/DTD/sodipodi-0.dtd"
   xmlns="http://www.w3.org/2000/svg"
   xmlns:svg="http://www.w3.org/2000/svg"
   xmlns:rdf="http://www.w3.org/1999/02/22-rdf-syntax-ns#"
   xmlns:cc="http://creativecommons.org/ns#"
   xmlns:dc="http://purl.org/dc/elements/1.1/">
  <defs
     id="defs750" />
  <sodipodi:namedview
     id="base"
     pagecolor="#ffffff"
     bordercolor="#666666"
     borderopacity="1.0"
     inkscape:pageopacity="0.0"
     inkscape:pageshadow="2"
     inkscape:zoom="0.5"
     inkscape:cx="717.27377"
     inkscape:cy="558.81601"
     inkscape:document-units="px"
     inkscape:current-layer="layer1"
     showgrid="true"
     units="px"
     inkscape:window-width="1118"
     inkscape:window-height="864"
     inkscape:window-x="506"
     inkscape:window-y="92"
     inkscape:window-maximized="0"
     showguides="true"
     inkscape:guide-bbox="true"
     inkscape:pagecheckerboard="0">
    <inkscape:grid
       type="xygrid"
       id="grid758" />
    <sodipodi:guide
       position="240,200"
       orientation="0,1"
       id="guide8"
       inkscape:locked="false" />
  </sodipodi:namedview>
  <metadata
     id="metadata753">
    <rdf:RDF>
      <cc:Work
         rdf:about="">
        <dc:format>image/svg+xml</dc:format>
        <dc:type
           rdf:resource="http://purl.org/dc/dcmitype/StillImage" />
        <dc:title />
      </cc:Work>
    </rdf:RDF>
  </metadata>
  <g
     inkscape:label="Layer 1"
     inkscape:groupmode="layer"
     id="layer1"
     transform="translate(0,-32.41664)"
     style="display:inline">
    <path
       style="fill:#000000;stroke-width:14.8328"
       d="m 322.14853,824.86671 c 0,-28.34832 59.49693,-141.25514 99.14708,-183.2857 C 437.06178,624.86831 466,589.41664 476,574.41664 c -10,0 -14.04128,-1.25351 -21.14623,-9.86256 -9.72647,-11.78557 -9.00027,-28.56706 -6.14207,-39.05335 3.28823,-12.064 5.2883,-17.08409 10.2883,-22.08409 -10,5 -35,20 -48.36559,25.67357 -33.70394,14.30701 -66.87,16.74305 -79.42475,4.11772 -23.88993,-24.02422 -16.63715,-83.96337 43.84712,-174.34789 28.82441,-43.07365 48.52214,-67.60088 46.2172,-74.0605 -2.30492,-6.45962 -33.53462,24.20724 -104.73238,88.93616 L 188,492.41664 l 17.5308,66.06984 c 10.33975,38.96832 27.85966,97.37879 35.59493,130.75644 7.73528,33.37762 18.32981,71.86522 23.54339,85.528 5.25341,13.7671 2.34916,24.84141 -6.51469,24.84141 -21.25978,0 -80.90486,-28.09694 -81.3133,-71.10573 -0.17867,-18.81339 -13.0888,-89.03885 -28.51925,-123.21586 -22.77186,-50.43757 -27.85288,-74.61539 -52.84031,-68.04431 -23.81977,6.26402 -30.78495,1.17105 -30.78495,-22.51016 0,-35.7284 31.84041,-83.77523 69.79272,-77.48996 29.38268,4.86607 70.37949,-34.19735 123.92389,-114.74149 50.03815,-75.26983 222.63628,-255.249652 272.21071,-281.54412 28.03569,-14.870237 55.3432,-1.48063 65.05531,8.286073 9.71211,9.766703 7.79733,29.258153 -14.18865,43.470541 C 534,123.41664 463.88776,193.19466 439,208.41664 c 25,-15 42.38149,-24.27935 57.88579,-30.4336 31.41747,-12.47079 60.41654,-18.24191 63.61527,12.16878 3.49894,33.26482 -41.73165,71.3793 -87.25755,138.78105 -45.52589,67.40175 -76.18399,114.36341 -73.01801,123.91478 6.28335,18.956 158.70428,-124.43844 188.16442,-171.8768 18.53829,-29.85138 81.95825,-28.14638 81.95825,-2.00663 0,8.15739 -22.33569,39.95149 -49.63487,70.65357 -53.30486,59.94946 -92.15193,124.42683 -73.02666,121.20783 51.14957,-8.60908 72.35917,-7.01968 42.61378,65.63991 -3.74488,9.1477 -9.96083,19.02632 -11.30042,21.95111 5,0 11.02745,-2.7626 19.19204,-2.45768 65.80796,2.45768 63.73942,65.37051 39.48102,123.75541 -11.76556,28.31724 -24.31424,48.04117 -28.67306,53.70227 14.35882,-0.6611 27.15313,-13.55668 46.10219,-25.60024 19.45126,-12.36275 32.95724,-14.04926 44.82856,1.79234 44.06925,58.8079 -82.43009,100.83049 -143.50202,110.65119 -51.83751,8.33573 -78.36731,-6.05898 -78.36731,-26.18375 0,-13.31699 6.41612,-24.21272 14.25805,-24.21272 17.69325,0 89.28097,-104.1455 89.28097,-129.88559 0,-41.59356 -58.62607,-16.02803 -101.7194,44.35758 -24.81239,34.76899 -51.11215,70.33145 -58.44393,79.02767 -7.33176,8.69622 -21.12111,30.45008 -30.643,48.34192 -17.58716,33.04662 -68.64558,41.23144 -68.64558,13.16167 z M 52.676975,432.89505 C 34,423.41664 36.772312,401.50329 111.17802,272.82309 184.86693,145.38257 199.74976,131.89751 222.68985,142.08976 252.98672,155.55063 258.81556,170.3619 176.76907,309.35518 100.07674,439.2781 79.927177,446.72429 52.676975,432.89505 Z"
       id="path243"
       sodipodi:nodetypes="ssccscssssscssssssssssssscssssssssscsscsssssssssssssss" />
  </g>
</svg>
