<?xml version="1.0" encoding="UTF-8" standalone="no"?>
<!-- Created with Inkscape (http://www.inkscape.org/) -->

<svg
   width="1000"
   height="1000"
   viewBox="0 0 1000 1000"
   version="1.1"
   id="svg756"
   inkscape:version="1.1 (c68e22c387, 2021-05-23)"
   sodipodi:docname="u5feb.svg"
   xmlns:inkscape="http://www.inkscape.org/namespaces/inkscape"
   xmlns:sodipodi="http://sodipodi.sourceforge.net/DTD/sodipodi-0.dtd"
   xmlns="http://www.w3.org/2000/svg"
   xmlns:svg="http://www.w3.org/2000/svg"
   xmlns:rdf="http://www.w3.org/1999/02/22-rdf-syntax-ns#"
   xmlns:cc="http://creativecommons.org/ns#"
   xmlns:dc="http://purl.org/dc/elements/1.1/">
  <defs
     id="defs750" />
  <sodipodi:namedview
     id="base"
     pagecolor="#ffffff"
     bordercolor="#666666"
     borderopacity="1.0"
     inkscape:pageopacity="0.0"
     inkscape:pageshadow="2"
     inkscape:zoom="0.5"
     inkscape:cx="909"
     inkscape:cy="652"
     inkscape:document-units="px"
     inkscape:current-layer="layer1"
     showgrid="true"
     units="px"
     inkscape:window-width="1118"
     inkscape:window-height="830"
     inkscape:window-x="472"
     inkscape:window-y="114"
     inkscape:window-maximized="0"
     showguides="true"
     inkscape:guide-bbox="true"
     inkscape:pagecheckerboard="0">
    <inkscape:grid
       type="xygrid"
       id="grid758" />
    <sodipodi:guide
       position="240,200"
       orientation="0,1"
       id="guide8"
       inkscape:locked="false" />
  </sodipodi:namedview>
  <metadata
     id="metadata753">
    <rdf:RDF>
      <cc:Work
         rdf:about="">
        <dc:format>image/svg+xml</dc:format>
        <dc:type
           rdf:resource="http://purl.org/dc/dcmitype/StillImage" />
        <dc:title />
      </cc:Work>
    </rdf:RDF>
  </metadata>
  <g
     inkscape:label="Layer 1"
     inkscape:groupmode="layer"
     id="layer1"
     transform="translate(0,-32.41664)"
     style="display:inline">
    <path
       style="fill:#000000;stroke-width:11.5937"
       d="m 500,892.41662 c -9.29918,-9.68236 -11.01506,-66.59154 -9.63432,-178.9567 l 2,-162.76059 -61.7102,3.57363 c -62.54891,3.6222 -91.99509,-5.45547 -91.99509,-36.27548 0,-31.99415 23.39088,-35.07331 67.60357,-35.36166 C 428.44816,482.49113 432,481.41664 452,481.41664 c 12.65276,-10.13208 38.13146,-49.15625 43,-59 0.13146,-15.15625 0.0523,-36.78055 -4.55515,-72.37739 -4.75147,-36.70978 -7.2672,-53.90934 -10.44485,-72.62261 -10,-5 -19.01874,-6.96983 -37.71033,-10.94054 -45.63003,-9.69332 -60.88432,-30.47642 -45.02104,-61.33857 8.17182,-15.89833 19.94936,-20.8522 40.05893,-16.84962 13.79518,2.74577 22.67244,6.12873 31.67244,8.12873 -0.93587,-8.96028 -6.88394,-28.11835 -10.35465,-52.21632 -8.71931,-60.540364 0.48287,-89.35511 28.53617,-89.35511 26.5957,0 40.98172,31.48258 49.9857,99.88049 2.77064,21.04691 11.38071,55.73683 13.83278,66.69094 16,9 11.95143,8.88216 26.69236,20.58889 20.61428,16.37114 41.05336,41.74727 45.42018,56.39137 C 627.47936,313.04102 634,326.41664 634,346.41664 c 20,20 44.87066,52.79365 44.67653,78.72638 -0.19413,25.93274 -7.36345,51.42664 -21.4601,70.08601 -11.14503,14.75239 -32.16265,21.38152 -41.21643,28.18761 9,9 24,16 44.78921,28.64325 17.98395,10.93719 40.74071,23.30992 61.39854,23.30992 22.30837,0 36.3864,4.6024 41.66529,12.91183 5.27888,8.30944 1.75861,20.3259 -11.12961,35.15404 -12.51018,14.39318 -28.86768,11.58215 -49.72678,11.56636 -20.8591,-0.0158 -45.10214,-5.50113 -74.73631,-21.66216 l -61.57741,-32.49062 -1.79744,55.62302 c -0.57112,17.67362 -1.20467,72.8735 -5.36904,128.17923 C 549.76167,894.20123 534.06885,927.88928 500,892.41664 Z M 622,419.41664 c -3.26109,-8.74142 -5,-11 -11.18347,-14.53166 C 607,413.41664 603.65567,416.79039 594.23937,429.72503 585,442.41664 576,456.41664 571,461.41664 c -0.017,4.47644 5,10 10,15 5,0 16.6541,-9.9066 24,-14 20.34757,-14.75157 24.34162,-23.3206 17,-43 z M 163.7121,761.69396 C 157.97694,713.86059 151.35811,668.6451 149.2237,634.00546 147,597.91664 149.44429,548.40185 147,537.41664 c -15,55 -18.5,66.5 -31.16535,96.80509 C 93.248748,688.26428 90,702.41664 54.377032,686.24924 20.039662,670.66531 67.718919,633.62466 83.480584,520.36835 c 9.998256,-71.84301 0.986577,-82.88748 11.297906,-104.9247 10.31133,-22.03723 30.69395,-24.14706 45.70546,-5.77713 5.51605,6.75012 7.6813,9.00412 9.51605,17.75012 0.75752,-24.16181 -3.05241,-87.02228 -2.95672,-186.24728 0.18316,-189.949261 19.37023,-234.4749713 49.80873,-192.935641 13.26621,18.104344 16.82701,63.643581 16.82701,215.201231 0,109.83907 1.75231,178.71843 1.32098,193.98169 10.43133,4.73674 31.58168,44.03462 45.1769,82.85712 13.73397,39.21876 31.61567,70.58637 40.2391,70.58637 8.86593,0 15.52051,12.33888 15.52051,28.77805 0,38.62195 -31.93559,46.08284 -66.10028,14.01189 C 240,644.41664 224,612.41664 214,592.41664 c 0,50 12.14246,141.23301 12.14246,141.23301 6.0314,89.80145 -0.30216,90.15236 -27.56879,90.15236 -24.55171,0 -28.19262,-6.48652 -34.86157,-62.10805 z"
       id="path39"
       sodipodi:nodetypes="sscsssccscssscssscsscsscsssssscssssscscccssscssssscssscsssscsss" />
  </g>
</svg>
