<?xml version="1.0" encoding="UTF-8" standalone="no"?>
<!-- Created with Inkscape (http://www.inkscape.org/) -->

<svg
   width="1000"
   height="1000"
   viewBox="0 0 1000 1000"
   version="1.1"
   id="svg756"
   inkscape:version="1.1 (c68e22c387, 2021-05-23)"
   sodipodi:docname="u601d.svg"
   xmlns:inkscape="http://www.inkscape.org/namespaces/inkscape"
   xmlns:sodipodi="http://sodipodi.sourceforge.net/DTD/sodipodi-0.dtd"
   xmlns="http://www.w3.org/2000/svg"
   xmlns:svg="http://www.w3.org/2000/svg"
   xmlns:rdf="http://www.w3.org/1999/02/22-rdf-syntax-ns#"
   xmlns:cc="http://creativecommons.org/ns#"
   xmlns:dc="http://purl.org/dc/elements/1.1/">
  <defs
     id="defs750" />
  <sodipodi:namedview
     id="base"
     pagecolor="#ffffff"
     bordercolor="#666666"
     borderopacity="1.0"
     inkscape:pageopacity="0.0"
     inkscape:pageshadow="2"
     inkscape:zoom="0.5"
     inkscape:cx="809"
     inkscape:cy="372"
     inkscape:document-units="px"
     inkscape:current-layer="layer1"
     showgrid="true"
     units="px"
     inkscape:window-width="1118"
     inkscape:window-height="864"
     inkscape:window-x="508"
     inkscape:window-y="46"
     inkscape:window-maximized="0"
     showguides="true"
     inkscape:guide-bbox="true"
     inkscape:pagecheckerboard="0">
    <inkscape:grid
       type="xygrid"
       id="grid758" />
    <sodipodi:guide
       position="240,200"
       orientation="0,1"
       id="guide8"
       inkscape:locked="false" />
  </sodipodi:namedview>
  <metadata
     id="metadata753">
    <rdf:RDF>
      <cc:Work
         rdf:about="">
        <dc:format>image/svg+xml</dc:format>
        <dc:type
           rdf:resource="http://purl.org/dc/dcmitype/StillImage" />
        <dc:title />
      </cc:Work>
    </rdf:RDF>
  </metadata>
  <g
     inkscape:label="Layer 1"
     inkscape:groupmode="layer"
     id="layer1"
     transform="translate(0,-32.41664)"
     style="display:inline">
    <path
       style="fill:#000000;stroke-width:1.18892"
       d="m 65.746703,887.22873 c -1.422482,-0.53256 -5.786911,-1.5023 -9.698735,-2.15499 -10.533218,-1.75746 -18.36204,-5.47314 -20.888348,-9.91389 -3.938958,-6.92391 -5.173206,-11.71388 -3.988066,-15.4772 0.63626,-2.02037 0.648835,-9.29133 0.02885,-16.6731 -0.905397,-10.77977 -0.729248,-14.25254 0.997974,-19.67497 1.153592,-3.62158 2.588548,-8.30625 3.188801,-10.41038 0.600251,-2.10413 1.807625,-5.79318 2.683053,-8.19791 0.875427,-2.4047 1.727367,-7.52561 1.893203,-11.37977 0.414335,-9.62958 2.740677,-18.90392 7.015969,-27.97018 4.524669,-9.59512 11.679418,-28.8783 11.66543,-31.44017 -0.0059,-1.06019 0.506883,-2.78177 1.139271,-3.82568 4.07702,-6.73008 9.237433,-21.63138 9.206384,-26.58447 -0.0065,-0.9528 1.092335,-4.64184 2.440694,-8.1979 1.348344,-3.55608 2.837914,-9.24574 3.310139,-12.64367 0.695297,-5.00302 1.908725,-7.32118 6.379751,-12.18799 6.920497,-7.53309 12.939591,-12.20979 18.835298,-14.63457 5.133029,-2.11113 22.491989,-3.32606 24.971939,-1.74776 1.59236,1.01341 8.98396,2.98008 15.23816,4.05438 4.37585,0.75166 12.76238,6.20744 12.82174,8.34105 0.0258,0.93182 0.68442,2.23292 1.46335,2.89133 1.02623,0.86739 0.97427,2.86642 -0.18863,7.25867 -1.9381,7.32021 -0.68062,10.7234 6.79921,18.40113 9.77058,10.02908 14.57442,19.48209 26.29017,51.73373 4.78525,13.17312 10.64161,23.5549 19.23661,34.10142 8.90535,10.92736 15.54381,16.03881 26.41485,20.33877 7.55875,2.98981 10.16341,3.42208 23.1532,3.84234 11.77341,0.38094 15.07114,0.15168 16.85937,-1.17196 1.50418,-1.1134 6.19579,-1.82447 14.50814,-2.19884 8.51255,-0.38343 14.20425,-1.26337 18.53481,-2.86556 3.43737,-1.2717 7.89781,-2.31222 9.91206,-2.31222 2.01429,0 9.38558,-2.01327 16.38066,-4.47395 6.99508,-2.46068 18.24658,-6.41724 25.00338,-8.79238 6.75677,-2.37514 16.57616,-4.8864 21.82083,-5.58058 l 9.53577,-1.26215 4.38883,4.04799 c 4.87621,4.49747 4.90467,6.40862 0.21487,14.4215 -3.16114,5.40101 -8.83715,10.4909 -23.02865,20.65044 -17.80665,12.74761 -27.23821,18.4864 -36.85518,22.4251 -4.97871,2.03902 -13.99853,6.03557 -20.04408,8.88117 -6.04554,2.84564 -15.06537,6.2691 -20.04406,7.60774 -4.97868,1.33865 -12.83465,3.58073 -17.45772,4.98242 -11.76724,3.56773 -27.83036,5.29903 -41.87159,4.51294 -14.15615,-0.79252 -44.76631,-7.24808 -55.28494,-11.65933 -8.78172,-3.68284 -28.86405,-16.23085 -31.38054,-19.60745 -0.63817,-0.85629 -4.89613,-4.66833 -9.46209,-8.47117 -8.40123,-6.99706 -13.30113,-8.77222 -13.30113,-4.81877 0,1.15254 -1.16384,4.39049 -2.58631,7.19549 -1.42248,2.80499 -2.58633,6.43643 -2.58633,8.06991 0,1.63347 -0.48073,3.43723 -1.06831,4.00835 -0.97343,0.94617 -1.7781,3.00201 -5.75411,14.70157 -3.8117,11.216 -6.91433,16.11758 -14.443334,22.81773 -10.65296,9.48021 -15.932197,12.17855 -23.646042,12.08603 -3.392528,-0.0406 -7.332075,-0.5097 -8.754559,-1.04224 z M 680,752.41664 c -16.5405,-5.24795 -26.90523,-11.26799 -43.96761,-25.53735 -11.1596,-9.33289 -31.42064,-30.35157 -37.01193,-38.39602 -0.98065,-1.41089 -3.73931,-4.36214 -6.13034,-6.55831 -5.8147,-5.34078 -17.31905,-18.51537 -19.64546,-22.49762 -2.57844,-4.4137 -14.00429,-14.83351 -16.26566,-14.83351 -1.01782,0 -2.04111,0.61484 -2.27397,1.36631 -3.26944,10.55091 -9.54588,19.63258 -20.20751,29.23921 -4.33678,3.90767 -9.41416,8.82641 -11.28306,10.93053 -11.88712,13.38329 -27.62109,22.94185 -41.71528,25.34251 -25.21106,4.29417 -30.04679,4.69014 -38.59667,3.1604 -13.71724,-2.45423 -18.41174,-3.89788 -33.82054,-10.40048 -15.93768,-6.7258 -19.74831,-8.82796 -25.06008,-13.82448 -5.24607,-4.93471 -6.19078,-6.23788 -10.4304,-14.38801 -3.6438,-7.00476 -6.08416,-21.31671 -5.07892,-29.78643 0.49949,-4.20827 0.77619,-9.16457 0.61497,-11.01403 -0.17208,-1.97383 0.54091,-3.94776 1.72631,-4.77932 1.11072,-0.77916 2.0195,-2.09959 2.0195,-2.93432 0,-2.90575 5.71363,-11.91279 10.87608,-17.1451 7.57216,-7.6747 26.74817,-14.54462 32.86925,-11.77564 1.45121,0.65649 4.78705,1.19361 7.41298,1.19361 6.96525,0 26.26283,8.70747 31.03813,14.00505 0.7555,0.83811 2.15987,3.77458 3.12079,6.52545 1.55171,4.44207 1.45093,6.23299 -0.90069,16.00946 -3.00534,12.49415 -2.42074,14.58538 5.2347,18.72616 6.09238,3.29532 22.16435,1.95185 30.83464,-2.57747 6.17179,-3.22414 23.36371,-18.78171 27.95845,-25.30063 1.21514,-1.72403 4.84139,-6.03243 8.05831,-9.57423 3.21691,-3.54176 6.64968,-8.62989 7.62837,-11.30691 0.97866,-2.67702 3.44609,-7.95643 5.48313,-11.73203 2.95039,-5.46846 4.93102,-7.5226 9.73784,-10.09926 3.31875,-1.77901 7.09366,-3.5188 8.38867,-3.86622 1.29501,-0.34742 2.35458,-1.6113 2.35458,-2.80864 0,-1.19732 0.59141,-1.86799 1.31426,-1.49041 0.72283,0.37762 1.01792,1.0919 0.6557,1.58728 -0.3622,0.49538 1.51953,0.47837 4.18169,-0.0378 18.7198,-3.62951 43.65449,8.97913 61.37441,31.03501 2.86305,3.56361 9.1824,9.73839 14.04301,13.72173 5.52324,4.52636 10.85811,10.31685 14.22553,15.44038 2.96345,4.50883 6.24948,9.03006 7.3023,10.04719 1.05283,1.0171 6.36455,7.28096 11.80385,13.91965 16.61387,20.2773 28.99276,34.44179 31.3543,35.87704 1.23572,0.75106 3.58614,3.1973 5.22315,5.43618 1.63702,2.23885 4.95433,5.53858 7.37182,7.33269 8.7474,6.49183 14.11601,17.39093 12.76377,25.91248 -0.53617,3.37893 -2.09046,5.6971 -6.18301,9.22183 -5.27828,4.54595 -6.78885,5.26165 -16.80865,7.96421 -7.72562,2.08377 -22.83604,1.44755 -31.59071,-1.33014 z M 422.66018,597.59247 c -0.45506,-0.62238 0.65861,-1.09305 2.58635,-1.09305 1.92773,0 3.04141,0.47067 2.58634,1.09305 -0.4396,0.60118 -1.60345,1.09307 -2.58634,1.09307 -0.98292,0 -2.14678,-0.49189 -2.58635,-1.09307 z M 302.6206,555.33549 c -0.36465,-0.30823 -6.38365,-1.03751 -13.37552,-1.62061 -30.60433,-2.55236 -42.30989,-4.48124 -52.8006,-8.70069 -2.84498,-1.14428 -5.61547,-2.07916 -6.15665,-2.07747 -1.17248,0.003 -11.65176,-3.84928 -17.12034,-6.2946 -9.23409,-4.12911 -20.48957,-14.45295 -25.90565,-23.76135 -1.99156,-3.42282 -2.54163,-6.62707 -2.53328,-14.75624 0.006,-5.71122 0.43262,-11.66672 0.94836,-13.23448 1.90438,-5.78927 22.36816,-9.04161 31.54625,-5.01368 2.2306,0.97893 7.11177,4.13257 10.84703,7.00811 8.20912,6.31972 15.74517,9.74255 27.77174,12.61381 13.91422,3.32192 21.7618,4.47173 43.58977,6.38665 12.09239,1.06084 15.53391,1.05199 17.0962,-0.0439 1.35197,-0.94841 3.97645,-1.1373 8.49833,-0.61159 3.9379,0.45779 7.17682,0.31544 8.13624,-0.35759 1.9599,-1.37489 15.85793,-4.41199 25.58056,-5.5901 3.96379,-0.48028 8.32823,-1.37266 9.69873,-1.98299 1.37052,-0.61037 5.98338,-1.74343 10.25083,-2.51793 4.26743,-0.77448 11.25053,-2.71807 15.51797,-4.31909 6.62997,-2.48742 14.42675,-5.12592 25.86327,-8.75245 1.4225,-0.45107 11.60618,-4.55238 22.6304,-9.11399 18.65727,-7.72002 29.64557,-13.47046 37.50179,-19.6256 1.77808,-1.39309 5.46512,-3.48517 8.19338,-4.64904 2.72822,-1.1639 5.50023,-2.95705 6.16,-3.98473 0.65973,-1.02773 3.22839,-2.68237 5.70813,-3.67698 2.87079,-1.15147 4.50861,-2.58075 4.50861,-3.93446 0,-1.16936 0.57733,-1.8245 1.28295,-1.4559 1.76857,0.92388 4.55081,-0.54725 12.71048,-6.72082 12.72396,-9.62686 25.04112,-20.4991 31.38712,-27.70505 3.44133,-3.90766 7.447,-8.33453 8.9015,-9.83747 5.66718,-5.85604 10.38868,-11.86119 14.64655,-18.62876 6.53112,-10.38066 10.03105,-15.59728 11.70214,-17.44206 2.85065,-3.14686 4.71815,-6.54383 4.71815,-8.58217 0,-1.12946 1.07734,-3.2266 2.39412,-4.66032 2.42663,-2.6422 3.3926,-5.22026 5.27707,-14.08385 0.57518,-2.70532 2.40388,-9.09968 4.06379,-14.20971 2.52495,-7.77311 3.08914,-12.5063 3.45344,-28.97218 0.37281,-16.85083 -0.031,-22.1955 -2.80736,-37.16386 -1.78358,-9.61545 -3.84412,-19.5731 -4.57902,-22.12812 -0.73492,-2.55501 -1.81725,-6.49001 -2.40517,-8.74442 -0.58793,-2.25445 -1.97503,-5.82052 -3.08245,-7.92467 -1.10742,-2.10409 -3.24504,-6.15671 -4.75028,-9.00577 -1.50525,-2.84905 -2.73681,-5.53707 -2.73681,-5.97338 0,-0.82512 -8.88215,-17.00794 -12.47634,-22.73121 -1.13261,-1.80355 -4.09258,-6.58956 -6.5777,-10.63561 -8.39759,-13.67209 -40.99414,-44.04924 -57.11387,-53.22519 -2.56019,-1.45735 -4.94583,-2.93891 -5.30146,-3.29236 -0.8091,-0.8042 -23.85338,-10.429682 -29.0962,-12.153374 -9.08563,-2.987072 -18.98985,-4.234247 -33.62229,-4.233873 -22.58516,5.83e-4 -53.25303,4.065293 -66.27788,8.784457 -3.13896,1.137314 -6.54441,2.067822 -7.56772,2.067822 -3.57075,0 -37.58063,14.723068 -47.34232,20.494768 -3.30454,1.95384 -6.54061,3.55242 -7.19127,3.55242 -0.65068,0 -2.23629,0.98375 -3.52362,2.18611 -1.28733,1.20237 -3.04138,2.18611 -3.89788,2.18611 -0.85647,0 -4.11235,1.88827 -7.23526,4.19619 -3.12288,2.30788 -8.58762,6.05012 -12.14383,8.31605 -11.62508,7.40725 -54.14366,43.64984 -58.11538,49.53724 -1.82058,2.69862 -8.82813,10.46273 -10.20868,11.31078 -0.60179,0.36967 -1.76893,1.66314 -2.59367,2.87438 -0.82474,1.21127 -4.11819,4.99364 -7.31876,8.40531 -10.24291,10.91851 -16.77791,19.64087 -17.661,23.57246 -0.47259,2.10411 0.11324,10.95786 1.30169,19.67498 1.18853,8.71707 2.75503,21.2599 3.48109,27.87288 0.72606,6.61297 1.86437,16.94234 2.52955,22.95414 0.6652,6.01179 1.22901,14.64857 1.25299,19.1928 0.0275,5.2345 0.69552,9.01592 1.82272,10.3189 1.68619,1.94915 1.89073,1.87436 3.91271,-1.43065 1.17343,-1.91802 2.68109,-3.48733 3.35036,-3.48733 2.09713,0 10.22274,-7.51899 12.87564,-11.91437 1.39584,-2.31271 4.30941,-5.6182 6.47457,-7.34553 2.16517,-1.72733 3.93667,-3.40137 3.93667,-3.72005 0,-0.3187 4.05968,-4.25527 9.02153,-8.74799 4.96186,-4.4927 8.89378,-8.66043 8.73764,-9.2616 -0.15615,-0.60117 0.22743,-1.09306 0.85234,-1.09306 0.62494,0 1.63069,-1.12974 2.23499,-2.51054 0.60431,-1.38082 2.77739,-3.0052 4.82907,-3.60974 2.55414,-0.75259 4.6776,-2.71811 6.73477,-6.23385 3.53193,-6.03626 8.70357,-11.14653 11.28035,-11.14653 1.95472,0 9.32905,-6.13958 9.32905,-7.76698 0,-0.5376 0.64249,-0.97748 1.42776,-0.97748 1.70213,0 14.44073,-10.8854 19.88404,-16.99132 5.82725,-6.53661 21.01129,-19.69242 26.0327,-22.55532 2.44636,-1.39477 4.78719,-3.64266 5.20179,-4.99531 0.41463,-1.35265 1.35144,-2.45938 2.08183,-2.45938 0.73039,0 2.71065,-1.26106 4.40058,-2.80235 2.15945,-1.9695 3.84576,-2.59493 5.6742,-2.10441 2.14135,0.57446 3.03158,-0.13832 5.03218,-4.02925 2.22853,-4.33418 2.32375,-6.04473 1.14531,-20.57646 -2.0169,-24.87127 -1.87359,-32.3963 0.66212,-34.76464 1.19233,-1.11364 2.1679,-2.60093 2.1679,-3.30505 0,-0.70414 0.6116,-1.28028 1.35914,-1.28028 0.74753,0 2.19246,-1.68572 3.21095,-3.74612 2.01144,-4.06913 5.17997,-5.40917 12.24105,-5.17703 2.48933,0.082 6.27185,-0.5208 8.40556,-1.33924 7.34585,-2.81758 10.46271,-2.97412 12.95058,-0.65046 1.27691,1.19264 3.39531,2.16844 4.70759,2.16844 1.31222,0 2.39043,0.36888 2.39597,0.81977 0.008,0.8088 6.10475,3.55244 7.89146,3.55244 2.91424,0 20.18092,7.92469 21.63958,9.93166 5.18726,7.13732 6.55517,10.07567 6.91611,14.85619 l 0.39797,5.27115 11.63848,0.31565 c 6.40116,0.17362 13.18678,0.74756 15.07912,1.2754 1.89236,0.52788 5.82034,0.68996 8.72888,0.36022 3.26055,-0.36965 5.28821,-0.16263 5.28821,0.53993 0,0.62671 2.66093,2.22828 5.91321,3.55905 6.41587,2.62527 14.21971,8.77791 15.51755,12.23427 0.44659,1.18934 2.14533,3.8232 3.775,5.85305 5.3217,6.6284 11.85524,21.4485 12.73005,28.87556 0.71708,6.08775 0.40211,7.89364 -2.20012,12.61481 -6.5112,11.81308 -16.28483,14.56526 -27.05037,7.61714 -3.2513,-2.09835 -7.5545,-5.88309 -9.56267,-8.4105 -5.637,-7.09448 -10.53351,-8.98447 -22.97903,-8.86964 -9.48801,0.0875 -11.26154,0.46537 -18.84857,4.01535 -4.60628,2.15527 -11.07016,6.08878 -14.3642,8.74117 -5.12444,4.12623 -6.5925,6.35324 -10.16808,15.42506 -2.2984,5.83142 -4.89816,13.38588 -5.77725,16.7877 -0.87909,3.40181 -4.2443,13.56322 -7.47824,22.58093 -3.23393,9.01769 -6.18438,17.62549 -6.55654,19.12846 -0.37213,1.50295 -1.55637,4.94608 -2.63157,7.65138 -1.07524,2.70531 -2.90385,8.11593 -4.06359,12.0236 -4.2234,14.23034 -5.90081,19.16631 -7.14553,21.02646 -0.69855,1.04391 -1.27854,3.25736 -1.2889,4.91873 -0.009,1.66142 -0.95537,5.23419 -2.10004,7.93949 -2.17737,5.14595 -6.68948,20.0587 -7.77197,25.68677 -0.34691,1.80354 -1.10054,4.26292 -1.67476,5.46527 -0.57422,1.20238 -1.69841,3.56191 -2.4982,5.24344 -0.79981,1.68152 -1.45418,4.27056 -1.45418,5.75337 0,1.48283 -0.5252,3.55013 -1.16713,4.59406 -0.64192,1.0439 -1.88443,4.11145 -2.76113,6.81677 -4.42749,13.66219 -4.94602,14.93188 -9.03276,22.11772 -6.86215,12.06597 -23.65121,23.75867 -34.14767,23.7821 -2.08321,0.003 -5.57478,0.55237 -7.75899,1.21715 -3.39438,1.0331 -5.0384,0.79535 -11.31646,-1.63659 -10.07604,-3.90321 -12.69892,-7.29814 -12.69892,-16.43697 0,-6.49465 0.29827,-7.33371 2.90964,-8.18519 2.67988,-0.87381 8.32098,-5.87032 15.32445,-13.57327 2.09357,-2.30267 2.9733,-5.11159 3.42336,-10.93055 0.39586,-5.11819 1.27188,-8.27821 2.52851,-9.1209 1.36153,-0.91302 1.66487,-2.28203 1.03921,-4.68991 -0.60316,-2.32114 -0.23165,-4.24155 1.17044,-6.05025 1.12971,-1.45735 2.05402,-4.31043 2.05402,-6.34018 0,-2.02972 0.86659,-6.105 1.92576,-9.05614 1.05914,-2.95116 1.93205,-7.2347 1.93975,-9.51897 0.007,-2.28428 0.81636,-5.48146 1.79705,-7.10485 0.98066,-1.6234 2.48059,-6.6407 3.3332,-11.14954 0.8526,-4.50884 2.37794,-11.5784 3.38962,-15.7101 1.0117,-4.1317 1.83945,-8.8674 1.83945,-10.52379 0,-1.65638 0.87286,-4.77743 1.93974,-6.93567 1.06685,-2.15824 1.93974,-4.92361 1.93974,-6.14529 0,-1.24571 -0.8519,-2.22122 -1.93974,-2.22122 -1.06688,0 -1.94955,0.61484 -1.96152,1.36633 -0.009,0.75147 -2.41943,3.3338 -5.34993,5.73852 -2.9305,2.40474 -6.85007,6.33974 -8.71017,8.74445 -1.86009,2.40471 -4.37941,5.35597 -5.59846,6.55833 -1.21903,1.20237 -7.54921,7.84266 -14.067,14.75624 -6.5178,6.91356 -13.73024,14.29167 -16.02767,16.39582 -2.29742,2.10412 -7.19298,7.26878 -10.87903,11.47705 -25.26153,28.8404 -27.39612,30.54364 -43.23205,34.49586 -7.15769,1.78637 -8.02048,3.78102 -5.36417,12.40115 1.05466,3.42252 1.91756,7.84695 1.91756,9.83205 0,8.25966 -5.91991,16.50145 -15.12944,21.06341 -4.727,2.34152 -6.84067,2.72805 -12.68006,2.31874 -8.93679,-0.62641 -24.00331,-6.82448 -31.13532,-12.80839 -7.7931,-6.53862 -19.93823,-28.2615 -19.93823,-35.6617 0,-1.97543 -0.88514,-6.5121 -1.96699,-10.08148 -1.08185,-3.56939 -2.54189,-12.58583 -3.24452,-20.03653 -0.70263,-7.45069 -1.87707,-17.72763 -2.60986,-22.83767 -0.73278,-5.11002 -1.82462,-13.96375 -2.42628,-19.67498 -1.98916,-18.88194 -7.03567,-54.28182 -9.11559,-63.94368 -0.6471,-3.00589 -1.80782,-9.64621 -2.57938,-14.75624 -1.35393,-8.96722 -7.76354,-32.06418 -10.76828,-38.80341 -0.80413,-1.80356 -3.88534,-5.49263 -6.84714,-8.19793 -5.51675,-5.03901 -11.37702,-13.58821 -12.850053,-18.74617 -1.176743,-4.12049 2.643728,-15.68581 6.647216,-20.12243 2.504457,-2.77539 4.384896,-3.76052 7.178197,-3.76052 2.40078,0 5.06373,-1.08803 7.28222,-2.97537 1.92358,-1.63645 4.11855,-2.9891 4.87769,-3.0059 0.75913,-0.017 2.40098,-0.89131 3.64856,-1.94337 2.95091,-2.48846 6.15483,-2.41604 12.09113,0.27327 3.34005,1.51313 7.21995,2.17313 12.60368,2.144 7.33042,-0.0397 7.92818,-0.24417 10.38482,-3.55244 1.55609,-2.09554 3.90144,-3.66061 5.81924,-3.88324 3.71509,-0.43126 8.00546,-3.3227 7.35977,-4.96002 -0.63437,-1.60861 3.17215,-5.05109 5.58524,-5.05109 3.01502,0 10.54119,-6.96688 9.64904,-8.93198 -0.92217,-2.0313 1.33678,-3.69989 6.64173,-4.9059 4.82143,-1.09614 14.71146,-7.68773 14.71146,-9.80506 0,-0.8235 0.55549,-1.49729 1.2344,-1.49729 1.27625,0 6.88348,-4.3921 8.71641,-6.82754 1.24348,-1.65218 10.17076,-7.38216 11.50138,-7.38216 0.51374,0 2.90428,-1.27021 5.31226,-2.822673 3.20285,-2.064875 4.16698,-3.385137 3.59144,-4.917888 -0.5818,-1.549462 0.0397,-2.360873 2.38652,-3.115019 1.74527,-0.560873 4.66754,-2.282829 6.49387,-3.82654 1.82633,-1.543723 4.37152,-2.806762 5.65599,-2.806762 1.28445,0 8.03191,-3.197187 14.9944,-7.104856 6.96246,-3.907668 13.06657,-7.118538 13.56467,-7.135262 0.49811,-0.01671 3.19153,-1.492349 5.98538,-3.279164 2.79386,-1.786814 6.02389,-3.248753 7.17789,-3.248753 3.80937,0 9.05925,-2.699272 9.0695,-4.663166 0.006,-1.185929 1.88049,-2.607562 4.85947,-3.685871 2.66715,-0.965438 5.90415,-2.210548 7.1933,-2.766912 1.28914,-0.556361 3.51426,-0.697594 4.94467,-0.313851 2.99146,0.802527 9.66147,-1.253031 13.32258,-4.105735 1.37879,-1.074336 3.12456,-2.02759 3.87949,-2.118342 0.75493,-0.09077 3.1184,-0.318987 5.25212,-0.507183 10.59961,-0.934899 19.55981,-2.196754 20.98675,-2.955544 0.8741,-0.464811 5.52949,-1.531664 10.34531,-2.370782 4.81582,-0.839119 11.08373,-2.087864 13.9287,-2.77499 6.68463,-1.614492 22.80995,-2.112671 24.87561,-0.768509 0.88421,0.575373 3.77377,0.688996 6.46583,0.254245 5.78588,-0.934388 21.28749,-0.904363 31.77914,0.06157 4.78626,0.440647 8.89479,0.20855 11.31635,-0.639273 2.619,-0.916947 4.30446,-0.982663 5.41716,-0.211214 1.66002,1.150884 16.80775,4.05834 29.41833,5.646556 8.47049,1.066799 16.96247,3.139806 18.73589,4.573687 0.70299,0.568395 1.28492,1.82005 1.29317,2.781459 0.0181,2.109104 2.19961,3.229055 9.12271,4.683473 2.87556,0.604096 6.52925,2.122861 8.11937,3.375037 1.59014,1.252175 4.47472,2.367353 6.41027,2.478175 1.9355,0.110823 4.68298,1.10577 6.10544,2.210997 2.44337,1.898406 10.54983,6.539928 19.56319,11.201254 8.66804,4.482757 33.9692,24.253091 42.5994,33.287166 9.57935,10.02765 13.48755,14.49637 13.48755,15.4219 0,0.58244 1.68595,2.87466 3.74659,5.09385 2.06062,2.21918 5.89888,7.60104 8.52952,11.95974 2.63063,4.35871 5.27184,8.18028 5.86935,8.49243 0.59753,0.31214 2.63223,3.38624 4.52158,6.83134 1.88935,3.44509 4.19569,7.49348 5.12519,8.99646 0.92952,1.50295 3.21791,6.66762 5.08539,11.47705 1.86746,4.80946 3.96282,9.85115 4.65636,11.2038 2.60223,5.07536 3.65524,7.4554 4.47324,10.11077 0.46302,1.50295 1.38283,4.45419 2.04405,6.55832 7.92601,25.22213 11.30621,61.64521 8.16583,87.99089 -2.87541,24.12269 -3.6969,28.35833 -7.94973,40.98954 -3.98891,11.84732 -4.984,14.25074 -9.16611,22.13787 -1.35373,2.55308 -2.86296,7.46248 -3.35383,10.90981 -0.49088,3.4473 -1.43367,6.55054 -2.09514,6.89608 -0.66145,0.34554 -1.20265,1.41909 -1.20265,2.38563 0,2.74463 -16.09798,29.49385 -22.94017,38.11855 -15.39992,19.41192 -20.47215,24.80452 -35.4412,37.67978 -32.22512,27.71769 -50.99078,40.00334 -104.79994,68.61131 -6.26739,3.3321 -27.14795,11.10382 -29.83305,11.10382 -0.61783,0 -4.72369,1.41674 -9.12413,3.14833 -4.40043,1.73159 -11.20139,4.14316 -15.1132,5.35904 -3.91184,1.21589 -9.73107,3.06444 -12.93165,4.10791 -3.2006,1.04347 -7.85597,2.28206 -10.34531,2.75241 -6.94954,1.3131 -23.68846,5.08598 -25.8633,5.82947 -2.29348,0.78404 -24.77393,3.75224 -39.44153,5.20759 -12.52939,1.24322 -36.35842,2.07024 -37.27705,1.29375 z M 136.24844,154.9181 c -0.99169,-0.51804 -0.32948,-1.01049 1.82745,-1.35902 1.86049,-0.30061 3.6532,-0.17659 3.98386,0.27561 0.85268,1.16617 -3.94185,2.06001 -5.81131,1.08341 z M 269.09686,65.644112 c 0.88907,-0.303226 2.34387,-0.303226 3.23292,0 0.88906,0.303227 0.16165,0.55132 -1.61645,0.55132 -1.7781,0 -2.50551,-0.248093 -1.61647,-0.55132 z m 177.4869,-33.160781 c 0,-0.601179 1.12948,-1.093053 2.51001,-1.093053 1.38049,0 2.86965,0.491874 3.30921,1.093053 0.45329,0.619935 -0.63314,1.093057 -2.51,1.093057 -1.82008,0 -3.30922,-0.491876 -3.30922,-1.093057 z"
       id="path229"
       sodipodi:nodetypes="sssssssssssscssssssssssssssssssssscssssssssssssssssssssssssssssssssssssssssssssssssssssssssssssssssssssssssssscsscsssssssssssssssssssssssssssssssssssssssssssssssssssssssssssssssssssssssssssssssssssssssssscssscssssssssssssssssssssscsssssssscssssssssssscssssssscssssssssssssssssssssssssscsssssssssssssssssssssscssssssssssssssssssssssssssssssssssssssssssssssssssssssssssssssss" />
  </g>
</svg>
