<?xml version="1.0" encoding="UTF-8" standalone="no"?>
<!-- Created with Inkscape (http://www.inkscape.org/) -->

<svg
   width="1000"
   height="1000"
   viewBox="0 0 1000 1000"
   version="1.1"
   id="svg756"
   inkscape:version="1.1 (c68e22c387, 2021-05-23)"
   sodipodi:docname="u6027.svg"
   xmlns:inkscape="http://www.inkscape.org/namespaces/inkscape"
   xmlns:sodipodi="http://sodipodi.sourceforge.net/DTD/sodipodi-0.dtd"
   xmlns="http://www.w3.org/2000/svg"
   xmlns:svg="http://www.w3.org/2000/svg"
   xmlns:rdf="http://www.w3.org/1999/02/22-rdf-syntax-ns#"
   xmlns:cc="http://creativecommons.org/ns#"
   xmlns:dc="http://purl.org/dc/elements/1.1/">
  <defs
     id="defs750" />
  <sodipodi:namedview
     id="base"
     pagecolor="#ffffff"
     bordercolor="#666666"
     borderopacity="1.0"
     inkscape:pageopacity="0.0"
     inkscape:pageshadow="2"
     inkscape:zoom="0.5"
     inkscape:cx="863"
     inkscape:cy="626"
     inkscape:document-units="px"
     inkscape:current-layer="layer1"
     showgrid="true"
     units="px"
     inkscape:window-width="1118"
     inkscape:window-height="864"
     inkscape:window-x="794"
     inkscape:window-y="135"
     inkscape:window-maximized="0"
     showguides="true"
     inkscape:guide-bbox="true"
     inkscape:pagecheckerboard="0">
    <inkscape:grid
       type="xygrid"
       id="grid758" />
    <sodipodi:guide
       position="240,200"
       orientation="0,1"
       id="guide8"
       inkscape:locked="false" />
  </sodipodi:namedview>
  <metadata
     id="metadata753">
    <rdf:RDF>
      <cc:Work
         rdf:about="">
        <dc:format>image/svg+xml</dc:format>
        <dc:type
           rdf:resource="http://purl.org/dc/dcmitype/StillImage" />
        <dc:title />
      </cc:Work>
    </rdf:RDF>
  </metadata>
  <g
     inkscape:label="Layer 1"
     inkscape:groupmode="layer"
     id="layer1"
     transform="translate(0,-32.41664)"
     style="display:inline">
    <path
       style="fill:#000000;stroke-width:14.8173"
       d="m 186.73587,860.70101 c -4.80599,-14.69261 -5.1674,-76.68002 -0.80313,-137.7498 4.82107,-67.46228 9.00388,-68.44872 9.5269,-90.29298 C 180.06932,630.02057 165,631.41664 155,646.41664 c -5,20 -13.4915,41.31108 -23.2809,67.79168 C 112.14028,767.1695 93.027271,802.63216 77.389028,804.50141 53,807.41664 38.884591,783.81795 41.788651,752.25058 c 2.90406,-31.56739 9.202573,-69.60582 27.221705,-113.55436 9.476919,-23.11415 31.112564,-40.29258 39.497684,-47.13926 8.774,-25.21824 13.92826,-85.26391 16.9106,-101.99588 C 134,441.41664 148,427.41664 165.5216,437.59299 c 28.95884,16.81897 26.4784,19.82365 22.25776,61.9803 -1.75867,17.56592 -9.77936,52.84335 -11.97025,65.6071 7.19089,-2.76375 12.19089,-2.76375 24.78064,0 -0.60089,-14.41425 8.97536,-89.00565 7.46894,-258.89471 -0.62785,-70.80783 -4.34395,-155.29447 -3.21308,-203.77538 1.13087,-48.480887 7.1087,-60.956041 9.45233,-63.705432 11.21869,-13.161066 52.53649,-4.351963 57.39067,39.37436 4.85419,43.726322 -0.70321,122.369882 0.66104,248.877692 0.98566,91.40076 -2.95268,182.21871 -5.58894,260.50004 23.15669,16.67436 53.30107,46.75316 70.86644,74.63413 19.07016,30.26947 29.37285,55.22555 43.7419,64.03035 20.01413,12.26389 11.63095,41.1952 -0.89162,52.22942 -11.30654,9.96272 -28.1074,10.22757 -42.58184,2.21328 C 323,772.41664 313.15692,753.19053 291.33018,713.8206 c -12.35549,-22.28618 -11.17915,-22.95984 -29.98954,-41.8321 -1.71003,45.24883 -4.84014,83.1041 -4.84014,83.1041 -6.67496,116.22775 -50.05881,165.85198 -69.76463,105.60841 z M 394.4703,819.72862 c -4.29461,-8.15192 0.14369,-45.81787 22.0851,-64.14655 46.7646,-39.06468 86.66488,-41.39567 62.50996,-7.25163 -14.766,20.87235 -17.59314,20.07327 43.94542,20.07327 39.03672,0 89.93262,-10.54893 104.27722,-13.9975 12.5283,-3.01191 28.91145,-7.23388 46.09539,-11.43605 45.5151,-11.1303 96.65809,-18.12176 96.64825,-6.12122 -0.0316,38.5677 -67.14035,67.60867 -158.26229,84.32086 -91.12194,16.71218 -206.22547,19.5784 -217.29905,-1.44118 z M 465.85327,636.81831 C 404,512.41664 420,492.41664 510.14502,491.38865 528.99523,491.17369 545.71377,489.4717 557,488.41664 c 2.05204,-9.49557 2.90542,-17.13688 4.95746,-38.996 2.61679,-27.87506 8.55017,-63.94613 8.55017,-88.13815 0,-21.24595 -0.342,-18.216 0.68402,-34.04195 -10.26021,0 -16.69029,-1.40101 -43.30135,1.16589 -36.3903,3.51021 -74.8903,29.01021 -101.28158,66.28 -52.57859,74.25154 -110.90631,31.56416 -86.74828,-63.02853 18.50295,-72.44987 83.32798,-229.25697 101.24979,-229.25697 20.24171,0 49.88901,50.01263 15.07783,116.31751 -19.3352,36.82777 -32.73839,65.9335 -37.62006,81.65886 -4.88168,15.72536 -5.24184,18.07035 9.50901,1.37666 25.92299,-29.33732 49.0849,-34.13777 84.95966,-40.15791 30.15196,-5.05979 48.92079,-1.83335 64.31111,-1.83335 0.65222,-16.34606 1.9349,-23.90193 6.24951,-48.65071 11.90976,-68.31433 39.59004,-88.56403 75.61496,-75.15053 39.80668,14.82157 51.24869,96.30631 8.53696,155.85477 -9.4052,13.11267 -22.23047,28.87368 -32.49068,34.14899 0,21.10127 -1.71004,30.45711 -1.71004,38.39368 0,15.87313 -4.90121,41.491 -7.26765,69.38969 -2.05204,24.19216 -3.33457,41.02674 -4.36059,50.52231 6.07975,-0.85426 11.98314,-0.63634 30.99873,-0.63634 25.54119,0 34.90053,5.04582 41.64435,12.98034 6.74381,7.93453 18.87211,26.75776 9.95122,46.31259 -11.7764,25.81419 -36.96031,30.86684 -53.19976,12.53228 -9.53583,-10.76609 -10.92615,-8.65596 -34.52465,-6.54584 -2.05204,21.10127 -5.62479,58.75159 -8.90778,86.81204 -8.54281,73.01735 -24.88236,120.69067 -51.66669,120.62889 -18.63648,-0.043 -60.92266,-60.32623 -90.3624,-119.53655 z M 550,612.41664 c 2.33903,-31.18704 2.72327,-46.51157 3.74929,-60.22739 -5.13011,0 -10.77527,1.6613 -30.34818,1.53059 C 478,553.41664 478,567.41664 512.89454,633.8107 543.54662,692.13261 544,692.41664 550,612.41664 Z"
       id="path95"
       sodipodi:nodetypes="ssccsssscsssccssssscssssscssssssssssssscsscsssssssscssscsscsssscsssscsss" />
  </g>
</svg>
