<?xml version="1.0" encoding="UTF-8" standalone="no"?>
<!-- Created with Inkscape (http://www.inkscape.org/) -->

<svg
   width="1000"
   height="1000"
   viewBox="0 0 1000 1000"
   version="1.1"
   id="svg756"
   inkscape:version="1.1 (c68e22c387, 2021-05-23)"
   sodipodi:docname="u60aa.svg"
   xmlns:inkscape="http://www.inkscape.org/namespaces/inkscape"
   xmlns:sodipodi="http://sodipodi.sourceforge.net/DTD/sodipodi-0.dtd"
   xmlns="http://www.w3.org/2000/svg"
   xmlns:svg="http://www.w3.org/2000/svg"
   xmlns:rdf="http://www.w3.org/1999/02/22-rdf-syntax-ns#"
   xmlns:cc="http://creativecommons.org/ns#"
   xmlns:dc="http://purl.org/dc/elements/1.1/">
  <defs
     id="defs750" />
  <sodipodi:namedview
     id="base"
     pagecolor="#ffffff"
     bordercolor="#666666"
     borderopacity="1.0"
     inkscape:pageopacity="0.0"
     inkscape:pageshadow="2"
     inkscape:zoom="0.5"
     inkscape:cx="905"
     inkscape:cy="664"
     inkscape:document-units="px"
     inkscape:current-layer="layer1"
     showgrid="true"
     units="px"
     inkscape:window-width="1118"
     inkscape:window-height="864"
     inkscape:window-x="602"
     inkscape:window-y="80"
     inkscape:window-maximized="0"
     showguides="true"
     inkscape:guide-bbox="true"
     inkscape:pagecheckerboard="0">
    <inkscape:grid
       type="xygrid"
       id="grid758" />
    <sodipodi:guide
       position="240,200"
       orientation="0,1"
       id="guide8"
       inkscape:locked="false" />
  </sodipodi:namedview>
  <metadata
     id="metadata753">
    <rdf:RDF>
      <cc:Work
         rdf:about="">
        <dc:format>image/svg+xml</dc:format>
        <dc:type
           rdf:resource="http://purl.org/dc/dcmitype/StillImage" />
        <dc:title />
      </cc:Work>
    </rdf:RDF>
  </metadata>
  <g
     inkscape:label="Layer 1"
     inkscape:groupmode="layer"
     id="layer1"
     transform="translate(0,-32.41664)"
     style="display:inline">
    <path
       style="fill:#000000;stroke-width:9.49141"
       d="M 105.15044,866.33196 C 86.567921,849.05599 85.950678,843.24287 96.544945,785.28632 110.43095,709.32203 125.73477,672.19852 152.45426,670.61055 c 16.57552,-0.9851 16.58015,15.07934 18.83404,44.57894 1.50329,19.67546 -0.16334,46.26727 -3.70362,59.0929 -4.65273,16.85574 -1.91921,25.07681 9.8619,29.65989 19.00846,7.39463 22.40354,35.91573 2.92172,58.66465 -19.91958,23.26008 -52.35874,24.97694 -75.21786,3.72503 z m 220.07105,-64.67154 c -46.16782,-32.79578 -67.69799,-83.17223 -57.51354,-134.57063 10.74383,-54.2214 31.1433,-70.31555 56.70324,-52.04022 10.10818,7.22734 14.65419,15.785 13.18498,20.53062 -17.59617,56.83645 4.76888,84.84493 24.67745,105.3936 23.29122,24.04007 46.39429,19.3759 138.78247,-8.30506 80.06387,-23.98841 102.2703,-10.61959 49.51772,34.85867 -39.53313,34.08174 -116.79128,62.59963 -159.04593,58.70816 -20.03921,-1.84552 -49.87707,-12.90441 -66.30639,-24.57514 z M 660,742.41664 c -21.2031,-20.44476 -45.80288,-49.47946 -54.66615,-64.52151 -20.70348,-35.13633 -29.9672,-35.34726 -57.24767,-1.30351 -26.97327,33.6604 -68.9683,51.57874 -91.2807,41.44822 -8.98131,-4.07779 -26.01955,-24.42101 -37.86276,-45.20716 -16.33099,-28.6627 -23.09037,-37.30924 -15.00227,-48.67522 17.04903,-23.95855 45.68165,-19.87382 66.84446,9.53605 25.86834,35.9491 40.33777,35.80064 88.24375,-0.90536 22.20469,-17.01346 44.13898,-24.02841 53.79509,-23.11337 9.65611,0.91503 38.59,24.88491 64.29757,53.26637 25.70755,28.38149 56.81099,61.87364 69.11872,74.42705 29.67373,30.26601 22.9111,49.4954 -17.94655,45.28541 C 709.04216,780.6699 684.95293,766.47711 660,742.41664 Z M 54.205331,649.63573 c -28.335288,-35.7718 -15.131276,-49.00659 96.129849,-96.35393 59.02614,-25.11866 113.8681,-48.91595 118.00175,-50.96811 -1.03341,-3.07825 -5.16706,-28.73027 -5.16706,-38.99108 -15.50118,6.15649 -21.70165,12.31298 -37.58935,25.6143 -17.74269,14.85434 -23.76334,10.85542 -37.60016,-6.58262 -8.92497,-11.2478 -18.85096,-32.37073 12.15139,-63.15316 -5.50048,2.31408 -16.53459,3.33476 -33.18815,-10.19994 -28.78907,-23.39747 -55.40515,-130.53112 -46.34747,-162.87054 5.56392,-19.86533 53.70033,-22.911 58.86738,13.00184 10.29269,-1.86024 17.568,-5.1304 59.3016,-21.96177 24.5803,-9.91336 43.00617,-19.08146 54.3737,-24.21187 3.99349,-23.46517 7.97325,-51.17598 10.33412,-72.74743 -11.36753,2.05217 -33.10552,5.52237 -68.90398,13.72613 -58.52712,13.41238 -64.38648,17.37099 -87.70932,3.38052 -23.72547,-14.23199 -14.63653,-36.80577 18.49174,-54.41915 39.97674,-21.254524 183.65501,-47.507206 320.26382,-58.51814 184.76045,-14.892047 192.71324,-14.544779 207.9662,9.081091 17.15783,26.576404 16.16503,25.524775 -7.32275,44.580492 -12.72691,10.325387 -48.02755,12.700577 -104.77262,14.921587 -52.25838,2.04541 -64.16367,4.67369 -69.33073,4.67369 -0.77446,2.84361 -7.16706,39.91284 -7.16706,42.99108 10.33412,-5.13041 43.58022,-7.45596 69.11667,-6.30228 80.95323,3.65729 116.44869,19.32291 128.06358,56.51973 16.85221,53.96941 -10.64942,78.04267 -64.58981,126.12769 -18.03325,16.07569 -40.84882,36.55919 -45.35304,42.77272 -4.50423,6.21351 -23.63815,12.50509 -42.5198,13.98125 -34.13518,2.6687 -65.04038,3.49588 -75.71995,7.00384 -1.03342,7.18256 -2.26023,31.19741 -3.10024,40.01715 32.03577,-6.15648 44.43671,-8.20864 77.89108,-11.15737 66.04057,-5.82094 81.84488,-4.84528 99.9133,8.07363 24.98805,17.86642 25.54105,39.06892 1.10051,50.32289 -9.35178,4.30613 -43.91817,10.46028 -76.81421,13.67585 -90.08689,8.80596 -183.33165,29.66883 -327.5028,88.3502 C 83.101133,656.10377 72.565124,672.81399 54.205331,649.63573 Z M 400.61364,412.01856 c -6.20047,1.02608 -18.27173,4.33248 -37.29036,9.53644 -17.86403,4.88803 -23.68094,8.93302 -34.01506,13.03734 1.03342,18.46946 4.13365,33.86068 6.20048,44.12148 5.16705,-2.05216 16.61323,-6.102 31.86098,-10.72167 9.76194,-2.9576 20.84302,-5.69562 32.21055,-8.77387 0,-15.39121 -1.03341,-24.62594 1.03341,-47.19972 z M 268.33693,378.15789 c 3.10023,-20.52162 9.35416,-76.9279 10.33412,-87.21688 -25.8353,10.2608 -47.53695,15.39121 -83.70636,30.78242 5.16706,10.26081 9.43601,28.63562 16.12075,37.43119 5.06752,6.66769 14.88161,34.39448 4.54749,44.65529 15.50117,-10.26081 37.41382,-21.11854 52.704,-25.65202 z m 140.544,-46.17365 c 3.53684,-28.83236 7.13078,-57.07628 11.43436,-86.13864 -23.75368,6.53697 -46.34417,13.33848 -70.33883,21.49554 -1.03341,14.36513 -10.48691,65.46574 -12.40094,84.13864 22.73506,-6.15648 42.36988,-12.31297 71.30541,-19.49554 z m 181.74949,-49.16633 c 32.5649,-30.69498 41.46921,-42.24172 30.97507,-51.49352 -13.01157,-11.4712 -95.94902,-16.20905 -126.95138,-0.81784 -4.844,30.725 -10.39813,59.7914 -13.41722,92.53257 11.3504,-1.31569 59.92075,-5.42001 75.42193,-5.42001 12.40094,-11.28689 14.46777,-16.4173 33.9716,-34.8012 z M 432.71623,170.83736 c 2.28377,-13.42072 6.13365,-32.6781 8.20047,-49.09539 -11.36753,1.02608 -55.80424,8.20864 -66.13836,10.2608 -4.13364,17.44338 -7.23388,44.01716 -9.3007,57.35621 10.33412,-5.1304 52.55046,-15.71588 67.23859,-18.52162 z"
       id="path39"
       sodipodi:nodetypes="ssssssssssssssssssssssssssssssssccsscsscsccsssssssccsssssccsssssscsccscccccscccccccsscccsccccc" />
  </g>
</svg>
