<?xml version="1.0" encoding="UTF-8" standalone="no"?>
<!-- Created with Inkscape (http://www.inkscape.org/) -->

<svg
   width="1000"
   height="1000"
   viewBox="0 0 1000 1000"
   version="1.1"
   id="svg756"
   inkscape:version="1.1 (c68e22c387, 2021-05-23)"
   sodipodi:docname="u60f3.svg"
   xmlns:inkscape="http://www.inkscape.org/namespaces/inkscape"
   xmlns:sodipodi="http://sodipodi.sourceforge.net/DTD/sodipodi-0.dtd"
   xmlns="http://www.w3.org/2000/svg"
   xmlns:svg="http://www.w3.org/2000/svg"
   xmlns:rdf="http://www.w3.org/1999/02/22-rdf-syntax-ns#"
   xmlns:cc="http://creativecommons.org/ns#"
   xmlns:dc="http://purl.org/dc/elements/1.1/">
  <defs
     id="defs750" />
  <sodipodi:namedview
     id="base"
     pagecolor="#ffffff"
     bordercolor="#666666"
     borderopacity="1.0"
     inkscape:pageopacity="0.0"
     inkscape:pageshadow="2"
     inkscape:zoom="0.35355339"
     inkscape:cx="849.94235"
     inkscape:cy="755.19004"
     inkscape:document-units="px"
     inkscape:current-layer="layer1"
     showgrid="true"
     units="px"
     inkscape:window-width="1118"
     inkscape:window-height="864"
     inkscape:window-x="648"
     inkscape:window-y="136"
     inkscape:window-maximized="0"
     showguides="true"
     inkscape:guide-bbox="true"
     inkscape:pagecheckerboard="0">
    <inkscape:grid
       type="xygrid"
       id="grid758" />
    <sodipodi:guide
       position="540,200"
       orientation="0,1"
       id="guide8"
       inkscape:locked="false" />
  </sodipodi:namedview>
  <metadata
     id="metadata753">
    <rdf:RDF>
      <cc:Work
         rdf:about="">
        <dc:format>image/svg+xml</dc:format>
        <dc:type
           rdf:resource="http://purl.org/dc/dcmitype/StillImage" />
        <dc:title />
      </cc:Work>
    </rdf:RDF>
  </metadata>
  <g
     inkscape:label="Layer 1"
     inkscape:groupmode="layer"
     id="layer1"
     transform="translate(0,-32.41664)"
     style="display:inline">
    <path
       style="fill:#000000;stroke-width:7.3792"
       d="m 92.41675,880.47115 c -9.852168,-3.82841 -20.965422,-35.62434 -18.028809,-41.91859 2.845834,-6.09968 6.242103,-19.90456 9.959251,-30.10647 13.630965,-37.41092 28.768888,-59.0826 44.350208,-93.34884 13.60586,-29.92181 35.13431,-74.82291 45.75847,-95.83212 11.90305,-23.53824 29.0879,-71.4824 41.25768,-104.2511 23.50494,-63.29008 60.35848,-71.31429 84.61832,-49.4576 10.22577,9.21284 9.57489,14.14274 -5.65488,42.83115 -9.46593,17.83097 -15.77421,32.39056 -17.30845,37.52436 11.72858,-1.98306 21.71444,-6.38902 39.59712,-3.66415 18.19023,2.77173 35.72866,12.6202 44.70465,24.48804 6.40763,8.47203 27.54957,52.1333 46.58496,102.30765 29.63287,78.10759 31.51722,79.582 38.73707,79.83111 7.58242,0.26163 16.34194,-24.06928 19.83789,-31.59506 30.12104,-64.8418 28.80811,-100.1408 18.67151,-152.68455 -5.43837,-28.19018 8.30286,-41.0733 13.98289,-45.85808 10.96927,-9.24041 41.89085,3.04214 51.94758,23.99462 30.44203,63.42377 56.36455,102.26347 73.20053,110.8733 18.07128,9.24157 21.9593,8.59682 47.68393,-7.90752 32.64246,-20.94267 50.58324,-4.50244 50.25566,12.61673 -0.1598,8.35048 -4.72087,24.16262 -20.7403,37.71762 -16.01941,13.55499 -30.95908,22.55011 -53.0398,24.71213 -22.60278,2.21313 -49.77706,1.77919 -69.99679,-17.54761 -8.42787,-8.05569 -26.64587,-32.3714 -35.52915,-42.95972 -3.78054,17.40259 -6.94995,30.34135 -9.91642,40.60919 -8.54717,29.58438 -18.26254,60.94558 -31.75943,83.78088 -7.80952,13.2129 -33.33013,42.5389 -55.69312,42.42741 -23.20885,-0.11569 -53.09773,-23.99451 -59.28676,-40.06008 -21.51978,-55.86145 -52.0461,-149.61749 -62.52554,-164.0731 -24.61876,-33.95979 -47.25886,-33.16631 -74.87967,4.57246 -18.09916,24.72917 -19.62692,34.80386 -85.00004,184.2536 -10.49882,24.00138 -29.90545,52.42598 -37.03462,60.8369 -8.33447,9.83293 -25.56551,11.45793 -34.75394,7.88744 z M 372.49138,432.11024 c -10.81334,-10.76713 -12.51744,-28.05481 -10.38667,-105.37007 2.84923,-103.38459 -8.25784,-139.36813 -21.43649,-135.39655 -28.78368,8.67438 -60.77138,44.51763 -66.52418,47.43322 -8.4843,26.68601 -21.81667,80.40947 -38.27601,170.95313 -3.03903,16.71784 -8.85118,25.7013 -16.55482,25.58772 -14.53424,-0.2143 -40.93377,-27.5804 -41.00814,-42.50956 -0.0498,-9.9999 3.08448,-27.49625 6.827,-44.44347 -17.41149,16.74568 -28.51117,34.90469 -40.69147,45.16526 -25.47376,21.45883 -43.06467,23.02014 -55.652157,4.93949 -5.607363,-8.05441 -0.237713,-23.36503 20.429517,-58.25087 36.63017,-61.83105 66.61477,-92.51616 72.49317,-98.33271 5.5639,-5.50537 17.14604,-15.33601 28.79173,-26.40659 -17.34109,10.98661 -25.62162,14.15069 -39.00976,18.271 -15.50856,4.77289 -43.13952,14.7937 -74.243034,20.49225 -31.103517,5.69856 -59.024449,7.33558 -58.890851,0.35423 0.0742,-3.87743 22.313906,-16.46178 49.421567,-27.96522 53.564188,-22.73054 116.799858,-61.00589 134.077418,-70.75256 0.90997,-5.78327 1.03098,-27.07237 3.63723,-52.32407 5.70139,-55.240053 9.10096,-66.655219 37.8127,-66.231882 26.42987,0.389692 34.43087,37.296815 29.51351,73.082382 -2.0328,14.79347 -4.44483,25.56877 -4.54048,30.56807 6.87273,-1.89895 29.99761,-23.44622 50.59778,-33.86843 20.98863,-10.618731 36.54104,-14.454684 49.98026,-12.32027 10.74284,1.706175 17.50321,6.37295 21.91868,29.93012 4.87717,26.02037 5.84406,41.03589 5.65272,51.03448 5.88674,-9.91461 15.37278,-33.47479 33.96858,-65.84505 26.81328,-46.674652 46.90737,-61.636428 64.1942,-69.104948 55.10092,-23.80549 97.17168,7.113903 100.36258,76.966368 1.19315,26.11946 -4.91889,68.73773 -10.99696,88.65093 22.49462,15.33379 42.14119,30.10468 44.89919,63.16658 1.80597,21.64922 -8.44597,52.70077 -17.63792,68.45657 -14.01265,24.01891 -77.00228,52.11874 -95.46496,51.84652 -17.60802,-0.25961 -11.43308,-24.25492 10.72952,-41.69404 14.1249,-11.11449 24.85294,-24.37501 32.68042,-36.26245 5.5376,-8.40985 18.93635,-37.58994 0.83475,-43.38351 -5.95303,12.43988 -21,39.87033 -37.98762,61.9911 -16.65436,21.68681 -31.85363,36.96841 -48.01238,48.87923 -17.36364,12.79896 -45,13 -68.71315,-5.50964 C 423,385.41664 420,394.41664 414.95352,408.5503 c -13.17913,36.91074 -23.98509,41.95805 -42.46214,23.55994 z M 487.41422,298.63226 c 17.16696,-19.56966 19.52166,-23.5355 28.92131,-38.39902 -20.59913,4.69698 -29.82659,10.56177 -41.06684,24.2469 -11.00309,13.39638 -16.89402,26.15992 -18.8396,34.68604 -3.00069,13.14983 7.45431,6.29028 30.98513,-20.53392 z m 14.83733,-98.10297 c 18.46874,-6.01807 33.31349,-7.49239 40.4257,-6.91711 2.54605,-13.96443 6.89385,-31.5427 7.44746,-56.78106 1.09109,-49.741545 -9.00359,-45.724725 -32.70177,-17.66344 -36.41827,43.12328 -57.97667,89.13167 -58.80023,107.15863 20.18794,-17.74146 23.28969,-19.16947 43.62884,-25.79702 z"
       id="path57"
       sodipodi:nodetypes="sssssssscsssssssssssssscsssssssssssscssccsssccsssccssscssscssscssssccsccssscsssccsccc" />
  </g>
</svg>
