<?xml version="1.0" encoding="UTF-8" standalone="no"?>
<!-- Created with Inkscape (http://www.inkscape.org/) -->

<svg
   width="1000"
   height="1000"
   viewBox="0 0 1000 1000"
   version="1.1"
   id="svg756"
   inkscape:version="1.1 (c68e22c387, 2021-05-23)"
   sodipodi:docname="u6570.svg"
   xmlns:inkscape="http://www.inkscape.org/namespaces/inkscape"
   xmlns:sodipodi="http://sodipodi.sourceforge.net/DTD/sodipodi-0.dtd"
   xmlns="http://www.w3.org/2000/svg"
   xmlns:svg="http://www.w3.org/2000/svg"
   xmlns:rdf="http://www.w3.org/1999/02/22-rdf-syntax-ns#"
   xmlns:cc="http://creativecommons.org/ns#"
   xmlns:dc="http://purl.org/dc/elements/1.1/">
  <defs
     id="defs750" />
  <sodipodi:namedview
     id="base"
     pagecolor="#ffffff"
     bordercolor="#666666"
     borderopacity="1.0"
     inkscape:pageopacity="0.0"
     inkscape:pageshadow="2"
     inkscape:zoom="0.5"
     inkscape:cx="637.86756"
     inkscape:cy="522.94356"
     inkscape:document-units="px"
     inkscape:current-layer="layer1"
     showgrid="true"
     units="px"
     inkscape:window-width="1118"
     inkscape:window-height="864"
     inkscape:window-x="577"
     inkscape:window-y="159"
     inkscape:window-maximized="0"
     showguides="true"
     inkscape:guide-bbox="true"
     inkscape:pagecheckerboard="0">
    <inkscape:grid
       type="xygrid"
       id="grid758" />
    <sodipodi:guide
       position="240,200"
       orientation="0,1"
       id="guide8"
       inkscape:locked="false" />
  </sodipodi:namedview>
  <metadata
     id="metadata753">
    <rdf:RDF>
      <cc:Work
         rdf:about="">
        <dc:format>image/svg+xml</dc:format>
        <dc:type
           rdf:resource="http://purl.org/dc/dcmitype/StillImage" />
        <dc:title />
      </cc:Work>
    </rdf:RDF>
  </metadata>
  <g
     inkscape:label="Layer 1"
     inkscape:groupmode="layer"
     id="layer1"
     transform="translate(0,-32.41664)"
     style="display:inline">
    <path
       style="fill:#000000;stroke-width:6.08581"
       d="m 470.38627,890.60288 c -13.12267,-7.41632 -4.58255,-36.47464 11.56439,-35.15037 18.45727,1.51376 28.64845,-14.21042 67.35486,-105.05049 19.37248,-45.46528 23.79984,-54.77741 30.11964,-69.57715 -4.47617,-5.78149 -1.81008,-5.76547 -22.39755,-25.15856 -64.94413,-61.17642 -69.95842,-66.31656 -69.69631,-71.44611 0.86375,-16.90404 39.07786,-50.50705 81.2202,-14.32721 25.98168,22.30562 33.8424,30.09816 39.59592,34.65484 5.13903,-12.85417 4.33618,-13.30253 20.10893,-58.63151 15.77276,-45.32897 32.56917,-97.84037 39.53301,-126.33477 5.5949,-22.89301 14.28015,-47.90043 19.3005,-55.57204 11.08422,-16.93762 60.40156,9.61221 59.02354,26.41453 -1.90246,23.19684 -29.8297,121.54339 -61.27225,207.63396 0,0 -14.60196,46.30313 -21.6526,60.14561 32.40152,36.09397 59.66854,56.00652 101.64561,72.99443 18.88641,7.64323 33.72803,6.05099 53.54961,-1.12935 13.30232,-4.81871 29.58528,-6.61269 31.22515,-4.3934 1.63989,2.21932 -12.85074,54.88711 -22.42379,67.6489 -15.50881,20.67472 -36.70806,24.23427 -64.75454,15.8761 -58.34187,-17.38651 -88.63121,-35.16333 -128.24783,-73.84557 -6.3198,14.79973 -23.50585,55.58281 -43.4842,94.98395 -19.97836,39.40117 -36.5306,64.59305 -44.14202,68.43709 -11.53915,5.82767 -64.50384,-1.57954 -76.17027,-8.17288 z M 195.86479,810.81812 c -12.59313,-11.76182 -11.10809,-53.43574 0.37377,-47.3415 31.51046,16.72502 22.35461,33.32398 46.00471,-15.46467 7.19674,-14.84641 13.35015,-27.61739 16.29404,-38.60919 -11.36922,-6.76227 -21.14,-11.61042 -42.97698,-25.77457 -18.63094,-12.0846 -48.55705,-29.23068 -59.51285,-40.61338 -8.11188,-8.42798 -10.43499,-12.24389 -18.27207,-25.93117 -11.78498,3.90837 -6.38389,-3.5489 -20.02315,4.13656 -18.332399,10.32997 -21.199202,13.17979 -29.58122,36.338 -3.935722,10.87377 -31.021211,-13.47685 -41.137134,-26.20374 -9.20382,-11.57933 -7.331048,-17.44063 -0.216178,-31.77374 9.361933,-18.85988 49.89374,-49.88744 86.769292,-59.19796 8.77788,-23.14597 14.96678,-26.12415 54.04086,-95.48825 20.20941,-35.87566 26.61617,-56.14682 36.80578,-56.95124 10.70819,-0.84537 28.91429,-0.39533 32.44374,0.66315 -2.44381,-17.82786 -0.83179,-23.71433 -1.01976,-34.59486 -9.76324,-0.49893 -4.51328,-0.0684 -17.13285,-0.0518 -5.73643,5.83862 -5.95251,6.67907 -17.44393,19.56693 -16.4177,18.41281 -32.75005,30.08545 -37.0641,29.73164 -15.0375,-1.23328 -61.57783,-11.50096 -46.0138,-29.37985 8.35057,-9.59257 10.156,-13.66026 13.71778,-18.62573 -6.92302,0.15874 -1.09071,0.0662 -16.04989,0.63207 -18.43861,0.6975 -35.00866,-28.13286 -30.79694,-32.30229 4.58873,-4.54267 38.19879,-14.71586 51.22586,-20.94873 13.02707,-6.23284 25.56223,-9.44528 39.56894,-13.55412 11.90118,-16.89973 6.90393,-11.67 25.86774,-37.94045 -14.96049,0.0621 -38.38378,1.74195 -49.92032,1.23838 -14.66282,-0.64004 -43.43308,-1.21825 -51.07815,-4.10905 -16.35951,-6.18592 -14.43268,-59.60349 3.49269,-61.13054 7.45885,-0.63542 3.47857,-0.93302 8.4005,-1.52816 -1.27448,-5.41482 -0.28126,-1.14969 -3.87035,-14.47171 -4.71626,-17.50582 -5.21463,-20.64836 -3.181,-40.25413 1.75176,-16.88824 5.13087,-24.06834 9.09756,-35.802061 3.49274,-10.331718 21.99334,-24.045898 25.5852,-21.036508 3.18642,2.669696 33.10213,12.235867 30.46156,20.840843 -2.60503,8.489146 -5.99729,26.342216 -1.72447,48.150056 4.27284,21.80784 3.80772,22.17264 7.52653,22.8872 3.32364,0.63862 4.61928,0.70358 10.79978,-11.60699 4.67504,-9.28844 21.85475,-11.75007 29.92036,-11.86665 7.78133,0.67179 27.72887,13.87446 22.14206,26.68429 -6.06208,13.89959 -5.95478,11.25875 -7.25667,15.57931 11.3751,-0.83228 -5.60935,-1.28505 8.42411,-2.47463 l 1.8267,-65.88437 c 1.99643,-72.00587 4.08095,-80.870923 12.98918,-83.941466 5.47976,-1.888796 48.20023,-1.293321 49.26536,0.148162 1.06514,1.441484 1.18155,37.821776 0.25869,80.845084 0,0 -0.35956,45.66447 0.24818,65.72855 2.08899,0.17132 9.48609,-0.27352 14.97113,-0.99284 -1.66627,-7.37963 -2.02972,-9.55169 -2.85781,-13.05307 -9.38917,-39.69989 -11.75492,-72.413934 -5.86014,-71.930479 12.48563,1.023994 62.27117,25.547789 68.43855,61.195969 2.28911,13.23135 2.90361,12.40448 6.45221,26.17776 16.74915,1.37366 43.55561,38.18533 29.28678,63.43774 -2.46438,3.78586 -37.99556,2.86101 -70.69459,2.03715 -18.73635,-0.47206 -22.7276,0.29981 -40.1382,0.96184 -2.54024,22.54105 -2.41929,22.18477 -1.83429,49.18255 22.46066,2.97145 41.6379,17.63322 52.80776,31.77511 11.45632,14.50456 20.87551,59.38781 13.50334,67.43889 -8.3834,9.15544 -30.96044,-3.86413 -40.06043,-11.44638 -15.20187,-12.65484 -12.27683,-14.54852 -25.59822,-18.79562 -0.19969,8.7291 0.42724,12.36679 0.54102,22.91475 0.18774,17.4041 2.3053,24.84593 5.58371,37.17241 3.27841,12.32646 -31.44662,29.99783 -33.43082,33.04603 -6.55439,10.06917 -23.9568,-2.91931 -27.20221,-11.07239 -1.30936,-3.28937 -2.60735,-7.64498 -3.53854,-8.74256 -1.91114,5.22259 -8.5951,24.76555 -21.08153,48.38559 -12.48645,23.62003 -11.16295,30.00191 -14.15068,36.54324 23.27535,-4.87747 73.56944,-19.13432 89.76786,-22.66607 3.47471,-12.21524 4.18971,-16.08752 7.84622,-38.28565 4.27475,-25.95144 9.17526,-40.15295 13.72677,-39.77966 9.93862,0.81511 52.50357,8.96182 49.40172,46.78286 -1.1697,14.26225 -2.83301,14.15877 -3.24898,19.23067 18.80093,-4.03475 24.76772,-15.0365 44.86596,-13.84349 13.65043,0.81027 5.12563,50.3002 -32.39793,67.67672 -23.06764,10.68223 -19.67568,8.71179 -22.05242,10.14575 -1.66472,10.48903 -3.81316,23.40683 -12.50908,55.5538 -5.13634,18.98796 -17.96798,57.6491 -22.37185,70.20115 9.2041,4.00006 17.71224,9.97757 24.03646,8.23379 11.01795,-3.03801 28.18085,20.21755 26.31777,42.93423 -2.2835,27.84282 -19.01448,44.48657 -52.33538,26.5688 -11.66722,-6.27387 -18.09026,-11.90666 -21.39507,-12.1777 -1.68531,4.64384 -4.12801,11.58085 -9.37641,22.82636 -32.43604,69.49911 -52.43633,64.41912 -75.55085,61.50912 -9.78339,-1.23167 -32.51944,-11.27881 -39.14098,-17.46323 z M 296.55907,602.84817 c 1.9979,-8.26602 7.21006,-30.62695 8.27255,-35.43087 -5.15509,0.5984 -84.18328,18.43917 -91.59489,21.08164 2.21121,10.39338 12.4966,14.33908 34.23759,29.94868 19.19114,13.77886 26.50703,13.83894 36.23487,19.74278 5.05584,-11.83979 11.24168,-28.68857 12.84988,-35.34223 z M 426.58189,437.25374 c -2.49924,-5.69757 13.14764,-83.25533 32.54951,-161.34008 4.8116,-19.36466 15.74199,-64.98828 24.28977,-101.38582 11.5891,-49.34785 18.2948,-67.63802 26.36827,-71.9211 5.95477,-3.159073 62.89085,0.23608 64.53471,2.46078 3.47376,4.70115 -4.22764,44.51507 -21.67065,119.98979 -3.53849,15.31079 -13.38633,61.35316 -16.41341,73.35933 4.43101,-0.0442 14.78368,-5.93595 24.76188,-9.05392 9.96766,-3.11466 33.31949,-15.98359 78.29631,-28.46201 91.23543,-25.31246 174.54036,-33.22492 197.45894,-20.93567 17.00386,9.11769 2.81785,81.54601 -13.61222,95.98679 -9.56819,8.4097 -29.57555,19.35497 -34.35602,11.48114 -3.1385,-5.16933 1.76459,-27.46752 4.30968,-30.12147 11.62743,-12.12497 -79.78153,-0.89407 -146.68472,17.54096 -40.79247,11.2403 -64.92425,18.8175 -81.30839,19.56045 -18.82685,0.85371 -31.57872,1.9898 -42.98648,4.11781 -4.29103,14.96613 -5.35886,28.02485 -9.80516,45.71204 -9.45295,37.60333 -77.59383,51.5638 -85.73202,33.01098 z"
       id="path95"
       sodipodi:nodetypes="ssscssscssssscssssscsssssscsscsssscsscccssscsssccssscsssssssccsccssscccsscccsccssccsssscsccssscsscscssscssssscscssssssscsssssssscsss" />
  </g>
</svg>
