<?xml version="1.0" encoding="UTF-8" standalone="no"?>
<!-- Created with Inkscape (http://www.inkscape.org/) -->

<svg
   width="1000"
   height="1000"
   viewBox="0 0 1000 1000"
   version="1.1"
   id="svg756"
   inkscape:version="1.1 (c68e22c387, 2021-05-23)"
   sodipodi:docname="u6599.svg"
   xmlns:inkscape="http://www.inkscape.org/namespaces/inkscape"
   xmlns:sodipodi="http://sodipodi.sourceforge.net/DTD/sodipodi-0.dtd"
   xmlns="http://www.w3.org/2000/svg"
   xmlns:svg="http://www.w3.org/2000/svg"
   xmlns:rdf="http://www.w3.org/1999/02/22-rdf-syntax-ns#"
   xmlns:cc="http://creativecommons.org/ns#"
   xmlns:dc="http://purl.org/dc/elements/1.1/">
  <defs
     id="defs750" />
  <sodipodi:namedview
     id="base"
     pagecolor="#ffffff"
     bordercolor="#666666"
     borderopacity="1.0"
     inkscape:pageopacity="0.0"
     inkscape:pageshadow="2"
     inkscape:zoom="0.5"
     inkscape:cx="893"
     inkscape:cy="642"
     inkscape:document-units="px"
     inkscape:current-layer="layer1"
     showgrid="true"
     units="px"
     inkscape:window-width="1118"
     inkscape:window-height="864"
     inkscape:window-x="657"
     inkscape:window-y="28"
     inkscape:window-maximized="0"
     showguides="true"
     inkscape:guide-bbox="true"
     inkscape:pagecheckerboard="0">
    <inkscape:grid
       type="xygrid"
       id="grid758" />
    <sodipodi:guide
       position="240,200"
       orientation="0,1"
       id="guide8"
       inkscape:locked="false" />
  </sodipodi:namedview>
  <metadata
     id="metadata753">
    <rdf:RDF>
      <cc:Work
         rdf:about="">
        <dc:format>image/svg+xml</dc:format>
        <dc:type
           rdf:resource="http://purl.org/dc/dcmitype/StillImage" />
        <dc:title />
      </cc:Work>
    </rdf:RDF>
  </metadata>
  <g
     inkscape:label="Layer 1"
     inkscape:groupmode="layer"
     id="layer1"
     transform="translate(0,-32.41664)"
     style="display:inline">
    <path
       style="fill:#000000;stroke-width:6.37804"
       d="m 234.56385,902.71795 c -2.02747,-18.87131 0.32888,-65.53315 9.26309,-124.86944 14.92344,-99.11358 10.88445,-104.74708 12.57905,-119.00061 -7.05212,8.89601 -14.83866,22.04007 -27.53981,38.74616 -21.6267,28.44605 -62.51578,66.204 -76.39695,77.40253 -14.83781,11.97029 -46.62436,15.82729 -66.06683,13.51316 -12.659267,-1.50676 -48.968118,-30.03566 -40.545024,-32.8899 12.120491,-4.10721 100.008104,-75.53861 157.102614,-143.75092 34.14085,-40.789 54.6799,-62.70341 65.39494,-78.77597 C 269,529.41664 269,521.41664 269,518.41664 c -24.56632,6.08355 -34.81369,7.1053 -59.32666,11.30306 -82.71811,14.16519 -169.548802,10.0883 -171.222126,-30.48869 -0.489747,-11.87602 -1.563564,-34.46067 18.788517,-49.81453 20.35208,-15.35387 63.456469,-32.02959 69.582019,-32.02959 12.61825,0 22.22693,20.21188 -2.0617,44.85594 -7.97256,8.08923 -13.91624,11.13191 -13.06869,15.15987 0.7165,3.40522 24.96718,2.05899 33.59769,2.37132 30.42999,1.10125 108.06482,-20.32883 127.04601,-22.84126 0.68869,-8.38733 3.17636,-48.22746 4.46861,-92.74185 1.29225,-44.51439 -3.61091,-102.70303 -1.70387,-171.78739 1.56409,-56.66043 26.59957,-73.29924 36.14004,-84.60542 C 320,97.41664 331.94957,94.289075 336.82206,93.161527 347.77053,90.627931 355,197.41664 347.33415,365.01357 c -2.69109,58.83469 -4.68897,60.42949 -5.77801,80.22167 18.2331,-2.6481 95.64357,-21.39998 106.49738,-30.40783 4.86391,-4.03669 6.67717,-7.80596 8.84348,-12.12555 6.47169,-12.90444 19.86083,8.5863 24.23197,22.35855 9.74773,30.71239 -10.15347,63.46459 -84.17033,75.36541 -28.65556,4.6074 -37.52552,6.87466 -56.59948,12.16555 -2.35613,16.13919 -4.92957,79.90641 -7.85558,131.05823 -2.50358,43.76704 -3.57185,85.13455 -8.79341,121.96776 -5.22154,36.83324 -8.86299,86.34282 -10.71133,110.02132 -2.86903,36.75446 -5.12122,43.05182 -15.39695,43.05182 -6.62001,0 -62.56694,-11.58764 -63.03804,-15.97255 z M 676,785.16766 c 0.0132,-20.41453 4.26843,-44.94845 9.4557,-76.51979 6.3693,-38.76555 4.28639,-51.9029 7.5009,-73.33299 -22.50158,1.07151 -61.08742,-6.37539 -95.80717,-10.79576 -43.81365,-5.57817 -89.11439,-18.60205 -111.93432,-23.66958 -34.67102,-7.69923 -41.52439,-65.74491 -23.82907,-76.90683 6.29004,-3.96765 20.3632,-3.3846 40.35529,1.67196 31.58033,7.98753 62.52905,18.49558 148.08808,25.72845 16.25738,1.37434 39.12578,2.16847 52.77073,1.5385 3.49911,-18.65711 8.55909,-57.72756 10.83792,-72.23902 5.66979,-36.10482 12.47764,-127.26775 15.88549,-208.6028 3.40786,-81.33505 3.12687,-114.98953 2.62963,-128.97089 -1.35092,-37.98547 -8.7942,-29.62024 -11.19678,-34.42279 -11.58423,-23.155894 47.63134,-76.085073 59.88924,-76.085073 23.11985,0 36.62349,93.495593 21.18811,310.483263 -7.3613,103.48382 -13.45914,165.64339 -15.64566,181.08624 -1.32516,9.35931 -1.94018,15.89302 -3.9755,28.07792 38.74936,-5.51515 65.51407,-25.47205 92.36201,-44.20207 16.00219,-11.27031 38.87269,46.52791 26.52084,65.37928 -5.92514,9.04287 -26.61848,29.78447 -49.91398,40.67918 -23.29556,10.8947 -66.79054,19.10701 -78.57709,20.17852 -3.2145,17.14407 -8.80561,54.44593 -14.772,129.75205 -3.94884,49.84016 -5.45291,54.37781 -18.64591,56.2515 -13.47387,1.9136 -63.20893,-0.22961 -63.18646,-35.07927 z m -240.2108,-87.0795 c -19.24649,-27.18642 -49.73434,-77.3264 -70.92389,-94.86603 -21.18954,-17.53962 -20.68773,-43.47789 -20.88484,-47.8628 -0.61637,-13.71185 31.51864,-34.57535 47.57089,-17.48851 8.44448,8.98873 24.11627,21.70599 33.28507,30.89286 8.53014,8.54696 40.86386,33.80034 58.93982,59.94814 18.07593,26.14776 36.22375,45.06878 41.03124,57.7161 6.16605,16.22136 -27.36664,56.14036 -40.03174,56.14036 -7.98636,0 -26.1262,-12.18895 -48.98655,-44.48012 z M 162.15118,425.02606 c -26.06842,-22.04819 -46.45245,-87.6762 -46.45245,-106.8166 0,-28.49907 71.21511,-32.53687 84.37404,4.90729 14.24925,40.5467 20.32968,55.95088 30.85951,55.95088 4.17228,0 14.04831,-3.60682 21.94676,-13.25362 13.39238,-16.35683 20.80529,-5.91484 21.01921,6.66589 0.26288,15.45998 -6.54934,46.33959 -22.82894,56.46427 -16.2796,10.12468 -64.86162,16.42845 -88.91813,-3.91811 z M 512.68984,403.13824 C 480.215,368.58805 447.82154,283.53357 463.45737,273.8701 c 10.64209,-6.57717 53.15368,-29.17063 66.44286,8.56534 6.47707,18.39223 19.01584,44.37987 27.86396,57.7503 12.87359,19.45326 20.02833,26.45287 35.81352,26.45287 15.36719,0 18.53951,6.2643 17.74881,14.64531 -0.76811,8.14161 -14.01981,29.94358 -20.63471,35.56429 -8.18625,6.95592 -27.88388,7.01867 -38.75421,7.01867 -14.04944,0 -25.39783,-5.99363 -39.24776,-20.72864 z m -158.45028,-0.0499 c -1.73019,-4.3897 9.66251,-33.45775 13.53928,-51.95961 3.79696,-18.12101 4.86846,-23.47853 8.23402,-38.38018 1.06619,-4.72075 -1.81038,-7.97255 -8.17975,-7.97255 -10.6299,0 -7.02936,-18.50892 4.59214,-29.90017 24.86664,-24.37392 68.86947,1.1342 69.63556,21.92762 1.43876,39.05199 -10.01516,73.00502 -23.21303,97.86468 -8.67471,16.33981 -57.58834,26.23061 -64.60822,8.42021 z m 286.35634,-66.8184 c -23.49244,-17.83348 -86.9615,-102.15159 -97.33074,-129.30305 -19.13872,-50.11405 33.73074,-74.15038 63.00797,-22.43493 24.95086,44.07331 75.99994,105.81433 91.57805,110.75865 6.69766,2.12577 12.9754,8.95242 10.03461,23.71732 -3.42866,17.21429 -52.2743,28.66056 -67.28989,17.26201 z"
       id="path57"
       sodipodi:nodetypes="sscsssssccssssssscssssscsssscssssssscssssscsssssssccsscsssssssssssssssssssssssssssssssssssssssssss" />
  </g>
</svg>
