<?xml version="1.0" encoding="UTF-8" standalone="no"?>
<!-- Created with Inkscape (http://www.inkscape.org/) -->

<svg
   width="1000"
   height="1000"
   viewBox="0 0 1000 1000"
   version="1.1"
   id="svg756"
   inkscape:version="1.1 (c68e22c387, 2021-05-23)"
   sodipodi:docname="u65e5.svg"
   xmlns:inkscape="http://www.inkscape.org/namespaces/inkscape"
   xmlns:sodipodi="http://sodipodi.sourceforge.net/DTD/sodipodi-0.dtd"
   xmlns="http://www.w3.org/2000/svg"
   xmlns:svg="http://www.w3.org/2000/svg"
   xmlns:rdf="http://www.w3.org/1999/02/22-rdf-syntax-ns#"
   xmlns:cc="http://creativecommons.org/ns#"
   xmlns:dc="http://purl.org/dc/elements/1.1/">
  <defs
     id="defs750" />
  <sodipodi:namedview
     id="base"
     pagecolor="#ffffff"
     bordercolor="#666666"
     borderopacity="1.0"
     inkscape:pageopacity="0.0"
     inkscape:pageshadow="2"
     inkscape:zoom="0.5"
     inkscape:cx="875"
     inkscape:cy="562"
     inkscape:document-units="px"
     inkscape:current-layer="layer1"
     showgrid="true"
     units="px"
     inkscape:window-width="1118"
     inkscape:window-height="864"
     inkscape:window-x="735"
     inkscape:window-y="82"
     inkscape:window-maximized="0"
     showguides="true"
     inkscape:guide-bbox="true"
     inkscape:pagecheckerboard="0">
    <inkscape:grid
       type="xygrid"
       id="grid758" />
    <sodipodi:guide
       position="240,200"
       orientation="0,1"
       id="guide8"
       inkscape:locked="false" />
  </sodipodi:namedview>
  <metadata
     id="metadata753">
    <rdf:RDF>
      <cc:Work
         rdf:about="">
        <dc:format>image/svg+xml</dc:format>
        <dc:type
           rdf:resource="http://purl.org/dc/dcmitype/StillImage" />
        <dc:title />
      </cc:Work>
    </rdf:RDF>
  </metadata>
  <g
     inkscape:label="Layer 1"
     inkscape:groupmode="layer"
     id="layer1"
     transform="translate(0,-32.41664)"
     style="display:inline">
    <path
       style="fill:#000000;stroke-width:15.6818"
       d="m 161.46361,770.44845 c -14.02166,-19.62635 -31.1049,-53.75703 -46.04489,-66.91604 -14.64564,0 -20.652048,-0.87378 -27.478958,-2.69092 C 60.547993,693.55056 59.372843,681.53748 70.589814,523.48034 86.003812,306.28337 81.892993,221.22478 53.909332,178.33739 39.163796,155.73861 36.996451,140.42489 47.61479,133.8624 c 22.781148,-14.07952 71.42092,-11.6211 87.02602,32.28839 4.35919,12.26585 5.35919,26.26585 6.1087,37.49844 9.76377,-19.52752 6.767,-15.89298 26.10502,-35.41351 34.67429,-35.00156 68.0537,-54.80922 118.89968,-72.017841 C 354.59193,72.920025 440,72.41664 473.87579,103.09328 c 36.76503,33.29302 45.86619,81.53952 53.45006,124.09416 7.92405,44.46341 6.31265,99.51097 -4.29326,151.99524 -6.15042,30.43581 -7.94524,38.31872 -19.05188,75.23396 40.39793,41.19487 43.27982,58.95863 32.0001,77.10528 -4.89638,7.87722 -27.83634,-11.31202 -47.36386,-21.07578 -6.18861,15.04676 -4.51115,17.67877 -50.68642,114.95949 -67.5117,142.23171 -142.46484,204.20484 -191.46599,205.97297 -28.18879,1.01714 -55.63325,-19.82371 -85.00093,-60.93015 z M 362.83052,617.63298 c 28.99554,-63.00902 37.93405,-87.95655 52.71917,-131.4004 -29.80634,-6.15025 -56.7792,-9.49913 -83.62882,-9.59968 -39.24017,-0.14694 -78.21705,6.6443 -125.39084,21.76896 -23.48519,7.52971 -57.75025,17.0072 -65.07757,28.40185 -6.48193,10.08002 -2.83114,34.09443 -2.83114,53.33117 0,51.65407 23.83181,80.95751 75.43434,140.87253 0,0 14.93048,20.78951 30.46453,21.7027 17.41096,1.02354 38.55547,-21.7027 38.55547,-21.7027 21.2055,-19.45457 50.75932,-40.36542 79.75486,-103.37443 z M 334.50189,414.3043 c 47.97664,-1.36971 64.83786,0.59856 98.31362,10.36232 l 14.02872,-57.78574 c 7.37563,-30.38097 8.60692,-65.45974 2.83974,-106.26898 -5.4256,-38.39236 -15.24847,-61.42035 -26.9624,-83.30803 -20.5846,-38.46267 -73.23573,-35.36189 -147.17438,6.2352 C 194,229.41664 163.15784,269.93564 149.91766,363.09592 l -8.4953,87.9192 57.36126,-16.81969 C 223.52489,426.9407 268.9561,416.1756 334.50189,414.3043 Z"
       id="path20"
       inkscape:connector-curvature="0"
       sodipodi:nodetypes="scssssscssssscscsssscssssssssscssssscss" />
  </g>
</svg>
