<?xml version="1.0" encoding="UTF-8" standalone="no"?>
<!-- Created with Inkscape (http://www.inkscape.org/) -->

<svg
   width="1000"
   height="1000"
   viewBox="0 0 1000 1000"
   version="1.1"
   id="svg756"
   inkscape:version="1.1 (c68e22c387, 2021-05-23)"
   sodipodi:docname="u660e.svg"
   xmlns:inkscape="http://www.inkscape.org/namespaces/inkscape"
   xmlns:sodipodi="http://sodipodi.sourceforge.net/DTD/sodipodi-0.dtd"
   xmlns="http://www.w3.org/2000/svg"
   xmlns:svg="http://www.w3.org/2000/svg"
   xmlns:rdf="http://www.w3.org/1999/02/22-rdf-syntax-ns#"
   xmlns:cc="http://creativecommons.org/ns#"
   xmlns:dc="http://purl.org/dc/elements/1.1/">
  <defs
     id="defs750" />
  <sodipodi:namedview
     id="base"
     pagecolor="#ffffff"
     bordercolor="#666666"
     borderopacity="1.0"
     inkscape:pageopacity="0.0"
     inkscape:pageshadow="2"
     inkscape:zoom="0.5"
     inkscape:cx="780.21141"
     inkscape:cy="331.16032"
     inkscape:document-units="px"
     inkscape:current-layer="layer1"
     showgrid="true"
     units="px"
     inkscape:window-width="1118"
     inkscape:window-height="864"
     inkscape:window-x="445"
     inkscape:window-y="70"
     inkscape:window-maximized="0"
     showguides="true"
     inkscape:guide-bbox="true"
     inkscape:pagecheckerboard="0">
    <inkscape:grid
       type="xygrid"
       id="grid758" />
    <sodipodi:guide
       position="240,200"
       orientation="0,1"
       id="guide8"
       inkscape:locked="false" />
  </sodipodi:namedview>
  <metadata
     id="metadata753">
    <rdf:RDF>
      <cc:Work
         rdf:about="">
        <dc:format>image/svg+xml</dc:format>
        <dc:type
           rdf:resource="http://purl.org/dc/dcmitype/StillImage" />
        <dc:title />
      </cc:Work>
    </rdf:RDF>
  </metadata>
  <g
     inkscape:label="Layer 1"
     inkscape:groupmode="layer"
     id="layer1"
     transform="translate(0,-32.41664)"
     style="display:inline">
    <path
       id="path514"
       style="fill:#000000;stroke-width:13.8319"
       d="m 69.312914,34.416998 c -3.766981,0.177082 -14.340391,4.176681 -16.156025,7.45749 -7.802989,12.411223 -8.217238,29.092659 -9.222857,42.900576 -2.145219,33.708776 -2.37301,70.564916 -2.543069,100.391026 -0.274805,40.62843 -1.273461,81.24807 -2.551189,121.85257 -1.340451,41.37477 -2.991142,82.74181 -5.271702,124.07015 -1.218073,22.52918 -2.935738,45.02468 -4.085694,67.55826 -0.580692,11.34132 -1.086382,22.76138 -1.362953,34.10188 -0.248948,10.07256 -0.329889,20.15257 -0.06246,30.22571 0.279025,9.38673 0.827491,19.00064 2.245524,28.36393 0.127338,0.79232 0.240062,1.61219 0.357932,2.26258 1.410027,8.134 3.426986,16.40955 7.910637,23.3121 3.005205,4.68883 7.476349,8.39387 12.680083,9.89472 4.106721,1.28711 17.37889,1.38971 21.482743,0.98703 7.106727,-0.94991 13.134279,-2.52894 19.242191,-4.49124 6.402146,-2.11061 12.897015,-4.99253 17.499255,-10.34356 5.51532,-7.52868 7.92052,-15.47754 9.24704,-23.86 0.88821,-5.46021 1.41021,-10.97885 1.82008,-16.49972 0.67204,-9.44076 1.00933,-19.14674 1.2709,-28.64709 0.25096,-9.81677 0.41503,-19.6423 1.18103,-29.43337 1.87561,-25.3643 5.93069,-50.54695 12.02637,-75.1578 4.13076,-16.43547 11.30814,-25.77295 18.07549,-41.22176 6.72552,-12.21851 13.51486,-24.48021 24.03195,-32.58293 8.91914,-6.87158 15.39776,-10.67278 25.25812,-13.78384 8.44111,-2.58268 16.45884,-2.65877 25.05312,-4.60815 5.43883,-1.27565 8.71412,-1.15205 16.33899,-1.15205 0,4.60815 -0.069,5.25223 -0.28668,9.07915 -0.67793,9.2781 -2.1444,18.46506 -3.57604,27.6381 -3.07066,19.67485 -5.5792,39.02639 -10.7478,58.19011 -8.73708,32.3946 -19.14912,64.27027 -30.70435,95.65724 -9.17222,24.72878 -19.0333,49.20406 -30.41562,72.89337 -5.32449,11.02291 -11.14132,21.78046 -17.55603,32.14166 -6.66246,10.76138 -13.02119,21.95288 -16.90256,34.16582 -2.08966,6.5753 -6.72075,16.91289 -1.41768,22.30321 4.00191,4.06771 15.97269,6.71517 21.54763,6.25754 6.77889,-0.55645 12.92615,-4.17733 18.27306,-8.39535 8.77197,-6.92 22.61023,-17.10837 29.30468,-26.20712 9.92125,-13.48442 19.42834,-25.44515 27.23167,-40.32146 12.01735,-22.90999 19.12816,-38.52793 27.23163,-63.36229 9.53931,-29.2347 19.8981,-59.23124 27.23166,-86.40313 7.78736,-28.85339 16.37217,-62.6334 20.58076,-85.95985 2.94071,-16.29915 5.56161,-35.00454 6.65089,-46.52495 5.44632,0 8.70862,0.0341 12.4401,-0.62057 7.33946,-1.50204 14.74222,-3.88779 20.81072,-8.65944 4.29256,-3.36467 7.73718,-8.44252 8.08699,-14.22095 0.39537,-5.96337 4.26928,-18.56069 0.79608,-23.08453 -5.52808,-7.1178 -12.95,-12.26462 -20.60224,-16.49292 -7.6124,-4.01718 -19.35314,-6.0441 -19.35314,-6.0441 0,0 0.81697,-12.96047 1.59071,-24.88026 0.69432,-10.69643 -0.0109,-19.81525 -0.17381,-30.50172 0.054,-13.34129 -1.04516,-24.74586 -3.25076,-37.1871 -3.96388,-21.70816 -10.5959,-42.8262 -19.12054,-62.99596 -8.06788,-17.083 -15.72208,-33.029866 -25.3725,-46.093858 -7.50461,-9.327379 -23.11429,-20.45624 -34.57023,-22.870714 -6.28468,-1.163998 -27.95495,-0.324645 -34.20464,0.68315 -15.59321,2.686768 -31.02152,7.774209 -45.10114,13.982883 -15.95556,5.021532 -23.88301,14.016478 -40.8966,16.802825 -0.1045,-10.759812 -1.94159,-19.385528 -5.80121,-28.744175 C 102.67311,49.281943 98.486892,42.753401 92.689584,38.203887 89.707923,35.916788 73.054376,34.288641 69.312906,34.416998 Z M 633.20401,109.47875 c -5.57141,0.53678 -15.91299,4.01703 -20.66231,5.75218 -17.26139,7.0269 -23.40958,10.2381 -34.30224,15.99831 -9.59543,5.07422 -20.95195,14.38127 -24.62449,17.12289 -11.88375,8.87149 -22.94694,18.971 -32.95482,30.18228 -8.90807,9.97922 -11.10086,14.25755 -14.36868,17.71368 -1.08926,-5.76021 -1.50615,-7.05467 -4.47569,-18.11212 -1.74385,-6.49347 -4.46677,-10.04319 -7.54971,-15.97 -4.66703,-8.97206 -12.43794,-15.2464 -19.64203,-22.14364 -3.31698,-3.17571 -7.38399,-6.08223 -12.01714,-6.15799 -4.92368,-0.0806 -36.33767,5.48785 -40.21695,8.93707 -3.18848,2.835 -4.59658,7.34009 -4.47861,11.68924 0.36025,13.28032 10.15262,19.43592 15.15021,29.15925 3.21026,6.2459 5.08832,13.14086 6.49301,20.05039 3.5513,17.46862 4.33892,27.78482 5.73803,45.54171 2.17854,27.649 3.26779,24.19288 5.44633,69.1225 -5.44633,17.28063 -16.60318,41.48678 -17.20486,49.36158 -0.0404,0.71779 -0.12428,1.83216 -0.16455,2.57042 -0.19519,4.25697 -0.40822,8.58677 0.39846,12.78933 0.32418,1.8174 1.62595,3.72156 3.50618,3.78619 1.97031,-0.052 3.26356,-1.89129 4.43194,-3.33809 2.06843,-2.96823 3.82269,-6.18902 6.17469,-8.93259 1.69043,-1.94932 4.71469,-8.31177 7.21521,-9.00312 0,9.21633 0.30173,13.46199 0.78589,20.46009 0.76189,11.01208 0.40844,32.86271 1.04082,42.91618 1.35663,21.56685 1.44108,33.39523 2.01998,54.42351 0.60823,22.09388 1.83733,34.08537 0.40446,56.13832 -1.45951,24.95148 -3.30225,52.10995 -3.16189,72.59883 -1.71828,0.95845 -9.12712,1.85436 -10.97003,2.22444 -5.01965,0.6188 -10.1318,2.6741 -13.54695,6.75041 -1.62111,1.91611 -2.4664,4.43993 -2.52531,6.99503 -1.69269,19.17592 7.67427,38.27532 7.02016,57.50915 -0.26213,8.07383 -0.35601,16.42141 -0.0868,24.4663 0.11539,3.27116 0.30661,6.71953 0.5574,9.86886 0.35634,4.23768 0.85239,8.46542 1.60836,12.64547 0.0987,0.51035 0.2641,1.4187 0.40585,2.0877 0.15793,0.71518 0.28913,1.38637 0.43518,1.96136 1.6489,7.07767 4.33621,14.22092 9.42063,19.33892 4.90558,4.95328 13.88751,7.22342 20.54758,7.64075 6.33009,0.48891 28.17263,-1.06342 33.33406,-5.08305 6.09535,-4.68149 10.04939,-11.77523 12.87326,-19.02377 2.90108,-7.5159 4.74083,-15.43668 6.14634,-23.40151 0.14178,-0.8508 0.35018,-2.04837 0.48307,-2.92762 0.74128,-4.68001 1.30367,-9.15947 1.79119,-13.91061 0.95713,-9.3276 1.81232,-18.16361 2.2396,-27.50796 0.38929,-8.51358 0.85867,-16.21404 1.40973,-24.85792 0.74813,-11.73511 1.0884,-19.79978 1.46754,-30.29693 0.36986,-10.23922 0.36986,-10.23922 0.36986,-21.75964 5.44632,5.76021 23.32669,13.82096 29.69018,10.9157 9.84524,-4.49486 8.72522,-25.14634 12.21208,-29.51983 6.51181,-8.16759 12.57729,-15.73886 23.25629,-26.55997 10.00079,-10.1339 15.44712,-15.89411 29.11087,-26.51649 18.32353,-14.24493 39.29439,-24.25061 59.59965,-35.08271 11.07016,-5.82878 22.23589,-11.52529 33.85273,-16.04462 4.33862,-1.17594 15.97091,-6.22077 21.41724,-8.52484 0.446,13.59154 -0.52996,38.31622 -0.0114,49.6578 1.10064,24.07287 0.30424,36.15677 0.3425,57.12134 0.0114,35.32725 -0.77484,70.6471 -1.57699,105.96199 -0.68192,33.58147 -2.02188,68.35705 -2.97131,100.76374 -0.42253,14.42136 -13.90271,19.43661 -13.53435,31.70714 0.32329,10.7689 1.72378,16.549 3.62065,24.64159 2.14897,9.16814 11.95236,16.08038 21.91533,20.42908 14.90815,6.50717 32.07378,6.37989 44.32255,-2.78285 6.71336,-5.02196 16.67337,-15.03646 18.84,-22.75717 3.18183,-11.33837 4.81394,-20.78381 6.16813,-32.50214 2.18842,-18.93728 0.73673,-38.05274 1.69027,-57.06099 1.94312,-38.73555 -0.27263,-79.31404 0.71721,-118.08775 0.90849,-35.587 -0.006,-54.56006 1.15332,-96.9803 0.46956,-17.17832 -0.59259,-44.53123 0.51043,-61.68575 0.73824,-11.48145 0.59261,-19.49704 0.50862,-29.53086 8.71413,-5.7602 20.6344,-11.09157 28.96163,-18.20188 7.29074,-6.22532 14.70554,-10.81664 21.00233,-17.52839 4.57142,-4.87269 6.67786,-8.04732 9.94566,-14.95956 1.23564,-2.61367 2.5084,-8.45286 2.2764,-11.49639 -0.23977,-2.5722 -2.51813,-4.19798 -4.68499,-4.86292 -3.62496,-1.16396 -7.46785,-1.08939 -11.21866,-1.1486 -8.60435,0.20972 -17.07508,2.25549 -25.26896,4.92823 -8.2708,2.7452 -17.92436,3.25959 -25.3705,7.97151 -0.92042,-12.20507 -2.17854,-25.34493 -3.10477,-35.62132 -1.87205,-20.77019 -3.5092,-31.20505 -6.777,-51.9418 -2.89456,-18.36829 -8.47793,-36.92437 -12.85286,-53.93873 -3.66221,-14.24258 -9.26739,-26.96065 -15.34119,-38.04391 -10.80743,-19.72108 -24.0123,-35.88605 -35.99423,-49.71055 -8.80479,-10.15876 -23.96384,-19.58472 -37.15628,-26.44819 -13.65112,-7.10211 -25.8839,-11.10053 -40.82672,-12.91126 -9.8034,-1.15204 -22.22946,0.19003 -30.38589,0.97587 z m -446.15465,13.83447 c 6.62142,0.0311 13.3988,0.69893 19.56109,3.42848 5.63292,2.66338 10.05601,7.46568 13.843,12.5002 7.33713,9.95424 12.3827,12.3267 16.53779,24.08974 5.77362,16.70956 9.66361,34.14063 11.69721,51.79696 1.72443,20.17109 0.49791,41.88862 0.53629,57.15423 -27.23165,5.76022 -55.01196,16.56462 -75.99773,27.61163 -9.96801,5.18503 -18.96935,12.23123 -27.3308,19.91609 -7.44834,6.88753 -14.3528,14.42793 -20.67164,22.47835 -5.3646,6.98454 -10.63576,14.98437 -14.48131,21.73842 -7.92643,13.58508 -6.08855,9.87508 -14.01574,23.45968 1.449613,-43.94637 1.726574,-70.60182 3.27423,-114.54443 0.87252,-24.77346 1.38101,-42.74656 4.7778,-67.28364 2.8863,-20.84945 2.11404,-36.85739 5.01917,-55.49252 4.35706,-2.30408 4.61673,-2.35824 6.97084,-4.06511 12.23862,-8.18303 25.79287,-14.02107 39.73949,-18.03365 9.96146,-2.78775 20.21329,-4.67944 30.53985,-4.75443 z m 449.56894,60.23693 c 12.9353,-0.0372 25.84026,3.37389 37.2772,9.75311 15.03053,8.31114 20.89612,14.32501 30.49272,28.99154 11.35037,17.3628 19.10116,37.12522 24.26874,57.44498 2.20829,8.68343 2.17884,17.44869 3.32427,26.36321 0.6966,5.42152 3.05608,23.78193 3.05608,30.69418 -1.08927,-6.91225 -9.32651,-7.48503 -17.55496,-8.63399 -10.90724,-1.523 -24.92789,-0.62595 -38.88157,-0.0788 -16.54428,0.64862 -23.82759,2.16162 -36.82451,2.1408 -6.92801,-0.0116 -15.39021,1.43845 -22.19411,3.05753 -4.68479,1.11479 -9.33426,3.58821 -12.05562,7.91917 -2.23591,3.39659 -3.23697,7.50184 -3.74789,11.55452 -0.0723,0.57203 -0.17626,1.55083 -0.23485,2.28162 -0.4174,6.21946 -0.45045,12.53238 0.6445,18.68085 0.94057,5.27802 3.1495,10.54931 7.22912,13.93365 4.80934,4.0677 11.03611,5.53113 17.02671,6.23357 5.50161,0.70445 11.051,0.56837 16.57887,0.73158 6.72855,0.33164 16.48637,-0.18357 22.47983,3.23784 4.08295,2.34416 5.58082,4.2559 6.53559,9.21633 1.07395,5.56212 1.08926,8.06429 0,17.28062 -8.71412,4.60817 -14.54247,7.78605 -22.231,11.02926 -9.3577,3.9473 -16.98256,8.55545 -25.47667,12.34798 -11.70576,5.22648 -22.7865,11.89927 -33.38442,19.27539 -11.78653,8.30666 -23.08987,17.46735 -33.21751,27.96278 -10.81372,11.5553 -17.21467,23.16915 -28.00767,34.74621 -2.67952,-40.35759 -1.84138,-70.85806 -3.16048,-111.2896 -1.57313,-48.21797 -4.84092,-100.05985 -7.01948,-134.6211 5.44635,-11.52042 5.74391,-15.58082 13.87464,-30.12733 6.51633,-11.65825 8.78378,-15.19695 18.80335,-27.47476 10.06513,-12.33368 21.08198,-20.4538 35.64743,-28.98454 16.43293,-7.8582 31.21069,-13.46282 46.75169,-13.66647 z m 100.21976,188.87319 c 0.2905,7.65216 0.37778,13.91163 0.15421,22.56811 -0.16348,6.32996 0.22357,-0.59219 0.22357,5.16802 -2.74234,2.4117 -6.84788,3.72471 -10.18598,4.86521 -2.11132,0.58177 -3.97449,2.04704 -10.51007,4.35112 4.35706,-6.91224 5.76642,-2.36114 7.97964,-10.16376 3.26779,-11.52042 3.97439,-14.80608 7.24218,-26.32649 1.26691,-4.46643 3.2957,-10.74344 4.13605,-21.16655 0.24891,10.42311 0.7122,14.16555 0.9604,20.70434 z"
       sodipodi:nodetypes="scccccccccccccccccccccsccccssccsssssssssscccccccsccccccccccssscssscsssssssssccccccccssscccccccccccccccccsssscsssscccsccssssssssssscssscccccsssssscscscccccccccccssccccccsscssssccccccccccsscccscssccsscccsscs" />
  </g>
</svg>
