<?xml version="1.0" encoding="UTF-8" standalone="no"?>
<!-- Created with Inkscape (http://www.inkscape.org/) -->

<svg
   width="1000"
   height="1000"
   viewBox="0 0 1000 1000"
   version="1.1"
   id="svg756"
   inkscape:version="1.1 (c68e22c387, 2021-05-23)"
   sodipodi:docname="u6620.svg"
   xmlns:inkscape="http://www.inkscape.org/namespaces/inkscape"
   xmlns:sodipodi="http://sodipodi.sourceforge.net/DTD/sodipodi-0.dtd"
   xmlns="http://www.w3.org/2000/svg"
   xmlns:svg="http://www.w3.org/2000/svg"
   xmlns:rdf="http://www.w3.org/1999/02/22-rdf-syntax-ns#"
   xmlns:cc="http://creativecommons.org/ns#"
   xmlns:dc="http://purl.org/dc/elements/1.1/">
  <defs
     id="defs750" />
  <sodipodi:namedview
     id="base"
     pagecolor="#ffffff"
     bordercolor="#666666"
     borderopacity="1.0"
     inkscape:pageopacity="0.0"
     inkscape:pageshadow="2"
     inkscape:zoom="2"
     inkscape:cx="517.59394"
     inkscape:cy="460.36868"
     inkscape:document-units="px"
     inkscape:current-layer="layer1"
     showgrid="true"
     units="px"
     inkscape:window-width="1118"
     inkscape:window-height="864"
     inkscape:window-x="709"
     inkscape:window-y="52"
     inkscape:window-maximized="0"
     showguides="true"
     inkscape:guide-bbox="true"
     inkscape:pagecheckerboard="0">
    <inkscape:grid
       type="xygrid"
       id="grid758" />
    <sodipodi:guide
       position="270,200"
       orientation="0,1"
       id="guide8"
       inkscape:locked="false" />
    <sodipodi:guide
       position="-280,880"
       orientation="1,0"
       id="guide11997" />
  </sodipodi:namedview>
  <metadata
     id="metadata753">
    <rdf:RDF>
      <cc:Work
         rdf:about="">
        <dc:format>image/svg+xml</dc:format>
        <dc:type
           rdf:resource="http://purl.org/dc/dcmitype/StillImage" />
        <dc:title />
      </cc:Work>
    </rdf:RDF>
  </metadata>
  <g
     inkscape:label="Layer 1"
     inkscape:groupmode="layer"
     id="layer1"
     transform="translate(0,-32.41664)"
     style="display:inline">
    <path
       style="fill:#000000;stroke-width:9.07767"
       d="M 436.91638,861.44536 C 425.5148,840.71728 425.29681,796.9951 432.46942,753.35591 439.64203,709.71672 475,623.41664 494.50264,616.27819 c 4.05684,-28.99794 8.1421,-59.38793 12.77111,-91.37361 -14.77111,6.09466 -21.10287,7.4301 -54.10596,27.00296 -69.14919,41.00969 -88.99437,29.36253 -83.0767,-16.41495 2.79134,-21.59298 1.74176,-18.63785 7.63526,-33.95668 -6.69231,-4.06643 -30.06155,-14.53252 -32.29596,-28.34697 -2.23439,-13.81446 -8.79572,-37.93971 -8.79572,-75.24933 0,-75.64733 1.91718,-89.56025 14.04535,-92.29454 14.31998,-3.22843 16.90423,1.47549 24.0037,7.68933 3.04263,-10.3564 11.81878,-35.20672 19.6213,-51.20996 20.95536,-42.98026 44.79047,-75.00558 70.73559,-95.46884 25.94512,-20.46326 46.31992,-19.59537 91.95939,-9.23896 2,-15 2,-25 13.80538,-93.670304 3.22647,-18.767962 24.52816,-30.59953 37.08445,-30.59953 16.88995,0 21.60629,3.386788 16.09476,61.819165 -2.39573,25.399139 -7.91882,57.558979 -9.88782,78.389429 22.25321,14.38134 30.24563,19.29528 45.20407,30.52569 32.83071,24.64846 40.94439,54.27922 41.12979,76.51017 0.17051,20.44588 -6.47566,37.74317 -26.56913,56.93933 -14.62262,13.96962 -39.54177,31.54504 -55.37588,39.0565 -19.66234,9.3275 -22.70405,11.22833 -32.84616,16.40653 -1.95676,14.4751 -3.31304,24.55142 -4.05684,33.14051 10.14211,-2.07129 62.786,-15.20171 93.07457,-17.0441 46.23771,-2.81254 55.53735,-0.73966 57.98321,12.92454 1.6022,8.9509 -6.0272,30.47247 -14.50978,35.60349 -12.88685,7.79512 -104.06485,17.87042 -144.63326,38.58323 -4.14742,28.37969 -13.21315,72.85127 -18.28421,114.2769 9.78685,7.13845 17.83248,12.07461 28.46101,19.47483 18.30594,12.7457 94.89001,88.64798 103.73518,101.03417 7.59066,10.62945 30.69642,39.85549 49.42501,46.60432 9.75156,3.51397 21.21665,-0.65294 25.008,-5.32582 18.49707,-22.79778 32.31875,14.28836 32.31875,30.53574 0,19.18669 -36.43867,55.04012 -64.1397,55.04012 -20.73069,0 -40.17677,-21.32265 -48.61206,-31.79335 -5.47674,-6.79825 -28.58233,-40.0142 -58.8119,-71.46068 C 592.36788,722.94103 548.1421,694.77305 538,684.41664 c -5.07105,20.71282 -8.1421,34.60384 -20.86945,108.02585 -4.57412,26.38738 -9.38043,55.97992 -13.76848,65.28976 -10.73838,22.7829 -53.38345,27.46029 -66.44569,3.71311 z m 41.70846,-388.0133 c 22.62339,-13.01594 33.11937,-21.82076 42.24727,-28.0346 1.29596,-5.44298 2.02842,-20.71282 3.04263,-25.89102 -17.24158,6.21384 -66.45554,18.83899 -92.01539,49.12899 -31.21942,36.99694 -12.57035,38.91137 46.72549,4.79663 z m -43.12617,-56.97105 c 9.11799,-9.38683 33.27409,-25.59556 58.26073,-39.02759 21.88514,-11.76475 26.07008,-13.49518 37.22639,-19.70902 7.32262,-57.44397 11.86905,-89.91225 17.29842,-139.27485 -5.07106,-2.07128 -8.42376,-5.0111 -23.01349,-4.08031 -26.87222,1.71438 -47.7581,20.80778 -67.99286,49.34776 -20.23477,28.53998 -37.8184,58.52654 -46.08611,106.02723 -7.2955,41.91503 -7.80464,76.42295 -6.19175,82.67241 5,-5 15,-20 30.49867,-35.95563 z M 628.87172,297.49567 C 644,279.41664 640,267.41664 628.47255,257.31618 617.87878,248.03382 614.67322,246.85231 605.95209,240.26929 600.84522,279.67182 601,289.41664 594.73894,328.9403 c 10.1421,-5.17821 18.998,-13.35783 34.13278,-31.44463 z M 102.35033,809.72582 C 92.347214,803.14874 86.115982,764.15027 82.737763,729.57087 79.359536,694.99149 74.235679,662.34661 71.351409,657.0267 68.467139,651.7068 65.478898,621.23824 64.710877,589.31881 60.377992,409.24166 49.526941,364.55311 43.305674,360.18769 39.507554,357.52258 36.4,351.24628 36.4,346.24033 c 0,-6.08031 21.015328,-16.10952 30.77961,-17.01486 9.764282,-0.90536 25.230989,17.19073 28.567852,23.32072 10.142108,-15.53461 14.669828,-19.23333 18.320988,-22.90614 5.75651,-5.79064 12.44361,-13.42456 29.02976,-21.76594 22.65818,-11.39509 36.85713,-10.35945 57.39638,3.38134 33.62108,22.49256 71.38179,78.94417 100.61841,142.72955 29.23661,63.78538 50.03835,134.76485 50.00919,185.89402 -0.0349,61.61588 -12.97516,93.29886 -59.83404,146.50061 -25.16894,28.57583 -40.48097,31.7194 -70.33604,27.17296 -18.56842,-2.82767 -35.90586,-16.29617 -47.66415,-25.01864 -8.54578,-6.33938 -15.93822,-12.10866 -23.75893,-19.80271 -0.29298,18.05046 0.001,24.90166 -6.25798,35.45513 -8.64757,14.58025 -29.23938,13.21998 -40.92072,5.53945 z M 278.14584,707.06204 c 8.70557,-15.95972 11.74428,-25.80566 11.7618,-45.91416 0.0106,-12.18696 -0.24706,-20.15687 -1.8698,-38.22531 -13.59042,7.71203 -9.29842,6.83132 -19.94762,13.24698 -49.9506,30.09294 -80.77928,41.14273 -93.73713,42.6847 -12.48716,1.48595 -18.85675,1.72241 -31.92353,0.81188 2.22452,10.29846 25.07838,32.73584 42.04076,50.36743 20.58288,21.39491 40.13869,27.73332 55.6442,19.16205 15.04496,-8.31668 29.32576,-26.17385 38.03132,-42.13357 z M 242.39046,582.70411 c 15.32777,-7.96715 9.77276,-5.49514 33.98332,-17.90146 -2.91215,-13.4847 -4.40045,-12.73646 -7.60068,-25.1047 C 257.19636,494.95623 219.26641,416.3267 189.60634,385.38192 170.85334,365.81665 165,367.41664 156.36117,371.44125 c -23.675,11.02958 -33.76775,46.22191 -37.7371,91.54428 -3.96936,45.32238 -1.76974,90.64719 8.62075,144.47087 20.03582,8.31477 56.0199,5.98041 115.14564,-24.75229 z"
       id="path285"
       sodipodi:nodetypes="ssccsscssscsscssscssssccsssccsssssssscssssccssssccssscsssccsssssssscsssscssscsssscsscsssscsssscs" />
  </g>
</svg>
