<?xml version="1.0" encoding="UTF-8" standalone="no"?>
<!-- Created with Inkscape (http://www.inkscape.org/) -->

<svg
   width="1000"
   height="1000"
   viewBox="0 0 1000 1000"
   version="1.1"
   id="svg756"
   inkscape:version="1.1 (c68e22c387, 2021-05-23)"
   sodipodi:docname="u6628.svg"
   xmlns:inkscape="http://www.inkscape.org/namespaces/inkscape"
   xmlns:sodipodi="http://sodipodi.sourceforge.net/DTD/sodipodi-0.dtd"
   xmlns="http://www.w3.org/2000/svg"
   xmlns:svg="http://www.w3.org/2000/svg"
   xmlns:rdf="http://www.w3.org/1999/02/22-rdf-syntax-ns#"
   xmlns:cc="http://creativecommons.org/ns#"
   xmlns:dc="http://purl.org/dc/elements/1.1/">
  <defs
     id="defs750" />
  <sodipodi:namedview
     id="base"
     pagecolor="#ffffff"
     bordercolor="#666666"
     borderopacity="1.0"
     inkscape:pageopacity="0.0"
     inkscape:pageshadow="2"
     inkscape:zoom="0.7"
     inkscape:cx="605.43289"
     inkscape:cy="453.75811"
     inkscape:document-units="px"
     inkscape:current-layer="layer1"
     showgrid="true"
     units="px"
     inkscape:window-width="1118"
     inkscape:window-height="864"
     inkscape:window-x="539"
     inkscape:window-y="50"
     inkscape:window-maximized="0"
     showguides="true"
     inkscape:guide-bbox="true"
     inkscape:pagecheckerboard="0">
    <inkscape:grid
       type="xygrid"
       id="grid758" />
    <sodipodi:guide
       position="240,200"
       orientation="0,1"
       id="guide8"
       inkscape:locked="false" />
  </sodipodi:namedview>
  <metadata
     id="metadata753">
    <rdf:RDF>
      <cc:Work
         rdf:about="">
        <dc:format>image/svg+xml</dc:format>
        <dc:type
           rdf:resource="http://purl.org/dc/dcmitype/StillImage" />
        <dc:title />
      </cc:Work>
    </rdf:RDF>
  </metadata>
  <g
     inkscape:label="Layer 1"
     inkscape:groupmode="layer"
     id="layer1"
     transform="translate(0,-32.41664)"
     style="display:inline">
    <path
       style="fill:#000000;stroke-width:19.9184"
       d="m 475.35731,826.41664 c -5.63041,-18.52715 -16.45331,-52.09882 -6.93984,-74.6037 9.51349,-22.5049 26.3258,-100.66013 32.99885,-174.52168 6.67305,-73.86157 22.93242,-168.09124 42.11453,-221.60826 19.1821,-53.51701 53.80259,-124.44432 50.86925,-134.78609 -2.93335,-10.34182 -39.33929,4.41983 -101.07323,38.69224 -59.21933,32.8764 -113.59362,74.24886 -134.53523,60.69621 C 325,298.41664 324.38411,242.42331 351.79336,177.50058 379.20262,112.57784 420,46.41664 481.96981,36.52026 c 67.30066,-10.7477 62.76081,2.072271 -7.02945,90.19694 -35.74671,45.13762 -61.52057,86.45432 -57.27527,91.8149 4.24533,5.36059 48.62848,-8.87467 106.61493,-38.97395 108.04441,-56.08301 174.88966,-59.57892 190.39721,-27.89543 4.81822,9.84412 -17.15725,42.05422 -44.1308,99.06131 C 630,336.41664 623,372.41664 610,412.41664 c 20,-4 23.42591,-7.2365 66.2597,-13.56139 83.92162,-12.39196 89.44357,26.32896 56.93544,77.70693 C 720,497.41664 708.27003,497.01738 693.75512,479.64043 670.16868,451.40324 620,472.41664 595,477.41664 c -5.596,19.63394 -10.10338,40.97664 -14.71391,73.6865 C 577,574.41664 577,579.41664 574,601.41664 c 30,5 87.63916,8.58149 144.29404,15.63072 68.2437,8.49115 104.56412,27.69292 104.06883,39.24717 -1.18144,27.56106 -11.32581,41.08133 -31.21363,41.68032 -19.88782,0.59899 -52.13581,-7.22306 -90.39937,-10.09374 L 560,677.32151 544.60228,759.53413 c -16.42683,87.70719 -52.36685,122.42103 -69.24497,66.88251 z M 54.843054,773.63739 C 49.832409,757.14956 49.853271,666.94725 59.778324,563.41006 69.703358,459.87285 81.856368,337.05212 81.896103,278.25286 50,196.41664 89.964988,155.94115 114.21317,139.5547 c 47.15455,-31.86612 75.70231,-29.74506 133.73966,31.91948 68.0234,72.27474 97.75927,235.6112 91.53166,369.46634 -2.16633,46.56269 -3.0607,56.49952 -6.48449,82.47612 9.41211,-6.00378 5.32107,-2.89063 16.07009,-11.79104 15.4605,-12.80161 35.85724,-25.34646 53.06012,-2.66067 16.84442,22.21313 14.09491,29.69613 -12.90313,49.88802 -18.8699,14.11285 -26.19219,22.02471 -69.22708,43.56369 -10,60 -35,76 -60.49116,57.83829 C 251.75852,754.73306 245,739.41664 245,724.41664 c -12.9787,4.95362 -40.13764,14.21709 -79.77155,22.0974 -28.87065,5.74028 -37.63437,3.15183 -50.22845,5.9026 -2.0294,9.12091 -4.24695,46.74336 -43.493891,47.48671 -10.651419,0.20174 -11.041773,-7.7688 -16.663055,-26.26596 z M 217.47547,663.33259 c 25.95538,-6.55482 27.88622,-7.37283 42.52453,-11.91595 5,-20 10,-40 10.82874,-94.95239 0.73603,-48.80464 -0.12861,-85.00892 -0.82874,-103.04761 -30,-7 -40,-7 -69.58458,7.55097 -53.89716,26.50894 -52.82511,-12.2502 -33.90117,-41.0424 12.13655,-18.46539 25.71448,-35.21806 44.01897,-35.21806 20.48388,0 29.46678,1.70951 49.46678,1.70951 1.04563,-23.77466 -7.84336,-85.11511 -26.82244,-119.32999 -15.66457,-28.23958 -48.75134,-81.1468 -65.68346,-74.29167 -15.05761,6.09623 -40.35077,19.51185 -20.15995,48.24713 11.82993,16.83618 37.18784,49.3098 2.66585,65.37453 -2.60097,33.71344 -9.22864,116.58368 -15.63933,204.13339 C 128,597.41664 127.42708,647.51179 124,678.41666 c 30,0 63.00952,-7.39013 93.47547,-15.08405 z"
       id="path57"
       sodipodi:nodetypes="sssssssssssssscssscscsssscsssscssscssscscscssscscssscssscscss" />
  </g>
</svg>
