<?xml version="1.0" encoding="UTF-8" standalone="no"?>
<!-- Created with Inkscape (http://www.inkscape.org/) -->

<svg
   width="1000"
   height="1000"
   viewBox="0 0 1000 1000"
   version="1.1"
   id="svg756"
   inkscape:version="1.1 (c68e22c387, 2021-05-23)"
   sodipodi:docname="u66f2.svg"
   xmlns:inkscape="http://www.inkscape.org/namespaces/inkscape"
   xmlns:sodipodi="http://sodipodi.sourceforge.net/DTD/sodipodi-0.dtd"
   xmlns="http://www.w3.org/2000/svg"
   xmlns:svg="http://www.w3.org/2000/svg"
   xmlns:rdf="http://www.w3.org/1999/02/22-rdf-syntax-ns#"
   xmlns:cc="http://creativecommons.org/ns#"
   xmlns:dc="http://purl.org/dc/elements/1.1/">
  <defs
     id="defs750" />
  <sodipodi:namedview
     id="base"
     pagecolor="#ffffff"
     bordercolor="#666666"
     borderopacity="1.0"
     inkscape:pageopacity="0.0"
     inkscape:pageshadow="2"
     inkscape:zoom="1"
     inkscape:cx="548.53"
     inkscape:cy="272.95803"
     inkscape:document-units="px"
     inkscape:current-layer="layer1"
     showgrid="true"
     units="px"
     inkscape:window-width="1118"
     inkscape:window-height="864"
     inkscape:window-x="641"
     inkscape:window-y="0"
     inkscape:window-maximized="0"
     showguides="true"
     inkscape:guide-bbox="true"
     inkscape:pagecheckerboard="0">
    <inkscape:grid
       type="xygrid"
       id="grid758" />
    <sodipodi:guide
       position="240,200"
       orientation="0,1"
       id="guide8"
       inkscape:locked="false" />
  </sodipodi:namedview>
  <metadata
     id="metadata753">
    <rdf:RDF>
      <cc:Work
         rdf:about="">
        <dc:format>image/svg+xml</dc:format>
        <dc:type
           rdf:resource="http://purl.org/dc/dcmitype/StillImage" />
        <dc:title />
      </cc:Work>
    </rdf:RDF>
  </metadata>
  <g
     inkscape:label="Layer 1"
     inkscape:groupmode="layer"
     id="layer1"
     transform="translate(0,-32.41664)"
     style="display:inline">
    <path
       style="fill:#000000;stroke-width:18.156"
       d="M 61.971727,628.44687 C 64.985175,513.04811 53.514592,397.69111 46.25932,372.09796 c -7.955601,-28.06358 -14.35951,-67.3041 -9.603367,-95.52873 4.756143,-28.22463 26.672339,-49.43336 39.356946,-49.43336 10.055871,0 30.397901,16.26205 24.932361,30.03922 -5.465528,13.77713 -1.945256,24.24155 3.55974,49.91832 2.16975,10.12027 4.495,20.32323 7.495,35.32323 5,-10 19.73281,-39.56775 32.42077,-56.68275 C 158,267.41664 182.51516,242.10491 220.3421,207.04922 258.16904,171.99353 308,147.41664 326,142.41664 c 6.60357,-29.43585 4.27182,-32.67953 12.82245,-64.598345 9.71875,-36.27929 35.52599,-54.264312 49.8305,-56.303042 14.30451,-2.03873 29.1063,13.868833 24.81411,49.374711 C 410.798,92.969042 408.27267,113.83108 407,127.41664 c 10,0 25.73853,-5.42082 51.23318,-5.42082 19.63482,0 39.45635,5.59246 47.76682,5.42082 1.68953,-9.82836 5.34443,-25.91768 6.93553,-35.515151 C 516,73.41664 529.44089,66.21243 549.24125,70.020816 c 20.6632,3.974352 42.39062,21.584799 38.99171,45.315984 -1.79445,12.52889 -3.61957,24.29173 -5.23296,39.07984 24,14 50,24 71.39969,44.33366 34.97237,33.23021 68.74691,68.60079 94.75566,114.53648 26.00875,45.93569 40.09941,97.84745 47.24713,150.39289 11.97926,88.06379 -33.6194,172.75869 -104.65027,235.37743 C 620.72134,761.67585 518,816.41664 382.50868,825.97756 368.02936,826.99929 338,826.41664 308,826.41664 c -39.54641,23.94191 -76,16 -98.47563,-23.95291 C 172,782.41664 153,772.41664 138,757.41664 c -3,20 -3,25 -8.733,45.13279 -6.14797,21.59005 -35.687768,35.71334 -50.266842,35.71334 -21.843194,0 -21.543343,-36.9191 -17.028431,-209.81592 z M 526.16574,727.63802 C 588.58659,693.12296 635.04516,664.18049 667.89851,619.06667 700.75186,573.95285 720,524.66767 720,473.46719 c 0,-13.08496 -1,-28.05055 -5,-46.05055 -25,25 -50.67226,37.24255 -79.5084,51.36382 -56.29894,27.57 -71.4916,35.63618 -96.4916,45.63618 10,55 -3.78281,72.54512 -14.37521,77.02468 -10.59239,4.47955 -24.84037,-2.97259 -41.58404,-22.84695 C 471.57711,564.98728 468,553.41664 463,538.41664 c -8.34574,3.42138 -38.7217,12.88899 -51.67508,16.55323 C 385,562.41664 356,578.91664 320,592.41664 c -17,62 -31.47542,130.80481 -31.47874,147.80987 -0.003,17.00506 9.22729,12.00508 27.68977,7.3349 C 339.60326,741.64423 360,740.41664 340,780.41664 c 30,0 81.49477,5.09827 186.16574,-52.77862 z M 222.61987,692.5573 C 229.72638,658.18678 235,634.41664 239,612.41664 c -12,5 -28.07565,14.20971 -47.45845,32.95866 C 173.02559,663.28576 156,682.41664 146,722.41664 c 10,10 48,25 63,30 1.68073,-14.27948 6.88545,-27.28844 13.61987,-59.85934 z M 278.03278,413.65926 C 299,302.41664 307,262.41664 315,219.41664 c -25,10 -34.60461,17.67348 -82.64515,58.50456 C 186.82923,316.61478 146,364.41664 121,399.41664 c 2,41 5,72 7.91586,125.78009 1.3219,24.38117 -1.46174,49.58734 1.08414,87.21991 17.45412,-17.63257 43.09542,-39.17462 63.37019,-48.57822 27.52099,-12.76445 39.41321,-19.28546 58.62981,-29.42178 10,-41 14.85726,-61.4651 26.03278,-120.75738 z m 192.61794,-20.1377 C 476.42243,348.4047 484.46101,285.73799 488.51419,254.26223 491.44895,231.47177 493,222.41664 495,201.41664 488.23618,197.62258 473.66608,193.05942 457.95385,191.38882 430,188.41664 414,196.41664 394,201.41664 c -10,50 -23.03015,123.1742 -48.82956,247.33716 L 332.65941,510.59 394.40804,487.07111 C 423.81196,475.87171 447,468.41664 462,463.41664 c 3,-30 3.83639,-32.26203 8.65072,-69.89508 z m 178.63272,-8.87557 C 662.03053,374.6017 668,370.41664 683,350.41664 676.23554,330.25922 643.89567,288.2603 611.81923,260.18086 590.64785,241.64762 584,239.41664 574,234.41664 c -5,30 -12.09478,67.55653 -25.44787,147.58935 C 543.12014,414.56307 539,436.41664 539,446.41664 c 15,-5 22.8945,-10.77915 41.81192,-20.05307 C 607.00318,413.52379 628,401.41664 649.28344,384.64599 Z"
       id="path93"
       sodipodi:nodetypes="sssssscsscssscscssscssssscccssssssscscsscscsscsscsccsscscscscssscscscscsscscscss" />
  </g>
</svg>
