<?xml version="1.0" encoding="UTF-8" standalone="no"?>
<!-- Created with Inkscape (http://www.inkscape.org/) -->

<svg
   width="1000"
   height="1000"
   viewBox="0 0 1000 1000"
   version="1.1"
   id="svg756"
   inkscape:version="1.1 (c68e22c387, 2021-05-23)"
   sodipodi:docname="u66f8.svg"
   xmlns:inkscape="http://www.inkscape.org/namespaces/inkscape"
   xmlns:sodipodi="http://sodipodi.sourceforge.net/DTD/sodipodi-0.dtd"
   xmlns="http://www.w3.org/2000/svg"
   xmlns:svg="http://www.w3.org/2000/svg"
   xmlns:rdf="http://www.w3.org/1999/02/22-rdf-syntax-ns#"
   xmlns:cc="http://creativecommons.org/ns#"
   xmlns:dc="http://purl.org/dc/elements/1.1/">
  <defs
     id="defs750" />
  <sodipodi:namedview
     id="base"
     pagecolor="#ffffff"
     bordercolor="#666666"
     borderopacity="1.0"
     inkscape:pageopacity="0.0"
     inkscape:pageshadow="2"
     inkscape:zoom="0.5"
     inkscape:cx="838.58942"
     inkscape:cy="635.19508"
     inkscape:document-units="px"
     inkscape:current-layer="layer1"
     showgrid="true"
     units="px"
     inkscape:window-width="1118"
     inkscape:window-height="864"
     inkscape:window-x="617"
     inkscape:window-y="39"
     inkscape:window-maximized="0"
     showguides="true"
     inkscape:guide-bbox="true"
     inkscape:pagecheckerboard="0">
    <inkscape:grid
       type="xygrid"
       id="grid758" />
    <sodipodi:guide
       position="240,200"
       orientation="0,1"
       id="guide8"
       inkscape:locked="false" />
  </sodipodi:namedview>
  <metadata
     id="metadata753">
    <rdf:RDF>
      <cc:Work
         rdf:about="">
        <dc:format>image/svg+xml</dc:format>
        <dc:type
           rdf:resource="http://purl.org/dc/dcmitype/StillImage" />
        <dc:title />
      </cc:Work>
    </rdf:RDF>
  </metadata>
  <g
     inkscape:label="Layer 1"
     inkscape:groupmode="layer"
     id="layer1"
     transform="translate(0,-32.41664)"
     style="display:inline">
    <path
       style="fill:#000000;stroke-width:20.2574"
       d="m 196.62688,859.308 c -19.72193,-22.89184 -35.85806,-50.68905 -35.85806,-61.77161 0,-27.66648 90.64293,-92.80923 149.16912,-107.20408 C 323.53952,686.98693 346,681.41664 361,676.41664 c 2,-10 6.30357,-27.86267 8.56935,-40.76667 C 374,610.41664 379,599.41664 370.07431,594.3638 366.66211,592.43215 313.23924,619.14988 250.0431,649.44397 145.89227,699.37033 121,708.41664 93.369139,664.27339 89.499176,658.09071 146.93852,624.64152 214.85665,594.85588 271.09898,570.19068 309,548.41664 330,538.41664 c 1,-6 -0.48645,-12.88532 0,-21 -18,5 -51.27217,19.04842 -96.3931,34.39315 -44.76739,15.2245 -101.76399,40.03824 -123.52558,55.29275 C 61.389226,641.23488 37.002462,619.59659 67.254892,573.63961 79.607541,554.8745 148.20882,517.19459 217.17527,493.9548 293.56117,468.21484 315.49871,457.30318 335,452.41664 c 0,-12.70383 2,-26 4,-41 -12,4 -22,9 -41.81519,18.08347 -68.13052,31.23167 -116.53473,52.08323 -113.94944,21.55863 C 186,418.41664 194,406.41664 269.10161,372.14291 312.23011,352.46058 331,343.41664 351,334.41664 c 2,-16 7,-36 9,-56 -7,1.87564 -46.24572,9.64028 -73.44112,19.63884 -27.19539,9.99856 -61.59158,19.71425 -96.52569,34.95989 C 86,378.41664 71,388.41664 46.035222,366.02006 15.670737,338.77926 81.846425,311.98087 203.31207,265.07381 301.27936,227.24123 356.56559,216.56055 376,210.41664 c 4,-15 7,-34 9,-48 -35.12678,3.32041 -140.07271,22.72325 -185.24741,42.40793 -60.06539,26.17324 -83.91689,33.88832 -83.91689,17.07089 0,-15.91004 24.2014,-49.89931 63.36405,-67.88664 39.16264,-17.98733 93.28653,-33.97272 145.13152,-41.87498 34.94466,-5.3263 58.66873,-9.7172 68.66873,-11.7172 2,-14 0.35831,-19.470531 -5.16636,-33.622294 -9.05938,-23.206131 5.49181,-34.394444 28.13929,-34.394444 18.46156,0 39.01611,12.38405 43.23234,29.964565 C 461.72873,72.886587 461,85.41664 461,95.41664 c 16,-1 44.70639,-1.087617 64.74485,-1.087617 33.48057,0 50.25515,4.087617 60.57878,16.351447 8.84002,10.50139 4.67637,40.73617 -0.32363,60.73617 60,-4 60,11 55.75857,37.27843 -2.03719,12.62169 -15.36571,19.2564 -44.1385,25.88987 C 581,238.41664 576,239.41664 565,241.41664 c -8.5,17.5 -24.00572,25.50259 -38.19365,26.15829 C 512.84879,268.21998 496,263.41664 492.60413,256.37814 474,260.41664 444,266.41664 429,271.41664 c -5,15 -8.38125,41.19526 -9,47 10,-2 27.44392,-8.41059 65.0496,-14.14624 64.42922,-9.8268 82.68763,-6.41632 80.11728,16.68915 C 561,358.41664 535.80899,358.05316 492.18491,367.24348 452.04483,375.69984 425,387.41664 410,392.41664 c -2,13 -4,31 -5,43 28.9634,-4.01102 60.82046,-10.72927 85.83016,-16.81566 47.07037,-11.45511 93.89069,-17.92296 108.45394,-33.30704 23.47641,-24.79965 31.81392,-39.86327 45.42464,-11.31672 11.30849,23.71793 5.49247,47.83825 -16.1837,63.4503 C 606.84888,453.03956 571,462.41664 519.18049,473.82818 462.78483,486.24747 419,495.41664 400,501.41664 c -0.11712,3.8309 -0.87726,20.16484 -1,27 20,0 50.3546,21.75874 54.87086,34.24421 4.09964,11.3337 1.59101,26.13159 -3.3188,47.8504 l -13.02467,57.61528 116.50573,-15.05341 c 79.92422,-10.32681 117.60654,-5.07795 113.67287,5.4882 -3.93367,10.56616 -47.23152,38.63224 -132.51217,60.48778 -56.73533,14.54001 -90.852,21.45051 -114.19382,29.36754 -5,20 -8.33519,31.05974 -17.45665,66.39605 -17.22008,66.71019 -37.11644,79.54488 -100.20031,84.52404 -53.10437,4.19148 -79.84247,-8.83565 -106.71616,-40.02873 z m 138.04729,-60.89136 c 3,-15 6.32583,-25 8.32583,-40 -18,3 -27,5 -57.80343,18.9636 -24.14183,10.94381 -34.23,34.09363 -25.43466,45.66365 13.84333,18.21053 31.28378,23.9333 47.98585,19.16364 16.70207,-4.76965 22.13979,-19.85776 26.92641,-43.79089 z M 518.23376,160.78183 C 517,154.41664 496,153.41664 451,158.41664 l -8,40 c 15,-2 28.93346,-5.12673 40.98537,-8.15807 C 493.92459,187.75862 506,184.41664 515,181.41664 c 1.1843,-6.21661 4.16696,-15.82025 3.23376,-20.63481 z"
       id="path39"
       sodipodi:nodetypes="ssscsssssccssssccsssccssssccsssscssscsscsscscccsssccsssssccsscssscsssscsssssccscs" />
  </g>
</svg>
