<?xml version="1.0" encoding="UTF-8" standalone="no"?>
<!-- Created with Inkscape (http://www.inkscape.org/) -->

<svg
   width="1000"
   height="1000"
   viewBox="0 0 1000 1000"
   version="1.1"
   id="svg756"
   inkscape:version="1.1 (c68e22c387, 2021-05-23)"
   sodipodi:docname="u6700.svg"
   xmlns:inkscape="http://www.inkscape.org/namespaces/inkscape"
   xmlns:sodipodi="http://sodipodi.sourceforge.net/DTD/sodipodi-0.dtd"
   xmlns="http://www.w3.org/2000/svg"
   xmlns:svg="http://www.w3.org/2000/svg"
   xmlns:rdf="http://www.w3.org/1999/02/22-rdf-syntax-ns#"
   xmlns:cc="http://creativecommons.org/ns#"
   xmlns:dc="http://purl.org/dc/elements/1.1/">
  <defs
     id="defs750" />
  <sodipodi:namedview
     id="base"
     pagecolor="#ffffff"
     bordercolor="#666666"
     borderopacity="1.0"
     inkscape:pageopacity="0.0"
     inkscape:pageshadow="2"
     inkscape:zoom="0.5"
     inkscape:cx="865"
     inkscape:cy="496"
     inkscape:document-units="px"
     inkscape:current-layer="layer1"
     showgrid="true"
     units="px"
     inkscape:window-width="1118"
     inkscape:window-height="864"
     inkscape:window-x="507"
     inkscape:window-y="24"
     inkscape:window-maximized="0"
     showguides="true"
     inkscape:guide-bbox="true"
     inkscape:pagecheckerboard="0">
    <inkscape:grid
       type="xygrid"
       id="grid758" />
    <sodipodi:guide
       position="240,200"
       orientation="0,1"
       id="guide8"
       inkscape:locked="false" />
  </sodipodi:namedview>
  <metadata
     id="metadata753">
    <rdf:RDF>
      <cc:Work
         rdf:about="">
        <dc:format>image/svg+xml</dc:format>
        <dc:type
           rdf:resource="http://purl.org/dc/dcmitype/StillImage" />
        <dc:title />
      </cc:Work>
    </rdf:RDF>
  </metadata>
  <g
     inkscape:label="Layer 1"
     inkscape:groupmode="layer"
     id="layer1"
     transform="translate(0,-32.41664)"
     style="display:inline">
    <path
       style="fill:#000000;stroke-width:13.0757"
       d="m 343.95639,892.41664 c -14.14978,-21.83246 -4.40799,-39.1662 16.901,-30.07227 29.97599,12.7927 48.51473,-30.65315 54.81966,-128.47073 5.25825,-81.57886 2.38337,-103.6002 3.37166,-120.46883 -12.73189,5.19488 -45.2272,26.24827 -94.69533,82.88292 -53.09153,60.78298 -74.72479,77.45895 -83.30697,64.21703 -8.58218,-13.24191 -27.31145,-45.7637 -3.49514,-69.34716 19.14594,-18.95875 41.08455,-38.5978 46.02286,-43.38883 -8.16552,-4.32298 -48.28498,-22.33277 -46.52672,-50.93764 1.7583,-28.60488 8.14723,-63.96255 18.50451,-95.2967 8.95813,-27.10121 7.92487,-46.91205 8.58373,-58.15781 C 220.8884,464.72977 102.27496,538.62518 71.926375,603.97381 62.667452,623.91074 50.806582,639.95305 45.568883,639.62336 33.651952,638.87324 45.332238,545.74074 63.748961,518.11974 87.188744,482.96526 176.58445,405.6154 228.21858,378.99704 c 25.83576,-13.31883 36.89166,-19.64278 49.04132,-27.72708 -1.05741,-16.9974 -2.14941,-42.6492 -5.61653,-71.08551 -15.01336,-6.58862 -15.81233,-20.39026 -2.47883,-45.30491 -3.46711,-28.43631 -11.06408,-96.62099 -24.58001,-124.67333 -17.33864,-35.9864 31.39375,-68.690235 38.42957,-65.379918 7.03583,3.310317 20.6454,27.810065 29.12305,72.225098 0,0 10.39173,41.04642 13.73859,71.97753 5.13408,-17.98132 13.09417,-43.58074 13.09417,-43.58074 13.91551,-46.314423 30.52048,-85.49321 55.53998,-99.938454 25.01951,-14.445251 58.58533,-14.684712 106.68609,-4.175982 43.3716,9.475535 76.63063,28.447037 92.9588,50.575585 22.24813,30.151491 25.08635,45.851021 10.30565,79.009551 -12.90838,28.95821 -22.07168,33.38382 -40.56325,32.05505 -12.17775,-0.87509 -21.12219,-1.66585 -24.91874,-24.47928 -16.34119,-0.61326 -72.39225,5.03798 -112.15785,21.3316 -39.7656,16.29359 -76.56773,45.79957 -89.86004,66.5295 0.42835,23.60923 2.5745,33.33749 5.21643,58.33568 13.82418,-8.15961 29.62863,-11.0688 38.44349,-23.71826 8.81486,-12.64945 39.67823,-40.41409 65.76285,-56.35861 19.91716,-12.1746 52.80648,-27.75439 80.58102,-31.14608 27.77454,-3.39168 77.15052,3.55127 80.94707,26.36469 87.9308,-11.39601 173.32014,-31.98174 192.08859,-37.76009 19.60993,-23.51265 63.93965,9.63007 62.40641,35.80027 -0.81525,13.9151 -17.06198,24.28453 -43.8029,27.95703 -78.99536,10.84891 -146.57826,24.05116 -206.36405,38.54829 -59.78581,14.49714 -145.20889,44.68978 -209.90856,68.68468 -10.88739,10.60191 -19.28471,18.81575 -42.11006,47.50196 -11.41268,14.34312 -14.07448,17.81355 -29.64626,38.2791 -6.10255,16.54671 -12.34645,44.81282 -16.92457,60.47426 -7.82524,26.76962 -9.5021,46.54376 -2.01099,38.95043 7.4911,-7.59333 19.21693,-46.85525 44.1263,-90.94214 31.4523,-55.66714 51.55159,-78.95228 62.47321,-72.37559 8.85616,5.3329 44.63003,11.49189 49.49377,11.79804 4.86377,0.30615 10.21629,35.84856 11.89452,78.98313 l 2.45511,47.34809 28.77288,-25.81632 c 43.84585,-39.34045 90.09242,-39.45524 123.9034,-19.26854 38.87042,23.2074 40.95297,89.12781 -30.49574,148.03654 l -55.95298,46.13266 82.97358,74.6836 c 63.58942,57.23615 97.54456,86.88801 124.08129,88.55838 44.12496,2.77746 45.78132,44.3272 4.17185,55.65678 -34.82359,9.48188 -78.39423,-9.94566 -163.05934,-91.8675 -44.44651,-43.00638 -87.93443,-76.15724 -118.2906,-83.71163 -1.18595,20.24235 -0.58719,32.14882 -9.5962,81.61582 -6.24864,34.3103 -21.18373,65.71678 -42.0085,84.38379 -20.82477,18.66703 -69.07467,21.84028 -82.62518,0.93243 z M 551.40948,599.79611 c 25.79803,-26.91623 43.46782,-47.00893 39.74936,-52.89734 -5.37822,-8.51675 -21.82336,0.82325 -41.71375,15.06577 -19.89039,14.2425 -48.73446,41.90712 -65.39498,63.43286 -0.2393,6.71066 -0.29136,21.79062 -0.55841,27.05419 10.75386,-1.79807 39.07256,-22.55996 67.91778,-52.65548 z M 417.18768,469.93992 c -5.77313,10.92383 -12.59764,27.27675 -12.80255,30.77428 -0.20491,3.4975 -30.18519,66.11474 -34.70016,79.10789 10.55796,-4.97904 38.93063,-25.76756 50.7441,-25.02396 -1.42143,-28.30753 -1.81998,-56.55067 -3.24139,-84.85821 z m 41.69526,-338.30634 c 29.872,-7.09277 70.76492,-6.95441 79.34736,-9.49645 -8.25301,-3.08083 -33.146,-18.26855 -73.09907,-20.78341 -54.60683,-3.437248 -74.48476,6.48365 -90.98327,33.59683 -10.17787,16.72602 -13.83941,26.65406 -16.54396,37.77103 30.36166,-19.81841 68.75421,-33.36537 101.27894,-41.088 z"
       id="path95"
       sodipodi:nodetypes="ssscssscsscsssscccssscsssssscsccsssccssscscsssssscssscsssscssssssccscscccscsscs" />
  </g>
</svg>
