<?xml version="1.0" encoding="UTF-8" standalone="no"?>
<!-- Created with Inkscape (http://www.inkscape.org/) -->

<svg
   width="1000"
   height="1000"
   viewBox="0 0 1000 1000"
   version="1.1"
   id="svg756"
   inkscape:version="1.1 (c68e22c387, 2021-05-23)"
   sodipodi:docname="u6728.svg"
   xmlns:inkscape="http://www.inkscape.org/namespaces/inkscape"
   xmlns:sodipodi="http://sodipodi.sourceforge.net/DTD/sodipodi-0.dtd"
   xmlns="http://www.w3.org/2000/svg"
   xmlns:svg="http://www.w3.org/2000/svg"
   xmlns:rdf="http://www.w3.org/1999/02/22-rdf-syntax-ns#"
   xmlns:cc="http://creativecommons.org/ns#"
   xmlns:dc="http://purl.org/dc/elements/1.1/">
  <defs
     id="defs750" />
  <sodipodi:namedview
     id="base"
     pagecolor="#ffffff"
     bordercolor="#666666"
     borderopacity="1.0"
     inkscape:pageopacity="0.0"
     inkscape:pageshadow="2"
     inkscape:zoom="0.5"
     inkscape:cx="899"
     inkscape:cy="638"
     inkscape:document-units="px"
     inkscape:current-layer="layer1"
     showgrid="true"
     units="px"
     inkscape:window-width="1118"
     inkscape:window-height="864"
     inkscape:window-x="919"
     inkscape:window-y="55"
     inkscape:window-maximized="0"
     showguides="true"
     inkscape:guide-bbox="true"
     inkscape:pagecheckerboard="0">
    <inkscape:grid
       type="xygrid"
       id="grid758" />
    <sodipodi:guide
       position="240,200"
       orientation="0,1"
       id="guide8"
       inkscape:locked="false" />
  </sodipodi:namedview>
  <metadata
     id="metadata753">
    <rdf:RDF>
      <cc:Work
         rdf:about="">
        <dc:format>image/svg+xml</dc:format>
        <dc:type
           rdf:resource="http://purl.org/dc/dcmitype/StillImage" />
        <dc:title />
      </cc:Work>
    </rdf:RDF>
  </metadata>
  <g
     inkscape:label="Layer 1"
     inkscape:groupmode="layer"
     id="layer1"
     transform="translate(0,-32.41664)"
     style="display:inline">
    <path
       style="fill:#000000;stroke-width:6.27549"
       d="m 338.42176,832.41664 c -8.61819,-22.03454 -14.9136,-123.13407 -18.43912,-205.32346 -1.50461,-35.07638 -4.98494,-42.55793 -4.98494,-53.97453 -5.18937,0 2.00005,0.19297 -17.34953,0.19297 -15.16256,0 -27.27904,-14.72321 -27.56829,-36.1566 -0.14864,-11.01549 14.07137,-36.68753 33.69453,-36.68753 9.87829,0 6.76682,0.23393 9.14755,0 -1.74315,-36.72737 -0.48308,-21.20006 -2.47712,-57.19692 l -18.90968,37.40832 C 253.02928,556.85371 86.34,766.88618 64.194999,766.88618 c -23.537578,0 -41.992204,-58.87963 22.333989,-134.75986 79.961662,-94.32415 137.263952,-176.45368 162.453152,-232.83898 12.66739,-28.35554 21.68008,-40.79415 29.64346,-40.91157 7.3631,-0.10857 28.06911,11.31964 25.99336,-6.3242 -12.97342,-2.59468 -25.75567,-5.29284 -59.83134,-11.71002 -34.07566,-6.41719 -78.20585,-11.1232 -125.31939,-13.26671 -73.727574,-3.35436 -78.44358,-2.14794 -78.44358,-13.95466 0,-10.22672 3.153822,-56.72273 26.163939,-59.27941 35.397101,-3.93302 125.844031,3.55851 190.526691,15.78091 27.13053,5.12657 38.60069,6.66511 43.79007,7.70298 0,-9.34086 -0.25133,-27.3694 -6.95829,-184.353374 -2.1656,-50.688635 -1.42412,-54.9105 9.64375,-54.9105 6.59434,0 47.27742,5.479021 47.27742,2.027507 0,-3.451517 4.53808,-6.275486 10.08463,-6.275486 7.46953,0 8.69003,2.847835 4.70661,10.982101 -8.24408,16.834715 -0.40597,221.113142 1.66978,248.097862 50.90024,10.44919 74.60703,11.72355 135.29259,24.77122 37.32787,8.02566 57.11129,9.92595 58.57119,5.5462 3.35714,-10.07139 18.15365,-7.88872 22.45174,3.31192 10.02907,26.13536 7.61246,73.24497 -30.19914,68.87188 -19.84622,-2.2953 -52.95721,-8.36791 -73.73696,-12.78286 -65.6751,-13.95359 -92.65982,-14.99146 -110.30367,-18.10508 1.47365,12.23522 1.40238,44.81284 4.542,85.21689 l 3.94314,50.74455 c 26.80257,2.07575 43.40521,4.2445 70.70598,13.87928 21.94609,7.74504 45.58365,17.39842 66.42336,32.73975 20.66901,15.21564 46.35635,32.20326 57.08297,37.75017 25.99622,13.44317 22.53266,66.14612 -6.10585,62.14788 -13.29075,-1.85553 -41.78729,-15.60627 -65.47453,-31.59407 -20.55285,-13.87221 -41.45015,-24.63514 -62.58653,-31.44361 -30.44909,-9.80828 -39.54768,-14.97974 -53.57815,-12.71102 l 4.39922,82.28119 c 3.08931,57.78099 9.1559,117.82225 12.48002,133.35408 14.97382,69.96444 -16.05055,62.80308 -30.68319,62.80308 -8.93718,0 -28.27226,-5.85597 -32.73168,-17.25758 z"
       id="path57"
       sodipodi:nodetypes="sscsssccssssscssssscssssscssssscscsssssscssss" />
  </g>
</svg>
