<?xml version="1.0" encoding="UTF-8" standalone="no"?>
<!-- Created with Inkscape (http://www.inkscape.org/) -->

<svg
   width="1000"
   height="1000"
   viewBox="0 0 1000 1000"
   version="1.1"
   id="svg756"
   inkscape:version="1.1 (c68e22c387, 2021-05-23)"
   sodipodi:docname="u672c.svg"
   xmlns:inkscape="http://www.inkscape.org/namespaces/inkscape"
   xmlns:sodipodi="http://sodipodi.sourceforge.net/DTD/sodipodi-0.dtd"
   xmlns="http://www.w3.org/2000/svg"
   xmlns:svg="http://www.w3.org/2000/svg"
   xmlns:rdf="http://www.w3.org/1999/02/22-rdf-syntax-ns#"
   xmlns:cc="http://creativecommons.org/ns#"
   xmlns:dc="http://purl.org/dc/elements/1.1/">
  <defs
     id="defs750" />
  <sodipodi:namedview
     id="base"
     pagecolor="#ffffff"
     bordercolor="#666666"
     borderopacity="1.0"
     inkscape:pageopacity="0.0"
     inkscape:pageshadow="2"
     inkscape:zoom="0.5"
     inkscape:cx="251.81791"
     inkscape:cy="330.90292"
     inkscape:document-units="px"
     inkscape:current-layer="layer1"
     showgrid="true"
     units="px"
     inkscape:window-width="1118"
     inkscape:window-height="864"
     inkscape:window-x="505"
     inkscape:window-y="93"
     inkscape:window-maximized="0"
     showguides="true"
     inkscape:guide-bbox="true"
     inkscape:pagecheckerboard="0">
    <inkscape:grid
       type="xygrid"
       id="grid758" />
    <sodipodi:guide
       position="240,200"
       orientation="0,1"
       id="guide8"
       inkscape:locked="false" />
  </sodipodi:namedview>
  <metadata
     id="metadata753">
    <rdf:RDF>
      <cc:Work
         rdf:about="">
        <dc:format>image/svg+xml</dc:format>
        <dc:type
           rdf:resource="http://purl.org/dc/dcmitype/StillImage" />
        <dc:title />
      </cc:Work>
    </rdf:RDF>
  </metadata>
  <g
     inkscape:label="Layer 1"
     inkscape:groupmode="layer"
     id="layer1"
     transform="translate(0,-32.41664)"
     style="display:inline">
    <path
       style="fill:#000000;stroke-width:10.8948"
       d="M 370.31521,861.18794 C 357.57864,848.67893 345.5857,816.40569 343.78168,769.232 l -2.77731,-85.06589 -39.99995,16.37367 c -20.08653,8.22227 -48.32895,24.96428 -63.48678,35.46391 -33.27975,23.05246 -76.22968,37.10106 -95.81589,16.12498 -3.95617,-4.2369 -7.0277,-7.43654 -10.08235,-14.69416 -5.0911,3.11041 -16.97193,7.58167 -22.54954,7.58167 -33.2542,0 -41.776029,-25.05252 -34.158395,-66.77544 C 90.349887,593.68234 215.43291,402.69271 297.75937,328.13137 l 48.09997,-41.48952 -112.78657,52.59864 c -62.03261,28.92925 -119.9344,52.59864 -128.67061,52.59864 -8.73623,0 -28.160721,-2.72513 -43.16554,-13.6591 -24.227214,-17.6543 -25.340853,-21.58855 -9.947301,-35.14186 9.533783,-8.39406 81.037211,-37.23388 158.896491,-71.69171 69.35679,-30.69491 121.03887,-52.75094 139.09026,-65.11371 2.27857,-20.37758 2.47208,-48.20998 2.47208,-65.01513 0,-57.868608 6.57102,-70.213318 19.96041,-91.338166 13.38939,-21.124848 19.34209,-21.999341 46.61558,-7.160948 21.91623,11.92373 19.98633,19.072509 17.07067,71.251004 l -5.38902,66.2181 80.77637,-21.47999 c 96.86693,-25.75879 169.25374,-31.39256 189.82709,-9.35933 27.08415,29.00603 -4.98513,36.64748 -111.74361,60.91996 -83.23781,18.92484 -144.32486,39.69016 -165.01748,46.08954 -3.05465,26.95689 -3.15777,30.8687 -5.03723,82.41417 l -3.30561,96.87932 52.94568,1.63119 c 55.71362,1.71647 111.7692,21.81448 147.57254,52.31486 31.52684,26.85733 32.75811,29.02963 4.86811,51.46347 -27.09225,21.79216 -31.07866,21.45265 -58.81554,-5.0093 -15.64721,-14.92794 -41.81578,-23.60919 -81.34294,-26.98498 l -66.4202,-4.97689 v 50.49127 46.34405 l 68.81532,6.80359 c 33.41287,3.30345 73.31504,15.3276 88.77065,25.74585 L 600,652.41664 c 0,0 -61.09312,-3.11041 -89.69427,-2.99963 -29.79035,0.11539 -93.76715,17.73643 -93.76715,17.73643 l 6.03646,98.58067 c 3.84219,62.74648 4.15095,90.33928 -6.26942,101.49906 -19.21753,20.58121 -22.24526,17.27565 -45.99041,-6.04523 z M 267.96636,637.09711 340.19204,608.68425 v -50.28469 c 0,-41.12959 0.16219,-48.02497 0.16219,-58.393 l -47.01702,-7.2973 23.42741,-22.35056 c 6.44253,-6.14639 20.27434,-11.16386 24.60783,-23.22911 0,-7.25762 1.20508,-41.54632 1.01822,-50.80336 -15.27328,15.55205 -22.37741,16.17495 -69.07779,79.46644 -25.37228,34.38622 -45.61452,68.03396 -63.49446,95.76071 -17.29698,26.82274 -48.67068,91.23129 -63.94396,132.70342 11.21366,-8.49371 82.36777,-51.53261 122.0919,-67.15969 z"
       id="path39"
       sodipodi:nodetypes="sscssscssscssssscsssscssscscssssscccsscscsssscsccsccsscs" />
  </g>
</svg>
