<?xml version="1.0" encoding="UTF-8" standalone="no"?>
<!-- Created with Inkscape (http://www.inkscape.org/) -->

<svg
   width="1000"
   height="1000"
   viewBox="0 0 1000 1000"
   version="1.1"
   id="svg756"
   inkscape:version="1.1 (c68e22c387, 2021-05-23)"
   sodipodi:docname="u6765.svg"
   xmlns:inkscape="http://www.inkscape.org/namespaces/inkscape"
   xmlns:sodipodi="http://sodipodi.sourceforge.net/DTD/sodipodi-0.dtd"
   xmlns="http://www.w3.org/2000/svg"
   xmlns:svg="http://www.w3.org/2000/svg"
   xmlns:rdf="http://www.w3.org/1999/02/22-rdf-syntax-ns#"
   xmlns:cc="http://creativecommons.org/ns#"
   xmlns:dc="http://purl.org/dc/elements/1.1/">
  <defs
     id="defs750" />
  <sodipodi:namedview
     id="base"
     pagecolor="#ffffff"
     bordercolor="#666666"
     borderopacity="1.0"
     inkscape:pageopacity="0.0"
     inkscape:pageshadow="2"
     inkscape:zoom="0.5"
     inkscape:cx="448.8264"
     inkscape:cy="494.15773"
     inkscape:document-units="px"
     inkscape:current-layer="layer1"
     showgrid="true"
     units="px"
     inkscape:window-width="1118"
     inkscape:window-height="864"
     inkscape:window-x="545"
     inkscape:window-y="100"
     inkscape:window-maximized="0"
     showguides="true"
     inkscape:guide-bbox="true"
     inkscape:pagecheckerboard="0">
    <inkscape:grid
       type="xygrid"
       id="grid758" />
    <sodipodi:guide
       position="240,200"
       orientation="0,1"
       id="guide8"
       inkscape:locked="false" />
  </sodipodi:namedview>
  <metadata
     id="metadata753">
    <rdf:RDF>
      <cc:Work
         rdf:about="">
        <dc:format>image/svg+xml</dc:format>
        <dc:type
           rdf:resource="http://purl.org/dc/dcmitype/StillImage" />
        <dc:title />
      </cc:Work>
    </rdf:RDF>
  </metadata>
  <g
     inkscape:label="Layer 1"
     inkscape:groupmode="layer"
     id="layer1"
     transform="translate(0,-32.41664)"
     style="display:inline">
    <path
       style="fill:#000000;stroke-width:14.3081"
       d="m 353.11328,727.32267 v -148.1389 l -39.15395,35.97577 c -22.71674,20.8728 -79.8554,64.23837 -118.47064,106.80074 -72.10073,79.47062 -113.918768,92.58059 -113.918768,46.01417 0,-27.39352 54.485358,-98.13061 170.467258,-195.29008 35.79077,-29.98237 53.64316,-45.56175 63.14443,-58.0432 -15.19324,1.5462 -38.73662,7.65468 -80.0456,22.7164 -37.97112,13.84469 -69.55793,16.74702 -80.18272,8.52883 -10.62478,-8.21819 -16.95036,-27.04854 6.77607,-52.86676 0,0 30.75127,-19.77419 53.51915,-25.24182 -22.76788,-16.40289 -50.1592,-36.0312 -50.1592,-36.0312 -21.29692,-22.48922 -11.94115,-52.21099 3.47043,-51.88879 15.41157,0.3222 25.47248,3.74592 75.03684,25.22395 20.8077,9.01672 39.92139,34.96086 60.41539,44.29315 17.07591,0 40.76014,-7.21419 50.39737,-5.28058 0,-16.40289 -2.43616,-38.46046 1.36582,-94.26552 l 5.79389,-89.04248 -101.78766,5.82477 c -57.96681,3.31713 -110.71519,1.06079 -150.18824,-4.9285 C 70.120093,255.69334 45.92189,224.76847 39.269415,212.86464 31.392997,198.7707 80.9654,202.5009 200.13133,202.17755 c 115.57262,-0.3136 141.72615,-9.81001 167.93873,-11.24887 1.68673,-10.92087 5.16789,-60.52521 10.48258,-95.107974 6.39327,-41.601207 26.19951,-62.87775 40.72576,-62.87775 30.63512,0 52.84473,63.413304 33.07968,108.233864 -7.25492,16.45175 -6.23675,31.29617 -6.87725,37.72308 6.33246,0.13424 11.51227,-0.34533 24.53494,-0.34533 16.27288,0 29.58704,8.93526 29.58704,19.85614 0,10.92087 -4.761,31.48869 -11.61966,36.65573 -10.62729,8.00618 -27.42641,13.4738 -50.19428,18.94144 -2.24383,38.45712 -15.07592,133.03607 -13.11387,167.12096 5.1786,-0.24608 42.07199,-45.71378 87.55076,-103.7123 64.99794,-82.89112 90.64022,-105.45186 119.85535,-105.45186 51.59515,0 64.89263,26.89312 -4.2846,91.77784 -55.60451,52.15421 -86.69061,94.23669 -104.09364,111.09327 10.57267,-3.73427 20.1023,-3.5671 44.67176,-15.98993 48.54588,-24.54582 85.40795,-14.10859 85.40795,17.41763 0,25.25654 -32.61971,44.81653 -115.78017,56.60863 -21.98868,3.11799 -50.40101,8.77622 -67.47691,14.24385 -10.50536,9.35252 -25.75527,27.4608 -31.59824,36.80578 22.76787,21.87052 42.82558,38.16101 67.19344,58.69399 31.99632,26.96089 56.74175,38.82584 90.67425,44.96588 30.43232,5.50669 57.47437,-3.50794 97.78366,-15.53564 69.98746,-20.88323 74.79293,13.20882 9.02727,46.42192 -41.42485,20.92045 -82.51758,30.23765 -121.60976,28.04519 -39.09219,-2.19248 -86.18154,-21.62613 -118.71371,-47.57405 L 420,604.41664 v 135.61599 c 0,115.94323 -17.69675,133.80305 -36.85854,133.80305 -19.22301,0 -28.14171,-25.1177 -30.02818,-146.51301 z"
       id="path167"
       sodipodi:nodetypes="scsssscssscsssccscsssscssscsssccssscsssccsssssscsss" />
  </g>
</svg>
