<?xml version="1.0" encoding="UTF-8" standalone="no"?>
<!-- Created with Inkscape (http://www.inkscape.org/) -->

<svg
   width="1000"
   height="1000"
   viewBox="0 0 1000 1000"
   version="1.1"
   id="svg756"
   inkscape:version="1.1 (c68e22c387, 2021-05-23)"
   sodipodi:docname="u6797.svg"
   xmlns:inkscape="http://www.inkscape.org/namespaces/inkscape"
   xmlns:sodipodi="http://sodipodi.sourceforge.net/DTD/sodipodi-0.dtd"
   xmlns="http://www.w3.org/2000/svg"
   xmlns:svg="http://www.w3.org/2000/svg"
   xmlns:rdf="http://www.w3.org/1999/02/22-rdf-syntax-ns#"
   xmlns:cc="http://creativecommons.org/ns#"
   xmlns:dc="http://purl.org/dc/elements/1.1/">
  <defs
     id="defs750" />
  <sodipodi:namedview
     id="base"
     pagecolor="#ffffff"
     bordercolor="#666666"
     borderopacity="1.0"
     inkscape:pageopacity="0.0"
     inkscape:pageshadow="2"
     inkscape:zoom="0.5"
     inkscape:cx="883.09489"
     inkscape:cy="667.20043"
     inkscape:document-units="px"
     inkscape:current-layer="layer1"
     showgrid="true"
     units="px"
     inkscape:window-width="1118"
     inkscape:window-height="864"
     inkscape:window-x="505"
     inkscape:window-y="47"
     inkscape:window-maximized="0"
     showguides="true"
     inkscape:guide-bbox="true"
     inkscape:pagecheckerboard="0">
    <inkscape:grid
       type="xygrid"
       id="grid758" />
    <sodipodi:guide
       position="240,200"
       orientation="0,1"
       id="guide8"
       inkscape:locked="false" />
  </sodipodi:namedview>
  <metadata
     id="metadata753">
    <rdf:RDF>
      <cc:Work
         rdf:about="">
        <dc:format>image/svg+xml</dc:format>
        <dc:type
           rdf:resource="http://purl.org/dc/dcmitype/StillImage" />
        <dc:title />
      </cc:Work>
    </rdf:RDF>
  </metadata>
  <g
     inkscape:label="Layer 1"
     inkscape:groupmode="layer"
     id="layer1"
     transform="translate(0,-32.41664)"
     style="display:inline">
    <path
       style="fill:#000000;stroke-width:7.90746"
       d="M 296.37348,869.68457 C 283.37331,858.14001 270.58173,835.25511 265.32148,814.13068 260.40167,794.37347 251,693.41664 248.45799,631.66957 237.10765,647.55356 176.67806,750.61685 162.19659,758.75433 131.34816,776.08886 109.52493,795.92988 97.93574,776.40467 85.644525,755.69668 117.97291,702.59164 181.26628,604.67889 206,566.41664 239.73663,523.82536 249,503.41664 c 3.49671,-33.37857 4.18869,-65.42887 8,-113 -1.99131,-0.0623 -55.54509,19.77764 -73.23698,29.48215 C 140.66071,443.54164 110,457.41664 90.200234,469.06024 78.459602,475.96452 60,487.41664 52.420154,478.60356 34.149378,457.36016 33.486973,447.42092 63.75548,416.89829 92,388.41664 130.0791,368.01379 184.98225,346.40924 l 78.99833,-29.08607 10.64215,-128.33179 c 4.13431,-49.85495 6.46171,-92.024332 8.6856,-94.09298 2.22388,-2.06866 6.77647,-4.972384 22.33906,-6.452734 24.59712,-2.33973 16.0019,-3.305223 29.2625,12.097884 13.527,15.71254 13.69298,64.96124 11.46265,83.13806 C 343.46812,207.35215 340,272.41664 339,289.41664 c 11.01015,-5.06838 35.62576,-14.69613 55.57536,-16.4484 40.43505,-3.5516 55.04972,-14.34762 61.25528,7.34178 5.81809,20.33509 -8.90106,33.4641 -53.62577,47.83253 C 385.46019,333.52201 368,340.41664 362,343.41664 c 5,3 7,4 12.07262,8.66134 14.70116,13.50921 11.71778,14.6997 -8.41957,69.36646 -9.27533,25.17965 -22.65305,48.9722 -31.3685,64.33172 5.71545,3.64048 29.66186,19.78658 53.77663,39.08275 C 425,554.41664 437,561.41664 444,565.41664 c 2,-5 32.8059,-69.86296 44.06181,-94.74004 C 505.37366,432.41503 513,416.41664 517,406.41664 c -35,15 -100.11525,29.68416 -118.75272,19.04355 -33.33208,-19.03014 -14.14314,-41.67437 61.95482,-74.91808 l 59.76652,-24.10925 6.70478,-107.0924 C 536.52247,62.025802 545.25047,18.13216 599.73764,38.877268 631.78231,51.077761 610.86772,75.145231 600.59278,190.42325 597.77669,222.01796 595,282.41664 593,309.41664 c 13,-3 42.37878,-9.31792 51.67532,-9.57546 C 660,299.41664 665,312.41664 665.93413,319.638 c 1.65057,12.75982 -10.3198,27.73212 -18.93374,33.3166 C 641.07769,356.79433 601,373.41664 593,378.41664 c -0.49842,22.03431 -0.53006,36.84814 -0.99386,62.55648 l 141.12094,62.40134 c 58.64722,25.93283 107.30724,47.84995 112.42385,54.50939 13.17016,17.14153 15.89958,33.19506 -3.10586,40.00146 C 827,603.41664 780.07975,597.71261 696.38313,554.90194 669.00975,540.90051 617.737,523.93564 587,508.41664 c -1,13 -1.14378,46.56803 -1.32285,57.07755 -0.83786,49.17245 7.74601,168.41892 19.89646,193.8971 20.54243,43.07531 12.44194,68.21919 -39.92933,56.12941 -24.8632,-5.7397 -28.3042,-39.81423 -32.67477,-75.38358 C 526,683.41664 524,569.41664 523,548.41664 517.23979,559.06253 456.84619,710.07866 452.8058,716.71237 440.5,736.91664 436,774.41664 405.41201,767.60865 372.02498,760.17768 375.85008,735.83131 398.71532,674.84864 415,631.41664 422,621.41664 424,615.41664 c -6,-1 -49.47843,-20.36574 -67.5929,-34.24341 C 338.29262,567.29557 323,557.41664 317,553.41664 c 0.12479,4.0085 1.12382,57.31248 3.37899,108.46734 4.3166,97.91584 12.86566,148.49424 29.8711,176.72507 28.98029,48.11034 -8.40636,71.45471 -53.87661,31.07552 z"
       id="path167"
       sodipodi:nodetypes="sscsssccssssscssssscssscsscscscsscssscsssccsssscsssscssscscsss" />
  </g>
</svg>
