<?xml version="1.0" encoding="UTF-8" standalone="no"?>
<!-- Created with Inkscape (http://www.inkscape.org/) -->

<svg
   width="1000"
   height="1000"
   viewBox="0 0 1000 1000"
   version="1.1"
   id="svg756"
   inkscape:version="1.1 (c68e22c387, 2021-05-23)"
   sodipodi:docname="u6821.svg"
   xmlns:inkscape="http://www.inkscape.org/namespaces/inkscape"
   xmlns:sodipodi="http://sodipodi.sourceforge.net/DTD/sodipodi-0.dtd"
   xmlns="http://www.w3.org/2000/svg"
   xmlns:svg="http://www.w3.org/2000/svg"
   xmlns:rdf="http://www.w3.org/1999/02/22-rdf-syntax-ns#"
   xmlns:cc="http://creativecommons.org/ns#"
   xmlns:dc="http://purl.org/dc/elements/1.1/">
  <defs
     id="defs750" />
  <sodipodi:namedview
     id="base"
     pagecolor="#ffffff"
     bordercolor="#666666"
     borderopacity="1.0"
     inkscape:pageopacity="0.0"
     inkscape:pageshadow="2"
     inkscape:zoom="0.5"
     inkscape:cx="831"
     inkscape:cy="556"
     inkscape:document-units="px"
     inkscape:current-layer="layer1"
     showgrid="true"
     units="px"
     inkscape:window-width="1118"
     inkscape:window-height="864"
     inkscape:window-x="491"
     inkscape:window-y="80"
     inkscape:window-maximized="0"
     showguides="true"
     inkscape:guide-bbox="true"
     inkscape:pagecheckerboard="0">
    <inkscape:grid
       type="xygrid"
       id="grid758" />
    <sodipodi:guide
       position="240,200"
       orientation="0,1"
       id="guide8"
       inkscape:locked="false" />
  </sodipodi:namedview>
  <metadata
     id="metadata753">
    <rdf:RDF>
      <cc:Work
         rdf:about="">
        <dc:format>image/svg+xml</dc:format>
        <dc:type
           rdf:resource="http://purl.org/dc/dcmitype/StillImage" />
        <dc:title />
      </cc:Work>
    </rdf:RDF>
  </metadata>
  <g
     inkscape:label="Layer 1"
     inkscape:groupmode="layer"
     id="layer1"
     transform="translate(0,-32.41664)"
     style="display:inline">
    <path
       style="fill:#000000;stroke-width:10.9875"
       d="m 196.95296,834.15487 c -19.31059,-13.10636 -7.96583,-54.83623 6.33651,-48.42644 9.5468,4.27854 18.80993,-17.64481 31.39008,-74.2917 13.68768,-61.63404 16.05975,-99.24386 18.30814,-117.76437 -6.02762,-3.05887 -6.9735,-3.7376 -17.07827,-7.13737 -5.02302,10.19624 -15.06907,24.00775 -25.11511,39.30211 -20.99198,31.95874 -37.19616,56.15068 -60.54085,82.56726 -23.34469,26.41658 -59.093902,47.17456 -72.007488,47.17456 -14.664454,0 -31.202165,-5.90409 -36.27904,-23.21543 -3.9922,-13.61277 5.076875,-28.57174 17.507553,-29.56555 10.973357,-0.87729 33.823081,-23.74394 58.491515,-57.57734 24.66844,-33.83341 51.18957,-77.75627 69.60772,-118.11411 18.49015,-40.51558 39.84378,-73.6647 47.45253,-73.6647 4.65679,0 18.481,8.52239 22.98446,9.7187 0.51956,-6.29443 1.57867,-32.17278 1.46974,-47.63178 -0.26548,-37.67602 -2.47434,-50.25213 -4.48355,-70.64461 -14.8166,-0.52542 -44.24418,-3.7042 -91.75633,-3.7042 -42.82834,0 -71.052057,-3.58542 -81.151864,-8.90325 -10.099809,-5.31783 -2.07571,-40.91756 27.591574,-47.84722 17.47467,-4.08172 56.40371,-7.42131 86.509,-7.42131 18.24563,0 36.70632,0.5808 54.73686,0 -2.96147,-30.00792 -4.48859,-26.24982 -6.73289,-48.55136 -5.48612,-54.51553 -4.09141,-65.87625 7.53185,-61.35133 8.16704,3.17941 53.42264,7.12053 57.50292,40.43446 3.91969,32.0028 10.04514,54.75467 13.05895,70.04903 25.11511,3.05887 20.09209,43.84383 5.00678,66.80013 0.82027,25.0826 4.83335,49.04409 3.82281,86.22254 0,0 0.14178,45.05624 0.17186,67.59719 0.0307,23.07027 -1.82813,53.32245 -1.82813,53.32245 l 33.17849,15.43326 c 21.00729,9.77172 47.93677,15.76591 58.63008,16.17249 10.69332,0.40657 21.31252,7.22136 23.5982,15.14393 3.43302,11.89939 -11.24902,43.90597 -27.77803,46.02337 -16.529,2.11739 -34.64032,1.36551 -55.08293,-7.48075 -29.60144,-12.8096 -29.67309,-14.6017 -39.71913,-19.69982 -0.92466,3.97503 -4.86452,25.898 -7.87266,47.00411 -3.01654,21.16504 -7.31205,47.77206 -12.6262,75.52778 -15.89046,82.99561 -30.15968,102.71163 -47.01319,105.56456 -11.27242,1.90817 -35.32555,4.20333 -57.82196,-11.06529 z m 250.70631,-28.32758 c -8.37128,-10.46267 -4.83886,-60.97213 4.76891,-114.35499 9.60776,-53.38288 29.17037,-106.93955 39.18429,-129.8588 8.38753,-19.19686 25.1293,-34.60816 35.94147,-34.45079 17.44606,0.25393 43.94245,20.1848 52.84662,30.54931 15.94955,18.56537 18.13635,22.28868 23.15937,28.40642 3.5368,-4.13472 29.15195,-64.31481 58.65365,-142.15012 4.16051,-10.9768 21.74668,-25.28341 41.01431,-24.21733 17.40369,0.96296 12.83306,-7.04713 13.52711,-9.24738 1.18429,-3.75438 -4.02543,-18.02076 -11.94209,-33.81774 -7.91666,-15.797 -17.68226,-33.31233 -25.07802,-44.1278 -12.08474,-17.67259 35.08036,-5.01804 54.83548,1.01542 13.44695,4.10686 25.02594,17.94755 36.76962,38.88368 11.74367,20.93612 21.65203,46.9677 19.75768,63.45636 -2.10196,18.29579 -7.51918,35.44696 -30.36789,33.51423 -15.03726,-1.27199 -29.28613,0.82729 -35.5203,5.03968 -5.81137,3.9267 -12.82387,32.57706 -17.70131,48.50775 -2.65349,8.66684 -18.37557,42.51958 -33.51407,74.51042 L 648,650.41664 l 21.94624,33.11584 c 15.83924,23.90066 43.32093,57.38092 57.18956,74.62412 18.76458,23.33043 -0.13966,39.75257 -9.65838,46.62319 -8.3849,6.05222 -42.16984,10.93828 -72.91154,-32.82473 -12.67607,-18.0453 -14.87702,-25.01076 -34.02823,-52.13591 -6.96851,9.79154 -15.5894,22.0292 -21.8841,31.0438 -32.37626,46.36584 -62.45716,80.82374 -73.61156,83.23364 -7.92407,1.71199 -62.12666,-21.70012 -67.38272,-28.2693 z M 552.81072,688.88376 c 8.91588,-15.36139 10.57425,-18.45051 16.39746,-29.85987 -7.83242,-11.02237 -21.87846,-35.41485 -34.46218,-46.57449 -5.71518,0 -9.50678,13.37779 -17.074,45.52453 -7.56721,32.14675 -9.5032,57.55826 -8.02718,65.5686 1.87758,10.18957 4.39472,12.15611 10.0633,7.37839 4.91738,-4.14459 19.20349,-18.09007 33.1026,-42.03716 z M 466.79896,439.51574 c -20.00066,-8.3756 -41.62662,-17.0626 1.87659,-97.51024 22.36757,-41.36288 40.50683,-80.32373 42.53228,-92.06417 -8.03683,3.05887 -11.43257,6.1269 -37.63312,19.59963 -56.17741,28.88728 -57.69932,7.10308 -66.18054,-5.74327 -9.74346,-14.75824 -3.7402,-30.3067 13.40485,-39.88258 17.98948,-10.04751 46.60055,-24.49484 76.62221,-37.46026 16.09788,-6.95217 13.39929,-5.93753 29.86027,-12.90683 3.63111,-28.71754 5.02302,-44.46291 5.02302,-65.69437 0,-46.495853 17.01817,-75.231999 37.60481,-73.722551 24.64383,1.806929 33.36566,48.591653 30.71285,88.409241 -0.99461,14.92872 -1.046,17.39934 -2.05061,28.6152 5.02303,-2.03925 7.68034,-4.17105 25.3606,-9.87244 25.10701,-8.0963 39.64615,-9.15285 53.97033,-0.19968 25.32477,15.82899 17.29998,64.00788 -14.47012,64.00788 -28.53069,0 -55.47501,8.79572 -72.89764,18.37905 -5.02302,20.39248 -8.02211,28.13292 -26.52539,69.18304 l -37.36332,82.89169 27.20576,-12.06079 27.20578,-12.0608 -26.48282,45.6164 c -28.53321,49.14815 -70.2496,49.81523 -87.77579,42.47585 z"
       id="path187"
       sodipodi:nodetypes="sssccsssssssscscsssscsssccsscssssscssssssssscsssssssssssscsssscssssccsssssscsssscssscssscscccss" />
  </g>
</svg>
