<?xml version="1.0" encoding="UTF-8" standalone="no"?>
<!-- Created with Inkscape (http://www.inkscape.org/) -->

<svg
   width="1000"
   height="1000"
   viewBox="0 0 1000 1000"
   version="1.1"
   id="svg756"
   inkscape:version="1.1 (c68e22c387, 2021-05-23)"
   sodipodi:docname="u697d.svg"
   xmlns:inkscape="http://www.inkscape.org/namespaces/inkscape"
   xmlns:sodipodi="http://sodipodi.sourceforge.net/DTD/sodipodi-0.dtd"
   xmlns="http://www.w3.org/2000/svg"
   xmlns:svg="http://www.w3.org/2000/svg"
   xmlns:rdf="http://www.w3.org/1999/02/22-rdf-syntax-ns#"
   xmlns:cc="http://creativecommons.org/ns#"
   xmlns:dc="http://purl.org/dc/elements/1.1/">
  <defs
     id="defs750" />
  <sodipodi:namedview
     id="base"
     pagecolor="#ffffff"
     bordercolor="#666666"
     borderopacity="1.0"
     inkscape:pageopacity="0.0"
     inkscape:pageshadow="2"
     inkscape:zoom="0.5"
     inkscape:cx="803"
     inkscape:cy="634"
     inkscape:document-units="px"
     inkscape:current-layer="layer1"
     showgrid="true"
     units="px"
     inkscape:window-width="1118"
     inkscape:window-height="864"
     inkscape:window-x="575"
     inkscape:window-y="32"
     inkscape:window-maximized="0"
     showguides="true"
     inkscape:guide-bbox="true"
     inkscape:pagecheckerboard="0">
    <inkscape:grid
       type="xygrid"
       id="grid758" />
    <sodipodi:guide
       position="240,200"
       orientation="0,1"
       id="guide8"
       inkscape:locked="false" />
  </sodipodi:namedview>
  <metadata
     id="metadata753">
    <rdf:RDF>
      <cc:Work
         rdf:about="">
        <dc:format>image/svg+xml</dc:format>
        <dc:type
           rdf:resource="http://purl.org/dc/dcmitype/StillImage" />
        <dc:title />
      </cc:Work>
    </rdf:RDF>
  </metadata>
  <g
     inkscape:label="Layer 1"
     inkscape:groupmode="layer"
     id="layer1"
     transform="translate(0,-32.41664)"
     style="display:inline">
    <path
       style="fill:#000000;stroke-width:13.6302"
       d="m 348.54982,939.75061 c -9.4651,-8.18396 -31.60093,-40.02271 -31.60093,-70.7528 0,-26.27715 1.81847,-50.10131 1.33256,-56.43675 -11.50716,0.92028 -19.85516,4.58353 -36.30083,8.15244 -22.44416,4.87066 -41.68038,0.5956 -53.70904,-11.93628 -15.96851,-16.63654 -10.34043,-46.4207 15.86643,-56.08147 28.56977,-10.53181 67.73835,-9.22846 119.19103,-12.86781 62.6806,-4.43352 64.91512,-3.15913 86.87617,-6.32827 8.6055,-11.86453 17.9896,-36.82311 23.98613,-47.65344 -6.44255,3.8723 -61.1848,9.08002 -127.73732,21.90737 -108.7548,20.96143 -132.87546,14.85593 -153.08606,-2.61908 -33.8499,-29.26821 8.49299,-55.63308 124.19405,-62.2489 57.67001,-3.29759 115.91815,-12.15929 144.09848,-22.34007 21.66569,-7.82721 24.52392,-7.2625 48.51007,-15.92676 7.19583,-16.24549 11.14012,-25.88454 20.81888,-54.06502 12.58907,-36.65405 20.49057,-59.08919 20.49057,-60.4455 0,-1.35631 -11.07439,13.37715 -47.01187,24.55101 -62.60568,19.4657 -115.64084,27.15918 -147.90173,-5.08068 -59.87249,-59.83348 -59.87249,-97.73962 -39.6527,-121.51157 35.01655,-41.16816 147.68317,-95.36165 214.223,-47.98653 31.19902,22.21313 1.9978,55.46688 -44.33559,50.39513 -52.1869,-5.71247 -87.94258,16.29355 -91.75202,33.47463 -2.26537,10.21706 -2.41063,9.54937 17.93603,28.50624 11.43376,10.65277 39.02867,7.41202 74.41786,-4.12525 55.98726,-18.25245 92.57041,-71.40403 95.41789,-135.76612 4.77767,-107.99171 -44.54101,-149.05536 -126.4501,-105.28468 -51.5894,27.56838 -139.6884,107.07181 -139.6884,126.05936 0,15.65177 -40.18898,26.72382 -65.96187,18.17245 -14.24553,-4.72659 -21.98731,-24.37771 -21.98731,-55.81086 0,-26.68356 -6.53877,-63.38601 -14.53063,-81.56103 -12.57107,-28.58902 -8.54936,-38.10097 29.82179,-70.53296 24.3938,-20.61814 52.48715,-33.40252 59.45154,-37.48751 12.40694,-7.277365 31.75011,-17.110109 52.10131,-38.022479 38.72309,-39.790841 78.37072,-50.273296 78.37072,-20.720464 0,10.735349 -5.50423,37.080111 -25.50385,59.880993 -19.99962,22.80087 -47.29881,48.55604 -76.49704,71.10862 -31.72346,24.50302 -29.74143,26.51843 -35.25312,29.86226 2.39862,2.16607 4.79722,9.7473 4.79722,11.91336 3.59792,-6.49819 46.18105,-35.93774 67.41794,-46.76459 93.03775,-47.43195 139.57844,-60.43757 186.30988,-47.57908 71.28435,19.61442 101.82234,79.17665 98.3354,164.25467 l -2.39862,45.52739 23.12947,-30.4446 c 18.32794,-24.12445 27.94967,-32.45985 43.13342,-44.19568 18.47577,-14.2803 55.54364,2.53229 67.53421,12.8999 11.53332,9.97223 -0.81862,25.33473 -46.81224,58.12238 l -62.79133,46.47222 52.66581,41.71766 c 58.37391,46.23918 48.44901,64.45133 16.46028,87.40622 -17.69211,12.69573 -23.5671,11.703 -31.0927,-5.25396 -5.10335,-11.49908 -30.42873,-24.10169 -48.5266,-38.45612 L 640,444.13385 613.20481,535.02773 c -14.73734,49.99163 -36.04816,104.14452 -47.01859,126.88368 -14.24207,29.52052 -24.09564,56.96283 -32.02954,70.50523 11.99308,-1.08303 11.89229,-0.26677 29.5456,-3.55609 23.98109,-4.46838 21.19979,-1.42554 4.24373,16.60672 -10.80554,11.49138 -49.19221,36.3209 -62.57269,40.01797 -11.99307,21.66066 -27.46061,54.53486 -55.47468,91.66954 -65.65531,87.03085 -81.68665,79.59665 -101.34882,62.59583 z m 66.87549,-143.43504 c -8.062,0 -20.12172,3.94715 -28.78337,5.41517 0,6.97078 -2.99515,36.3745 -0.2503,36.40338 8.142,0.0856 23.1133,-31.30338 29.03367,-41.81855 z M 70.953585,611.11008 C 55.295784,594.64984 51.809992,537.65377 55.229544,376.82154 58.053109,244.02047 53.882456,160.90517 43.558043,144.22499 24.796536,113.91375 59.692637,91.653148 88.607715,101.24705 c 45.834665,15.20777 56.105955,76.21014 45.412935,269.71279 -12.10105,218.98261 -5.47596,225.45992 81.10842,152.35629 31.37231,-26.48779 62.10879,-43.47187 68.3033,-37.74237 6.19449,5.72948 3.7877,23.189 -2.47697,30.96704 -9.66108,11.99495 -26.23722,37.17545 -46.37796,57.84379 -19.42334,19.93215 -56.24795,62.20624 -86.37506,62.20624 -15.59134,0 -66.184147,-13.84901 -77.248795,-25.48075 z"
       id="path93"
       sodipodi:nodetypes="sscssssccsssscssssssssssssssssssssssccssscsssscsssscsscsscssccscsssssssssss" />
  </g>
</svg>
