<?xml version="1.0" encoding="UTF-8" standalone="no"?>
<!-- Created with Inkscape (http://www.inkscape.org/) -->

<svg
   width="1000"
   height="1000"
   viewBox="0 0 1000 1000"
   version="1.1"
   id="svg756"
   inkscape:version="1.1 (c68e22c387, 2021-05-23)"
   sodipodi:docname="u6c17.svg"
   xmlns:inkscape="http://www.inkscape.org/namespaces/inkscape"
   xmlns:sodipodi="http://sodipodi.sourceforge.net/DTD/sodipodi-0.dtd"
   xmlns="http://www.w3.org/2000/svg"
   xmlns:svg="http://www.w3.org/2000/svg"
   xmlns:rdf="http://www.w3.org/1999/02/22-rdf-syntax-ns#"
   xmlns:cc="http://creativecommons.org/ns#"
   xmlns:dc="http://purl.org/dc/elements/1.1/">
  <defs
     id="defs750" />
  <sodipodi:namedview
     id="base"
     pagecolor="#ffffff"
     bordercolor="#666666"
     borderopacity="1.0"
     inkscape:pageopacity="0.0"
     inkscape:pageshadow="2"
     inkscape:zoom="1"
     inkscape:cx="402.5"
     inkscape:cy="532"
     inkscape:document-units="px"
     inkscape:current-layer="layer1"
     showgrid="true"
     units="px"
     inkscape:window-width="1118"
     inkscape:window-height="864"
     inkscape:window-x="499"
     inkscape:window-y="34"
     inkscape:window-maximized="0"
     showguides="true"
     inkscape:guide-bbox="true"
     inkscape:pagecheckerboard="0">
    <inkscape:grid
       type="xygrid"
       id="grid758" />
    <sodipodi:guide
       position="240,200"
       orientation="0,1"
       id="guide8"
       inkscape:locked="false" />
  </sodipodi:namedview>
  <metadata
     id="metadata753">
    <rdf:RDF>
      <cc:Work
         rdf:about="">
        <dc:format>image/svg+xml</dc:format>
        <dc:type
           rdf:resource="http://purl.org/dc/dcmitype/StillImage" />
        <dc:title />
      </cc:Work>
    </rdf:RDF>
  </metadata>
  <g
     inkscape:label="Layer 1"
     inkscape:groupmode="layer"
     id="layer1"
     transform="translate(0,-32.41664)"
     style="display:inline">
    <path
       id="path39"
       style="fill:#000000;stroke-width:14.321"
       d="m 272.09965,44.002474 c -8.62941,1.356668 -18.97668,3.454346 -24.16888,10.050682 -3.5178,4.435385 -5.33297,10.102491 -4.40909,15.57407 0.47756,4.902013 -0.46637,9.810746 -1.57774,14.589699 -2.87421,11.667545 -7.92433,22.762275 -13.39881,33.574365 -10.00548,19.43556 -22.00375,37.95472 -34.95441,55.841 -16.62573,22.85295 -34.93125,44.68936 -54.95385,65.11377 -6.92474,6.98668 -13.98045,13.86561 -20.71238,21.01234 -10.4424,11.01882 -20.543884,22.3558 -29.408722,34.50271 -3.565417,4.92821 -7.023299,10.13693 -9.88514,15.51629 -2.486998,4.77857 -2.674676,11.83999 -3.066059,17.17703 -0.240483,4.36472 1.09335,9.11942 4.834882,12.04049 3.460078,2.71253 8.167242,3.59381 12.610806,3.40278 8.222613,-0.34535 16.150713,-2.71425 23.775193,-5.41728 6.00166,-2.16694 12.08852,-4.74338 17.87136,-7.40578 6.01873,-2.76516 11.92476,-5.73248 17.77257,-8.79086 1.65679,-0.89198 3.52657,-1.86989 5.25652,-2.81002 15.58182,-8.4287 30.65908,-17.61638 45.54948,-27.03472 31.82081,-19.76176 65.65057,-36.67816 100.40202,-51.64597 44.36192,-19.04882 90.30978,-34.9068 137.12679,-48.04367 13.8992,-3.87347 27.8536,-7.59392 41.92563,-10.9021 4.8941,-1.10591 9.79053,-2.23162 14.74118,-3.09927 2.25819,-0.31882 4.51637,-0.63774 6.77456,-0.95661 -2.97548,2.36412 -5.85972,4.83281 -9.06255,6.94025 -13.28048,9.12842 -27.10467,17.55943 -40.90876,25.99694 -32.35307,19.59378 -65.10248,38.62435 -97.87081,57.623 -20.3875,11.76145 -40.74012,23.65652 -60.80469,35.83176 -17.02688,10.32979 -33.8848,20.83358 -50.55405,31.66111 -18.48399,12.02638 -36.77374,24.43958 -54.45779,37.52897 -3.33675,2.47037 -6.63717,4.96213 -9.95582,7.50188 -6.87126,5.29782 -13.76927,10.8032 -20.38612,16.45477 -9.66895,8.26376 -19.15924,17.01662 -27.44932,26.5759 -6.207,7.2438 -11.96402,15.00446 -15.39075,23.73396 -2.33962,6.03866 -3.34949,12.76876 -1.27052,18.99721 1.339,4.37978 4.45086,8.1978 8.46852,10.81674 6.26344,4.13789 13.94173,5.92751 21.4754,6.88888 10.57056,1.28691 21.28961,0.87278 31.8719,-0.0749 1.75671,-0.17051 3.74943,-0.37515 5.59259,-0.59116 6.67289,-0.7806 13.20566,-1.80392 19.81856,-3.02429 8.63826,-1.60955 17.33471,-3.56357 25.88411,-5.76636 12.90552,-3.31846 25.78204,-7.25418 38.3792,-11.62337 2.29568,-0.77321 4.53193,-1.71337 6.94099,-2.1578 1.45984,-0.34493 4.01452,-1.58276 5.47435,-1.92769 -1.68544,1.76789 -4.33042,4.54675 -6.10524,6.23666 -8.86143,7.73758 -17.96236,15.2353 -27.03007,22.76603 -4.53814,3.80158 -9.07917,7.66626 -13.41692,11.57539 -2.39047,2.16034 -4.73087,4.35795 -6.95431,6.58352 -5.92413,5.96588 -11.54228,12.50631 -14.41219,20.24461 -2.30357,6.29652 -1.96467,13.26413 0.47492,19.48216 2.53038,6.61224 6.55167,12.62543 10.63652,18.5038 5.20438,6.96589 12.1026,12.67835 19.19155,17.98227 9.6638,7.10315 19.95022,13.46177 30.45955,19.45177 18.60202,10.52837 38.12197,19.68624 58.31957,27.33522 18.06681,6.9956 36.07218,14.16923 53.5415,22.36325 7.68407,3.67139 13.15032,7.46609 20.14083,12.19364 3.09766,2.17561 6.2746,4.81753 8.09399,8.05419 0.65452,1.16442 3.745,5.63698 2.30157,10.85596 -9.09764,3.69183 -16.11945,6.22389 -24.79378,7.92506 -15.31327,3.00317 -30.60231,6.75573 -47.70746,8.45456 -23.36811,2.32085 -48.28194,1.91089 -71.25145,-2.57697 -19.38419,-3.78735 -36.24621,-7.04968 -54.67345,-14.54355 -15.39187,-6.25947 -28.64752,-12.89122 -42.54421,-17.73371 -17.19472,-5.99174 -35.00047,-10.82842 -53.31734,-12.74493 -14.74717,-1.54301 -30.029793,-0.98634 -44.120569,3.61166 -10.881751,3.5086 -20.81344,9.63737 -28.128152,17.87024 -6.818241,7.69757 -11.746066,16.77606 -14.598349,26.33813 -2.597433,8.7077 -3.587078,18.05603 -1.256726,26.89939 1.248365,4.73737 3.256473,9.35968 6.272509,13.3949 3.090121,4.13434 7.732799,7.17098 12.892624,8.74494 5.517423,1.68304 11.406621,2.00782 17.175987,1.84537 4.99651,-0.14069 10.262097,-0.69292 14.517171,-1.23549 4.467579,-0.56966 8.786737,-1.24341 13.255471,-1.98868 10.810034,-1.80283 21.623404,-4.04294 32.538964,-5.5376 10.05623,-1.37699 20.29031,-2.47023 30.45051,-1.45507 7.51068,0.75043 14.79625,3.11173 21.20997,6.77526 9.10056,5.12452 16.73657,12.05763 24.52579,18.6854 13.49692,11.2875 27.62561,21.92459 42.08634,32.14793 11.78747,8.24532 23.62657,16.56371 36.51021,23.2794 9.81143,5.11427 18.44826,8.99947 28.0665,11.48507 9.72338,2.51278 24.06337,5.27977 34.01461,3.53367 3.82806,-0.67169 6.82596,-1.42394 10.23255,-2.5229 9.10405,-2.93696 17.42944,-7.6323 25.02148,-13.0623 8.37514,-5.9901 15.90671,-12.70904 22.68407,-19.49862 13.88886,-13.91391 26.19266,-29.08411 38.08207,-44.46329 8.57468,-11.18398 16.9602,-22.49219 25.09215,-33.95262 7.47486,-10.73964 14.66022,-21.75459 19.75446,-33.65248 1.82986,-4.27374 3.18093,-8.29035 4.15827,-12.50159 1.9358,-8.34116 -0.20307,-17.27521 -3.64596,-25.28258 -3.54211,-8.23814 -12.11379,-17.0813 -19.57144,-22.55043 -10.16472,-7.41063 -21.873,-12.75828 -33.69927,-17.52893 -19.96444,-7.9091 -40.67765,-14.05259 -61.31917,-20.25376 -15.57905,-4.79549 -31.08913,-9.87954 -46.01903,-16.21212 -9.37549,-4.03296 -18.63395,-8.54704 -26.61586,-14.67186 -4.61291,-3.60146 -8.83872,-8.07597 -10.31419,-13.60168 -1.3149,-4.65492 -0.39926,-9.5892 1.53429,-13.98202 3.09056,-7.06776 8.03048,-13.29534 13.28455,-19.12457 9.00144,-9.81833 19.3471,-18.50129 29.85753,-26.92332 18.35541,-14.5666 37.6715,-28.06179 57.04726,-41.44908 10.57051,-7.36488 21.09359,-14.89892 31.3365,-22.58049 13.56845,-10.24756 26.92466,-20.79988 39.0359,-32.51284 6.14201,-5.99989 11.99793,-12.31245 16.72709,-19.33299 0.68684,-1.03861 1.48479,-2.29896 2.14891,-3.46048 2.8745,-5.03532 4.98267,-10.78088 4.04436,-16.53104 -0.71785,-5.09875 -4.18612,-9.61543 -8.75004,-12.47453 -5.84356,-3.66605 -12.87279,-5.21785 -19.74972,-6.30389 -4.70435,-0.92485 -9.55917,-0.25691 -14.13954,0.8975 -6.49106,1.65301 -12.78524,3.54584 -19.11277,5.65306 -14.77427,4.97573 -29.38377,10.79679 -43.75858,16.84997 -22.71517,9.60704 -45.044,20.00575 -66.93583,30.94888 -26.81183,13.42889 -53.90122,26.4265 -81.5934,38.25424 -10.48908,4.48004 -14.53929,7.27069 -25.86402,9.08201 -5.81906,0.93072 -11.11855,0.0362 -12.40632,-1.09434 -1.53774,-1.34994 -0.37301,-5.30705 1.64976,-7.84994 4.40193,-5.53381 8.4375,-12.375 14.54514,-18.01362 7.38862,-6.82123 12.43315,-12.16421 20.20574,-18.71776 13.69893,-11.40454 28.49758,-21.63215 43.58084,-31.42555 23.64964,-15.29392 48.18828,-29.38634 72.94925,-43.09793 42.38308,-23.37077 85.58682,-45.45569 129.0372,-67.09279 22.45066,-11.18258 45.03063,-22.14501 67.57519,-33.16812 22.17451,-10.89964 44.27782,-21.91156 65.97713,-33.56521 9.53794,-5.13675 19.06755,-10.44875 28.27461,-16.0149 9.64212,-5.88165 19.15283,-12.04482 27.59861,-19.34851 4.38076,-3.85243 8.53636,-8.35006 10.00291,-13.89088 1.45718,-4.91094 -0.26272,-12.39385 -4.13473,-15.99067 -2.81274,-2.68283 -6.33057,-4.67537 -10.00618,-6.19752 -4.88457,-1.86113 -10.27292,-1.23919 -15.40868,-1.07191 -5.47254,0.21621 -10.97247,0.67511 -16.34722,1.23646 -15.65784,1.65516 -31.14019,2.01844 -46.63094,4.62291 -31.07895,5.22532 -61.99374,11.44969 -92.75578,18.17971 -30.8462,6.74844 -61.55722,14.07207 -92.04776,22.16654 -15.20444,4.03639 -30.34141,8.29159 -45.38465,12.84937 -10.58476,3.20696 -21.10911,6.77263 -31.77505,9.86777 -14.0906,4.08894 -28.30859,9.88885 -42.79521,12.60748 -4.37234,0.76613 -13.50079,3.07054 -17.96477,3.16526 3.59931,-5.48108 7.9136,-12.84712 10.52296,-17.90565 6.86035,-13.2704 15.19173,-25.84561 23.9642,-38.10882 4.9713,-7.13416 9.62804,-14.46288 13.70032,-22.06716 0.47158,-0.90161 1.08179,-2.04142 1.58183,-3.0474 1.37981,-2.71255 2.65292,-5.47023 3.84082,-8.25837 0.18058,-0.45853 0.50872,-1.2491 0.74583,-1.83485 3.47535,-8.765269 5.94899,-18.071021 5.40345,-27.461884 -0.31082,-6.416104 -2.5413,-12.86607 -7.02654,-17.859191 -3.87778,-4.444963 -9.50525,-7.361543 -15.44232,-8.805857 -7.89859,-1.927561 -16.23385,-1.65323 -24.24906,-0.540203 z M 377.94724,742.32691 c -4.02679,2.50696 -12.62631,10.96998 -16.08745,13.92083 -4.6349,3.95155 -7.36086,6.07781 -15.39991,10.76692 -6.79176,3.96159 -12.10004,7.59323 -20.15894,7.88411 -9.66178,0.34874 -12.98701,-1.51394 -17.90279,-4.24904 -4.3475,-2.41891 -10.18863,-6.52427 -14.88387,-9.83487 -8.81326,-6.2142 -23.85137,-16.41892 -26.29226,-18.13956 6.89518,2.18781 25.25979,6.26845 32.33985,7.06219 7.88983,0.88451 18.94036,2.57871 26.98405,1.77265 9.25639,-0.92757 20.47923,-1.9748 30.17948,-4.01584 6.41556,-1.34991 17.01311,-3.51013 21.22184,-5.16739 z"
       sodipodi:nodetypes="cccccccccccccccccccccccccccccccccccccccccccccccccccccccscssssssccssssssssscccssssssccssscccccccccccccccccccccssssscccccccccccccsssssccccccccccccccssssscsssc" />
  </g>
</svg>
