<?xml version="1.0" encoding="UTF-8" standalone="no"?>
<!-- Created with Inkscape (http://www.inkscape.org/) -->

<svg
   width="1000"
   height="1000"
   viewBox="0 0 1000 1000"
   version="1.1"
   id="svg756"
   inkscape:version="1.1 (c68e22c387, 2021-05-23)"
   sodipodi:docname="u6c34.svg"
   xmlns:inkscape="http://www.inkscape.org/namespaces/inkscape"
   xmlns:sodipodi="http://sodipodi.sourceforge.net/DTD/sodipodi-0.dtd"
   xmlns="http://www.w3.org/2000/svg"
   xmlns:svg="http://www.w3.org/2000/svg"
   xmlns:rdf="http://www.w3.org/1999/02/22-rdf-syntax-ns#"
   xmlns:cc="http://creativecommons.org/ns#"
   xmlns:dc="http://purl.org/dc/elements/1.1/">
  <defs
     id="defs750" />
  <sodipodi:namedview
     id="base"
     pagecolor="#ffffff"
     bordercolor="#666666"
     borderopacity="1.0"
     inkscape:pageopacity="0.0"
     inkscape:pageshadow="2"
     inkscape:zoom="0.35355339"
     inkscape:cx="713.48141"
     inkscape:cy="775.63024"
     inkscape:document-units="px"
     inkscape:current-layer="layer1"
     showgrid="true"
     units="px"
     inkscape:window-width="1118"
     inkscape:window-height="864"
     inkscape:window-x="557"
     inkscape:window-y="106"
     inkscape:window-maximized="0"
     showguides="true"
     inkscape:guide-bbox="true"
     inkscape:pagecheckerboard="0">
    <inkscape:grid
       type="xygrid"
       id="grid758" />
    <sodipodi:guide
       position="240,200"
       orientation="0,1"
       id="guide8"
       inkscape:locked="false" />
  </sodipodi:namedview>
  <metadata
     id="metadata753">
    <rdf:RDF>
      <cc:Work
         rdf:about="">
        <dc:format>image/svg+xml</dc:format>
        <dc:type
           rdf:resource="http://purl.org/dc/dcmitype/StillImage" />
        <dc:title />
      </cc:Work>
    </rdf:RDF>
  </metadata>
  <g
     inkscape:label="Layer 1"
     inkscape:groupmode="layer"
     id="layer1"
     transform="translate(0,-32.41664)"
     style="display:inline">
    <path
       style="fill:#000000;stroke-width:17.2572"
       d="m 39.771972,814.9217 c 0,-22.77037 38.381572,-112.6035 85.292378,-199.62918 46.91082,-87.02566 99.2924,-163.57378 99.2924,-170.10692 0,-6.53313 -19.85682,1.43717 -44.12626,17.71189 -24.26944,16.27468 -48.76052,24.84739 -54.42465,19.0505 -9.79418,-10.02373 -7.43122,-41.84743 13.19843,-56.46364 20.62962,-14.61621 51.52594,-28.02492 82.79847,-33.21871 42.51245,-7.06053 75.18222,10.53921 73.15606,35.17235 -2.02616,24.63314 -20.74822,74.29971 -69.01945,151.37284 -42.15823,67.31273 -72.75155,122.24757 -63.21462,122.24757 4.76847,0 12.80196,-5.30828 18.32191,-5.30828 -5.51995,11.02404 -16.98105,36.53405 -24.53016,48.32551 -15.09824,23.58291 -20.20566,49.55932 -16.97396,60.22814 2.45748,8.11287 -4.58559,25.60054 -22.99588,35.68438 -23.671589,12.96558 -46.865258,16.85488 -54.141027,13.67484 -7.27577,-3.18005 -22.633641,-15.42945 -22.633641,-38.74129 z M 320.80207,801.47824 C 303,775.41664 305.66838,751.11152 305.60524,743.35828 c 5.51995,0 7.51995,3.78566 17.71477,4.72008 6.73827,0.6176 13.22188,-15.90618 16.45083,-49.56441 3.22898,-33.65822 4.86826,-80.01456 4.91275,-132.9914 0.089,-105.9537 -6.20119,-238.38947 -18.91138,-348.68661 -8.74073,-75.85096 -15.17043,-124.312285 -18.11819,-152.753974 -1.68203,-16.22923 3.09695,-29.751351 14.54305,-29.949601 8.55491,-0.148174 48.436,4.774089 51.26318,13.612082 3.28642,10.273625 12.97189,56.605763 21.73444,128.094593 8.76255,71.48882 16.41313,156.83801 18.39339,218.85828 1.69105,52.96253 4.08823,97.34475 4.8164,107.64417 5.51996,-16.53605 13.06546,-32.26209 22.57576,-47.19353 10.01976,-15.73132 17.78182,-29.70476 48.86584,-67.56645 16.07696,-19.58243 33.04685,-39.50001 47.47317,-54.48077 14.51305,-15.07081 28.79626,-22.52585 37.53718,-24.86523 19.13275,-5.1206 50.78681,3.86039 50.78681,7.73551 0,3.87513 -36.54341,49.06944 -78.76313,107.76514 -42.21974,58.69571 -77.88011,106.68048 -78.76315,136.4484 -0.88808,29.93783 18.16026,49.97512 51.98336,68.51147 33.82311,18.53635 81.30904,29.58494 135.96036,29.58494 100.60467,0 125.07868,31.78554 53.66881,51.3712 -40.53364,11.1172 -81.07236,13.76471 -119.16387,8.29467 C 552.47411,712.4768 514.96387,699.99348 481.5334,683.13865 459.232,671.89483 435.86034,650.75638 424,630.41664 c -0.28355,25.85175 -1.96769,73.67168 -1.96769,73.67168 -1.08221,40.51943 -3.00132,84.77972 -4.26463,98.35618 -1.92835,20.7235 -20.28089,34.87294 -32.88796,34.74946 -15.56375,-0.15247 -47.45201,-11.37637 -64.07765,-35.71572 z"
       id="path57"
       sodipodi:nodetypes="sssssssssscsssssscssssssssscsssssssssssscssss" />
  </g>
</svg>
