<?xml version="1.0" encoding="UTF-8" standalone="no"?>
<!-- Created with Inkscape (http://www.inkscape.org/) -->

<svg
   width="1000"
   height="1000"
   viewBox="0 0 1000 1000"
   version="1.1"
   id="svg756"
   inkscape:version="1.1 (c68e22c387, 2021-05-23)"
   sodipodi:docname="u6c38.svg"
   xmlns:inkscape="http://www.inkscape.org/namespaces/inkscape"
   xmlns:sodipodi="http://sodipodi.sourceforge.net/DTD/sodipodi-0.dtd"
   xmlns="http://www.w3.org/2000/svg"
   xmlns:svg="http://www.w3.org/2000/svg"
   xmlns:rdf="http://www.w3.org/1999/02/22-rdf-syntax-ns#"
   xmlns:cc="http://creativecommons.org/ns#"
   xmlns:dc="http://purl.org/dc/elements/1.1/">
  <defs
     id="defs750" />
  <sodipodi:namedview
     id="base"
     pagecolor="#ffffff"
     bordercolor="#666666"
     borderopacity="1.0"
     inkscape:pageopacity="0.0"
     inkscape:pageshadow="2"
     inkscape:zoom="0.5"
     inkscape:cx="863"
     inkscape:cy="682"
     inkscape:document-units="px"
     inkscape:current-layer="layer1"
     showgrid="true"
     units="px"
     inkscape:window-width="1118"
     inkscape:window-height="864"
     inkscape:window-x="375"
     inkscape:window-y="92"
     inkscape:window-maximized="0"
     showguides="true"
     inkscape:guide-bbox="true"
     inkscape:pagecheckerboard="0">
    <inkscape:grid
       type="xygrid"
       id="grid758" />
    <sodipodi:guide
       position="240,200"
       orientation="0,1"
       id="guide8"
       inkscape:locked="false" />
  </sodipodi:namedview>
  <metadata
     id="metadata753">
    <rdf:RDF>
      <cc:Work
         rdf:about="">
        <dc:format>image/svg+xml</dc:format>
        <dc:type
           rdf:resource="http://purl.org/dc/dcmitype/StillImage" />
        <dc:title />
      </cc:Work>
    </rdf:RDF>
  </metadata>
  <g
     inkscape:label="Layer 1"
     inkscape:groupmode="layer"
     id="layer1"
     transform="translate(0,-32.41664)"
     style="display:inline">
    <path
       style="fill:#000000;stroke-width:7.37375"
       d="m 58.888903,844.24349 c -19.485831,-9.94217 -25.057844,-30.4655 -2.940366,-43.16045 10.342577,-5.93643 24.889221,-18.56348 34.757475,-32.99153 9.868258,-14.42811 33.442448,-47.00725 52.387088,-72.39812 18.94466,-25.39089 48.58506,-73.52854 65.86757,-106.97257 17.28252,-33.44402 38.70814,-72.7232 47.6125,-87.28705 8.90435,-14.56385 12.47474,-26.26943 17.19981,-33.26311 -19.89483,0 -68.36348,35.10714 -100.60816,62.03075 -26.88303,22.44675 -39.49124,-0.88694 -39.49124,-14.48887 0,-19.66182 55.28019,-74.30701 113.43823,-112.13518 34.44504,-22.40433 59.27377,-24.00531 78.84322,-23.51939 22.92207,0.56919 22.42357,4.3895 27.39728,9.43307 0,-70.60992 -21.73566,-66.30225 -40.12537,-71.41518 -48.97086,-13.61548 -141.74898,22.44564 -151.56235,56.69693 -9.33032,32.56534 -62.809704,17.13173 -55.62409,-15.79641 5.04821,-23.13347 45.56153,-74.1968 75.40452,-86.35319 35.03847,-14.27273 89.25192,-24.16952 133.49037,-24.36896 73.08009,-0.32948 107.49927,46.87697 104.39132,204.38766 -1.34583,68.20654 -0.60425,78.88699 -1.32671,94.2084 9.94742,-32.27882 25.40556,-42.0359 45.05573,-58.40836 31.12961,-25.93711 76.92344,-44.9282 83.41829,-44.9996 4.93634,-0.0545 16.44116,13.40594 25.5663,20.0486 20.95678,15.25552 15.39246,36.69727 -13.43735,51.77991 -11.60724,6.07245 -34.61488,15.5457 -51.73597,29.37352 -18.70968,15.11086 -24.94434,26.41504 -24.55728,35.52614 0.45298,10.66317 19.94591,24.70604 51.33115,38.81561 33.67947,15.14096 78.84714,17.00622 110.10945,13.54269 58.97085,-6.53336 68.26297,-6.16621 76.92028,3.62531 30.12942,34.07677 -4.23296,63.81383 -64.88924,62.51454 C 603.60565,697.55103 551.99541,694.70802 502.84019,676.16249 465.56823,662.10033 433.31874,644.14122 418,612.41664 c 0,5.04357 -2.27206,33.94897 -4.27432,99.30415 -2.50753,81.84753 -10.72676,122.11848 -17.62741,129.40228 -28.72079,30.31533 -75.24001,-6.56452 -61.03799,-56.99111 5.03508,-17.87794 10.9325,-88.1273 13.10535,-156.10976 2.17286,-67.98246 4.63467,-131.66765 4.9083,-144.63849 0.27838,-13.19562 -1.11566,-9.04549 0.27838,-19.2479 -6.36775,15.24597 -8.23175,18.16752 -14.43921,29.88156 -4.52577,8.54055 -12.28568,23.29241 -17.24423,32.78191 -4.95854,9.4895 -17.33374,29.67626 -27.50045,44.85946 -10.16671,15.1832 -31.23972,49.55127 -46.82894,76.37349 -15.58921,26.82222 -45.31222,72.05844 -66.05114,100.52486 C 84.507071,881.40003 87.191869,858.68437 58.888903,844.24349 Z M 216.3795,138.57488 c -33.84463,-21.42033 -48.68828,-38.56716 -55.8897,-64.561668 -3.6475,-13.166146 10.33886,-33.544705 19.28419,-36.551709 23.04391,-7.746292 33.02355,-4.241733 38.06915,13.368766 2.83079,9.880223 20.40505,27.035563 40.24584,39.286538 36.67569,22.645883 37.67404,35.434373 21.78774,49.350813 -13.50473,11.83017 -30.17972,20.19398 -63.49722,-0.89274 z"
       id="path57"
       sodipodi:nodetypes="sssssscsssscsssssscscssssssssscssssscsssssssssssss" />
  </g>
</svg>
