<?xml version="1.0" encoding="UTF-8" standalone="no"?>
<!-- Created with Inkscape (http://www.inkscape.org/) -->

<svg
   width="1000"
   height="1000"
   viewBox="0 0 1000 1000"
   version="1.1"
   id="svg756"
   inkscape:version="1.1 (c68e22c387, 2021-05-23)"
   sodipodi:docname="u6c5a.svg"
   xmlns:inkscape="http://www.inkscape.org/namespaces/inkscape"
   xmlns:sodipodi="http://sodipodi.sourceforge.net/DTD/sodipodi-0.dtd"
   xmlns="http://www.w3.org/2000/svg"
   xmlns:svg="http://www.w3.org/2000/svg"
   xmlns:rdf="http://www.w3.org/1999/02/22-rdf-syntax-ns#"
   xmlns:cc="http://creativecommons.org/ns#"
   xmlns:dc="http://purl.org/dc/elements/1.1/">
  <defs
     id="defs750" />
  <sodipodi:namedview
     id="base"
     pagecolor="#ffffff"
     bordercolor="#666666"
     borderopacity="1.0"
     inkscape:pageopacity="0.0"
     inkscape:pageshadow="2"
     inkscape:zoom="0.5"
     inkscape:cx="887"
     inkscape:cy="622"
     inkscape:document-units="px"
     inkscape:current-layer="layer1"
     showgrid="true"
     units="px"
     inkscape:window-width="1118"
     inkscape:window-height="820"
     inkscape:window-x="618"
     inkscape:window-y="99"
     inkscape:window-maximized="0"
     showguides="true"
     inkscape:guide-bbox="true"
     inkscape:pagecheckerboard="0">
    <inkscape:grid
       type="xygrid"
       id="grid758" />
    <sodipodi:guide
       position="240,200"
       orientation="0,1"
       id="guide8"
       inkscape:locked="false" />
  </sodipodi:namedview>
  <metadata
     id="metadata753">
    <rdf:RDF>
      <cc:Work
         rdf:about="">
        <dc:format>image/svg+xml</dc:format>
        <dc:type
           rdf:resource="http://purl.org/dc/dcmitype/StillImage" />
        <dc:title />
      </cc:Work>
    </rdf:RDF>
  </metadata>
  <g
     inkscape:label="Layer 1"
     inkscape:groupmode="layer"
     id="layer1"
     transform="translate(0,-32.41664)"
     style="display:inline">
    <path
       style="fill:#000000;stroke-width:8.16625"
       d="m 580,838.41664 c -7.49546,-10.99335 -12.97005,-41.54621 -12.25604,-64.89568 0.26953,-8.8139 4.04118,-9.5003 15.24723,-2.77486 8.14945,4.89099 19.13754,3.23578 27.9895,-2.01479 8.85195,-5.25058 14.91881,-17.71538 19.40733,-25.94758 3.25155,-5.96352 6.68399,-16.03285 15.06453,-34.17202 22.00767,-47.63427 34.70092,-89.77189 25.78784,-101.91136 -6.14548,-8.37004 -15.37665,-1.04722 -38.9348,30.88585 -35.38427,47.96334 -59.07873,63.05864 -95.96262,61.13595 -38.52851,-2.00842 -47.94322,-17.51394 -54.21768,-89.29364 l 0.56963,-63.23545 -26.97262,6.4963 c -11.64296,2.80418 -30.89623,4.22172 -43.11378,1.78635 -17.0869,-3.40598 -22.41789,-9.33219 -23.09829,-25.67727 -0.95842,-23.02352 16.95698,-42.49183 48.28277,-49.07786 10.64138,-2.23727 39.54347,-13.47776 54.33082,-22.07485 10.16733,-35.68587 11.74371,-55.85073 23.71741,-91.38766 19.81097,-58.79727 31.02126,-98.62463 52.38742,-156.37987 9.70023,-26.22087 17.84791,-43.41274 22.46339,-54.33757 -15.18144,0.705 -73.19395,48.54297 -87.0498,66.29326 -5.06397,6.4873 -15.68409,17.32891 -33.37804,31.42583 -26.46484,21.08472 -39.41862,19.42614 -45.20599,9.2011 -10.50527,-18.5606 -11.45271,-34.20523 2.74281,-56.47041 C 442.47829,182.96965 542.12136,113.66892 559.94676,104.40172 583,92.41664 603.41963,84.98109 635.5,77.16664 c 19.5,-4.75 41.73106,-6.46999 79.64366,-2.170589 26.85634,3.045589 42.07678,8.019446 54.98672,15.375128 8.39264,4.781865 22.37518,14.035641 30.72355,23.860791 13.31774,15.67361 22.43904,38.39341 21.7218,58.12459 -0.66294,18.23737 -7.57573,40.06008 -23.78948,64.79199 -10.32263,15.74579 -20.43423,31.27875 -44.01762,65.07743 C 725.31546,342.43733 707,366.41664 682.10702,395.7865 657.5377,424.77449 635,447.41664 609.00338,472.05581 c -17.73488,16.80883 -31.78645,31.28909 -56.42136,48.49886 -3.72551,32.30449 -11.76689,92.79054 2.02119,98.59169 16.91256,7.11573 63.80321,-29.79693 74.6508,-59.22996 11.72876,-31.82395 17.92038,-37.84204 49.72191,-48.32847 32.5187,-10.72293 59.72058,13.12023 58.53233,90.52985 -0.69991,45.59694 -9.94132,93.40136 -28.97405,137.4222 C 662.38446,846.27984 610,882.41664 580,838.41664 Z m 58.82212,-499.16193 c 13.20354,-14.35107 39.67271,-40.9768 56.45462,-59.64343 17.87964,-19.88765 38.27294,-43.23736 53.43525,-61.91209 15.63803,-19.26064 29.84883,-44.96305 29.58664,-51.26153 -0.98815,-23.73782 -36.29863,-28.02102 -58.05561,-29.7416 -20.1928,-1.59688 -42.86064,1.94884 -53.14927,2.86472 -4.61548,10.92483 -9.4314,18.8481 -15.43839,34.08002 -17.84708,45.25484 -36.7766,81.98905 -64.61554,173.91744 -7.68582,25.37968 -14.31019,57.93467 -15.92935,61.76327 24.41242,-22.55467 43.03956,-43.25045 67.71165,-70.0668 z M 50.14295,814.90772 C 33.703893,803.14392 41.180271,765.55216 62.769756,751.41924 73.55,744.36228 85.629497,730.06953 89.613085,719.65758 c 4.775801,-12.48254 12.153095,-17.58585 21.658275,-14.98229 16.97314,4.6491 36.87662,-16.55059 102.62394,-109.30737 46.08815,-65.02146 134.80716,-168.20804 156.14013,-181.60219 5.90378,-3.70677 21.3334,-15.45687 34.28803,-26.11137 12.95463,-10.65448 26.7276,-17.15917 30.60661,-14.45486 12.56301,8.75852 16.40492,39.97917 0.0734,51.97733 -19.97779,14.67693 -36.34324,36.37945 -51.10481,51.23864 -61.613,62.02049 -84.14828,92.64058 -152.47328,207.4007 -59.70616,100.28373 -72.8805,107.99285 -107.29825,127.83855 -29.293292,16.89086 -58.62966,14.24073 -73.98419,3.253 z M 231.99412,391.36238 c -13.55093,-5.03859 -40.29547,-27.38398 -40.95182,-46.54818 -1.66863,-48.72176 50.27666,-59.80355 83.27746,-17.76606 24.1666,30.78416 25.09862,67.89934 2.25914,74.11932 -16.66996,4.53981 -32.99165,-5.49444 -44.58478,-9.80508 z m 34.16453,-169.46913 c -35.12764,-11.3985 -65.98087,-34.05259 -98.95726,-72.65967 -17.24001,-20.18375 -19.56543,-69.801451 -4.22353,-70.513906 5.71671,-0.265475 15.18288,-3.03265 21.03591,-6.149289 6.63144,-3.531111 23.36693,9.38756 44.40837,34.280305 22.57559,26.7077 47.0608,45.03841 73.87976,55.30962 39.50217,15.12867 56.59684,37.31462 48.51546,55.40248 -4.77628,10.69034 -56.8501,13.35402 -84.65871,4.33043 -1e-5,0 10e-6,3e-5 0,3e-5 z"
       id="path183"
       sodipodi:nodetypes="sssssssssscsssscsscssssssssssscsscssssssssssscsscsssssssssssssssssssssssssssss" />
  </g>
</svg>
