<?xml version="1.0" encoding="UTF-8" standalone="no"?>
<!-- Created with Inkscape (http://www.inkscape.org/) -->

<svg
   width="1000"
   height="1000"
   viewBox="0 0 1000 1000"
   version="1.1"
   id="svg756"
   inkscape:version="1.1 (c68e22c387, 2021-05-23)"
   sodipodi:docname="u6cd5.svg"
   xmlns:inkscape="http://www.inkscape.org/namespaces/inkscape"
   xmlns:sodipodi="http://sodipodi.sourceforge.net/DTD/sodipodi-0.dtd"
   xmlns="http://www.w3.org/2000/svg"
   xmlns:svg="http://www.w3.org/2000/svg"
   xmlns:rdf="http://www.w3.org/1999/02/22-rdf-syntax-ns#"
   xmlns:cc="http://creativecommons.org/ns#"
   xmlns:dc="http://purl.org/dc/elements/1.1/">
  <defs
     id="defs750" />
  <sodipodi:namedview
     id="base"
     pagecolor="#ffffff"
     bordercolor="#666666"
     borderopacity="1.0"
     inkscape:pageopacity="0.0"
     inkscape:pageshadow="2"
     inkscape:zoom="0.5"
     inkscape:cx="871"
     inkscape:cy="646"
     inkscape:document-units="px"
     inkscape:current-layer="layer1"
     showgrid="true"
     units="px"
     inkscape:window-width="1118"
     inkscape:window-height="864"
     inkscape:window-x="789"
     inkscape:window-y="34"
     inkscape:window-maximized="0"
     showguides="true"
     inkscape:guide-bbox="true"
     inkscape:pagecheckerboard="0">
    <inkscape:grid
       type="xygrid"
       id="grid758" />
    <sodipodi:guide
       position="240,200"
       orientation="0,1"
       id="guide8"
       inkscape:locked="false" />
  </sodipodi:namedview>
  <metadata
     id="metadata753">
    <rdf:RDF>
      <cc:Work
         rdf:about="">
        <dc:format>image/svg+xml</dc:format>
        <dc:type
           rdf:resource="http://purl.org/dc/dcmitype/StillImage" />
        <dc:title />
      </cc:Work>
    </rdf:RDF>
  </metadata>
  <g
     inkscape:label="Layer 1"
     inkscape:groupmode="layer"
     id="layer1"
     transform="translate(0,-32.41664)"
     style="display:inline">
    <path
       style="fill:#000000;stroke-width:7.51719"
       d="M 604,842.41664 C 580.47266,811.50846 567.63111,778.38687 563.84882,743.07141 557.88433,687.38061 550,580.41664 526.5803,578.33694 c -27.62653,-2.45327 -59.48035,59.48586 -82.38983,96.21046 -26.50085,42.48167 -30.79484,67.72019 -67.69252,131.03143 -22.71563,38.97684 -45.27047,46.04517 -77.81002,45.73238 -63.37478,-0.60919 -89.27237,-47.98781 -64.71,-117.3902 14.8702,-42.01657 97.01329,-179.9414 173.94328,-266.87242 21.74021,-24.56647 45.6926,-53.13003 59.68743,-72.50524 6.58958,-9.12298 8.34845,-16.73061 -8.31485,-7.96834 -25.30221,13.305 -38.72222,27.4095 -85.37759,78.1917 -23.11162,25.15594 -43.08177,39.14308 -54.06441,31.03376 -71.3871,63.86086 -114.88833,135.73832 -168.23998,195.13656 -19.93165,22.19059 -36.54565,49.1019 -41.26906,64.59626 -8.77231,28.77611 -24.60105,61.34097 -38.582961,56.05612 -18.066122,-6.82858 -34.126408,-48.5166 -31.300621,-81.24769 2.97626,-34.47413 14.899906,-51.14248 34.481575,-73.73047 28.866837,-33.29868 59.281237,-63.11229 90.782467,-92.58833 38.30227,-35.83985 117.18069,-108.79635 150.12858,-139.20629 10.92869,-60.3333 14.47395,-119.63972 12.90707,-137.46151 -21.18661,9.76694 -40.54386,23.69725 -63.34417,31.24665 -38.41055,12.71808 -44.58699,23.29232 -45.32968,78.61977 -0.5909,44.01966 -25.78921,74.60179 -42.84672,74.60179 -12.45061,0 -21.42295,-17.42301 -33.76906,-65.57472 -6.8809,-26.83657 -14.32523,-35.71125 -46.119701,-54.98101 -31.89712,-19.33197 -37.54786,-26.09342 -35.605076,-42.60355 1.916249,-16.28464 22.03855,-26.1166 43.264897,-28.11529 20.33408,-1.91467 30.65358,2.43514 50.32023,21.21077 13.60715,12.99066 27.11582,34.21809 30.01926,47.17204 l 5.27899,23.55265 9.01792,-24.82598 c 4.95985,-13.65431 25.95365,-39.88367 46.65288,-58.28749 44.13276,-39.23872 73.34344,-70.62415 84.02711,-85.56028 2.00251,-17.32303 2.84034,-13.42299 2.84034,-35.88336 0,-42.59567 16.94833,-99.107617 36.54153,-121.842816 15.02875,-17.438779 38.78228,-14.559696 55.56582,3.707608 11.13899,12.123751 12.90751,23.806988 9.89061,65.339468 -2.0206,27.81674 -24.92443,108.76015 -32.46856,123.08903 0,15.20497 -0.70201,30.42927 -2.26363,55.11373 l -3.62518,57.30324 c 31.34937,-19.44754 55.87869,-31.6746 87.23409,-33.26478 12.02547,-0.60987 28.97755,3.98638 42.24758,16.40295 26.50959,24.80464 31.40334,46.25119 -39.91198,130.32543 C 442,516.41664 418.27037,549.20173 402.26488,576.14473 389.35322,597.8797 365,640.41664 342.89418,678.36759 c -40.84533,70.12268 -46.73855,95.58553 -38.18358,98.55845 4.2894,1.4906 46.24679,-73.01701 63.4991,-105.16801 7.31032,-13.62335 66.93039,-110.17947 103.63372,-148.19727 28.66172,-29.68819 80.25121,-28.65422 106.814,2.44015 10.7861,12.62619 21.10749,30.25179 22.93641,39.16799 1.82894,8.9162 5.47102,26.28305 8.09353,38.59299 2.62251,12.30994 7.66746,39.16799 11.211,59.68456 6.31927,36.58767 17.95412,84.58816 30.20786,124.62471 4.29474,14.03207 2.37869,27.65768 -6.29138,44.74148 -13.56371,26.72623 -28.52491,25.74943 -40.81484,9.604 z M 101.62263,194.68272 c -27.326567,-53.52255 -13.968875,-80.8264 19.20743,-74.57952 12.94444,2.43737 25.93038,15.96786 42.18845,43.95757 27.35213,47.08916 14.2257,70.5314 -19.39327,68.26404 -20.00006,-1.34886 -26.40185,-7.08603 -42.00261,-37.64209 z"
       id="path57"
       sodipodi:nodetypes="ssssssssssscssssssccssssssssscsscsssscscssssssssssssssssssss" />
  </g>
</svg>
