<?xml version="1.0" encoding="UTF-8" standalone="no"?>
<!-- Created with Inkscape (http://www.inkscape.org/) -->

<svg
   width="1000"
   height="1000"
   viewBox="0 0 1000 1000"
   version="1.1"
   id="svg756"
   inkscape:version="1.1 (c68e22c387, 2021-05-23)"
   sodipodi:docname="u6ce3.svg"
   xmlns:inkscape="http://www.inkscape.org/namespaces/inkscape"
   xmlns:sodipodi="http://sodipodi.sourceforge.net/DTD/sodipodi-0.dtd"
   xmlns="http://www.w3.org/2000/svg"
   xmlns:svg="http://www.w3.org/2000/svg"
   xmlns:rdf="http://www.w3.org/1999/02/22-rdf-syntax-ns#"
   xmlns:cc="http://creativecommons.org/ns#"
   xmlns:dc="http://purl.org/dc/elements/1.1/">
  <defs
     id="defs750" />
  <sodipodi:namedview
     id="base"
     pagecolor="#ffffff"
     bordercolor="#666666"
     borderopacity="1.0"
     inkscape:pageopacity="0.0"
     inkscape:pageshadow="2"
     inkscape:zoom="0.5"
     inkscape:cx="364.23594"
     inkscape:cy="593.70463"
     inkscape:document-units="px"
     inkscape:current-layer="layer1"
     showgrid="true"
     units="px"
     inkscape:window-width="1118"
     inkscape:window-height="864"
     inkscape:window-x="698"
     inkscape:window-y="58"
     inkscape:window-maximized="0"
     showguides="true"
     inkscape:guide-bbox="true"
     inkscape:pagecheckerboard="0">
    <inkscape:grid
       type="xygrid"
       id="grid758" />
    <sodipodi:guide
       position="240,200"
       orientation="0,1"
       id="guide8"
       inkscape:locked="false" />
  </sodipodi:namedview>
  <metadata
     id="metadata753">
    <rdf:RDF>
      <cc:Work
         rdf:about="">
        <dc:format>image/svg+xml</dc:format>
        <dc:type
           rdf:resource="http://purl.org/dc/dcmitype/StillImage" />
        <dc:title />
      </cc:Work>
    </rdf:RDF>
  </metadata>
  <g
     inkscape:label="Layer 1"
     inkscape:groupmode="layer"
     id="layer1"
     transform="translate(0,-32.41664)"
     style="display:inline">
    <path
       style="fill:#000000;stroke-width:18.6537"
       d="M 41.425552,892.98115 C 30,870.41664 54.362541,825.25008 77.507742,793.83996 89.080346,778.1349 106.26389,751.24787 111.27208,725.58821 c 6.67584,-34.20394 9.07884,-44.21392 16.75845,-63.19002 15.92806,-39.35779 44.35438,-44.71139 40.29626,-19.53484 -3.32201,20.60973 -3.1722,43.34467 -4.32679,50.55329 10,-15 32.64235,-42.07382 61.23298,-74.33333 C 279,558.41664 327,567.91664 327.4172,597.36082 327.75449,621.16555 264.52987,669.33047 198.14531,750.83578 75.5,901.41664 61.838403,933.29482 41.425552,892.98115 Z M 360,840.41664 C 299.65556,810.20643 294.10795,768.13894 332.27293,736.76813 340,730.41664 369.39621,714.79141 410.13267,709.73531 457.97668,703.79704 526.47359,598.16303 531,514.41664 c -3.75,-1.875 -18,63 -41.66965,109.29031 -20.8566,40.78889 -55.38613,80.3448 -71.0691,83.82878 -31.36594,6.96797 -64.225,-22.99721 -65.69749,-36.47984 -2.94498,-26.96524 -4.34368,-60.00023 -5.15854,-91.77919 -1.34381,-52.40742 1.43807,-91.82894 4.53984,-120.03024 3.10177,-28.20129 29.59404,-54.96344 40.45917,-53.70891 16.79788,1.93954 44.09611,13.231 34.30584,28.34506 C 416,450.41664 415.63815,470.22005 415.27631,508.02347 414.58576,580.16838 410,616.41664 414.73244,617.78864 c 9.85575,2.85732 24.86764,-42.64803 53.48169,-124.82369 32.0401,-92.0148 76.55813,-124.74446 93.23835,-132.24765 16.68023,-7.50319 47.52265,28.2201 40.21152,109.11119 -6.55293,72.50227 -15.88811,137.3985 -37.24131,187.46921 -21.3532,50.0707 -60.72442,89.31587 -91.34942,102.51602 -26.98789,11.63247 -69.06889,12.15338 -69.06889,20.7132 0,26.24815 134.99171,11.28278 213.4736,-20.33689 40.35463,-16.25852 74.85279,-27.8325 100.64424,-30.46253 25.79145,-2.63003 48.87619,29.68389 35.40396,43.20114 -28.03559,28.12928 -173.44852,75.00508 -256.24114,86.7482 C 447.38309,866.75482 396.0403,858.45943 360,840.41664 Z M 152.17508,440.47518 C 118.50656,387.76029 94.82482,339.38253 96.309,310.01808 97.79319,280.65364 134.44332,250.30248 177.43866,249.64075 192,249.41664 205,235.41664 221.4869,244.51312 c 35.04635,19.33647 -3.2829,59.30782 -17.68421,59.30782 -18.23657,0 -28.41,5.85676 -26.42515,22.36153 1.98486,16.50477 2.128,21.65756 24.52459,56.24963 25.52244,39.42002 32.46496,65.77447 20.82753,79.06343 -11.63743,13.28896 -47.15565,15.61543 -70.55458,-21.02035 z M 473.46487,409.73653 C 460,405.41664 448.37277,382.86136 448.37277,363.40884 448.37277,335.3085 448,319.41664 448,299.41664 c -18.4265,8.32388 -43.91402,18.64344 -68.70251,40.90922 -52.36844,47.03894 -78.08293,30.1139 -77.91064,-5.75455 0.0658,-13.70424 29.52281,-43.26184 65.46049,-70.57245 C 407.5502,233.06698 428,226.41664 448,211.41664 c 1.28875,-22.67827 0.73269,-39.76397 7.15634,-85.63616 5.76169,-41.145062 34.10868,-83.906656 48.32663,-90.136881 21.43517,-9.392764 31.96758,0.362147 22.8256,76.525711 l -9.02524,71.8534 44.56026,-30.80342 c 29.77526,-20.58291 58.91447,-31.83127 64.23629,-25.75421 19.78114,22.58839 -12.71088,91.66244 -61.56185,114.7688 C 544.99072,251.47023 540,259.41664 515,269.41664 c 0,25 0.63568,51.28696 -4.68817,81.97997 -7.56517,43.61466 -20.19921,63.68096 -36.84696,58.33992 z M 215.9869,193.38343 c 0,-17.73837 -21.59138,-31.01442 -56.73244,-34.8835 -59.950422,-6.6006 -73.481255,-55.44408 -21.56215,-66.86176 64.251,-14.12962 135.20686,29.47285 135.20686,80.92867 0,27.19958 -7.89917,47.8498 -39.45614,49.4538 -9.5885,0.48737 -17.45613,-12.88675 -17.45613,-28.63721 z"
       id="path75"
       sodipodi:nodetypes="ssssscssssssscssssssssssssssssssssssssssssssscssscssscssscssssssss" />
  </g>
</svg>
