<?xml version="1.0" encoding="UTF-8" standalone="no"?>
<!-- Created with Inkscape (http://www.inkscape.org/) -->

<svg
   width="1000"
   height="1000"
   viewBox="0 0 1000 1000"
   version="1.1"
   id="svg756"
   inkscape:version="1.1 (c68e22c387, 2021-05-23)"
   sodipodi:docname="u708e.svg"
   xmlns:inkscape="http://www.inkscape.org/namespaces/inkscape"
   xmlns:sodipodi="http://sodipodi.sourceforge.net/DTD/sodipodi-0.dtd"
   xmlns="http://www.w3.org/2000/svg"
   xmlns:svg="http://www.w3.org/2000/svg"
   xmlns:rdf="http://www.w3.org/1999/02/22-rdf-syntax-ns#"
   xmlns:cc="http://creativecommons.org/ns#"
   xmlns:dc="http://purl.org/dc/elements/1.1/">
  <defs
     id="defs750">
    <pattern
       id="EMFhbasepattern"
       patternUnits="userSpaceOnUse"
       width="6"
       height="6"
       x="0"
       y="0" />
  </defs>
  <sodipodi:namedview
     id="base"
     pagecolor="#ffffff"
     bordercolor="#666666"
     borderopacity="1.0"
     inkscape:pageopacity="0.0"
     inkscape:pageshadow="2"
     inkscape:zoom="1.4142136"
     inkscape:cx="327.50475"
     inkscape:cy="176.73784"
     inkscape:document-units="px"
     inkscape:current-layer="layer1"
     showgrid="true"
     units="px"
     inkscape:window-width="1118"
     inkscape:window-height="864"
     inkscape:window-x="572"
     inkscape:window-y="63"
     inkscape:window-maximized="0"
     showguides="true"
     inkscape:guide-bbox="true"
     inkscape:pagecheckerboard="0">
    <inkscape:grid
       type="xygrid"
       id="grid758" />
    <sodipodi:guide
       position="240,200"
       orientation="0,1"
       id="guide8"
       inkscape:locked="false" />
  </sodipodi:namedview>
  <metadata
     id="metadata753">
    <rdf:RDF>
      <cc:Work
         rdf:about="">
        <dc:format>image/svg+xml</dc:format>
        <dc:type
           rdf:resource="http://purl.org/dc/dcmitype/StillImage" />
        <dc:title />
      </cc:Work>
    </rdf:RDF>
  </metadata>
  <g
     inkscape:label="Layer 1"
     inkscape:groupmode="layer"
     id="layer1"
     transform="translate(0,-32.41664)"
     style="display:inline">
    <path
       id="path38"
       style="fill:#000000;stroke-width:14.0591"
       d="m 390.33789,44.279297 c -4.70873,0.07073 -9.58632,0.418924 -14.36962,0.644148 -1.53929,0.06449 -3.0414,0.101998 -4.50538,0.187883 -2.17115,0.132201 -4.38452,0.365296 -6.44531,0.679688 -9.89939,1.510803 -19.69403,5.212432 -27.297,11.871316 -2.66546,2.261282 -4.9168,5.030101 -6.37161,8.22151 -1.74012,3.638133 -2.89389,7.592402 -3.08725,11.633736 7.62769,-0.732584 15.62803,1.378144 21.526,6.367273 2.74634,2.288432 4.99605,5.141997 6.71814,8.267493 4.27427,-2.788366 9.32754,-4.635001 14.48783,-4.344042 6.91945,0.258948 13.63703,3.890806 17.54192,9.627625 2.72073,3.803933 3.84795,8.453103 4.43433,13.022633 0.96816,6.999 1.11661,14.08699 0.97147,21.143 -0.29968,11.07224 -1.61911,22.09084 -3.27159,33.03431 -2.5072,15.99679 -6.0166,31.86952 -11.13334,47.2436 -3.93781,8.86894 -6.93276,18.10953 -10.36302,27.17696 -0.94128,2.36225 -1.81874,4.77164 -3.04449,7.00222 -0.91698,1.62266 -2.5451,2.81004 -4.3404,3.27105 -1.6947,0.48122 -3.47471,0.14736 -5.08927,-0.46661 -10.07121,-3.37915 -20.26414,-6.37598 -30.41941,-9.48576 -5.66959,-1.7775 -11.13128,-4.18575 -16.9013,-5.64795 -9.57193,-2.6178 -19.34121,-4.47121 -29.16375,-5.85438 -1.1258,-0.1378 -2.49981,-0.32713 -3.72533,-0.47491 -6.09641,-0.76627 -12.2381,-1.14259 -18.38135,-1.16872 -13.54938,-0.51979 -26.7369,-4.68153 -38.84682,-10.62107 -13.02929,-6.42262 -24.95817,-15.14677 -34.77678,-25.87147 -7.41678,-7.48205 -16.82935,-12.69082 -26.61252,-16.41042 -3.71823,-1.38772 -7.51851,-2.55384 -11.37399,-3.49443 -1.45459,-0.34677 -3.13278,-0.7196 -4.68897,-1.01364 -9.44316,-1.76562 -19.23232,-2.21959 -28.71143,-0.46046 -4.48569,0.88018 -8.99632,2.26598 -12.76532,4.92697 -1.817361,1.40285 -3.653517,3.18944 -4.078217,5.5391 -0.460025,3.74521 0.748123,11.44998 2.091475,14.89583 3.852782,9.21106 7.995852,17.25126 14.655642,24.60592 9.66529,10.502 20.76927,19.62532 32.61724,27.5571 10.63917,7.08998 21.91262,13.23542 33.65196,18.30073 4.39976,1.91277 8.95858,3.41621 13.53694,4.8334 8.25674,2.66531 16.43678,5.7046 25.0009,7.25928 5.64972,1.09935 11.49475,1.82516 17.15462,2.25304 12.29461,0.94725 24.61181,0.67032 36.96445,0.77626 5.03293,0.0106 10.06706,0.0152 15.09805,-0.14345 2.4174,-0.0908 5.02456,-0.19322 7.48605,-0.60155 3.97837,-0.75203 7.98504,-1.33028 12.00121,-1.83956 4.42274,-0.61078 8.84829,-1.21149 13.24712,-1.97881 0.70903,-0.13213 1.71954,-0.31857 2.54635,-0.48204 5.66728,-1.09087 13.4113,-6.06647 19.20072,-5.97883 3.3574,0.16929 6.30845,3.01423 6.60449,6.36321 0.26682,2.00285 -0.52486,3.95655 -1.65848,5.57013 -5.28922,8.42909 -11.10194,16.51402 -16.83772,24.64122 -3.95972,5.31246 -7.76101,10.77256 -12.34063,15.5836 -5.78041,6.12136 -11.83452,11.97807 -17.89975,17.81492 -16.50766,15.72703 -33.6771,30.74681 -51.15673,45.38143 -19.35832,16.1374 -39.24261,31.66306 -59.87516,46.14345 -10.2879,7.22903 -20.91718,13.98217 -31.9598,20.0016 -16.08571,8.84648 -32.85402,16.50657 -50.13854,22.66704 -2.50393,0.87877 -4.90758,2.00695 -7.204065,3.33459 -2.309523,1.19813 -4.568423,2.52057 -6.983814,3.49484 -1.695153,0.51346 -3.470655,0.23281 -5.138897,-0.24197 -5.441659,-1.23882 -10.757299,-2.99698 -16.237052,-4.06827 -3.402865,-0.64918 -6.939823,-0.81307 -10.362333,-0.36164 -0.943882,0.84122 -1.929059,1.67731 -2.808593,2.56836 -0.911209,1.59174 -1.001163,3.48463 -1.353609,5.24973 -0.364471,2.31368 -0.521297,4.69243 -0.582492,6.95022 -0.08651,4.67746 0.07968,9.2609 0.340397,13.92505 0.37092,5.94911 0.825548,12.0887 1.847566,18.03949 1.125916,6.50415 2.841197,12.89316 4.822356,19.18512 0.571099,1.76672 1.221089,3.72274 1.864543,5.54909 3.551961,10.0916 7.8958,19.8891 12.684285,29.45091 1.136262,2.23574 2.362613,4.62874 3.58501,6.8981 4.843516,9.05018 10.209444,17.99318 15.904326,26.60805 1.862942,2.8083 3.863222,5.75126 5.852552,8.56282 9.41665,13.36045 19.88911,26.23131 31.3719,37.97828 7.78667,7.98699 16.15585,15.40777 25.06518,22.12046 5.44762,4.1713 10.79785,8.58575 15.07845,13.98854 5.08598,4.33069 11.08359,7.37306 16.53125,11.19141 2.66912,2.09294 3.43104,6.16011 1.69979,9.0772 -1.03905,1.71497 -2.68781,2.93715 -3.98023,4.4495 -4.98162,5.28664 -9.69509,10.81977 -14.27875,16.45165 -6.7972,7.97888 -14.68667,14.92454 -22.53233,21.8408 -12.2148,10.59156 -25.02301,20.4672 -37.64432,30.56265 -13.823509,10.96402 -27.657227,21.93731 -40.791421,33.72899 -9.397128,8.3842 -18.550935,17.06228 -27.01961,26.39116 -2.644104,2.93987 -5.331225,6.10178 -7.747648,9.32598 -1.573673,2.11144 -3.143709,4.24119 -4.381258,6.57246 2.782469,2.73443 6.612188,3.96745 10.349337,4.72303 7.80141,1.48957 15.831694,1.10236 23.666389,0.0838 5.598135,-0.73567 11.251648,-1.88699 16.660055,-3.22677 7.887876,-1.95993 15.672626,-4.44211 23.224856,-7.2202 8.2905,-3.06397 16.53184,-6.55951 24.48022,-10.26809 22.28735,-10.45604 43.65707,-23.11182 63.95824,-37.11332 16.83826,-11.64234 33.0068,-24.29813 48.36651,-37.87336 12.63745,-11.19846 25.21478,-22.46069 37.83394,-33.68089 7.60116,-6.75113 15.16765,-13.55559 22.80568,-20.25612 1.62745,-1.35454 3.28479,-2.67744 4.80321,-4.15638 0.28861,-0.27291 0.82016,-0.84773 1.24645,-1.18932 1.92915,-1.78107 4.86657,-2.30182 7.30824,-1.35756 1.86181,0.81591 3.43877,2.15594 5.12055,3.2824 3.87725,2.74599 7.52409,5.79807 11.30658,8.67089 13.63818,10.5843 27.22103,21.24083 40.93395,31.72802 6.5394,4.81112 13.42865,9.28711 20.44393,13.50315 17.50508,10.44841 36.05534,19.38906 54.91886,27.25631 25.36971,10.54897 51.48273,19.30433 78.05769,26.27519 20.10833,5.27493 40.54068,9.41149 61.18731,12.15531 10.18806,1.35237 20.41254,2.32275 30.74822,2.81275 9.93016,0.45339 19.9911,0.44337 29.9464,-0.49217 6.82213,-0.6788 13.66746,-1.7501 20.15655,-4.02697 4.07291,-1.49297 8.18363,-3.3932 11.18582,-6.6141 1.61589,-1.84232 2.51832,-4.45683 1.7607,-6.86598 -1.19929,-4.41568 -4.36233,-7.99315 -7.79685,-10.87529 -7.05273,-5.80568 -15.84192,-9.18112 -24.76849,-10.7783 -4.61844,-0.83851 -9.31852,-1.10123 -14.00611,-1.07331 -15.25207,-0.30112 -30.28702,-3.42583 -44.98026,-7.33278 -18.97005,-5.11234 -37.41693,-11.98291 -55.54965,-19.50714 -22.56664,-9.45453 -44.60765,-20.19619 -65.80509,-32.42362 -13.78912,-8.01031 -27.22137,-16.69388 -39.78105,-26.53456 -9.09275,-7.13209 -17.54759,-15.06882 -25.24895,-23.68436 -5.95885,-6.60772 -11.85164,-13.28586 -18.21507,-19.51274 -6.13479,-6.15308 -12.30795,-12.27138 -18.41878,-18.4462 -1.78919,-1.90421 -2.37574,-4.81774 -1.46189,-7.2655 0.76199,-2.2235 2.78003,-3.61999 4.28861,-5.3171 5.93848,-6.17047 11.80928,-12.4631 16.77918,-19.45615 4.51916,-6.31813 7.15067,-14.06053 6.91762,-21.8617 -0.0104,-0.73562 -0.0519,-1.42106 -0.0844,-2.02829 -0.19919,-3.09718 -0.74313,-6.16691 -1.54357,-9.16393 -0.14499,-0.53062 -0.3822,-1.37233 -0.58803,-2.02065 -3.39776,-10.754 -9.91044,-20.38528 -18.05913,-28.11829 -1.38033,-1.3053 -2.86108,-2.59138 -4.26698,-3.71667 -9.32144,-7.48373 -20.64351,-12.79059 -32.62691,-13.91253 -3.94452,-0.35298 -7.91692,-0.21964 -11.86519,5.6e-4 -2.919,0.27035 -5.86313,0.69631 -8.63513,1.67892 -2.15533,0.81968 -4.00727,2.36563 -5.1483,4.37573 -2.24014,3.54965 -3.84417,7.49196 -4.71443,11.59921 -0.88267,3.94621 -1.72432,7.90003 -2.64948,11.8367 -0.76434,3.58326 -1.48555,7.25916 -2.80196,10.72991 -2.27629,6.33437 -5.50826,12.26822 -7.89496,18.5589 -2.69524,6.73925 -5.55813,13.4375 -9.24289,19.70586 -3.19869,5.47426 -6.52225,10.89798 -10.46033,15.87941 -7.31187,9.40148 -15.35625,18.21078 -23.66346,26.73692 -1.42,1.39934 -2.74234,3.06465 -4.71289,3.68555 -1.69748,0.56251 -3.60682,0.50676 -5.23124,-0.26246 -1.6871,-0.75242 -2.93798,-2.19742 -4.41825,-3.27294 -9.29534,-7.28226 -19.06936,-13.92209 -28.54282,-20.9658 -6.82855,-5.08524 -13.66973,-10.26908 -19.40514,-16.60462 -8.18877,-8.6976 -16.55222,-17.27579 -23.87447,-26.73359 -4.48871,-6.17972 -7.73478,-13.14521 -10.8257,-20.09803 -1.19584,-2.64886 -2.24175,-5.36492 -3.48518,-7.99035 -0.60832,-1.15634 -1.25869,-2.29616 -1.88318,-3.33917 -3.58166,-6.09355 -7.84876,-11.80817 -10.67907,-18.32954 -0.79006,-1.7348 -1.42655,-3.68021 -0.94955,-5.59024 0.17409,-1.04313 0.64274,-2.03626 1.28874,-2.87185 -0.33117,-0.15028 -1.92854,-0.19805 -1.08149,-0.44372 1.25405,-0.46903 2.51402,-0.89637 3.61469,-1.67347 0.84828,-0.42477 1.7883,-0.63637 2.72479,-0.73934 2.90807,-0.83631 5.46683,-2.52215 8.10145,-3.959 6.43908,-3.73242 12.8614,-7.53291 19.67259,-10.55875 10.64811,-5.30744 21.54467,-10.27118 31.37144,-17.04575 13.92249,-9.16913 29.0568,-16.24865 43.66684,-24.21669 1.27924,-0.7178 2.80035,-1.54613 4.09002,-2.27495 7.29615,-4.07186 14.20557,-8.77936 21.20709,-13.32727 15.05904,-9.87066 29.81362,-20.21413 44.06563,-31.22173 4.78167,-3.6555 9.47297,-7.42945 14.21384,-11.13553 4.90295,-3.23901 9.69032,-6.70045 14.67249,-9.86616 1.55196,-0.98183 3.39489,-1.59111 5.24347,-1.33468 1.64512,0.18404 3.17156,1.00069 4.33949,2.16422 2.92088,2.31438 6.06885,4.34528 9.3959,6.02594 22.62281,12.16991 45.76916,23.32583 68.86374,34.56099 18.56227,9.04253 37.02525,18.29789 55.16534,28.16453 4.81029,2.39368 9.85804,4.27036 14.87846,6.16939 7.05447,2.56728 14.17695,4.99153 21.45951,6.83184 2.09936,0.52104 4.22842,0.93888 6.37959,1.15182 3.3302,0.56608 5.92877,3.77165 5.79962,7.14625 0.007,2.08032 -1.04305,4.02183 -2.54032,5.41865 -3.7129,4.42649 -6.76171,9.35988 -9.77706,14.27453 -2.64683,4.4431 -5.45484,8.81121 -7.5563,13.55074 -2.81369,6.16452 -4.7511,12.7443 -6.87979,19.11243 -1.91479,6.02932 -3.32101,12.20335 -4.89569,18.32642 -2.52645,10.53478 -3.88893,21.57309 -2.03024,32.33353 1.39491,7.92638 5.10723,15.68738 11.38739,20.88259 5.25638,4.32314 11.95174,6.54095 18.65623,7.23183 3.25425,0.35857 6.5346,0.40449 9.80495,0.32243 1.36796,-0.0377 2.97017,-0.11751 4.42811,-0.19237 7.92178,-0.4723 15.90539,-1.65775 23.32101,-4.58801 5.46144,-2.14107 10.68417,-5.48996 13.89759,-10.5124 3.12205,-4.78442 3.67785,-10.77024 3.03562,-16.32623 -0.83788,-7.25746 -3.43858,-14.19076 -6.68428,-20.69349 -0.32747,-0.64317 -0.79315,-1.56422 -1.19409,-2.30438 -4.4949,-8.59841 -10.5229,-16.23993 -16.16192,-24.09308 -3.55616,-4.99631 -7.04797,-10.10704 -9.53805,-15.73315 -1.29466,-3.38556 -2.02944,-6.95185 -2.90411,-10.46091 -1.2958,-5.8731 -2.64154,-11.75052 -3.40902,-17.72112 -0.22542,-2.42824 -0.67537,-5.08456 0.59893,-7.30812 1.13681,-2.25386 3.5832,-3.72422 6.09458,-3.79135 9.17247,-0.0147 18.26809,1.41274 27.4234,1.79965 1.8689,0.0843 3.98468,0.15944 5.95275,0.17562 8.10215,0.0882 16.17335,0.89398 24.26057,1.31965 1.20005,0.055 2.65452,0.10056 3.95313,0.12696 5.26444,0.0812 10.52067,-0.3618 15.74698,-0.94846 2.80484,-0.3525 5.63862,-0.71003 8.32724,-1.6199 0.79834,-3.01054 0.78898,-6.21379 0.90141,-9.25078 0.0705,-5.68688 -2.02262,-11.47645 -6.16359,-15.45045 -2.88056,-2.83643 -6.59585,-4.74213 -10.52591,-5.63292 -10.7548,-2.99273 -21.17158,-7.05585 -31.546,-11.14694 -20.87233,-8.34355 -41.41088,-17.50403 -61.75044,-27.06616 -11.56348,-5.49195 -23.10805,-11.03413 -34.87153,-16.08964 -13.4501,-5.83398 -27.03626,-11.39418 -40.93555,-16.07481 -3.18229,-1.08776 -6.43298,-1.95635 -9.67265,-2.84619 -6.35213,-2.30152 -12.51827,-5.09397 -18.60735,-8.01485 -4.68754,-2.22673 -9.39439,-4.41583 -14.00951,-6.79199 -5.81016,-2.99238 -11.61996,-6.00968 -17.21917,-9.38085 -1.53282,-0.99753 -2.62746,-2.60283 -3.03917,-4.38138 -0.40798,-1.8528 -0.077,-3.88076 0.98887,-5.46385 2.15554,-3.02928 4.447,-5.96791 6.61561,-8.99125 2.77482,-3.8095 5.51339,-7.64937 8.04396,-11.62693 0.3839,-0.62011 0.93849,-1.49459 1.36705,-2.2289 2.27751,-3.72952 4.0964,-7.70967 6.1554,-11.55707 2.86663,-5.14794 5.7828,-10.27719 8.292,-15.61247 0.75663,-1.64355 1.56711,-3.49558 2.31635,-5.23175 3.65572,-8.24629 7.26175,-16.52447 10.29694,-25.0241 1.99576,-5.82063 4.27328,-11.53682 6.60326,-17.23065 2.64147,-6.58004 5.35598,-13.21596 6.51588,-20.24982 1.24661,-6.14159 4.40736,-11.70678 5.52506,-17.88111 2.41024,-11.97496 5.6432,-23.69286 7.304,-35.81407 0.26197,-1.96925 0.475,-3.91205 0.69343,-5.93834 1.24027,-11.69832 1.93193,-23.44493 2.80653,-35.17372 0.20907,-6.88683 -0.76501,-13.7352 -1.54951,-20.56038 -0.41267,-3.06688 -0.67251,-6.17467 -1.14627,-9.23999 -1.1741,-5.54035 -3.17644,-10.85797 -4.92138,-16.234081 -1.41345,-4.034753 -2.40009,-8.252544 -4.61008,-11.960248 -2.35149,-4.063316 -5.22883,-7.807378 -7.3775,-11.992713 -2.54372,-4.717896 -6.02644,-8.887414 -9.90133,-12.568906 -4.34243,-3.938759 -9.40069,-6.988779 -14.50899,-9.821611 -5.26443,-2.929227 -10.8518,-5.268666 -16.62256,-6.996475 -1.46104,-0.441254 -3.1393,-0.906235 -4.70952,-1.275357 -3.53644,-0.999676 -7.21606,-1.093722 -10.86665,-1.043002 z m 282.02539,92.023433 c -3.10738,0.10098 -6.23311,0.35066 -9.25309,0.6845 -4.64791,0.57861 -9.31521,1.15558 -13.87745,2.23363 -5.73424,1.76887 -10.7371,5.26109 -15.41955,8.91858 -7.46215,5.97987 -13.91884,13.11107 -19.79366,20.63009 -1.54836,1.98196 -3.15518,4.14928 -4.66393,6.24851 -7.05502,9.84285 -13.35885,20.4539 -18.79595,31.36266 -1.28857,2.57767 -2.5138,5.17573 -3.67041,7.74818 -1.61917,3.58425 -3.13254,7.21584 -4.55916,10.88089 -0.52753,1.37153 -1.12952,2.96148 -1.64654,4.43047 -2.04872,5.70145 -3.87796,11.65654 -5.24984,17.62453 -0.47381,2.07733 -0.96076,4.50707 -1.30284,6.54851 -0.92131,5.7099 -1.44946,11.5912 -0.44688,17.3262 0.37551,1.7999 0.78162,3.70745 1.94102,5.18161 3.64193,2.53499 7.75264,6.31602 11.89648,7.85157 3.56581,1.32135 11.22036,2.49038 14.98459,3.09246 0.81693,0.17684 1.52322,-0.4829 2.26541,-0.73895 1.22298,-0.60844 2.44656,-1.3273 3.50444,-2.01088 6.95897,-4.59704 13.20163,-8.17264 19.31002,-13.82506 5.98013,-5.60655 11.67365,-11.47523 17.28477,-17.48739 7.42011,-8.0148 14.63247,-16.32299 21.50624,-24.86026 1.02033,-1.29185 2.11445,-2.63661 3.13549,-3.95267 4.09125,-5.20622 8.06051,-10.53355 11.85475,-15.89889 5.02508,-7.28407 10.03859,-14.65152 13.74879,-22.71248 -0.36571,-0.55884 -1.02803,-1.06652 -1.47134,-1.63628 -5.11774,-5.71067 -12.19088,-17.19155 -12.56814,-24.85114 -0.45584,-7.40374 1.44019,-14.85818 5.01177,-21.32999 0.2075,-0.48422 -0.86858,-0.34723 -1.19549,-0.55018 -4.10431,-0.90585 -8.34311,-1.01094 -12.5295,-0.90822 z"
       sodipodi:nodetypes="sccccccccccccccccccccccccccccccccccccccccccccccccccccccccccccccccccccccccccccccccccccccccccccccccccccccccccccccccccccccccccccccccccccccccccccccccccccccccccccccccccccccccccccccccccccccccccccccccccccccccccccccccccccccccccccccccccccccccssccccccccccccccscccccccccccccc" />
  </g>
</svg>
