<?xml version="1.0" encoding="UTF-8" standalone="no"?>
<!-- Created with Inkscape (http://www.inkscape.org/) -->

<svg
   width="1000"
   height="1000"
   viewBox="0 0 1000 1000"
   version="1.1"
   id="svg756"
   inkscape:version="1.1 (c68e22c387, 2021-05-23)"
   sodipodi:docname="u732b.svg"
   xmlns:inkscape="http://www.inkscape.org/namespaces/inkscape"
   xmlns:sodipodi="http://sodipodi.sourceforge.net/DTD/sodipodi-0.dtd"
   xmlns="http://www.w3.org/2000/svg"
   xmlns:svg="http://www.w3.org/2000/svg"
   xmlns:rdf="http://www.w3.org/1999/02/22-rdf-syntax-ns#"
   xmlns:cc="http://creativecommons.org/ns#"
   xmlns:dc="http://purl.org/dc/elements/1.1/">
  <defs
     id="defs750" />
  <sodipodi:namedview
     id="base"
     pagecolor="#ffffff"
     bordercolor="#666666"
     borderopacity="1.0"
     inkscape:pageopacity="0.0"
     inkscape:pageshadow="2"
     inkscape:zoom="0.5"
     inkscape:cx="759"
     inkscape:cy="568"
     inkscape:document-units="px"
     inkscape:current-layer="layer1"
     showgrid="true"
     units="px"
     inkscape:window-width="1118"
     inkscape:window-height="864"
     inkscape:window-x="542"
     inkscape:window-y="54"
     inkscape:window-maximized="0"
     showguides="true"
     inkscape:guide-bbox="true"
     inkscape:pagecheckerboard="0">
    <inkscape:grid
       type="xygrid"
       id="grid758" />
    <sodipodi:guide
       position="240,200"
       orientation="0,1"
       id="guide8"
       inkscape:locked="false" />
  </sodipodi:namedview>
  <metadata
     id="metadata753">
    <rdf:RDF>
      <cc:Work
         rdf:about="">
        <dc:format>image/svg+xml</dc:format>
        <dc:type
           rdf:resource="http://purl.org/dc/dcmitype/StillImage" />
        <dc:title />
      </cc:Work>
    </rdf:RDF>
  </metadata>
  <g
     inkscape:label="Layer 1"
     inkscape:groupmode="layer"
     id="layer1"
     transform="translate(0,-32.41664)"
     style="display:inline">
    <path
       style="fill:#000000;stroke-width:8.48293"
       d="m 175.82333,836.20047 c -13.76105,-10.70636 -20.11731,-23.10037 -13.54379,-31.89838 4.80065,-6.42523 11.85429,-15.61236 20.56363,-13.08252 12.64675,3.67358 19.10975,-3.6231 32.09839,-36.23882 19.33764,-48.55872 24.35133,-82.17933 27.72407,-125.09218 C 243.41356,620.37239 245,586.41664 245,579.41664 c -15.87991,21.44072 -13.71342,19.29962 -23.51009,34.16979 -36.35378,55.1807 -76.93884,140.88506 -87.80639,185.42261 -5.9192,24.25825 -12.54521,33.52669 -23.96819,33.52669 -15.643473,0 -27.731485,-26.6845 -24.178051,-70.11292 C 88.55701,725.51708 142.06491,601.2311 190.52026,528.89787 217.80643,488.16559 224,481.41664 239,461.41664 c -3.54432,-23.68812 -4,-29 -14.3763,-78.36727 C 219.12175,356.87275 217,353.41664 213,345.41664 203.27057,358.90325 111.85754,481.02818 95.204018,515.22035 79.424334,547.6184 56.380364,549.58174 46.471734,527.35896 30,490.41664 33.528459,473.84482 85.000323,401.97847 114.3781,360.96045 142.81018,319.69251 154.01178,301.04459 164,284.41664 169,277.41664 173,270.41664 c -3.81371,-5.74999 -6.6742,-10.6672 -13.28367,-18.77964 -7.64102,-9.37856 -23.75384,-17.05193 -35.80624,-17.05193 -30.69248,0 -35.968886,-31.67191 -17.19101,-49.75228 C 130,162.41664 150.9112,156.11347 190.68758,178.69268 201.7449,184.96941 210,195.41664 216,200.41664 c 2.88331,-5.15968 6.81,-13.34888 14.51035,-33.30311 8.53979,-22.12949 19.9253,-57.4776 25.30114,-78.551358 5.37584,-21.073747 13.97182,-43.492737 19.10218,-49.819979 11.5476,-14.241581 46.19609,6.413367 52.17965,27.35435 C 332.15051,83.795426 304.27061,180.90616 280.58046,232.80868 273,249.41664 268,260.41664 264,268.41664 c 2,4 3.601,8.92138 9.78781,22.51122 7.15899,15.72531 13.25079,34.97491 20.2596,63.24909 9.51624,38.3894 10.12094,44.3218 10.95259,51.23969 23,-15 37.00726,9.12091 42.67182,16.70239 8.55898,11.45539 9.14687,20.52054 -6.35727,43.81409 C 334.10647,476.76259 325,484.41664 319,493.41664 c -1,17 -1.9555,40.93089 -2.97142,65.0986 -2.74898,65.39449 -4.11207,127.18623 -17.6223,176.39061 -13.51024,49.20438 -29.16763,83.82138 -48.50521,98.86639 -23.42803,18.22746 -51.12181,20.28839 -74.07774,2.42825 z M 466.95436,812.57723 C 458,805.29164 450,796.41664 445,792.41664 c 0,5 -0.32322,9.81288 -1.92523,22.3424 -3.07835,24.07614 -48.78057,28.90901 -56.10911,7.69552 -2.67644,-7.74736 -7.27728,-90.26658 -10.22407,-168.70937 -3.02863,-80.62143 -3.96387,-133.14475 1.82674,-155.27019 2.8953,-11.06272 17.47207,-17.02598 24.30937,-20.1023 6.83729,-3.07632 27.1223,-2.95606 37.1223,12.04394 10,-5 38.61669,-18.09265 61.18802,-23.54686 50.79365,-12.27395 119.17011,-5.65987 166.57837,20.26122 32.92406,18.00166 77.82456,63.06433 92.46017,101.3282 14.63561,38.26387 23.00632,81.72893 14.87083,128.5354 -5.46152,31.4221 -15.05304,56.76922 -41.2784,89.1694 -11.93966,14.75088 -41.66801,33.62935 -58.81899,41.75264 -20.99195,9.9425 -41.45419,12.23656 -64.68129,12.10484 -30.92367,0.67539 -55.33624,-2.93095 -77.73215,-11.33349 -22.39591,-8.40255 -42.77516,-17.60131 -65.6322,-36.11076 z m 190.83219,-24.01734 c 17.14701,-13.04485 33.37621,-32.87858 43.61983,-60.50975 10.24362,-27.63117 9.57907,-56.19082 6.17084,-74.0806 -6.39294,-33.55649 -19.61593,-61.55643 -41.19943,-83.87193 C 638.21091,540.97546 632,537.41664 589,532.41664 c 2,16 3,20 4,38 12,2 16.11105,2.07733 31.41058,9.36198 32.84336,15.63788 43.61626,43.97977 46.25156,55.7742 C 673.29745,647.34725 655,670.41664 626.08817,654.0422 609.32393,644.54764 604,641.41664 595,642.41664 c 0,6 -1,33.18198 -3.24472,75.46823 C 589.72104,756.20604 583,789.41664 583,799.41664 c 25,5 50,8 74.78655,-10.85675 z M 526.56419,724.72269 C 528,690.41664 526.31053,672.16611 526,666.41664 c -5,4 -21,15 -34.15314,24.74154 -13.24682,9.81093 -38.31399,19.34121 -45.84686,24.25846 v 10 c 13.15269,16.22586 67.48342,51.48676 80,57 1,-5 -0.86302,-23.59326 0.56419,-57.69395 z M 484.67815,608.7423 C 501.67399,596.00128 510,588.41664 520,582.41664 c -1,-8 -0.58336,-8.55087 -2.80692,-20.90026 -2.69182,-14.95006 -6.29936,-20.47128 -7.19308,-25.09974 -35,5 -53.54449,25.45428 -61.68541,42.3508 -8.15992,16.93598 -5.31459,46.6492 -4.66651,58.01882 C 447,634.41664 464.10311,624.16648 484.67815,608.7423 Z M 607.43687,323.24487 C 609.05088,287.58802 611,269.41664 612.27891,230.27432 600,232.41664 595.1139,233.43721 586.5314,235.01865 553.7852,241.05259 536.01186,245.3222 526,246.41664 c 1,9 1.52513,3.87348 4.08932,31.61233 2.49533,26.99401 7.68995,68.27994 14.06394,85.22498 12.61425,33.53452 2.36176,44.836 -23.71846,35.64151 -21.625,-7.62384 -50.70339,-21.998 -60.34307,-88.48573 -4.4806,-30.9041 -5.09173,-28.99309 -8.85217,-49.29679 -14.23956,5.3037 -13.72368,6.61255 -48.17766,21.93689 -70.48419,31.34975 -94.6238,14.08332 -98.35136,-15.01123 -3.02005,-23.57216 26.89035,-45.38403 99.09695,-67.63926 C 419.90513,195.43779 427,191.41664 442,186.41664 c -2.1004,-16.09805 -4.66425,-31.73173 -3.04658,-48.14662 5.71448,-57.986227 28.97571,-71.672624 49.36667,-71.672624 21.56737,0 31.35375,15.18592 28.95052,65.480874 -0.70204,14.69234 0.56489,26.59973 1.72939,43.33837 14,-1 25.19487,-4.35332 41.71006,-5.89929 36.37846,-3.40536 44.22476,-3.71406 55.28994,-5.10071 5,-30 31.80661,-34.65988 38.04895,-34.04435 6.24234,0.61552 28.15453,4.96257 33.86071,18.87364 3.79606,9.2544 2.42553,22.81053 1.0565,41.78596 -1.36903,18.97543 -6.78205,52.00018 -13.07665,94.4439 -8.88951,59.94085 -14.56368,94.20602 -19.16028,117.39319 -4.29835,21.68266 -36.01386,25.34646 -42.65759,25.34646 -3.5058,0 -9.56012,-4.95652 -10.29017,-21.8061 -0.73005,-16.84958 1.86416,-43.59223 3.6554,-83.16447 z"
       id="path111"
       sodipodi:nodetypes="ssssscssssscscsssscsssscssssscsscsscsssssccssssscsssssscscssssccssscscsscscccsscscscsscscsssscssscssscscssssssss" />
  </g>
</svg>
