<?xml version="1.0" encoding="UTF-8" standalone="no"?>
<!-- Created with Inkscape (http://www.inkscape.org/) -->

<svg
   width="1000"
   height="1000"
   viewBox="0 0 1000 1000"
   version="1.1"
   id="svg756"
   inkscape:version="1.1 (c68e22c387, 2021-05-23)"
   sodipodi:docname="u7528.svg"
   xmlns:inkscape="http://www.inkscape.org/namespaces/inkscape"
   xmlns:sodipodi="http://sodipodi.sourceforge.net/DTD/sodipodi-0.dtd"
   xmlns="http://www.w3.org/2000/svg"
   xmlns:svg="http://www.w3.org/2000/svg"
   xmlns:rdf="http://www.w3.org/1999/02/22-rdf-syntax-ns#"
   xmlns:cc="http://creativecommons.org/ns#"
   xmlns:dc="http://purl.org/dc/elements/1.1/">
  <defs
     id="defs750" />
  <sodipodi:namedview
     id="base"
     pagecolor="#ffffff"
     bordercolor="#666666"
     borderopacity="1.0"
     inkscape:pageopacity="0.0"
     inkscape:pageshadow="2"
     inkscape:zoom="0.5"
     inkscape:cx="914.42768"
     inkscape:cy="667.53802"
     inkscape:document-units="px"
     inkscape:current-layer="layer1"
     showgrid="true"
     units="px"
     inkscape:window-width="1118"
     inkscape:window-height="864"
     inkscape:window-x="689"
     inkscape:window-y="86"
     inkscape:window-maximized="0"
     showguides="true"
     inkscape:guide-bbox="true"
     inkscape:pagecheckerboard="0">
    <inkscape:grid
       type="xygrid"
       id="grid758" />
    <sodipodi:guide
       position="240,200"
       orientation="0,1"
       id="guide8"
       inkscape:locked="false" />
  </sodipodi:namedview>
  <metadata
     id="metadata753">
    <rdf:RDF>
      <cc:Work
         rdf:about="">
        <dc:format>image/svg+xml</dc:format>
        <dc:type
           rdf:resource="http://purl.org/dc/dcmitype/StillImage" />
        <dc:title />
      </cc:Work>
    </rdf:RDF>
  </metadata>
  <g
     inkscape:label="Layer 1"
     inkscape:groupmode="layer"
     id="layer1"
     transform="translate(0,-32.41664)"
     style="display:inline">
    <path
       style="fill:#000000;stroke-width:15.4437"
       d="m 188.86074,877.17109 c -4.99054,-7.86124 7.159,-62.29484 24.55452,-123.408 C 234.71649,678.92854 240,645.41664 245,620.41664 c -15,3 -24,6 -58.65217,12.45722 -34.30218,6.392 -33.98347,5.14834 -54.34783,10.54278 -5,25 -11.42513,42.38365 -11.58641,76.38272 -0.26197,55.22563 -39.9224,97.47442 -63.746902,97.47442 -23.446288,0 -27.303388,-67.05111 6.571262,-191.0647 C 81.76871,558.36879 95.41295,475.82428 98,445.41664 85.412945,445.82428 84.32523,446.64987 68.69565,440.81091 35.046765,428.24022 45.728675,397.64865 86.23681,380.0516 99.80216,374.1587 100,375.41664 115,370.41664 c 5,-20 11.96658,-53.96064 18.10638,-88.34673 8.71757,-48.82293 20.65449,-125.59651 31.41536,-129.05239 C 175.28261,149.56165 227,141.41664 217,176.41664 c 15,-20 9.76742,-18.74863 55.95459,-63.71393 76.77035,-74.739373 160.27118,-92.68008 206.15658,-75.538017 48.73588,18.206955 84.69298,170.879247 98.84864,316.927327 14.15566,146.04809 6.50988,309.47197 -31.96002,397.18211 -25.18273,57.41581 -71.89212,104.47584 -97.73004,104.47584 -30.81756,0 -57.68441,-41.08005 -22.5857,-70.33747 34.50939,-28.76617 76.41715,-105.32506 86.20442,-198.86387 9.78726,-93.5388 5.45404,-206.05753 -16.51855,-310.7434 -15.25839,-72.69687 -38.54126,-142.68918 -51.7397,-155.53846 -21.56145,-20.99105 -29.28306,-20.35688 -76.07456,6.24788 -28.64257,16.28561 -39.37305,37.79729 -38.51218,47.80372 0.86087,10.00643 2.62174,44.33871 3.91304,76.29394 0,0 0.0435,50.80433 0.34783,68.10045 20.69565,-3.29612 64.34782,-10.95756 64.34782,-10.95756 55.69124,-6.70978 71.75974,4.85103 74.34783,21.89954 3,19.7619 -6.30877,47.67814 -18.08716,50.48824 C 436,384.41664 429.05131,372.11872 403.50258,373.39436 363,375.41664 347.65829,381.36617 331,384.41664 c -1,18 1.6625,15.45179 -2.47509,71.90565 C 325,504.41664 322.05726,522.74909 322,530.41664 c 11.91628,-4.71477 43.17391,-22.06697 56.08696,-27.15412 23.12724,-9.11107 33.66557,25.33413 28.66614,40.8832 -4.99944,15.54906 -25.53662,28.20199 -48.56039,39.50639 C 330.63135,597.18441 333,598.41664 316,605.41664 c -3.51353,12.57724 -15.62751,72.80952 -30.45998,135.66667 -14.83249,62.85714 -29.26273,122.85714 -32.06719,133.33333 -6.00081,22.41618 -51.66369,23.15116 -64.61209,2.75445 z M 255,549.41664 c 5,-50 8,-107 8.70602,-156.04762 C 233,399.41664 205,409.41664 180,419.41664 c -6.16254,24.03223 -7.07635,22.8007 -15.36696,60.43575 C 155.19791,522.683 145,568.63869 145,572.41664 c 24.52174,-2.17861 85,-13 110,-23 z m 10,-222 c 0,-15 0,-24 -0.75885,-57.34278 C 263.82173,251.64502 264,245.41664 263,226.41664 c -5,5 -5.3442,7.03654 -13.0028,14.49253 -10.23983,9.96892 -24.13043,29.69099 -35.46108,48.73014 C 203.20547,308.67847 192,342.17934 192,349.41664 c 20,-5 40,-15 73,-22 z"
       id="path57"
       sodipodi:nodetypes="sscscssscsscsscsssssssssssscsssscscssscssscccscccscsscc" />
  </g>
</svg>
