<?xml version="1.0" encoding="UTF-8" standalone="no"?>
<!-- Created with Inkscape (http://www.inkscape.org/) -->

<svg
   width="1000"
   height="1000"
   viewBox="0 0 1000 1000"
   version="1.1"
   id="svg756"
   inkscape:version="1.1 (c68e22c387, 2021-05-23)"
   sodipodi:docname="u754c.svg"
   xmlns:inkscape="http://www.inkscape.org/namespaces/inkscape"
   xmlns:sodipodi="http://sodipodi.sourceforge.net/DTD/sodipodi-0.dtd"
   xmlns="http://www.w3.org/2000/svg"
   xmlns:svg="http://www.w3.org/2000/svg"
   xmlns:rdf="http://www.w3.org/1999/02/22-rdf-syntax-ns#"
   xmlns:cc="http://creativecommons.org/ns#"
   xmlns:dc="http://purl.org/dc/elements/1.1/">
  <defs
     id="defs750" />
  <sodipodi:namedview
     id="base"
     pagecolor="#ffffff"
     bordercolor="#666666"
     borderopacity="1.0"
     inkscape:pageopacity="0.0"
     inkscape:pageshadow="2"
     inkscape:zoom="0.5"
     inkscape:cx="829"
     inkscape:cy="600"
     inkscape:document-units="px"
     inkscape:current-layer="layer1"
     showgrid="true"
     units="px"
     inkscape:window-width="1118"
     inkscape:window-height="864"
     inkscape:window-x="840"
     inkscape:window-y="121"
     inkscape:window-maximized="0"
     showguides="true"
     inkscape:guide-bbox="true"
     inkscape:pagecheckerboard="0"
     inkscape:lockguides="true">
    <inkscape:grid
       type="xygrid"
       id="grid758" />
    <sodipodi:guide
       position="240,200"
       orientation="0,1"
       id="guide8"
       inkscape:locked="true" />
  </sodipodi:namedview>
  <metadata
     id="metadata753">
    <rdf:RDF>
      <cc:Work
         rdf:about="">
        <dc:format>image/svg+xml</dc:format>
        <dc:type
           rdf:resource="http://purl.org/dc/dcmitype/StillImage" />
        <dc:title />
      </cc:Work>
    </rdf:RDF>
  </metadata>
  <g
     inkscape:label="Layer 1"
     inkscape:groupmode="layer"
     id="layer1"
     transform="translate(0,-32.41664)"
     style="display:inline">
    <path
       style="fill:#000000;stroke-width:8.94317"
       d="M 440,874.41664 C 434.35623,866.82795 426.51263,827.55922 422.33365,776.13386 420,747.41664 425,712.41664 413.40954,689.77524 c -4.22588,11.83852 -5.49469,22.02697 -16.60721,58.45195 -11.11252,36.42498 -35.40292,60.17684 -42.03376,66.31795 -17.65828,16.35408 -64.17797,-3.51383 -77.06716,-46.46766 C 263.59709,721.07409 300,652.41664 364.09428,617.34499 c 4.22588,-27.98194 14.90352,-46.57369 -0.94353,-73.4794 -5.28235,5.38115 -30.06418,36.98447 -69.9578,81.78637 C 200.05404,730.25014 120.21812,821.1627 76.43941,822.08278 36.072649,822.93115 18.923636,736.61277 64.088074,664.42943 80.422164,638.32374 104.52347,601.71 120.22903,583.06559 129.74754,571.76594 145.8568,556.7713 163.57515,538.40438 160,482.41664 160,452.41664 164.26854,415.33709 160.65671,312.35931 145.79641,191.94387 121.25061,102.77264 c -15.97397,-58.031064 7.97176,-87.715577 23.71556,-87.715577 20.45752,0 43.1643,52.46957 60.32328,167.063107 5.37867,35.92068 12.78612,53.29824 16.13604,75.76204 10.38419,-14.93021 14.59552,-25.09002 24.89327,-40.48259 16.99129,-25.39772 42.26137,-54.9428 55.80659,-68.91921 13.48426,-13.9135 36.7266,-35.43807 51.1778,-47.49649 14.57748,-12.16379 41.10669,-27.077231 59.24718,-35.177103 87.86401,-39.232 171.93222,22.544543 180.41207,154.369093 3.38495,52.62107 -3.31737,98.67715 -18.97716,132.5308 0.0478,35.86809 -61.53697,65.73732 -97.39616,81.59585 -21.40171,9.4648 -19.97722,10.54102 -31.59838,14.84593 16.90351,4.30492 43.0647,3.41024 69.27492,9.78729 53.91776,13.11841 120.44967,49.08153 155.31467,84.81577 21.7759,22.31881 16.67819,36.08346 8.49129,48.07127 -4.02833,5.89856 -29.78125,17.1498 -40.29367,13.96182 -14.43543,-4.37768 -41.77791,10.632 -77.3921,11.6373 -48.87949,1.37975 -73.40978,-7.05062 -89.67585,-12.89572 -16.26608,-5.84511 -32.10793,-18.62747 -32.75967,-18.62747 -0.6517,0 -3.47262,27.5501 -5.86311,37.75114 6.91282,2.76675 20.48364,8.13555 27.29432,14.44322 23.91499,22.1487 35.58911,55.10685 37.01471,125.211 0.86049,42.31469 6.22301,78.90857 13.33953,91.02896 6.54532,11.14751 9.55911,22.88112 6.69729,26.07472 -9.40139,10.49139 -65.97421,8.072 -76.43303,-5.99115 z M 222.08591,606.83985 c 33.75769,-39.31703 71.33784,-81.27916 76.62018,-97.42259 -22.18586,8.60983 -24.63762,8.76229 -56.33171,24.9057 -5.28235,16.14342 -48.25879,55.81141 -64.10584,39.66799 -11.62117,12.91473 -16.50941,17.38651 -45.46162,54.63626 -40.879302,52.59509 -50.724486,85.26824 -40.027297,104.58326 6.548496,11.8241 50.678447,-34.79411 129.306287,-126.37062 z m 120.32357,95.36223 c 3.59052,-8.78544 4.06363,-10.89324 7.23304,-23.80797 -15.84704,16.14342 -28.65623,46.76846 -19.72949,46.63852 3.75268,-0.0547 8.08007,-12.02436 12.49645,-22.83055 z m 216.96941,-129.2461 c 18.00109,-6.01852 32.72925,-6.21568 32.72925,-10.21594 0,-12.64333 -87.52478,-48.82584 -133.45283,-53.57895 -14.6984,-1.52115 -27.39872,-3.58233 -42.09521,-4.56343 9.41414,17.12452 21.97884,38.03022 21.97884,54.17364 21.12939,16.14342 52.72578,36.95811 120.83995,14.18468 z M 287.33647,489.98269 c -3.42095,-3.16622 -8.19393,-11.77604 -11.01272,-17.61135 -2.48272,-5.13957 -9.91903,-18.96932 -9.91903,-38.54111 0,-25.77744 4.57279,-42.47278 15.9054,-61.77906 9.02214,-15.37019 7.45244,-15.00093 18.01714,-25.7632 -5.28235,-26.90571 -1.11772,-71.15358 4.34664,-90.03703 2.7011,-9.3343 3.30474,-16.03369 10.3261,-28.8343 -5.02136,6.80061 -10.5,15.25 -12.66824,18.3553 -38.34247,54.91314 -65.23973,126.04059 -64.52127,180.28088 4.56389,26.47681 5.62036,53.38252 7.78449,75.43208 17.90879,-5.90614 27.75584,-9.28729 41.74149,-11.50221 z m 49.26125,-55.79522 c 0.28155,-12.79301 -8.42341,-17.32582 -16.87517,-30.24056 -15.84705,21.52456 -10.96773,38.05635 -4.11294,50.58272 4.16832,-2.87483 20.76621,-10.25925 20.98811,-20.34216 z m 54.96478,-28.0881 c 14.36188,-7.30235 58.09592,-34.68422 57.85932,-38.11571 -0.2366,-3.43149 -17.84708,-5.02425 -32.98068,-4.97172 -11.0316,0.0383 -19.05964,-1.4486 -28.16099,5.41944 0,10.76229 1.09732,27.4928 3.28235,37.66799 z M 359.0744,217.60786 c -6.6803,-9.67488 -17.33358,21.53088 -19.44555,64.97755 -0.3413,7.02118 -1.62885,18.83123 -1.02876,40.95827 6.39991,-16.12704 7.2998,-27.97366 10.9497,-41.96049 7.37442,-28.25959 11.0195,-61.8103 9.52461,-63.97533 z m 164.40518,49.23953 c 0.25458,-34.63961 -0.94628,-44.20615 -11.05217,-82.99939 -17.36642,-66.6641 -41.51674,-66.17775 -93.01376,-42.1115 -17.24673,8.05997 -34.79468,22.83041 -43.24644,29.28778 C 400,177.41664 405,212.41664 402.15157,258.56026 c -1.21585,19.69642 -4.15157,28.85638 -6.47614,51.44087 13.61402,-2.8941 33.85454,-5.73793 54.44143,-6.07208 20.49967,-0.33273 42.97967,2.84339 60.93966,6.07208 5.28235,-10.76229 12.27361,-22.81798 12.42306,-43.15374 z"
       id="path201"
       sodipodi:nodetypes="sscsssccssssccssscssssscscssssssscsssssscccsssscsssssccscssscscscccsccscssccsscssssscscscs" />
  </g>
</svg>
