<?xml version="1.0" encoding="UTF-8" standalone="no"?>
<!-- Created with Inkscape (http://www.inkscape.org/) -->

<svg
   width="1000"
   height="1000"
   viewBox="0 0 1000 1000"
   version="1.1"
   id="svg756"
   inkscape:version="1.1 (c68e22c387, 2021-05-23)"
   sodipodi:docname="u76ee.svg"
   xmlns:inkscape="http://www.inkscape.org/namespaces/inkscape"
   xmlns:sodipodi="http://sodipodi.sourceforge.net/DTD/sodipodi-0.dtd"
   xmlns="http://www.w3.org/2000/svg"
   xmlns:svg="http://www.w3.org/2000/svg"
   xmlns:rdf="http://www.w3.org/1999/02/22-rdf-syntax-ns#"
   xmlns:cc="http://creativecommons.org/ns#"
   xmlns:dc="http://purl.org/dc/elements/1.1/">
  <defs
     id="defs750" />
  <sodipodi:namedview
     id="base"
     pagecolor="#ffffff"
     bordercolor="#666666"
     borderopacity="1.0"
     inkscape:pageopacity="0.0"
     inkscape:pageshadow="2"
     inkscape:zoom="0.5"
     inkscape:cx="557"
     inkscape:cy="600"
     inkscape:document-units="px"
     inkscape:current-layer="layer1"
     showgrid="true"
     units="px"
     inkscape:window-width="1118"
     inkscape:window-height="864"
     inkscape:window-x="605"
     inkscape:window-y="82"
     inkscape:window-maximized="0"
     showguides="true"
     inkscape:guide-bbox="true"
     inkscape:pagecheckerboard="0">
    <inkscape:grid
       type="xygrid"
       id="grid758" />
    <sodipodi:guide
       position="240,200"
       orientation="0,1"
       id="guide8"
       inkscape:locked="false" />
  </sodipodi:namedview>
  <metadata
     id="metadata753">
    <rdf:RDF>
      <cc:Work
         rdf:about="">
        <dc:format>image/svg+xml</dc:format>
        <dc:type
           rdf:resource="http://purl.org/dc/dcmitype/StillImage" />
        <dc:title />
      </cc:Work>
    </rdf:RDF>
  </metadata>
  <g
     inkscape:label="Layer 1"
     inkscape:groupmode="layer"
     id="layer1"
     transform="translate(0,-32.41664)"
     style="display:inline">
    <path
       style="fill:#000000;stroke-width:12.0109"
       d="M 249.14286,879.63093 C 227.25319,868.63071 202.05071,838.3008 186.31019,816.49031 174.14286,799.63093 157,776.41664 152,766.41664 c 0,5 -0.70429,6.92566 -9.36986,8.79824 -21.17652,4.57611 -48.370717,-3.77222 -57.017709,-39.06582 C 76.96544,700.85546 72.865652,638.6166 69.877941,535.41167 64.405399,346.37286 56.715332,223.35001 42.17445,92.222592 36.739191,43.208265 67.019432,34.585866 84.611614,37.63081 c 16.470286,2.850762 22.155886,23.257783 26.864196,96.42212 3.28474,51.04332 8.95384,119.82897 12.598,152.857 3.64413,33.02804 9.56747,137.99222 13.16297,233.25377 7.3094,193.66072 -0.52967,195.2841 97.08458,267.69679 68.33735,50.69436 88.74016,39.6679 123.0449,16.71343 11.69241,-7.82379 37.60084,-31.3631 55.83617,-75.94648 C 431.43777,684.04407 442,636.41664 447,616.41664 c -20,0 -53.49264,-0.30456 -135.24705,1.04658 -147.66077,2.44035 -148.67395,2.28387 -153.11028,-23.64652 -3.77239,-22.04956 -0.6946,-52.59283 19.81925,-44.37753 24.52346,9.82103 235.71437,0.38688 276.53808,-1.02253 4.17629,-28.59059 8,-82 -3.51251,-147.0728 C 443.99875,359.01483 442,346.41664 434,328.41664 c -30.25321,18.0982 -50,27 -85.06037,51.3971 -59.66692,41.51981 -106.23643,63.03484 -145.05273,63.03484 -31.85319,0 -31.07229,-57.94953 3.35083,-65.08886 17.77045,-3.68557 59.73486,-25.29353 92.16446,-49.5088 C 334,302.41664 360,289.41664 408,253.41664 c -3,-7 -3.53656,-8.21393 -13.11681,-31.10999 C 361.71336,143.03331 337.38993,119.1661 297.53333,103.22783 278,95.41664 248,94.41664 228.16594,104.46142 c -17.86914,9.04967 -32.02529,11.0059 -32.02529,20.37554 0,23.94758 -38.21645,6.56471 -42.83397,-19.01436 -6.09346,-33.755137 33.10669,-64.118767 89.54246,-70.339523 65.93181,-7.267477 141.01963,20.686523 184.51695,92.917383 50.23804,83.42438 80.97661,183.5687 93.22893,282.31741 12.25232,98.74871 6.01839,196.10183 -17.68856,273.9438 -56.20342,184.54441 -151.84366,246.18712 -253.7636,194.96926 z"
       id="path93"
       sodipodi:nodetypes="sscssssssssssscssscscsssscssssssssss" />
  </g>
</svg>
