<?xml version="1.0" encoding="UTF-8" standalone="no"?>
<!-- Created with Inkscape (http://www.inkscape.org/) -->

<svg
   width="1000"
   height="1000"
   viewBox="0 0 1000 1000"
   version="1.1"
   id="svg756"
   inkscape:version="1.1 (c68e22c387, 2021-05-23)"
   sodipodi:docname="u771f.svg"
   xmlns:inkscape="http://www.inkscape.org/namespaces/inkscape"
   xmlns:sodipodi="http://sodipodi.sourceforge.net/DTD/sodipodi-0.dtd"
   xmlns="http://www.w3.org/2000/svg"
   xmlns:svg="http://www.w3.org/2000/svg"
   xmlns:rdf="http://www.w3.org/1999/02/22-rdf-syntax-ns#"
   xmlns:cc="http://creativecommons.org/ns#"
   xmlns:dc="http://purl.org/dc/elements/1.1/">
  <defs
     id="defs750" />
  <sodipodi:namedview
     id="base"
     pagecolor="#ffffff"
     bordercolor="#666666"
     borderopacity="1.0"
     inkscape:pageopacity="0.0"
     inkscape:pageshadow="2"
     inkscape:zoom="0.5"
     inkscape:cx="731"
     inkscape:cy="622"
     inkscape:document-units="px"
     inkscape:current-layer="layer1"
     showgrid="true"
     units="px"
     inkscape:window-width="1118"
     inkscape:window-height="864"
     inkscape:window-x="896"
     inkscape:window-y="74"
     inkscape:window-maximized="0"
     showguides="true"
     inkscape:guide-bbox="true"
     inkscape:pagecheckerboard="0">
    <inkscape:grid
       type="xygrid"
       id="grid758" />
    <sodipodi:guide
       position="330,200"
       orientation="0,1"
       id="guide8"
       inkscape:locked="false" />
  </sodipodi:namedview>
  <metadata
     id="metadata753">
    <rdf:RDF>
      <cc:Work
         rdf:about="">
        <dc:format>image/svg+xml</dc:format>
        <dc:type
           rdf:resource="http://purl.org/dc/dcmitype/StillImage" />
        <dc:title />
      </cc:Work>
    </rdf:RDF>
  </metadata>
  <g
     inkscape:label="Layer 1"
     inkscape:groupmode="layer"
     id="layer1"
     transform="translate(0,-32.41664)"
     style="display:inline">
    <path
       style="fill:#000000;stroke-width:7.53743"
       d="m 41.669715,885.62156 c -1.301971,-22.56025 -2.329943,-55.02431 1.128915,-68.61161 3.058801,-12.01576 9.360253,-24.39828 11.958484,-28.79862 11.170217,-18.91777 22.63497,-39.06502 130.122116,-134.6943 27.79333,-24.72722 53.62596,-43.68131 63.11248,-52.65423 -10.54058,-14.95487 -11.88939,-19.1039 -17.15967,-49.01364 -10.54058,19.93983 -26.35144,44.8646 -34.95109,49.57647 -13.74951,7.53353 -34.70825,11.10518 -41.80459,-2.09754 -7.99207,-14.8692 2.93801,-48.62952 20.77925,-81.69581 13.81412,-25.60258 24.3547,-50.52735 29.62499,-60.49727 -10.54058,-9.96991 -16.01628,-16.09776 -13.61299,-32.07585 3.79102,-25.20426 21.36082,-49.6072 43.7161,-49.73111 5.56741,-32.25925 11.74861,-73.41139 17.24446,-108.30087 9.06815,-57.56763 16.21805,-72.40964 17.95847,-79.35015 2.20006,-8.77354 6.1608,-20.33732 10.37703,-29.31024 -13.70275,6.97894 -50.8398,25.67571 -78.03185,46.13217 -11.02514,8.29417 -45.20801,24.94958 -75.96193,37.01202 -51.487957,20.19483 -66.408766,-25.6892 -76.92337,-37.55396 -15.117121,-17.0583 -3.627466,-21.35063 45.719104,-34.68442 23.453866,-6.3374 73.541846,-23.84193 99.102576,-40.93115 25.56073,-17.08921 59.21624,-34.699545 72.87951,-42.53943 16.58721,-9.517611 24.81632,-14.271899 26.77893,-15.525113 10.88943,-6.953381 58.33861,-22.957081 100.96344,-31.956118 70.8599,-14.960081 106.4872,-0.733691 92.6295,36.988014 -7.6397,20.795829 -44.18369,66.086817 -77.5021,63.117307 -18.66553,-1.66356 -27.82394,3.17029 -44.63742,23.55987 -22.22521,26.95231 -45.6486,80.26792 -60.9833,166.77182 -2.88444,16.27125 -5.68631,33.66306 -8.65331,48.81376 8.23729,3.79213 24.63548,8.42319 32.59752,12.66624 29.30025,15.61444 45.00599,33.43476 61.14924,61.82487 5.50128,9.67471 7.05131,12.05128 11.26754,19.03022 6.32434,0.99699 12.64869,0.99699 26.91451,2.48952 27.39128,2.86573 33.16677,8.47738 36.16869,18.03954 3.81946,12.16629 -13.10038,50.82478 -23.64095,60.79469 2.10811,3.98796 3.90941,7.62341 7.78171,17.93056 4.57585,12.17995 2.88598,22.85604 -6.02024,38.0337 -7.1492,12.1834 -20.91541,22.97596 -31.92073,27.10156 -11.00531,4.1256 -49.94911,11.64834 -79.46273,6.66338 -42.16231,19.93982 -89.45296,40.2455 -175.52031,119.85356 -40.22639,37.20738 -33.07245,34.33473 13.64815,-1.40404 46.01708,-35.20055 103.8732,-59.14207 140.49857,-57.25835 27.0763,1.39259 49.74589,12.86685 84.17164,26.24235 34.42575,13.3755 74.97809,28.97664 90.11633,34.66915 15.13822,5.69258 48.89053,10.79653 75.00512,11.34216 33.47043,0.69929 47.24535,3.55262 46.68224,9.66966 -1.1071,12.0265 -16.43881,47.70259 -50.50305,54.79199 -30.26046,6.29775 -88.35473,-5.87535 -164.93711,-38.1284 -44.80178,-18.8685 -82.70856,-33.11021 -121.63537,-19.41278 -18.04753,6.35049 -76.45359,41.48393 -110.9619,67.06395 -34.5083,25.58002 -69.267681,50.66825 -77.24307,55.7517 -15.466652,9.85829 -37.500366,-10.53588 -38.029535,-19.70523 z M 331.63095,545.07603 c 17.26727,-12.34803 26.72524,-19.58037 7.59086,-18.61883 -19.70557,0.99024 -41.83677,10.59817 -52.37735,11.59516 0,4.98495 5.08995,23.82734 8.57984,27.91575 5.27029,-1.99398 27.6952,-14.80544 36.20665,-20.89208 z m -2.74912,-72.98615 c -5.27029,-14.95487 -37.28558,-26.82438 -49.56315,-24.92478 -0.5839,6.34293 -1.05405,21.93381 1.05406,28.91274 5.27029,0 43.2388,-3.98796 48.50909,-3.98796 z"
       id="path39"
       sodipodi:nodetypes="ssssccssscscsscsssssssssssscsscsscssscsssssssssssssssccscccc" />
  </g>
</svg>
