<?xml version="1.0" encoding="UTF-8" standalone="no"?>
<!-- Created with Inkscape (http://www.inkscape.org/) -->

<svg
   width="1000"
   height="1000"
   viewBox="0 0 1000 1000"
   version="1.1"
   id="svg756"
   inkscape:version="1.1 (c68e22c387, 2021-05-23)"
   sodipodi:docname="u795d.svg"
   xmlns:inkscape="http://www.inkscape.org/namespaces/inkscape"
   xmlns:sodipodi="http://sodipodi.sourceforge.net/DTD/sodipodi-0.dtd"
   xmlns="http://www.w3.org/2000/svg"
   xmlns:svg="http://www.w3.org/2000/svg"
   xmlns:rdf="http://www.w3.org/1999/02/22-rdf-syntax-ns#"
   xmlns:cc="http://creativecommons.org/ns#"
   xmlns:dc="http://purl.org/dc/elements/1.1/">
  <defs
     id="defs750" />
  <sodipodi:namedview
     id="base"
     pagecolor="#ffffff"
     bordercolor="#666666"
     borderopacity="1.0"
     inkscape:pageopacity="0.0"
     inkscape:pageshadow="2"
     inkscape:zoom="0.5"
     inkscape:cx="885"
     inkscape:cy="642"
     inkscape:document-units="px"
     inkscape:current-layer="layer1"
     showgrid="true"
     units="px"
     inkscape:window-width="1118"
     inkscape:window-height="864"
     inkscape:window-x="588"
     inkscape:window-y="103"
     inkscape:window-maximized="0"
     showguides="true"
     inkscape:guide-bbox="true"
     inkscape:pagecheckerboard="0">
    <inkscape:grid
       type="xygrid"
       id="grid758" />
    <sodipodi:guide
       position="240,200"
       orientation="0,1"
       id="guide8"
       inkscape:locked="false" />
  </sodipodi:namedview>
  <metadata
     id="metadata753">
    <rdf:RDF>
      <cc:Work
         rdf:about="">
        <dc:format>image/svg+xml</dc:format>
        <dc:type
           rdf:resource="http://purl.org/dc/dcmitype/StillImage" />
        <dc:title />
      </cc:Work>
    </rdf:RDF>
  </metadata>
  <g
     inkscape:label="Layer 1"
     inkscape:groupmode="layer"
     id="layer1"
     transform="translate(0,-32.41664)"
     style="display:inline">
    <path
       style="fill:#000000;stroke-width:5.92067"
       d="m 630.62247,832.41664 c -31.00738,-12.3815 -59.4718,-47.87579 -72.5132,-83.82924 -13.0414,-35.95343 -14.67306,-84.40581 -8.06798,-138.75655 7.34653,-60.45177 19.70443,-79.77537 41.84252,-81.38682 9.6981,-0.70594 49.86647,-7.14463 41.65099,57.72142 -10.4753,82.70856 -13.32282,118.06346 5.98575,147.76942 17.47387,26.88329 30.55677,36.91645 58.40695,35.46429 23.79538,-1.24073 37.35552,-2.95205 56.98428,-11.04158 30.54687,-12.58916 26.99806,-22.63012 30.09188,-33.20089 2.54343,-8.69027 8.73355,-43.87388 13.75574,-78.18573 5.02218,-34.31193 19.94904,-57.62125 23.36059,-61.60871 8.94872,-10.45932 23.53762,95.19063 19.07935,153.47858 -1.5575,20.36289 -7.98145,51.70595 -19.07946,62.8895 -11.09801,11.18356 -36.30651,26.25435 -66.73188,31.45871 -37.02456,6.33318 -95.11424,11.06761 -124.76553,-0.7724 z M 118.09962,810.13483 c -0.6493,-26.11804 7.32176,-103.62253 13.30736,-124.32167 5.06819,-17.52658 25.97587,-88.53551 26.49286,-102.80363 -10.55015,14.26812 -7.35924,10.95869 -46.18723,59.57879 -19.183259,24.02107 -34.410309,35.68651 -36.290437,35.73331 -1.880128,0.0469 -45.679519,-32.48034 -45.877059,-40.41558 C 29.297802,627.9715 48.073422,600.623 89.83402,550.08932 123.19047,509.72537 155.58211,471.56523 157.40938,467.86979 160,447.41664 170,437.41664 186.49228,436.79352 c 23.79587,-21.8884 25.3021,-25.31928 48.92402,-51.31289 17.04135,-18.75236 40.41466,-33.59609 49.58512,-53.20665 5.26742,-11.26411 4.06511,-19.28458 -70.29274,4.45008 -66.11458,21.10344 -121.051168,25.96089 -127.089594,15.02291 -6.503351,-11.78013 -10.568228,-69.38544 26.862794,-75.69532 19.045,-3.21049 64.90419,-6.37107 97.02044,-16.80127 35.44304,-11.51062 74.39151,-19.583 99.09855,-20.53894 37.19438,-1.43909 51.21893,49.66933 52.66924,61.86614 5.81241,48.88103 -39.71305,102.43302 -90.15892,158.8506 -32.06718,35.86324 -35.46306,39.52451 -44.07626,51.72356 -1.30108,8.7599 -3.47455,39.38695 -4.82991,48.43974 2.40664,20.6298 52.74375,115.94386 73.42429,140.80854 12.48767,15.01423 32.86513,10.54792 38.32536,-0.62277 4.85215,-9.92676 34.04533,-32.36061 27.08021,22.40063 -1.53961,12.10476 -38.27404,57.97123 -53.15435,58.34166 -17.47158,0.43495 -55.89787,8.58459 -83.49711,-54.07358 -13.38362,-30.38456 -16.82814,-38.86987 -18.68884,-48.22706 -3.15588,14.37377 -10.35573,78.18773 -13.63399,116.09426 -2.25686,26.09606 -4.88168,32.75722 -12.98754,32.95902 -8.33247,0.20742 -62.41425,5.3554 -62.97343,-17.13735 z m 235.25591,-31.93046 c -0.27456,-11.0289 2.58785,-16.20581 9.04947,-16.36667 13.44501,-0.3347 68.22995,-75.07183 83.84696,-114.38331 7.24022,-18.22517 14.42707,-50.17435 15.9708,-70.99818 1.33158,-17.96208 2.20794,-28.33441 2.20794,-38.36757 -15.04974,-4.01326 -17.08953,-16.05969 -25.22152,-27.74319 -6.09583,-8.7581 -5.15598,-34.42261 -3.33148,-42.36729 1.60087,-6.97089 20.51984,-45.2178 24.62476,-45.88795 1.91835,-0.31319 14.55661,17.59329 21.07275,24.15654 23.47504,23.64476 26.1736,29.54458 76.52474,9.91241 51.30595,-20.00445 72.35624,-32.06513 82.089,-50.80753 26.18724,-50.42875 -12.03164,-138.9161 -67.09653,-168.18934 -46.81119,-24.88548 -52.44056,-21.61258 -93.17622,16.97921 -15.62767,14.8052 -29.71053,25.5034 -31.23955,23.72518 -20.39848,-23.72309 -13.49748,-82.18016 6.86106,-101.57975 16.68975,-15.9036 44.06272,-34.39117 77.6108,-35.22633 45.69147,-1.13744 98.96964,32.82136 131.18571,70.68741 34.57549,40.63925 57.28291,110.47719 59.46241,166.26802 1.18792,30.40839 -6.84312,57.55885 -11.68007,69.12825 -10.27298,24.57185 -73.12991,54.91669 -134.59683,77.66437 -17.30664,6.40484 -24.83038,10.26341 -39.88012,15.20128 0,5.09529 -1.7657,22.7583 -2.64856,39.15403 -3.50177,65.03215 -23.46827,117.33675 -63.00838,165.05804 -45.04891,54.36985 -117.85583,64.96647 -118.62714,33.98237 z m 29.75943,-337.72934 c -16.17724,-33.66122 -28.87097,-225.17778 -7.70916,-227.79456 29.80936,-3.6861 56.47298,16.10037 64.67021,103.36842 4.49258,47.82813 -0.91856,78.5095 2.64194,92.6253 9.2239,36.56882 -32.26613,37.67364 -39.52576,40.89399 -3.49404,1.54993 -16.92879,-2.54197 -20.07723,-9.09315 z M 219.84276,183.06486 c -36.55159,-33.08177 -62.56245,-72.90888 -67.49225,-103.342239 -3.30592,-20.408566 53.66078,-49.220489 62.51738,-47.424098 6.19815,1.257177 12.43877,10.808605 15.98845,24.470708 3.708,14.271499 11.6549,39.905101 35.91557,67.083679 33.40629,37.42419 -0.82037,86.40728 -13.65178,85.82392 -2.2435,-0.10201 -17.21831,-12.07738 -33.27737,-26.61197 z"
       id="path57"
       sodipodi:nodetypes="ssssssssssssssssscssssccsssssssssccssssscssssssscssssssssssssssscssssssssssssssss" />
  </g>
</svg>
