<?xml version="1.0" encoding="UTF-8" standalone="no"?>
<!-- Created with Inkscape (http://www.inkscape.org/) -->

<svg
   width="1000"
   height="1000"
   viewBox="0 0 1000 1000"
   version="1.1"
   id="svg756"
   inkscape:version="1.1 (c68e22c387, 2021-05-23)"
   sodipodi:docname="u795e.svg"
   xmlns:inkscape="http://www.inkscape.org/namespaces/inkscape"
   xmlns:sodipodi="http://sodipodi.sourceforge.net/DTD/sodipodi-0.dtd"
   xmlns="http://www.w3.org/2000/svg"
   xmlns:svg="http://www.w3.org/2000/svg"
   xmlns:rdf="http://www.w3.org/1999/02/22-rdf-syntax-ns#"
   xmlns:cc="http://creativecommons.org/ns#"
   xmlns:dc="http://purl.org/dc/elements/1.1/">
  <defs
     id="defs750" />
  <sodipodi:namedview
     id="base"
     pagecolor="#ffffff"
     bordercolor="#666666"
     borderopacity="1.0"
     inkscape:pageopacity="0.0"
     inkscape:pageshadow="2"
     inkscape:zoom="0.70710678"
     inkscape:cx="680.16675"
     inkscape:cy="481.11713"
     inkscape:document-units="px"
     inkscape:current-layer="layer1"
     showgrid="true"
     units="px"
     inkscape:window-width="1118"
     inkscape:window-height="864"
     inkscape:window-x="497"
     inkscape:window-y="67"
     inkscape:window-maximized="0"
     showguides="true"
     inkscape:guide-bbox="true"
     inkscape:pagecheckerboard="0">
    <inkscape:grid
       type="xygrid"
       id="grid758" />
    <sodipodi:guide
       position="240,200"
       orientation="0,1"
       id="guide8"
       inkscape:locked="false" />
  </sodipodi:namedview>
  <metadata
     id="metadata753">
    <rdf:RDF>
      <cc:Work
         rdf:about="">
        <dc:format>image/svg+xml</dc:format>
        <dc:type
           rdf:resource="http://purl.org/dc/dcmitype/StillImage" />
        <dc:title />
      </cc:Work>
    </rdf:RDF>
  </metadata>
  <g
     inkscape:label="Layer 1"
     inkscape:groupmode="layer"
     id="layer1"
     transform="translate(0,-32.41664)"
     style="display:inline">
    <path
       style="fill:#000000;stroke-width:8.1516"
       d="m 600,890.41664 c -13.94243,-24.00365 -36.28001,-95.78509 -29.81815,-121.77885 2.63351,-10.59358 4.32205,-38.13311 5.62665,-64.1947 1.14855,-22.94411 1.04206,-35.63084 1.04206,-46.08766 -6.12228,2.03701 -22.5406,3.13704 -32.01794,3.87069 -23.25022,1.79984 -46.57119,-7.62455 -50.2016,-26.12597 -6.91831,-35.25724 18.36719,-70.70448 27.55119,-79.37167 10.63591,-10.03739 33.19355,-23.38665 54.66835,-41.44877 0.0412,-23.76517 0.45179,-36.25902 -1.03977,-102.34536 -0.50212,-22.24752 -0.0728,-57.8989 0.0151,-67.23786 -8.19658,-4.18273 -10.92204,-3.84809 -19.11315,-5.02009 -9.88501,-1.41437 -16.12169,0.7081 -24.71371,6.7366 -19.46906,13.66025 -46.23171,92.57081 -47.53551,141.78339 -0.54783,20.67774 -8.03563,46.42257 -16.99916,58.44705 -15.88668,21.31185 -16.14154,21.37595 -30.61425,7.69897 -9.04696,-8.54956 -27.75103,-15.50361 -26.32944,-28.1326 C 415,487.41664 405.70145,478.65729 394.07186,462.53051 386.39543,451.8856 375,432.41664 368.77283,423.69985 c -3.97353,-5.56215 -5.03744,-19.44547 -5.94769,-25.89633 -2.27216,-16.10247 12.09531,-16.80671 39.89575,-1.95552 12.8528,6.86607 22.49277,14.68077 27.61564,16.77214 5.12287,-11.5025 10.68476,-35.93252 23.30515,-61.68524 26.08076,-53.21954 58.66069,-76.34479 86.34046,-81.33813 12.25471,-2.2107 30.72089,3.94766 33.79461,3.94766 0,-8.36546 -0.008,-16.25139 1.03081,-24.82013 2.6131,-21.55647 36.60684,-41.22019 49.80056,-33.26409 9.61844,5.80011 19.59453,25.63485 19.91463,47.31823 0.27634,18.71895 0.20014,23.263 -0.0505,34.81667 17.41779,9.41115 30.04656,15.24208 46.69531,27.06319 18.07325,12.83256 32.79231,27.57482 44.68971,43.10142 11.84504,15.45827 24.29348,34.4036 24.29348,60.54565 6.01192,0.8513 31.3686,-6 39.24492,4.357 10.87339,14.298 13.63974,50.01847 1.34853,48.67208 -8.13737,-0.89138 -35.47055,4.48344 -50.83914,14.94026 -5.12287,26.14205 -29.13897,59.3246 -45.33317,80.07416 -19.11664,24.49404 -42.68182,43.31631 -58.05042,53.77314 0,20.91364 -0.89266,44.03275 -3.31825,69.20341 -3.50697,36.3923 -4.75941,69.58271 -1.51097,116.81148 5.98168,86.96694 -19.24996,112.91724 -41.69235,74.27974 z M 556.39812,608.9569 c 0.92719,3.49655 15.24466,-5.54685 20.45244,-7.93126 0,-3.13704 0.0819,-7.57031 0,-9.41114 -1.02458,0 -21.08579,12.44384 -20.45244,17.3424 z M 657.2078,543.46928 c 7.69635,-7.92718 10.82976,-12.68707 12.87891,-15.82411 -4.0983,2.09137 -11.74565,6.93084 -17.10634,10.43909 -3.61538,2.36604 -7.21557,4.76924 -9.53257,6.29182 v 11.41114 c 4.0983,-3.13705 6.05164,-4.37839 13.76,-12.31794 z m 12.28362,-78.92709 c 8.90401,-5.43744 13.91473,-9.04908 29.28333,-17.41455 0,-20.91363 -7.17202,-35.55318 -21.95715,-49.8308 -9.19756,-8.88188 -25.11394,-17.41215 -31.03652,-19.77039 -0.22486,5.49528 -0.20739,16.50707 -0.23728,27.00982 -0.0521,18.2863 -0.96621,23.68566 -1.01845,44.4961 -0.053,21.10029 -0.18533,24.18389 2.3e-4,30.35591 10.24574,-5.22841 11.84575,-6.83401 24.96584,-14.84609 z M 160.19516,793.39675 c 0.3769,-20.84063 4.14105,-50.02768 8.36475,-64.86008 4.99035,-17.52458 5.37413,-35.33131 1.29301,-57.9341 -4.08111,-22.60281 -12.62714,-33.27075 -17.29983,-44.88322 -6.02319,23.22494 -11.14606,36.81881 -29.14498,93.64797 -17.4509,55.09885 -22.04612,61.22034 -42.916227,48.15506 -16.085413,-10.06994 -38.700421,-12.41763 -24.372599,-57.8101 8.213862,-26.02265 22.788791,-84.81868 23.601554,-103.20229 1.444525,-32.67323 15.309017,-65.92912 26.426362,-76.23533 5.17409,-4.79659 6.57179,-7.8579 11.69465,-7.8579 2.04914,-5.22842 4.09829,-8.36546 7.03723,-14.74971 1.86844,-4.05881 13.73407,-31.72605 29.40746,-63.19476 27.73879,-55.69333 46.40362,-97.50424 57.25213,-129.14818 10.84851,-31.64394 26.17557,-51.02955 14.45251,-57.68957 -16.57451,-9.41619 -46.65822,14.2469 -119.8815,79.17188 -25.944984,23.00469 -49.06235,42.10838 -51.371917,42.45268 -10.011989,1.49251 -19.849395,-57.1386 -8.862202,-73.59866 13.559035,-20.31296 46.225695,-46.19113 61.424169,-58.19626 14.64041,-11.56431 54.90978,-37.40759 64.36198,-42.40824 8.51696,-4.50586 15.57342,-9.29925 33.83177,-12.02106 43.0388,-6.41592 81.15103,11.43074 88.50892,45.19952 7.23802,33.21866 -19.62177,100.54931 -25.81622,114.71594 -11.0024,25.16229 -21.93193,56.13518 -34.34194,81.54492 -21.17283,43.35173 -38.13484,81.64741 -48.38057,102.56104 7.17201,11.50251 13.1491,18.53784 17.78117,27.35533 10.2539,19.5191 20.19405,35.61158 24.22632,52.11651 8.20204,3.72493 40.77025,13.91101 58.05334,21.91382 22.19883,10.279 64.40011,30.88663 79.53981,43.77664 15.1397,12.89001 11.04163,45.00769 6.84377,50.27556 -9.85351,12.36511 -44.04142,-4.89118 -78.85943,-20.78725 -24.29513,-11.09189 -33.05907,-16.81224 -56.35634,-23.0267 1.22962,8.71411 1.26278,24.49373 -1.5061,34.99291 -2.76884,10.49919 -10.53461,40.26173 -14.75273,66.13897 -5.97817,36.67458 -25.62563,37.13119 -38.39475,39.03473 -14.81806,2.20896 -22.46346,-1.1742 -21.84357,-35.45007 z M 190.5184,174.49567 c -5.26553,-4.70384 -13.74429,-18.67271 -18.8417,-31.04194 -5.09742,-12.36922 -12.11984,-23.89669 -15.60539,-25.61659 -3.48554,-1.71989 -14.15315,-11.71539 -23.7058,-22.2122 -32.680764,-35.910865 1.16952,-75.275212 42.91717,-55.832795 9.96875,4.642574 35.42289,30.921288 49.85669,56.786855 14.43381,25.86555 9.50381,59.84904 -3.97052,73.1302 -8.00211,7.88741 -19.59766,14.66025 -30.65045,4.78647 z"
       id="path275"
       sodipodi:nodetypes="ssscssscscsssssssssscsscssscsscsscscssssccccscsccsssscssssssssscssssssssssssscscsssscssssssssssssssss" />
  </g>
</svg>
