<?xml version="1.0" encoding="UTF-8" standalone="no"?>
<!-- Created with Inkscape (http://www.inkscape.org/) -->

<svg
   width="1000"
   height="1000"
   viewBox="0 0 1000 1000"
   version="1.1"
   id="svg756"
   inkscape:version="1.1 (c68e22c387, 2021-05-23)"
   sodipodi:docname="u7b54.svg"
   xmlns:inkscape="http://www.inkscape.org/namespaces/inkscape"
   xmlns:sodipodi="http://sodipodi.sourceforge.net/DTD/sodipodi-0.dtd"
   xmlns="http://www.w3.org/2000/svg"
   xmlns:svg="http://www.w3.org/2000/svg"
   xmlns:rdf="http://www.w3.org/1999/02/22-rdf-syntax-ns#"
   xmlns:cc="http://creativecommons.org/ns#"
   xmlns:dc="http://purl.org/dc/elements/1.1/">
  <defs
     id="defs750">
    <pattern
       id="EMFhbasepattern"
       patternUnits="userSpaceOnUse"
       width="6"
       height="6"
       x="0"
       y="0" />
    <pattern
       id="EMFhbasepattern-8"
       patternUnits="userSpaceOnUse"
       width="6"
       height="6"
       x="0"
       y="0" />
  </defs>
  <sodipodi:namedview
     id="base"
     pagecolor="#ffffff"
     bordercolor="#666666"
     borderopacity="1.0"
     inkscape:pageopacity="0.0"
     inkscape:pageshadow="2"
     inkscape:zoom="1.4142136"
     inkscape:cx="306.88434"
     inkscape:cy="124.80435"
     inkscape:document-units="px"
     inkscape:current-layer="layer1"
     showgrid="true"
     units="px"
     inkscape:window-width="1351"
     inkscape:window-height="897"
     inkscape:window-x="410"
     inkscape:window-y="55"
     inkscape:window-maximized="0"
     showguides="true"
     inkscape:guide-bbox="true"
     inkscape:pagecheckerboard="0">
    <inkscape:grid
       type="xygrid"
       id="grid758" />
    <sodipodi:guide
       position="240,200"
       orientation="0,1"
       id="guide8"
       inkscape:locked="false" />
  </sodipodi:namedview>
  <metadata
     id="metadata753">
    <rdf:RDF>
      <cc:Work
         rdf:about="">
        <dc:format>image/svg+xml</dc:format>
        <dc:type
           rdf:resource="http://purl.org/dc/dcmitype/StillImage" />
        <dc:title />
      </cc:Work>
    </rdf:RDF>
  </metadata>
  <g
     inkscape:label="Layer 1"
     inkscape:groupmode="layer"
     id="layer1"
     transform="translate(0,-32.41664)"
     style="display:inline">
    <path
       id="path1384"
       style="fill:#000000;stroke-width:8.34007"
       d="m 604.60749,29.275347 c -6.17809,0.196467 -11.85154,3.269318 -16.76975,6.863695 -7.52126,5.611506 -14.13669,12.349716 -20.72312,19.03854 -2.40525,2.460878 -4.79473,4.937887 -7.15808,7.440486 -6.14472,6.599202 -12.13604,13.690935 -17.81313,20.745799 -11.32746,14.13132 -22.16489,28.922623 -32.22043,44.113453 -4.73881,7.09958 -9.14609,14.41916 -13.50706,21.76224 -14.47321,23.94411 -30.48648,46.87929 -47.00803,69.3925 -7.71761,10.35004 -15.85462,20.33212 -22.65812,31.36131 -0.5991,0.9949 -1.12476,1.82946 -1.66414,2.78147 -5.24337,8.98359 -9.45349,18.85766 -10.46226,29.35184 -0.0681,0.68933 -0.15018,1.73252 -0.18504,2.5608 -0.0525,3.4414 -0.22594,6.93624 0.45251,10.32856 0.44543,1.81975 1.20562,3.65537 0.83545,5.56904 -0.26775,2.08822 -1.53648,3.85729 -3.05338,5.2162 -7.17667,7.28917 -14.31506,14.62104 -21.51567,21.88351 -1.82056,1.75573 -4.49486,2.38836 -6.92099,1.83571 -7.1001,-1.29758 -14.27681,-2.15197 -21.33517,-3.6787 -4.1891,-0.90514 -8.24718,-2.71095 -11.42948,-5.67841 -2.02924,-1.78189 -3.71711,-3.91153 -5.45103,-5.97969 0.64951,-0.40719 1.09486,-0.84806 0.38356,-1.47973 -0.63968,-0.88728 -0.43543,-2.07957 -0.70644,-3.10837 -0.95161,-5.43229 -0.40936,-10.96599 0.20903,-16.40146 0.68808,-5.73386 1.47467,-11.45661 2.2189,-17.18283 1.68866,-10.87821 5.07874,-21.40465 9.03246,-31.62752 5.51834,-13.97514 12.30355,-27.49341 20.86353,-39.80134 3.87139,-5.45077 8.02256,-10.79462 13.13244,-15.1032 2.8778,-2.30757 6.04186,-4.38103 9.56609,-5.47722 4.82995,-1.50233 2.9705,-0.82283 6.41581,-2.23365 3.17673,-1.30084 6.04402,-2.40491 8.50203,-4.73152 0.39136,-0.37212 0.82991,-0.81108 1.26189,-1.2551 4.19183,-4.32859 7.60838,-9.37718 10.50401,-14.67797 0.71347,-1.30768 1.5023,-2.87581 2.16946,-4.32417 2.52222,-5.51741 4.41347,-11.41479 4.95603,-17.49829 0.32388,-4.50011 -0.69945,-9.23778 -3.38592,-12.88495 -2.34718,-3.12039 -6.21931,-4.29857 -9.8054,-5.19933 -7.12856,-1.89122 -14.56208,-1.98164 -21.88196,-1.84132 -1.80267,0.0521 -3.84433,0.13303 -5.73706,0.25927 -8.21028,0.5412 -16.43756,1.58577 -24.34545,3.97567 -19.58758,5.54278 -38.17042,14.20873 -56.05148,23.96138 -14.28506,7.64833 -28.32624,15.76587 -42.08876,24.35105 -10.83983,6.78172 -22.05085,12.93581 -32.74815,19.95714 -9.18572,5.93365 -18.03368,12.40703 -26.45756,19.41707 -3.89295,3.1514 -7.77247,6.3276 -11.72244,9.40086 -2.26414,1.66681 -5.45662,1.84193 -7.89329,0.45708 -2.27136,-1.22971 -3.79399,-3.71758 -3.91907,-6.3325 0.0128,-2.30924 0.69039,-4.55642 1.03416,-6.83154 1.91678,-9.75016 3.14069,-19.6211 4.86076,-29.40594 1.68804,-9.85557 3.4506,-19.69991 5.43697,-29.49779 1.85752,-8.44134 4.82173,-16.66419 9.08772,-24.15721 1.43233,-2.48793 3.42513,-4.58746 5.70569,-6.28123 5.36783,-4.49961 8.83892,-10.92361 10.99696,-17.56466 1.29941,-4.350218 1.83025,-9.211886 0.112,-13.526519 -1.84245,-4.874261 -5.65268,-8.755743 -10.10428,-11.238628 -5.74999,-3.285716 -12.35836,-4.672317 -18.87993,-5.149705 -7.58298,-0.495485 -15.502,1.005259 -21.85143,5.429531 -3.4462,2.412619 -6.32009,5.549683 -9.23457,8.576379 -4.38661,4.716498 -8.35484,9.835693 -11.8435,15.274562 -0.58811,0.92069 -1.329,2.10668 -1.94336,3.14824 -1.88228,3.16601 -3.52239,6.25514 -5.10467,9.54357 -0.50118,1.0723 -1.13301,2.42132 -1.65667,3.61181 -4.33512,9.78931 -7.4698,20.08354 -9.98244,30.4995 -2.11809,8.84046 -3.85247,18.02988 -5.26978,27.03693 -2.46615,15.59885 -4.18411,31.37478 -5.66247,47.13235 -1.71459,18.73927 -3.06877,37.61299 -4.32248,56.43045 -1.00995,16.20936 -1.95762,32.35303 -1.72154,48.6071 0.19231,9.07543 0.71836,18.36652 2.79446,27.2948 0.42671,1.76857 0.94257,3.50818 1.54407,5.12754 0.64645,1.76614 1.44365,3.51867 2.30176,5.06867 2.44876,4.49771 6.14361,8.4499 10.8926,10.39099 6.03247,2.65304 12.79364,2.3871 19.18299,1.62592 6.70898,-0.64605 13.5038,-3.09951 18.3236,-8.04729 4.41263,-4.70152 6.55408,-11.08831 7.70506,-17.36773 1.29124,-6.9711 1.50052,-14.07891 2.86204,-21.04502 1.94779,-10.97351 6.78165,-21.09326 11.62593,-30.99295 3.97657,-8.10889 8.51994,-15.95396 13.96547,-23.13667 3.7355,-4.95522 7.6058,-9.80548 11.53726,-14.60003 6.90629,-7.97206 15.3555,-14.46632 24.43573,-19.65903 6.16766,-3.52821 12.76118,-6.25942 19.58265,-8.16353 7.38761,-2.1165 14.87259,-3.86606 22.36793,-5.53428 1.94907,-0.47365 4.05668,-0.8208 5.96479,0.0179 3.40754,1.26237 5.49199,5.27044 4.6062,8.85119 -2.19474,8.81284 -3.81975,17.60445 -5.33348,26.5707 -1.56187,9.47492 -2.97065,18.90455 -4.06308,28.45419 -0.48824,4.46093 -0.87462,9.01325 -1.09598,13.48189 -0.61795,13.05593 -0.079,26.61715 4.26832,39.11417 3.48455,10.15812 10.56197,19.02717 19.76616,24.35294 4.59114,2.7497 8.61778,5.0504 13.76164,6.21383 3.61735,0.81817 9.94318,2.24431 13.65082,2.2354 4.88247,-0.0117 7.20309,-0.27687 13.20309,-0.27687 -4,4 -12.68988,13.25352 -14.17152,15.28817 -8.74031,10.8854 -17.46069,21.76895 -25.84322,32.97496 -10.00757,13.30007 -20.21586,26.45957 -31.22656,38.91986 -3.62901,4.18141 -7.42851,8.20494 -11.08773,12.35749 -9.88749,11.21113 -19.84297,22.36202 -29.54242,33.74362 -17.34763,20.24493 -34.19612,40.94163 -50.23588,62.279 -12.63949,16.54969 -26.22564,32.32523 -39.45681,48.36116 -14.73052,17.9066 -29.37019,35.8892 -43.05948,54.67485 -6.65219,9.18068 -13.032539,18.4528 -18.798889,28.24018 -3.698381,5.22052 -7.394052,10.44713 -10.914958,15.79562 -6.993128,10.55495 -13.720644,21.50708 -19.607012,32.62669 -3.562163,6.77059 -6.795736,13.736 -9.280082,20.99664 -1.5768,4.36744 -3.24008,9.02631 -2.382462,13.74764 0.539085,3.10435 1.873983,5.99337 3.222636,8.80508 0.893186,1.5327 1.906567,3.10724 3.375299,4.1172 2.440607,1.35054 5.153746,2.29217 7.927884,2.54272 1.870762,-0.11703 3.699453,-0.72926 5.434975,-1.43016 4.548091,-2.03585 8.044996,-5.7638 11.740907,-9.02957 3.31233,-2.99479 6.71129,-5.91965 9.788,-9.0941 2.076342,-2.10081 4.089393,-4.24588 5.973821,-6.37372 5.383853,-6.04361 10.451691,-12.47341 14.966731,-19.14131 2.72954,-3.96009 5.09894,-8.1554 7.42855,-12.36453 5.98076,-10.29014 12.67254,-20.13819 19.68214,-29.72514 5.51215,-7.56288 11.65669,-14.611 17.46761,-21.93114 8.88088,-11.00423 17.62116,-22.12563 26.29671,-33.29807 7.73636,-9.54789 16.10674,-18.53165 24.23415,-27.72932 6.09994,-6.83243 12.12247,-13.80224 17.89651,-20.98964 9.45721,-11.61317 19.27054,-22.93313 29.64655,-33.70601 4.14607,-4.31703 8.24339,-8.70058 11.95287,-13.42022 8.24482,-10.17691 17.08153,-19.85599 25.25588,-30.08764 3.3158,-4.15031 5.5435,-7.01888 8.68795,-10.85843 4.95836,-6.05443 7.72319,-9.19844 12.62785,-15.29188 1.7413,-2.03127 9,-13 11,-15 -0.47446,5.51035 1.07493,9.70987 2,12 0.81322,2.38071 6.13732,6.07465 8.60767,5.77037 23.33958,10e-4 46.65844,1.11422 69.98831,1.6348 10.93074,0.22656 21.95974,0.23658 32.83037,-0.12032 8.67459,-0.29821 17.38427,-0.82129 25.97396,-1.59078 7.52916,-0.66256 15.03122,-1.65462 22.58461,-2.00525 16.50563,-0.86789 33.04838,-0.80791 49.56477,-0.31338 14.9737,0.44915 29.93566,1.40504 44.82415,3.10475 10.47636,1.17432 20.96198,2.41096 31.31869,4.43361 2.57424,0.50118 5.23353,0.95658 7.53727,2.21432 2.93449,1.6021 2.98662,1.38511 4.79513,6.31094 1.32657,3.61317 0.12054,7.69111 0.81629,11.48642 0.86587,5.72097 3.02117,11.24256 6.23129,16.01652 2.03226,2.96386 5.0867,5.09059 8.46153,6.15409 6.11199,2.07919 12.61693,2.37305 18.95633,3.06742 6.93635,0.67117 13.77334,1.12397 20.73294,1.40591 8.88502,0.31841 17.87187,0.56667 26.8026,-0.16092 6.82693,-0.61403 13.83875,-1.80357 19.83291,-5.38123 4.72889,-2.90655 8.72779,-7.37991 10.32155,-12.84624 1.9411,-6.07307 1.39546,-12.63535 -0.0894,-18.74399 -0.99207,-4.14343 -2.45088,-8.29062 -3.99809,-12.16049 -1.65785,-4.08712 -3.42103,-8.13925 -5.66481,-11.98376 -0.76296,-1.30698 -1.5077,-2.50834 -2.3775,-3.81391 -6.31858,-9.52518 -15.13427,-17.2073 -25.11225,-22.52273 -1.86406,-1.0119 -3.73893,-1.93477 -5.5962,-2.78481 -14.0052,-6.36597 -29.14753,-9.53326 -44.22926,-11.91953 -22.83374,-3.78194 -45.67587,-7.68059 -68.58678,-10.73036 -6.28364,-0.85184 -12.59029,-1.53377 -18.91807,-1.93205 -2.1747,-0.1354 -4.57382,-0.26303 -6.83608,-0.35665 -4.41778,-0.17034 -8.82317,-0.28715 -13.28695,-0.19027 -2.39199,-0.033 -4.80573,0.27049 -7.18061,-0.0694 -2.14848,-0.49204 -4.08393,-1.94022 -5.07757,-3.9514 -1.36109,-2.55081 -1.08798,-5.89443 0.67854,-8.17426 1.24521,-1.85451 3.42187,-2.5469 5.29295,-3.53775 3.94975,-2.32644 7.56299,-5.99547 8.41688,-10.72217 0.76948,-4.2304 -0.91356,-8.65679 -3.93263,-11.58875 -2.58637,-2.66744 -5.91529,-4.35213 -9.139,-6.06451 -1.87866,-1.04883 -3.80357,-2.31859 -4.68996,-4.39536 -1.28628,-2.69039 -0.8154,-6.15132 1.19017,-8.353 1.94913,-2.17365 4.31233,-3.91702 6.5568,-5.75891 8.89283,-6.92567 18.11634,-13.40735 26.85233,-20.54429 5.66417,-4.51903 11.04045,-9.39107 16.44332,-14.22551 10.35439,-9.17355 21.23204,-17.70643 32.17458,-26.1343 6.51236,-5.02635 12.91083,-10.21001 19.05458,-15.69842 7.96392,-6.63901 16.16116,-13.0131 23.64388,-20.22755 8.7027,-8.36509 16.8236,-17.7001 21.98746,-28.79965 3.50585,-7.5503 5.37036,-15.9929 4.6637,-24.35596 -0.096,-1.11004 -0.26107,-2.49879 -0.2866,-3.72336 -0.48181,-8.15104 -3.98361,-15.96783 -9.38607,-21.9566 -4.92529,-5.50622 -11.15755,-9.7757 -17.99937,-12.39968 -0.66519,-0.26079 -1.65638,-0.62526 -2.46024,-0.88947 -8.94013,-2.95386 -18.43579,-3.77764 -27.79097,-3.52334 -5.5513,0.20034 -11.10685,0.91033 -16.48542,2.34155 -0.53329,0.15685 -0.98556,0.30774 -1.60136,0.53458 -3.10144,1.1003 -5.64716,3.29935 -8.62336,4.66721 -6.33788,3.17304 -12.91882,5.80599 -19.33266,8.81239 -5.77795,2.63312 -11.4241,5.55918 -16.89361,8.80548 -13.69586,7.92015 -27.25171,16.08991 -41.01551,23.88685 -3.26091,1.77557 -6.50468,3.59974 -9.83098,5.23997 -2.60399,1.20617 -5.86369,0.65936 -7.97076,-1.30688 -1.623,-1.45061 -2.54904,-3.64368 -2.51785,-5.84174 0.009,-2.07905 0.98678,-4.00299 2.32739,-5.52751 6.90858,-8.88936 14.32603,-17.34799 21.46505,-26.04256 9.9292,-11.9456 19.77121,-24.01447 29.59443,-36.07007 10.21384,-12.14709 21.06254,-23.72164 31.99667,-35.19419 9.20413,-9.61612 18.61505,-19.02598 28.18431,-28.26309 7.93683,-7.878116 15.89249,-15.863424 22.31081,-25.111147 3.86359,-5.676891 7.13018,-11.995212 8.21133,-18.882237 0.81632,-6.543237 -0.7639,-13.540665 -4.95385,-18.664883 -4.2888,-5.449832 -10.21346,-9.237569 -16.2164,-12.446722 -3.55996,-1.855153 -7.50404,-3.125835 -11.53793,-3.027164 z M 476.17999,335.05554 c 3.5546,0.11724 6.74888,3.12605 7.08892,6.7408 0.33293,2.27607 -0.58485,4.51633 -1.94411,6.28434 -2.42724,3.49748 -4.62773,7.19263 -7.0426,10.6726 -2.49712,3.71946 -5.03645,7.6312 -7.19482,11.43531 -1.31688,2.15462 -2.15733,4.82408 -4.42337,6.16776 -2.528,1.72329 -6.11571,1.59125 -8.51757,-0.31127 -1.59479,-1.2395 -2.62519,-3.0621 -3.87839,-4.63345 -1.76812,-2.50512 -3.51672,-5.09577 -4.59744,-7.99398 -0.78051,-2.20222 -0.41821,-4.75727 0.85775,-6.69597 1.25548,-1.76994 3.06961,-3.02879 4.656,-4.47666 5.99188,-5.22424 12.56947,-9.71184 18.41631,-15.11401 1.68102,-1.49725 3.97851,-1.92962 6.1396,-2.07603 0.14661,1.9e-4 0.29373,-0.0227 0.43972,5.6e-4 z m -63.60735,57.32349 c 10.37773,0.17104 20.74209,0.7506 31.11436,1.1058 1.76349,0.0458 3.74331,0.10412 5.56413,-0.24354 2.41513,-0.3547 4.9528,0.54844 6.60343,2.38325 1.39385,1.48472 1.9791,3.53535 2.08838,5.55047 0.68757,6.24256 2.69293,12.5815 6.99229,17.23719 5.01615,5.58774 11.95318,8.7929 18.78409,11.43242 3.6615,1.41068 7.62884,2.80545 11.57433,3.80637 2.90457,0.74569 5.22191,3.37362 5.5805,6.41001 0.50775,3.40791 -1.57249,7.00501 -4.77201,8.15642 -1.94834,0.72965 -4.08152,0.60685 -6.11629,0.91024 -4.43733,0.45567 -9.07464,0.98067 -13.47282,1.53649 -15.84898,2.13536 -31.54702,4.65288 -47.27478,7.53264 -8.38164,1.5716 -16.86076,3.23245 -25.03013,5.49489 -17.37777,4.8164 -34.32962,11.05865 -50.43006,19.31773 -2.85777,1.43917 -5.62489,3.06136 -8.44686,4.56406 -2.18805,1.10713 -4.88717,0.95423 -6.99228,-0.28496 -1.85476,-1.10677 -3.19525,-3.0334 -3.60387,-5.18669 -0.39484,-2.15221 0.15406,-4.45162 1.48635,-6.1762 6.03924,-7.71034 12.93879,-14.6515 19.50682,-21.88396 6.2897,-6.78558 12.39616,-13.7497 18.14847,-21.01539 9.42259,-11.64202 18.8397,-23.31738 29.17227,-34.14387 1.75731,-1.75518 3.32302,-3.7388 5.28269,-5.26369 1.28094,-0.81429 2.73043,-1.23838 4.24099,-1.23968 z m 92.22507,138.69799 c -4.52111,0.0842 -9.09603,0.30271 -13.66998,0.65497 -8.87597,0.66912 -17.96031,1.79865 -26.7693,3.17919 -12.1686,1.90916 -24.26302,4.36563 -36.18444,7.19787 -18.66167,4.48227 -37.1188,9.8885 -55.20122,16.38976 -6.37747,2.31582 -12.73599,4.80765 -19.03354,7.56389 -3.35758,1.46637 -6.75268,3.04766 -10.09865,4.70438 -1.61395,0.81178 -3.43616,1.75024 -5.11177,2.646 -8.81916,4.77115 -17.37508,10.28786 -24.47039,17.51265 -11.29475,11.0685 -21.75871,23.09113 -30.56523,36.31841 -0.82764,1.25063 -1.50209,2.30186 -2.28318,3.56469 -2.17706,3.49616 -4.25401,7.13978 -5.97338,10.80102 -1.72908,3.62038 -3.09618,7.45677 -4.02949,11.29442 -0.87472,3.36699 -1.12598,7.10756 0.4389,10.31369 0.91136,2.13256 2.45551,3.9641 4.4605,5.09788 2.49031,1.50448 5.30764,2.41964 8.17464,2.79095 0.36096,0.0515 1.15577,0.12 1.69142,0.12435 2.94725,0.0278 5.80437,-0.93108 8.56494,-1.88753 3.43148,-1.26467 6.7582,-2.97883 9.86974,-4.72676 7.55767,-4.3929 14.97199,-9.03675 22.49505,-13.4907 14.96389,-8.94499 29.95098,-17.87201 45.34495,-26.0346 11.85537,-6.22281 24.0763,-12.07391 37.16319,-15.03496 7.7668,-1.71247 15.68775,-3.1168 23.66374,-2.8811 5.5563,0.2007 11.42302,1.37766 15.76881,5.1441 1.86124,1.71506 3.43452,3.73824 5.41338,5.32862 7.51445,6.5194 17.69167,10.03251 27.54959,8.65471 9.71772,-1.42414 18.64199,-6.092 26.75558,-11.53326 7.39836,-5.01296 14.32892,-10.71594 20.96045,-16.73116 7.57646,-7.02495 14.74219,-14.79648 19.52888,-24.10848 2.68327,-5.37039 4.67081,-11.30591 4.53952,-17.39673 -0.12756,-5.60059 -2.10075,-11.29806 -6.1184,-15.23438 -4.65662,-4.71432 -11.04093,-7.11402 -17.37579,-8.36573 -0.45768,-0.0812 -1.17453,-0.23598 -1.66905,-0.31784 -7.89642,-1.39936 -15.81814,-1.64121 -23.82947,-1.53832 z M 410.8644,675.43123 c -4.76633,0.0815 -9.67715,0.53156 -14.4521,1.30545 -2.14869,0.35509 -4.50919,0.80612 -6.7166,1.31423 -8.41388,1.90263 -16.55819,4.89304 -24.38909,8.53843 -15.52194,6.90183 -31.20446,13.52331 -46.10243,21.76846 -6.73485,3.77876 -13.28692,8.05126 -18.80253,13.55265 -3.97107,3.70095 -7.90571,7.45426 -11.56696,11.47836 -0.80659,0.89162 -1.80758,2.00602 -2.65731,3.01072 -7.13258,8.32429 -13.21433,17.7778 -16.65237,28.31787 -0.14891,0.47297 -0.42749,1.34179 -0.60231,1.97406 -2.3186,7.99724 -3.01065,16.54546 -1.6179,24.78127 0.9052,4.95928 2.86606,9.69145 5.55481,13.91766 0.20445,0.31434 0.66785,1.03998 0.99716,1.49842 5.50322,7.9575 13.42706,13.84113 21.90793,18.14315 2.96281,1.53041 6.23461,2.98042 9.43457,4.22826 2.49851,0.97234 5.23708,1.93599 7.87383,2.76912 9.70958,3.06441 19.70033,5.11485 29.74427,6.65111 2.31933,0.34482 4.85723,0.69013 7.19046,0.9381 2.84992,0.31698 5.70207,0.54748 8.49381,0.70084 3.21899,0.16829 6.33833,0.23277 9.59048,0.16458 10.653,-0.19174 21.51081,-1.94771 31.65551,-5.56454 13.6968,-4.79485 26.02622,-12.76953 37.87185,-21.10947 13.07901,-9.36504 25.12665,-20.54244 34.14238,-34.0744 0.87236,-1.31872 1.85806,-2.87373 2.70973,-4.32554 6.67545,-11.22412 10.89767,-24.12213 11.13367,-37.30396 0.32072,-11.14933 -2.93534,-22.31683 -8.99291,-31.59115 -6.79703,-10.55525 -16.95815,-18.56537 -28.22027,-23.65985 -1.45622,-0.66738 -3.00131,-1.30608 -4.38749,-1.83539 -10.55223,-4.0412 -21.88804,-5.78357 -33.14019,-5.58844 z m -8.09309,64.90828 c 2.67038,-0.0361 5.4265,0.64929 7.4916,2.44992 2.99101,2.45822 4.17211,6.53697 4.24871,10.32493 0.15758,7.4901 -3.32467,14.63629 -8.2178,20.06064 -2.35321,2.70316 -5.1724,5.02542 -8.4578,6.44183 -4.08712,1.79392 -8.41022,2.97483 -12.73767,3.99375 -9.03119,2.01644 -18.49359,2.28238 -27.55936,0.33851 -3.21465,-0.72223 -6.49552,-1.81247 -9.011,-4.05336 -2.00344,-1.98079 -2.55896,-4.94254 -2.79608,-7.66596 -0.25792,-3.56673 1.27584,-7.0046 3.49329,-9.68653 4.43943,-5.93909 10.92094,-9.80617 17.4189,-12.99737 6.41129,-3.20268 12.9038,-6.60145 20.03797,-7.7382 5.31764,-0.88814 10.71573,-1.16564 16.08924,-1.46816 z"
       sodipodi:nodetypes="sccccccccccccccccccccccccccssccccccccccccccccccccccccccccccccccccccccccccccccccccccccccssccccccccccccccccccccccccccccccsscccccccccccssccccccccccsccccccccccccccccccccccccccccccccccccccccccccccccsscccccccccccccccccccccccccccccccccccccccccccccccccccccccccccccccccccccccccccccccccccccccccccccccccccccccccccccccccc" />
  </g>
</svg>
