<?xml version="1.0" encoding="UTF-8" standalone="no"?>
<!-- Created with Inkscape (http://www.inkscape.org/) -->

<svg
   width="1000"
   height="1000"
   viewBox="0 0 1000 1000"
   version="1.1"
   id="svg756"
   inkscape:version="1.1 (c68e22c387, 2021-05-23)"
   sodipodi:docname="u7dd2.svg"
   xmlns:inkscape="http://www.inkscape.org/namespaces/inkscape"
   xmlns:sodipodi="http://sodipodi.sourceforge.net/DTD/sodipodi-0.dtd"
   xmlns="http://www.w3.org/2000/svg"
   xmlns:svg="http://www.w3.org/2000/svg"
   xmlns:rdf="http://www.w3.org/1999/02/22-rdf-syntax-ns#"
   xmlns:cc="http://creativecommons.org/ns#"
   xmlns:dc="http://purl.org/dc/elements/1.1/">
  <defs
     id="defs750" />
  <sodipodi:namedview
     id="base"
     pagecolor="#ffffff"
     bordercolor="#666666"
     borderopacity="1.0"
     inkscape:pageopacity="0.0"
     inkscape:pageshadow="2"
     inkscape:zoom="0.5"
     inkscape:cx="302.74496"
     inkscape:cy="362.54998"
     inkscape:document-units="px"
     inkscape:current-layer="layer1"
     showgrid="true"
     units="px"
     inkscape:window-width="1118"
     inkscape:window-height="864"
     inkscape:window-x="667"
     inkscape:window-y="86"
     inkscape:window-maximized="0"
     showguides="true"
     inkscape:guide-bbox="true"
     inkscape:pagecheckerboard="0">
    <inkscape:grid
       type="xygrid"
       id="grid758" />
    <sodipodi:guide
       position="240,200"
       orientation="0,1"
       id="guide8"
       inkscape:locked="false" />
  </sodipodi:namedview>
  <metadata
     id="metadata753">
    <rdf:RDF>
      <cc:Work
         rdf:about="">
        <dc:format>image/svg+xml</dc:format>
        <dc:type
           rdf:resource="http://purl.org/dc/dcmitype/StillImage" />
        <dc:title />
      </cc:Work>
    </rdf:RDF>
  </metadata>
  <g
     inkscape:label="Layer 1"
     inkscape:groupmode="layer"
     id="layer1"
     transform="translate(0,-32.41664)"
     style="display:inline">
    <path
       style="fill:#000000;stroke-width:8.4233"
       d="M 57.121445,883.74503 C 40.49419,865.90696 45.494689,824.79639 76.058997,728.05371 115.94617,601.80211 138.74298,566.70253 175.08144,575.59173 c 8.29192,2.02839 16.46921,6.39108 21.91856,12.82491 -0.44935,-6.43383 0.37937,-27.13332 0.37937,-42.69991 0,-26.6598 -3.37937,-71.30009 -3.37937,-90.30009 -6.39451,2.66469 -24.99659,15.0127 -37.80907,20.31766 -30.42652,12.59797 -87.019309,5.23214 -93.587842,-16.97051 -7.905502,-26.7218 2.944478,-53.44363 34.988479,-109.00075 L 131.34016,298.18564 87.835515,281.54928 C 52.339085,267.9753 36.019274,240.12993 44.10773,217.51686 c 2.85224,-7.97405 39.108517,-51.60798 80.56951,-96.96427 65.56214,-71.721773 78.04903,-81.748313 95.8416,-76.957481 11.25189,3.029694 18.71418,6.924957 26.36066,15.989491 12.92905,15.326757 0.96703,21.868583 -11.45765,40.29492 -7.34815,10.89768 -27.49097,29.62914 -34.98401,41.62548 -7.49306,11.99633 -56.23363,61.71566 -67.43784,74.91164 2,2 37.38328,16.66346 42,20 5,-5 22.30124,-24.21808 34.43686,-36.0004 26.36805,-25.60041 66.75183,-24.65412 79.18025,4.60961 7.94305,18.70255 -11.33655,24.90876 -26.76936,42.53246 0,0 -95.84775,120.85833 -115.84775,160.85833 50,-50 112,-76 112,-76 0,0 -11.43563,-22.81579 -10.65345,-33.22369 C 248.2851,286.70435 295,262.41664 322,310.41664 c 3,-43 13.47192,-56.64237 28.19875,-61.34208 C 440,220.41664 447.92908,218.45547 486,210.41664 c 0,-80 36.79427,-119.666238 55.96289,-113.039042 C 571,107.41664 566,134.41664 566,192.41664 c 30,-10 57.25594,8.12792 60,14 5,-7 39.10468,-54.37534 55.93056,-79.49277 C 735.96,46.269522 749.35462,25.499732 786.82381,69.917693 803.16874,89.293743 811.96133,81.956702 737.7169,190.27792 720.62943,215.20821 662,284.41664 642,309.41664 c 25,-5 64.43083,-34.33484 75.41898,-29.32834 18.13045,8.26073 32.84806,24.12506 32.70582,27.92072 -0.66727,17.8039 -11.38612,40.41672 -74.1294,63.70672 C 626.98797,389.90706 622,388.41664 587.71393,401.13446 560,427.41664 535,452.41664 520.60162,470.23185 520,472.41664 520,504.41664 520,512.41664 526.80272,494.00963 541.87948,479.87019 554.77602,468.04445 574,450.41664 603.36441,433.08163 612.92084,431.29792 623,429.41664 640,425.41664 653.40015,430.40839 c 10.61949,3.95591 16.59985,12.00825 34.94047,33.5775 11.7725,13.8449 23.9975,32.39727 28.51334,41.44606 5.46902,10.95878 5.61466,50.17652 5.59108,74.74804 -0.0389,40.543 -2.36636,94.2172 -5.17219,119.27602 -4.57621,40.87029 -12.09682,74.56671 -28.31137,89.12394 -18.09742,16.24764 -26.66167,17.85772 -70.93897,22.94471 -31.23125,3.58813 -62.97208,2.57133 -75.27696,-2.41146 C 534.2798,805.68505 514,804.41664 509,799.41664 c -1.91437,6.84311 -4.73032,13.39431 -12.59977,19.64682 -11.52251,9.15498 -31.67008,0.34946 -41.11474,-6.67677 -9.31538,-6.93005 -4.43696,-79.36472 -3.65542,-121.04708 1.39213,-74.24765 2.85028,-129.74182 3.36993,-140.92297 -15,15 -96,94 -106,104 51,28 49.64808,49.08224 38.28246,59.00876 -11.36561,9.92653 -29.13124,13.26139 -48.46386,8.10911 L 269.23313,702.9895 v 62.70436 c 0,27.4291 -3.79023,40.2647 -13.01064,44.06057 -7.15587,2.94591 -3.86419,14.85444 -14.68517,26.4634 -29.26314,31.39409 -32.96453,12.73206 -42.4533,-26.80561 C 192.08671,780.25588 197,670.41664 197,640.41664 c -6.48654,9.53524 -47.72773,113.6236 -56.18704,132.50105 -5.13922,11.46846 -24.45535,54.55336 -29.37926,63.77484 -10.53904,19.73759 -39.805527,62.61563 -54.312275,47.0525 z M 638,744.41664 c 12,-2 10.66546,-18.16501 13.09167,-47.17905 C 653,674.41664 653,664.41664 653,656.41664 c -8,1 -59.72416,5.88577 -80.42372,9.21589 -31.20129,5.01964 -43.40593,8.87369 -53.57628,2.78411 -0.0609,10.25185 -2.24249,79.95513 -5,91 16.29504,-7.63175 12.61136,-4.79241 34.11394,-10.4564 12.88244,-3.39336 73.45055,-1.80435 89.88606,-4.5436 z m 16,-157 c 0,-20 0.72278,-47.48328 -2.21306,-50.63291 -1.46792,-1.57481 -21.16466,-19.16658 -35.38831,-17.28749 C 602.17497,521.37534 555,599.41664 520,574.41664 c 0,15 0.68018,36.70398 0,44 2.5,-10 34.73674,-16.64579 59.59152,-20.42207 C 604.4463,594.21828 641,588.41664 654,587.41664 Z M 278.70349,394.33013 C 264,401.41664 244.42892,417.65574 236,422.41664 c 22,6 31.48961,30.90942 32.46488,38.71259 6.53512,52.28741 3.96659,57.99756 5.03309,79.2902 0.96598,19.28587 -0.49797,58.99721 0,81.93015 C 293,604.41664 332.73222,560.27135 345.39249,544.43465 355,532.41664 442.02945,446.32877 449,433.41664 c -12.5,2.5 -52.625,14.875 -83,23 1.72933,6.671 -55,16 -64,-4 -5.88247,-13.07216 -18,-46 -23.29651,-58.08651 z M 486,352.41664 c -0.24504,-21.16796 -0.24504,-45.16796 -0.24504,-65.16796 -10,0 -139.17982,33.15063 -151.75496,41.16796 10,20 16.40714,49.10446 22,63 14.40714,-3.89554 115.3131,-29.39341 130,-39 z m 94,-84 -18,4 v 22 c 8,-12 13,-17 18,-26 z"
       id="path39"
       sodipodi:nodetypes="ssscscssscsssssssccsssccscscsccssscssscccsssssssssscsssccsscsssscsssssscsccsscssccscccsscsccscccccccccc" />
  </g>
</svg>
