<?xml version="1.0" encoding="UTF-8" standalone="no"?>
<!-- Created with Inkscape (http://www.inkscape.org/) -->

<svg
   width="1000"
   height="1000"
   viewBox="0 0 1000 1000"
   version="1.1"
   id="svg756"
   inkscape:version="1.1 (c68e22c387, 2021-05-23)"
   sodipodi:docname="u7f8e.svg"
   xmlns:inkscape="http://www.inkscape.org/namespaces/inkscape"
   xmlns:sodipodi="http://sodipodi.sourceforge.net/DTD/sodipodi-0.dtd"
   xmlns="http://www.w3.org/2000/svg"
   xmlns:svg="http://www.w3.org/2000/svg"
   xmlns:rdf="http://www.w3.org/1999/02/22-rdf-syntax-ns#"
   xmlns:cc="http://creativecommons.org/ns#"
   xmlns:dc="http://purl.org/dc/elements/1.1/">
  <defs
     id="defs750" />
  <sodipodi:namedview
     id="base"
     pagecolor="#ffffff"
     bordercolor="#666666"
     borderopacity="1.0"
     inkscape:pageopacity="0.0"
     inkscape:pageshadow="2"
     inkscape:zoom="0.5"
     inkscape:cx="887"
     inkscape:cy="674"
     inkscape:document-units="px"
     inkscape:current-layer="layer1"
     showgrid="true"
     units="px"
     inkscape:window-width="1118"
     inkscape:window-height="864"
     inkscape:window-x="603"
     inkscape:window-y="72"
     inkscape:window-maximized="0"
     showguides="true"
     inkscape:guide-bbox="true"
     inkscape:pagecheckerboard="0">
    <inkscape:grid
       type="xygrid"
       id="grid758" />
    <sodipodi:guide
       position="240,200"
       orientation="0,1"
       id="guide8"
       inkscape:locked="false" />
  </sodipodi:namedview>
  <metadata
     id="metadata753">
    <rdf:RDF>
      <cc:Work
         rdf:about="">
        <dc:format>image/svg+xml</dc:format>
        <dc:type
           rdf:resource="http://purl.org/dc/dcmitype/StillImage" />
        <dc:title />
      </cc:Work>
    </rdf:RDF>
  </metadata>
  <g
     inkscape:label="Layer 1"
     inkscape:groupmode="layer"
     id="layer1"
     transform="translate(0,-32.41664)"
     style="display:inline">
    <path
       style="fill:#000000;stroke-width:7.88315"
       d="M 70.223905,920.0152 C 38.517851,909.68234 52.002344,879.21132 110.46791,806.8013 c 29.66131,-36.73576 80.61459,-103.91859 87.33361,-113.78872 -7.59787,3.12228 -56.36055,19.80189 -67.96523,23.99225 C 53.808475,744.458 3.8878301,713.41664 74.970238,676.73472 138.9732,643.70613 214.23546,620.14785 245.8271,603.21611 c 3.50409,-9.97078 31.93475,-73.98267 34.27081,-80.62986 -7.27282,1.03859 -63.18537,24.38416 -94.67259,37.637 -42.95357,18.07897 -65.96583,37.39135 -90.641242,32.48017 -16.98543,-3.38065 -38.569121,8.92761 -43.074872,2.90723 -17.714271,-23.66899 2.018072,-44.05596 72.822314,-75.2383 19.46008,-8.57026 144.07794,-61.73171 186.88002,-82.11619 0.0322,-1.11905 11.16804,-41.32359 11.00016,-42.57133 -5.19032,1.07997 -60.89013,28.7995 -97.20309,40.59711 -36.31298,11.79761 -44.10926,4.33772 -58.15607,5.62108 -13.71057,1.25263 -34.92929,6.37954 -31.61782,-12.86724 2.9954,-17.40976 61.89874,-47.36173 148.29746,-91.52924 20.4762,-10.46754 48.03686,-23.49567 50.66398,-25.33703 0.12852,-4.47619 6.30656,-49.73379 5.49198,-58.71973 -9.83755,6.41232 -51.89987,23.82733 -90.64126,46.82778 C 177.96231,342.59861 145,352.41664 118.98485,339.01027 67.60641,312.53345 92.355398,306.25549 165.4385,268.75399 c 28.63465,-14.69344 60.30755,-33.60424 71.67913,-39.66094 6.78935,-3.61613 40.3768,-22.07651 49.07844,-26.28427 C 270.84218,179.67 241.75162,147.35495 229.05604,129.19614 208.10835,99.23409 191.08102,70.830173 191.21751,66.076319 c 0.1365,-4.753855 -15.13192,-9.109757 -4.5965,-19.457555 16.52372,-16.229447 18.5858,-15.670884 40.12565,-8.492172 27.48812,9.161116 62.03991,42.074575 80.38301,76.571508 3.94727,7.42342 22.87033,32.71854 29.84179,40.27025 23.02854,-22.55171 35.54347,-39.63246 52.31518,-55.44869 45.2659,-42.687088 52.71544,-42.869421 74.23348,-37.676301 32.78764,7.912901 26.10776,8.056732 21.43037,29.992363 -1.62232,7.608248 -56.20631,65.545878 -56.10025,67.647888 5.25213,-1.93424 45.2004,-14.23603 52.91623,-14.57234 57.23353,-2.49463 103.99595,12.11445 103.43413,23.42732 -1.16899,23.53928 -52.30438,42.09738 -84.36417,35.16652 -24.79944,-5.36129 -95.18173,19.85283 -104.30013,23.6332 7.37295,4.71106 10.34385,7.33336 14.50899,10.20153 4.16516,2.86817 4.95251,39.66705 2.12449,71.75058 -2.93755,33.32622 -14.09598,93.8522 -16.46419,101.61843 6.46197,-0.91773 52.0154,-15.89852 82.79372,-23.21609 30.77833,-7.31758 73.15763,-16.82836 94.17623,-16.24618 32.33639,0.89566 58.70582,5.47605 72.05465,10.64475 14.26981,5.52531 20.36788,12.80915 17.62675,22.5409 -4.38973,15.58463 -43.25984,28.99426 -66.15339,24.70806 -21.52623,-4.03022 -196.55602,47.61409 -223.6683,57.96576 -5.51885,5.42747 -27.85575,70.28788 -33.53525,81.31059 75.76359,-22.66597 271.89385,-80.97539 288.5351,-76.06149 29.6919,8.76753 66.62852,14.51356 58.13048,27.62778 -3.97244,6.13026 -7.37374,14.55639 -7.55846,18.72473 -0.18458,4.16835 -75.59379,27.29633 -167.57568,51.39554 -118.23717,30.97809 -194.38277,56.84966 -201.57801,59.75715 9.04934,7.23106 39.56897,26.47503 80.30527,47.93149 90.01096,47.41023 122.34646,53.94384 217.84327,44.01673 44.38169,-4.61358 84.16899,-8.38047 88.41621,-8.37087 4.24724,0.0101 7.46676,8.91513 7.15451,19.7901 -0.45309,15.77953 -4.07485,10.9735 -41.64361,31.52539 -97.44328,53.30605 -190.31836,43.84272 -328.12564,-33.43375 -19.28611,-10.81483 -41.9533,-28.60626 -61.8583,-38.44449 -18.08433,25.44962 -42.42018,61.72745 -56.63028,80.59116 C 170.86255,852.60868 93.66332,932.72638 82.883186,931.00805 79.43592,930.45875 80.339247,923.31178 70.223905,920.0152 Z"
       id="path39"
       sodipodi:nodetypes="sscssccssssccssssccsssscssssscssscssscsscsssssccsssscsssssscsss" />
  </g>
</svg>
