<?xml version="1.0" encoding="UTF-8" standalone="no"?>
<!-- Created with Inkscape (http://www.inkscape.org/) -->

<svg
   width="1000"
   height="1000"
   viewBox="0 0 1000 1000"
   version="1.1"
   id="svg756"
   inkscape:version="1.1 (c68e22c387, 2021-05-23)"
   sodipodi:docname="u8003.svg"
   xmlns:inkscape="http://www.inkscape.org/namespaces/inkscape"
   xmlns:sodipodi="http://sodipodi.sourceforge.net/DTD/sodipodi-0.dtd"
   xmlns="http://www.w3.org/2000/svg"
   xmlns:svg="http://www.w3.org/2000/svg"
   xmlns:rdf="http://www.w3.org/1999/02/22-rdf-syntax-ns#"
   xmlns:cc="http://creativecommons.org/ns#"
   xmlns:dc="http://purl.org/dc/elements/1.1/">
  <defs
     id="defs750">
    <pattern
       id="EMFhbasepattern"
       patternUnits="userSpaceOnUse"
       width="6"
       height="6"
       x="0"
       y="0" />
  </defs>
  <sodipodi:namedview
     id="base"
     pagecolor="#ffffff"
     bordercolor="#666666"
     borderopacity="1.0"
     inkscape:pageopacity="0.0"
     inkscape:pageshadow="2"
     inkscape:zoom="0.5"
     inkscape:cx="671"
     inkscape:cy="436"
     inkscape:document-units="px"
     inkscape:current-layer="layer1"
     showgrid="true"
     units="px"
     inkscape:window-width="1118"
     inkscape:window-height="862"
     inkscape:window-x="709"
     inkscape:window-y="4"
     inkscape:window-maximized="0"
     showguides="true"
     inkscape:guide-bbox="true"
     inkscape:pagecheckerboard="0">
    <inkscape:grid
       type="xygrid"
       id="grid758" />
    <sodipodi:guide
       position="240,200"
       orientation="0,1"
       id="guide8"
       inkscape:locked="false" />
  </sodipodi:namedview>
  <metadata
     id="metadata753">
    <rdf:RDF>
      <cc:Work
         rdf:about="">
        <dc:format>image/svg+xml</dc:format>
        <dc:type
           rdf:resource="http://purl.org/dc/dcmitype/StillImage" />
        <dc:title />
      </cc:Work>
    </rdf:RDF>
  </metadata>
  <g
     inkscape:label="Layer 1"
     inkscape:groupmode="layer"
     id="layer1"
     transform="translate(0,-32.41664)"
     style="display:inline">
    <path
       id="path146"
       style="fill:#000000;stroke-width:11.6598"
       sodipodi:type="inkscape:offset"
       inkscape:radius="5.3926301"
       inkscape:original="M 296.38672 42.416016 C 264.52265 42.416016 259.3073 58.762035 275.72461 107.16602 C 281.99088 125.64118 284 144.41602 285 152.41602 C 277 157.41602 271.99932 159.41683 256.81836 166.92383 C 238.10476 176.17772 208.28052 189.27294 188.74023 192.72461 C 143.9269 200.64063 86.259766 235.80091 86.259766 255.20898 C 86.259766 274.32515 84.701434 274.51906 184.69922 243.01562 C 231.76379 228.18833 259.15503 214.54831 265 212.41602 C 274.47855 208.95818 284.99141 204.5897 294 201.41602 C 300 222.41602 301.28512 248.26445 305.60938 288.85547 C 316.51382 391.21392 294.99989 437.41744 220.18359 467.49609 C 193.66384 478.15792 168.4688 488.79756 135.08594 501.71875 C 101.70309 514.63995 59.060741 526.64041 44.429688 536.41602 C 17.37248 554.49405 27.419555 580.2793 61.521484 580.2793 C 90.37131 580.2793 188.44163 546.05322 261.05273 510.64258 C 288.51294 497.25092 320.03435 487.02415 336.66406 479.63867 C 353.60952 472.11295 365.71051 467.35618 380 462.41602 C 375 472.41602 367.76885 480.98965 361.92578 493.08398 C 355.08135 507.25098 331.65985 544.30267 309.87695 575.41992 C 288.09405 606.53718 252.52685 657.34455 230.83984 688.32617 C 209.15283 719.30779 191.4082 754.21699 191.4082 765.90234 C 191.4082 804.28927 225.59275 788.12744 255.85547 735.43164 C 271.35632 708.44036 305 672.41602 315 657.41602 C 320 682.41602 320.79596 686.77066 326.6543 704.40039 C 337.42221 736.80464 410.06744 730.91993 508.92578 689.63477 C 612.45734 646.39799 634.70027 651.89731 602.22461 712.70117 C 574.7786 764.08806 561.66786 768.53611 570.04492 723.61914 C 579.06474 675.25583 552.28257 695.41571 534.75977 750.17969 C 526.64164 775.55129 520 803.55734 520 812.41602 C 520 833.81251 577.36977 833.61526 604.67773 812.125 C 666.08777 763.79782 701.72841 631.11524 656.93359 617.58789 C 616.87149 605.48976 577.81971 611.56651 499.94922 642.01562 C 468.75419 654.21359 439.45839 662.99205 422.18164 667.61328 C 404.90489 672.23451 386.62421 673.4175 383.6543 670.20312 C 382.01911 668.43333 381 669.41602 380 662.41602 C 386.41033 659.49152 396.08203 652.7978 405.2168 646.2207 C 419.87564 635.66622 431.54055 621.46438 454.46289 601.98633 C 519.94123 546.34669 603.26555 456.17539 595.12305 449.76758 C 576.86618 435.40015 534.39088 461.8995 468.21484 528.94336 C 433.86355 563.74513 390 602.41602 370 622.41602 C 368 605.41602 365 597.41602 365 582.41602 C 375 567.41602 406.19059 524.89271 434.18555 480.41992 C 451.49903 452.91573 452.91267 448.79213 470 427.41602 C 487.91267 418.79213 522.19588 398.64941 535.04297 395.125 C 564.49171 387.04617 572.57422 378.4746 572.57422 355.32812 C 572.57422 339.10318 567.50019 322.416 560.36719 314.25391 C 555.82542 309.05689 555 307.41602 550 302.41602 C 554.14827 291.19 569.03628 265.08117 584.1543 243.11523 C 606.70146 210.35499 625.14844 178.92641 625.14844 173.27344 C 625.14844 167.62048 634.97059 154.45603 646.97461 144.01758 C 677.10699 117.81506 661.52431 110.18557 615.84375 128.77539 C 576.2923 144.87094 563.68008 161.51561 493.18359 290.66016 C 470.39485 332.40751 450 357.41602 435 377.41602 C 415 387.41602 403.58604 394.23507 382.43945 403.05859 C 371.84722 407.47825 375 407.41602 355 412.41602 C 365 382.41602 360.59838 346.04388 361.61719 290.6875 C 362.55617 239.66846 355 202.41602 350 182.41602 C 365 172.41602 381.62871 160.0549 392.57812 150.88281 C 406.61566 139.12386 414.85156 124.34227 414.85156 118.64453 C 414.85156 101.87514 322.44802 42.416016 296.38672 42.416016 z "
       d="m 296.38672,37.023438 c -8.42708,0 -15.49119,1.013389 -21.33594,3.851562 -5.84474,2.838173 -10.23121,7.835162 -12.23828,14.125 -4.01413,12.579675 -0.51907,29.35709 7.80469,53.89844 5.43929,16.03695 7.40569,31.56617 8.52148,40.60742 -6.16875,3.60332 -11.52971,6.06586 -24.71094,12.58398 -18.48488,9.1408 -48.45987,22.11547 -66.625,25.32422 -23.36328,4.12699 -49.35521,15.10241 -69.91601,27.63867 -10.2804,6.26813 -19.181075,12.91252 -25.742189,19.51954 -6.561113,6.60701 -11.277343,13.11418 -11.277343,20.63671 0,4.70578 -0.737276,8.95446 2.167968,13.4961 1.452623,2.27082 4.098569,3.97592 6.773438,4.60351 2.674868,0.6276 5.459757,0.5566 8.833984,0.13868 13.496912,-1.6717 37.683472,-9.53881 87.677732,-25.28907 23.69834,-7.46595 42.46169,-14.63889 56.03516,-20.21484 13.57347,-5.57595 22.49973,-9.73408 24.49219,-10.46094 7.74625,-2.82589 15.72162,-5.99687 23.24218,-8.81836 4.57221,19.27479 6.20483,43.65213 10.15821,80.76172 5.40359,50.72277 2.61866,86.84776 -10.07617,113.53906 -12.69484,26.6913 -35.31253,44.77776 -72,59.52735 -26.57502,10.68405 -51.72788,21.30608 -85.03321,34.19726 -16.49469,6.38445 -35.455368,12.60435 -52.195311,18.46875 -16.739942,5.86441 -31.029568,11.10747 -39.509765,16.77344 -7.384866,4.93413 -12.564524,10.58605 -15.423828,16.67188 -2.859305,6.08582 -3.245163,12.7035 -0.994141,18.48046 4.502044,11.55394 18.095731,18.58789 36.505859,18.5879 16.557434,0 47.727866,-8.78554 85.132816,-21.83985 37.40494,-13.05431 80.21169,-30.51725 116.76172,-48.3418 26.97106,-13.15311 58.18525,-23.26187 75.4375,-30.92382 10.97843,-4.87568 19.89117,-8.45868 28.66406,-11.78907 -3.41987,5.29187 -7.08878,11.00935 -10.44727,17.96094 -6.3503,13.14422 -29.94029,50.63239 -51.61133,81.58984 -21.78286,31.11722 -57.34999,81.92449 -79.0371,112.90626 -10.99294,15.70427 -20.95455,32.34225 -28.23829,46.67187 -3.64187,7.16481 -6.614,13.74644 -8.7207,19.42773 -2.1067,5.6813 -3.44727,10.28221 -3.44727,14.56836 0,10.39712 2.12168,18.30127 7.75782,22.99024 5.63613,4.68897 13.61611,4.20802 20.81445,0.80469 14.39667,-6.80666 30.49387,-24.67823 45.94336,-51.58008 7.42732,-12.93302 19.595,-28.59473 31.14258,-42.78711 7.89605,-9.70452 14.73479,-18.01207 20.46484,-25.3086 2.85983,13.92833 4.78563,22.19858 9.39844,36.08008 3.27958,9.86937 11.55684,16.84662 22.5,20.57227 10.94316,3.72564 24.75728,4.67985 41.1543,3.35156 32.79402,-2.65658 76.03396,-14.62558 125.8125,-35.41406 25.78201,-10.76707 46.44888,-18.46671 62.22656,-22.97852 15.77768,-4.51181 26.79075,-5.54507 32.05273,-4.24414 2.63099,0.65047 3.65987,1.50316 4.38282,2.69336 0.72294,1.1902 1.23314,3.27109 0.87695,6.73047 -0.71239,6.91875 -5.09174,18.40213 -13.07422,33.34766 -6.79268,12.71786 -12.68233,22.47706 -17.41797,29.10742 -2.94735,4.12658 -5.30177,6.49617 -6.99414,8.04101 -0.34365,-4.0959 0.27014,-11.87588 2.28906,-22.70117 2.33076,-12.49728 2.82192,-20.63726 0.50586,-26.83203 -1.15803,-3.09739 -3.92639,-6.22403 -7.58008,-6.77734 -3.65368,-0.55332 -6.60456,0.9977 -9.1582,2.91992 -5.10728,3.84444 -9.87353,10.41335 -14.91016,19.61914 -5.03662,9.20579 -10.10713,21.02071 -14.58007,35 -4.1045,12.82778 -7.82341,26.27448 -10.53516,37.70898 -2.71175,11.43451 -4.48047,20.39291 -4.48047,26.16993 0,7.75897 5.63669,13.75093 12.54102,16.9082 6.90432,3.15726 15.54926,4.45425 24.96875,4.42187 18.83896,-0.0648 40.80463,-5.50767 55.89453,-17.38281 32.19138,-25.33329 56.58358,-71.29719 67.82812,-113.1582 5.62228,-20.93051 7.95255,-40.82191 5.8086,-57.01758 -2.14395,-16.19567 -9.43258,-29.61738 -23.15625,-33.76172 -41.46893,-12.52297 -82.29251,-6.01482 -160.50586,24.56836 -30.94582,12.10052 -60.0973,20.83621 -77.19727,25.41016 -8.29068,2.21761 -16.92562,3.61769 -23.59375,4.06054 -3.33406,0.22143 -6.19356,0.19369 -8.09765,-0.0195 -1.90409,-0.21322 -2.72312,-1.24517 -1.48243,0.0977 -0.62866,-0.68041 -1.1075,-1.02629 -1.44531,-1.28711 6.69438,-3.66088 14.53683,-9.14264 22.19727,-14.6582 15.41948,-11.10215 26.96327,-25.27689 49.58789,-44.50196 32.97444,-28.01974 70.25547,-64.55745 98.40625,-95.02148 14.07539,-15.23201 25.84934,-28.91603 33.73633,-39.40234 3.94349,-5.24316 6.91084,-9.63559 8.80859,-13.35352 0.94888,-1.85897 1.66799,-3.51155 2.00977,-5.4707 0.34178,-1.95916 0.13561,-5.27652 -2.45899,-7.31836 -5.99589,-4.71853 -14.02415,-5.87987 -22.61328,-4.16797 -8.58913,1.7119 -18.13825,6.07763 -29.05859,12.89062 -21.8407,13.62599 -49.1645,37.22269 -82.40821,70.90235 -30.7728,31.17635 -68.44765,64.85399 -90.64257,86.2207 -1.5942,-9.63643 -3.10014,-17.6032 -3.26368,-27.37891 10.31293,-15.32386 40.64723,-56.80682 68.2793,-100.70312 17.08552,-27.14206 18.60471,-31.31677 34.78516,-51.63281 9.14663,-4.46731 21.50724,-11.25282 33.40429,-17.53321 12.35506,-6.52216 24.45321,-12.40823 29.5293,-13.80078 15.07223,-4.13484 25.42655,-8.45441 32.30664,-15.75 6.88009,-7.29559 9.19141,-17.04712 9.19141,-29.24805 0,-17.34923 -4.84337,-34.67281 -13.53907,-44.62304 -3.38154,-3.86941 -5.20105,-6.19861 -8.04492,-9.30078 4.81741,-11.24602 18.34473,-35.08249 32.21289,-55.23242 11.34079,-16.47777 21.64327,-32.6022 29.16211,-45.41211 3.75942,-6.40496 6.8202,-11.97211 9,-16.42579 1.0899,-2.22684 1.95898,-4.16772 2.60352,-5.88867 0.64454,-1.72094 1.17969,-2.9988 1.17969,-5.17187 0,0.29679 1.66033,-4.67487 5.34179,-9.60938 3.68147,-4.93451 8.92633,-10.61758 14.63086,-15.57812 7.80455,-6.78668 12.8723,-12.35906 15.55274,-17.69922 1.34021,-2.67008 2.19343,-5.46463 1.65625,-8.53711 -0.53719,-3.07248 -2.91019,-5.82 -5.51172,-7.09375 -5.20306,-2.5475 -11.14362,-2.00386 -19.05664,-0.41406 -7.91302,1.58979 -17.70518,4.7031 -29.34375,9.43945 -20.19149,8.21697 -34.65849,17.41306 -51.99024,40.28711 -17.33174,22.87405 -38.10277,59.40235 -73.36914,124.00781 -22.22421,40.71318 -41.97812,65.12458 -57.00781,85.10156 -19.31932,9.70555 -30.67035,16.38824 -51.08008,24.9043 -7.98438,3.33153 -10.53506,4.51023 -17.68164,6.56836 7.02969,-29.58329 3.41413,-64.20189 4.32813,-113.86328 0.90276,-49.0515 -5.92667,-85.11596 -10.96485,-106.03711 14.32862,-9.7076 29.55616,-20.9871 39.9961,-29.73242 7.47347,-6.26037 13.35133,-13.25823 17.46093,-19.5918 4.10961,-6.33357 6.74219,-11.33409 6.74219,-16.78125 0,-4.5724 -2.29905,-7.81804 -5.19922,-11.45312 -2.90017,-3.63508 -6.8003,-7.491785 -11.48828,-11.591801 C 394.18069,87.399577 381.65985,78.296916 368.31055,69.707031 354.96125,61.117146 340.81359,53.065785 328.19922,47.09375 315.58484,41.121715 304.9526,37.023438 296.38672,37.023438 Z" />
  </g>
</svg>
