<?xml version="1.0" encoding="UTF-8" standalone="no"?>
<!-- Created with Inkscape (http://www.inkscape.org/) -->

<svg
   width="1000"
   height="1000"
   viewBox="0 0 1000 1000"
   version="1.1"
   id="svg756"
   inkscape:version="1.1 (c68e22c387, 2021-05-23)"
   sodipodi:docname="u8033.svg"
   xmlns:inkscape="http://www.inkscape.org/namespaces/inkscape"
   xmlns:sodipodi="http://sodipodi.sourceforge.net/DTD/sodipodi-0.dtd"
   xmlns="http://www.w3.org/2000/svg"
   xmlns:svg="http://www.w3.org/2000/svg"
   xmlns:rdf="http://www.w3.org/1999/02/22-rdf-syntax-ns#"
   xmlns:cc="http://creativecommons.org/ns#"
   xmlns:dc="http://purl.org/dc/elements/1.1/">
  <defs
     id="defs750" />
  <sodipodi:namedview
     id="base"
     pagecolor="#ffffff"
     bordercolor="#666666"
     borderopacity="1.0"
     inkscape:pageopacity="0.0"
     inkscape:pageshadow="2"
     inkscape:zoom="0.5"
     inkscape:cx="851"
     inkscape:cy="614"
     inkscape:document-units="px"
     inkscape:current-layer="layer1"
     showgrid="true"
     units="px"
     inkscape:window-width="1118"
     inkscape:window-height="864"
     inkscape:window-x="665"
     inkscape:window-y="80"
     inkscape:window-maximized="0"
     showguides="true"
     inkscape:guide-bbox="true"
     inkscape:pagecheckerboard="0">
    <inkscape:grid
       type="xygrid"
       id="grid758" />
    <sodipodi:guide
       position="240,200"
       orientation="0,1"
       id="guide8"
       inkscape:locked="false" />
  </sodipodi:namedview>
  <metadata
     id="metadata753">
    <rdf:RDF>
      <cc:Work
         rdf:about="">
        <dc:format>image/svg+xml</dc:format>
        <dc:type
           rdf:resource="http://purl.org/dc/dcmitype/StillImage" />
        <dc:title />
      </cc:Work>
    </rdf:RDF>
  </metadata>
  <g
     inkscape:label="Layer 1"
     inkscape:groupmode="layer"
     id="layer1"
     transform="translate(0,-32.41664)"
     style="display:inline">
    <path
       style="fill:#000000;stroke-width:8.86952"
       d="m 418,892.41664 c -5.39557,-5.79151 -6.2863,-27.67981 -2.33718,-57.43245 C 422.51269,783.37735 423,729.17705 423,714.24661 c -10,3.98145 -27.64645,10.80063 -49.1575,14.69608 -28.19285,5.10548 -62.39341,6.96461 -142.58788,6.96461 -97.11018,0 -119.90839,-2.77666 -147.684729,-17.98695 -49.270742,-26.9806 -56.705046,-82.63231 -12.749828,-82.63231 11.659119,0 31.482917,7.23649 44.052907,16.08108 19.30568,13.58402 43.64366,16.08108 156.73625,16.08108 80.33592,0 132.88579,-9.08369 153.39078,-18.89757 0,-18.9119 0.94015,-20.31791 1.6009,-57.91526 C 427,567.9282 427.36283,565.85902 427,554.98848 419,549.0163 412.65744,544.83198 399.52384,538.34659 372.25,524.87874 360.24309,511.49271 325.56441,518.2583 302.10282,522.8355 290,524.13222 277.372,522.06286 265.8129,520.16868 255,520.15077 247,514.17859 c 0,3.98145 -0.77135,31.36046 -2.61946,66.46757 -2.48151,47.13946 -11.78427,63.39443 -23.88496,63.45782 -17.93308,0.094 -34.54408,-10.02911 -39.29413,-31.47754 -4.75004,-21.44843 -3.05379,-53.94292 -3.05379,-98.1272 0,-22.77979 -1.07907,-59.28185 -2.81757,-90.11851 C 150,394.73499 160,364.87409 168.55594,344.36598 c -5.25729,-47.84851 -2.8198,-75.46683 5.35483,-89.93152 8.17462,-14.4647 22.08636,-15.77574 39.77759,-11.00969 18.42037,4.96248 27.4271,12.17667 32.33716,63.19207 3.25058,33.77345 3.97448,35.36389 5.97448,53.28043 10.43873,11.6974 33.03102,23.30116 59.91979,23.30116 32.86978,0 56.86944,12.98723 66.53203,24.49042 9.66259,11.5032 4.98809,25.50381 -19.49045,35.49346 C 347.3584,447.91747 340,449.47997 330,454.45679 c 10,0 31.36929,0.88267 54.53757,9.30145 25.83833,9.38903 29.92579,16.59494 40.46243,20.55944 0,-7.96291 -10.14124,-237.45642 -17.22657,-269.90649 -4.74662,-21.73899 -5.5342,-55.75932 -2.77343,-60.55413 -3,0.99537 -4.85507,1.22753 -113.8568,34.60254 C 162.91314,227.72207 73.791949,238.30109 53.624716,216.65393 30.815752,192.1712 51.247849,154.3633 119.59608,147.82284 199.53591,140.17311 245.30851,129.46359 365.36702,90.319199 519.72815,39.990636 553.47096,31.246601 581.69268,34.261065 c 26.5743,2.83849 46.60087,55.647698 22.2563,55.647698 -21.98003,0 -120.94898,37.073497 -137.64801,44.748147 2.69903,3.14992 5.70264,6.41336 8.6004,11.11781 6.04931,9.82096 11.67832,19.65096 16.12562,66.45143 4.4473,46.80047 7.71289,130.57141 9.03538,216.27428 C 502.41421,580.90936 501,623.66855 501,632.62682 c 3.38367,2.24467 17.32465,3.74124 17.5524,15.02226 0.27603,13.6725 -8.5524,28.77372 -18.5524,33.75054 0,14.93045 -0.3942,30.97493 -1.89295,93.39772 -2.10705,87.7584 2.70639,92.81998 -3.89289,111.254 -6.59928,18.43403 -63.20878,20.32503 -76.21416,6.3653 z M 249,448.48461 c -0.0302,1.03602 -0.0125,10.62677 0,11.94436 4,-2.98609 17,-1.99073 27,-3.98145 -8.22333,-0.5287 -21,-5.97219 -27,-7.96291 z"
       id="path57"
       sodipodi:nodetypes="sscsssssscscssscssssccssscssscscscsssssscssscscssscccc" />
  </g>
</svg>
