<?xml version="1.0" encoding="UTF-8" standalone="no"?>
<!-- Created with Inkscape (http://www.inkscape.org/) -->

<svg
   width="1000"
   height="1000"
   viewBox="0 0 1000 1000"
   version="1.1"
   id="svg756"
   inkscape:version="1.1 (c68e22c387, 2021-05-23)"
   sodipodi:docname="u8131.svg"
   xmlns:inkscape="http://www.inkscape.org/namespaces/inkscape"
   xmlns:sodipodi="http://sodipodi.sourceforge.net/DTD/sodipodi-0.dtd"
   xmlns="http://www.w3.org/2000/svg"
   xmlns:svg="http://www.w3.org/2000/svg"
   xmlns:rdf="http://www.w3.org/1999/02/22-rdf-syntax-ns#"
   xmlns:cc="http://creativecommons.org/ns#"
   xmlns:dc="http://purl.org/dc/elements/1.1/">
  <defs
     id="defs750">
    <pattern
       id="EMFhbasepattern"
       patternUnits="userSpaceOnUse"
       width="6"
       height="6"
       x="0"
       y="0" />
    <pattern
       id="EMFhbasepattern-0"
       patternUnits="userSpaceOnUse"
       width="6"
       height="6"
       x="0"
       y="0" />
    <pattern
       id="EMFhbasepattern-1"
       patternUnits="userSpaceOnUse"
       width="6"
       height="6"
       x="0"
       y="0" />
  </defs>
  <sodipodi:namedview
     id="base"
     pagecolor="#ffffff"
     bordercolor="#666666"
     borderopacity="1.0"
     inkscape:pageopacity="0.0"
     inkscape:pageshadow="2"
     inkscape:zoom="0.35355339"
     inkscape:cx="939.65467"
     inkscape:cy="343.83003"
     inkscape:document-units="px"
     inkscape:current-layer="layer1"
     showgrid="true"
     units="px"
     inkscape:window-width="1118"
     inkscape:window-height="864"
     inkscape:window-x="627"
     inkscape:window-y="111"
     inkscape:window-maximized="0"
     showguides="true"
     inkscape:guide-bbox="true"
     inkscape:pagecheckerboard="0"
     inkscape:rotation="-1">
    <inkscape:grid
       type="xygrid"
       id="grid758" />
    <sodipodi:guide
       position="240,200"
       orientation="0,1"
       id="guide8"
       inkscape:locked="false" />
  </sodipodi:namedview>
  <metadata
     id="metadata753">
    <rdf:RDF>
      <cc:Work
         rdf:about="">
        <dc:format>image/svg+xml</dc:format>
        <dc:type
           rdf:resource="http://purl.org/dc/dcmitype/StillImage" />
        <dc:title />
      </cc:Work>
    </rdf:RDF>
  </metadata>
  <g
     inkscape:label="Layer 1"
     inkscape:groupmode="layer"
     id="layer1"
     transform="translate(0,-32.41664)"
     style="display:inline">
    <path
       id="path1657"
       style="fill:#000000;stroke-width:4.69637"
       d="m 190.47734,39.954039 c -1.46277,0.04921 -3.15378,0.208618 -4.46417,0.316347 -1.96207,0.201944 -3.73881,0.41383 -5.70742,0.67058 -5.73147,0.801163 -11.46305,1.625494 -17.15933,2.649945 -3.88412,0.777426 -7.6611,1.7813 -11.4161,2.904654 -13.2009,4.030946 -26.0305,9.256302 -38.39006,15.400533 -6.56671,3.352377 -12.72378,7.423001 -19.044307,11.254693 C 87.521888,77.257432 87.283967,78.576378 81,84.41664 c -1.962766,2.274909 -8.375118,8.774415 -9.683097,11.467117 -4.242036,8.732963 -11.192212,17.111223 -16.12208,25.452193 -2.986944,5.2305 -5.757712,10.79296 -8.248456,16.35578 -5.952141,13.34119 -10.740769,27.37104 -14.45808,41.56326 -3.757686,14.4849 -2.518022,29.27442 -3.493663,44.22428 -0.118638,1.8984 -0.22134,4.03124 -0.264275,5.92743 -0.150936,8.47489 0.158607,17.00212 1.651087,25.36043 0.954025,4.97069 2.285745,10.08394 5.428271,14.15596 1.311816,1.70499 3.447651,2.54194 5.555504,2.57551 C 44.219255,271.4565 50,272.41664 55,267.41664 c 0,5 -2.192096,10.91742 -0.289135,14.81839 3.088839,6.00689 4.732453,12.61144 6.45427,19.10653 4.811657,18.72881 8.238646,37.78278 11.236585,56.87703 4.971769,32.11397 8.485122,64.44254 11.195809,96.82351 2.82008,34.26755 4.678598,68.61861 5.362435,102.99706 0.358978,16.58827 0.259699,33.18115 0.124926,49.77135 -0.124554,11.84464 -0.118394,23.70021 -0.816016,35.52847 -0.356564,4.89852 -0.709046,9.85859 -2.106285,14.59064 -1.18572,4.00072 -3.881667,7.6897 -7.764965,9.3926 -2.06729,1.01138 -4.36808,1.29432 -6.588247,1.77386 -2.510356,0.78612 -4.049394,3.17045 -5.224023,5.37822 -1.903463,3.77729 -2.874781,7.94613 -3.52254,12.10474 -0.143376,0.95308 -0.31696,2.32353 -0.419451,3.27158 -1.107362,11.13025 -0.353317,22.35892 1.036529,33.4281 1.606808,11.11183 2.814523,22.27808 3.688621,33.4712 0.872133,11.07569 1.480767,22.17842 1.483989,33.29167 0.03686,1.71722 0.08514,3.50353 0.179983,5.11443 0.05568,1.18348 4.134331,2.18166 4.228219,3.39778 0.527717,5.65027 1.313842,11.42736 3.815348,16.58397 1.542836,3.22116 4.004267,6.00746 7.131188,7.75452 2.506809,1.38895 5.180089,2.55704 7.988435,3.1629 4.037306,0.83141 8.275265,-0.52587 11.431325,-3.09252 3.24183,-2.59643 5.7607,-6.02879 7.64061,-9.7148 0.95387,-2.01649 1.72101,-4.14633 2.42023,-6.17519 0.94174,-2.75908 1.76222,-5.47592 2.53601,-8.2423 2.47954,-8.85071 4.36307,-17.78121 6.13461,-26.78564 0.45859,-2.46912 0.97107,-5.05394 1.4108,-7.52866 4.04956,-22.33088 7.12684,-44.82999 9.64074,-67.38347 0.9314,-8.52096 1.79668,-17.19056 2.53117,-25.72882 1.39698,-16.1561 2.44524,-32.336 2.91899,-48.50722 0.30828,-9.38073 0.56353,-26.76555 0.90492,-36.14374 0.17653,-2.70269 0.23492,-4.33619 0.23492,-6.33619 3,0 8.93636,-0.53924 11.31692,-0.51315 11.41662,0.51824 22.83014,1.11089 34.24884,1.57908 10.0784,0.32447 20.36581,0.12744 30.3388,-1.82081 3.24637,-0.62262 6.60593,-1.46771 9.68084,-2.3798 8.07712,-2.40435 12.06799,-3.35233 20.47945,-3.6531 5.93515,-0.21222 12.7113,-0.97871 17.50884,-2.79273 3.34404,-1.01127 4.42631,-2.41949 9.42631,-2.41949 0,2 0.26686,10.11647 0.0564,12.08849 -1.5278,20.82721 -2.93875,41.6619 -4.58558,62.47952 -0.97104,11.57644 -1.90168,23.18004 -3.90039,34.63381 -1.34821,7.67883 -3.59348,15.24528 -7.2249,22.16418 -1.91371,3.91397 -4.67235,7.46088 -5.78574,11.73137 -1.12167,4.79514 -0.38666,9.76124 0.23805,14.57294 1.46552,9.72462 3.52935,19.31978 5.30172,28.99169 1.59494,8.3846 3.12342,16.78221 4.64903,25.17853 1.00763,4.70288 3.99027,9.20095 8.52434,11.095 3.83294,1.68535 8.35577,1.09446 11.9255,-0.96764 3.83376,-1.95311 7.6059,-4.41035 9.96355,-8.1145 2.85643,-4.43505 8.25298,-9.60732 9.53091,-14.67487 1.89109,-8.04729 2.93022,-16.36583 3.84669,-24.63757 1.80679,-17.02743 2.86351,-34.07325 3.90627,-51.16163 2.09333,-35.12295 4.13522,-70.25188 6.72327,-105.34192 0.96613,-12.48069 1.89919,-24.97175 3.47253,-37.39295 C 320.28013,544.75881 321,528.41664 322,522.41664 c 1,5 4.80779,6.96205 8.24299,7.93543 C 334,531.41664 338,538.41664 341,538.41664 c 0,4 0,9 -0.57826,15.19848 -0.89137,9.55484 -1.07874,12.64793 -1.57669,22.22189 -0.23603,5.94876 -0.51658,12.00769 0.11839,17.99691 0.40239,4.0104 1.68417,7.94436 3.93479,11.30065 2.22508,3.32799 4.56421,6.6332 7.48111,9.39546 4.01188,3.83591 5.34105,6.39313 10.92823,6.56593 7.38414,0.29383 14.55976,-2.79072 20.23925,-7.37245 7.21661,-5.77466 12.36961,-13.77504 15.83234,-22.28002 8.00002,-9.10299 4.80271,-31.11231 6.62084,-33.02685 3.88703,-0.44199 27.60609,4.64031 32.03535,7.2787 3.19291,1.83987 6.80546,2.77811 10.36112,3.63313 2.57462,0.60076 5.20968,0.89725 7.8525,0.87716 4.32359,0.17301 8.61318,1.1083 12.63567,2.69633 3.57129,1.45712 5.90026,4.92417 6.90345,8.54471 1.30142,4.43589 0.44234,7.70839 1.21191,11.96997 -8,1 -14.79322,1.41744 -21,3 -3.53829,0.93658 -11.40389,3.83849 -15.90223,5.29122 -7.9262,2.55973 -7.07004,2.37775 -17.44915,9.16789 -2.96323,1.93858 -5.6064,6.81683 -8.46139,8.80393 -7.06134,5.17825 -12.68994,12.01165 -17.9121,18.97862 -3.88171,5.24693 -7.51859,10.8283 -10.84626,16.34812 -6.20248,10.33485 -11.6863,21.09122 -16.64822,32.07516 -0.5746,1.3133 -1.23867,2.76884 -1.81315,4.10592 -7.01913,16.1354 -12.92018,32.76474 -17.55351,49.74513 -1.08958,4.03001 -2.15717,8.24794 -3.09753,12.38534 -1.13744,4.91166 -2.18255,10.16112 -3.04044,15.11682 -1.0298,6.03997 -1.93199,12.29699 -2.5227,18.27603 -0.33877,3.60071 -0.59436,7.23712 -0.63807,10.78817 -0.0182,4.69011 0.079,9.49426 1.55802,13.98907 0.75234,2.36452 2.17835,4.64045 4.46182,5.7674 3.21327,1.62643 6.92323,1.80853 10.45797,1.74516 3.77167,-0.10208 6.93438,-2.46682 9.76737,-4.72401 6.61409,-5.42464 12.3705,-11.7934 18.12384,-18.10138 11.73598,-13.08397 21.00549,-28.57806 32.34577,-42.00525 14.01226,-16.6809 23.98962,-29.39349 37.69457,-46.32983 3.87394,-4.78735 13.56549,-11.87205 17.88071,-16.33309 3.53822,-3.7209 21.36602,-19.90602 24.59468,-24.09042 6.77134,4.1844 14.45727,7.22864 20,10 10,5 17.71804,7.90613 25.32173,12.67032 19.67827,12.32968 27.8686,16.69693 48.33261,24.00425 9.88849,3.49931 19.8127,6.92601 29.92285,9.73267 1.81834,0.4939 3.88894,1.04242 5.74152,1.48077 5.82729,1.41235 11.77923,2.48246 17.80545,3.04772 6.05133,0.585 12.18752,0.65657 18.31258,0.51694 8.41606,-0.20284 16.86593,-0.71602 25.31389,-1.23531 8.16873,-0.54415 16.50111,-1.17956 24.67495,-2.34262 5.25458,-0.8137 10.6157,-1.64011 15.47465,-3.91119 1.45414,-0.62722 2.6455,-1.71276 3.49196,-3.04433 1.08266,-1.5092 1.93416,-3.68387 0.75682,-5.38379 -1.5931,-2.50427 -4.31698,-3.96147 -6.89279,-5.25788 -4.70165,-2.22093 -9.8181,-3.33528 -14.92448,-4.14454 -10.3192,-1.98055 -20.46934,-4.81766 -30.38303,-8.29585 -4.87381,-1.72394 -9.66663,-3.8629 -14.44431,-5.7035 -7.87051,-3.07861 -15.87065,-6.11561 -23.79087,-8.86972 -7.42981,-2.58359 -11.83565,-5.72574 -19.88053,-10.17006 -6.958,-3.84388 -19.43161,-12.34753 -28.50292,-17.76565 -12.08505,-7.21817 -23.87078,-14.94014 -35.26799,-23.20574 -5.49991,-3.95363 -11.04444,-7.85029 -16.51646,-11.83952 C 537.14818,615.85211 536,614.41664 534,612.41664 c 1,-2 4.95353,-6.40769 5.91346,-8.19292 3.47575,-5.84614 6.86131,-11.74969 10.39442,-17.55791 5.21634,-8.11451 11.4814,-15.49544 18.01463,-22.5658 5.93879,-6.41193 12.26456,-12.46173 18.95017,-18.08712 2.97246,-2.61442 5.94189,-5.44507 8.65215,-8.20697 12.0566,-12.33162 22.40551,-26.26784 31.36296,-40.99495 8.52447,-14.12319 15.89965,-29.18956 21.29463,-44.87018 3.79611,-11.17725 6.73032,-22.76618 7.32357,-34.59993 0.0934,-2.01563 0.11391,-4.2357 -0.0136,-6.12974 -0.0607,-0.90449 -0.12674,-1.60737 -0.22979,-2.54371 -0.1759,-1.6092 -0.42444,-3.20266 -0.69999,-4.70848 -2.01384,-10.6246 -5.79639,-20.83929 -10.33821,-30.62166 -3.13084,-6.68908 -6.70252,-13.17077 -10.70926,-19.37292 -0.34355,-0.50896 -0.8688,-1.30897 -1.28205,-1.92956 -4.49738,-6.73515 -9.65649,-13.03516 -15.51585,-18.62769 -9.33269,-8.95842 -19.63464,-16.89213 -30.56643,-23.78489 -7.40407,-4.66845 -18.70959,-12.88444 -27.21325,-15.00401 -9.5513,-2.38069 -16.7782,-2.09078 -24.33756,-2.20156 0.29859,-4.39185 4.92009,-11.77233 7.10031,-15.79409 3.43002,-6.32723 7.23262,-14.04033 10.37257,-20.02745 3.71256,-7.07895 4.40612,-10.57957 8.12153,-17.65822 8.06946,-15.37407 14.84082,-31.40887 20.70282,-47.74789 4.23495,-11.91039 8.00922,-24.17299 10.84913,-36.57188 1.775,-7.92948 3.31714,-15.98337 3.33449,-24.14011 0.0519,-5.18352 0.15316,-10.45987 -1.13393,-15.52071 -1.20637,-4.66308 -4.4472,-8.38782 -7.67627,-11.80171 -2.30989,-2.436 -4.74324,-4.753981 -7.28416,-6.948852 C 575,92.41664 570.33175,90.942148 566.31207,90.23104 c -3.46326,-0.636625 -6.9773,0.335314 -10.24107,1.451728 -1.88845,0.670218 -3.90085,1.591237 -5.55673,2.464702 -6.65091,3.59661 -12.6155,8.57124 -17.11851,14.67785 -4.98486,8.41379 -5.63037,20.39771 -9.39576,25.59132 -3.01262,4.1291 -12.22069,24.75875 -13.70508,29.57512 -6.29492,20.42488 -12.28776,30.59477 -24.73496,47.80106 -9.06534,12.34037 -20.30905,22.59087 -30.62039,33.9235 -5.54816,5.9954 -11.38505,11.83364 -18.1885,16.40245 -4.83699,3.19806 -26.48706,-2.30099 -32.39741,-2.62584 -5.73263,-0.26355 -11.55486,-3.02125 -14.69516,-7.96193 -2.708,-4.15512 -3.06709,-9.29907 -3.05335,-14.12686 0.10313,-8.30297 1.19591,-16.55114 2.19352,-24.78235 2.35741,-18.42699 4.88375,-36.90997 9.75843,-54.86858 3.2961,-12.02955 7.89176,-23.80654 14.71134,-34.2917 3.45916,-5.41294 7.528,-10.40012 11.79366,-15.18941 2.47269,-2.99091 5.03984,-6.10069 6.22218,-9.863955 0.86082,-2.675379 0.23067,-5.572936 -1.04264,-8.00478 -2.60516,-5.029272 -6.39907,-9.308584 -10.217,-13.439673 -1.41161,-1.505826 -2.99729,-3.139322 -4.35193,-4.435927 -3.18223,-2.95239 -6.60061,-5.813097 -10.64603,-7.485942 -1.35111,-0.509413 -2.87261,-0.965892 -4.27599,-0.375271 -8.26272,2.21317 -16.44767,4.401173 -24.56919,7.110943 -5.24947,1.814037 -10.57634,3.708038 -15.18294,6.88626 -3.64949,2.478694 -6.12165,6.33337 -7.6314,10.42464 -2.29137,6.139274 -3.46145,12.618925 -4.70932,19.031865 -1.57577,8.37781 -2.92762,16.72414 -4.19454,25.1721 -3.12771,21.13271 -5.68692,42.45617 -7.85051,63.71392 -1.49155,14.82741 -2.80461,29.64384 -3.6944,44.50975 -0.45055,8.15 -0.83112,16.32297 -0.46479,24.48387 0.0354,0.65255 0.12184,1.62877 0.2996,2.39062 0.3463,1.62078 0.9522,3.39477 1.54199,4.79526 0.30256,0.71433 0.53862,1.25232 0.89763,1.98916 0.83073,1.71688 1.78035,3.37401 2.80352,4.98248 0.45643,0.71981 1.09206,1.66823 1.65382,2.45369 2.18647,3.07633 4.65765,5.97483 7.24948,8.62274 7.94522,8.00943 15.34206,16.62711 25.67866,21.14358 3.95811,1.72945 7.4217,3.03921 11.98505,4.92389 12.94489,5.34629 15.77831,5.26838 30.43665,5.11532 -0.77068,2.06401 -15.09921,10.6792 -16.68903,12.44755 -2.66803,2.96382 -6.14533,5.02381 -9.50308,7.10202 -7.92752,4.683 -16.22547,8.72193 -24.69775,12.31151 -5.48171,2.30724 -11.10098,4.30585 -16.88151,5.71935 -6.29439,1.6497 -12.56883,3.38006 -18.87567,4.97935 C 325.1847,365.73289 324,367.41664 319,377.41664 c 0,-4 -2,-17 -2.22506,-22.97463 -0.25678,-6.81693 -1.72071,-13.45642 -2.28061,-20.23333 -1.05269,-14.887 -1.71001,-29.79801 -2.57264,-44.697 -1.12448,-19.33246 -2.42981,-38.72788 -4.0781,-58.01669 -1.98184,-23.20545 -4.39841,-46.49035 -7.86073,-69.52169 -1.30315,-8.64099 -2.75383,-17.17055 -4.51964,-25.72767 -1.67666,-8.06073 -3.61539,-16.21604 -6.01348,-24.15012 -0.76562,-2.54592 -1.58501,-5.05192 -2.44635,-7.501 -0.86146,-2.43118 -5.79434,-4.83724 -6.81141,-7.207491 -0.23797,-0.536601 -0.61076,-1.3926 -0.92185,-2.044422 -1.81171,-3.900303 -3.95325,-7.725558 -7.03135,-10.77381 -5.55648,-5.877193 -11.65772,-11.317522 -17.79311,-16.501913 -4.7226,-3.94846 -9.46422,-7.710158 -14.48565,-11.244595 -2.12467,-1.436912 -4.22511,-2.963278 -6.55882,-4.040164 -1.61626,-0.207665 -3.25082,-0.425479 -4.80918,-0.946531 -5.81393,-1.818293 -11.46878,-4.110825 -16.97639,-6.710618 -5.24932,-2.365896 -10.64573,-4.894222 -16.49359,-5.148312 -1.54661,-0.09515 -3.09678,-0.07227 -4.64467,-0.0226 z m 0.40546,58.42406 c 6.9314,0.07836 14.13313,1.185966 20.06959,4.997391 7.28434,4.58044 12.60133,11.66438 16.69354,19.12524 5.26217,9.66253 8.87964,20.11889 12.01647,30.63724 5.04728,17.24555 8.55023,34.89949 11.61581,52.59343 2.80082,16.35186 5.13236,32.78139 7.28447,49.23003 0.76389,6.57445 1.66628,13.19613 1.22197,19.82809 -0.28086,3.92709 1.04781,4.59275 0.21535,7.62712 -15,5 -11.03828,4.41485 -22.5632,6.60013 -4.00168,0.75877 -11.63119,3.54298 -15.39213,5.06519 -16.55265,7.14109 -33.05974,14.39119 -49.62635,21.49819 -8.15355,3.40821 -16.32917,6.83163 -24.80857,9.35146 -5.84602,0.92777 -14.85719,2.44474 -17.60975,2.48503 -1,-6 -1.54165,-10.70906 -1.81586,-13.10667 -0.89542,-11.31235 -1.63973,-22.63689 -2.57679,-33.94565 -0.66595,-6.99345 -1.58703,-14.00906 -3.59044,-20.75944 -0.2258,-0.75058 -0.56612,-1.78321 -0.87485,-2.63089 -1.82639,-5.16557 -4.93439,-10.05968 -9.57978,-13.0981 -4.72531,-3.18639 -10.33111,-4.57576 -15.771056,-5.98682 C 91.23615,236.60972 80,237.41664 75,237.41664 c 5,-10 5.091082,-15.8144 4.959734,-20.56232 -0.468362,-11.74736 2.381084,-23.35546 6.341907,-34.32996 4.874124,-13.21041 11.493407,-25.7468 19.320099,-37.43225 6.67742,-9.84387 14.32651,-19.17479 23.65672,-26.61378 6.05548,-4.86043 13.04767,-8.37889 20.16379,-11.39013 11.5489,-4.77183 23.84699,-7.887911 36.33923,-8.597973 1.69933,-0.08482 3.39979,-0.124235 5.10132,-0.112128 z M 265,336.41664 c 1,3 1.66704,16.06301 2.15426,20.06066 0.84574,6.93934 0.43673,9.06066 1.43673,15.06066 1.77954,10.67726 1.54716,15.75175 2.80348,26.48912 2.45225,21.61999 3.50269,43.36356 4.60482,65.08554 0.67191,13.25728 -0.63907,21.04595 7.1e-4,34.30402 -0.007,3.11028 0,5 0,15 -4.60474,1.93048 -12.1872,1.48929 -16.8249,3.33743 -7.53926,2.7101 -15.43862,4.24296 -23.32842,5.51271 -7.93669,1.21583 -15.94314,2.03011 -23.96792,2.2734 -5.00402,0.15171 -12.1798,1.91308 -16.87532,-10e-4 -4.81028,-1.96086 -6.85557,-3.64013 -11.32184,-6.18187 C 175,512.41664 166,512.41664 158.11915,511.48778 149.09892,510.42463 145,512.41664 138,512.41664 c 0,-15 -2.33103,-41.2387 -2.66663,-48.35502 -0.3764,-9.65968 -2.20199,-19.33007 -2.24694,-28.99476 0.0116,-8.81993 -0.12713,-28.8316 -0.0864,-37.65022 4.01586,-0.67251 6.7404,-2.0456 11.18325,-3.47018 4.89074,-1.48279 9.82017,-2.8434 14.68539,-4.40696 5.66988,-2.08452 11.07944,-4.80643 16.46648,-7.52583 5.60004,-2.88695 11.30167,-6.01483 16.8083,-9.23382 5.42953,-3.16384 10.759,-6.46487 16.03213,-9.97372 9.82954,-6.45981 19.79088,-10.74715 30.16287,-16.30068 3.04355,-1.56165 6.10073,-3.20255 9.41496,-4.10591 C 248.50067,342.23921 263,336.41664 265,336.41664 Z m 273.14043,13.96576 c 11.2388,-0.0251 22.41984,3.28387 31.92977,9.26695 6.26396,3.89303 11.76269,8.89859 16.84156,14.22124 7.64667,8.10573 13.85959,17.80947 16.77539,28.65107 2.99318,10.85895 2.54466,22.41224 0.10936,33.33207 -2.30683,10.36833 -6.15899,20.33248 -10.67244,29.92145 -3.30924,6.47889 -7.67446,12.34116 -12.13471,18.05871 -6.62775,8.33644 -13.65534,16.36196 -21.14154,23.93532 -4.29742,4.24767 -8.68854,8.50359 -13.84295,11.70283 -1.70602,1.06983 -3.72539,1.3183 -5.65733,1.69362 -2.69568,0.62051 -5.38296,1.279 -8.04946,2.01622 -1.03123,0.29389 -2.32431,0.66647 -3.45415,0.99335 -12.59976,3.53539 -25.78376,5.39613 -38.87048,4.39956 -7.57778,-0.61463 -15.33124,-2.3374 -21.6784,-6.72883 -6.72846,-4.45249 -13.64981,-8.74539 -21.06367,-12.06878 -5.49855,-2.43201 -11.41236,-4.26083 -17.48112,-4.11452 C 425.56253,505.62446 414,497.66664 409,497.66664 c 0,-17 -0.68408,-20.36726 1.26008,-36.13695 1.73992,-14.11305 5.53456,-33.69582 9.64703,-42.11422 9.78332,-20.02683 16.23684,-23.7902 35.6085,-39.35293 12.48923,-10.03355 29.23448,-17.5626 44.48439,-22.6459 15,-5 25.72759,-7.07253 38.14043,-7.03424 z m -211.94698,77.49823 c 2.49719,2.23379 4.55881,3.96489 6.43656,6.46298 2.7897,3.66816 4.1784,6.79894 5.94651,11.02732 3.44666,8.24259 2.7484,3.8964 4.75809,12.60654 0.92611,4.0138 1.86506,5.3048 1.66539,9.43917 -0.23542,4.87457 0,15 0,20 -10,0 -17,0 -22,5 0,-5 -0.39348,-19.40092 -0.75811,-23.22932 -0.94167,-7.86048 -0.56776,-15.81444 -0.88488,-23.70194 C 321.07192,438.39454 321,428.41664 321,419.41664 c 3,3 -0.75745,3.14079 1.22354,4.91282 z"
       sodipodi:nodetypes="scccccscscccccccccccccccccccccccccccccccccccccccccccccscccccccccccccccccccscscccccccccccccccssccccccccccccccccsccssccccccccccccccsssccccccccccccccccccsscssscccccscccccsccccccccccccccccccccccccccccccsscccccccsccccccccccccccccssccccccccscccccccccccccccccccssccccccsssscccccccccccccccccccccccccccccsssscssssscccscss" />
  </g>
</svg>
