<?xml version="1.0" encoding="UTF-8" standalone="no"?>
<!-- Created with Inkscape (http://www.inkscape.org/) -->

<svg
   width="1000"
   height="1000"
   viewBox="0 0 1000 1000"
   version="1.1"
   id="svg756"
   inkscape:version="1.1 (c68e22c387, 2021-05-23)"
   sodipodi:docname="u81ea.svg"
   xmlns:inkscape="http://www.inkscape.org/namespaces/inkscape"
   xmlns:sodipodi="http://sodipodi.sourceforge.net/DTD/sodipodi-0.dtd"
   xmlns="http://www.w3.org/2000/svg"
   xmlns:svg="http://www.w3.org/2000/svg"
   xmlns:rdf="http://www.w3.org/1999/02/22-rdf-syntax-ns#"
   xmlns:cc="http://creativecommons.org/ns#"
   xmlns:dc="http://purl.org/dc/elements/1.1/">
  <defs
     id="defs750" />
  <sodipodi:namedview
     id="base"
     pagecolor="#ffffff"
     bordercolor="#666666"
     borderopacity="1.0"
     inkscape:pageopacity="0.0"
     inkscape:pageshadow="2"
     inkscape:zoom="0.5"
     inkscape:cx="841"
     inkscape:cy="652"
     inkscape:document-units="px"
     inkscape:current-layer="layer1"
     showgrid="true"
     units="px"
     inkscape:window-width="1118"
     inkscape:window-height="864"
     inkscape:window-x="375"
     inkscape:window-y="92"
     inkscape:window-maximized="0"
     showguides="true"
     inkscape:guide-bbox="true"
     inkscape:pagecheckerboard="0">
    <inkscape:grid
       type="xygrid"
       id="grid758" />
    <sodipodi:guide
       position="240,200"
       orientation="0,1"
       id="guide8"
       inkscape:locked="false" />
  </sodipodi:namedview>
  <metadata
     id="metadata753">
    <rdf:RDF>
      <cc:Work
         rdf:about="">
        <dc:format>image/svg+xml</dc:format>
        <dc:type
           rdf:resource="http://purl.org/dc/dcmitype/StillImage" />
        <dc:title />
      </cc:Work>
    </rdf:RDF>
  </metadata>
  <g
     inkscape:label="Layer 1"
     inkscape:groupmode="layer"
     id="layer1"
     transform="translate(0,-32.41664)"
     style="display:inline">
    <path
       style="fill:#000000;stroke-width:17.0737"
       d="m 122.88126,870.11566 c 0,-25.61598 36.5736,-55.03555 174.63734,-121.86428 34.95985,-16.92206 59.16275,-28.34852 95.98167,-39.67879 6.13649,-16.99542 17.27523,-115.75267 19.0093,-171.4844 5.87724,-188.89008 -16.51592,-290.3052 -57.54081,-289.31386 -32.65173,0.78901 -125.88904,67.87383 -177.77881,155.83879 -21.08323,35.74086 -29.64544,52.00364 -30.37641,63.62457 12.27297,-5.66514 13.04081,-6.58106 30.98232,-12.68653 20.79308,-7.07586 65.20238,-13.74209 85.08619,-13.74209 19.88378,0 51.40212,-7.87018 70.0407,-17.48928 26.46805,-13.65977 36.24091,-7.04529 44.6324,14.04222 17.11142,43.0004 -14.82244,67.77454 -134.31026,75.13839 -34.84782,2.14762 -68.20351,7.98959 -104.30651,9.14812 -0.71591,27.16717 -2.45458,32.03671 -4.90918,52.58717 -2.6477,22.16715 -5.38635,31.14028 -1.80673,50.49285 19.12537,-2.97126 98.4009,-15.90757 134.45882,-38.55234 56.48884,-35.47562 68.12515,-37.86731 76.07424,-14.74998 16.38042,47.63718 -27.04207,77.86006 -121.1555,103.46179 -30.26168,8.23209 -74.9681,11.02402 -93.37756,16.68916 0,22.66056 -0.43403,44.30152 -0.43403,60.72205 0,54.57513 -39.740187,131.71785 -63.718149,124.12655 C 33.027554,866.59781 43,749.41664 63.976042,608.80058 85.77391,462.67528 96.18862,334.77233 70.721125,319.59426 40.094919,301.34166 44.729169,256.75382 85.07056,244.40687 106.57552,237.82505 177.13474,183.13188 241.86887,122.86656 323.21025,47.140386 372.5061,25.467518 384.97921,37.495517 408.71167,60.381088 342.03541,141.37801 228.17127,221.97925 c -39.31651,27.83106 -71.53934,62.84098 -89.9488,79.83639 0,16.99542 5.11374,30.48965 6.13648,45.32111 6.13649,-22.66055 24.98427,-38.03736 31.12074,-45.24742 6.02779,-7.08232 36.05882,-38.6216 83.66649,-74.91039 108.208,-82.48122 162.0468,-74.57952 199.08103,30.23129 16.07842,45.50362 25.43852,151.21036 27.10249,255.71131 1.66398,104.50096 -8.36817,207.79613 -23.07426,248.47663 -9.67027,26.75023 -34.90474,54.19603 -49.44868,60.20061 C 398.26285,827.60335 380,815.17441 380,792.41664 c -42.9554,11.33028 -60.13756,12.46331 -153.67105,67.27075 -75.11288,44.01362 -103.44769,43.65627 -103.44769,10.42827 z"
       id="path57"
       sodipodi:nodetypes="sscssscssssscscssscssssssssccsssssscss" />
  </g>
</svg>
