<?xml version="1.0" encoding="UTF-8" standalone="no"?>
<!-- Created with Inkscape (http://www.inkscape.org/) -->

<svg
   width="1000"
   height="1000"
   viewBox="0 0 1000 1000"
   version="1.1"
   id="svg756"
   inkscape:version="1.1 (c68e22c387, 2021-05-23)"
   sodipodi:docname="u8272.svg"
   xmlns:inkscape="http://www.inkscape.org/namespaces/inkscape"
   xmlns:sodipodi="http://sodipodi.sourceforge.net/DTD/sodipodi-0.dtd"
   xmlns="http://www.w3.org/2000/svg"
   xmlns:svg="http://www.w3.org/2000/svg"
   xmlns:rdf="http://www.w3.org/1999/02/22-rdf-syntax-ns#"
   xmlns:cc="http://creativecommons.org/ns#"
   xmlns:dc="http://purl.org/dc/elements/1.1/">
  <defs
     id="defs750" />
  <sodipodi:namedview
     id="base"
     pagecolor="#ffffff"
     bordercolor="#666666"
     borderopacity="1.0"
     inkscape:pageopacity="0.0"
     inkscape:pageshadow="2"
     inkscape:zoom="0.5"
     inkscape:cx="802.25833"
     inkscape:cy="625.53223"
     inkscape:document-units="px"
     inkscape:current-layer="layer1"
     showgrid="true"
     units="px"
     inkscape:window-width="1118"
     inkscape:window-height="864"
     inkscape:window-x="524"
     inkscape:window-y="70"
     inkscape:window-maximized="0"
     showguides="true"
     inkscape:guide-bbox="true"
     inkscape:pagecheckerboard="0">
    <inkscape:grid
       type="xygrid"
       id="grid758" />
    <sodipodi:guide
       position="240,200"
       orientation="0,1"
       id="guide8"
       inkscape:locked="false" />
  </sodipodi:namedview>
  <metadata
     id="metadata753">
    <rdf:RDF>
      <cc:Work
         rdf:about="">
        <dc:format>image/svg+xml</dc:format>
        <dc:type
           rdf:resource="http://purl.org/dc/dcmitype/StillImage" />
        <dc:title />
      </cc:Work>
    </rdf:RDF>
  </metadata>
  <g
     inkscape:label="Layer 1"
     inkscape:groupmode="layer"
     id="layer1"
     transform="translate(0,-32.41664)"
     style="display:inline">
    <path
       style="fill:#000000;stroke-width:4.96693"
       d="m 378.47347,836.08573 c -39.6545,-7.87141 -63.30781,-29.0881 -79.66628,-60.69435 -17.62912,-34.06122 -19.07249,-91.39836 -9.90521,-137.32706 3.95273,-19.80347 8.02341,-35.42452 12.71856,-51.64849 6.36138,-21.98163 16.27113,-43.30834 25.07072,-61.81445 8.33994,-17.53943 16.56449,-33.77185 29.48225,-50.71995 20.13015,-26.41076 31.67464,-40.70282 48.79498,-53.51946 33.14699,-24.81455 68.28762,9.18807 46.28756,45.30859 -8.7733,14.40434 -16.43766,22.80932 -24.61378,35.171 -8.10191,12.2495 -21.84384,29.9414 -26.93219,45.56245 6.47021,0 32.321,-12.81332 44.42751,-22.9808 10.806,-9.07526 25.79173,-20.75815 29.86241,-27.00657 -5.08835,-2.08281 -7.79149,-3.22742 -12.97873,-6.11478 -8.9117,-4.96051 -5.91792,-20.54253 7.745,-38.67555 7.19638,-9.55082 11.33975,-18.73529 13.08433,-27.63611 1.71119,-8.7304 5.92564,-19.93231 8.04671,-34.67497 2.42075,-16.82562 4.45609,-33.48807 4.45609,-43.90211 -10.1767,0 -10.97939,0.20916 -23.69531,2.06764 -9.59657,1.40259 -62.97404,22.77333 -118.61658,47.49056 -80.31248,35.67598 -94.8821,51.57887 -105.55588,58.35049 -23.49701,14.90686 -34.54945,21.04879 -60.48629,35.805 -4.59823,2.61607 -31.37624,14.05382 -39.00253,18.90436 -33.35253,21.21323 -78.171905,27.44409 -97.262275,13.52154 -10.168881,-7.41609 -10.917622,-10.77547 -7.042055,-31.59546 5.286498,-28.39965 25.45269,-55.04878 51.49144,-48.63265 22.12644,5.45212 54.25026,-5.81428 107.55044,-37.71986 24.72618,-14.80113 56.5211,-32.03101 70.65538,-38.28863 56.35903,-24.95159 102.04747,-48.91408 167.00948,-87.59247 53.22578,-31.69064 79.29092,-40.23863 127.03708,-84.16722 33.56863,-30.88465 59.03872,-50.53203 64.0631,-58.93476 15.23353,-25.47647 4.63536,-35.00107 -28.72307,-29.11568 -33.35845,5.88539 -81.33581,18.84953 -157.14338,55.013 -8.63566,4.11958 -20.41156,9.71535 -26.16867,12.43503 -17.43228,8.23512 -97.88477,53.71276 -122.9927,70.62579 -12.95349,8.72563 -42.44789,30.01714 -65.5431,49.8601 -41.83294,35.94205 -80.5778,58.89496 -89.81897,53.2098 -2.67358,-1.64479 -11.8771,-7.47404 -15.47701,-15.49955 -5.7563,-12.8329 -7.60428,-23.18757 2.70407,-38.06604 7.86621,-11.35364 18.45263,-20.78029 29.13151,-29.31917 2.03689,-1.62871 17.43726,-18.16402 42.6356,-43.38866 25.19835,-25.22464 55.00327,-56.46884 66.23318,-69.43157 11.2299,-12.96274 27.35607,-29.93214 35.83593,-37.70978 8.47986,-7.77764 25.87451,-27.48387 38.65477,-43.791621 24.30682,-31.015769 46.49874,-35.941014 72.90419,-33.584998 13.79671,1.231008 16.33535,3.783733 20.09861,20.210096 3.23385,14.115521 3.04846,23.990627 -0.77863,29.351613 -9.80752,13.73835 -17.0766,18.38747 -34.66593,29.74472 -17.8549,11.52872 -21.08214,13.63644 -33.29418,21.96767 10.1767,-5.20702 11.99637,-6.10485 23.22672,-11.53061 30.11891,-14.55148 34.78048,-17.62869 78.24954,-39.67598 25.69071,-13.03019 75.20831,-31.763021 96.82404,-37.127819 20.06414,-4.97971 44.23076,-10.867241 66.57771,-11.249862 22.34696,-0.38262 43.24355,3.743816 55.714,9.156003 35.59255,15.447208 48.82226,54.178698 33.40563,85.832778 -7.29808,14.98473 -24.51917,37.45785 -36.8766,49.35033 -9.13045,8.78691 -37.10309,37.54505 -68.34402,64.27598 -31.46138,26.91951 -52.36667,39.88989 -55.64986,42.95268 20.58358,2.14422 44.06563,7.31014 58.68145,14.82166 20.33526,10.45092 41.73689,24.33643 47.74284,45.33016 5.7496,20.09767 5.7496,46.13276 -12.47277,73.07505 -6.88662,10.18206 -12.29838,15.27021 -19.85934,24.48999 -11.95591,14.57894 -22.98329,23.62316 -39.14782,34.99996 -46.54517,32.75908 -48.96157,32.28777 -57.43183,37.42444 18.64696,-4.09527 19.07923,-3.88715 41.96863,-8.02366 17.74319,-3.2065 41.80923,-5.44424 47.10444,-9.49494 22.14784,-16.9425 35.41159,-7.40474 47.88263,14.40279 6.43941,11.26029 8.6333,23.85097 -0.40666,35.01297 -5.51599,6.81076 -12.63507,13.59989 -20.76252,15.26054 -26.24913,5.36339 -40.15003,7.06563 -65.63467,10.61216 -12.9461,1.80163 -37.62,4.81897 -50.29473,7.03934 -30.10481,5.27378 -62.00372,10.51724 -87.33861,16.47635 -24.46436,5.75434 -57.71644,13.55252 -72.9815,18.75954 -3.93125,16.52068 -10.76335,25.29777 -13.39367,59.4463 -4.47304,58.07196 12.70678,85.83739 49.73904,94.47246 30.99603,7.22755 89.84574,0.20897 118.22125,-10.56915 20.38002,-7.74112 48.50828,-16.99022 64.67299,-26.01234 19.91288,-11.11411 108.44853,-57.99701 113.05809,-53.84545 6.17926,5.5653 -2.61236,39.77156 -11.04538,39.77156 -6.89214,0 -39.35768,32.11908 -90.05521,62.54393 -25.92147,15.55612 -51.62718,26.23189 -77.67429,36.31418 -42.43112,16.42417 -112.74695,21.92126 -149.31767,14.66198 z M 572.04808,417.53815 c 36.00261,-36.93053 37.53284,-47.78336 9.72905,-62.57559 -10.9866,-5.84512 -21.33472,-5.94187 -28.39886,-6.42523 -1.07722,6.73178 -1.52518,12.13085 -3.58828,26.53806 -1.98069,13.83165 -2.77732,25.93289 -4.44645,35.65494 -1.99997,11.64921 -3.15964,25.2849 -4.17731,28.40911 4.54561,-3.10609 19.83382,-10.26852 30.88185,-21.60129 z"
       id="path95"
       sodipodi:nodetypes="ssssssssscscsssscsssssssssssssssssssssssssssssscsssssssscssssscsssssssscssssssssssscsscs" />
  </g>
</svg>
