<?xml version="1.0" encoding="UTF-8" standalone="no"?>
<!-- Created with Inkscape (http://www.inkscape.org/) -->

<svg
   width="1000"
   height="1000"
   viewBox="0 0 1000 1000"
   version="1.1"
   id="svg756"
   inkscape:version="1.1 (c68e22c387, 2021-05-23)"
   sodipodi:docname="u8336.svg"
   xmlns:inkscape="http://www.inkscape.org/namespaces/inkscape"
   xmlns:sodipodi="http://sodipodi.sourceforge.net/DTD/sodipodi-0.dtd"
   xmlns="http://www.w3.org/2000/svg"
   xmlns:svg="http://www.w3.org/2000/svg"
   xmlns:rdf="http://www.w3.org/1999/02/22-rdf-syntax-ns#"
   xmlns:cc="http://creativecommons.org/ns#"
   xmlns:dc="http://purl.org/dc/elements/1.1/">
  <defs
     id="defs750" />
  <sodipodi:namedview
     id="base"
     pagecolor="#ffffff"
     bordercolor="#666666"
     borderopacity="1.0"
     inkscape:pageopacity="0.0"
     inkscape:pageshadow="2"
     inkscape:zoom="0.5"
     inkscape:cx="959"
     inkscape:cy="616"
     inkscape:document-units="px"
     inkscape:current-layer="layer1"
     showgrid="true"
     units="px"
     inkscape:window-width="1118"
     inkscape:window-height="864"
     inkscape:window-x="585"
     inkscape:window-y="67"
     inkscape:window-maximized="0"
     showguides="true"
     inkscape:guide-bbox="true"
     inkscape:pagecheckerboard="0">
    <inkscape:grid
       type="xygrid"
       id="grid758" />
    <sodipodi:guide
       position="240,200"
       orientation="0,1"
       id="guide8"
       inkscape:locked="false" />
  </sodipodi:namedview>
  <metadata
     id="metadata753">
    <rdf:RDF>
      <cc:Work
         rdf:about="">
        <dc:format>image/svg+xml</dc:format>
        <dc:type
           rdf:resource="http://purl.org/dc/dcmitype/StillImage" />
        <dc:title />
      </cc:Work>
    </rdf:RDF>
  </metadata>
  <g
     inkscape:label="Layer 1"
     inkscape:groupmode="layer"
     id="layer1"
     transform="translate(0,-32.41664)"
     style="display:inline">
    <path
       style="fill:#000000;stroke-width:7.52192"
       d="m 400,872.41664 c -8.65665,-5.68469 -10.77309,-32.63451 -11.07431,-141.01478 -0.20479,-73.69288 -5.44901,-134.0929 -6.93133,-144.80011 -5.93177,1.48737 -32.52226,7.66995 -65.80985,18.87119 -78.13637,26.29282 -89.16409,28.4102 -103.77149,19.92466 -19.32372,-11.22531 -14.29931,-39.7865 10.52665,-55.45813 12.45726,-7.86377 49.83305,-22.13846 83.0573,-31.72153 33.22426,-9.58306 63.28753,-18.10619 72.81992,-20.15504 -1.05915,-6.14656 -3.77834,-33.93432 -9.05802,-70.77138 -5.18864,-36.20183 -7.67964,-67.64251 -5.53554,-69.86812 4.01321,-4.1658 32.21897,-6.53959 52.94901,-4.62527 15.01769,1.38683 28.87081,32.87668 28.87081,65.6269 0,14.02721 2.67799,31.48984 4.40748,44.37933 1.53317,11.42641 2.89071,19.22767 3.56629,25.01428 9.5324,0 31.46614,-2.43226 61.48626,0.70924 94.49682,9.88876 115.89038,26.42202 116.68488,46.21963 0.82611,20.58555 -4.20488,22.12219 -69.87249,17.93711 -27.85548,-1.77527 -68.05075,-1.44926 -100.88456,2.64844 1.05915,20.48852 2.11831,34.83049 2.11831,38.92819 9.5324,1.02443 26.14805,5.28744 57.89567,11.43082 39.86271,7.7137 249.28625,108.39811 258.83843,124.44155 1.8641,3.1308 -2.07761,11.36702 -8.75926,18.30272 -17.23508,17.89052 -60.70121,13.16659 -124.57037,-21.00202 -97.63226,-52.23113 -132.93676,-72.7829 -156.1616,-77.21309 l -26.18372,-3.71424 -1.99447,96.64432 c -1.10628,53.60583 -6.24356,101.67967 -7.87557,106.94841 -3.44027,11.10646 -39.05804,12.61411 -54.73843,2.31692 z M 220.593,794.76577 c -7.10601,-4.29619 -12.92002,-11.08768 -12.92002,-15.09214 0,-17.2424 63.16542,-122.50474 82.34471,-137.22376 25.27449,-19.39678 69.03281,-22.75579 84.69198,-6.50122 10.08177,10.46512 7.05401,16.03904 -29.09552,53.56313 -22.19153,23.03535 -47.21484,55.85385 -55.60731,72.92995 -19.4365,39.54739 -40.91966,49.55144 -69.41384,32.32404 z M 74.6895,561.83579 c -4.464909,-7.49906 2.091162,-13.49851 103.14342,-153.31643 32.48465,-44.94639 66.15925,-93.44988 76.01275,-106.95927 l 16.94976,-23.23855 -17.8333,-27.85582 c -9.50168,-14.84174 -13.5988,-25.53525 -16.77627,-31.68181 -4.23662,2.04886 -38.29519,15.71129 -72.81012,32.48034 -65.454794,31.8012 -113.233864,39.61431 -120.588628,19.7193 -2.223366,-6.0143 -4.08713,-22.23267 0.747268,-26.26302 13.429954,-11.19646 93.07492,-51.17733 132.69392,-66.61087 19.42035,-7.56517 32.65614,-15.47378 37.95192,-17.52263 -2.11831,-6.14655 -4.96253,-19.92879 -12.50724,-49.09932 -7.54471,-29.17052 -12.09626,-55.760549 -10.11456,-59.088942 6.2727,-10.535354 58.89059,-8.53586 70.5196,3.535325 6.13938,6.372824 13.40461,27.106946 16.14497,46.075817 2.74038,18.96887 3.55357,24.79732 6.5657,31.9909 6.35493,-2.04886 32.86052,-9.61359 67.27434,-18.29605 20.67393,-5.21595 35.34542,-9.36346 64.02177,-15.64783 -0.0792,-19.326284 0.29359,-26.820943 0.29359,-26.820943 -1.50144,-30.638071 0.27227,-35.205145 14.76573,-38.019455 30.37339,-5.897836 52.87733,4.76382 60.40688,28.618883 3.93405,12.46383 3.89129,15.870805 3.89129,19.968509 2.53547,-0.291763 30.52299,-6.353843 65.06778,-13.806721 51.67318,-11.148258 67.19674,-13.83489 74.31679,-3.636666 25.17314,36.056103 7.7284,45.510523 -69.98145,63.799793 -52.79372,12.42519 -68.04865,15.1452 -77.99467,20.03588 -7.41409,35.85492 -15.73406,65.63803 -19.93024,91.35923 -4.19616,25.72121 -7.9713,44.32702 -8.66696,52.06043 5.99143,2.51085 78.29604,25.25636 157.47734,47.51663 156.93384,44.11891 186.6688,54.5935 171.39614,71.41179 -27.12702,29.87235 -53.18832,23.78182 -110.64174,10.163 -62.29154,-14.76566 -330.4896,-85.99777 -345.33037,-92.35863 -13.48285,15.3513 -47.79802,52.42163 -147.12494,188.33479 -38.51428,52.70067 -45.19078,58.45188 -67.85584,58.45188 -13.8262,0 -39.094274,-11.28479 -41.48463,-15.29954 z m 315.08095,-294.2409 c 1.43418,-6.72442 2.22955,-11.17825 2.93377,-14.07819 -2.02171,1.88115 -4.77655,3.30629 -12.47252,10.53588 -9.44295,8.8707 -12.49659,12.46973 -16.36129,17.27018 7.41409,0 12.94648,0 22.47888,1.02443 1.05916,-5.12213 2.46194,-10.25481 3.42116,-14.7523 z m -8.89133,-67.67762 c 12.09664,2.03765 17.12088,5.59796 21.3575,6.62238 1.05916,-5.12213 2.63802,-13.18286 4.51382,-22.03973 1.84111,-8.69305 1.84111,-11.76633 2.90027,-18.93731 -9.5324,2.04885 -17.74032,3.49417 -30.79407,6.03419 -15.22718,2.96293 -38.1848,9.19086 -51.58907,15.00183 -10.8804,4.71685 -17.29577,6.62348 -22.59155,8.67233 2.11831,5.12213 3.28264,10.24427 7.03254,17.98708 l 7.96983,16.45617 17.53468,-17.09935 c 13.82312,-13.47994 23.06593,-16.16764 43.66605,-12.69759 z"
       id="path39"
       sodipodi:nodetypes="sscsssscssssscsssccssssscssssssssssssscscsscscsssscscssscssscccssscsssscsccsscscsscscss" />
  </g>
</svg>
