<?xml version="1.0" encoding="UTF-8" standalone="no"?>
<!-- Created with Inkscape (http://www.inkscape.org/) -->

<svg
   width="1000"
   height="1000"
   viewBox="0 0 1000 1000"
   version="1.1"
   id="svg756"
   inkscape:version="1.1 (c68e22c387, 2021-05-23)"
   sodipodi:docname="u8587.svg"
   xmlns:inkscape="http://www.inkscape.org/namespaces/inkscape"
   xmlns:sodipodi="http://sodipodi.sourceforge.net/DTD/sodipodi-0.dtd"
   xmlns="http://www.w3.org/2000/svg"
   xmlns:svg="http://www.w3.org/2000/svg"
   xmlns:rdf="http://www.w3.org/1999/02/22-rdf-syntax-ns#"
   xmlns:cc="http://creativecommons.org/ns#"
   xmlns:dc="http://purl.org/dc/elements/1.1/">
  <defs
     id="defs750" />
  <sodipodi:namedview
     id="base"
     pagecolor="#ffffff"
     bordercolor="#666666"
     borderopacity="1.0"
     inkscape:pageopacity="0.0"
     inkscape:pageshadow="2"
     inkscape:zoom="0.5"
     inkscape:cx="909"
     inkscape:cy="662"
     inkscape:document-units="px"
     inkscape:current-layer="layer1"
     showgrid="true"
     units="px"
     inkscape:window-width="1118"
     inkscape:window-height="864"
     inkscape:window-x="782"
     inkscape:window-y="40"
     inkscape:window-maximized="0"
     showguides="true"
     inkscape:guide-bbox="true"
     inkscape:pagecheckerboard="0">
    <inkscape:grid
       type="xygrid"
       id="grid758" />
    <sodipodi:guide
       position="240,200"
       orientation="0,1"
       id="guide8"
       inkscape:locked="false" />
  </sodipodi:namedview>
  <metadata
     id="metadata753">
    <rdf:RDF>
      <cc:Work
         rdf:about="">
        <dc:format>image/svg+xml</dc:format>
        <dc:type
           rdf:resource="http://purl.org/dc/dcmitype/StillImage" />
        <dc:title />
      </cc:Work>
    </rdf:RDF>
  </metadata>
  <g
     inkscape:label="Layer 1"
     inkscape:groupmode="layer"
     id="layer1"
     transform="translate(0,-32.41664)"
     style="display:inline">
    <path
       style="fill:#000000;stroke-width:7.66349"
       d="m 176.94503,863.42113 c -0.43778,-12.86299 6.00347,-77.06838 14.31387,-142.67861 8.59514,-67.85812 13.03929,-102.20672 13.93074,-118.55033 -3.26165,1.21199 -5.30205,1.10706 -10.38043,4.48963 -15.30762,10.19605 1.70547,-46.38248 17.7059,-58.42117 27.25372,-20.50559 95.77438,-19.80228 109.50493,5.42323 6.62665,12.17435 15.29227,41.12607 16.24654,76.24483 0.95425,35.11875 -5.21553,55.34525 -8.74856,76.39956 -4.9281,29.36793 -10.60089,40.83265 0.8875,25.84153 6.63743,-8.66057 16.91645,-30.51356 30.40105,-59.43965 13.48461,-28.92609 24.19565,-32.76454 28.35515,-32.90611 10.17426,-0.34627 40.49177,13.2091 20.35235,73.35323 -21.80877,65.13128 -72.8454,134.82679 -109.37621,122.51437 -21.77195,-7.33807 -47.39185,-22.99293 -36.15821,-88.47112 12.7092,-74.07886 16.2415,-113.90467 11.96502,-141.04463 -0.80797,-5.12771 -5.1556,-14.65478 -10.34332,-12.64554 -1.60056,17.66994 -5.2918,48.32494 -12.87649,123.7824 -6.80588,67.70931 -13.87657,132.64803 -15.71265,144.30823 -4.65121,29.53799 -59.05119,31.65474 -60.06726,1.80015 z m 204.83349,-26.39109 c -22.31951,-22.19437 -22.15157,-30.28562 0.5273,-25.40711 15.69387,3.37596 19.93992,-0.60949 30.86004,-28.97371 6.96431,-18.08857 19.99985,-51.38439 28.96783,-73.99077 5.43514,-13.70084 4.58235,-12.17808 10.23125,-25.48225 -9.73394,-9.67708 -20.336,-18.99734 -30.50401,-28.49601 -14.37548,-13.42919 -21.96602,-21.08986 -25.67161,-29.79405 -3.70561,-8.70417 -17.81571,-34.83854 -5.90624,-40.7487 -12.84514,-21.58214 -2.15699,-42.24894 1.88124,-62.01379 4.03822,-19.7648 9.26855,-41.89057 14.71621,-61.60648 10.8953,-39.43174 10.99254,-82.40993 10.79454,-88.22759 -0.31144,-9.1508 62.09434,-22.48555 75.18905,-22.93121 3.92221,-0.13349 5.04727,-14.08198 -4.43257,48.19105 -1.28386,8.43353 -2.98549,14.64236 -5.52128,24.62456 34.03559,-15.34182 47.05301,-23.3086 75.94652,-40.33757 40.45755,-23.84446 45.07361,-23.10405 48.86006,-14.15895 7.92177,18.71443 15.89205,64.47767 -1.84897,70.16782 -9.38659,3.01059 -59.91033,19.38777 -96.20906,38.24865 -31.00082,16.10807 -33.89035,16.93839 -44.6627,23.91083 -1.8239,7.00557 -1.94284,8.48908 -5.3544,23.01246 -3.99462,17.00538 -15.48145,44.1099 -20.71792,51.99489 11.33374,9.52297 24.79608,16.88998 41.81543,31.72427 6.07417,-15.62025 59.85065,-140.76024 68.97137,-141.07065 17.9584,-0.61119 33.9955,55.2075 2.32515,131.86579 -17.65428,42.73229 -14.24543,40.41365 -20.20102,54.80741 24.00654,23.78577 48.62571,45.24962 95.20784,60.53271 23.74694,7.79108 46.54708,10.73619 60.69463,6.66915 23.20988,-6.67224 14.33665,54.72322 -8.68744,62.90276 -17.71855,6.29469 -47.06686,7.23487 -78.2921,1.41004 -35.45627,-6.61406 -87.1323,-44.13777 -101.27071,-57.2412 -4.09935,8.94724 -13.26447,32.40402 -19.8225,51.97091 -13.89783,41.4663 -42.74932,94.13462 -51.73403,94.44041 -3.42535,0.11657 -36.66085,-26.55585 -46.1519,-35.99367 z M 87.790118,854.11332 c -2.258454,-2.93469 4.613272,-45.3158 11.598892,-94.32678 5.17533,-36.31 17.58309,-79.97116 13.9321,-114.2057 -2.75113,2.87544 -5.38479,6.1682 -11.59599,12.41441 C 89.163821,670.6274 62.895792,646.96673 51.983468,639.1691 28.071919,622.08258 78.986988,593.96397 121.14433,537.93243 c 34.39522,-45.71483 66.55577,-87.46542 66.38082,-92.60596 -0.18297,-5.37602 4.8956,-7.54669 11.9551,-5.10978 6.75026,2.33014 33.95457,34.08889 37.82253,33.95725 14.55767,-0.49545 4.33837,13.98533 -32.21483,62.92111 -41.54866,55.62345 -51.03419,68.05691 -58.39521,78.21613 11.37121,10.62263 36.47741,22.17738 36.94441,35.89896 0.75081,22.06065 -14.10203,157.14723 -28.82759,191.3446 -6.15683,14.29807 -58.77114,22.27658 -67.019442,11.55858 z M 41.931697,518.63431 c -0.190058,-5.58438 8.282342,-18.81236 18.827557,-29.39545 10.545216,-10.58309 33.523346,-42.15904 51.062526,-70.16876 41.76263,-66.69416 71.85709,-102.12852 87.18083,-102.65004 18.03263,-0.61372 45.31768,40.7683 21.43945,70.08713 -11.60411,14.24809 -32.81479,45.75142 -47.13482,70.0074 -24.14138,40.89183 -80.61522,101.38447 -95.109605,101.87777 -3.454236,0.11756 -36.075878,-34.17362 -36.265938,-39.75805 z M 250.36154,484.86582 c -6.55803,-8.73012 -14.35557,-30.10356 -13.22733,-41.98872 1.77157,-18.66206 15.85402,-29.85546 26.81053,-31.79669 7.06467,-1.25169 7.12286,-0.76157 13.43526,0.50814 -0.18713,-5.49847 -3.51209,-49.38466 -3.05114,-64.55838 0.78476,-25.83303 13.29204,-31.635 21.54085,-31.91574 7.94273,-0.27032 36.12569,4.8981 39.58421,28.63613 2.19591,15.07191 5.2333,47.20385 5.42044,52.70232 10.62267,-11.37119 23.69259,-7.60148 31.79772,-7.87733 14.25275,-0.48508 16.80967,23.4875 24.5784,43.93941 5.53534,14.57235 0.29188,31.141 -1.47798,36.47293 -6.0401,18.19661 -49.01637,40.94209 -56.05712,17.1372 -2.34238,-7.91968 -4.38258,-21.54402 -6.95231,-21.55967 -2.93569,-0.0179 -13.58015,16.81502 -20.33278,26.32223 -22.91909,32.26833 -45.02919,16.66146 -62.06875,-6.02183 z M 391.13312,256.30117 c 1.05008,-12.49196 1.63642,-12.68368 1.88245,-17.584 -38.48774,2.77362 -56.36776,5.70939 -87.35407,8.41712 0.59037,17.34673 -55.81461,20.39422 -65.63687,4.98459 -6.5306,0.0807 2.75436,1.61898 -67.20022,0.79434 C 80.28836,251.82237 39.018227,199.52835 47.482197,184.73038 49.587096,181.05031 99.0767,178.30423 157.4591,178.628 c 35.38326,0.19623 65.6394,-3.30208 79.60748,-2.91187 0.97849,-14.11049 0.62975,-14.77869 1.55775,-36.50148 3.78853,-88.681904 20.14758,-112.632256 70.57639,-113.66815 9.3065,-0.191171 10.8327,8.811531 8.53221,51.468063 -2.14711,39.812297 -4.45265,53.762127 -5.07065,92.317187 39.83269,-0.95309 52.96361,-0.79556 94.95993,-6.89169 0.72542,-11.03435 4.61778,-28.56996 9.78928,-45.47877 5.17146,-16.90881 11.89457,-29.755237 17.54152,-29.947425 9.57407,-0.325843 60.46789,5.086267 51.70225,46.498045 L 482,155.50484 l 56.56251,-3.55421 c 104.51923,-6.56764 102.0758,-5.89483 102.67069,11.58435 0.46638,13.70337 -5.04199,61.15472 -74.93499,60.06085 -44.52482,-0.69684 -80.42912,5.84346 -100.18614,7.61683 -0.87514,6.63558 -1.47965,12.07358 -2.13075,15.96354 -4.18231,24.98704 -22.97675,44.76498 -36.80613,45.23565 -8.57252,0.29176 -38.6737,-4.8051 -36.04207,-36.11068 z"
       id="path39"
       sodipodi:nodetypes="sscsssssssssssscssssscscsscssssscsssscsccsscsssscssssscssssssscsssssssssssssscssscsssssssscccssscsssccssscssscsss" />
  </g>
</svg>
