<?xml version="1.0" encoding="UTF-8" standalone="no"?>
<!-- Created with Inkscape (http://www.inkscape.org/) -->

<svg
   width="1000"
   height="1000"
   viewBox="0 0 1000 1000"
   version="1.1"
   id="svg756"
   inkscape:version="1.1 (c68e22c387, 2021-05-23)"
   sodipodi:docname="u8594.svg"
   xmlns:inkscape="http://www.inkscape.org/namespaces/inkscape"
   xmlns:sodipodi="http://sodipodi.sourceforge.net/DTD/sodipodi-0.dtd"
   xmlns="http://www.w3.org/2000/svg"
   xmlns:svg="http://www.w3.org/2000/svg"
   xmlns:rdf="http://www.w3.org/1999/02/22-rdf-syntax-ns#"
   xmlns:cc="http://creativecommons.org/ns#"
   xmlns:dc="http://purl.org/dc/elements/1.1/">
  <defs
     id="defs750" />
  <sodipodi:namedview
     id="base"
     pagecolor="#ffffff"
     bordercolor="#666666"
     borderopacity="1.0"
     inkscape:pageopacity="0.0"
     inkscape:pageshadow="2"
     inkscape:zoom="0.5"
     inkscape:cx="859"
     inkscape:cy="496"
     inkscape:document-units="px"
     inkscape:current-layer="layer1"
     showgrid="true"
     units="px"
     inkscape:window-width="1118"
     inkscape:window-height="864"
     inkscape:window-x="884"
     inkscape:window-y="83"
     inkscape:window-maximized="0"
     showguides="true"
     inkscape:guide-bbox="true"
     inkscape:pagecheckerboard="0">
    <inkscape:grid
       type="xygrid"
       id="grid758" />
    <sodipodi:guide
       position="240,200"
       orientation="0,1"
       id="guide8"
       inkscape:locked="false" />
  </sodipodi:namedview>
  <metadata
     id="metadata753">
    <rdf:RDF>
      <cc:Work
         rdf:about="">
        <dc:format>image/svg+xml</dc:format>
        <dc:type
           rdf:resource="http://purl.org/dc/dcmitype/StillImage" />
        <dc:title />
      </cc:Work>
    </rdf:RDF>
  </metadata>
  <g
     inkscape:label="Layer 1"
     inkscape:groupmode="layer"
     id="layer1"
     transform="translate(0,-32.41664)"
     style="display:inline">
    <path
       style="fill:#000000;stroke-width:7.01274"
       d="m 469.62306,863.35804 c -11.99437,-11.30788 -126.04818,-13.6502 -207.14284,-4.25406 -88.22749,10.22265 -116.6251,-32.89911 -95.60981,-51.41187 14.54039,-12.80894 225.18064,-25.02222 274.51492,-15.95256 42.63513,7.83811 58.98543,-1.81124 64.95097,-25.68779 1.97388,-7.90024 4.74407,-31.93633 6.30539,-75.63201 l 0.5752,-65.25273 -86.69025,7.33018 c -81.73824,6.91145 -99.51202,7.73006 -134.13768,-2.58864 -51.70349,-15.40803 -51.70349,-15.40803 -51.23961,38.49344 0.2576,29.93166 1.84598,55.49064 -0.74869,76.78982 -3.89445,31.96882 -49.62063,35.70611 -61.11421,36.04469 -10.05296,0.29614 -13.36785,-3.50634 -11.92612,-13.68022 1.0982,-7.74972 2.14337,-53.42344 2.32259,-101.49716 0.1792,-48.07372 3.30453,-90.56627 6.94514,-94.42787 4.29025,-4.55069 48.36442,-4.42579 77.04142,1.23285 31.29227,6.17468 80.40223,7.17286 167.75555,3.40969 41.17024,-1.77362 135.40833,-12.28222 147.66589,-5.73784 6.55018,3.49718 7.0077,17.14807 7.98385,24.50891 4.89016,36.87508 5.96527,130.81019 -1.52384,174.76995 -6.1899,36.33368 -8.67812,76.21571 -29.0642,85.44776 -23.3442,10.57159 -70.27551,14.30658 -76.86367,8.09546 z M 318.24397,770.62706 c -20.28045,-14.22089 -28.57609,-50.87592 -19.43874,-89.50824 3.28684,-13.89651 46.97676,-28.29058 65.78126,-25.16545 70.06809,11.64468 101.73292,64.72848 60.2482,115.21451 -13.42025,16.33218 -82.25423,16.52426 -106.59072,-0.54082 z m 57.85204,-41.22729 c 11.18995,-20.28427 11.22432,-17.24597 -2.23952,-23.94931 -20.79066,-10.35119 -18.04377,-13.32248 -17.14594,17.15576 0.98231,33.34584 3.62164,35.36897 19.38546,6.79355 z M 95.35215,563.19452 C 42.901801,555.32005 33.431875,510.20729 44.560406,498.4032 c 10.941849,-11.60606 92.724624,-13.31702 100.125744,-2.09469 9.29014,14.08667 78.7069,10.16625 269.65328,-15.22907 85.31299,-11.34639 212.1337,-14.66451 255.5338,-6.68575 28.60773,5.2593 35.69978,9.35352 36.03709,20.80401 0.34168,11.59889 -1.59422,53.76133 -14.5467,50.05366 -59.67207,-17.08131 -199.44407,-7.62252 -366.23679,11.46868 -73.41283,8.40289 -156.95725,17.40672 -229.77468,6.47448 z m 52.94515,-74.17438 c -0.0954,-3.23847 10.75569,-24.4577 29.00244,-59.37608 18.24674,-34.91836 15.48479,-31.56428 20.52839,-42.44087 -6.47305,2.09969 -0.66452,0.0814 -26.1553,8.78485 -66.56724,22.72829 -103.951625,15.14399 -108.199737,-32.60916 -1.155587,-12.99001 33.992527,-32.58418 41.339617,-21.44375 3.79249,5.75056 13.33526,6.71812 29.15112,2.95567 40.78174,-9.70158 79.50919,-25.04172 99.71687,-31.00102 10.72092,-22.69135 65.46817,-31.10288 71.30115,-15.18269 26.73364,-2.93312 44.34176,-7.17319 52.88517,-8.49766 0.67459,-6.46143 1.85423,-13.0023 4.75381,-35.953 3.08371,-24.40793 47.50543,-48.06884 53.08658,-50.07639 7.64603,-2.75029 9.22142,5.94553 7.92961,43.76984 -0.51301,15.02104 -2.02951,23.71998 -1.97309,34.94743 36.13154,-2.97497 74.03153,-9.88014 106.75333,-13.58049 47.35715,-5.35536 56.34379,-8.22108 52.65189,-17.05511 -3.46302,-8.28636 -1.77835,-21.62371 8.84094,-17.5579 7.50727,2.8743 22.87297,14.85951 29.87959,20.31499 10.26569,7.99304 26.13859,42.27842 26.36117,49.83419 0.25987,8.82152 -15.442,14.7667 -26.35791,14.85057 -33.59813,0.25813 -38.02018,4.0619 -49.77919,5.4811 -4.54532,12.59092 -5.88174,29.1769 -16.37817,50.73727 11.82531,10.44708 38.81914,31.20319 65.02141,33.06963 64.60723,4.60209 37.27913,45.53025 -11.99828,55.39954 -30.80929,6.17048 -41.80937,-10.2219 -87.13698,-32.34109 -1.16553,1.68958 -3.74047,5.34937 -10.85832,15.81154 -15.23482,22.39289 -68.66341,25.55509 -83.67371,18.63398 -17.40548,-8.02551 -26.458,-28.10243 -7.42931,-53.74164 9.98233,-13.45017 16.46049,-7.40466 9.56721,7.95688 -5.52692,12.31663 -5.10648,15.91342 1.82745,15.63385 12.25363,-0.49415 60.4898,-87.76684 60.01617,-103.8449 -31.38317,2.28624 -44.64504,5.0508 -72.53741,10.20445 -5.52316,30.93237 -10.1452,59.44453 -16.26534,97.31652 -2.13365,13.20325 -18.37613,29.96533 -37.30443,29.04143 -21.8625,-1.06713 -33.65853,-6.02641 -63.6125,-31.08262 -12.77457,-10.68581 -16.04053,-12.54956 -29.99679,-24.20707 -7.48117,12.28902 -12.44937,19.25976 -20.5771,32.99355 -13.41073,22.66076 -25.69949,37.42315 -32.19724,40.13869 -15.34307,6.41216 -67.97425,9.2055 -68.18311,2.11547 z M 349.34309,352.63833 c -33.548,4.91469 -18.69267,-0.73647 -52.878,8.74082 -1.40086,3.58931 -1.40086,3.58931 -4.72495,10.06011 11.85953,8.45715 6.98213,3.40105 22.76305,15.17932 9.56667,7.1402 21.03321,13.47809 23.09751,11.14559 8.07813,-9.12773 7.04181,-21.1317 11.74239,-45.12584 z m 83.11668,-85.99991 c -0.094,-3.19066 7.14331,-25.44084 16.0829,-49.44485 8.93959,-24.00403 14.24659,-34.67901 16.18035,-40.13683 -9.56317,1.39135 -97.68151,13.62537 -104.58082,17.06404 1.22974,5.32778 4.15265,10.17403 10.25694,9.99421 14.43404,-0.42521 14.9349,17.83944 0.65302,23.80815 -14.15259,5.91463 -69.3737,13.67247 -77.31634,-5.49888 -2.11762,-5.11136 -4.06939,-5.7572 -6.41607,-11.4778 -46.72094,11.61825 -78.62291,14.57352 -129.35184,31.94105 -13.40221,4.58838 -39.53314,11.12763 -58.14644,14.30759 -29.729131,5.07901 -34.303952,-39.96222 -32.473752,-50.64448 2.045986,-11.94172 40.917662,-31.92012 63.213462,-34.23711 60.74919,-6.31306 83.66966,-18.91994 142.98975,-31.81953 -0.95048,-11.67885 -3.1494,-17.39941 -3.80221,-38.72973 C 268.14998,49.523819 290,28.41664 330.58714,26.299065 c 8.36062,-0.436203 11.248,11.742007 14.10785,58.733948 1.97634,32.474047 2.79222,35.046997 3.63338,38.210867 40.74108,-6.59792 94.78295,-9.89887 137.72303,-19.58324 1.84346,-6.12607 1.75169,-7.97179 4.22835,-18.405543 2.04254,-8.604713 4.33553,-21.892393 12.15588,-20.194194 2.73538,0.593993 49.99849,13.577262 51.73369,19.718824 1.73516,6.141553 3.6728,8.265883 3.83068,13.625243 11.60851,0.22607 6.86592,-1.58467 36.94963,-3.23771 49.63811,-2.7275 86.51715,-2.82273 89.2868,-0.21164 10.10512,9.52678 -1.21006,75.88983 -15.98034,72.48862 -8.04691,-1.85298 -42.77647,-3.33301 -87.0944,-0.24296 -25.90139,1.80595 -27.108,4.39588 -39.93888,5.84665 -9.4066,24.36035 -16.40482,47.4299 -28.05376,71.09149 -7.94037,16.12872 -60.86385,27.72058 -67.38206,27.91259 -7.23592,0.21316 -13.23311,-2.22297 -13.3271,-5.41359 z"
       id="path39"
       sodipodi:nodetypes="sssssscssssssssssssssssssssssssssssssssssscsssscccssscssssssccsscsssssccssscssscccsscssccssscsssscsssccssscsssscssss" />
  </g>
</svg>
