<?xml version="1.0" encoding="UTF-8" standalone="no"?>
<!-- Created with Inkscape (http://www.inkscape.org/) -->

<svg
   width="1000"
   height="1000"
   viewBox="0 0 1000 1000"
   version="1.1"
   id="svg756"
   inkscape:version="1.1 (c68e22c387, 2021-05-23)"
   sodipodi:docname="u8840.svg"
   xmlns:inkscape="http://www.inkscape.org/namespaces/inkscape"
   xmlns:sodipodi="http://sodipodi.sourceforge.net/DTD/sodipodi-0.dtd"
   xmlns="http://www.w3.org/2000/svg"
   xmlns:svg="http://www.w3.org/2000/svg"
   xmlns:rdf="http://www.w3.org/1999/02/22-rdf-syntax-ns#"
   xmlns:cc="http://creativecommons.org/ns#"
   xmlns:dc="http://purl.org/dc/elements/1.1/">
  <defs
     id="defs750" />
  <sodipodi:namedview
     id="base"
     pagecolor="#ffffff"
     bordercolor="#666666"
     borderopacity="1.0"
     inkscape:pageopacity="0.0"
     inkscape:pageshadow="2"
     inkscape:zoom="0.5"
     inkscape:cx="901"
     inkscape:cy="672"
     inkscape:document-units="px"
     inkscape:current-layer="layer1"
     showgrid="true"
     units="px"
     inkscape:window-width="1118"
     inkscape:window-height="864"
     inkscape:window-x="646"
     inkscape:window-y="65"
     inkscape:window-maximized="0"
     showguides="true"
     inkscape:guide-bbox="true"
     inkscape:pagecheckerboard="0">
    <inkscape:grid
       type="xygrid"
       id="grid758" />
    <sodipodi:guide
       position="240,200"
       orientation="0,1"
       id="guide8"
       inkscape:locked="false" />
  </sodipodi:namedview>
  <metadata
     id="metadata753">
    <rdf:RDF>
      <cc:Work
         rdf:about="">
        <dc:format>image/svg+xml</dc:format>
        <dc:type
           rdf:resource="http://purl.org/dc/dcmitype/StillImage" />
        <dc:title />
      </cc:Work>
    </rdf:RDF>
  </metadata>
  <g
     inkscape:label="Layer 1"
     inkscape:groupmode="layer"
     id="layer1"
     transform="translate(0,-32.41664)"
     style="display:inline">
    <path
       style="fill:#000000;stroke-width:9.78869"
       d="M 76.230161,882.07071 C 51.701662,871.94058 17.256971,829.15339 72.266101,785.7196 112.80004,753.71502 165.60023,761.28377 128.42857,793.73609 118.74603,802.18933 107,811.41664 99.38095,819.09579 112,816.41664 118.92575,815.4001 128.37441,812.37663 147,806.41664 145,806.41664 166,796.41664 c 0,-20 4.94353,-66.43129 5.14249,-73.72292 1.28608,-47.13422 20.83226,-149.57142 13.63485,-217.08993 -15.43475,-144.79243 -16.01428,-160.67963 -10.02671,-185.06195 4.86668,-19.81787 47.99655,-31.03018 54.13267,-18.02859 6.13613,13.0016 4.77343,40.68157 11.64481,87.57718 6.97818,47.62452 8.47189,67.32621 10.38927,76.42352 8.08262,-14.09731 9.01041,-18.50252 29.90652,-40.17176 42.14436,-43.70364 128.17073,-101.10561 187.85863,-129.12452 22.17254,-10.40832 65.35748,-19.49522 90.30159,-18.57704 37.14554,1.36728 72.81218,7.2981 103.10702,40.21462 25.20348,27.38456 33.15893,84.00241 35.07258,123.91653 1.91364,39.91412 -7.01161,84.11465 -25.16372,128.64486 11.2029,-1.00986 17.62681,-5.35131 37.05671,-11.14231 12.94329,-3.85769 37.11863,43.26235 36.29748,47.5762 -6.22221,32.68794 -147.11171,57.74013 -189.12686,61.72804 -43.0149,4.0828 -108.7235,40.24909 -194.2694,91.80078 -108.73395,65.52528 -169.44838,95.90969 -219.70738,111.41817 -23.80574,7.34577 -45.211464,17.86716 -66.020389,9.27319 z M 267.20443,747.52336 c 15.64215,-7.65931 40.7674,-26.65683 63.91639,-38.63288 11.5745,-5.98802 61.19068,-35.22271 67.87918,-41.47384 -4,0 -8.55068,-0.51872 -10,-2 -10,5 -37.23482,20.34066 -55.45104,31.84711 -18.21623,11.50646 -38.05256,20.92083 -44.08072,20.92083 -20.95562,0 -12.2105,-26.98834 26.03028,-51.09939 C 334.47926,655.11771 339,652.41664 349,642.41664 c -10,-10 -16.82843,-25 -13.77602,-47.44749 4.4361,-32.62317 17.68226,-70.45786 17.46255,-99.22838 C 352.44416,464.00294 353,458.41664 352,441.41664 c -7.20788,4.82745 -26.15058,16.5029 -54.7696,49.94043 -23.82416,27.83537 -29.69873,46.86285 -38.48641,69.74368 -8.78768,22.88083 -10.2812,54.09942 -14.39368,97.29236 C 242.20599,680.91468 238,724.41664 234.73964,764.82582 244,760.41664 247,757.41664 267.20443,747.52336 Z M 476.15872,628.49972 c 29.28968,-14.7587 55.76849,-23.53381 78.39735,-29.278 53.90233,-13.68276 72.50597,-61.949 73.82903,-149.17727 1.02019,-67.26046 -7.28457,-88.15317 -52.01346,-104.61446 C 525.77113,326.80781 435.81169,384.09741 410,402.41664 c 0.80799,11.83412 2.60588,55.46142 -1.12373,99.00384 -2.26037,26.38935 -11.99839,71.14329 -8.78111,73.16804 2.90484,1.82812 10.30558,-16.38935 18.45837,-29.58402 13.4521,-21.77121 20.48077,-35.92603 20.50797,-31.45515 0.0272,4.47086 2.85262,6.8886 2.9385,12.86729 7.7149,-7.88497 20.3909,-57.10303 22.03033,-86.43351 2.3068,-41.27045 16.7518,-53.8642 29.9141,-56.42163 14.45855,-2.8093 28.94445,4.61854 28.94445,50.62996 0,65.32977 -37.02253,150.31217 -80.32749,192.21567 C 442,637.41664 438,641.41664 433.64285,650.84382 444,645.41664 446.86904,643.25843 476.15872,628.49972 Z M 267.75793,333.12341 c 0,-6.12316 2.80863,-16.88301 12.65804,-16.88301 48.89311,0 202.47291,-157.77113 202.47291,-203.17732 0,-19.931612 10.32262,-34.477273 40.63765,-57.262686 76.80396,-57.727505 115.5189,-12.650931 51.48262,74.957266 -52.93892,72.42588 -122.01047,139.2978 -185.83549,179.91747 -53.73639,34.19904 -121.41573,40.76988 -121.41573,22.44828 z"
       id="path95"
       sodipodi:nodetypes="ssscscssssscssssscssssssssccssscsscssscssssscsssscsssccssssssss" />
  </g>
</svg>
