<?xml version="1.0" encoding="UTF-8" standalone="no"?>
<!-- Created with Inkscape (http://www.inkscape.org/) -->

<svg
   width="1000"
   height="1000"
   viewBox="0 0 1000 1000"
   version="1.1"
   id="svg756"
   inkscape:version="1.1 (c68e22c387, 2021-05-23)"
   sodipodi:docname="u884c.svg"
   xmlns:inkscape="http://www.inkscape.org/namespaces/inkscape"
   xmlns:sodipodi="http://sodipodi.sourceforge.net/DTD/sodipodi-0.dtd"
   xmlns="http://www.w3.org/2000/svg"
   xmlns:svg="http://www.w3.org/2000/svg"
   xmlns:rdf="http://www.w3.org/1999/02/22-rdf-syntax-ns#"
   xmlns:cc="http://creativecommons.org/ns#"
   xmlns:dc="http://purl.org/dc/elements/1.1/">
  <defs
     id="defs750" />
  <sodipodi:namedview
     id="base"
     pagecolor="#ffffff"
     bordercolor="#666666"
     borderopacity="1.0"
     inkscape:pageopacity="0.0"
     inkscape:pageshadow="2"
     inkscape:zoom="0.5"
     inkscape:cx="880.19066"
     inkscape:cy="623.52017"
     inkscape:document-units="px"
     inkscape:current-layer="layer1"
     showgrid="true"
     units="px"
     inkscape:window-width="1118"
     inkscape:window-height="864"
     inkscape:window-x="580"
     inkscape:window-y="79"
     inkscape:window-maximized="0"
     showguides="true"
     inkscape:guide-bbox="true"
     inkscape:pagecheckerboard="0">
    <inkscape:grid
       type="xygrid"
       id="grid758" />
    <sodipodi:guide
       position="240,200"
       orientation="0,1"
       id="guide8"
       inkscape:locked="false" />
  </sodipodi:namedview>
  <metadata
     id="metadata753">
    <rdf:RDF>
      <cc:Work
         rdf:about="">
        <dc:format>image/svg+xml</dc:format>
        <dc:type
           rdf:resource="http://purl.org/dc/dcmitype/StillImage" />
        <dc:title />
      </cc:Work>
    </rdf:RDF>
  </metadata>
  <g
     inkscape:label="Layer 1"
     inkscape:groupmode="layer"
     id="layer1"
     transform="translate(0,-32.41664)"
     style="display:inline">
    <path
       id="path111"
       style="fill:#000000;stroke-width:11.3907"
       d="m 350.44141,33.351562 c -10.18134,0.24385 -21.34221,5.448404 -28.31911,10.956918 -7.6449,6.035925 -13.99552,13.551558 -19.60082,21.47277 -5.27617,7.456089 -10.21812,16.137156 -13.81054,23.435547 -5.31117,10.790223 -9.80525,22.185613 -13.2976,33.767013 -3.74056,12.40452 -10.94295,24.6856 -16.9705,34.6626 -9.94157,16.45562 -21.12656,32.12018 -32.60483,47.52946 -18.67115,25.06553 -38.38277,49.35163 -58.89051,72.93599 -18.70206,21.50778 -38.02552,42.49625 -58.3335,62.4999 -11.227781,11.05952 -22.766184,21.83521 -35.050826,31.72195 -3.719956,2.99384 -7.671449,5.67943 -11.449893,8.59402 -10.299241,7.94457 -19.654381,18.92864 -22.056798,31.42074 -1.280154,6.65655 -0.375896,13.80595 3.056633,19.7241 2.595458,4.47492 5.57287,8.90879 9.884566,11.89772 6.121533,4.24354 14.116145,5.53288 21.294294,3.58879 6.175893,-1.67264 11.76482,-4.92882 17.121802,-8.32914 10.406942,-6.60576 20.048372,-14.32729 29.627872,-22.06319 16.58074,-13.38973 32.81085,-27.20566 49.14083,-40.89859 6.26053,-5.27757 12.50618,-10.83097 18.51563,-16.39779 22.22034,-20.61522 43.0607,-42.67736 63.0326,-65.46424 17.85043,-20.36639 34.99869,-41.40295 51.40334,-62.95866 20.09705,-26.40753 39.26177,-53.72178 56.67207,-82.05437 3.15954,-5.14166 6.50982,-10.18249 9.23657,-15.51859 8.68122,-16.98866 15.49929,-30.75809 17.90848,-48.169432 1.18157,-8.539314 1.28093,-17.376443 -0.94671,-25.762361 -2.0932,-7.879853 -6.62312,-15.298798 -13.40502,-19.983128 -6.44626,-4.452498 -14.33577,-6.795376 -22.15803,-6.608027 z M 588.1543,127.84375 c -10.11141,0 -19.98054,3.69432 -28.38693,9.20092 -4.56054,2.98738 -8.16012,5.85105 -11.71306,9.23946 -6.31633,6.02384 -12.6181,12.32809 -16.74086,20.1284 -2.58942,4.89922 -4.22671,10.47 -3.59307,16.04197 0.59538,5.23556 3.13266,10.19278 6.8062,13.91895 4.35202,4.41437 10.11742,7.2644 16.13141,8.6731 4.22275,0.98913 8.57178,1.55663 12.80881,2.1097 12.90206,1.57712 27.37303,1.58325 38.96983,1.78256 9.92422,0.17568 19.99439,0.78783 29.52562,3.79341 7.63816,2.40862 14.57721,6.61388 20.82724,11.55735 18.31744,15.21026 35.10511,33.20968 46.38402,52.20016 5.38471,9.06633 8.48209,17.38841 10.09993,26.68215 -4.73138,-2.06484 -9.50989,-4.0457 -14.46961,-5.50482 -10.25062,-3.01568 -20.51919,-4.55559 -30.94886,-5.10189 -14.214,-0.74452 -28.41964,0.13333 -42.51747,2.21342 -8.72537,1.35945 -16.5056,2.92116 -24.36351,4.97658 -23.88946,6.24884 -49.24053,9.5023 -67.35094,24.34444 -9.88887,8.10429 -18.39107,18.1922 -23.51696,29.99285 -2.94288,6.77499 -5.08295,14.04385 -5.21742,21.44074 -0.14522,7.98796 3.23525,18.15166 8.70168,23.12412 4.75901,4.32897 11.13252,6.89719 17.57327,7.17501 7.7277,0.33334 15.43205,-1.73019 22.25505,-5.31687 8.49251,-4.46429 15.65983,-10.95745 22.63229,-17.46137 6.52207,-6.08379 14.59447,-10.26587 22.84437,-13.53167 10.71662,-4.24228 22.12571,-6.84785 33.65032,-7.36653 9.71553,-0.43726 19.58206,0.5682 28.84096,3.6293 4.65855,1.54017 8.77413,4.26046 12.7732,7.22805 11.83422,8.78184 21.07823,16.27194 33.43592,17.13324 8.52229,0.59398 17.21654,-2.52282 23.48589,-8.36125 5.31198,-4.94687 8.6999,-9.36911 10.86983,-16.24986 2.85825,-9.06337 3.17333,-13.58618 2.25952,-21.89279 3.19949,-0.66828 6.34241,-1.66623 9.21795,-3.25364 7.72325,-4.26352 13.89373,-11.18428 15.97133,-16.40773 C 770,312.41664 771,305.41664 771.92463,287.30405 c 0.7549,-14.78777 -2.79248,-27.86482 -8.52976,-39.25579 -6.05808,-12.0279 -15.79205,-22.32751 -24.4667,-32.54598 -9.99417,-11.77281 -20.28661,-21.83887 -32.27371,-32.34975 -16.3095,-14.30098 -37.19025,-30.78042 -57.09829,-39.43441 -9.30049,-4.0429 -18.85777,-7.51327 -28.64825,-10.16286 -7.50915,-2.03219 -13.95534,-3.79827 -20.84299,-4.80893 -3.94066,-0.57823 -7.92408,-0.90258 -11.9106,-0.90258 z M 375.38086,351.41602 c -3.15592,0.052 -6.31401,0.28181 -9.42774,0.79687 -6.39062,1.05712 -13.0756,2.79506 -18.25745,4.87951 -20.00876,8.04872 -35.37013,18.72336 -50.97887,31.70252 -16.63653,13.8338 -32.24611,28.85459 -47.48741,44.19871 -20.44849,20.58644 -40.14782,41.88375 -59.09462,63.8716 -11.57967,13.43826 -23.0107,27.05003 -33.26258,41.53726 -5.86877,8.29333 -11.18932,16.14111 -13.83703,25.23813 -0.93649,3.2176 -1.13994,6.69357 -0.0458,9.88879 1.1474,3.35076 3.01317,6.42232 5.15996,9.20918 3.81877,4.95734 9.95459,8.86088 15.0841,9.86491 5.15352,1.00873 10.58082,0.35517 15.36459,-1.79969 5.06304,-2.28066 9.57676,-5.58217 13.96243,-8.94122 8.12959,-6.22657 15.60146,-13.22404 23.02362,-20.31253 15.1965,-14.51333 29.93628,-29.4949 44.73658,-44.40954 7.81791,-7.87831 15.80589,-15.58465 23.83954,-23.24208 -0.0504,5.03941 -0.11322,10.18475 0.041,15.1582 0.39242,12.65491 1.46541,25.31941 2.66406,37.89258 3.78743,39.72808 9.29844,79.27039 14.69696,118.82401 4.19138,30.70921 8.44576,61.4127 13.25471,92.03193 1.2881,8.20153 2.51438,16.42432 4.33154,24.52882 1.88701,8.41601 4.74658,16.81924 9.92232,23.82387 3.97559,5.3804 9.74087,9.62182 16.36805,10.94927 7.14755,1.43169 14.69698,-0.391 20.85866,-4.14093 6.84468,-4.1656 12.30865,-10.21047 17.04419,-16.594 1.96938,-2.65473 3.16571,-5.8146 3.62749,-9.10208 1.84546,-13.13804 0.94305,-28.36135 0.0632,-39.99084 -0.62482,-8.25886 -1.43699,-16.56716 -2.35041,-24.83868 -2.05118,-18.57444 -4.6072,-37.23386 -7.45836,-55.71476 -4.14054,-26.83852 -8.81813,-53.55685 -14.53979,-80.10739 -2.92725,-13.58346 -6.06689,-27.1399 -10.11723,-40.43865 -1.92048,-6.30563 -4.20284,-12.50784 -7.09023,-18.44766 -1.43696,-2.95605 -3.3899,-5.65376 -5.95215,-7.7116 -0.63646,-0.51117 -1.21089,-1.00045 -1.63293,-1.76137 -3.86844,-6.97459 -7.70721,-14.37366 -10.78173,-23.07113 -2.19466,-6.20843 -4.65765,-12.39597 -8.24746,-17.9493 -1.84878,-3.00064 -6.33232,-6.11963 -7.65655,-7.60895 5.47802,-4.7806 10.82991,-9.70466 16.4791,-14.28723 10.08585,-8.18155 20.35041,-16.16875 31.14503,-23.39847 3.12681,-2.09419 6.37877,-3.99332 9.77526,-5.63166 9.99143,-4.81949 19.2508,-11.14232 27.46863,-18.61408 4.33765,-3.94385 8.97168,-7.8943 11.50265,-13.30949 2.30946,-4.94127 2.94844,-10.55862 2.35489,-15.93695 -0.81012,-7.34071 -4.13429,-14.57498 -9.79542,-19.44353 -5.31716,-4.57274 -12.25274,-6.88724 -19.17512,-7.42024 -1.85584,-0.14289 -3.71906,-0.19412 -5.5797,-0.17211 z m 274.50976,27.16015 c -5.69836,0.24565 -11.21293,2.642 -15.40302,6.49783 -5.62779,5.17884 -9.25852,12.19545 -11.37815,19.43449 -4.44241,15.1719 -5.13727,30.01056 -5.01847,44.57379 0.16357,20.05243 4.08445,37.88471 6.54254,56.08158 2.30231,17.04365 3.8873,34.17585 5.24917,51.31679 2.65843,33.45988 4.45019,66.99266 5.27059,100.54779 0.45803,18.73385 0.66584,37.475 0.6007,56.21451 -0.0549,15.79228 -0.22838,31.60738 -1.55963,47.35081 -0.6227,7.36407 -1.52732,14.73083 -3.22365,21.93358 -1.27307,5.40552 -3.37385,10.68696 -6.76127,15.12825 -2.97061,3.89481 -6.28577,7.51059 -9.41699,11.27531 -5.18417,6.23302 -10.41158,12.75907 -12.95389,20.57172 -1.93316,5.9407 -2.44267,12.43149 -0.95181,18.541 1.58804,6.50775 5.06169,12.37282 9.18634,17.58063 4.34584,5.48709 9.15158,10.59498 14.04488,15.59256 5.118,5.22707 10.56256,10.15117 16.3979,14.58276 2.96161,2.24917 5.4115,4.46931 9.12476,4.85863 4.60361,0.48266 9.47397,0.2193 13.6501,-1.98868 3.96731,-2.09757 7.12438,-5.44014 9.70061,-9.02902 5.02029,-6.99362 8.18647,-13.73214 11.1711,-20.90342 5.11469,-12.28924 9.14142,-25.00366 12.72038,-37.8152 3.28897,-11.77349 6.11246,-23.80196 8.46464,-35.7733 1.95499,-9.94982 3.56711,-19.8664 4.82303,-29.92691 1.01019,-8.0921 1.68021,-16.25555 2.01319,-24.44261 0.67515,-16.59987 0.52398,-33.34072 0.0542,-50.00323 -0.82443,-29.24171 -2.63112,-58.499 -4.89536,-87.6863 -2.74776,-35.42023 -6.11778,-70.78414 -10.45873,-106.05694 -2.54981,-20.71876 -4.97781,-41.48455 -9.15078,-61.96201 -2.92761,-14.36628 -4.71681,-27.35668 -10.48471,-39.48227 -2.07315,-4.35829 -5.63878,-7.81327 -9.38252,-10.77194 -5.06501,-4.00287 -11.43624,-6.59965 -17.97513,-6.2402 z"
       sodipodi:nodetypes="sssssssssssssssssccsssssssssssssssccscscsscssssssssssssssscsssssssssssssssssssssssssscsssssssssssssssssssccsssssssssssssssssssssssssssssssssssssssssss" />
  </g>
</svg>
