<?xml version="1.0" encoding="UTF-8" standalone="no"?>
<!-- Created with Inkscape (http://www.inkscape.org/) -->

<svg
   width="1000"
   height="1000"
   viewBox="0 0 1000 1000"
   version="1.1"
   id="svg756"
   inkscape:version="1.1 (c68e22c387, 2021-05-23)"
   sodipodi:docname="u898b.svg"
   xmlns:inkscape="http://www.inkscape.org/namespaces/inkscape"
   xmlns:sodipodi="http://sodipodi.sourceforge.net/DTD/sodipodi-0.dtd"
   xmlns="http://www.w3.org/2000/svg"
   xmlns:svg="http://www.w3.org/2000/svg"
   xmlns:rdf="http://www.w3.org/1999/02/22-rdf-syntax-ns#"
   xmlns:cc="http://creativecommons.org/ns#"
   xmlns:dc="http://purl.org/dc/elements/1.1/">
  <defs
     id="defs750" />
  <sodipodi:namedview
     id="base"
     pagecolor="#ffffff"
     bordercolor="#666666"
     borderopacity="1.0"
     inkscape:pageopacity="0.0"
     inkscape:pageshadow="2"
     inkscape:zoom="0.5"
     inkscape:cx="849"
     inkscape:cy="550"
     inkscape:document-units="px"
     inkscape:current-layer="layer1"
     showgrid="true"
     units="px"
     inkscape:window-width="1118"
     inkscape:window-height="864"
     inkscape:window-x="627"
     inkscape:window-y="88"
     inkscape:window-maximized="0"
     showguides="true"
     inkscape:guide-bbox="true"
     inkscape:pagecheckerboard="0">
    <inkscape:grid
       type="xygrid"
       id="grid758" />
    <sodipodi:guide
       position="240,200"
       orientation="0,1"
       id="guide8"
       inkscape:locked="false" />
  </sodipodi:namedview>
  <metadata
     id="metadata753">
    <rdf:RDF>
      <cc:Work
         rdf:about="">
        <dc:format>image/svg+xml</dc:format>
        <dc:type
           rdf:resource="http://purl.org/dc/dcmitype/StillImage" />
        <dc:title />
      </cc:Work>
    </rdf:RDF>
  </metadata>
  <g
     inkscape:label="Layer 1"
     inkscape:groupmode="layer"
     id="layer1"
     transform="translate(0,-32.41664)"
     style="display:inline">
    <path
       style="fill:#000000;stroke-width:18.5737"
       d="M 382,874.41664 C 334.44184,856.51218 286.8619,805.49787 261.20038,741.45287 247.53105,707.33752 233,688.41664 223,673.41664 c -9.12639,9.99167 -39.33507,52.65107 -71.40716,104.76997 -32.0721,52.1189 -73.664888,86.02342 -82.650669,80.23224 C 54.853563,849.33898 42.218968,834.10725 50.813898,810.23901 59.408829,786.37076 81.233285,751.866 120.06278,692.24007 174.87367,608.07336 173,603.41664 178,593.41664 133.66463,612.71734 96.564791,621.3413 78.09584,618.18691 59.626889,615.03252 50.776056,600.08439 44.913163,572.21012 37.13126,535.21219 47.724905,419.82314 57.296376,310.52145 62.082111,255.87061 48.112304,172.7416 54.462238,131.69425 60.812172,90.646891 81.481847,91.68119 87.54655,85.356953 c 14.03929,-14.640092 22.23674,-9.938268 23.7777,16.522117 1.18463,20.34213 5.2276,62.56487 3.67575,71.53757 6.34345,-10.76212 12.70275,-40.73687 46.76339,-78.3972 36.70259,-40.581504 76.11973,-56.62726 109.31716,-60.494393 33.19743,-3.867134 76.17514,2.444355 111.99889,34.57734 41.2551,37.004763 66.99218,77.560313 73.45187,170.686413 6.84825,98.72777 -8.54878,180.07061 -32.38127,237.92492 -11.91625,28.92715 -40.94646,55.00162 -60.35676,68.43129 -19.41029,13.42966 -37.20067,14.21453 -58.63724,8.56249 -32.96337,-8.69124 -24.58008,6.2189 -44.15604,13.70914 -5,30 -12,58 -17,68 25,35 41.68847,53.09615 72.28185,91.20032 41.94619,52.24414 69.5716,72.58813 100.21415,80.45716 30.64255,7.86903 62.30224,-12.7369 108.31699,-42.39261 46.74066,-30.12355 60.74122,-10.64066 52.6384,11.37862 -10.31974,28.04374 -42.47667,62.35457 -80.65662,81.16861 C 458.61482,877.04279 408.41185,884.36005 382,874.41664 Z M 251.96513,499.61336 C 373.69669,435.68688 378.04423,430.95397 389.73954,349.62653 405.14855,242.47458 383.27343,163.45168 342.77395,123.12235 302.27446,82.793022 245.15059,87.15727 194.06208,158.77962 170.96329,191.16244 161.35546,212.07942 158,220.41664 c 16,-12 26.69494,-22.63466 63.23756,-36.19472 58.76244,-21.80528 95.14193,-18.67297 116.55931,-6.75236 21.41737,11.9206 23.75165,39.98252 -3.93928,78.09553 -12.20583,16.79975 -14.66149,28.03303 -27.96319,25.27899 -6.8944,-1.42744 0.20686,-8.18495 -0.0705,-24.71358 -0.72239,-43.04665 -60.24813,-27.84719 -121.35181,30.47314 C 146.08912,323.2382 136,373.41664 132.2193,389.0798 155,379.41664 170,366.91664 224.49084,345.00203 c 35.62668,-14.328 75.87267,-26.36525 99.54202,-25.45844 23.66935,0.90682 38.1194,11.9234 34.22621,32.7002 C 354.83723,370.50515 340,403.41664 316.00096,389.43609 289.37368,373.92447 241,404.41664 194.46797,426.7693 c -43.91551,21.09576 -71.54697,59.54104 -76.02277,83.95668 -4.52669,24.69326 -3.0686,44.89684 0.79577,44.89684 3.86438,0 63.59025,-19.70425 132.72416,-56.00946 z"
       id="path147"
       sodipodi:nodetypes="sscsssscsssssscsssssssccsssssssssscsssssscssssssss" />
  </g>
</svg>
