<?xml version="1.0" encoding="UTF-8" standalone="no"?>
<!-- Created with Inkscape (http://www.inkscape.org/) -->

<svg
   width="1000"
   height="1000"
   viewBox="0 0 1000 1000"
   version="1.1"
   id="svg756"
   inkscape:version="1.1 (c68e22c387, 2021-05-23)"
   sodipodi:docname="u8a00.svg"
   xmlns:inkscape="http://www.inkscape.org/namespaces/inkscape"
   xmlns:sodipodi="http://sodipodi.sourceforge.net/DTD/sodipodi-0.dtd"
   xmlns="http://www.w3.org/2000/svg"
   xmlns:svg="http://www.w3.org/2000/svg"
   xmlns:rdf="http://www.w3.org/1999/02/22-rdf-syntax-ns#"
   xmlns:cc="http://creativecommons.org/ns#"
   xmlns:dc="http://purl.org/dc/elements/1.1/">
  <defs
     id="defs750" />
  <sodipodi:namedview
     id="base"
     pagecolor="#ffffff"
     bordercolor="#666666"
     borderopacity="1.0"
     inkscape:pageopacity="0.0"
     inkscape:pageshadow="2"
     inkscape:zoom="0.70710678"
     inkscape:cx="239.32351"
     inkscape:cy="402.441"
     inkscape:document-units="px"
     inkscape:current-layer="layer1"
     showgrid="true"
     units="px"
     inkscape:window-width="1118"
     inkscape:window-height="864"
     inkscape:window-x="465"
     inkscape:window-y="153"
     inkscape:window-maximized="0"
     showguides="true"
     inkscape:guide-bbox="true"
     inkscape:pagecheckerboard="0">
    <inkscape:grid
       type="xygrid"
       id="grid758" />
    <sodipodi:guide
       position="240,200"
       orientation="0,1"
       id="guide8"
       inkscape:locked="false" />
  </sodipodi:namedview>
  <metadata
     id="metadata753">
    <rdf:RDF>
      <cc:Work
         rdf:about="">
        <dc:format>image/svg+xml</dc:format>
        <dc:type
           rdf:resource="http://purl.org/dc/dcmitype/StillImage" />
        <dc:title />
      </cc:Work>
    </rdf:RDF>
  </metadata>
  <g
     inkscape:label="Layer 1"
     inkscape:groupmode="layer"
     id="layer1"
     transform="translate(0,-32.41664)"
     style="display:inline">
    <path
       style="fill:#000000;stroke-width:16.0301"
       d="m 283.86659,838.58786 c -4.46852,-3.98394 -11.81725,-17.75335 -17.96599,-36.18879 -6.14876,-18.43545 -15.03059,-41.60536 -14.36465,-64.59553 0.66594,-22.99016 -4.67725,-48.05104 -1.90458,-65.7675 2.77269,-17.71647 39.77752,-28.08853 44.37224,-30.70289 9.96636,-5.67079 17.10295,14.13057 17.68905,49.08016 0.43129,25.71752 0.51673,36.10919 3.44576,40.26209 1.44419,-2.30611 11.48132,-30.31903 19.6074,-43.40822 17.99026,-28.97807 34.86306,-47.90007 58.10484,-68.06872 23.2418,-20.16867 57.73693,-35.47862 74.71576,-35.47862 54.70386,0 96.72876,48.43351 96.72876,120.13882 0,43.673 -25.76265,88.33917 -47.69984,113.70006 -21.93718,25.36089 -64.16515,37.54553 -101.94229,37.54553 -30.95094,0 -56.82843,-15.09269 -64.88943,-22.25678 -4.76824,-4.23769 -12.50892,-7.4312 -15.82636,-13.81823 -4.78396,4.17478 -10.49182,17.1854 -18.1449,22.20045 -9.55342,6.26034 -24.05407,4.37626 -31.92577,-2.64183 z M 460,784.41664 c 39.7143,-40.40163 53.82968,-105.0486 23.76741,-125.74105 -16.02671,-11.03152 -32.05531,-7.45099 -65.11475,26.06189 -23.44836,23.76995 -36.0116,41.11367 -49.25638,66.63243 -13.24478,25.51877 -17.19699,35.378 -22.4009,43.43375 22.11628,10.64504 36.20117,17.60488 57.87718,13.92836 C 426.54857,805.0555 446.74995,797.89601 460,784.41664 Z M 280.73385,553.60661 c 0,-8.64229 39.18559,-31.14649 78.96972,-52.6115 32.58446,-17.58054 62.5846,-37.18728 83.90895,-54.52788 21.32436,-17.34061 31.76132,-23.89905 20.79622,-23.89905 -4.73655,0 -61.80821,17.35747 -132.23214,30.76577 -70.42393,13.40832 -141.10132,20.54697 -154.35779,15.86364 -46.31323,-16.36183 -23.58745,-67.92169 38.547,-68.18657 34.45733,-0.14766 117.48416,-10.52898 181.80103,-23.07134 64.31686,-12.54237 130.09897,-22.80426 146.18249,-22.80426 35.1713,0 38.89361,56.67387 5.34533,73.95864 -6.57179,3.38592 -20.74722,13.64598 -26.66328,20.55224 11.05812,0 58.70346,0 53.96345,16.98237 -2.77127,9.92884 -9.63208,42.18442 -26.93922,52.05887 -17.30712,9.87445 -59.87998,7.20111 -93.21023,21.12085 -68.94019,28.79156 -114.6797,47.5176 -136.54927,52.68977 -21.86958,5.17215 -39.56226,-30.49966 -39.56226,-38.89155 z M 43.049437,342.29831 c -5.453015,-8.12302 10.799251,-58.43451 28.006846,-72.77147 22.850349,-19.03838 33.152137,-20.9145 38.205347,-6.9578 5.38763,14.88034 32.57666,13.59551 122.85528,-5.80545 63.76506,-13.70316 161.04421,-32.81079 216.17589,-42.46137 55.13167,-9.65056 135.11017,-23.19272 169.62067,-30.09365 34.51049,-6.90097 66.37903,-7.13582 70.81898,-0.5219 16.81403,25.04692 -38.15282,76.29559 -175.40726,93.56749 -78.0617,9.82314 -189.91403,28.60467 -240.45139,41.73669 C 149.33869,351.09122 55.093877,360.24024 43.049437,342.29831 Z M 353.3653,130.50788 c -13.78292,-7.02601 -66.9174,-12.14037 -101.37471,-17.20849 -41.37777,-6.08599 -62.91491,-41.552073 -62.64963,-63.040824 0.20485,-16.593727 9.03759,-20.796378 29.23649,-13.591714 16.08009,5.735539 64.9468,14.361551 108.5927,19.168898 43.64593,4.807347 85.9911,13.850477 85.9911,20.095803 0,11.626945 -10.59978,49.804817 -24.25297,55.842347 -13.65317,6.03752 -23.32939,4.96001 -35.54298,-1.26602 z"
       id="path95"
       sodipodi:nodetypes="sssssscssssssscsssssscsssssssscssscsssssssssssssssssssssss" />
  </g>
</svg>
