<?xml version="1.0" encoding="UTF-8" standalone="no"?>
<!-- Created with Inkscape (http://www.inkscape.org/) -->

<svg
   width="1000"
   height="1000"
   viewBox="0 0 1000 1000"
   version="1.1"
   id="svg756"
   inkscape:version="1.1 (c68e22c387, 2021-05-23)"
   sodipodi:docname="u8d64.svg"
   xmlns:inkscape="http://www.inkscape.org/namespaces/inkscape"
   xmlns:sodipodi="http://sodipodi.sourceforge.net/DTD/sodipodi-0.dtd"
   xmlns="http://www.w3.org/2000/svg"
   xmlns:svg="http://www.w3.org/2000/svg"
   xmlns:rdf="http://www.w3.org/1999/02/22-rdf-syntax-ns#"
   xmlns:cc="http://creativecommons.org/ns#"
   xmlns:dc="http://purl.org/dc/elements/1.1/">
  <defs
     id="defs750" />
  <sodipodi:namedview
     id="base"
     pagecolor="#ffffff"
     bordercolor="#666666"
     borderopacity="1.0"
     inkscape:pageopacity="0.0"
     inkscape:pageshadow="2"
     inkscape:zoom="0.5"
     inkscape:cx="889.41045"
     inkscape:cy="643.43301"
     inkscape:document-units="px"
     inkscape:current-layer="layer1"
     showgrid="true"
     units="px"
     inkscape:window-width="1118"
     inkscape:window-height="864"
     inkscape:window-x="597"
     inkscape:window-y="169"
     inkscape:window-maximized="0"
     showguides="true"
     inkscape:guide-bbox="true"
     inkscape:pagecheckerboard="0">
    <inkscape:grid
       type="xygrid"
       id="grid758" />
    <sodipodi:guide
       position="240,200"
       orientation="0,1"
       id="guide8"
       inkscape:locked="false" />
  </sodipodi:namedview>
  <metadata
     id="metadata753">
    <rdf:RDF>
      <cc:Work
         rdf:about="">
        <dc:format>image/svg+xml</dc:format>
        <dc:type
           rdf:resource="http://purl.org/dc/dcmitype/StillImage" />
        <dc:title />
      </cc:Work>
    </rdf:RDF>
  </metadata>
  <g
     inkscape:label="Layer 1"
     inkscape:groupmode="layer"
     id="layer1"
     transform="translate(0,-32.41664)"
     style="display:inline">
    <path
       style="fill:#000000;stroke-width:14.0934"
       d="m 372.90476,890.10215 c -6.2931,-7.59392 6.43677,-31.32671 25.48721,-53.82568 15.85602,-18.72631 24.51532,-32.37627 29.2106,-59.90017 4.69529,-27.52391 5.42658,-68.92177 5.42658,-143.14386 0,-77.11154 0.34381,-117.48512 4.03757,-137.01582 3.69377,-19.53071 35.80508,-18.21856 49.20496,-11.95865 12.85365,6.00474 19.7574,12.79815 22.7185,36.3363 2.96113,23.53815 4.29514,63.82105 1.37828,136.80474 -1.79565,44.92994 -0.77433,88.13728 -5.22386,122.17073 -4.44956,34.03345 -16.68552,58.89299 -21.84055,67.12726 -22.71648,36.28559 -94.47352,62.62289 -110.39929,43.40515 z M 78.424526,821.93503 C 64.404149,815.08865 42.97498,802.27717 40.316867,777.29325 c -2.616733,-24.59499 7.254686,-61.52789 25.483383,-98.60416 18.228689,-37.07627 45.79498,-63.721 71.19708,-65.36662 27.33424,-1.77078 27.17161,13.90959 -0.99108,61.02825 -20.80829,34.81415 -30.74266,81.08571 -15.92529,86.26299 8.88069,3.10298 16.89117,5.8356 38.14593,-2.6147 25.15067,-9.99921 30.50947,-12.71882 45.98921,-21.82837 -23.15521,-22.03682 -7.69104,-71.35604 13.02038,-128.29777 20.71145,-56.94174 36.76333,-79.95025 42.55215,-114.10734 -25.47075,6.61106 -53.43273,8.66388 -79.35675,25.7733 -16.10758,10.63074 -41.3125,18.55289 -55.83407,18.78318 -22.71282,0.3602 -29.935619,-24.24634 -24.06928,-37.76231 5.86634,-13.51596 10.72331,-35.23371 54.46546,-47.53288 70.06181,-19.6996 87.39085,-47.98868 94.05859,-89.83663 2.42136,-15.19696 5.05478,-26.10365 4.94723,-36.90454 -11.5776,5.5092 -43.47417,15.49461 -77.0502,12.1288 -45.43939,-4.55502 -69.81359,-22.20487 -83.788376,-36.4399 -13.974781,-14.23504 -10.603561,-51.3908 13.341036,-68.73086 19.76013,-14.30977 24.72136,-12.51494 31.93435,11.55288 6.59013,21.9895 19.96116,28.49469 58.56903,28.49469 26.71802,0 47.73209,-11.90561 62.78298,-16.31298 2.31551,-20.93498 2.70559,-43.36392 11.91517,-90.69785 9.14547,-47.00453 35.43985,-83.478318 63.02252,-103.351593 31.95691,-23.024904 59.63374,-31.235039 93.54344,-29.898766 38.07629,1.500463 54.68676,6.873862 77.47279,29.087208 50.63139,49.358871 33.3305,114.732691 -65.88477,180.095871 -44.20694,29.12357 -106.39548,59.91266 -112.91903,60.93383 -1.15776,16.52761 -0.10075,19.83313 -3.82949,48.07466 -3.61667,27.39293 -2.26169,38.03194 -19.62811,60.06877 52.09925,-11.01842 110.79728,-18.08319 126.1481,-20.27206 44.15917,-6.29668 104.66861,-10.00439 111.92337,-6.71493 9.70228,4.39924 -3.33909,62.73333 -33.68805,76.80351 -25.78587,11.9547 -32.95627,8.56796 -42.81428,-0.0342 -8.50702,-7.66353 -33.91307,-0.13131 -67.25584,4.94454 -36.14998,5.50321 -53.48928,10.11886 -72.01346,13.42439 -2.31552,16.52762 -11.57761,52.88839 -20.56761,75.90757 -8.73944,22.37764 -26.47921,55.99854 -32.43381,77.72056 -5.28137,19.26605 -10.12167,28.99933 -7.6858,31.10648 2.43589,2.10713 9.83242,-3.41188 24.39369,-14.6504 36.12662,-27.88288 60.97784,-30.58552 35.56615,-3.86792 -10.02846,10.54384 -14.26388,24.77528 -9.412,31.62543 4.54878,6.42222 -27.39339,44.93604 -70.3401,79.09138 -42.9467,34.15534 -96.89794,63.9522 -117.84312,70.56996 -12.94825,4.0911 -35.013486,1.83675 -49.033864,-5.00967 z M 377.22296,206.99353 c 33.28526,-21.63493 101.29819,-61.13003 95.72371,-86.6322 -9.01177,-41.227089 -72.1678,-36.96302 -112.32493,5.86814 -35.26245,37.61056 -28.97029,82.31072 -32.52523,108.71198 20.92136,-9.87364 30.14254,-15.60867 49.12645,-27.94792 z M 700,752.41664 c -10.00609,-5.88202 -24.68706,-28.99827 -38.42892,-56.9554 -13.74185,-27.95711 -26.5446,-60.75507 -32.79419,-86.00049 -12.49923,-50.49083 28.79871,-88.29227 45.89865,-88.29227 5.43856,0 9.51976,29.59171 26.26013,68.63635 8.37018,19.52232 17.11056,42.62739 27.18454,66.08162 10.07398,23.45421 23.79707,47.25756 35.45501,72.62855 8.04351,17.50497 -38.33912,38.73651 -63.57522,23.90164 z"
       id="path111"
       sodipodi:nodetypes="sssssssssssssssssscscssssscssssscssssscscssscscssssssssssssscsssssssss" />
  </g>
</svg>
