<?xml version="1.0" encoding="UTF-8" standalone="no"?>
<!-- Created with Inkscape (http://www.inkscape.org/) -->

<svg
   width="1000"
   height="1000"
   viewBox="0 0 1000 1000"
   version="1.1"
   id="svg756"
   inkscape:version="1.1 (c68e22c387, 2021-05-23)"
   sodipodi:docname="u8fd1.svg"
   xmlns:inkscape="http://www.inkscape.org/namespaces/inkscape"
   xmlns:sodipodi="http://sodipodi.sourceforge.net/DTD/sodipodi-0.dtd"
   xmlns="http://www.w3.org/2000/svg"
   xmlns:svg="http://www.w3.org/2000/svg"
   xmlns:rdf="http://www.w3.org/1999/02/22-rdf-syntax-ns#"
   xmlns:cc="http://creativecommons.org/ns#"
   xmlns:dc="http://purl.org/dc/elements/1.1/">
  <defs
     id="defs750" />
  <sodipodi:namedview
     id="base"
     pagecolor="#ffffff"
     bordercolor="#666666"
     borderopacity="1.0"
     inkscape:pageopacity="0.0"
     inkscape:pageshadow="2"
     inkscape:zoom="0.5"
     inkscape:cx="853"
     inkscape:cy="618"
     inkscape:document-units="px"
     inkscape:current-layer="layer1"
     showgrid="true"
     units="px"
     inkscape:window-width="1118"
     inkscape:window-height="864"
     inkscape:window-x="557"
     inkscape:window-y="56"
     inkscape:window-maximized="0"
     showguides="true"
     inkscape:guide-bbox="true"
     inkscape:pagecheckerboard="0">
    <inkscape:grid
       type="xygrid"
       id="grid758" />
    <sodipodi:guide
       position="240,200"
       orientation="0,1"
       id="guide8"
       inkscape:locked="false" />
  </sodipodi:namedview>
  <metadata
     id="metadata753">
    <rdf:RDF>
      <cc:Work
         rdf:about="">
        <dc:format>image/svg+xml</dc:format>
        <dc:type
           rdf:resource="http://purl.org/dc/dcmitype/StillImage" />
        <dc:title />
      </cc:Work>
    </rdf:RDF>
  </metadata>
  <g
     inkscape:label="Layer 1"
     inkscape:groupmode="layer"
     id="layer1"
     transform="translate(0,-32.41664)"
     style="display:inline">
    <path
       style="fill:#000000;stroke-width:15.7615"
       d="m 264,844.41664 c -98.32461,-22.91338 -135.9374,-51.19561 -136.57707,-85.51506 -0.12912,-6.94558 17.34113,-17.29903 31.49022,-23.00767 27.09307,-10.93103 73.87374,-63.24558 73.87374,-78.18796 0,-4.82582 -25.6684,-47.30456 -59.48534,-94.39724 -64.00828,-89.13645 -75.838148,-139.25118 -36.42834,-139.25118 40.30079,0 25.02047,-42.61741 -39.665442,-110.62855 C 26.48873,239.07457 23.805521,200.65287 87.104348,168.75496 130.87349,146.69856 140.11368,125.99633 113.81621,108.90812 88.179937,92.249558 102.6945,57.029668 134.19483,47.933016 181,34.41664 201.60907,83.240512 204.66531,119.35178 c 3.05625,36.11127 5.68108,61.45079 -23.20088,79.36906 l -47.83712,30.91878 40.39863,48.72443 c 25.18763,30.37857 27.93387,35.47083 37.97406,52.05259 -2.04019,-11.58176 -3.25481,-25.24102 -0.58445,-40.24363 C 216,264.41664 251.06412,215.15145 302.11505,163.31274 403.14972,60.718947 455.31279,34.181342 499.83411,34.181342 c 52.28074,0 50.3485,39.669013 -14.63438,75.054388 -44.3172,24.1322 -85.39191,57.95137 -121.38732,95.15591 -35.99541,37.20453 -68.91152,69.79442 -68.91152,91.46807 0,45.82995 36.12887,148.55993 48.70426,148.41864 5.00247,-0.0565 11.0436,-24.17648 25.64694,-51.15617 21.99335,-40.63274 70.71795,-75.65467 124.10189,-90.80274 53.38394,-15.14807 99.42723,-14.42227 140.05796,8.44044 28.88881,16.25559 62.77037,39.29069 53.27253,136.76055 -10.56155,108.38597 -71.9072,237.38641 -105.00911,258.89618 -28.13855,18.28455 -50.00677,-5.67747 -29.72454,-39.82401 10.04254,-16.90729 34.67536,-83.26497 47.40629,-147.4615 C 627.12342,379.11752 620,362.41664 537.77227,373.17296 c -81.58488,10.67223 -113.1612,45.05243 -124.89129,113.36793 -11.64941,67.84565 -42.47791,115.29322 -59.40671,115.29322 -10.63957,0 -80.51937,-86.96753 -115.64302,-194.01885 l -18.53263,-56.48452 11.58561,40.40377 c 6.20195,21.62874 -9.14954,55.0308 -17.38142,65.57495 -10.31021,13.2063 6.10457,39.82418 43.90119,98.83406 63.88602,99.7419 74.61986,125.83873 23.88793,169.40619 l -34.9803,36.91053 46.5088,14.46637 c 25.30718,7.87169 86.47428,12.79423 149.95066,14.69635 C 536,794.41664 586,774.41664 642.59843,736.53842 c 46.11922,-30.86506 106.86605,-75.3039 134.34231,-102.17978 27.47625,-26.87588 49.95684,-40.18685 49.95684,-29.57994 0,38.9057 -110.37011,167.83489 -197.15113,212.95482 C 575.43139,845.97347 523.3585,856.35142 464.18251,861.3158 405.00652,866.28017 338.72744,861.83098 264,844.41664 Z"
       id="path75"
       sodipodi:nodetypes="scsssssssssscscsssssscssssssssssscsssscssssssss" />
  </g>
</svg>
