<?xml version="1.0" encoding="UTF-8" standalone="no"?>
<!-- Created with Inkscape (http://www.inkscape.org/) -->

<svg
   width="1000"
   height="1000"
   viewBox="0 0 1000 1000"
   version="1.1"
   id="svg756"
   inkscape:version="1.1 (c68e22c387, 2021-05-23)"
   sodipodi:docname="u901a.svg"
   xmlns:inkscape="http://www.inkscape.org/namespaces/inkscape"
   xmlns:sodipodi="http://sodipodi.sourceforge.net/DTD/sodipodi-0.dtd"
   xmlns="http://www.w3.org/2000/svg"
   xmlns:svg="http://www.w3.org/2000/svg"
   xmlns:rdf="http://www.w3.org/1999/02/22-rdf-syntax-ns#"
   xmlns:cc="http://creativecommons.org/ns#"
   xmlns:dc="http://purl.org/dc/elements/1.1/">
  <defs
     id="defs750" />
  <sodipodi:namedview
     id="base"
     pagecolor="#ffffff"
     bordercolor="#666666"
     borderopacity="1.0"
     inkscape:pageopacity="0.0"
     inkscape:pageshadow="2"
     inkscape:zoom="0.5"
     inkscape:cx="901"
     inkscape:cy="650"
     inkscape:document-units="px"
     inkscape:current-layer="layer1"
     showgrid="true"
     units="px"
     inkscape:window-width="1118"
     inkscape:window-height="864"
     inkscape:window-x="585"
     inkscape:window-y="104"
     inkscape:window-maximized="0"
     showguides="true"
     inkscape:guide-bbox="true"
     inkscape:pagecheckerboard="0">
    <inkscape:grid
       type="xygrid"
       id="grid758" />
    <sodipodi:guide
       position="240,200"
       orientation="0,1"
       id="guide8"
       inkscape:locked="false" />
  </sodipodi:namedview>
  <metadata
     id="metadata753">
    <rdf:RDF>
      <cc:Work
         rdf:about="">
        <dc:format>image/svg+xml</dc:format>
        <dc:type
           rdf:resource="http://purl.org/dc/dcmitype/StillImage" />
        <dc:title />
      </cc:Work>
    </rdf:RDF>
  </metadata>
  <g
     inkscape:label="Layer 1"
     inkscape:groupmode="layer"
     id="layer1"
     transform="translate(0,-32.41664)"
     style="display:inline">
    <path
       style="fill:#000000;stroke-width:4.45296"
       d="M 48.692291,851.30042 C 37.867646,837.27255 14.381518,785.6025 31.196601,765.57745 45.640763,748.37596 93.76704,719.28004 108.19889,711.23438 c 14.02311,-7.8178 79.22075,-8.11409 85.8021,-24.60722 11.98425,-30.03294 -4.68942,-65.34692 -26.00601,-82.14647 -6.85784,-5.40463 -14.63541,-11.38141 -27.26971,-13.28171 -12.63427,-1.90028 -22.97143,-15.22528 -22.97143,-17.12836 0,-7.91874 45.11468,-56.15173 64.67027,-52.90871 34.81826,5.77412 77.84579,83.01942 77.84579,135.63756 0,31.72661 -22.78083,68.90982 -35.72452,77.88701 -4.2881,2.97404 -40.22702,19.02977 -60.7947,28.89572 -25.74185,12.34791 -44.12556,23.58241 -44.80899,29.29393 -0.60286,5.03827 8.66873,-3.03646 36.27448,-14.8461 20.96689,-8.96959 51.88822,-14.78633 63.72097,-17.91924 27.93396,-7.39602 58.06381,3.29346 118.09002,17.52163 32.81599,7.77847 62.8291,11.187 99.74709,11.32802 60.35994,0.23064 85.06729,-2.11208 179.58169,-42.63516 76.60796,-32.84565 93.72421,-37.12014 137.26202,-48.61712 20.43837,-5.39712 39.7673,-13.51314 44.00606,-13.36392 19.56088,0.68863 10.50168,84.35083 -0.16899,93.03268 -4.84067,3.93842 -19.71096,7.27074 -45.52785,14.89481 -25.81689,7.62402 -76.51998,19.18688 -115.17002,35.83776 -119.34344,51.41441 -174.12145,33.63704 -266.08494,13.61762 -114.25477,-24.87195 -163.50002,-19.35277 -239.82659,13.93754 -28.72374,12.528 -72.308074,8.39448 -82.153339,-4.36423 z M 431.60791,772.41664 c -3.36977,-4.36696 -6.5422,-25.74729 -6.23539,-84.99143 0.13993,-27.01886 1.66913,-69.79929 0.41979,-81.05657 -6.9212,1.0441 -25.05902,3.64415 -32.06546,4.89803 -41.24137,7.38057 -34.49114,4.5952 -34.49114,-3.78529 0,-9.19638 -11.85059,-32.48756 22.77543,-40.95856 16.3925,-4.01031 24.00871,-6.01565 39.92393,-9.02672 -0.59546,-11.28738 -3.06396,-17.4903 -4.08527,-28.72479 -5.10659,1.02131 -7.27313,0.45136 -24.5869,4.60697 -18.62046,4.46925 -29.62296,8.13061 -46.90532,14.79806 -0.37026,2.00219 -0.87182,4.29125 -1.4515,21.6322 -0.57968,17.34096 1.27073,46.13164 0.68316,64.05404 -0.33825,10.31759 -0.25601,20.30929 1.50323,21.48197 1.92463,1.28293 3.52235,-3.25036 6.14524,-7.3331 2.62291,-4.08275 3.33805,-6.80496 5.91634,-6.03006 2.43277,0.73116 6.67552,3.88033 4.98598,16.46443 -0.92748,6.90819 -1.27838,21.33753 -4.03911,36.67184 -3.93967,21.88254 -22.89478,27.88057 -28.80295,27.88057 -6.33449,0 -48.72037,-4.99712 -50.97863,-31.52786 -1.476,-17.34034 0.61602,-55.15364 2.15235,-86.52607 2.49088,-50.8644 2.35415,-39.39652 2.64948,-49.70401 -15.31976,-10.21318 -30.63952,-34.72479 1.40071,-49.04595 -0.37939,-10.19046 4.13999,-44.04074 5.43398,-64.63066 1.29321,-20.57765 3.31314,-59.04326 9.0672,-76.16113 5.75405,-17.11787 51.65828,-27.5671 56.57218,-25.12849 14.82279,7.35609 7.64524,8.22472 6.12473,25.08646 32.67097,-18.50576 57.9774,-28.64086 93.39342,-30.45427 35.41602,-1.8134 89.4224,-2.22788 120.54165,22.89792 20.94254,16.90909 37.35447,47.84037 43.17392,90.04046 5.87283,42.587 2.23118,104.92408 -11.17574,139.5453 -9.96199,25.7253 -60.8795,57.86496 -71.42477,52.62087 -6.85293,-3.40791 -16.1438,-10.21591 -10.90522,-21.71728 2.67677,-5.87688 8.99938,-25.17922 11.04202,-30.28581 -15.31976,0 -39.59591,7.64984 -52.12982,9.19186 0,20.42635 -0.69807,49.01478 2.37203,107.5855 1.08716,20.74074 -24.79838,84.42217 -56.99955,67.63157 z m 84.38497,-229.70165 c 12.71542,-1.08757 20.32973,-1.55997 34.06099,-3.26278 4.22212,-24.98116 4.69509,-26.0433 5.88289,-43.72931 1.23836,-18.43883 -0.45024,-35.35432 -11.16885,-57.10322 -6.23905,-12.6595 -14.31772,-27.03865 -32.29713,-31.87643 -27.7837,-7.47586 -34.40589,-6.87111 -61.0723,-2.44846 3.60152,13.12185 13.60152,43.12185 15.47455,59.1122 4.74311,-1.64428 8.70239,-2.86865 24.83795,-4.5786 33.35132,-3.53438 46.76618,22.91328 46.76618,37.92287 0,12.50338 -5.67699,25.00245 -15.83956,20.22611 -11.84792,-5.56846 -26.189,-0.46187 -45.59403,1.58076 2.02275,9.13923 5.10659,22.59689 6.1279,29.74611 12.25581,-2.04263 11.84096,-3.79476 32.82141,-5.58925 z M 409.67926,472.59885 C 405,457.41664 400.42523,439.05153 394.31686,422.34112 c -15.31976,5.10659 -32.14732,10.81978 -39.78874,19.40503 -5.07375,20.38981 -3.98924,30.29021 -5.92266,51.51454 21.83398,-7.68553 51.44674,-18.23318 61.0738,-20.66184 z M 165.08204,439.40362 c -14.58576,-9.70021 -28.95159,-21.33326 -36.91718,-28.34778 -7.96559,-7.01451 -35.093995,-20.16238 -37.82605,-27.0521 -5.701156,-14.37722 20.09445,-68.51723 31.55516,-70.54192 9.05126,-1.59903 19.34162,7.95433 30.8076,18.93133 38.77113,37.11769 60.16173,49.27146 93.72694,50.7303 65.20428,2.83396 39.80991,51.2992 20.03927,60.2308 -23.29201,10.52242 -72.96958,14.94745 -101.38574,-3.95063 z M 488.62792,319.85486 c -10.04281,-5.20467 -47.14811,-6.97184 -72.42601,-11.50198 -25.27791,-4.53014 -69.58854,-8.67527 -80.99218,-14.20452 -29.74746,-14.42354 -33.79012,-84.02808 2.11894,-86.23098 6.28914,-0.38581 8.97218,0.46017 11.66481,9.63806 1.99473,6.79914 8.49903,14.80631 14.45398,17.79372 11.32224,5.67999 66.47305,18.2786 106.92988,26.87342 33.69848,7.15904 59.76842,16.34661 58.75475,29.06872 -0.60074,7.53958 -23.04482,36.37911 -28.24587,34.83127 -4.47128,-1.33065 -8.19489,-4.16186 -12.2583,-6.26771 z M 412.58686,246.3969 c -19.24868,-5.6371 -14.24751,-33.98619 -6.99838,-33.98619 26.50527,0 88.01698,-78.52765 78.82006,-97.81218 -3.40579,-7.14143 -16.21909,-8.17008 -48.67754,-11.99625 -29.78198,-3.510667 -66.84249,11.22751 -95.60412,24.21115 -33.88972,15.29857 -41.071,-50.463858 -10.48411,-70.634456 45.21222,-29.815298 168.22776,-36.194916 206.26591,-11.379654 10.077,6.573999 25.61732,24.728178 27.04443,30.304296 6.96509,27.214694 -8.37469,93.142654 -41.95599,123.545784 -9.70989,8.79094 -36.76169,28.83327 -48.30554,35.04675 -14.23684,7.66297 -52.49551,14.92915 -60.10472,12.70075 z"
       id="path39"
       sodipodi:nodetypes="ssssssssssssssssssssssssscscsssccscssssssssssccssscssssssccscscsssccsssccscccccsssssssssssssssssssssssssssss" />
  </g>
</svg>
