<?xml version="1.0" encoding="UTF-8" standalone="no"?>
<!-- Created with Inkscape (http://www.inkscape.org/) -->

<svg
   width="1000"
   height="1000"
   viewBox="0 0 1000 1000"
   version="1.1"
   id="svg756"
   inkscape:version="1.1 (c68e22c387, 2021-05-23)"
   sodipodi:docname="u9023.svg"
   xmlns:inkscape="http://www.inkscape.org/namespaces/inkscape"
   xmlns:sodipodi="http://sodipodi.sourceforge.net/DTD/sodipodi-0.dtd"
   xmlns="http://www.w3.org/2000/svg"
   xmlns:svg="http://www.w3.org/2000/svg"
   xmlns:rdf="http://www.w3.org/1999/02/22-rdf-syntax-ns#"
   xmlns:cc="http://creativecommons.org/ns#"
   xmlns:dc="http://purl.org/dc/elements/1.1/">
  <defs
     id="defs750" />
  <sodipodi:namedview
     id="base"
     pagecolor="#ffffff"
     bordercolor="#666666"
     borderopacity="1.0"
     inkscape:pageopacity="0.0"
     inkscape:pageshadow="2"
     inkscape:zoom="0.5"
     inkscape:cx="496.33433"
     inkscape:cy="769.31738"
     inkscape:document-units="px"
     inkscape:current-layer="layer1"
     showgrid="true"
     units="px"
     inkscape:window-width="1118"
     inkscape:window-height="864"
     inkscape:window-x="470"
     inkscape:window-y="58"
     inkscape:window-maximized="0"
     showguides="true"
     inkscape:guide-bbox="true"
     inkscape:pagecheckerboard="0"
     inkscape:rotation="1">
    <inkscape:grid
       type="xygrid"
       id="grid758" />
    <sodipodi:guide
       position="240,200"
       orientation="0,1"
       id="guide8"
       inkscape:locked="false" />
  </sodipodi:namedview>
  <metadata
     id="metadata753">
    <rdf:RDF>
      <cc:Work
         rdf:about="">
        <dc:format>image/svg+xml</dc:format>
        <dc:type
           rdf:resource="http://purl.org/dc/dcmitype/StillImage" />
        <dc:title />
      </cc:Work>
    </rdf:RDF>
  </metadata>
  <g
     inkscape:label="Layer 1"
     inkscape:groupmode="layer"
     id="layer1"
     transform="translate(0,-32.41664)"
     style="display:inline">
    <path
       style="fill:#000000;stroke-width:4.75081"
       d="M 477.17483,836.83134 C 435.91322,834.27802 367.92339,827.59556 326.71663,824.90705 246.82508,819.6945 201.57334,808.15342 183.27176,804.62191 171.96482,802.4401 146.70868,798.13742 131.74554,795.2092 102.26549,789.44008 65.898826,779.27644 56.098885,767.86945 44.476802,754.34147 42.717768,720.15047 56.87732,712.31147 c 10.558697,-5.84554 17.226031,-8.48203 36.78536,-1.6613 14.04111,4.89642 11.88265,2.20441 18.25351,4.32448 2.52405,-3.04335 7.30748,-9.49306 10.61836,-13.97914 46.76876,-63.36976 66.28073,-122.91138 63.10619,-182.86059 -1.01773,-19.21924 -32.61627,-58.7046 -54.36046,-70.30836 C 98.419084,430.29022 72.145255,404.00675 63.298256,387.2544 37.446453,338.30238 85.841512,309.49289 128.89976,350.30907 c 11.3658,10.77398 32.02651,29.04461 45.91269,40.60139 34.77346,28.94026 42.02281,36.71697 54.77774,58.76263 19.0782,32.97484 20.90929,80.92739 13.40432,112.59223 -15.34103,64.72666 -49.31895,105.00788 -71.01215,141.4859 -5.1607,8.67792 -16.01872,22.72459 -18.65558,28.18394 3.18543,1.06004 1.75969,-0.30044 6.36194,0.86675 2.5248,0.64032 8.25616,1.25332 11.44159,2.31335 5.30905,-5.30016 16.32965,-15.9554 24.2717,-24.17763 16.33491,-16.91118 48.12125,-44.26234 66.83495,-58.06345 13.38598,-9.872 42.91854,-28.17183 53.29731,-34.92371 15.68555,-10.2042 51.32853,-26.10729 124.73002,-57.73883 14.62784,-6.3037 17.80195,-8.48195 24.17281,-12.72208 4.16515,-19.44376 5.93469,-32.99341 9.8051,-54.19434 1.19242,-6.53177 2.93662,-15.76779 2.93662,-20.00792 -4.24724,0 -17.84125,1.57062 -28.57326,3.09292 -12.53966,1.77871 -27.69518,5.48237 -33.98973,7.267 -24.44381,6.93029 -57.67583,1.88004 -77.59182,-9.37615 -14.86944,-8.40399 -22.75837,-24.60322 -27.69248,-56.95383 -3.10411,-20.35226 -3.20421,-30.728 15.3429,-51.80621 10.22753,-11.62327 27.79568,-33.40457 45.07593,-44.71786 31.22148,-20.44053 61.86255,-31.9328 95.18764,-32.54151 0,0 16.48138,-1.51544 33.47702,4.83017 2.12362,-18.02055 2.43608,-42.77714 2.43608,-42.77714 1.14059,-43.62315 0.74935,-49.44567 0.74935,-57.92592 -4.24724,1.06003 -24.79742,6.61065 -48.03856,11.9749 -57.98222,13.38277 -84.53124,17.97465 -127.27521,25.61815 -19.77054,3.53538 -38.22348,9.57575 -51.59775,11.41542 -20.10041,2.76486 -38.54097,9.2933 -64.29733,12.1283 -12.0359,1.3248 -28.68405,-24.69201 -28.68405,-34.40682 0,-3.25812 7.06919,-12.52217 15.70932,-20.58681 13.03513,-12.1669 20.64627,-15.08664 44.71114,-17.15177 15.951,-1.36885 42.05263,-4.48074 58.00363,-6.91533 15.951,-2.43459 51.50133,-7.76762 79.00074,-11.85117 27.49942,-4.08355 53.2029,-10.33448 58.00364,-11.4267 21.61366,-4.91737 36.46084,-9.78128 58.09357,-16.03991 -2.12362,-7.42023 -3.83768,-13.52018 -7.76473,-24.27444 -5.3577,-14.672112 -13.99816,-32.825047 -20.67887,-39.839248 -10.53539,-11.061254 -11.41088,-14.313354 -6.5995,-24.514391 5.61254,-11.899666 41.54434,-15.56361 53.78269,-10.042088 12.23835,5.521522 24.94678,16.086314 32.2587,31.339758 8.13148,16.963134 8.91844,36.439489 13.77212,54.610019 6.37086,-1.06003 6.82735,-1.83183 17.11702,-6.23373 22.16388,-9.48165 59.99437,-17.693964 85.53709,-18.568501 16.92464,-0.579467 19.53741,0.72396 20.96232,10.457301 2.48241,16.9576 -13.63892,56.38288 -38.67141,73.81367 -12.39847,8.63341 -25.44929,16.07982 -29.00182,16.54757 -16.43407,2.16383 -19.30549,-0.28151 -16.22743,-13.81973 3.97039,-17.4628 0.82217,-20.14953 -19.82171,-11.81703 -6.85177,2.76559 -8.21415,3.68209 -14.58501,5.80216 0.64234,5.27206 -0.0441,12.68904 -0.088,20.07793 -0.21569,36.20763 -2.24324,49.99373 -3.68339,92.85969 -0.66516,19.7982 -2.03157,34.93155 -2.07727,41.78027 3.72506,4.28694 2.98158,3.80911 6.36927,8.59651 4.96017,7.00958 3.72023,8.80723 6.86258,14.47929 3.88246,7.00752 10.21816,14.55296 19.76816,14.55296 15.88236,0 48.45339,16.79986 48.42192,24.97561 -0.0566,14.63205 -48.70028,69.40633 -80.94272,91.14344 -7.72865,5.21048 -13.74311,11.66403 -16.92854,14.84412 -1.06181,5.30016 -2.12362,9.54029 -2.12362,11.66036 2.12362,-1.06003 10.99991,-4.13153 13.6736,-4.86116 10.10969,-2.75886 35.90312,-14.43582 41.62338,-17.12472 7.34981,-3.4549 32.08746,-13.78308 36.54387,-16.03404 12.63923,-6.38418 13.52967,-12.29424 9.92281,-41.94034 -3.00227,-24.67642 -2.77747,-25.30801 9.00695,-25.30801 10.04153,0 23.14576,5.0337 35.74497,29.7568 8.34049,16.36625 15.56106,31.99126 15.16447,34.65725 -1.34674,9.05325 -12.93502,38.72567 -46.54791,51.42394 -2.5552,0.9653 -34.81358,14.80377 -55.60726,25.07647 -20.79368,10.27269 -30.82914,14.98662 -39.93258,19.48892 -6.36538,3.14813 -18.53049,10.58689 -36.58126,20.12718 -2.12362,5.30016 -2.47856,2.95193 -6.95056,16.22484 -5.0333,14.93884 -11.69654,30.31338 -14.80718,34.16563 -3.11063,3.85226 -6.88948,13.30782 -8.39747,21.01234 -1.508,7.70452 -7.21527,35.02055 -12.68289,60.7023 -8.77534,41.21854 -2.81973,43.86023 -2.81973,52.34049 7.31214,0.47537 27.02256,4.03699 56.24261,5.82313 63.55947,3.88518 77.19588,-0.58451 107.41887,-35.20938 26.52264,-30.38557 48.28246,-42.85873 60.14739,-34.47766 9.38658,6.63043 17.50453,36.45936 -6.11518,76.10352 -10.37801,17.41881 -55.6678,51.99663 -68.93415,53.46541 -70.14419,7.76601 -92.01795,1.42711 -149.82536,-2.1501 z M 400.09908,736.76567 c 3.05752,-24.95885 5.77359,-34.32708 22.33946,-65.07316 17.94641,-33.30838 16.25912,-35.42344 21.82417,-52.12076 -6.37086,4.24013 -23.41044,9.73587 -38.03217,19.19797 -70.8664,45.85949 -112.04191,76.57453 -122.60703,86.51117 -6.42097,6.03899 -2.96075,3.29102 -11.92062,10.81509 -11.79115,9.90165 -15.38054,12.7997 -22.81321,21.27996 5.30905,1.06003 12.10929,2.23638 27.49334,4.56476 42.13798,6.37762 107.83765,7.86703 121.16005,9.21566 0.48113,-7.70882 0.18053,-14.99934 2.55601,-34.39069 z M 451.92846,408.4994 c 19.45815,-6.59033 27.37398,-11.53442 37.99208,-16.83458 1.06181,-8.48025 1.42103,-10.1299 3.07538,-21.66268 1.18555,-8.26479 1.17186,-12.25835 2.23367,-20.73861 -3.18543,0 -14.58938,-1.66557 -27.52349,-1.66557 -38.49049,0 -56.25973,14.98723 -73.6429,49.67602 -16.8027,33.53046 -11.20008,34.61733 57.86526,11.22542 z"
       id="path57"
       sodipodi:nodetypes="ssssssscssssssssscscsssscscssssssscccsssssssssscssssscssssssscsscscscsccsssssssssscsssscssssssscssscccsscscsssc" />
  </g>
</svg>
