<?xml version="1.0" encoding="UTF-8" standalone="no"?>
<!-- Created with Inkscape (http://www.inkscape.org/) -->

<svg
   width="1000"
   height="1000"
   viewBox="0 0 1000 1000"
   version="1.1"
   id="svg756"
   inkscape:version="1.1 (c68e22c387, 2021-05-23)"
   sodipodi:docname="u9060.svg"
   xmlns:inkscape="http://www.inkscape.org/namespaces/inkscape"
   xmlns:sodipodi="http://sodipodi.sourceforge.net/DTD/sodipodi-0.dtd"
   xmlns="http://www.w3.org/2000/svg"
   xmlns:svg="http://www.w3.org/2000/svg"
   xmlns:rdf="http://www.w3.org/1999/02/22-rdf-syntax-ns#"
   xmlns:cc="http://creativecommons.org/ns#"
   xmlns:dc="http://purl.org/dc/elements/1.1/">
  <defs
     id="defs750" />
  <sodipodi:namedview
     id="base"
     pagecolor="#ffffff"
     bordercolor="#666666"
     borderopacity="1.0"
     inkscape:pageopacity="0.0"
     inkscape:pageshadow="2"
     inkscape:zoom="0.5"
     inkscape:cx="905"
     inkscape:cy="674"
     inkscape:document-units="px"
     inkscape:current-layer="layer1"
     showgrid="true"
     units="px"
     inkscape:window-width="1118"
     inkscape:window-height="864"
     inkscape:window-x="649"
     inkscape:window-y="105"
     inkscape:window-maximized="0"
     showguides="true"
     inkscape:guide-bbox="true"
     inkscape:pagecheckerboard="0">
    <inkscape:grid
       type="xygrid"
       id="grid758" />
    <sodipodi:guide
       position="240,200"
       orientation="0,1"
       id="guide8"
       inkscape:locked="false" />
  </sodipodi:namedview>
  <metadata
     id="metadata753">
    <rdf:RDF>
      <cc:Work
         rdf:about="">
        <dc:format>image/svg+xml</dc:format>
        <dc:type
           rdf:resource="http://purl.org/dc/dcmitype/StillImage" />
        <dc:title />
      </cc:Work>
    </rdf:RDF>
  </metadata>
  <g
     inkscape:label="Layer 1"
     inkscape:groupmode="layer"
     id="layer1"
     transform="translate(0,-32.41664)"
     style="display:inline">
    <path
       style="fill:#000000;stroke-width:5.39806"
       d="m 59.13393,831.55206 c 1.549566,-10.51831 7.077684,-24.20914 23.547832,-26.50217 8.33632,-1.16064 48.634238,-32.71847 67.512158,-52.86973 30.14645,-32.1798 38.2511,-71.51957 20.00422,-97.09994 -11.55603,-16.20041 -27.76836,-22.19116 -68.82527,-25.43215 -17.364174,-1.37074 -37.049659,-5.07571 -43.745523,-8.23335 -14.62074,-6.89478 -22.745232,-43.86116 -12.816574,-54.85017 10.960786,-12.13138 68.093077,-20.18261 90.883467,-5.95919 10.78677,6.73197 28.48313,13.96173 39.32525,16.0661 54.25072,10.52963 92.57073,83.4212 69.11911,143.21578 -9.03014,23.02416 -13.79865,26.90366 -17.80485,33.34812 10.35679,0 32.95567,-6.39674 63.93314,-3.13909 82.21066,8.64552 136.41613,29.19367 223.73909,47.30323 49.60828,10.28809 97.11854,16.05249 140.80669,17.08401 18.48464,0.43664 23.27384,9.11453 23.27384,14.77428 0,5.71116 -7.45334,32.44278 -34.12773,33.97414 -63.57988,3.65005 -106.18055,-1.99102 -168.28641,-9.76443 -39.70319,-4.96941 -79.57246,-17.4574 -137.54414,-23.80321 0,0 -70.16492,-14.18482 -105.40306,-11.53787 -16.0076,1.20243 -46.64223,12.34153 -46.64223,12.34153 -26.5423,7.02309 -53.93487,18.0869 -63.56495,25.67381 -11.32445,8.92179 -23.907715,13.69815 -38.043747,13.71533 -21.349716,0.026 -28.528114,-16.66654 -25.340313,-38.30503 z M 358.168,690.49986 c -6.49462,-6.59202 -9.54418,-21.66422 -10.72941,-53.02923 l -1.65585,-43.81958 -20.41932,-1.56729 c -38.79015,-2.97729 -65.10809,-46.40817 -27.8521,-46.40817 18.30592,0 63.64684,-27.05824 105.29728,-62.83858 16.07773,-13.81179 38.83849,-35.5446 45.05257,-39.82159 -7.24976,-3.20774 -3.71356,-0.67112 -18.66473,-15.00587 -10.61009,-10.17265 -13.85168,-17.55481 -11.48319,-26.15101 5.53813,-20.10014 21.43433,-55.21378 49.09565,-64.97338 38.12153,-13.45023 84.81476,-11.92733 90.74644,40.94991 4.69691,41.87009 -23.79047,78.60905 -42.82283,98.06755 -15.24143,15.58267 -25.7296,26.43663 -36.87651,33.73652 24.61075,-1.95366 55.83322,-18.78909 66.68431,-26.25768 C 575,462.41664 585,452.41664 602.28294,468.43799 c 16.55033,15.34221 27.08625,23.12606 11.89242,40.55471 -11.71281,13.43562 -32.03884,16.40589 -38.17536,23.42394 10.3568,0 40.33387,-0.69203 53.70555,-0.69203 15.06017,0 16.57794,-4.6542 14.58736,-14.96143 -2.3302,-12.0657 -10.83886,-18.82343 0.55641,-18.82343 10.56748,0 37.68296,23.78443 40.37785,37.17191 1.66885,8.29044 -0.85809,33.63402 -10.92577,39.34431 -16.00938,9.08047 -31.32644,12.38423 -107.67638,11.27842 -66.51507,-0.96337 -101.58545,-13.24036 -116.62453,-16.49384 -4.27896,-0.92569 -27.29356,-7.28797 -32.8695,-7.28797 -1.80404,30.85713 -1.73044,16.36566 -1.46736,40.13195 0.12086,10.91782 7.87297,16.75057 15.73131,8.73911 12.93103,-13.18297 41.11381,-16.86942 41.11381,-3.00245 0,3.05111 -7.04769,12.59578 -14.08066,22.50482 -13.38255,18.85524 -26.13842,33.92779 -40.82186,46.50773 -28.6933,24.5828 -45.01198,28.30877 -59.43823,13.66612 z m 141.42987,-289.5648 c -1.044,-4.97958 -5.63054,-9.05378 -10.19232,-9.05378 -4.56177,0 -9.14831,4.0742 -10.19231,9.05378 -1.33182,6.35237 1.70928,9.05377 10.19231,9.05377 8.48304,0 11.52414,-2.7014 10.19232,-9.05377 z M 242.74179,367.00869 c -9.55354,-11.07999 -17.37008,-21.90334 -17.37008,-24.05189 0,-8.45989 -39.87798,-38.82996 -61.3476,-46.7208 -38.43098,-14.12475 -21.9698,-62.14902 16.5796,-62.14902 31.12628,0 38.00889,4.53035 78.62849,51.75567 32.38057,37.64644 48.01458,67.89025 40.70817,78.7495 -6.525,9.69787 -41.18485,20.98892 -57.19858,2.41654 z M 325.832,329.56576 c -17.801,-17.40517 -11.8552,-29.58214 34.37313,-51.27168 40.00791,-18.77101 62.14393,-33.19095 99.41405,-78.11114 14.48256,-18.90146 32.62766,-33.45268 33.38082,-69.7663 -31.07039,10.69246 -57.03082,15.72507 -91.23924,24.5552 -14.64629,3.78061 -35.88437,3.33303 -41.30541,2.02279 -14.30785,-3.45814 -14.61647,-32.55642 0.81612,-45.78831 6.96994,-5.97602 19.6711,-11.942229 27.95951,-14.350119 C 434.10451,83.819875 454.68277,83.333165 496.10995,67.294469 500,17.41664 560,27.41664 558.25073,56.602005 c 31.07039,0 46.74927,5.814635 41.77462,26.783807 -2.62707,11.073638 -10.15307,23.427118 -23.87687,26.005348 -11.44585,2.15029 -14.62198,4.12415 -21.07615,4.67316 -1.07233,14.35232 -2.11275,23.77995 -5.01357,41.12186 -5.87114,35.09933 -29.05876,64.23046 -47.94881,80.53394 5.42105,-1.99463 35.67842,-8.46846 49.61827,-12.17958 13.93987,-3.71113 43.84552,-12.92519 66.45705,-20.47569 41.9779,-14.01739 53.42469,-5.89653 59.4194,8.4532 6.55702,15.69573 -5.70615,41.62694 -34.94404,50.9384 -15.48873,4.93275 -31.02371,8.08744 -34.52224,7.01044 -3.49849,-1.07699 -37.67564,7.45467 -75.94925,18.95925 -38.27361,11.50459 -71.45884,20.91743 -73.74496,20.91743 -2.28612,0 -18.79934,6.01799 -36.69607,13.3733 -54.45875,22.38182 -69.3374,28.01537 -73.99081,28.01537 -2.45266,0 -14.51905,-13.92491 -21.9253,-21.16648 z"
       id="path39"
       sodipodi:nodetypes="sssssssssscsssssssssssssscssscssssscssscssssssscssssssssssssssssssssccssssccsscscssssssssss" />
  </g>
</svg>
