<?xml version="1.0" encoding="UTF-8" standalone="no"?>
<!-- Created with Inkscape (http://www.inkscape.org/) -->

<svg
   width="1000"
   height="1000"
   viewBox="0 0 1000 1000"
   version="1.1"
   id="svg756"
   inkscape:version="1.1 (c68e22c387, 2021-05-23)"
   sodipodi:docname="u9152.svg"
   xmlns:inkscape="http://www.inkscape.org/namespaces/inkscape"
   xmlns:sodipodi="http://sodipodi.sourceforge.net/DTD/sodipodi-0.dtd"
   xmlns="http://www.w3.org/2000/svg"
   xmlns:svg="http://www.w3.org/2000/svg"
   xmlns:rdf="http://www.w3.org/1999/02/22-rdf-syntax-ns#"
   xmlns:cc="http://creativecommons.org/ns#"
   xmlns:dc="http://purl.org/dc/elements/1.1/">
  <defs
     id="defs750" />
  <sodipodi:namedview
     id="base"
     pagecolor="#ffffff"
     bordercolor="#666666"
     borderopacity="1.0"
     inkscape:pageopacity="0.0"
     inkscape:pageshadow="2"
     inkscape:zoom="1.4142136"
     inkscape:cx="680.59028"
     inkscape:cy="492.85343"
     inkscape:document-units="px"
     inkscape:current-layer="layer1"
     showgrid="true"
     units="px"
     inkscape:window-width="1118"
     inkscape:window-height="864"
     inkscape:window-x="766"
     inkscape:window-y="71"
     inkscape:window-maximized="0"
     showguides="true"
     inkscape:guide-bbox="true"
     inkscape:pagecheckerboard="0"
     inkscape:snap-global="true">
    <inkscape:grid
       type="xygrid"
       id="grid758" />
    <sodipodi:guide
       position="240,200"
       orientation="0,1"
       id="guide8"
       inkscape:locked="false" />
  </sodipodi:namedview>
  <metadata
     id="metadata753">
    <rdf:RDF>
      <cc:Work
         rdf:about="">
        <dc:format>image/svg+xml</dc:format>
        <dc:type
           rdf:resource="http://purl.org/dc/dcmitype/StillImage" />
        <dc:title />
      </cc:Work>
    </rdf:RDF>
  </metadata>
  <g
     inkscape:label="Layer 1"
     inkscape:groupmode="layer"
     id="layer1"
     transform="translate(0,-32.41664)"
     style="display:inline">
    <path
       style="fill:#000000;stroke-width:9.1966"
       d="M 70.233042,837.19829 C 60.192521,809.06188 164.18365,649.98471 255.89677,553.185 304.35024,502.04421 345,473.41664 350,468.41664 c 1,-14 3,-42 5.32179,-65.35135 2.83477,-28.5106 5.95033,-55.79719 17.14027,-73.52929 11.18995,-17.7321 38.45429,-25.90972 49.5866,-24.20237 15.28585,2.34437 18.37768,8.39589 16.09991,31.51181 C 436.89631,349.554 436,349.41664 436,353.41664 l 3,-3 c 3,-14 5.67979,-40.28089 16.66847,-80.49452 C 469.71121,218.53201 470,204.41664 475,184.41664 c -10.92099,8.9085 5.61934,-2.68736 -19.36079,12.41255 -45.4464,27.47129 -81.80853,10.01649 -76.75572,-19.39028 C 381.57462,161.7769 465.34286,112.15846 590.93956,51.831749 638.01633,29.219788 727.83545,24.818188 729.33511,49.48176 730,60.41664 710.82,71.249692 680.13348,82.851665 599.17192,113.46164 585,130.41664 550,148.41664 c -15,40 -46.12714,149.42628 -50,167 1.59209,-0.003 9,-5 10,-5 5,-20 10.9754,-42.84306 15.17014,-57.91941 9.19482,-33.04723 23.1432,-61.55983 34.64518,-81.11749 11.50199,-19.55765 22.55758,-30.16036 29.96685,-27.38781 7.55051,2.82541 36.58392,12.77986 34.91548,27.49236 -1.66844,14.7125 -17.69765,33.93235 -31.29557,62.04067 -8.13129,16.80822 -11.40208,24.89168 -17.32874,51.26745 30.93439,-15.1353 56.37034,-24.24799 84.10952,-26.59558 59.72402,-5.0545 86.96581,-1.79634 108.4689,21.32675 18.17476,19.544 30.88865,31.93348 30.88865,67.86921 0,17.59963 -0.54041,26.02385 -1.78284,33.44363 5.24243,-4.41978 6.28649,-5.18105 10.42518,-9.63153 14.60814,-15.70867 28.83208,15.65677 28.83208,33.31639 0,8.11827 -11.7857,20.51282 -23.746,32.43232 -6.45642,6.4344 -19.66446,18.77951 -28.26883,26.46304 -10.11162,23.03655 -19.89078,65.71237 -28.31636,93.99569 C 740,613.41664 728,654.41664 726,665.41664 c 9,7 4,49 -16,59 -5,15 -6.08093,20.19063 -11.17745,34.60537 C 693.79896,773.23047 674,789.41664 664,789.41664 c -15,0 -27.68605,-12.98411 -30,-25 -8.94447,4.07602 -25.01123,10.94057 -103.19009,68.39239 -52.39746,38.50567 -81.94376,58.62924 -102.3907,66.61796 -20.44694,7.98871 -31.79451,-20.15743 -31.79451,-38.19117 0,-10.40591 14.35076,-26.62768 44.53631,-49.80479 30.18556,-23.17712 76.2059,-53.30957 139.54508,-91.53683 31.84088,-19.21701 60.19068,-33.17648 72.29391,-44.47756 5,-15 5.93471,-19.75645 9.30071,-34.27705 C 665.25,628.41664 667,623.41664 668,619.41664 c -1.34682,-6.45703 -4.80717,-16.47141 -13.13726,-17.20469 -16.66018,-1.46656 -49.39393,12.3289 -106.62939,32.64447 -77.6303,27.55466 -111.51362,42.28381 -140.23335,59.56022 -1.28027,27.72359 0.59891,54.74447 3,76 13.56811,24.6994 14.16506,30.50082 2.21476,43.35142 -11.66567,12.54453 -43.63711,18.6449 -58.73075,6.77667 -15.28816,-12.02115 -17.31007,-25.25614 -17.13327,-112.15002 0.11021,-54.18622 2.1907,-100.01072 4.64448,-128.9725 l 4.444,-50.4521 -23.0936,30.4521 C 260.09348,642.82889 207.42465,711.0006 172.96053,785.07247 155.87711,821.78894 135.7381,859.33987 128.20717,868.51899 111.5295,888.8467 77.05472,856.31458 70.233042,837.19829 Z M 629.57427,549.95946 C 650.94127,548.16328 669,560.41664 679,575.41664 c 5,-15 6.57099,-21.59753 11.36147,-36.75051 C 698.02773,514.41664 699,510.41664 703,498.41664 c -10,5 -9,7 -22.80303,12.54917 -10.54723,4.24026 -31.13276,10.29338 -54.62266,10.27377 -35.76336,-0.0299 -73.28637,-14.91382 -93.86854,-34.13056 C 511.1236,467.89228 500,423.77759 500,390.41664 c -5,0 -6.6761,5 -11,5 -5.62063,32.65584 -1.74006,66.36113 7.84903,93.48245 6.38404,18.05634 -0.68395,26.99933 -10.10669,40.07861 -12.36882,17.16856 -27.1165,17.14455 -40.03741,-0.8359 -8.1316,-11.31577 -17.3029,-32.93488 -17.3029,-65.04875 0,-19.60729 -0.40203,-22.67641 0.59797,-33.67641 -2.82602,2.11726 -3,2 -5,3 -2,15 -5.86457,26.68105 -9.83125,78.05611 C 410,577.41664 409,599.41664 409,614.41664 c 7,-2 24.79498,-10.61215 44.3085,-18.04334 61.23744,-23.32062 107.8675,-40.66407 176.26577,-46.41384 z M 697.1668,443.52141 C 715.80448,435.09477 710,436.41664 720,430.41664 c 4.75378,-19.0508 7,-27 7.96651,-50.51486 0.94938,-23.09805 -4.53445,-42.94646 -11.275,-48.96207 C 698.8465,315.01392 650.17719,323.48855 597.13866,348.71756 577.93067,357.85429 567,365.41664 562,369.41664 c 0,10 -1,10 0.32529,25.29629 2.56462,29.60048 1.94956,50.35874 34.51885,60.56612 29.15586,9.13759 50.01229,10.98911 100.32266,-11.75764 z m -455.8752,26.93897 c -6.44606,-7.85923 -26.91472,-13.94237 -46.91349,-13.94237 -39.76427,0 -103.718345,-30.97698 -112.02766,-54.26206 -3.177329,-8.90379 2.920499,-30.25712 11.844108,-37.27381 12.666812,-9.95999 24.285222,-8.08886 67.779292,10.91583 28.87059,12.61497 58.71074,20.4755 65.32743,22.93632 17.69872,6.58235 49.59724,44.21901 49.59724,63.27496 0,16.99707 -21.08154,26.06088 -35.60692,8.35113 z M 187.57533,303.19941 C 170.70724,288.54305 129.56775,247.67571 96.154262,212.38309 64.444037,178.88953 42.650074,167.59255 38.232711,152.66897 c -4.417364,-14.92359 8.541871,-49.47379 30.338043,-49.47379 17.190212,0 50.219606,33.47793 113.476236,103.40558 23.08517,25.51972 42.43674,39.65138 60.29348,55.20244 17.25572,15.02765 18.78262,30.03768 17.96616,32.71097 -6.08257,19.91577 -43.03037,34.4918 -72.7313,8.68524 z"
       id="path39"
       sodipodi:nodetypes="sscssssccscssssscccssssscssscssscsccsscssssscscssccsssscssssscscsssccssssccscssscssscsssssssssssssssssss" />
  </g>
</svg>
