<?xml version="1.0" encoding="UTF-8" standalone="no"?>
<!-- Created with Inkscape (http://www.inkscape.org/) -->

<svg
   width="1000"
   height="1000"
   viewBox="0 0 1000 1000"
   version="1.1"
   id="svg756"
   inkscape:version="1.1 (c68e22c387, 2021-05-23)"
   sodipodi:docname="u91d1.svg"
   xmlns:inkscape="http://www.inkscape.org/namespaces/inkscape"
   xmlns:sodipodi="http://sodipodi.sourceforge.net/DTD/sodipodi-0.dtd"
   xmlns="http://www.w3.org/2000/svg"
   xmlns:svg="http://www.w3.org/2000/svg"
   xmlns:rdf="http://www.w3.org/1999/02/22-rdf-syntax-ns#"
   xmlns:cc="http://creativecommons.org/ns#"
   xmlns:dc="http://purl.org/dc/elements/1.1/">
  <defs
     id="defs750" />
  <sodipodi:namedview
     id="base"
     pagecolor="#ffffff"
     bordercolor="#666666"
     borderopacity="1.0"
     inkscape:pageopacity="0.0"
     inkscape:pageshadow="2"
     inkscape:zoom="0.5"
     inkscape:cx="874.83322"
     inkscape:cy="671.46395"
     inkscape:document-units="px"
     inkscape:current-layer="layer1"
     showgrid="true"
     units="px"
     inkscape:window-width="1118"
     inkscape:window-height="864"
     inkscape:window-x="606"
     inkscape:window-y="110"
     inkscape:window-maximized="0"
     showguides="true"
     inkscape:guide-bbox="true"
     inkscape:pagecheckerboard="0">
    <inkscape:grid
       type="xygrid"
       id="grid758" />
    <sodipodi:guide
       position="240,200"
       orientation="0,1"
       id="guide8"
       inkscape:locked="false" />
  </sodipodi:namedview>
  <metadata
     id="metadata753">
    <rdf:RDF>
      <cc:Work
         rdf:about="">
        <dc:format>image/svg+xml</dc:format>
        <dc:type
           rdf:resource="http://purl.org/dc/dcmitype/StillImage" />
        <dc:title />
      </cc:Work>
    </rdf:RDF>
  </metadata>
  <g
     inkscape:label="Layer 1"
     inkscape:groupmode="layer"
     id="layer1"
     transform="translate(0,-32.41664)"
     style="display:inline">
    <path
       style="fill:#000000;stroke-width:6.23201"
       d="m 531.70151,862.41664 c 0,-5.13093 -83.62846,-25.73564 -108.86511,-29.22295 -11.69926,5.04843 -17.60608,6.61118 -32.66741,8.39497 -23.29716,2.7592 -38.88262,-10.72436 -38.88262,-17.097 C 283.12722,808.89123 203.09576,800.2473 139.67687,792.79999 71.793535,784.82842 50.822729,738.76244 65.717322,723.8679 c 5.464895,-5.46491 12.037593,-9.32594 39.180708,-3.84263 19.70826,3.98137 46.9334,9.58477 74.21935,12.99961 10.76419,1.34715 26.61068,3.25874 36.87028,5.21471 -9.88612,-8.5337 -17.63965,-19.68621 -24.4796,-30.50162 -6.83997,-10.81541 -9.27469,-21.27191 -9.27469,-28.37028 0,-21.41782 39.21722,-45.3894 52.45635,-20.80583 11.96351,22.21491 44.78176,69.81017 63.15271,72.71084 1.14366,-3.43139 2.85453,-1.72877 4.39936,-28.70082 1.97732,-34.52295 5.08142,-47.42738 7.20335,-80.99518 -12.83888,0.98741 -25.28393,-1.26279 -50.31223,0.083 -79.06902,4.25153 -141.77531,-5.23543 -168.179712,-22.19165 -19.554401,-12.55729 -17.82701,-68.04919 3.116013,-64.13354 9.425899,1.76233 33.964399,6.3742 54.530009,10.24861 23.37573,4.40382 64.50775,5.5236 109.73022,2.98735 24.11274,-1.35234 30.22425,-1.3616 54.98327,-3.6431 0,-13.5365 0.3994,-14.67856 1.75608,-35.38047 7.1403,-108.95613 73.8061,-121.02965 73.8061,-14.74877 0,37.50133 -0.64797,37.49342 -0.87706,44.97881 7.96423,-0.71714 16.18978,-4.03112 53.75574,-8.95803 100.54731,-13.18718 163.13826,-15.51459 175.43436,-6.52346 9.59884,7.01883 9.47644,53.43589 -1.63971,67.18119 -14.47585,17.89968 -52.52093,24.43422 -52.52093,9.02086 0,-12.77286 -19.92439,-10.71468 -119.39904,2.67926 -26.297,3.54081 -32.19591,6.73104 -59.42075,10.62242 -1.78193,27.04917 -4.71339,60.10303 -7.85723,90.45822 -1.75779,16.97224 -4.75931,45.09334 -5.52741,53.32006 14.86999,2.56348 10.62881,6.2797 25.77502,6.76825 11.52612,-10.05927 73.63721,-64.05292 89.40626,-89.56779 11.55003,-18.68835 18.25613,-24.16225 26.2822,-16.1362 7.92647,7.92645 32.76543,31.15797 23.69136,47.6745 -9.07407,16.51654 -26.05477,34.82407 -42.26934,50.14239 -14.5465,13.74245 -17.07184,17.8581 -22.46113,23.35737 27.9669,5.59331 44.9023,12.31656 71.29406,20.2529 26.95737,8.10642 34.49571,57.34879 16.69453,64.17976 -12.55387,4.81739 -27.53431,11.29493 -27.53431,-1.83196 z M 478.60097,447.25243 c -6.39362,-6.39363 -104.99075,-28.99642 -142.80692,-32.24892 -55.70574,-4.79115 -134.22283,-27.80004 -134.22283,-39.33309 0,-14.1799 23.31788,-61.34268 51.21835,-51.01875 14.43807,5.34245 59.90383,14.44063 101.03504,20.21812 90.06337,12.65076 146.4052,29.46056 149.0292,43.08588 1.70085,8.83182 -18.56558,64.98402 -24.25284,59.29676 z M 40.400489,392.36694 c 0,-14.52505 47.700183,-81.51929 121.744621,-170.98864 30.72709,-37.12813 71.79948,-87.60734 91.272,-112.17602 67.14293,-84.714936 65.95091,-83.531548 71.0087,-70.495035 7.78755,20.072494 18.62389,98.109035 -64.38259,196.644915 -43.93079,52.14964 -84.08076,101.02623 -89.22217,108.61466 -33.72798,49.78067 -106.116532,69.76837 -118.011421,69.84716 -2.570701,0.017 -12.40914,-14.95205 -12.40914,-21.44704 z M 502.71323,286.76472 c -16.96261,-5.86519 7.2097,-25.20304 -42.98176,-47.42488 -32.47236,-14.37686 -91.22589,-31.80106 -119.9177,-31.80106 -28.90782,0 -5.07928,-56.81384 26.47843,-61.13931 38.91032,-5.33325 85.11558,6.70087 129.13288,30.16184 39.15785,20.87092 63.10456,46.49503 59.59931,64.57251 -3.42596,17.66861 -27.88221,54.07773 -52.31116,45.6309 z"
       id="path57"
       sodipodi:nodetypes="scscsssscssscscssssscsscssssscsccsssscssssssssssssssssssssssssss" />
  </g>
</svg>
