<?xml version="1.0" encoding="UTF-8" standalone="no"?>
<!-- Created with Inkscape (http://www.inkscape.org/) -->

<svg
   width="1000"
   height="1000"
   viewBox="0 0 1000 1000"
   version="1.1"
   id="svg756"
   inkscape:version="1.1 (c68e22c387, 2021-05-23)"
   sodipodi:docname="u9577.svg"
   xmlns:inkscape="http://www.inkscape.org/namespaces/inkscape"
   xmlns:sodipodi="http://sodipodi.sourceforge.net/DTD/sodipodi-0.dtd"
   xmlns="http://www.w3.org/2000/svg"
   xmlns:svg="http://www.w3.org/2000/svg"
   xmlns:rdf="http://www.w3.org/1999/02/22-rdf-syntax-ns#"
   xmlns:cc="http://creativecommons.org/ns#"
   xmlns:dc="http://purl.org/dc/elements/1.1/">
  <defs
     id="defs750" />
  <sodipodi:namedview
     id="base"
     pagecolor="#ffffff"
     bordercolor="#666666"
     borderopacity="1.0"
     inkscape:pageopacity="0.0"
     inkscape:pageshadow="2"
     inkscape:zoom="0.5"
     inkscape:cx="895"
     inkscape:cy="666"
     inkscape:document-units="px"
     inkscape:current-layer="layer1"
     showgrid="true"
     units="px"
     inkscape:window-width="1118"
     inkscape:window-height="864"
     inkscape:window-x="606"
     inkscape:window-y="116"
     inkscape:window-maximized="0"
     showguides="true"
     inkscape:guide-bbox="true"
     inkscape:pagecheckerboard="0">
    <inkscape:grid
       type="xygrid"
       id="grid758" />
    <sodipodi:guide
       position="240,200"
       orientation="0,1"
       id="guide8"
       inkscape:locked="false" />
  </sodipodi:namedview>
  <metadata
     id="metadata753">
    <rdf:RDF>
      <cc:Work
         rdf:about="">
        <dc:format>image/svg+xml</dc:format>
        <dc:type
           rdf:resource="http://purl.org/dc/dcmitype/StillImage" />
        <dc:title />
      </cc:Work>
    </rdf:RDF>
  </metadata>
  <g
     inkscape:label="Layer 1"
     inkscape:groupmode="layer"
     id="layer1"
     transform="translate(0,-32.41664)"
     style="display:inline">
    <path
       style="fill:#000000;stroke-width:5.83685"
       d="m 580,887.58963 c -13.82797,-5.30966 -48.51017,-36.46795 -71.17849,-54.05851 -12.18488,-9.45544 -14.3586,-13.80289 -25.22724,-22.49779 -40.2139,-14.1292 -59.76282,-32.22757 -38.95141,-43.21105 -9.78176,-11.95549 -9.78176,-10.86863 -17.66029,-20.10027 -9.01089,-10.55848 -31.22286,-40.23191 -31.22286,-51.00067 0,-7.60297 42.70708,-36.35577 52.89805,-36.35577 10.82939,0 16.95998,5.69724 25.74787,21.88821 9.71644,17.90174 28.542,42.62733 37.97463,52.49401 26.25679,-11.07513 33.5299,-14.03116 41.82073,-24.80446 11.89199,-15.45276 21.34947,-35.17094 27.27323,-48.9411 11.79939,-27.42842 43.01186,-45.7655 53.854,-39.06467 3.61167,2.23214 26.2134,35.14106 20.9946,44.9458 -4.58134,8.60726 -11.64814,26.92856 -15.70388,38.1645 -12.2794,34.01842 -24.55671,48.39489 -47.14768,68.4364 -11.05763,9.80974 -23.53895,11.18626 -27.24232,14.81277 10.86862,9.78177 27.21691,27.07135 53.00226,38.47745 14.36233,6.35319 40.08771,5.8642 54.02755,5.51303 48.14844,-1.21294 9.23134,35.26267 1.31424,43.48204 C 658.5,892.45619 619.98772,902.944 580,887.58963 Z M 266.69436,842.74356 c -12.72406,-13.64365 -31.9471,-44.00787 -37.40431,-56.84895 -17.23637,-40.55803 -30.45372,-90.72408 -30.45372,-123.32996 -23.91097,4.34745 -34.01888,6.90254 -67.22442,8.87804 -64.466884,3.83532 -93.389655,-47.35661 -93.389655,-63.49177 0,-10.59471 0.228047,-10.62604 67.123815,-9.22696 53.03799,1.1093 96.27285,-9.64486 158.50278,-25.86945 18.61569,-4.85347 23.9492,-6.28844 36.59256,-9.18674 -7.96963,-20.25371 -9.77845,-30.21999 -11.14358,-44.75255 -2.68625,-30.3661 -4.26832,-67.34159 -4.18212,-104.54964 0,0 -0.066,-45.16408 0.17953,-70.47027 -5.67984,-1.86535 -15.52053,-4.00808 -19.76281,-7.89486 -7.65427,-7.01285 -13.08859,-6.44715 -15.56973,-29.16223 -1.89605,-17.35852 10.642,-33.52942 20.3268,-32.16786 3.85893,0.54253 9.95584,0.93831 12.58648,0.89106 -2.91967,-37.73355 -7.74368,-54.70491 -10.50916,-88.42207 -6.00247,-73.18291 -2.50426,-111.051628 1.50211,-121.589138 9.98794,-26.270267 67.69316,-13.565228 69.2121,26.989559 0.77154,20.599429 3.47975,64.892859 7.29607,98.294989 3.91187,34.23844 9.24801,55.13804 9.31486,86.90038 15.37707,-0.20128 22.16765,0.20128 38.22284,0.20128 26.49108,0 71.39209,-5.56018 105.09354,-12.35596 77.40462,-15.60836 100.31868,0.8389 100.31868,12.03657 0,5.33871 -15.69861,30.34665 -36.86954,40.434 -39.00677,18.58562 -122.14195,26.70159 -151.80716,26.5007 -7.1827,-0.0486 -38.65543,1.82567 -51.69777,1.82567 -0.96391,21.73985 -1.06845,33.17299 -1.08686,53.08633 9.78177,1.08686 106.95717,-4.585 179.17819,-11.87525 35.87219,-3.62106 52.79153,2.4206 60.68723,13.07626 17.63316,23.79683 10.11293,79.1352 -26.16699,81.10765 -7.44907,0.405 -12.62889,-3.05932 -12.70939,-22.70489 -0.0179,-4.38248 -11.87498,-9.69971 -39.39876,-6.11113 -21.57456,2.81292 -46.96753,5.21808 -64.59305,6.74411 -18.74314,1.6228 -39.96215,5.36644 -60.6685,5.36644 -12.11125,0 -25.46011,0.6038 -36.32873,0.6038 0,17.38981 -0.0119,27.64563 1.50557,42.58237 3.92874,38.67268 18.96919,49.5413 26.0383,36.16373 4.37731,-8.28358 6.05377,-22.31803 6.05377,-30.13475 0,-7.81664 2.34557,-9.86469 5.21237,-9.86469 8.79079,0 50.8727,14.51341 49.62244,29.04934 -0.59802,6.95293 -1.24729,10.30434 -3.0972,14.98498 17.06599,-1.42005 24.4556,-3.59058 44.67296,-5.009 121.18637,-8.50225 274.49539,-4.00705 278.93048,3.16902 10.90084,17.63798 -9.74159,59.72164 -162.02983,60.58203 -146.57874,0.8282 -156.51266,1.61712 -250.21821,19.87171 0,0 -58.6418,12.93852 -88.88465,21.18294 0.89755,15.66654 1.3046,19.82772 1.9569,29.74158 2.522,38.33061 25.50335,83.68496 46.20869,107.89716 16.85685,19.71188 24.38385,23.70018 57.77124,-0.28625 50.59926,-36.35192 76.00747,12.48516 29.55129,56.10051 -39.34259,36.93679 -106.4377,35.38462 -138.46545,1.04216 z M 463.88182,110.60911 c -41.47962,-0.005 -71.1031,0.75129 -77.60664,-4.37763 C 367.3,91.266987 371.54815,53.479206 376.37867,47.824341 c 5.18153,-6.065774 36.77711,-10.645293 66.64883,-12.93578 29.87172,-2.290485 64.89283,-1.693299 85.49044,3.292361 35.8861,8.686239 67.01997,21.049081 66.16712,37.76363 -1.24837,24.466318 -19.81478,57.850568 -38.19746,47.643688 -29.90345,-16.60372 -66.46356,-12.97544 -92.60578,-12.97913 z"
       id="path111"
       sodipodi:nodetypes="ssccsssscsssssscsssssscssssccscssscsssscsssssccssssssscssssscsssscsssssssssssss" />
  </g>
</svg>
