<?xml version="1.0" encoding="UTF-8" standalone="no"?>
<!-- Created with Inkscape (http://www.inkscape.org/) -->

<svg
   width="1000"
   height="1000"
   viewBox="0 0 1000 1000"
   version="1.1"
   id="svg756"
   inkscape:version="1.1 (c68e22c387, 2021-05-23)"
   sodipodi:docname="u9650.svg"
   xmlns:inkscape="http://www.inkscape.org/namespaces/inkscape"
   xmlns:sodipodi="http://sodipodi.sourceforge.net/DTD/sodipodi-0.dtd"
   xmlns="http://www.w3.org/2000/svg"
   xmlns:svg="http://www.w3.org/2000/svg"
   xmlns:rdf="http://www.w3.org/1999/02/22-rdf-syntax-ns#"
   xmlns:cc="http://creativecommons.org/ns#"
   xmlns:dc="http://purl.org/dc/elements/1.1/">
  <defs
     id="defs750" />
  <sodipodi:namedview
     id="base"
     pagecolor="#ffffff"
     bordercolor="#666666"
     borderopacity="1.0"
     inkscape:pageopacity="0.0"
     inkscape:pageshadow="2"
     inkscape:zoom="0.5"
     inkscape:cx="615.68315"
     inkscape:cy="731.11098"
     inkscape:document-units="px"
     inkscape:current-layer="layer1"
     showgrid="true"
     units="px"
     inkscape:window-width="1118"
     inkscape:window-height="864"
     inkscape:window-x="791"
     inkscape:window-y="130"
     inkscape:window-maximized="0"
     showguides="true"
     inkscape:guide-bbox="true"
     inkscape:pagecheckerboard="0">
    <inkscape:grid
       type="xygrid"
       id="grid758" />
    <sodipodi:guide
       position="240,200"
       orientation="0,1"
       id="guide8"
       inkscape:locked="false" />
  </sodipodi:namedview>
  <metadata
     id="metadata753">
    <rdf:RDF>
      <cc:Work
         rdf:about="">
        <dc:format>image/svg+xml</dc:format>
        <dc:type
           rdf:resource="http://purl.org/dc/dcmitype/StillImage" />
        <dc:title />
      </cc:Work>
    </rdf:RDF>
  </metadata>
  <g
     inkscape:label="Layer 1"
     inkscape:groupmode="layer"
     id="layer1"
     transform="translate(0,-32.41664)"
     style="display:inline">
    <path
       style="fill:#000000;stroke-width:5.77778"
       d="M 69.103802,960.50972 C 64,953.41664 48.539392,924.77502 46.247584,881.5287 43.270468,825.35073 43.940996,795.74932 48.595892,792.87239 54,788.41664 70,803.41664 76,810.41664 76.739918,804.97303 77.041129,785.25908 78.695084,766.34177 80,751.41664 80,740.41664 80,733.41664 c -9.626602,0 -35,-6 -42.591326,-14.85303 -8.712476,-10.16052 -10.435207,-42.62027 -10.435207,-52.54444 0,-19.63584 22.444331,-37.56048 26.755969,-21.07278 2.026683,7.75008 7.827445,12.13692 16.04871,12.13692 6.250717,0 10.804014,-0.61089 12.221854,-0.66667 1,-11 3.76489,-60.91121 5.05838,-99.24585 C 90.54236,453.91758 90,240.41664 83,156.41664 c -7.343747,0 -18,-29 -19.685744,-38.25268 -1.949895,-10.70255 10.758879,-23.274517 18.616884,-25.246753 31.21814,-7.835262 122.42268,-3.00892 152.51333,12.426003 48.60061,24.92957 68.79192,52.07812 69.77778,91.20558 0.77775,30.86785 -13.84677,50.08294 -30.83847,74.55263 -10.36116,14.92108 -36.78781,46.82108 -63.61478,68.44445 -26.82697,21.62336 -42.89966,32.0429 -43.05042,35.37675 43.28142,22.49402 78.33141,45.66792 98.91068,83.1654 23.18583,42.24689 30.32046,93.00286 15.44377,138.12087 -14.87669,45.118 -51.7647,84.59802 -100.62415,112.29302 C 167.03886,716.10311 161,717.41664 150.21882,723.30553 149,743.41664 147.342,785.2718 147.14734,800.81346 146,892.41664 140,937.41664 132.65322,948.92416 c -8.98459,14.07288 -26.52301,21.96756 -37.267345,21.96756 -5.828027,0 -20.257875,-2.00979 -26.282073,-10.382 z M 212.10522,578.89662 c 11.34217,-27.16005 13.24113,-52.52548 3.70492,-74.06407 C 205,480.41664 191.03767,469.39635 156.89727,455.81515 156,474.41664 157.86304,490.64528 157.2745,526.56034 156.11337,597.41664 152,635.41664 151,644.41664 c 29,-14 48.99009,-36.50902 61.10522,-65.52002 z M 196.88392,261.8175 C 225,237.41664 236,217.41664 236.22225,193.90439 236.33085,182.415 224.64721,168.95217 197.0722,160.57069 174.70146,153.77106 164.76045,154.29661 150,155.41664 c 1.53346,7.02288 5,59 5.81511,88.33333 0.93713,33.72447 2.18489,40.66667 1.04173,49.11877 16.14316,-8.4521 19.42881,-13.1748 40.02708,-31.05124 z m 101.39615,543.07417 c -9.1181,-9.76098 -18.61125,-27.31098 -21.09587,-39 -7.64631,-35.97245 5.12466,-113.69799 20.96607,-204.36392 45.09096,-258.07123 59.94301,-360.71744 57.11634,-371.9798 C 350.67509,171.25389 414,120.41664 436,137.41664 c 7,-3 2.72689,-1.36144 19.42238,-7.80018 43.35343,-16.71955 67.63117,-21.2003 99.15439,-21.43845 33.51703,-0.25321 81.61341,19.64476 95.45733,55.29462 13.84392,35.64987 23.43539,99.05162 15.94262,161.80599 -11.09724,92.94294 -60.54362,150.76393 -113.56681,152.95903 -14.8921,0.61652 -50.78329,1.09443 -72.68513,7.53886 -42.42264,12.4825 -65.52825,13.00237 -94.91452,14.41791 -6.52672,35.14204 -7.06904,37.0837 -12.89658,68.88889 -25.12082,137.10273 -27.62655,172.84794 -7.20847,177.56522 C 394,753.41664 435,742.41664 455.67791,718.19442 c 12.61906,-14.78204 17.32209,-21.77778 29.09849,-36 -15.97205,-13.95108 -26.12896,-20.39283 -45.34193,-29.12213 -23.10419,-10.49726 0.26812,-73.6672 17.31995,-75.52242 39.60742,-4.30925 46.98886,14.4607 76.24558,38.86677 12,-14 26,2 31,22 16,-11 25.909,-31.45946 38.12654,-53.84731 12.21754,-22.38785 20.65592,-47.27104 25.4516,-58.81936 11.62789,-28.19508 21.62949,-47.17577 28.29672,-45.35875 44.12514,12.02542 45.89025,81.7536 19.95398,132.82962 -21.24871,41.84492 -32.52161,52.74522 -68.49545,66.23177 34.32798,33.48743 81.49765,54.78067 111.69942,47.30993 36.25299,-8.96758 25.42424,43.37146 15.78581,54.99352 C 724.34755,794.38218 693.398,806.21153 673.6301,802.7342 607.01311,791.01574 571.28844,754.79945 526.59729,716.63886 524,719.41664 514.27738,735.47334 499.75923,751.72297 450,807.41664 435,817.41664 396.58835,823.72416 c -46.49197,7.63438 -79.17283,1.65204 -98.30828,-18.83249 z m 194.15142,-391.5736 c 25.0998,-11.55328 52.4297,-3.96145 72.88583,-20.34057 C 576.2499,384.22384 583,384.41664 589.20651,354.70918 578,359.41664 550.78449,357.92681 539.17119,355.86337 479.05467,345.18195 460.26996,339.88519 407,370.41664 c -5.63246,29.7881 -5.82203,37.81893 -10.78076,61.68174 37.46439,-2.83835 58.44949,-1.39835 96.21225,-18.78031 z m 46.35089,-121.0877 c 35.20798,5.25129 46.21762,5.18627 59.68478,-4.5034 C 600,272.41664 600.61463,233.66383 594.27983,203.07956 590,182.41664 578.56265,171.71006 540.52754,173.06286 487.0576,174.96463 446,204.41664 436.38211,220.03469 431,239.41664 428.60977,250.80622 420.34449,298.60085 c 51.8369,-22.89144 70.60448,-13.50486 118.43789,-6.37048 z"
       id="path57"
       sodipodi:nodetypes="ssccscsssscscsssssscssscsssssscscsssscscssssscsssssscssscssccscsscssscssssscsccsscssccs" />
  </g>
</svg>
