<?xml version="1.0" encoding="UTF-8" standalone="no"?>
<!-- Created with Inkscape (http://www.inkscape.org/) -->

<svg
   width="1000"
   height="1000"
   viewBox="0 0 1000 1000"
   version="1.1"
   id="svg756"
   inkscape:version="1.1 (c68e22c387, 2021-05-23)"
   sodipodi:docname="u9996.svg"
   xmlns:inkscape="http://www.inkscape.org/namespaces/inkscape"
   xmlns:sodipodi="http://sodipodi.sourceforge.net/DTD/sodipodi-0.dtd"
   xmlns="http://www.w3.org/2000/svg"
   xmlns:svg="http://www.w3.org/2000/svg"
   xmlns:rdf="http://www.w3.org/1999/02/22-rdf-syntax-ns#"
   xmlns:cc="http://creativecommons.org/ns#"
   xmlns:dc="http://purl.org/dc/elements/1.1/">
  <defs
     id="defs750" />
  <sodipodi:namedview
     id="base"
     pagecolor="#ffffff"
     bordercolor="#666666"
     borderopacity="1.0"
     inkscape:pageopacity="0.0"
     inkscape:pageshadow="2"
     inkscape:zoom="0.5"
     inkscape:cx="242.24116"
     inkscape:cy="629.85095"
     inkscape:document-units="px"
     inkscape:current-layer="layer1"
     showgrid="true"
     units="px"
     inkscape:window-width="1118"
     inkscape:window-height="886"
     inkscape:window-x="550"
     inkscape:window-y="89"
     inkscape:window-maximized="0"
     showguides="true"
     inkscape:guide-bbox="true"
     inkscape:pagecheckerboard="0">
    <inkscape:grid
       type="xygrid"
       id="grid758" />
    <sodipodi:guide
       position="240,200"
       orientation="0,1"
       id="guide8"
       inkscape:locked="false" />
  </sodipodi:namedview>
  <metadata
     id="metadata753">
    <rdf:RDF>
      <cc:Work
         rdf:about="">
        <dc:format>image/svg+xml</dc:format>
        <dc:type
           rdf:resource="http://purl.org/dc/dcmitype/StillImage" />
        <dc:title />
      </cc:Work>
    </rdf:RDF>
  </metadata>
  <g
     inkscape:label="Layer 1"
     inkscape:groupmode="layer"
     id="layer1"
     transform="translate(0,-32.41664)"
     style="display:inline">
    <path
       style="fill:#000000;stroke-width:9.33355"
       d="m 276.66024,900.12818 c -3.71075,-6.17848 -8.10432,-28.5062 -9.76352,-49.61718 -1.65919,-21.11096 -5.70777,-61.48362 -8.99683,-89.71696 -3.28907,-28.23334 -6.35628,-81.79667 -6.81601,-119.02963 -0.45974,-37.23294 -5.93161,-94.31538 -12.1597,-126.84986 -12.91889,-67.48619 -1.70376,-94.65406 40.76167,-98.74227 23.6804,-2.27974 40.45767,-16.80531 58.34832,-50.5173 4.08925,-7.70551 8.82872,-14.48598 10.39133,-19.29729 -4.16977,-0.43708 -66.34873,23.05088 -125.29595,46.70461 C 134.20029,428.74692 111.70758,437.83861 80.143982,429.56327 11.899387,411.6709 14.614127,406.04862 189.47238,333.87529 246.67514,310.26464 315.34871,284.4061 342.08031,276.41183 420.64797,252.91566 451.68301,234.07305 527.11102,125.60418 600.88931,19.507758 600.08851,20.077997 636.77605,47.51396 c 15.3428,11.473779 16.10531,16.8101 4.59735,32.173473 -7.58793,10.130023 -22.22126,30.845537 -32.51851,46.034467 -10.29724,15.1889 -33.23051,47.37877 -50.96281,71.53301 -17.73228,24.15425 -29.48021,42.15995 -41.58056,51.46379 23.20032,-6.76975 74.1214,-28.74273 85.27817,-46.92099 9.99504,-16.28532 16.76983,-15.20765 33.43683,-5.76647 47.79887,27.07612 -6.24335,89.71061 -96.07644,111.35178 -32.44875,7.81705 -85.08228,18.17955 -116.96338,23.0278 -24.7157,3.75859 -48.94379,8.02664 -54.18422,10.57749 7.39601,2.88972 8.50682,3.3845 17.64103,7.21044 27.2152,11.39928 48.03407,42.29744 38.37958,57.90362 -2.77481,4.48539 -5.5987,15.23443 -17.10224,19.31471 11.50354,-4.08028 34.84521,-1.39742 49.96661,2.19985 27.45975,6.53247 51.37226,25.26811 67.42084,44.5196 12.55747,15.06366 26.92632,40.36869 37.86986,64.41059 10.94352,24.0419 14.26566,66.72247 13.12188,76.73362 11.2792,0.37949 13.32682,-0.71747 41.68155,-5.71757 61.45825,-10.83759 66.21097,5.81817 60.3997,25.51891 -3.72037,12.61237 -16.89516,27.43631 -55.7364,39.62337 -31.24122,9.80239 -46.22978,7.19257 -60.88599,9.88514 -8.43736,25.54619 -23.67059,53.45289 -46.22809,79.32919 -22.55748,25.87629 -48.97609,51.03894 -65.78434,60.03442 -30.56438,16.35751 -42.74286,18.13461 -71.95616,10.49979 l -35.16491,-9.19027 2.66816,31.65553 c 1.46747,17.41059 -2.74627,38.15929 -9.36388,46.10835 -13.68728,16.44105 -47.97384,15.90997 -58.06944,-0.89942 z M 440,752.41664 c 15.67081,-15.78767 32.72908,-37.19288 37.90727,-47.56716 3.94177,-7.89714 7.5473,-12.15885 9.35412,-18.3128 -6.6634,0.35874 -11.32924,1.01776 -19.53236,2.14651 -10.77625,1.48281 -42.83407,4.35522 -71.23961,6.38314 -33.72994,2.40802 -55.20979,3.65571 -66.23589,3.55711 0.1358,8.47206 0.13696,14.95545 5.80628,26.5084 29.2738,59.65428 63.01788,68.51229 103.94019,27.2848 z m 71.61862,-134.16085 c 1.08916,-16.02247 2.43196,-27.39581 -12.00997,-63.97803 -36.35822,-92.09763 -133.41953,-79.38909 -164.21919,21.50171 -5.79073,18.96879 -8.18139,43.23281 -8.04559,51.70485 9.93544,-0.0158 41.50079,-1.22345 94.23626,-2.62104 47.61649,-1.26191 86.6471,-5.90576 90.03849,-6.60749 z M 202.4529,231.10225 C 142.24294,196.5337 105.6024,105.85824 142.27677,82.182643 c 24.5911,-15.875127 64.13504,4.610375 68.87385,35.679667 4.04911,26.5473 33.96886,62.69298 53.59761,64.75055 7.19977,0.75473 22.72513,-3.20137 34.5008,-8.79132 11.77567,-5.58992 31.861,-9.18895 44.63404,-7.99785 37.2785,3.47627 26.14018,37.98994 -20.74764,64.28955 -43.16368,24.21067 -79.71437,24.51023 -120.68253,0.98901 z"
       id="path111"
       sodipodi:nodetypes="ssssssscsssssssssccssscsscssscssscssscssssscsscsscsscccssssssss" />
  </g>
</svg>
