<?xml version="1.0" encoding="UTF-8" standalone="no"?>
<!-- Created with Inkscape (http://www.inkscape.org/) -->

<svg
   width="1000"
   height="1000"
   viewBox="0 0 1000 1000"
   version="1.1"
   id="svg756"
   inkscape:version="1.1 (c68e22c387, 2021-05-23)"
   sodipodi:docname="u9ad8.svg"
   xmlns:inkscape="http://www.inkscape.org/namespaces/inkscape"
   xmlns:sodipodi="http://sodipodi.sourceforge.net/DTD/sodipodi-0.dtd"
   xmlns="http://www.w3.org/2000/svg"
   xmlns:svg="http://www.w3.org/2000/svg"
   xmlns:rdf="http://www.w3.org/1999/02/22-rdf-syntax-ns#"
   xmlns:cc="http://creativecommons.org/ns#"
   xmlns:dc="http://purl.org/dc/elements/1.1/">
  <defs
     id="defs750" />
  <sodipodi:namedview
     id="base"
     pagecolor="#ffffff"
     bordercolor="#666666"
     borderopacity="1.0"
     inkscape:pageopacity="0.0"
     inkscape:pageshadow="2"
     inkscape:zoom="0.5"
     inkscape:cx="499"
     inkscape:cy="200"
     inkscape:document-units="px"
     inkscape:current-layer="layer1"
     showgrid="true"
     units="px"
     inkscape:window-width="1118"
     inkscape:window-height="864"
     inkscape:window-x="596"
     inkscape:window-y="64"
     inkscape:window-maximized="0"
     showguides="true"
     inkscape:guide-bbox="true"
     inkscape:pagecheckerboard="0">
    <inkscape:grid
       type="xygrid"
       id="grid758" />
    <sodipodi:guide
       position="240,200"
       orientation="0,1"
       id="guide8"
       inkscape:locked="false" />
  </sodipodi:namedview>
  <metadata
     id="metadata753">
    <rdf:RDF>
      <cc:Work
         rdf:about="">
        <dc:format>image/svg+xml</dc:format>
        <dc:type
           rdf:resource="http://purl.org/dc/dcmitype/StillImage" />
        <dc:title />
      </cc:Work>
    </rdf:RDF>
  </metadata>
  <g
     inkscape:label="Layer 1"
     inkscape:groupmode="layer"
     id="layer1"
     transform="translate(0,-32.41664)"
     style="display:inline">
    <path
       style="fill:#000000;stroke-width:15.2997"
       d="m 278.59821,857.05558 c -5.52754,-12.29965 -10.05006,-47.4903 -10.05006,-78.2015 0,-33.21684 7.71672,-73.96505 23.04009,-82.1205 15.32339,-8.15547 59.58227,-3.75093 90.00891,13.27215 22.83767,12.77722 35.03466,41.38111 33.18483,50.79072 -1.84984,9.40959 -17.74648,19.65764 -43.09603,19.65764 -11.62081,0 -16.85542,-0.0211 -27.68595,-2.03745 0,10.08192 -0.45134,24.60138 -0.45134,37.38189 0,22.5612 5.3202,27.31168 21.76942,27.31168 17.81723,0 96.30854,-39.77337 139.47965,-79.04477 43.17112,-39.27139 49.18815,-59.97528 55.69094,-82.09844 8.54366,-29.06641 -4.2377,-49.21658 -26.54062,-64.24558 -22.30292,-15.029 -52.29351,-24.9696 -90.50054,-25.6824 -76.41406,-1.4256 -164.94751,23.37762 -215.56953,78.57176 -18.32786,19.98321 -41.35414,49.68621 -49.44549,58.05926 -8.09135,8.37304 -13.84533,25.61263 -19.81439,41.6713 -9.85269,26.50691 -89.356101,41.88023 -106.572921,27.17923 -16.539108,-14.12231 30.263816,-105.96698 95.153391,-162.97711 95.14034,-83.58758 181.95769,-118.72469 299.08136,-119.65484 38.91951,-0.30908 66.45645,7.49434 87.95313,14.21646 C 580,543.41664 610.5424,573.44905 625.32078,605.18691 638,632.41664 640,663.41664 633.80116,689.98629 c -8.69003,37.24748 -28.02839,64.60447 -55.11901,91.47385 -27.09063,26.86938 -71.24555,51.90611 -127.17932,74.42881 -97.21719,39.14618 -159.12291,31.83314 -172.90462,1.16663 z M 186.20144,529.49956 c 0,-6.48311 4.80121,-18.8944 21.25919,-37.43854 10.80721,-12.17709 15.67068,-16.39399 25.31715,-31.22471 1.18406,-20.45598 3.24602,-48.29159 4.92606,-87.86307 2.20458,-51.92634 6.40834,-107.28854 10.56889,-120.84896 -14.07968,6.04915 -17.32884,12.0983 -37.73111,19.44026 -16.27806,5.85783 -40.15804,19.29489 -70.76566,26.53529 -30.60762,7.24041 -61.068973,10.82984 -73.888004,6.62954 -33.658047,-11.02846 -38.724082,-78.71977 2.605828,-69.84576 15.530292,3.33453 73.679636,-14.84598 128.318476,-39.89863 48.53661,-22.25469 56.40784,-27.56318 74.03847,-36.57336 4.03042,-16.19461 10.99633,-19.81754 11.65364,-49.38969 C 283.2631,74.886731 263.26936,60.617041 289.49111,41.996361 303.98058,31.707045 370,23.41664 367.49495,70.66619 c 16.24579,0 25.27192,-6.925398 50.31471,-1.817187 33.93516,6.922071 42.32498,22.761744 38.9899,42.615167 -3.3351,19.85343 -14.39511,43.72062 -53.3529,66.69771 -36.50597,21.53103 -34.53645,21.56921 -61.61277,31.65112 -7.39122,24.88683 -35.10509,112.40742 -46.42927,159.6894 l -10.58176,52.53277 48.00395,-44.99162 c 60.92049,-57.09763 114.54363,-43.5358 113.70473,-4.11946 -0.739,34.72123 -31.0039,61.65008 -121.6794,114.53714 -43.25575,25.22918 -78.64681,51.24694 -78.64681,57.81724 0,6.5703 -11.17613,15.60799 -24.83584,20.08376 -13.65971,4.47578 -35.16805,-29.37957 -35.16805,-35.86267 z"
       id="path57"
       sodipodi:nodetypes="sssssscsssssssssssssssssssscscssssscsscssscscssssss" />
  </g>
</svg>
