<?xml version="1.0" encoding="UTF-8" standalone="no"?>
<!-- Created with Inkscape (http://www.inkscape.org/) -->

<svg
   width="1000"
   height="1000"
   viewBox="0 0 1000 1000"
   version="1.1"
   id="svg756"
   inkscape:version="1.1 (c68e22c387, 2021-05-23)"
   sodipodi:docname="u9b54.svg"
   xmlns:inkscape="http://www.inkscape.org/namespaces/inkscape"
   xmlns:sodipodi="http://sodipodi.sourceforge.net/DTD/sodipodi-0.dtd"
   xmlns="http://www.w3.org/2000/svg"
   xmlns:svg="http://www.w3.org/2000/svg"
   xmlns:rdf="http://www.w3.org/1999/02/22-rdf-syntax-ns#"
   xmlns:cc="http://creativecommons.org/ns#"
   xmlns:dc="http://purl.org/dc/elements/1.1/">
  <defs
     id="defs750" />
  <sodipodi:namedview
     id="base"
     pagecolor="#ffffff"
     bordercolor="#666666"
     borderopacity="1.0"
     inkscape:pageopacity="0.0"
     inkscape:pageshadow="2"
     inkscape:zoom="0.5"
     inkscape:cx="895.76325"
     inkscape:cy="661.67757"
     inkscape:document-units="px"
     inkscape:current-layer="layer1"
     showgrid="true"
     units="px"
     inkscape:window-width="1118"
     inkscape:window-height="864"
     inkscape:window-x="531"
     inkscape:window-y="57"
     inkscape:window-maximized="0"
     showguides="true"
     inkscape:guide-bbox="true"
     inkscape:pagecheckerboard="0"
     inkscape:snap-others="false">
    <inkscape:grid
       type="xygrid"
       id="grid758" />
    <sodipodi:guide
       position="240,200"
       orientation="0,1"
       id="guide8"
       inkscape:locked="false" />
  </sodipodi:namedview>
  <metadata
     id="metadata753">
    <rdf:RDF>
      <cc:Work
         rdf:about="">
        <dc:format>image/svg+xml</dc:format>
        <dc:type
           rdf:resource="http://purl.org/dc/dcmitype/StillImage" />
        <dc:title />
      </cc:Work>
    </rdf:RDF>
  </metadata>
  <g
     inkscape:label="Layer 1"
     inkscape:groupmode="layer"
     id="layer1"
     transform="translate(0,-32.41664)"
     style="display:inline">
    <path
       style="fill:#000000;stroke-width:8.51811"
       d="m 423.58147,603.77869 c -1.57512,4.87822 -3.35661,14.74319 -3.87589,16.72261 6.00822,-2.17693 23.45817,-4.32012 38.74414,-6.48479 15.1587,-2.14666 31.77676,-7.56803 34.7929,-10.98334 1.93082,-2.18636 9.18295,-13.4218 4.80416,-12.09027 -31.67869,9.63303 -50.28282,6.02692 -74.46531,12.83579 z m -53.45882,-50.15165 c -16.37026,3.51154 -38.05618,17.08187 -45.85545,20.2548 -6.50267,2.64545 -9.86681,12.77821 -11.71116,15.11971 10.60971,-4.54604 27.60196,-14.0286 55.16217,-22.53494 -0.84947,-2.08797 3.2539,-10.75162 2.40444,-12.83957 z m 67.20011,0.17903 c 5.4913,-1.50223 61.64068,-14.66211 75.69001,-16.37857 1.75506,-0.21441 5.79084,-8.21247 2.36661,-12.16567 -6.06777,-7.00514 -71.01034,12.11449 -73.9354,13.2652 -0.76366,3.53227 -3.81023,12.29354 -4.12122,15.27904 z M 291.32849,492.7444 c 14.5399,1.69581 17.81395,0.9935 31.2413,5.24807 -13.2429,-16.14649 -41.46265,-21.91544 -51.82327,-24.88197 -13.67791,28.87884 -20.42838,52.10587 -30.2279,74.17814 -13.15634,29.63306 -26.83165,32.97434 -46.61324,31.14705 -26.94791,-2.48927 -35.43329,-14.47932 -3.68375,-97.50239 6.47315,-16.92685 9.90679,-26.40298 13.16069,-37.15458 -3.69123,0.56971 -16.37026,3.51155 -19.64432,4.21385 -1.03593,7.78029 -6.073,27.57185 -10.31396,48.93485 -4.02364,20.26829 -16.79912,77.24771 -34.744,150.42149 C 109.80142,765.10714 103.62953,781.99363 84.958687,794.33176 68.299054,805.34082 60.957561,805.89002 50.037531,796.94413 32.986803,782.97586 35.433247,754.44388 62.790283,648.21349 118.51034,431.84633 131.17849,299.55614 101.36618,245.37532 83.569409,213.0315 84.864199,194.94607 105.6528,185.50038 c 22.06064,-10.02368 47.50143,-1.00263 57.82338,21.76939 1.29451,2.85588 1.38685,3.11527 5.54183,13.29566 -3.21068,-20.39147 7.82743,-30.40833 18.77206,-37.12343 28.84073,-17.69528 94.76119,-44.43392 132.69066,-60.48455 25.19505,-10.6618 33.00728,-13.95913 47.36761,-18.66108 23.21215,-69.192645 42.11066,-76.48962 66.62372,-70.224513 16.85304,4.307344 22.68851,32.25636 12.36818,49.388428 7.60489,-1.306998 22.81469,-3.920993 49.47762,-7.770418 109.48554,-15.806825 188.37104,4.730276 162.74246,45.256393 -10.85788,17.16942 -48.87466,12.76884 -121.90682,19.99639 -28.1747,2.78829 -73.57788,10.39418 -120.73051,23.74765 -47.15263,13.35345 -96.26203,34.44483 -139.05952,51.48114 -35.56888,14.15881 -70.6672,24.10012 -80.99555,24.06931 -8.28058,-0.0247 -16.327,-2.58119 -22.25312,-7.14758 1.22005,4.02768 6.94198,18.56525 9.89499,32.16823 4.26059,19.62644 6.82361,32.675 8.31522,38.84125 5.90597,-5.48291 8.51947,-7.52886 17.59193,-14.76393 17.9463,-14.31169 83.32492,-40.45756 98.59335,-39.34636 7.87017,0.57277 17.58771,10.43566 24.50676,21.89449 6.91903,11.45883 -6.29183,32.57388 -15.63889,60.84803 17.8417,-7.39459 30.52715,-14.14025 43.51015,-0.10214 7.16688,7.74931 11.70525,16.79032 10.70446,27.02319 -0.82559,8.44177 -3.56379,11.76191 -10.61673,17.03037 -11.63735,8.69292 -26.22583,13.71349 -31.70502,15.63043 -5.37226,1.87954 -17.03583,10.27515 -39.72671,23.25028 32.66124,10.5995 58.49519,32.53149 83.87841,44.92367 14.73468,-11.7505 37.01094,-37.77567 45.34149,-46.04885 -21.13591,-1.95241 -28.92784,-14.86465 -26.35316,-23.16664 2.57468,-8.30199 10.76944,-17.19712 24.40397,-26.10383 10.35226,-6.76259 30.03066,-15.4534 46.91925,-23.94079 -11.08629,3.99965 -34.83069,5.66645 -45.01404,5.6511 -27.79843,-0.0419 -26.46953,-17.42817 -8.20206,-37.32356 18.26747,-19.89538 48.41699,-34.72902 88.37287,-44.80731 19.56847,-4.93589 35.41466,-11.0413 43.48678,-12.71108 7.35728,-19.41527 23.83422,-37.40501 33.1902,-41.65609 13.82599,-6.2821 19.84154,-3.42347 32.12975,15.26822 8.31538,12.64858 4.99926,25.31818 3.78641,28.75249 3.34695,2.67263 10.17234,9.47371 14.14486,12.82307 3.97254,3.34935 10.76034,24.64354 -0.32593,28.64318 19.58094,16.87992 14.80051,33.28566 -6.061,48.15374 -27.21347,19.39513 -36.69162,18.8431 -54.76099,23.59323 41.23516,13.85647 35.13154,25.82792 34.93066,35.55888 -0.3095,14.99275 -7.18791,20.81174 -41.83313,15.43318 -25.05544,-3.88977 -43.41199,-8.41682 -61.04639,-3.01256 -8.4342,9.26834 -48.58201,52.81699 -55.76547,64.17609 11.08628,-3.99964 19.31993,-7.81013 49.08618,-12.12418 52.3699,-7.59 97.75065,20.80132 94.20408,54.84782 -1.03681,9.95327 -1.47527,19.60875 -3.3614,27.47248 4.74552,-4.58537 15.80349,-18.39117 28.7485,-25.75221 17.05721,-9.6994 32.28699,-4.44114 44.25475,6.98158 13.38665,12.77699 12.42482,15.09994 -20.05782,48.44247 -36.9719,37.95064 -34.76461,40.2051 -37.4708,47.11341 26.9382,-2.53535 39.09595,12.57245 52.67699,25.60245 22.43606,21.52576 26.60999,26.79003 24.60974,45.99209 -3.50211,33.61961 -34.81346,32.80326 -53.33189,14.01532 -5.76933,-5.8533 -14.19901,-15.38134 -20.12512,-19.94774 -7.37742,9.36596 -11.83282,13.72694 -20.82198,23.15953 -19.70822,20.68035 -29.49065,22.53719 -47.87662,15.94446 -34.16938,-12.25222 -38.94471,-18.93183 -35.12173,-34.46375 3.42477,-13.91412 9.95272,-25.36803 12.6883,-31.1438 -25.65394,10.69193 -35.1651,9.81334 -51.74268,15.31523 -4.1869,19.70812 -10.67744,54.06628 -12.21164,68.79428 -2.04227,19.60547 13.46988,31.79635 73.69495,16.50279 56.45139,-14.33526 116.89723,-18.797 154.43271,-7.74348 39.25828,11.56086 47.18147,7.6619 53.95012,-57.31605 5.29912,-50.87063 18.08683,-62.59112 45.48353,-21.99845 24.87115,36.85064 23.35662,58.03948 8.31618,99.39248 -15.90411,43.72759 -56.25784,68.88227 -85.77359,53.46732 -35.05027,-18.3054 -110.92094,-19.28079 -175.78994,-2.25993 -80.59607,21.14747 -94.46231,19.21999 -126.57728,-17.59478 -25.76018,-29.53002 -26.29281,-31.92595 -16.42453,-73.88106 3.39966,-14.45376 5.84391,-23.10176 10.19902,-43.36128 -23.58476,20.4927 -29.36202,29.28108 -44.04302,43.9216 -117.38411,117.06042 -141.17851,136.87587 -162.04575,134.9483 -16.70366,-1.54298 -20.44972,-6.23492 -18.66408,-23.37689 1.43981,-13.82184 20.17284,-38.5087 52.69199,-69.43885 23.50597,-22.35738 55.97208,-58.81115 63.41414,-68.3952 -10.23682,6.08759 -12.20706,9.2007 -23.75314,12.47858 -7.65362,2.1728 -59.45217,-31.79767 -58.58738,-40.09948 0.15061,-1.44551 11.58674,-26.98583 25.41372,-56.75629 13.82695,-29.77045 26.50563,-70.58415 33.76815,-86.36185 l 15.0034,-32.59467 c 3.33395,-6.34734 6.61511,-18.57103 21.70564,-16.811 z m -62.1021,-122.93892 c 1.47145,-3.88306 4.51803,-12.64432 5.55293,-15.6157 -5.07383,-0.46868 -31.5106,15.08942 -42.52063,22.24831 l -1.14033,10.94684 c 3.79239,-5.67814 21.32311,-10.08724 38.10803,-17.57945 z m 127.40259,251.90244 c -17.73804,6.39942 -50.25109,21.48148 -62.19035,21.26145 -1.47145,3.88305 -4.9946,12.09794 -5.46764,13.68325 16.88858,-8.48739 27.97486,-12.48702 65.1499,-21.10997 1.05326,-2.03409 1.98625,-10.9906 2.50809,-13.83473 z"
       id="path39"
       sodipodi:nodetypes="ccsssccsccccssccsccsssccsssssssscsscscsssssscscssscsssscccsscssscsscscscssccsscssscssscsssccsssssssssscsssscsssscscccccccccc" />
  </g>
</svg>
