<?xml version="1.0" encoding="UTF-8" standalone="no"?>
<!-- Created with Inkscape (http://www.inkscape.org/) -->

<svg
   width="1000"
   height="1000"
   viewBox="0 0 1000 1000"
   version="1.1"
   id="svg756"
   inkscape:version="1.1 (c68e22c387, 2021-05-23)"
   sodipodi:docname="u9ed2.svg"
   xmlns:inkscape="http://www.inkscape.org/namespaces/inkscape"
   xmlns:sodipodi="http://sodipodi.sourceforge.net/DTD/sodipodi-0.dtd"
   xmlns="http://www.w3.org/2000/svg"
   xmlns:svg="http://www.w3.org/2000/svg"
   xmlns:rdf="http://www.w3.org/1999/02/22-rdf-syntax-ns#"
   xmlns:cc="http://creativecommons.org/ns#"
   xmlns:dc="http://purl.org/dc/elements/1.1/">
  <defs
     id="defs750" />
  <sodipodi:namedview
     id="base"
     pagecolor="#ffffff"
     bordercolor="#666666"
     borderopacity="1.0"
     inkscape:pageopacity="0.0"
     inkscape:pageshadow="2"
     inkscape:zoom="0.70710678"
     inkscape:cx="640.65299"
     inkscape:cy="232.78369"
     inkscape:document-units="px"
     inkscape:current-layer="layer1"
     showgrid="true"
     units="px"
     inkscape:window-width="1118"
     inkscape:window-height="864"
     inkscape:window-x="759"
     inkscape:window-y="127"
     inkscape:window-maximized="0"
     showguides="true"
     inkscape:guide-bbox="true"
     inkscape:pagecheckerboard="0">
    <inkscape:grid
       type="xygrid"
       id="grid758" />
    <sodipodi:guide
       position="240,200"
       orientation="0,1"
       id="guide8"
       inkscape:locked="false" />
  </sodipodi:namedview>
  <metadata
     id="metadata753">
    <rdf:RDF>
      <cc:Work
         rdf:about="">
        <dc:format>image/svg+xml</dc:format>
        <dc:type
           rdf:resource="http://purl.org/dc/dcmitype/StillImage" />
        <dc:title />
      </cc:Work>
    </rdf:RDF>
  </metadata>
  <g
     inkscape:label="Layer 1"
     inkscape:groupmode="layer"
     id="layer1"
     transform="translate(0,-32.41664)"
     style="display:inline">
    <path
       style="fill:#000000;stroke-width:4.51968"
       d="m 41.504678,863.52143 c -0.772535,-11.24765 1.355624,-21.58541 5.953135,-35.5389 10.264248,-31.1521 28.398856,-60.59858 43.741405,-80.82885 C 106.54176,726.9234 123.17297,714.39018 138.18826,711.62206 161,707.41664 187,731.41664 187.79582,747.33728 c 0.26071,5.2155 -7.94538,12.39426 -15.71656,19.65811 -10.07926,9.42125 -23.55515,26.65914 -37.40698,46.18486 -13.85183,19.52573 -24.5971,41.9462 -30.76765,59.55343 -10.125656,28.89286 -60.733427,15.05137 -62.399952,-9.21225 z M 286.68285,821.92097 C 270.16967,810.22583 249.84978,785.93879 236.88572,756.00615 231,742.41664 233.14286,725.8095 249.27377,712.69049 c 8.67246,-7.05318 30.38286,-11.46225 38.34154,7.3785 13.2924,31.46742 37.4062,53.88456 57.02689,60.77175 22.01498,7.72758 1.3578,51.5759 -27.7809,49.66831 -8.73926,-0.57212 -19.52379,-1.04211 -30.17845,-8.58808 z m 155.56049,-0.55458 C 430.6783,816.49799 412.67961,795.30719 399.41518,773.315 386.15074,751.32279 377,739.41664 381.15053,720.07557 385.65559,699.08243 420,668.41664 434.93388,699.2365 c 5.34178,11.02413 14.36084,26.85489 25.66094,42.03132 15.48765,20.80045 28.20034,29.18128 34.41581,27.17486 19.95388,-6.44135 39.60214,26.07027 18.32448,48.59338 -6.7409,7.13547 -40.69161,17.12755 -71.09177,4.33033 z m 148.96078,-12.4018 C 580.54705,803.18301 578.81968,796.62987 570.29811,784.36325 558.70713,767.67831 550.197,760.60005 536.51376,756.26328 517.53107,750.24687 520,706.41664 562.34217,704.79026 c 19.32903,-0.74244 40.97965,11.9835 57.01582,37.94852 19.36334,31.35211 -3.35799,79.67786 -28.15387,66.22581 z M 60.363771,652.95897 c 0.09699,-6.12705 25.170588,-17.62108 40.958629,-17.46228 3.72862,0.0375 35.39993,-6.18126 70.28894,-14.22292 45.95582,-10.59248 80.29393,-18.322 123.64667,-29.67927 -2.25801,-12.17786 -1.75921,-28.67141 -3.73534,-40.89426 -24.26244,2.94414 -34.34451,9.23206 -60.24722,14.72937 -40.64542,8.62614 -68.14918,14.56761 -80.4405,9.61188 -12.68121,-5.11293 -46.83495,-47.62485 -5.39106,-59.91748 7.6986,-2.28347 37.86498,-7.80411 66.52418,-14.41589 28.58009,-6.59352 51.42967,-12.17543 73.03193,-16.29148 -2.85194,-30.65357 -2.46189,-18.17422 -4.74732,-48.98485 -29.98113,3.17639 -38.63153,1.75849 -68.17497,-2.7317 C 186.71429,428.84521 161,422.41664 157.90856,401.21169 155.91821,387.5594 158,373.41664 161,362.41664 c -5,-5 -31.8159,-24.31571 -33.75912,-37.38589 C 123.35444,298.8904 121.70213,271.22314 114.1923,189.2598 100,190.41664 95,167.41664 107.52687,129.38737 c -2.52013,-25.59646 -3.18139,-55.824363 0.0623,-61.661263 7.1812,-12.922296 60.52496,-29.634451 62.00384,-13.100358 0.73042,8.166483 0.78229,9.603582 1.89527,14.908155 23.46345,-20.762297 38.60428,-32.162092 67.93834,-35.843972 23.17955,-2.909394 70.91897,-2.065508 99.94688,5.254311 33.6371,8.482091 64.01724,22.904333 85.82834,42.25485 37.92534,33.646847 59.5591,64.883387 76.71793,109.940527 9.0401,7.13851 16.8146,24.87823 16.59471,36.05166 -0.21989,11.17343 -8.43418,15.78057 -10.51452,15.22536 -3,20 -4.99996,51 -12.58226,69.77031 -9.24238,22.8799 -20.55472,47.18651 -37.2502,63.66022 -26.4309,26.07981 -82.66217,45.02846 -107.45064,49.72042 -0.0863,30.61637 1.67367,21.8261 3.81633,46.84847 61.27241,-13.36409 123.12373,-18.20052 128.83339,-8.62643 4.38957,7.36049 0.89373,56.72407 -24.29159,56.32619 -23.24078,-0.36714 -87.63176,15.84078 -100.213,18.77531 1.13797,11.52551 3.13797,32.52551 4.49412,40.03202 18.31009,-3.64298 18.24986,-2.96643 58.54568,-6.39517 48.40818,-4.11903 193.87355,-2.83855 201.45075,4.98242 11.07592,11.43223 1.32515,61.50008 -71.05181,60.35433 -80.89667,-1.28063 -163.74107,5.84295 -221.16494,19.0175 -19.96157,4.57969 -59.76052,13.03279 -88.44212,18.78462 -28.6816,5.75186 -73.58197,15.22495 -99.77863,21.0513 C 87.650881,709.00933 60.211451,662.58094 60.363771,652.95897 Z M 279.09222,366.69954 c 0.21491,-13.57595 -0.25696,-32.06161 -0.23215,-76.62818 0,0 0.29267,-31.16438 -0.021,-52.8529 -25.36933,-1.08711 -16.42221,1.58593 -40.99222,3.16917 C 216.28128,241.77726 200,243.41664 184,241.41664 c 1.17032,16.15208 2,26 4.33953,49.32932 0.60867,6.0695 5.66047,26.67068 17.48146,17.66446 14.80764,-11.28169 12.3933,17.72051 11.40254,28.99508 C 216.34885,347.35912 208,353.41664 203,358.41664 c 4,3 11.20277,7.86604 24.0838,9.48285 14.61023,1.83385 42.59317,-0.30444 52.00842,-1.19995 z M 417.2518,311.00703 C 436.27801,280.13949 437,260.41664 436,245.41664 c -33.86812,-6.992 -51.81639,-7.32795 -85.50208,-7.44373 -1.36274,19.57286 -0.26921,44.22798 -0.26921,44.22798 -1.33318,40.90467 -0.0271,71.93245 -0.10976,77.15397 C 385,348.41664 400.54052,338.11889 417.2518,311.00703 Z M 277.79153,174.92456 c 0.94265,-29.93917 -4.34339,-63.15471 -5.45856,-77.077753 C 250,97.41664 233.1467,99.225758 218.02917,108.4163 195,122.41664 187.86375,131.21916 175.08413,146.68534 c 1.18461,11.8512 2.91587,22.7313 4.0537,31.4828 22.77386,3.98913 31.84059,3.19245 50.2622,1.39138 18.42161,-1.80107 28.1981,-4.60653 48.3915,-4.63496 z M 424,182.49358 c -19,-35.07694 -39,-55.07694 -78.66741,-74.64826 0.7893,24.65879 3.49413,41.46608 4.16032,67.59233 30.0779,-0.76659 51.93942,4.5772 74.50709,7.05593 z"
       id="path93"
       sodipodi:nodetypes="sssssssssssssssssssssssssssssssssccssssccsscscccscssscscssccssccssssssscscscssscscsccscsccsccsccccc" />
  </g>
</svg>
