<?xml version="1.0" encoding="UTF-8" standalone="no"?>
<!-- Created with Inkscape (http://www.inkscape.org/) -->

<svg
   width="1000"
   height="1000"
   viewBox="0 0 1000 1000"
   version="1.1"
   id="svg756"
   inkscape:version="1.1 (c68e22c387, 2021-05-23)"
   sodipodi:docname="u3052.svg"
   xmlns:inkscape="http://www.inkscape.org/namespaces/inkscape"
   xmlns:sodipodi="http://sodipodi.sourceforge.net/DTD/sodipodi-0.dtd"
   xmlns="http://www.w3.org/2000/svg"
   xmlns:svg="http://www.w3.org/2000/svg"
   xmlns:rdf="http://www.w3.org/1999/02/22-rdf-syntax-ns#"
   xmlns:cc="http://creativecommons.org/ns#"
   xmlns:dc="http://purl.org/dc/elements/1.1/">
  <defs
     id="defs750" />
  <sodipodi:namedview
     id="base"
     pagecolor="#ffffff"
     bordercolor="#666666"
     borderopacity="1.0"
     inkscape:pageopacity="0.0"
     inkscape:pageshadow="2"
     inkscape:zoom="0.5"
     inkscape:cx="601"
     inkscape:cy="604"
     inkscape:document-units="px"
     inkscape:current-layer="layer1"
     showgrid="true"
     units="px"
     inkscape:window-width="1118"
     inkscape:window-height="864"
     inkscape:window-x="645"
     inkscape:window-y="126"
     inkscape:window-maximized="0"
     showguides="true"
     inkscape:guide-bbox="true"
     inkscape:pagecheckerboard="0">
    <inkscape:grid
       type="xygrid"
       id="grid758" />
    <sodipodi:guide
       position="240,200"
       orientation="0,1"
       id="guide8"
       inkscape:locked="false" />
  </sodipodi:namedview>
  <metadata
     id="metadata753">
    <rdf:RDF>
      <cc:Work
         rdf:about="">
        <dc:format>image/svg+xml</dc:format>
        <dc:type
           rdf:resource="http://purl.org/dc/dcmitype/StillImage" />
        <dc:title />
      </cc:Work>
    </rdf:RDF>
  </metadata>
  <g
     inkscape:label="Layer 1"
     inkscape:groupmode="layer"
     id="layer1"
     transform="translate(0,-32.41664)"
     style="display:inline">
    <path
       style="display:inline;fill:#000000;stroke-width:18.8877"
       d="M 140.19901,34.314837 C 129.93891,33.967745 124.48175,45.103516 123.22139,53.880124 111.0468,109.61249 107.6891,167.09948 112.02174,223.93507 c 1.70882,108.71464 -10.59753,217.15526 -22.912317,325.06686 -8.886055,72.52636 -18.501839,145.26065 -25.54796,217.82608 -2.894113,23.15152 -10.357252,45.12744 -17.423805,67.33278 -4.352535,15.77835 -5.246449,35.33634 7.199125,47.80908 12.585371,12.93249 37.239613,13.17773 47.531377,-2.75046 15.40241,-21.29052 17.44756,-48.56594 23.68551,-73.20694 14.34614,-73.28464 24.28227,-187.41232 39.43305,-260.51495 66.36384,-20.55023 135.69694,-15.60741 203.03036,-32.68704 30.26481,-7.19627 60.33718,-9.76398 88.91255,-22.19194 -0.92146,68.44371 -5.20889,156.80674 -6.6987,225.24919 -0.0138,30.73278 0.40999,62.30485 10.55181,91.65413 4.41251,11.35129 19.28502,18.80103 30.17637,11.67949 12.78489,-8.92018 15.81981,-25.63338 18.59797,-39.94136 10.20958,-59.80375 10.11751,-120.7556 16.31158,-180.93369 3.88824,-47.8395 6.40304,-91.57677 10.13134,-142.90966 15,-30 27.41878,-61.35954 25.74417,-94.04947 -2.76585,-19.70106 -20.50523,-36.78932 -40.37079,-37.38614 -0.28437,-14.33711 -2.69571,-28.63178 -4.11165,-42.91835 -5.68042,-44.44926 -15.05968,-89.65737 -37.71441,-128.84901 -5.65584,-8.65129 -12.57624,-18.43279 -23.14577,-21.06945 -11.21349,-1.81365 -21.69393,7.88801 -22.36878,18.90774 -5.29265,25.01569 -1.18896,50.76998 2.03246,75.76415 7.07297,42.52213 17.24781,84.68481 18.44732,127.9164 1.02493,16.78991 1.48217,33.59782 1.38028,50.40288 -30.2565,18.87826 -65.64418,26.96574 -100.62267,31.43282 -59.34342,9.81026 -119.26044,16.03393 -178.30314,27.66517 15.92732,-121.59752 13.04533,-245.47365 -6.2081,-366.507395 -3.8514,-19.630537 -7.20957,-40.604277 -19.39227,-57.04662 -2.74378,-2.746595 -6.26752,-4.866114 -10.16764,-5.364528 z M 625.70513,232.22293 c -12.19143,-0.94579 -20.47682,10.40961 -25.1157,20.2429 -16.53236,29.40995 -7.00302,57.75107 4.69841,88.19336 11.08938,29.49519 35.90437,56.02379 68.0469,61.15346 23.43667,4.15785 44.37922,10.55528 63.23606,-5.57408 12.73545,-11.94297 13.33156,-34.09637 0.84811,-46.472 C 724.87582,335.46024 704.6068,331.23265 692.48984,316.39745 670.53936,294.59399 658.41028,265.49064 640,241.05348 c -3.81344,-4.16196 -8.62782,-7.80557 -14.29487,-8.83055 z"
       id="path338"
       inkscape:connector-curvature="0"
       sodipodi:nodetypes="ccccccccccccccccccccccccccccccccccccccccc" />
  </g>
</svg>
