<?xml version="1.0" encoding="UTF-8" standalone="no"?>
<!-- Created with Inkscape (http://www.inkscape.org/) -->

<svg
   width="1000"
   height="1000"
   viewBox="0 0 1000 1000"
   version="1.1"
   id="svg756"
   inkscape:version="1.1 (c68e22c387, 2021-05-23)"
   sodipodi:docname="u3056.svg"
   xmlns:inkscape="http://www.inkscape.org/namespaces/inkscape"
   xmlns:sodipodi="http://sodipodi.sourceforge.net/DTD/sodipodi-0.dtd"
   xmlns="http://www.w3.org/2000/svg"
   xmlns:svg="http://www.w3.org/2000/svg"
   xmlns:rdf="http://www.w3.org/1999/02/22-rdf-syntax-ns#"
   xmlns:cc="http://creativecommons.org/ns#"
   xmlns:dc="http://purl.org/dc/elements/1.1/">
  <defs
     id="defs750" />
  <sodipodi:namedview
     id="base"
     pagecolor="#ffffff"
     bordercolor="#666666"
     borderopacity="1.0"
     inkscape:pageopacity="0.0"
     inkscape:pageshadow="2"
     inkscape:zoom="0.5"
     inkscape:cx="863"
     inkscape:cy="674"
     inkscape:document-units="px"
     inkscape:current-layer="layer1"
     showgrid="true"
     units="px"
     inkscape:window-width="1118"
     inkscape:window-height="864"
     inkscape:window-x="600"
     inkscape:window-y="125"
     inkscape:window-maximized="0"
     showguides="true"
     inkscape:guide-bbox="true"
     inkscape:pagecheckerboard="0">
    <inkscape:grid
       type="xygrid"
       id="grid758" />
    <sodipodi:guide
       position="240,200"
       orientation="0,1"
       id="guide8"
       inkscape:locked="false" />
  </sodipodi:namedview>
  <metadata
     id="metadata753">
    <rdf:RDF>
      <cc:Work
         rdf:about="">
        <dc:format>image/svg+xml</dc:format>
        <dc:type
           rdf:resource="http://purl.org/dc/dcmitype/StillImage" />
        <dc:title />
      </cc:Work>
    </rdf:RDF>
  </metadata>
  <g
     inkscape:label="Layer 1"
     inkscape:groupmode="layer"
     id="layer1"
     transform="translate(0,-32.41664)"
     style="display:inline">
    <path
       style="display:inline;fill:#000000;stroke-width:13.5813"
       d="m 627.86307,34.41664 c -13.84176,-0.02716 -30.21879,5.245774 -35.38768,19.417086 -5.32387,15.831954 5.90978,24.000573 15.83593,35.827923 17.34329,20.688781 42.90777,37.223251 70.84401,35.343201 17.59187,-0.66484 33.17891,-4.11297 37.68283,-21.70097 3.68966,-13.384908 2.95265,-29.850157 -8.28825,-39.555017 C 694.98029,51.904258 677.50635,45.794841 660.79665,39.818793 650.15312,36.499065 639.05363,34.259456 627.86307,34.41664 Z M 345.66096,97.451884 c -8.60212,0.06584 -21.10572,-0.441664 -24.83143,9.084996 -4.5452,11.62211 -0.11374,24.55243 2.02865,36.33894 C 327.23671,166.96465 338,194.41664 348,219.41664 c -20,5 -35.36947,10.67952 -49.66731,14.60797 -46.08713,12.66283 -90.87582,29.59146 -135.10466,47.52869 -34.85238,14.13455 -77.784702,32.60686 -110.482445,51.35056 -6.243335,3.57894 -11.526545,9.04414 -12.440927,16.48418 -1.327905,10.80474 -0.228925,12.50601 7.108283,20.77664 13.087059,14.75196 23.101955,13.71131 37.521029,16.46839 28.9506,5.53567 59.62508,5.60946 88.05879,-2.90703 10.61948,-3.18075 19.60078,-10.14288 25.5337,-20.15826 13.36312,-22.55832 38.50508,-35.24718 61.40272,-46.61866 31.54709,-15.66699 80.15307,-28.81001 115.07082,-32.53248 3.88065,6.34003 4.683,8.25895 8.77541,16.89748 9.65121,20.3724 16.40593,42.18147 22.62429,63.65105 9.0739,31.32865 15.23111,66.15649 2.26429,97.33548 -11.8755,28.17755 -38.44706,46.77442 -64.39381,60.92515 -22.97484,13.21408 -47.39356,27.85254 -60.52625,51.80252 -10.60886,19.29154 -6.90301,42.7982 1.82313,62.03158 13.52797,29.95631 33.79811,56.29156 54.55281,81.54478 42.6321,48.68983 99.7828,82.0994 158.60942,107.52678 30.65558,11.0553 64.60521,5.32295 94.50206,-5.42538 36.43235,-13.77923 71.20331,-36.7631 91.65491,-70.65143 8.002,-15.38982 16.12031,-31.16249 19.79838,-48.23218 1.21523,-4.76547 0.033,-12.22726 -6.1462,-12.3629 -10.79996,0.64471 -19.56191,8.38998 -28.30207,13.98983 -19.86773,14.56757 -38.11405,31.73278 -61.04407,41.50733 -32.3593,15.35406 -70.60348,16.17646 -103.89058,3.60963 -39.30974,-14.23635 -71.48482,-41.98785 -102.2462,-69.52851 -21.16438,-20.32431 -42.58121,-42.15748 -53.30585,-70.00757 -5.1687,-12.97623 -4.62338,-29.8881 6.93375,-39.34563 12.08495,-10.75316 29.29111,-11.38275 42.62108,-20.01956 37.34562,-20.94785 59.8615,-61.12318 68.90928,-101.92352 10.40062,-45.80954 4.27286,-93.888 -10.78397,-138.08902 C 453.78024,298.93883 449,283.41664 444,270.41664 c 15,-3 20.9126,-3.44673 28.12979,-5.02201 31.57681,-6.89222 65.55115,-11.19341 92.25299,-30.96285 12.11954,-8.97303 20.9435,-24.39881 17.01007,-39.67724 -4.30014,-16.7028 -7.72545,-20.59894 -19.30879,-32.87367 -7.76475,-8.22821 -17.13113,-18.21509 -29.18777,-18.16263 -12.00836,0.0522 -19.42839,12.10702 -25.34351,21.11266 C 497.8788,179.55931 487,196.41664 467.81132,199.54399 448.69327,202.65983 439,205.41664 418,208.41664 c -10,-15 -20.43539,-38.24522 -22.70953,-48.52584 -2.27914,-10.30323 -0.47773,-25.49573 11.47165,-28.1797 6.71577,-1.50844 16.45294,-0.63237 19.24105,-8.51059 2.66,-7.51623 -3.60654,-14.32051 -10.28201,-17.05646 -22.15405,-9.079857 -46.6064,-8.871679 -70.0602,-8.692166 z"
       id="path762"
       inkscape:connector-curvature="0"
       sodipodi:nodetypes="ccccccccssscssssssssscssccccccccccccccccccscssssssscsssss" />
  </g>
</svg>
