<?xml version="1.0" encoding="UTF-8" standalone="no"?>
<!-- Created with Inkscape (http://www.inkscape.org/) -->

<svg
   width="1000"
   height="1000"
   viewBox="0 0 1000 1000"
   version="1.1"
   id="svg756"
   inkscape:version="1.1 (c68e22c387, 2021-05-23)"
   sodipodi:docname="u3054.svg"
   xmlns:inkscape="http://www.inkscape.org/namespaces/inkscape"
   xmlns:sodipodi="http://sodipodi.sourceforge.net/DTD/sodipodi-0.dtd"
   xmlns="http://www.w3.org/2000/svg"
   xmlns:svg="http://www.w3.org/2000/svg"
   xmlns:rdf="http://www.w3.org/1999/02/22-rdf-syntax-ns#"
   xmlns:cc="http://creativecommons.org/ns#"
   xmlns:dc="http://purl.org/dc/elements/1.1/">
  <defs
     id="defs750" />
  <sodipodi:namedview
     id="base"
     pagecolor="#ffffff"
     bordercolor="#666666"
     borderopacity="1.0"
     inkscape:pageopacity="0.0"
     inkscape:pageshadow="2"
     inkscape:zoom="0.5"
     inkscape:cx="909"
     inkscape:cy="664"
     inkscape:document-units="px"
     inkscape:current-layer="layer1"
     showgrid="true"
     units="px"
     inkscape:window-width="1118"
     inkscape:window-height="864"
     inkscape:window-x="632"
     inkscape:window-y="127"
     inkscape:window-maximized="0"
     showguides="true"
     inkscape:guide-bbox="true"
     inkscape:pagecheckerboard="0">
    <inkscape:grid
       type="xygrid"
       id="grid758" />
    <sodipodi:guide
       position="240,200"
       orientation="0,1"
       id="guide8"
       inkscape:locked="false" />
  </sodipodi:namedview>
  <metadata
     id="metadata753">
    <rdf:RDF>
      <cc:Work
         rdf:about="">
        <dc:format>image/svg+xml</dc:format>
        <dc:type
           rdf:resource="http://purl.org/dc/dcmitype/StillImage" />
        <dc:title />
      </cc:Work>
    </rdf:RDF>
  </metadata>
  <g
     inkscape:label="Layer 1"
     inkscape:groupmode="layer"
     id="layer1"
     transform="translate(0,-32.41664)"
     style="display:inline">
    <path
       style="display:inline;fill:#000000;stroke-width:24.0244"
       d="m 420.02735,23.08646 c -14.35417,0.616497 -20.96566,17.348586 -22.13323,30.518653 -3.17119,35.77063 8.14447,72.415947 29.56982,100.210597 15.826,20.53073 38.26431,34.46559 60.25719,46.98337 6.98973,3.97838 16.60728,9.02188 24.17039,4.42203 10.0963,-6.14053 13.77778,-19.85743 13.81634,-31.25596 0.0711,-21.00078 -10.14455,-40.46612 -19.36266,-58.58669 C 490.37676,83.988361 469.50178,54.609653 442.39639,32.614864 436.0349,27.452805 428.33269,22.729754 420.02735,23.08646 Z M 315.83374,228.13375 c -34.93941,2.37827 -68.56676,13.92418 -103.48407,16.88787 -33.21439,4.56972 -66.86157,4.15981 -100.14441,7.47033 -12.884284,1.28155 -29.133361,6.02105 -33.544916,19.92469 -5.307445,16.72716 7.958597,32.84959 21.101086,41.44725 32.97077,21.5691 78.99932,2.19754 116.81223,2.17284 14.51083,-0.13345 29.20154,-3.38396 43.70812,-2.88506 -35.66327,45.884 -86.60046,107.85351 -110.11446,162.33544 -4.50712,10.44301 -9.31684,26.326 -0.18998,34.15576 7.06212,6.05845 16.37469,-5.01907 22.83083,-9.81132 32.97156,-24.47406 58.64346,-57.54875 84.8096,-89.2253 31.99066,-38.72767 61.20512,-81.72646 75.72855,-130.7664 4.47835,-15.12164 4.98721,-33.16342 -2.82384,-47.06283 -2.72127,-4.84238 -9.58425,-4.99072 -14.68874,-4.64327 z M 49.075456,566.31715 C 38,572.41664 39.540773,578.72073 40.871333,586.12287 c 5.624881,31.29223 22.518457,58.42004 39.130562,84.27565 27.341325,42.5549 60.661575,83.06503 103.807785,109.12429 24.19295,14.61196 51.89581,20.37039 79.74572,22.70114 70.93532,5.93655 143.90945,4.44998 212.22909,-18.01773 19.4022,-6.38064 37.46386,-18.82595 47.22677,-37.99257 15.43149,-30.29521 24.98451,-63.31475 31.77137,-96.68983 4.43367,-21.80302 7.32138,-44.79588 3.06325,-66.91603 -0.71525,-3.71556 -4.14316,-2.39566 -6.47879,-0.62744 -13.94986,10.5609 -28.84874,47.45531 -39.93855,61.058 -22.93649,28.13377 -24.9003,37.81018 -50.60335,63.47132 -14.49903,14.4754 -50.82519,22.90697 -70.93589,23.65178 -30.56618,1.13203 -93.10071,2.54396 -122.8366,-4.13407 C 204.65626,712.0145 189.3322,676.77175 143.32254,631.04197 120.01768,607.87887 96.42336,574.56283 64.822077,564.89228 60,563.41664 53.699195,563.77076 49.075456,566.31715 Z"
       id="path386"
       inkscape:connector-curvature="0"
       sodipodi:nodetypes="sssssssssscsssccssssssssssssssssssssssss" />
  </g>
</svg>
