<?xml version="1.0" encoding="UTF-8" standalone="no"?>
<!-- Created with Inkscape (http://www.inkscape.org/) -->

<svg
   width="1000"
   height="1000"
   viewBox="0 0 1000 1000"
   version="1.1"
   id="svg756"
   inkscape:version="1.1 (c68e22c387, 2021-05-23)"
   sodipodi:docname="u3050.svg"
   xmlns:inkscape="http://www.inkscape.org/namespaces/inkscape"
   xmlns:sodipodi="http://sodipodi.sourceforge.net/DTD/sodipodi-0.dtd"
   xmlns="http://www.w3.org/2000/svg"
   xmlns:svg="http://www.w3.org/2000/svg"
   xmlns:rdf="http://www.w3.org/1999/02/22-rdf-syntax-ns#"
   xmlns:cc="http://creativecommons.org/ns#"
   xmlns:dc="http://purl.org/dc/elements/1.1/">
  <defs
     id="defs750" />
  <sodipodi:namedview
     id="base"
     pagecolor="#ffffff"
     bordercolor="#666666"
     borderopacity="1.0"
     inkscape:pageopacity="0.0"
     inkscape:pageshadow="2"
     inkscape:zoom="0.5"
     inkscape:cx="891"
     inkscape:cy="662"
     inkscape:document-units="px"
     inkscape:current-layer="layer1"
     showgrid="true"
     units="px"
     inkscape:window-width="1118"
     inkscape:window-height="864"
     inkscape:window-x="673"
     inkscape:window-y="97"
     inkscape:window-maximized="0"
     showguides="true"
     inkscape:guide-bbox="true"
     inkscape:pagecheckerboard="0">
    <inkscape:grid
       type="xygrid"
       id="grid758" />
    <sodipodi:guide
       position="240,200"
       orientation="0,1"
       id="guide8"
       inkscape:locked="false" />
  </sodipodi:namedview>
  <metadata
     id="metadata753">
    <rdf:RDF>
      <cc:Work
         rdf:about="">
        <dc:format>image/svg+xml</dc:format>
        <dc:type
           rdf:resource="http://purl.org/dc/dcmitype/StillImage" />
        <dc:title />
      </cc:Work>
    </rdf:RDF>
  </metadata>
  <g
     inkscape:label="Layer 1"
     inkscape:groupmode="layer"
     id="layer1"
     transform="translate(0,-32.41664)"
     style="display:inline">
    <path
       style="display:inline;fill:#000000;stroke-width:11.6549"
       d="M 483.29705,87.318989 C 464.83408,89.335286 453.96959,106.55009 442.51979,119.0137 353.16417,216.28121 275.32741,322.82435 189.85118,423.30669 146.5175,474.24798 101.87677,525.02117 68.58762,582.97701 c -11.202587,19.50351 -14.57517,42.70756 -11.025408,64.91881 7.247423,45.34791 32.091889,87.0668 66.239218,118.15001 24.0355,21.87873 54.56522,37.78292 87.73978,41.2062 32.44935,3.34844 65.08545,4.15359 97.65854,4.78233 43.59511,0.8415 87.90076,1.90254 130.62935,-7.174 29.05038,-6.17097 57.37378,-23.45193 71.98327,-49.37526 8.93201,-15.84911 2.80496,-31.30682 -14.9963,-39.26393 -12.26055,-5.48043 -26.30317,-0.59693 -36.34575,7.84891 -16.64409,13.99772 -40.9335,16.86924 -61.83984,17.76594 -65.4449,2.80702 -127.21708,1.91561 -191.64163,-9.24427 -18.84056,-3.26364 -38.41687,-28.30938 -49.4753,-42.80516 -11.89762,-15.59583 -25.91984,-38.03616 -23.00642,-58.75795 3.0636,-21.78997 16.70327,-40.31859 28.89072,-58.09236 36.01757,-52.52681 78.4454,-100.57412 119.52741,-149.39477 69.56193,-82.66534 143.46859,-162.38228 203.65312,-251.97768 11.71459,-17.43926 22.65927,-37.71229 21.13815,-59.14719 -0.86786,-12.22947 -10.48451,-26.619456 -24.41948,-25.097651 z M 431.27592,510.74017 c -22.63126,1.05143 -41.45869,27.06896 -31.30369,47.53623 8.58607,17.30512 26.51671,27.19731 40.34335,40.03186 19.19465,17.81741 39.63957,37.16325 65.80096,43.83179 22.62728,5.76769 48.14396,-8.0824 58.13768,-28.36433 5.22898,-10.61203 -0.67179,-23.68567 -10.905,-29.7967 -12.00599,-7.16968 -25.22529,-12.06615 -36.53511,-20.51578 -24.24126,-18.11078 -45.55041,-41.98289 -75.34203,-51.56214 -3.25999,-1.04822 -6.76693,-1.32025 -10.19616,-1.16093 z"
       id="path302"
       inkscape:connector-curvature="0"
       sodipodi:nodetypes="ssssssssssssssssssssssssssssss" />
  </g>
</svg>
