<?xml version="1.0" encoding="UTF-8" standalone="no"?>
<!-- Created with Inkscape (http://www.inkscape.org/) -->

<svg
   width="1000"
   height="1000"
   viewBox="0 0 1000 1000"
   version="1.1"
   id="svg756"
   inkscape:version="1.1 (c68e22c387, 2021-05-23)"
   sodipodi:docname="u3060.svg"
   xmlns:inkscape="http://www.inkscape.org/namespaces/inkscape"
   xmlns:sodipodi="http://sodipodi.sourceforge.net/DTD/sodipodi-0.dtd"
   xmlns="http://www.w3.org/2000/svg"
   xmlns:svg="http://www.w3.org/2000/svg"
   xmlns:rdf="http://www.w3.org/1999/02/22-rdf-syntax-ns#"
   xmlns:cc="http://creativecommons.org/ns#"
   xmlns:dc="http://purl.org/dc/elements/1.1/">
  <defs
     id="defs750" />
  <sodipodi:namedview
     id="base"
     pagecolor="#ffffff"
     bordercolor="#666666"
     borderopacity="1.0"
     inkscape:pageopacity="0.0"
     inkscape:pageshadow="2"
     inkscape:zoom="0.5"
     inkscape:cx="895"
     inkscape:cy="668"
     inkscape:document-units="px"
     inkscape:current-layer="layer1"
     showgrid="true"
     units="px"
     inkscape:window-width="1118"
     inkscape:window-height="864"
     inkscape:window-x="786"
     inkscape:window-y="96"
     inkscape:window-maximized="0"
     showguides="true"
     inkscape:guide-bbox="true"
     inkscape:pagecheckerboard="0">
    <inkscape:grid
       type="xygrid"
       id="grid758" />
    <sodipodi:guide
       position="240,200"
       orientation="0,1"
       id="guide8"
       inkscape:locked="false" />
  </sodipodi:namedview>
  <metadata
     id="metadata753">
    <rdf:RDF>
      <cc:Work
         rdf:about="">
        <dc:format>image/svg+xml</dc:format>
        <dc:type
           rdf:resource="http://purl.org/dc/dcmitype/StillImage" />
        <dc:title />
      </cc:Work>
    </rdf:RDF>
  </metadata>
  <g
     inkscape:label="Layer 1"
     inkscape:groupmode="layer"
     id="layer1"
     transform="translate(0,-32.41664)"
     style="display:inline">
    <path
       style="display:inline;fill:#000000;stroke-width:14.02"
       d="m 739.75609,55.563553 c -15.67775,0.261131 -22.36939,11.98858 -28.66404,24.602568 -17.04916,36.137089 -20.5826,77.003679 -18.22728,116.316679 2.11252,28.10497 8.22955,58.22743 28.77763,79.31699 10.87794,11.69517 25.62704,22.86371 42.57436,22.298 12.86423,-0.99722 18.74783,-9.5208 21.86649,-21.30876 6.4115,-20.40179 3.55073,-42.42151 -1.47687,-62.79341 -1.86109,-7.51635 -5.99358,-14.37435 -11.47433,-19.78504 -8.12568,-17.70349 -8.41102,-37.66742 -9.89711,-56.64167 C 762.2741,113.9417 764.87309,89.175076 756,66.648579 753.06281,60.498916 747.03541,55.288912 739.75609,55.563553 Z m -329.58975,0.484044 c -26.41773,0.957055 -42.68192,24.940019 -57.66939,44.824453 -38.4595,51.02563 -81.69596,102.20687 -132.04133,142.86249 -19.88857,14.91608 -48.28272,23.66334 -74.13651,25.07336 -13.97542,1.02208 -27.6412,-3.59895 -39.17829,-11.09294 -15.672248,-8.5597 -35.650134,-15.06959 -52.889172,-7.00436 -13.178117,6.85728 -17.667789,23.60779 -13.151961,36.93461 6.64306,23.78158 26.901832,41.16264 47.610119,53.63477 17.639314,9.95565 42.374824,9.75263 62.185194,6.1633 31.28182,-5.66785 50.66059,-9.33372 84.87107,-33.29014 -6.53458,16.09192 -12.99156,35.15853 -17.69581,50.19436 -20.36884,65.10308 -29.78011,127.88654 -38.87207,195.30863 -4.59921,34.10578 -9.05081,68.9844 -3.48882,103.24558 2.50079,15.40455 5.85183,31.99282 16.29508,44.08401 11.37585,13.17096 31.41974,14.85845 47.81004,12.87439 C 260,717.41664 300.34141,689.65512 307,668.41664 c 5,28 15.87918,59.10248 30.03191,75.96182 21.16435,25.21189 47.2155,47.62458 79.3502,57.95923 31.40221,10.09908 66.55369,10.21802 96.82087,-3.51531 41.36269,-18.76777 72.09326,-53.8316 96.42371,-90.52451 22.06198,-33.27181 40.87454,-68.71413 55.87399,-105.56747 4.91642,-12.07955 10.18864,-25.70018 6.63537,-38.6665 -2.34889,-8.57141 -14.50591,-11.34606 -21.49186,-4.66316 -17.02804,16.28936 -33.85447,32.94338 -47.24267,52.07135 -24.05172,34.36301 -41.33595,66.59672 -72.29776,97.59835 -15.41372,15.43345 -35.51923,29.36612 -57.51186,30.07763 -19.07864,0.61731 -39.3043,-0.73405 -54.71975,-12.72222 -18.95084,-14.73755 -43.18775,-48.28248 -45.12753,-71.51758 -3.33236,-39.91575 11.375,-79.09004 23.36687,-116.7303 16.97878,-53.29326 49.13337,-102.85799 66.15274,-156.10511 4.10773,-12.85153 11.70312,-26.68669 9.66112,-40.23594 -1.52383,-10.11107 -9.95056,-18.29542 -20.27703,-20.2542 -9.62016,-1.8248 -21.07649,-4.38554 -29.41295,2.2812 -13.24567,10.59267 -22.62384,24.95885 -31.83668,38.82345 -23.10011,34.76385 -40.29886,73.09553 -53.29505,112.61855 -12.92159,39.29616 -35.62297,74.81046 -58.04335,109.535 -10.68488,15.04857 -20.83817,31.15048 -35.29652,42.96406 -4.49892,3.67596 -6.4862,-4.00767 -6.64418,-7.45551 -1.29887,-28.34752 4.50704,-56.12894 10.03001,-83.71936 10.70741,-53.48967 21.31366,-106.97764 37.95599,-159.10082 16.64233,-52.12319 39.32072,-102.88158 66.17243,-150.91208 18.83169,-33.68484 44.67916,-64.27787 69.86027,-93.56794 11.60012,-13.49298 26.89491,-28.33012 26.26305,-46.655375 -0.73257,-21.246025 -20.02903,-31.00586 -38.235,-30.346298 z"
       id="path383"
       inkscape:connector-curvature="0"
       sodipodi:nodetypes="cccccccccccssccccccscssssscssssssssssssssssssscssssssss" />
  </g>
</svg>
