<?xml version="1.0" encoding="UTF-8" standalone="no"?>
<!-- Created with Inkscape (http://www.inkscape.org/) -->

<svg
   width="1000"
   height="1000"
   viewBox="0 0 1000 1000"
   version="1.1"
   id="svg756"
   inkscape:version="1.1 (c68e22c387, 2021-05-23)"
   sodipodi:docname="u3064.svg"
   xmlns:inkscape="http://www.inkscape.org/namespaces/inkscape"
   xmlns:sodipodi="http://sodipodi.sourceforge.net/DTD/sodipodi-0.dtd"
   xmlns="http://www.w3.org/2000/svg"
   xmlns:svg="http://www.w3.org/2000/svg"
   xmlns:rdf="http://www.w3.org/1999/02/22-rdf-syntax-ns#"
   xmlns:cc="http://creativecommons.org/ns#"
   xmlns:dc="http://purl.org/dc/elements/1.1/">
  <defs
     id="defs750" />
  <sodipodi:namedview
     id="base"
     pagecolor="#ffffff"
     bordercolor="#666666"
     borderopacity="1.0"
     inkscape:pageopacity="0.0"
     inkscape:pageshadow="2"
     inkscape:zoom="0.5"
     inkscape:cx="815"
     inkscape:cy="640"
     inkscape:document-units="px"
     inkscape:current-layer="layer1"
     showgrid="true"
     units="px"
     inkscape:window-width="1118"
     inkscape:window-height="864"
     inkscape:window-x="106"
     inkscape:window-y="102"
     inkscape:window-maximized="0"
     showguides="true"
     inkscape:guide-bbox="true"
     inkscape:pagecheckerboard="0">
    <inkscape:grid
       type="xygrid"
       id="grid758" />
    <sodipodi:guide
       position="240,200"
       orientation="0,1"
       id="guide8"
       inkscape:locked="false" />
  </sodipodi:namedview>
  <metadata
     id="metadata753">
    <rdf:RDF>
      <cc:Work
         rdf:about="">
        <dc:format>image/svg+xml</dc:format>
        <dc:type
           rdf:resource="http://purl.org/dc/dcmitype/StillImage" />
        <dc:title />
      </cc:Work>
    </rdf:RDF>
  </metadata>
  <g
     inkscape:label="Layer 1"
     inkscape:groupmode="layer"
     id="layer1"
     transform="translate(0,-32.41664)"
     style="display:inline">
    <path
       style="display:inline;fill:#000000;stroke-width:18.8941"
       d="m 546,150.99726 c -111.57133,-3.58891 -223.8281,6.04588 -332.70259,30.99479 -41.32162,9.82139 -82.43621,21.13565 -122.01255,36.73168 -16.760579,7.38365 -34.660191,16.23042 -44.700114,32.06384 -8.925446,18.07256 1.812988,46.02696 23.89524,45.8284 20.999064,1.38741 41.209924,-7.87459 61.366604,-13.03582 65.33559,-20.84832 130.35914,-44.84406 198.75463,-53.56323 78.30127,-12.70226 158.83494,-20.72203 237.6064,-7.31559 20.35689,4.53571 40.84468,18.82018 44.77572,40.49829 6.75538,29.25392 -3.84193,58.87704 -14.20337,85.92938 -21.3865,50.91479 -52.26038,97.2911 -86.06269,140.73107 -66.89094,83.97894 -149.27631,154.21928 -235.73398,217.2603 -37.54961,26.3073 -78.16946,47.81263 -119.24816,67.97825 -8.19969,4.72865 -18.05746,13.59982 -14.23572,24.03298 3.35782,9.01967 14.43988,11.97095 22.6956,8.15156 48.50692,-13.38936 94.73341,-34.16737 140.29692,-55.42965 130.76568,-64.07286 243.73934,-164.09825 323.28028,-286.04533 30.53414,-48.23895 56.05833,-101.26171 63.58167,-158.28073 4.85548,-37.85122 -1.60938,-79.89087 -27.94164,-109.24103 -23.75552,-27.84075 -60.65986,-41.0734 -96.16568,-45.16052 -7.72205,-0.97881 -15.45028,-1.64398 -23.24657,-2.12864 z"
       id="path284"
       inkscape:connector-curvature="0" />
  </g>
</svg>
