<?xml version="1.0" encoding="UTF-8" standalone="no"?>
<!-- Created with Inkscape (http://www.inkscape.org/) -->

<svg
   width="1000"
   height="1000"
   viewBox="0 0 1000 1000"
   version="1.1"
   id="svg756"
   inkscape:version="1.1 (c68e22c387, 2021-05-23)"
   sodipodi:docname="u3065.svg"
   xmlns:inkscape="http://www.inkscape.org/namespaces/inkscape"
   xmlns:sodipodi="http://sodipodi.sourceforge.net/DTD/sodipodi-0.dtd"
   xmlns="http://www.w3.org/2000/svg"
   xmlns:svg="http://www.w3.org/2000/svg"
   xmlns:rdf="http://www.w3.org/1999/02/22-rdf-syntax-ns#"
   xmlns:cc="http://creativecommons.org/ns#"
   xmlns:dc="http://purl.org/dc/elements/1.1/">
  <defs
     id="defs750" />
  <sodipodi:namedview
     id="base"
     pagecolor="#ffffff"
     bordercolor="#666666"
     borderopacity="1.0"
     inkscape:pageopacity="0.0"
     inkscape:pageshadow="2"
     inkscape:zoom="0.5"
     inkscape:cx="393"
     inkscape:cy="528"
     inkscape:document-units="px"
     inkscape:current-layer="layer1"
     showgrid="true"
     units="px"
     inkscape:window-width="1118"
     inkscape:window-height="864"
     inkscape:window-x="732"
     inkscape:window-y="97"
     inkscape:window-maximized="0"
     showguides="true"
     inkscape:guide-bbox="true"
     inkscape:pagecheckerboard="0">
    <inkscape:grid
       type="xygrid"
       id="grid758" />
    <sodipodi:guide
       position="240,200"
       orientation="0,1"
       id="guide8"
       inkscape:locked="false" />
  </sodipodi:namedview>
  <metadata
     id="metadata753">
    <rdf:RDF>
      <cc:Work
         rdf:about="">
        <dc:format>image/svg+xml</dc:format>
        <dc:type
           rdf:resource="http://purl.org/dc/dcmitype/StillImage" />
        <dc:title />
      </cc:Work>
    </rdf:RDF>
  </metadata>
  <g
     inkscape:label="Layer 1"
     inkscape:groupmode="layer"
     id="layer1"
     transform="translate(0,-32.41664)"
     style="display:inline">
    <path
       style="display:inline;fill:#000000;stroke-width:18.7563"
       d="m 598.44212,4.41664 c -24.00109,2.406108 -32.07379,16.411046 -41.95455,36.863266 -12.56765,26.013862 -8.58654,58.649524 9.85975,81.161844 12.38388,15.11362 26.78243,28.60053 42.15154,40.56864 11.73684,9.13962 23.55455,14.37008 38.19963,10.57697 28.00171,-7.25251 54.26602,-23.04651 81.60302,-32.42943 29.64895,-10.17646 56.59785,-22.45272 88.43056,-18.41825 21.22224,2.6897 38.6977,21.73049 50.69021,38.82474 6.39268,9.11218 17.44242,18.26422 29.31863,14.1755 15.56515,-5.35874 11.77397,-17.52675 16.32598,-32.20109 C 922.62633,112.722 916.59121,76.31125 896.94187,50.418961 886.46693,36.615949 867.47007,32.110765 850.83779,35.128026 826.91315,39.468194 818.79939,46.489103 795.54686,53.588433 757.28755,65.269545 715.83492,81.68068 675.42371,78.31868 656.7494,76.76507 637.24701,67.86563 628.41662,50.35483 621.75835,37.151383 624.90393,19.651517 612.8191,9.366272 608.85874,5.995663 603.64081,3.895471 598.44212,4.41664 Z m -464.0321,237.93785 c -27.41702,1.5624 -56.099761,3.30456 -81.042307,15.83075 -9.623435,4.8329 -16.459365,15.82842 -13.453918,27.00001 4.028619,14.97482 11.902701,25.30083 23.660911,35.20401 15.896604,13.38867 38.591604,11.12884 58.100874,7.7969 46.5144,-7.94408 93.25048,-13.30419 140.2972,-14.15211 61.05772,-1.10043 121.36506,6.83836 177.14481,19.46051 31.42465,7.11094 93.35217,29.01438 107.99763,58.91376 13.74526,28.06159 5.65983,59.49417 -11.1658,91.56963 -23.4918,44.7835 -60.60178,88.95908 -94.9436,125.33198 -31.04707,32.88329 -76.24011,65.59229 -109.63082,95.97868 -19.08654,17.36924 -42.72009,35.92909 -53.2417,60.00104 -4.75058,10.86867 -4.05331,22.34137 4.99307,30.44612 6.28422,5.63011 13.82482,14.94361 23.21444,11.04667 12.84405,-5.33061 23.4347,-14.88458 34.40035,-23.22819 80.7778,-61.46277 159.22775,-127.61638 223.04342,-207.00237 31.33692,-38.98277 59.87748,-83.05844 70.2119,-132.65235 6.7275,-32.28468 1.08916,-67.45025 -19.04759,-94.09759 -26.07983,-34.51193 -66.06908,-54.89688 -106.0503,-68.76999 -76.93952,-26.69729 -158.80627,-34.22956 -239.80637,-38.09484 -44.8378,-2.13964 -89.82614,-3.13882 -134.6822,-0.58262 z"
       id="path991"
       inkscape:connector-curvature="0"
       sodipodi:nodetypes="ssssssssssssssssssssssssssssssssssssss" />
  </g>
</svg>
