<?xml version="1.0" encoding="UTF-8" standalone="no"?>
<!-- Created with Inkscape (http://www.inkscape.org/) -->

<svg
   width="1000"
   height="1000"
   viewBox="0 0 1000 1000"
   version="1.1"
   id="svg756"
   inkscape:version="1.1 (c68e22c387, 2021-05-23)"
   sodipodi:docname="u3090.svg"
   xmlns:inkscape="http://www.inkscape.org/namespaces/inkscape"
   xmlns:sodipodi="http://sodipodi.sourceforge.net/DTD/sodipodi-0.dtd"
   xmlns="http://www.w3.org/2000/svg"
   xmlns:svg="http://www.w3.org/2000/svg"
   xmlns:rdf="http://www.w3.org/1999/02/22-rdf-syntax-ns#"
   xmlns:cc="http://creativecommons.org/ns#"
   xmlns:dc="http://purl.org/dc/elements/1.1/">
  <defs
     id="defs750" />
  <sodipodi:namedview
     id="base"
     pagecolor="#ffffff"
     bordercolor="#666666"
     borderopacity="1.0"
     inkscape:pageopacity="0.0"
     inkscape:pageshadow="2"
     inkscape:zoom="0.5"
     inkscape:cx="711"
     inkscape:cy="204"
     inkscape:document-units="px"
     inkscape:current-layer="layer1"
     showgrid="true"
     units="px"
     inkscape:window-width="1118"
     inkscape:window-height="864"
     inkscape:window-x="550"
     inkscape:window-y="67"
     inkscape:window-maximized="0"
     showguides="true"
     inkscape:guide-bbox="true"
     inkscape:pagecheckerboard="0">
    <inkscape:grid
       type="xygrid"
       id="grid758" />
    <sodipodi:guide
       position="240,200"
       orientation="0,1"
       id="guide8"
       inkscape:locked="false" />
  </sodipodi:namedview>
  <metadata
     id="metadata753">
    <rdf:RDF>
      <cc:Work
         rdf:about="">
        <dc:format>image/svg+xml</dc:format>
        <dc:type
           rdf:resource="http://purl.org/dc/dcmitype/StillImage" />
        <dc:title />
      </cc:Work>
    </rdf:RDF>
  </metadata>
  <g
     inkscape:label="Layer 1"
     inkscape:groupmode="layer"
     id="layer1"
     transform="translate(0,-32.41664)"
     style="display:inline">
    <path
       id="path535"
       style="fill:#000000;stroke-width:7.27811"
       d="m 276.37147,85.549088 c 0,-3.320838 -6.30337,1.669606 -9.29898,2.927539 -17.71708,7.439839 -57.02048,19.379943 -74.00817,22.250753 -8.4818,1.43337 -17.05932,2.18021 -25.55873,3.49911 -17.60568,2.73197 -33.63288,5.84814 -47.39389,12.34506 -13.71495,6.47517 -29.289715,15.29175 -33.157587,29.8073 -1.485309,5.57415 -1.235515,16.51418 1.990227,20.84451 3.280273,4.40354 8.273914,7.11414 13.01,9.41134 9.67035,4.69051 20.44892,4.63069 30.0813,3.97163 19.13489,-1.30924 37.32339,-9.5513 55.1525,-14.16031 12.73458,-3.29202 25.51044,-6.45637 38.40533,-9.03824 6.87327,-1.37619 13.53205,-2.74227 21.95433,-3.69521 3.74324,11.43521 4.96472,15.68776 6.38119,22.088 4.19149,18.93882 8.03064,37.95858 12.0165,56.94376 1.0684,5.22324 3.04813,24.36909 4.06174,29.60268 -14.14863,5.36267 -26.09101,6.7277 -38.80006,12.8496 -12.63919,6.08825 -25.45055,11.8195 -37.87998,18.35437 -22.46203,11.80958 -42.17663,27.35718 -61.18986,44.39711 -11.7269,10.50981 -19.55519,21.02963 -28.04255,33.02907 -19.912471,28.15225 -38.860361,59.31677 -49.383408,89.68798 -11.648146,33.61843 -14.220991,64.10742 -16.659474,96.74285 -2.869424,38.40293 -4.274481,76.29279 7.692482,109.93383 14.25562,40.07482 30.172062,54.86666 59.91316,74.44654 16.99957,11.19157 48.14434,17.68491 68.41078,16.27845 29.18168,-2.02517 50.93168,-5.65017 67.92662,-21.28707 24.51585,-22.55682 32.75321,-37.64087 46.52829,-66.41122 12.72369,-26.57444 22.0962,-52.49132 27.98541,-81.22097 3.80183,-18.54661 8.48776,-44.14629 11.04127,-62.90996 7.61602,-46.56212 9.26778,-89.0102 10.75484,-133.89009 -0.28793,-22.13775 0.82663,-42.76306 0.95239,-64.43634 23.39524,-0.95293 52.45314,-3.89921 71.46753,-3.68131 27.24197,0.31218 60.15715,10.57497 84.34574,23.48473 24.87759,13.27749 43.18703,35.06003 54.74387,58.5254 -19.10434,10.78263 -40.39615,21.36354 -57.09177,31.57002 -19.82511,12.11962 -39.68721,24.93868 -57.09252,40.62763 -23.80207,21.45492 -45.60925,41.84021 -62.19748,66.47692 -16.89704,25.09535 -23.90897,56.56298 -25.77711,83.40976 -1.8155,26.09033 2.8993,35.45065 10.41956,57.31465 7.60573,22.11248 23.35704,42.91312 42.65639,52.00323 29.81284,14.04203 63.73219,22.49605 94.44463,18.39109 33.24307,-4.4432 60.19783,-17.38806 83.19415,-37.21255 18.36301,-15.83026 36.95082,-26.70067 48.46058,-50.00474 18.60158,-37.66307 25.92262,-62.45995 28.19451,-103.05351 2.26186,-40.4145 -2.27189,-73.75847 -11.62998,-102.34648 18.71619,0 34.0565,8.12005 46.57846,15.92758 18.80077,12.92337 22.82307,39.18141 35.8235,55.80659 6.49994,8.31225 11.61511,17.39112 20.39736,22.35392 4.54017,2.56562 15.43318,-5.01732 19.05912,-7.48755 6.91569,-4.71142 29.95041,-22.70682 32.57938,-30.72792 2.24954,-6.86345 3.89811,-25.84445 2.32673,-29.5577 -4.69612,-11.09715 -16.63151,-21.6395 -23.19602,-30.12908 -9.48441,-12.26576 -19.96114,-23.96175 -31.14364,-34.73671 -6.61693,-6.37576 -13.65271,-13.22109 -21.36662,-17.4738 -11.69065,-6.44508 -23.70468,-11.96229 -35.40151,-16.0583 -12.80292,-4.48335 -22.72943,-6.53406 -34.07704,-7.79638 -9.65617,-1.07416 -20.93782,-1.12001 -34.97496,-1.12001 -15.90876,-24.77627 -33.38012,-48.29045 -51.86249,-67.35546 -13.461,-13.88536 -32.84191,-27.94374 -48.09951,-37.40617 -16.40966,-10.17692 -33.49504,-15.77678 -51.39554,-19.48313 -27.98348,-5.79405 -54.83798,-6.20678 -81.38314,-7.77078 -19.51469,-1.14978 -35.81274,1.35716 -53.61704,1.46364 -3.45432,-20.97788 -7.54673,-46.63095 -11.41138,-64.77489 -3.9125,-18.36857 -6.07969,-28.89605 -10.05435,-42.52031 -5.67275,-19.44497 -2.00267,-38.13834 -13.83763,-49.80344 -6.87076,-6.772145 -12.35972,-13.11122 -19.48216,-18.083196 -0.73233,-0.511219 -2.48529,-0.194785 -2.48529,-1.133778 z M 270.94304,353.1581 c 1.01819,52.91878 0.53473,110.07013 -7.89725,157.9733 -5.80965,33.00536 -11.25033,67.74206 -20.92515,99.79803 -8.079,26.76847 -26.4789,73.71727 -55.25345,80.83214 -14.51136,3.58812 -32.97795,-2.92553 -43.7772,-10.89644 -17.93442,-13.23739 -30.59858,-32.99181 -33.92249,-53.58103 -4.90481,-30.38182 -1.62467,-62.43513 2.68422,-90.46375 3.40681,-22.16066 9.27572,-43.99862 18.08239,-64.57858 12.69381,-29.66365 28.81236,-50.82891 50.38424,-70.94455 13.39199,-12.48795 30.03164,-28.38397 47.19123,-34.7109 13.48811,-4.97321 31.49696,-10.8755 43.43346,-13.42822 z m 302.26648,129.78723 c 4.67905,14.29401 7.43659,21.88909 9.3581,32.39975 4.37495,23.93099 4.60419,60.2895 -1.42926,83.87721 -8.12056,31.74718 -18.43504,56.66344 -44.02255,73.29485 -25.86057,16.80889 -71.58185,22.5844 -91.68651,10.02762 -18.31665,-14.56995 -27.21186,-40.54725 -21.48042,-62.56699 6.70071,-20.52113 21.02414,-37.62546 35.26672,-51.04455 22.2309,-20.04202 41.97892,-40.44768 64.52004,-56.61046 11.09892,-7.95832 29.82188,-20.80102 49.47388,-29.37743 z"
       sodipodi:nodetypes="ssssssssssscsccsssssssssssscccsscssssssssssccsssssssssscsssscsssssscsssssssssccssscccsc" />
  </g>
</svg>
