<?xml version="1.0" encoding="UTF-8" standalone="no"?>
<!-- Created with Inkscape (http://www.inkscape.org/) -->

<svg
   width="1000"
   height="1000"
   viewBox="0 0 1000 1000"
   version="1.1"
   id="svg756"
   inkscape:version="1.1 (c68e22c387, 2021-05-23)"
   sodipodi:docname="u3091.svg"
   xmlns:inkscape="http://www.inkscape.org/namespaces/inkscape"
   xmlns:sodipodi="http://sodipodi.sourceforge.net/DTD/sodipodi-0.dtd"
   xmlns="http://www.w3.org/2000/svg"
   xmlns:svg="http://www.w3.org/2000/svg"
   xmlns:rdf="http://www.w3.org/1999/02/22-rdf-syntax-ns#"
   xmlns:cc="http://creativecommons.org/ns#"
   xmlns:dc="http://purl.org/dc/elements/1.1/">
  <defs
     id="defs750" />
  <sodipodi:namedview
     id="base"
     pagecolor="#ffffff"
     bordercolor="#666666"
     borderopacity="1.0"
     inkscape:pageopacity="0.0"
     inkscape:pageshadow="2"
     inkscape:zoom="0.5"
     inkscape:cx="903"
     inkscape:cy="654"
     inkscape:document-units="px"
     inkscape:current-layer="layer1"
     showgrid="true"
     units="px"
     inkscape:window-width="1118"
     inkscape:window-height="864"
     inkscape:window-x="682"
     inkscape:window-y="101"
     inkscape:window-maximized="0"
     showguides="true"
     inkscape:guide-bbox="true"
     inkscape:pagecheckerboard="0">
    <inkscape:grid
       type="xygrid"
       id="grid758" />
    <sodipodi:guide
       position="240,200"
       orientation="0,1"
       id="guide8"
       inkscape:locked="false" />
  </sodipodi:namedview>
  <metadata
     id="metadata753">
    <rdf:RDF>
      <cc:Work
         rdf:about="">
        <dc:format>image/svg+xml</dc:format>
        <dc:type
           rdf:resource="http://purl.org/dc/dcmitype/StillImage" />
        <dc:title />
      </cc:Work>
    </rdf:RDF>
  </metadata>
  <g
     inkscape:label="Layer 1"
     inkscape:groupmode="layer"
     id="layer1"
     transform="translate(0,-32.41664)"
     style="display:inline">
    <path
       style="fill:#000000;stroke-width:5.91583"
       d="m 43.949013,837.84764 c -7.279809,-8.65962 -9.363821,-4.14902 62.885457,-136.10874 29.78784,-54.40599 51.76329,-78.49528 68.03045,-100.99831 16.26717,-22.50303 25.83252,-32.6306 41.72892,-48.32395 -10.92877,-9.80835 -24.83813,-39.23338 -19.34134,-68.79786 5.41506,-29.12503 28.28872,-47.8176 43.88877,-57.90859 29.3151,-18.96266 77.92923,-28.66096 131.65172,-29.46859 50.45401,-0.75849 102.11729,10.03069 129.93599,36.51322 3.36059,-3.31101 9.10498,-8.94338 18.90956,-27.84425 27.78611,-53.56501 19.10924,-83.72348 -24.45585,-95.6676 -58.49663,-16.03786 -144.62101,-2.59991 -212.87116,31.54331 -34.54394,17.28116 -74.16554,-7.48348 -77.25528,-23.48863 -1.28032,-6.63217 3.92545,-12.7515 14.82415,-17.42563 9.23859,-3.96215 26.17497,-12.81567 37.63641,-19.6745 11.46142,-6.85882 43.61298,-23.98212 71.44789,-38.05178 27.83491,-14.06964 63.88506,-28.91536 85.33578,-42.00249 37.63871,-22.96345 53.64218,-26.32875 73.83536,-42.14284 9.91642,-7.76595 35.89632,-25.66424 37.77424,-31.26597 1.64408,-4.90417 -7.10846,-2.93081 -14.53996,-1.96167 -22.56343,2.94251 -41.7924,8.3531 -88.81565,21.6519 -47.02323,13.2988 -88.9026,23.69661 -137.43448,43.4794 -40.83057,16.64355 -69.35058,-29.59763 -45.94478,-47.03823 40.88588,-30.4657 191.27666,-83.908402 269.93729,-92.805941 95.13684,-10.761217 135.7557,45.414376 74.17344,109.466891 -36.57096,38.03792 -53.26783,48.7308 -106.36835,75.4782 -7.93866,3.99881 -11.02381,5.88195 -17.91665,9.4296 15.8964,0 17.88345,0.98083 37.22982,2.08022 44.16619,2.50981 83.05062,29.78339 99.60199,66.01894 9.45394,20.69731 12.19691,72.16018 -6.01698,111.23556 -29.78441,63.89828 -75.04354,116.23695 -137.11128,143.34178 -14.21151,6.20613 -44.8648,19.77235 -68.11843,25.35197 -36.25868,8.70012 -80.76781,-0.7039 -109.12513,-6.9689 -18.18626,-4.01792 -16.15847,-3.65248 -24.10668,-6.59499 -11.9223,17.65503 -8.94172,9.80835 -21.85754,30.40587 17.88345,-10.78918 33.77984,-15.69335 56.13933,-6.62398 19.44064,7.88544 37.252,24.27901 41.89939,40.17102 3.49245,11.94265 0.32024,18.4372 0.4101,24.58234 2.89071,-1.24097 20.97836,-16.12924 43.05073,-31.04757 50.06047,-33.83496 88.28522,-47.32028 114.61201,-47.32028 26.98871,0 64.79696,61.43353 84.19011,128.38774 7.94391,27.42611 23.93898,77.71063 26.55144,91.25088 5.36233,27.79267 -20.11295,53.65517 -73.37816,34.42259 -35.30978,-12.74937 -45.09374,-20.98164 -20.55301,-26.49896 21.66022,-4.86971 24.14198,-3.31019 -15.93048,-118.68832 -11.69719,-33.67902 -16.56738,-28.66084 -52.56688,-13.11057 -37.35078,16.1339 -68.41849,39.72614 -87.52779,61.21242 -15.25726,17.15507 -31.62701,43.17077 -41.83662,89.44799 -1.96141,8.89038 -19.16972,14.20267 -23.66901,14.20267 -18.75423,0 -46.01739,-62.53828 -28.76002,-95.93339 7.47504,-14.46514 11.1487,-18.90775 16.11632,-28.7161 3.84683,-16.38582 7.9879,-41.23878 3.81162,-46.28888 -3.34187,-4.04108 -14.66624,-7.34742 -25.16529,-7.34742 -39.06462,0 -70.84736,42.5535 -100.24071,103.5717 -17.25994,35.83018 -47.52827,84.50124 -52.550976,84.50124 -2.078896,0 -48.49673,-17.28707 -52.149801,-21.63252 z M 369.77004,532.23016 c 46.89441,-15.84359 72.52963,-27.25596 94.44668,-56.63593 -19.11217,-19.29938 -48.72711,-17.59322 -68.51393,-18.52083 -92.5791,-4.34016 -122.47804,11.9723 -130.32304,38.20011 -7.10119,23.741 1.52282,28.24271 28.59175,36.19022 27.93597,8.20206 50.19447,9.41693 75.79854,0.76643 z"
       id="path75"
       sodipodi:nodetypes="ssscssscssssssssssssssssscssssssccsscsssssssssssscsssssscssss" />
  </g>
</svg>
