<?xml version="1.0" encoding="UTF-8" standalone="no"?>
<!-- Created with Inkscape (http://www.inkscape.org/) -->

<svg
   width="1000"
   height="1000"
   viewBox="0 0 1000 1000"
   version="1.1"
   id="svg756"
   inkscape:version="1.1 (c68e22c387, 2021-05-23)"
   sodipodi:docname="uff1d.svg"
   xmlns:inkscape="http://www.inkscape.org/namespaces/inkscape"
   xmlns:sodipodi="http://sodipodi.sourceforge.net/DTD/sodipodi-0.dtd"
   xmlns="http://www.w3.org/2000/svg"
   xmlns:svg="http://www.w3.org/2000/svg"
   xmlns:rdf="http://www.w3.org/1999/02/22-rdf-syntax-ns#"
   xmlns:cc="http://creativecommons.org/ns#"
   xmlns:dc="http://purl.org/dc/elements/1.1/">
  <defs
     id="defs750" />
  <sodipodi:namedview
     id="base"
     pagecolor="#ffffff"
     bordercolor="#666666"
     borderopacity="1.0"
     inkscape:pageopacity="0.0"
     inkscape:pageshadow="2"
     inkscape:zoom="0.5"
     inkscape:cx="609"
     inkscape:cy="596"
     inkscape:document-units="px"
     inkscape:current-layer="layer1"
     showgrid="true"
     units="px"
     inkscape:window-width="1118"
     inkscape:window-height="864"
     inkscape:window-x="848"
     inkscape:window-y="112"
     inkscape:window-maximized="0"
     showguides="true"
     inkscape:guide-bbox="true"
     inkscape:pagecheckerboard="0">
    <inkscape:grid
       type="xygrid"
       id="grid758" />
    <sodipodi:guide
       position="240,200"
       orientation="0,1"
       id="guide8"
       inkscape:locked="false" />
  </sodipodi:namedview>
  <metadata
     id="metadata753">
    <rdf:RDF>
      <cc:Work
         rdf:about="">
        <dc:format>image/svg+xml</dc:format>
        <dc:type
           rdf:resource="http://purl.org/dc/dcmitype/StillImage" />
        <dc:title />
      </cc:Work>
    </rdf:RDF>
  </metadata>
  <g
     inkscape:label="Layer 1"
     inkscape:groupmode="layer"
     id="layer1"
     transform="translate(0,-32.41664)"
     style="display:inline">
    <path
       style="fill:#000000;stroke-width:7.43322"
       d="m 52.125865,621.43774 c -20.92131,-15.35415 -8.484455,-66.66247 26.863282,-71.79875 45.915963,-6.67193 404.347573,-7.48174 446.141473,-1.00799 34.93563,5.41144 51.16127,53.60057 37.50076,67.26108 -3.87523,3.87523 -26.64323,3.6979 -54.87778,-0.42741 -26.54013,-3.87773 -78.35929,-7.11907 -115.15369,-7.20296 -81.20711,-0.18516 -291.59096,12.29969 -312.194936,18.52664 -8.176528,2.47113 -20.902134,0.0632 -28.279109,-5.35061 z M 111.07875,393.51691 c 0,-5.1025 -18.981953,-30.59983 -27.530873,-36.71271 -10.622978,-7.59594 -19.898881,-30.03133 -21.725928,-51.33309 -1.325822,-15.45792 1.192073,-15.59845 187.688611,-13.1921 202.52057,2.61311 284.3875,37.67198 250.39311,83.65263 -12.21858,16.52678 -7.54401,30.44629 -56.64252,11.78493 -30.75538,-11.6895 -65.10465,-28.86268 -131.41592,-28.86268 -57.17861,0 -130.2377,1.56275 -157.29241,1.56275 0,10.82188 2.7047,19.23819 -1.08373,33.06544 -3.14372,11.47413 -42.39034,13.4789 -42.39034,0.0349 z"
       id="path75"
       sodipodi:nodetypes="csssssscssssssscsss" />
  </g>
</svg>
