<?xml version="1.0" encoding="UTF-8" standalone="no"?>
<!-- Created with Inkscape (http://www.inkscape.org/) -->

<svg
   width="1000"
   height="1000"
   viewBox="0 0 1000 1000"
   version="1.1"
   id="svg756"
   inkscape:version="1.1 (c68e22c387, 2021-05-23)"
   sodipodi:docname="u0040.svg"
   xmlns:inkscape="http://www.inkscape.org/namespaces/inkscape"
   xmlns:sodipodi="http://sodipodi.sourceforge.net/DTD/sodipodi-0.dtd"
   xmlns="http://www.w3.org/2000/svg"
   xmlns:svg="http://www.w3.org/2000/svg"
   xmlns:rdf="http://www.w3.org/1999/02/22-rdf-syntax-ns#"
   xmlns:cc="http://creativecommons.org/ns#"
   xmlns:dc="http://purl.org/dc/elements/1.1/">
  <defs
     id="defs750" />
  <sodipodi:namedview
     id="base"
     pagecolor="#ffffff"
     bordercolor="#666666"
     borderopacity="1.0"
     inkscape:pageopacity="0.0"
     inkscape:pageshadow="2"
     inkscape:zoom="0.5"
     inkscape:cx="563"
     inkscape:cy="524"
     inkscape:document-units="px"
     inkscape:current-layer="layer1"
     showgrid="true"
     units="px"
     inkscape:window-width="950"
     inkscape:window-height="864"
     inkscape:window-x="634"
     inkscape:window-y="45"
     inkscape:window-maximized="0"
     showguides="true"
     inkscape:guide-bbox="true"
     inkscape:pagecheckerboard="0">
    <inkscape:grid
       type="xygrid"
       id="grid758" />
    <sodipodi:guide
       position="240,200"
       orientation="0,1"
       id="guide8"
       inkscape:locked="false" />
  </sodipodi:namedview>
  <metadata
     id="metadata753">
    <rdf:RDF>
      <cc:Work
         rdf:about="">
        <dc:format>image/svg+xml</dc:format>
        <dc:type
           rdf:resource="http://purl.org/dc/dcmitype/StillImage" />
        <dc:title />
      </cc:Work>
    </rdf:RDF>
  </metadata>
  <g
     inkscape:label="Layer 1"
     inkscape:groupmode="layer"
     id="layer1"
     transform="translate(0,-32.41664)"
     style="display:inline">
    <path
       style="fill:#000000;stroke-width:5.46975"
       d="m 311.17647,755.67767 c -56.24966,-4.24275 -87.12848,-14.95766 -127.4816,-39.06759 -27.91465,-16.67825 -39.57722,-53.5861 -39.57722,-66.59047 0,-8.38786 14.22538,-0.55526 44.70588,13.72851 C 250,692.41664 285.47531,694.0336 384.79199,693.05751 450,692.41664 488.65594,679.99591 509.66221,657.49164 520,646.41664 535.07273,622.99108 542.05882,611.33947 560,581.41664 573.53148,543.45003 585.73365,472.74639 c 7.24677,-41.99043 5.67783,-47.23334 1.00056,-84.18543 C 578.95407,327.09525 572.22362,300.99901 532.70588,255.7208 460,172.41664 434.3586,164.40048 341.41176,165.23814 c -74.11823,0.66797 -115.95752,13.42922 -153.15312,38.89334 -36.36171,24.89322 -63.59527,64.23169 -82.7025,99.38389 C 98,317.41664 90.935943,356.3824 92.043802,394.35921 94,461.41664 108.41064,477.6264 150.36465,536.54677 c 34.9874,49.13646 45.08151,44.10411 85.53757,52.90616 30.49604,6.63506 16.45072,47.0556 16.45072,61.90108 0,10.55122 -3.24708,10.67265 -50.07541,1.87333 C 155.97728,644.52726 124.25651,637.58701 84.109619,578.86604 41.91048,517.14335 17.379965,468.36183 18.769478,402.62856 20,344.41664 20,334.41664 29.765026,297.83717 42.341325,250.72676 74,207.41664 91.246245,188.02492 97.004288,181.55056 114.48801,163.51674 122,156.35235 c 23,-21.93571 77.93486,-48.97799 109.70796,-56.55042 75.41075,-17.9725 171.5206,-15.004788 216.88028,3.56606 51.41176,21.04865 72.41176,37.04865 98,61.99341 10.28149,10.02294 28.06441,28.01614 38.97148,40.68086 55.44028,64.37438 73.72969,122.57463 74.01355,221.55319 0.17412,60.75505 -11.24395,85.89776 -25.77854,137.97351 C 622.67478,605.41061 613,629.41664 603.64207,652.21797 597.11381,668.12459 580,689.41664 568.55322,702.58965 c -13.10586,15.08229 -29.09021,28.83389 -55.84734,37.02294 -42.94795,13.14418 -136.73589,20.95237 -201.52941,16.06508 z M 411.3836,495.54912 C 388.35356,484.8938 360,462.41664 346.93366,446.96061 343.22554,442.57431 336,436.41664 335,432.41664 c 1,4 -2.48688,8.18713 -6.89183,15.86584 -8.10817,14.13416 -34.56764,34.38582 -70.25101,34.38582 -23.55338,0 -51.4932,-7.67784 -69.39156,-20.44628 -44.97008,-32.08102 -64.85804,-76.33626 -52.5804,-128.20516 10.86489,-45.90049 48.02819,-96.43244 73.5983,-103.09613 48.83281,-12.72606 100.78479,11.4146 117.20016,38.13631 7.65844,12.46678 -13.16609,59.35918 -34.91399,48.73478 -9.59778,-4.68876 -12.18605,-21.34721 -33.39294,-18.50652 C 235,302.41664 225.91427,307.96703 218.46201,319.3117 200,347.41664 199.67595,365.90276 210.0367,382.8872 225,407.41664 265,424.41664 274.18012,408.78059 c 4.17528,-7.11155 11.45912,-26.16274 12.82117,-42.9139 2.24886,-27.65758 35.10665,-41.62849 44.18969,-41.89574 1.81974,-0.0534 30.6089,7.20066 34.64256,18.5649 8.02033,22.59602 10.21222,39.71575 63.32956,76.54109 38.32556,26.57043 56.19469,18.05107 69.66043,-2.05103 C 509.45929,401.1485 544,446.59688 544,461.91769 c 0,18.0818 -34.52888,47.88319 -54.71393,49.07046 C 465,512.41664 428.73654,503.57781 411.3836,495.54912 Z"
       id="path39"
       sodipodi:nodetypes="ssssssssssssssssssssssssssssssssssscsssssssssssscssssss" />
  </g>
</svg>
