<?xml version="1.0" encoding="UTF-8" standalone="no"?>
<!-- Created with Inkscape (http://www.inkscape.org/) -->

<svg
   width="1000"
   height="1000"
   viewBox="0 0 1000 1000"
   version="1.1"
   id="svg756"
   inkscape:version="1.1 (c68e22c387, 2021-05-23)"
   sodipodi:docname="uffe5.svg"
   xmlns:inkscape="http://www.inkscape.org/namespaces/inkscape"
   xmlns:sodipodi="http://sodipodi.sourceforge.net/DTD/sodipodi-0.dtd"
   xmlns="http://www.w3.org/2000/svg"
   xmlns:svg="http://www.w3.org/2000/svg"
   xmlns:rdf="http://www.w3.org/1999/02/22-rdf-syntax-ns#"
   xmlns:cc="http://creativecommons.org/ns#"
   xmlns:dc="http://purl.org/dc/elements/1.1/">
  <defs
     id="defs750" />
  <sodipodi:namedview
     id="base"
     pagecolor="#ffffff"
     bordercolor="#666666"
     borderopacity="1.0"
     inkscape:pageopacity="0.0"
     inkscape:pageshadow="2"
     inkscape:zoom="0.5"
     inkscape:cx="830.50511"
     inkscape:cy="655.17499"
     inkscape:document-units="px"
     inkscape:current-layer="layer1"
     showgrid="true"
     units="px"
     inkscape:window-width="1118"
     inkscape:window-height="880"
     inkscape:window-x="644"
     inkscape:window-y="15"
     inkscape:window-maximized="0"
     showguides="true"
     inkscape:guide-bbox="true"
     inkscape:pagecheckerboard="0">
    <inkscape:grid
       type="xygrid"
       id="grid758" />
    <sodipodi:guide
       position="240,200"
       orientation="0,1"
       id="guide8"
       inkscape:locked="false" />
  </sodipodi:namedview>
  <metadata
     id="metadata753">
    <rdf:RDF>
      <cc:Work
         rdf:about="">
        <dc:format>image/svg+xml</dc:format>
        <dc:type
           rdf:resource="http://purl.org/dc/dcmitype/StillImage" />
        <dc:title />
      </cc:Work>
    </rdf:RDF>
  </metadata>
  <g
     inkscape:label="Layer 1"
     inkscape:groupmode="layer"
     id="layer1"
     transform="translate(0,-32.41664)"
     style="display:inline">
    <path
       style="fill:#000000;stroke-width:6.53563"
       d="m 208.41672,822.41664 c -2.30929,-5.5887 -0.67212,-35.87524 3.6381,-67.30343 8.99112,-65.5587 16.41512,-144.06544 19.57663,-176.32422 l 2.35047,-21.98329 -19.96443,1.56332 C 155.67671,562.93741 27.950716,564.36298 15.128916,556.18938 8.3785139,551.88616 3.9146384,501.92463 5.20919,498.94155 c 1.3086449,-3.01556 52.075593,-5.98293 114.33666,-6.68308 61.5906,-0.69261 111.40399,-3.90438 117.45415,-4.84183 2,-16 3.78523,-30.00498 4.4366,-40.72648 C 242,437.41664 242,431.41664 240,420.41664 c -10,0 -19,0 -50.38943,1.02351 -32.18724,1.04952 -110.221324,-6.56017 -117.624702,-15.76132 -2.607545,-3.24074 -6.0514,-47.49455 -0.319204,-51.89736 8.023037,-6.1626 16.367639,-6.69527 36.254736,-2.31431 14.20813,3.12993 49.73823,5.69079 78.95578,5.69079 0,0 38.12282,0.25869 53.12282,0 5,-14.74131 9.28689,-17.63727 15.68794,-25.06695 C 264.17848,322.23605 268,319.41664 274,313.41664 c -3.80457,1.60779 -3.72552,2.14553 -10.01367,2.97011 -15.34347,2.01203 -60.91048,4.92581 -76.71033,-17.73598 -15.79986,-22.6618 -34.14179,-61.76711 -59.96278,-124.39708 -9.09182,-22.05262 -22.04814,-50.09933 -29.22834,-61.12564 -7.1802,-11.0263 -15.46961,-28.637181 -18.4209,-39.135279 -4.90971,-17.464323 36.04639,-30.925563 51.24355,-29.183853 16.91908,1.939061 25.69455,16.860262 68.49405,116.462632 38.09975,88.66511 46.43471,111.28104 58.98845,111.35168 6.97373,0.0395 26.60997,9.79341 26.60997,29.79341 5,-5 1.77463,-1.21618 18.9748,-16.86055 19.65554,-17.87764 59.72227,-80.9532 91.03139,-147.52256 20.81539,-44.25766 39.49596,-68.597963 49.13527,-64.021989 12.57331,5.968794 46.57556,31.752859 19.71274,87.214169 C 418.97845,253.87672 391.26718,294.57403 356.13968,323.87994 338.02864,338.98949 321,349.41664 320,356.41664 c 8,0 16.06739,-3.86512 46.153,-6.22431 30.08559,-2.35919 64.77519,-5.9545 108.86576,-7.9896 77.0792,-3.55775 80.16469,-3.25425 80.16469,7.885 0,10.39048 0.0403,49.8743 -51.79313,52.38903 C 439.51769,405.57559 329,419.41664 314,419.41664 c 1,11 0.38286,10.94276 -0.12636,24.00781 -0.54155,13.89471 -2.14146,23.63512 -3.87361,40.99219 48.73218,-2.35707 81.14665,-3.73346 81.14665,-3.73346 99.28511,-3.69615 118.39977,-3.04778 122.50754,5.17458 2.54577,5.09581 -1.19357,54.71377 -4.24724,56.89109 -4.49737,3.20671 -52.47935,3.15514 -113.32666,6.34146 C 335.23296,552.27662 317,556.41664 304.92763,556.82015 303,576.41664 294,652.41664 283.89244,743.79471 c -8.54694,77.2692 -8.85825,88.78327 -25.20308,88.78327 -7.74066,0 -47.96336,-4.57262 -50.27264,-10.16134 z"
       id="path39"
       sodipodi:nodetypes="ssscsssscscsscsscscsssscssccssssscsssscscsssscsss" />
  </g>
</svg>
