<?xml version="1.0" encoding="UTF-8" standalone="no"?>
<!-- Created with Inkscape (http://www.inkscape.org/) -->

<svg
   width="1000"
   height="1000"
   viewBox="0 0 1000 1000"
   version="1.1"
   id="svg756"
   inkscape:version="1.1 (c68e22c387, 2021-05-23)"
   sodipodi:docname="u201c.svg"
   xmlns:inkscape="http://www.inkscape.org/namespaces/inkscape"
   xmlns:sodipodi="http://sodipodi.sourceforge.net/DTD/sodipodi-0.dtd"
   xmlns="http://www.w3.org/2000/svg"
   xmlns:svg="http://www.w3.org/2000/svg"
   xmlns:rdf="http://www.w3.org/1999/02/22-rdf-syntax-ns#"
   xmlns:cc="http://creativecommons.org/ns#"
   xmlns:dc="http://purl.org/dc/elements/1.1/">
  <defs
     id="defs750" />
  <sodipodi:namedview
     id="base"
     pagecolor="#ffffff"
     bordercolor="#666666"
     borderopacity="1.0"
     inkscape:pageopacity="0.0"
     inkscape:pageshadow="2"
     inkscape:zoom="0.5"
     inkscape:cx="881"
     inkscape:cy="658"
     inkscape:document-units="px"
     inkscape:current-layer="layer1"
     showgrid="true"
     units="px"
     inkscape:window-width="1118"
     inkscape:window-height="864"
     inkscape:window-x="270"
     inkscape:window-y="9"
     inkscape:window-maximized="0"
     showguides="true"
     inkscape:guide-bbox="true"
     inkscape:pagecheckerboard="0">
    <inkscape:grid
       type="xygrid"
       id="grid758" />
    <sodipodi:guide
       position="240,200"
       orientation="0,1"
       id="guide8"
       inkscape:locked="false" />
  </sodipodi:namedview>
  <metadata
     id="metadata753">
    <rdf:RDF>
      <cc:Work
         rdf:about="">
        <dc:format>image/svg+xml</dc:format>
        <dc:type
           rdf:resource="http://purl.org/dc/dcmitype/StillImage" />
        <dc:title />
      </cc:Work>
    </rdf:RDF>
  </metadata>
  <g
     inkscape:label="Layer 1"
     inkscape:groupmode="layer"
     id="layer1"
     transform="translate(0,-32.41664)"
     style="display:inline">
    <path
       style="fill:#000000;stroke-width:6.66487"
       d="M 48.30585,338.07884 C 34.218354,307.86135 43.47109,234.22668 55.76121,179.30858 64.15496,141.80136 101.94477,81.524913 130.37208,60.300849 159.7771,38.346836 189.96041,50.185041 157.6811,94.033401 124.11467,139.63016 111.16374,182.72829 111.16374,230.39579 c 0,18.60532 2.41192,32.8571 6.59059,40.04137 4.17867,7.18428 20.13612,8.02596 22.1408,-3.77781 4.36047,-25.67493 14.41072,-24.26072 31.69889,1.62625 16.52401,24.74273 -1.33676,60.22359 -12.9151,81.36114 -34.37307,62.75189 -94.37307,22.75189 -110.37307,-11.5679 z M 244,312.41664 c -19.69415,-20.01801 -24.62792,-58.68688 -17.53903,-94.92039 7.84488,-40.09762 31.27139,-84.82427 51.93365,-103.4959 12.65584,-11.43653 38.05011,-13.57553 38.05011,-3.4007 0,6.21268 0.002,27.05357 -7.32973,41.4242 -15.93205,31.22941 -16.19361,87.97834 -1.71035,87.97834 5.29065,0 19.84055,1.69297 23.89575,10.67159 8.00545,17.72485 4.55915,42.65685 -4.11629,59.99187 -12.87826,25.73298 -68.16333,17.01878 -83.18411,1.75099 z"
       id="path39"
       sodipodi:nodetypes="sssssssssssssssssss" />
  </g>
</svg>
