<?xml version="1.0" encoding="UTF-8" standalone="no"?>
<!-- Created with Inkscape (http://www.inkscape.org/) -->

<svg
   width="1000"
   height="1000"
   viewBox="0 0 1000 1000"
   version="1.1"
   id="svg756"
   inkscape:version="1.1 (c68e22c387, 2021-05-23)"
   sodipodi:docname="u2191.svg"
   xmlns:inkscape="http://www.inkscape.org/namespaces/inkscape"
   xmlns:sodipodi="http://sodipodi.sourceforge.net/DTD/sodipodi-0.dtd"
   xmlns="http://www.w3.org/2000/svg"
   xmlns:svg="http://www.w3.org/2000/svg"
   xmlns:rdf="http://www.w3.org/1999/02/22-rdf-syntax-ns#"
   xmlns:cc="http://creativecommons.org/ns#"
   xmlns:dc="http://purl.org/dc/elements/1.1/">
  <defs
     id="defs750">
    <pattern
       id="EMFhbasepattern"
       patternUnits="userSpaceOnUse"
       width="6"
       height="6"
       x="0"
       y="0" />
  </defs>
  <sodipodi:namedview
     id="base"
     pagecolor="#ffffff"
     bordercolor="#666666"
     borderopacity="1.0"
     inkscape:pageopacity="0.0"
     inkscape:pageshadow="2"
     inkscape:zoom="0.5"
     inkscape:cx="733"
     inkscape:cy="464"
     inkscape:document-units="px"
     inkscape:current-layer="layer1"
     showgrid="true"
     units="px"
     inkscape:window-width="1118"
     inkscape:window-height="864"
     inkscape:window-x="577"
     inkscape:window-y="76"
     inkscape:window-maximized="0"
     showguides="true"
     inkscape:guide-bbox="true"
     inkscape:pagecheckerboard="0">
    <inkscape:grid
       type="xygrid"
       id="grid758" />
    <sodipodi:guide
       position="240,200"
       orientation="0,1"
       id="guide8"
       inkscape:locked="false" />
  </sodipodi:namedview>
  <metadata
     id="metadata753">
    <rdf:RDF>
      <cc:Work
         rdf:about="">
        <dc:format>image/svg+xml</dc:format>
        <dc:type
           rdf:resource="http://purl.org/dc/dcmitype/StillImage" />
        <dc:title />
      </cc:Work>
    </rdf:RDF>
  </metadata>
  <g
     inkscape:label="Layer 1"
     inkscape:groupmode="layer"
     id="layer1"
     transform="translate(0,-32.41664)"
     style="display:inline">
    <path
       id="path38"
       style="fill:#000000;stroke-width:7.22752"
       d="m 226.08247,32.417416 c -3.19708,0.15491 -6.33074,1.090783 -9.16753,2.576935 -0.33821,0.171075 -1.03659,0.556362 -1.50344,0.840129 -5.83713,3.544354 -10.56682,8.649037 -14.8134,13.971204 -0.49477,0.646613 -1.13485,1.453149 -1.52541,1.982387 -2.21562,2.951292 -4.28662,6.010734 -6.27829,9.120866 -0.40218,0.636039 -0.97169,1.556171 -1.43809,2.301259 -5.27483,8.539823 -9.81032,17.514912 -14.24581,26.522171 -7.96065,15.664053 -16.50614,31.031523 -25.79184,45.929563 -3.41301,5.47761 -7.001,10.84326 -10.80814,16.04778 -5.91322,8.62349 -10.96905,17.80973 -15.95056,27.00621 -9.33245,17.43693 -17.96642,35.24172 -26.300975,53.21174 -11.241596,24.28485 -21.843046,48.98021 -31.795872,73.88069 -5.385092,13.51298 -10.562786,27.07081 -15.403002,40.80007 -2.971718,8.45519 -5.851338,17.06088 -8.403673,25.70019 -1.853073,6.26804 -3.489267,12.66186 -5.108166,19.05963 -3.693427,14.79765 -7.033505,29.84666 -9.203947,45.01453 -1.151037,8.37371 -2.051951,16.84246 -1.6028,25.30644 0.157164,2.56243 0.492864,5.16009 1.500087,7.53731 3.590246,1.78092 7.714987,1.77889 11.624409,1.68626 7.724267,-0.29535 15.374302,-2.37193 22.243024,-5.95462 1.680313,-0.94582 3.463856,-1.88565 4.735713,-3.37651 1.982063,-3.04348 3.973088,-6.27035 5.742046,-9.33136 4.28258,-7.50764 8.39704,-15.38186 12.406803,-23.07264 14.121442,-27.32131 27.580873,-54.98942 40.749083,-82.79362 13.39026,-28.47867 26.86536,-56.95853 42.32991,-84.35694 12.2231,-21.54186 25.76404,-42.51858 42.54356,-60.73352 12.12473,-13.19854 26.04941,-24.71845 41.36999,-33.90453 22.93111,-13.80925 48.42365,-22.52211 74.11244,-29.36075 27.91123,-7.38666 56.30251,-12.66953 84.64768,-18.00367 9.64797,-1.73318 19.32279,-3.56408 29.12707,-4.06638 6.22698,-0.30265 12.62781,0.20308 18.42456,2.69043 5.93572,2.44964 10.6706,6.99508 15.09398,11.56099 4.50694,4.65203 9.76567,8.97651 16.13182,10.58193 4.10533,1.04613 8.42831,1.00232 12.5754,0.22849 0.46763,-0.0945 1.30028,-0.25303 1.90356,-0.398 0.81952,-0.19324 1.50685,-0.36978 2.37072,-0.61832 8.72428,-2.56176 16.76756,-7.0245 24.42465,-11.89536 9.12831,-5.90248 17.48585,-13.22815 23.83112,-22.1695 0.2244,-0.32518 0.69317,-0.99338 1.0021,-1.46152 4.68719,-7.002772 8.04498,-15.162097 8.29659,-23.707215 0.21899,-5.778674 -1.43013,-11.641273 -4.85533,-16.292239 -3.70901,-5.114665 -8.94369,-8.870334 -14.43441,-11.799703 -6.09862,-3.11393 -13.01688,-3.806256 -19.72612,-4.334052 -1.84386,-0.138086 -3.73804,-0.240227 -5.48815,-0.308564 -12.35601,-0.450805 -24.74299,-0.02577 -37.06312,0.410065 -19.78902,0.797829 -39.53087,1.852918 -59.28632,3.068009 -26.44435,1.683471 -52.85588,3.664579 -79.23102,6.228826 -8.50264,0.873361 -17.11851,1.724494 -25.61143,3.024131 -9.3415,1.521008 -18.76342,3.260585 -28.26567,2.774895 -6.57276,-0.326383 -13.08698,-2.089672 -18.85029,-5.332462 -6.34708,-3.475038 -11.81193,-8.304214 -17.27474,-13.017929 -6.21046,-5.105593 -13.02894,-9.936171 -20.94111,-12.038804 -2.22324,-0.567987 -4.52465,-0.847538 -6.81766,-0.734922 z M 346.88581,200.66304 c -6.53829,0.0786 -12.89411,2.57968 -18.0995,6.52319 -0.78494,0.58655 -1.38413,1.06577 -2.16028,1.72107 -7.92832,6.77056 -13.57038,15.85297 -17.91376,25.29489 -1.86203,4.06267 -3.46599,8.24361 -4.88599,12.48465 -0.54781,1.68045 -1.15588,3.58143 -1.66691,5.36684 -0.58833,2.05665 -1.15073,4.09526 -1.66878,6.09703 -1.78426,6.82376 -3.32624,13.77272 -4.68703,20.62871 -1.2955,6.45963 -2.47665,13.10332 -3.55597,19.62033 -3.2498,19.70188 -5.83514,39.45181 -8.25003,59.28002 -4.55082,37.72451 -8.40937,75.56239 -12.14261,113.40323 -3.77197,38.09546 -7.2877,76.17984 -10.46487,114.33367 -3.3295,40.25511 -6.33596,80.5615 -8.59595,120.90864 -1.10426,19.99062 -2.04815,40.10073 -2.52467,60.11296 -0.2459,11.0296 -0.37965,22.17831 -0.0378,33.13801 0.13466,3.73533 0.31378,7.47112 0.67764,11.19162 0.0591,0.51586 0.1447,1.39765 0.23954,2.06005 0.18125,1.01894 0.21002,2.12759 0.58754,3.07514 3.86315,3.82792 8.13861,7.2167 12.57437,10.33457 3.21042,2.29228 6.74524,4.13004 10.53162,5.21907 2.67836,0.8292 5.51864,1.27191 8.31162,0.97062 5.33159,-1.92676 10.84011,-3.56113 16.51411,-3.91804 3.61874,-2.0323 6.87452,-4.67124 10.11049,-7.27122 3.99129,-3.33993 7.96137,-6.73753 11.53172,-10.5436 5.69871,-6.25594 10.19204,-13.83314 12.11695,-22.17289 0.87171,-4.09349 1.17042,-8.56997 -0.5199,-12.49512 -0.78855,-1.85448 -2.31734,-3.38696 -4.26178,-3.93724 -4.04258,-1.08395 -8.02188,-2.64259 -11.40888,-5.17595 -5.00462,-3.59949 -8.3289,-9.20781 -9.86067,-15.16758 -1.83823,-7.02386 -1.82798,-14.38069 -1.43835,-21.58665 0.76794,-12.01559 2.79548,-23.90168 4.85069,-35.74688 1.19052,-6.53212 2.36423,-13.06956 3.25497,-19.65251 2.84175,-19.89669 5.29451,-39.80791 7.73279,-59.75743 4.87418,-40.11055 9.35295,-80.2831 13.63415,-120.47185 4.21161,-38.69459 8.48941,-77.38675 13.66491,-115.96285 3.58486,-26.31719 7.53181,-52.61504 13.24619,-78.55602 3.80728,-17.39297 8.63715,-34.551 14.36423,-51.39373 2.47839,-7.49954 5.00298,-15.00422 6.79134,-22.71019 0.28847,-1.64737 0.85471,-3.35826 0.48635,-5.0316 -1.56697,-2.2553 -3.81579,-4.00768 -5.79302,-5.76336 -3.09025,-2.6386 -6.35895,-5.39686 -9.86319,-7.61311 -5.51443,-3.54887 -11.74319,-6.19132 -18.30335,-6.73898 -0.35048,-0.0203 -1.11667,-0.0797 -1.63408,-0.0891 -0.49463,-0.0153 -0.9891,-0.0124 -1.48385,-0.008 z M 300,832.41664 c -0.0772,-1.26012 -0.15423,-2.52022 -0.23134,-3.78033 -0.67843,-0.14681 0.009,1.09099 -0.0888,1.53149 0.10669,0.74961 0.21339,1.49923 0.32009,2.24884 z m 0.20882,-1.99598 c -0.0625,-0.52916 0.35132,-1.45623 -0.0901,-1.73457 0.03,0.5782 0.06,1.15638 0.0901,1.73457 z" />
  </g>
</svg>
