<?xml version="1.0" encoding="UTF-8" standalone="no"?>
<!-- Created with Inkscape (http://www.inkscape.org/) -->

<svg
   width="1000"
   height="1000"
   viewBox="0 0 1000 1000"
   version="1.1"
   id="svg756"
   inkscape:version="1.1 (c68e22c387, 2021-05-23)"
   sodipodi:docname="u2252.svg"
   xmlns:inkscape="http://www.inkscape.org/namespaces/inkscape"
   xmlns:sodipodi="http://sodipodi.sourceforge.net/DTD/sodipodi-0.dtd"
   xmlns="http://www.w3.org/2000/svg"
   xmlns:svg="http://www.w3.org/2000/svg"
   xmlns:rdf="http://www.w3.org/1999/02/22-rdf-syntax-ns#"
   xmlns:cc="http://creativecommons.org/ns#"
   xmlns:dc="http://purl.org/dc/elements/1.1/">
  <defs
     id="defs750" />
  <sodipodi:namedview
     id="base"
     pagecolor="#ffffff"
     bordercolor="#666666"
     borderopacity="1.0"
     inkscape:pageopacity="0.0"
     inkscape:pageshadow="2"
     inkscape:zoom="0.5"
     inkscape:cx="875"
     inkscape:cy="682"
     inkscape:document-units="px"
     inkscape:current-layer="layer1"
     showgrid="true"
     units="px"
     inkscape:window-width="1118"
     inkscape:window-height="864"
     inkscape:window-x="398"
     inkscape:window-y="85"
     inkscape:window-maximized="0"
     showguides="true"
     inkscape:guide-bbox="true"
     inkscape:pagecheckerboard="0">
    <inkscape:grid
       type="xygrid"
       id="grid758" />
    <sodipodi:guide
       position="240,200"
       orientation="0,1"
       id="guide8"
       inkscape:locked="false" />
  </sodipodi:namedview>
  <metadata
     id="metadata753">
    <rdf:RDF>
      <cc:Work
         rdf:about="">
        <dc:format>image/svg+xml</dc:format>
        <dc:type
           rdf:resource="http://purl.org/dc/dcmitype/StillImage" />
        <dc:title />
      </cc:Work>
    </rdf:RDF>
  </metadata>
  <g
     inkscape:label="Layer 1"
     inkscape:groupmode="layer"
     id="layer1"
     transform="translate(0,-32.41664)"
     style="display:inline">
    <path
       style="fill:#000000;stroke-width:6.06432"
       d="m 598.84489,746.80536 c -11.73851,-10.46157 -13.66799,-26.88427 -10.93265,-46.39262 1.82679,-13.02905 7.7318,-47.90808 13.12217,-53.06457 8.93398,-8.54636 44.91852,-6.30602 56.44252,4.7179 18.19143,17.4022 23.63672,87.95027 6.41625,99.13392 -11.3614,7.37853 -52.39033,6.88641 -65.04829,-4.39463 z M 151.66362,641.21482 c -22.94912,-3.8821 -39.84041,-51.11167 -29.70496,-62.79427 4.24529,-4.89332 11.41634,-9.25391 20.23718,-11.45025 7.67237,-1.91038 20.25585,-8.95554 23.0827,-11.61881 9.73923,-9.17565 21.72146,-0.93485 6.72146,19.06515 5,0 6.34665,1.69805 34.52056,1.03826 49.08358,-1.14948 100.67296,-16.43471 146.31109,-26.27872 15.00263,-3.23602 38.91007,-9.12151 65.28697,-17.1569 83.294,-25.37448 137.12423,-36.75025 143.77888,-30.38433 3.37047,3.22421 12.90578,46.47816 13.85634,54.56434 1.45826,12.40496 -0.69369,14.52828 -13.77253,13.5894 -8.52544,-0.612 -67.1185,12.21299 -130.20679,28.49999 -63.08829,16.287 -124.59312,32.07708 -136.67739,35.08899 -26.55013,6.61755 -120.34662,11.7425 -143.43351,7.83715 z m 373.85712,-262.7769 c -3.72524,-0.40256 -70.6047,-6.36052 -152.44897,-10.18758 -186.94702,-8.74172 -198.41035,-20.47163 -198.41035,-39.942 0,-17.20846 -1.46864,-41.15019 158.10824,-30.27396 52.85777,3.60259 135.16706,7.4124 182.90955,8.46622 28.93484,0.63868 82.878,1.37489 84.80453,3.91604 1.51626,2 2,38.18193 2,49.27289 0,16.97881 -0.6377,17.3024 -37.4564,19.00657 -20.60103,0.95351 -37.39495,-0.03 -39.5066,-0.25818 z M 47.533277,168.06827 c 0,-2.98639 1.587136,-27.98371 13.03362,-48.64838 21.933593,-39.59733 91.840673,-33.19483 105.632183,-15.15215 9.57775,12.53006 16.72326,84.81995 7.74713,97.65259 -5.3865,7.70079 -57.45778,7.349 -65.40586,-2.61647 -5.05046,-6.33239 -9.182657,-24.34509 -9.182657,-35.13933 0,-10.79425 -2.469257,-19.62592 -5.487226,-19.62592 -7.604361,0 -29.069336,23.0457 -34.115829,42.64839 -3.872133,15.04098 -12.221361,-6.65263 -12.221361,-19.11873 z"
       id="path111"
       sodipodi:nodetypes="sssssssssscssssssscsssssssssssssssssss" />
  </g>
</svg>
