<?xml version="1.0" encoding="UTF-8" standalone="no"?>
<!-- Created with Inkscape (http://www.inkscape.org/) -->

<svg
   width="1000"
   height="1000"
   viewBox="0 0 1000 1000"
   version="1.1"
   id="svg756"
   inkscape:version="1.1 (c68e22c387, 2021-05-23)"
   sodipodi:docname="u2260.svg"
   xmlns:inkscape="http://www.inkscape.org/namespaces/inkscape"
   xmlns:sodipodi="http://sodipodi.sourceforge.net/DTD/sodipodi-0.dtd"
   xmlns="http://www.w3.org/2000/svg"
   xmlns:svg="http://www.w3.org/2000/svg"
   xmlns:rdf="http://www.w3.org/1999/02/22-rdf-syntax-ns#"
   xmlns:cc="http://creativecommons.org/ns#"
   xmlns:dc="http://purl.org/dc/elements/1.1/">
  <defs
     id="defs750" />
  <sodipodi:namedview
     id="base"
     pagecolor="#ffffff"
     bordercolor="#666666"
     borderopacity="1.0"
     inkscape:pageopacity="0.0"
     inkscape:pageshadow="2"
     inkscape:zoom="0.5"
     inkscape:cx="227"
     inkscape:cy="546"
     inkscape:document-units="px"
     inkscape:current-layer="layer1"
     showgrid="true"
     units="px"
     inkscape:window-width="1118"
     inkscape:window-height="864"
     inkscape:window-x="-5"
     inkscape:window-y="45"
     inkscape:window-maximized="0"
     showguides="true"
     inkscape:guide-bbox="true"
     inkscape:pagecheckerboard="0">
    <inkscape:grid
       type="xygrid"
       id="grid758" />
    <sodipodi:guide
       position="240,200"
       orientation="0,1"
       id="guide8"
       inkscape:locked="false" />
  </sodipodi:namedview>
  <metadata
     id="metadata753">
    <rdf:RDF>
      <cc:Work
         rdf:about="">
        <dc:format>image/svg+xml</dc:format>
        <dc:type
           rdf:resource="http://purl.org/dc/dcmitype/StillImage" />
        <dc:title />
      </cc:Work>
    </rdf:RDF>
  </metadata>
  <g
     inkscape:label="Layer 1"
     inkscape:groupmode="layer"
     id="layer1"
     transform="translate(0,-32.41664)"
     style="display:inline">
    <path
       style="fill:#000000;stroke-width:5.81828"
       d="m 598.25354,716.79777 c -21.10098,-18.6774 -56.6767,-55.46563 -79.95399,-80.9452 -28.32746,-31.00755 -33.82019,-35.66671 -59.10695,-61.99058 -21.83958,1.65194 -49.97792,4.20076 -49.97792,4.20076 -33.85644,2.15561 -110.29799,5.9224 -121.40879,6.22448 -20.36674,0.55374 -117.38077,-2.37118 -156.51289,-12.3204 -32.912711,-8.36796 -60.173052,-62.4753 -37.311996,-73.08935 20.001896,-9.28659 31.654426,-8.72349 31.654426,1.52968 0,5.4965 9.56949,10.11551 27.37805,13.21489 17.81825,3.10106 111.46458,8.05033 140.30798,5.69388 20.68336,-1.6898 110.20101,-5.73116 121.52727,-8.37973 -24.13037,-33.54755 -42.18096,-61.79581 -60.01793,-96.41157 -20.11181,-2.09761 -75.34243,4.39657 -122.11279,4.39657 -124.12307,0 -149.137253,-1.25941 -170.807226,-10.91597 -13.472882,-6.00379 -32.49615,-49.34928 -32.49615,-54.28307 0,-7.51335 4.44728,-8.12888 27.378049,-3.78923 14.847338,2.80986 46.745547,10.19524 114.066357,9.40028 67.32079,-0.79495 154.06419,-5.37368 158.26844,-5.26343 -13.68953,-34.92801 -19.64984,-59.94441 -22.26582,-96.17643 -1.78679,-24.74729 -0.69552,-46.74205 3.73626,-53.34951 8.98917,-13.40219 73.51208,3.66974 69.94657,22.67579 -2.01002,10.71451 -0.90124,30.15041 3.10738,50.76794 5.99376,30.82768 10.19557,46.56027 23.71043,74.01565 50.23623,-3.13348 66.5954,-6.17204 117.73911,-10.10465 17.43618,-1.34072 71.27584,-5.499 119.64519,-9.2211 48.36934,-3.72209 102.18882,-4.95389 119.59885,-2.73734 29.61145,3.77 30.3616,5.11455 31.65455,19.9612 l 4,45.93109 -95.18935,-0.20216 c -114.08814,-0.2423 -248.44907,14.59848 -270.43193,15.69762 14.22636,25.6659 31.14104,56.15558 61.7843,97.8501 23.84116,-0.44006 73.60304,-0.40221 73.60304,-0.40221 128.93522,0.43986 151.61283,4.30693 154.34556,23.67395 1.83744,13.02232 18.68497,49.47821 -7.93709,46.25997 -58.53681,-7.07633 -158.87555,-8.16899 -173.66607,-7.59234 29.95693,33.45643 30.11376,32.50148 66.75209,69.19353 15.74099,15.76406 25.98503,24.4886 30.55024,27.8028 0,-10.99143 8.17814,-32.93056 12.70972,-30.88893 4.53158,2.04164 7.63927,12.19187 16.51457,25.33253 8.92334,13.21178 20.98417,38.7258 24.40851,49.27113 C 705,747.41664 685,752.41664 653.4005,752.03341 c -4.92166,-0.0597 -34.04603,-16.55825 -55.14696,-35.23564 z"
       id="path75"
       sodipodi:nodetypes="sscsssssssccssssscsssscsssscsccssscscsssss" />
  </g>
</svg>
