<?xml version="1.0" encoding="UTF-8" standalone="no"?>
<!-- Created with Inkscape (http://www.inkscape.org/) -->

<svg
   width="1000"
   height="1000"
   viewBox="0 0 1000 1000"
   version="1.1"
   id="svg756"
   inkscape:version="1.1 (c68e22c387, 2021-05-23)"
   sodipodi:docname="u3005.svg"
   xmlns:inkscape="http://www.inkscape.org/namespaces/inkscape"
   xmlns:sodipodi="http://sodipodi.sourceforge.net/DTD/sodipodi-0.dtd"
   xmlns="http://www.w3.org/2000/svg"
   xmlns:svg="http://www.w3.org/2000/svg"
   xmlns:rdf="http://www.w3.org/1999/02/22-rdf-syntax-ns#"
   xmlns:cc="http://creativecommons.org/ns#"
   xmlns:dc="http://purl.org/dc/elements/1.1/">
  <defs
     id="defs750" />
  <sodipodi:namedview
     id="base"
     pagecolor="#ffffff"
     bordercolor="#666666"
     borderopacity="1.0"
     inkscape:pageopacity="0.0"
     inkscape:pageshadow="2"
     inkscape:zoom="0.5"
     inkscape:cx="831"
     inkscape:cy="634"
     inkscape:document-units="px"
     inkscape:current-layer="layer1"
     showgrid="true"
     units="px"
     inkscape:window-width="1118"
     inkscape:window-height="864"
     inkscape:window-x="607"
     inkscape:window-y="73"
     inkscape:window-maximized="0"
     showguides="true"
     inkscape:guide-bbox="true"
     inkscape:pagecheckerboard="0">
    <inkscape:grid
       type="xygrid"
       id="grid758" />
    <sodipodi:guide
       position="240,200"
       orientation="0,1"
       id="guide8"
       inkscape:locked="false" />
  </sodipodi:namedview>
  <metadata
     id="metadata753">
    <rdf:RDF>
      <cc:Work
         rdf:about="">
        <dc:format>image/svg+xml</dc:format>
        <dc:type
           rdf:resource="http://purl.org/dc/dcmitype/StillImage" />
        <dc:title />
      </cc:Work>
    </rdf:RDF>
  </metadata>
  <g
     inkscape:label="Layer 1"
     inkscape:groupmode="layer"
     id="layer1"
     transform="translate(0,-32.41664)"
     style="display:inline">
    <path
       id="path39"
       style="fill:#000000;stroke-width:20.9723"
       d="m 296.9364,237.47033 c -13.27529,5.16348 -25.84052,11.35409 -37.51707,19.62933 -6.93329,4.95568 -13.73735,10.09069 -20.77163,14.90447 -11.34263,7.80692 -23.67543,22.26867 -32.16807,28.71133 -4.52782,3.43489 -17.21753,15.82558 -21.47963,16.70118 4,-2 10.42684,-11.96988 12.32415,-14.96747 1.48138,-2.34045 3.50367,-10.77444 3.22409,-13.56348 -0.54824,-5.46905 -0.22762,-7.58517 -3.75496,-12.95103 -3.02786,-4.60605 -20.82186,-23.53014 -26.14351,-24.42561 -3.20086,-0.53861 -6.64977,-0.0924 -10.21618,0.94993 -4.68479,1.3692 -8.75759,5.91577 -12.35954,9.00964 -8.36134,7.18194 -13.6824,10.58457 -21.72712,24.74072 -10.34693,18.2073 -15.87726,31.84854 -25.58377,54.15158 -7.986543,18.35101 -16.259273,40.70907 -24.647926,58.87931 -6.945797,15.1208 -13.508257,30.57592 -19.259618,46.24901 -2.203747,5.98273 -4.349573,12.17952 -6.277491,18.26467 -1.419256,4.50612 -2.741922,9.00496 -3.930391,13.60971 -0.561157,2.16206 -1.095531,4.38892 -1.582075,6.5795 -0.796413,3.60597 -1.495124,7.30997 -2.010971,11.02758 -0.125837,0.96926 -0.283087,2.21205 -0.394326,3.28739 -0.819607,7.87207 -0.689823,16.10191 2.32206,23.53488 2.142464,5.40625 6.044404,10.19061 11.218978,12.93501 5.13348,2.83766 11.195738,3.63752 16.968729,2.92137 9.094013,-1.07626 17.497598,-5.38012 24.743815,-10.82127 6.565216,-4.93017 12.250606,-10.92444 17.392146,-17.3005 26.60168,-32.07923 54.14562,-63.40293 83.21706,-93.27482 18.07154,-18.50532 36.70501,-36.4988 56.47271,-53.19385 12.39819,-10.4178 25.22699,-20.39147 38.99767,-28.94384 8.43886,-5.16583 17.28069,-9.95925 26.92151,-12.43968 4.14136,-0.99311 8.53825,-1.71976 12.7448,-0.6934 4.5979,1.48525 8.99172,3.65088 12.94739,6.43091 6.90514,4.82679 12.05169,11.9405 14.92702,19.825 3.75301,10.19912 4.25721,21.28391 3.41482,32.02611 -1.12735,13.42966 -4.36487,26.59588 -8.44627,39.41011 -6.02924,18.75762 -13.99,36.8402 -22.82341,54.43296 -7.20341,14.24647 -14.91497,28.24552 -23.33528,41.81088 -8.32828,13.29966 -17.38632,26.24556 -28.23603,37.62879 -8.51648,8.91975 -18.34085,16.7998 -29.64045,21.89333 -10.12967,4.65452 -21.28793,6.82519 -32.40495,6.95988 -13.90852,0.19228 -27.68087,-2.36739 -41.1381,-5.66906 -3.73381,-0.87861 -7.50656,-1.60225 -11.3113,-2.09613 -1.62755,-0.21154 -3.47577,-0.39985 -5.19816,-0.50907 -7.17078,-0.45381 -14.60509,0.0199 -21.27692,2.8912 -4.71056,2.01845 -8.87114,5.66741 -10.78395,10.50059 -1.95031,4.77758 -2.09122,10.37151 0.0906,15.09958 2.05375,4.54023 5.15453,8.48808 8.02008,12.53033 4.92037,6.65217 10.28335,12.85211 15.82889,19.00273 1.53977,1.70461 3.17641,3.48843 4.75664,5.17349 11.30936,12.11295 23.2714,23.86245 35.3335,35.26054 21.27646,20.07835 43.26376,39.40227 65.72115,58.18113 22.52283,18.7619 45.42796,36.91905 69.24969,54.01286 6.59368,4.72788 13.26475,9.34811 20.02216,13.83904 5.12326,3.38595 10.4903,6.82501 15.77195,10.00963 12.85805,7.77481 26.3242,14.58386 40.34443,20.00605 6.74356,2.61061 13.69381,4.8629 20.64119,6.63954 5.88956,1.50766 11.75158,2.66627 17.76403,3.47191 3.97564,0.52812 7.77578,0.87783 11.76551,1.07201 2.67329,0.12824 5.32075,0.17731 8.04097,0.14603 2.21646,-0.0226 4.5287,-0.11506 6.69145,-0.24752 2.77723,-0.17741 5.51571,-0.43221 8.22256,-0.77413 5.4097,-0.67784 10.80508,-1.6971 16.04091,-2.99466 8.02783,-1.98007 15.97926,-4.71074 23.5295,-7.89136 5.87337,-2.47895 11.60917,-5.27561 17.21875,-8.30274 0.83818,-0.46793 1.92633,-1.06292 2.86056,-1.57968 4.40024,-2.46446 8.84652,-5.15513 13.01054,-7.82657 3.26084,-2.10031 6.58569,-4.34382 9.70117,-6.51172 12.35059,-8.64337 24.02873,-18.19791 35.53945,-27.91825 6.41609,-5.50082 12.7878,-11.08095 18.64746,-17.17944 2.80106,-3.00941 5.517,-6.24568 7.09308,-10.08485 1.10884,-2.94512 -0.0794,-6.51383 -2.69826,-8.24726 -2.41701,-1.61573 -5.48875,-1.48227 -8.25838,-1.21705 -5.46365,0.70846 -10.60993,2.79928 -15.81253,4.49912 -22.91925,7.7834 -46.1666,14.78102 -69.94559,19.41746 -22.5132,4.35081 -45.69799,6.43813 -68.53501,3.53101 -16.829,-2.08597 -33.26433,-6.96988 -48.65414,-14.06214 -19.68342,-9.037 -37.69457,-21.30414 -54.71268,-34.61194 -9.30736,-7.31377 -18.35928,-14.94681 -27.3653,-22.62653 C 316.34024,687.75204 312,683.41664 300.6601,674.33277 296.12306,670.69836 290.29289,665.42184 285.73371,660.73547 280.60082,655.45939 276,651.41664 273,647.41664 c 4,-1 13.81607,-5.54024 16.50231,-6.89604 6.2048,-3.13169 9.22325,-5.82258 13.9684,-9.21005 8.56017,-6.11092 15.74686,-13.907 22.50838,-21.91005 7.84133,-9.38342 15.12311,-19.33983 22.05728,-29.46729 2.13041,-3.1105 4.19421,-6.20947 6.22989,-9.33286 13.16466,-20.19522 25.13541,-41.1522 36.26305,-62.53199 12.43204,-24.01447 25.87339,-46.70449 35.54687,-72.01563 3.86057,-10.21417 7.49265,-22.56102 10.54604,-33.0016 3.38955,-17.83141 6.66448,-32.59356 4.95892,-47.86718 -1.37524,-12.31553 -2.64066,-24.54623 -7.05183,-34.76207 -7.13932,-16.53395 -12.82338,-27.88044 -23.83546,-42.09354 -10.08711,-13.01926 -21.41924,-25.19145 -34.47002,-35.2874 -7.72678,-5.97736 -23.60435,-13.79771 -34.60435,-14.79771 -17.70257,-1.60933 -30.32659,3.64308 -44.68308,9.2271 z"
       sodipodi:nodetypes="sccscssssssssccccccccccccccccccccccccccccccccccccccccccccccccccccccccccccccccsscssccccccssssss" />
  </g>
</svg>
